%FSLAX45Y45*%
G04 Gerber Fmt 4.5, Leading zero omitted, Abs format (unit mm)*
G04 Created by KiCad (PCBNEW (2014-12-11 BZR 5320)-product) date Fri Dec 19 11:32:45 2014*
%MOMM*%
G01*
G04 APERTURE LIST*
%ADD10C,0.127000*%
%ADD11C,0.254000*%
%ADD12C,0.200000*%
%ADD13C,0.300000*%
G04 APERTURE END LIST*
D10*
D11*
X14732000Y-11785600D02*
G75*
G03X14579600Y-11633200I-152400J0D01*
G01*
X14427200Y-11480800D02*
G75*
G03X14579600Y-11633200I152400J0D01*
G01*
X14579600Y-8585200D02*
G75*
G03X14427200Y-8737600I0J-152400D01*
G01*
X14579600Y-8585200D02*
G75*
G03X14732000Y-8432800I0J152400D01*
G01*
X2540000Y-5486400D02*
G75*
G03X2692400Y-5638800I152400J0D01*
G01*
X2844800Y-5791200D02*
G75*
G03X2692400Y-5638800I-152400J0D01*
G01*
X2692400Y-8686800D02*
G75*
G03X2540000Y-8839200I0J-152400D01*
G01*
X2692400Y-8686800D02*
G75*
G03X2844800Y-8534400I0J152400D01*
G01*
X14732000Y-8432800D02*
X14732000Y-3302000D01*
X14732000Y-11785600D02*
X14732000Y-13970000D01*
X2540000Y-8839200D02*
X2540000Y-13970000D01*
X2540000Y-5486400D02*
X2540000Y-3302000D01*
X14427200Y-10109200D02*
X14427200Y-11480800D01*
X14427200Y-10109200D02*
X14427200Y-8737600D01*
X2844800Y-7162800D02*
X2844800Y-8534400D01*
X2844800Y-7162800D02*
X2844800Y-5791200D01*
X13970000Y-14732000D02*
X3302000Y-14732000D01*
X3302000Y-2540000D02*
X13970000Y-2540000D01*
X2540000Y-13970000D02*
G75*
G03X3302000Y-14732000I762000J0D01*
G01*
X14732000Y-3302000D02*
G75*
G03X13970000Y-2540000I-762000J0D01*
G01*
X3302000Y-2540000D02*
G75*
G03X2540000Y-3302000I0J-762000D01*
G01*
X13970000Y-14732000D02*
G75*
G03X14732000Y-13970000I0J762000D01*
G01*
D12*
X5224780Y-7175500D02*
X5288280Y-7239000D01*
X5288280Y-7175500D02*
X5224780Y-7239000D01*
X5562600Y-7340600D02*
X5626100Y-7404100D01*
X5626100Y-7340600D02*
X5562600Y-7404100D01*
X6672580Y-7340600D02*
X6736080Y-7404100D01*
X6736080Y-7340600D02*
X6672580Y-7404100D01*
X6673850Y-2767330D02*
X6737350Y-2830830D01*
X6737350Y-2767330D02*
X6673850Y-2830830D01*
X6673850Y-4291330D02*
X6737350Y-4354830D01*
X6737350Y-4291330D02*
X6673850Y-4354830D01*
X6673850Y-5815330D02*
X6737350Y-5878830D01*
X6737350Y-5815330D02*
X6673850Y-5878830D01*
X6673850Y-8863330D02*
X6737350Y-8926830D01*
X6737350Y-8863330D02*
X6673850Y-8926830D01*
X6673850Y-10387330D02*
X6737350Y-10450830D01*
X6737350Y-10387330D02*
X6673850Y-10450830D01*
X6673850Y-11911330D02*
X6737350Y-11974830D01*
X6737350Y-11911330D02*
X6673850Y-11974830D01*
X6673850Y-13435330D02*
X6737350Y-13498830D01*
X6737350Y-13435330D02*
X6673850Y-13498830D01*
X7485380Y-8149590D02*
X7548880Y-8213090D01*
X7548880Y-8149590D02*
X7485380Y-8213090D01*
X7486650Y-3773170D02*
X7550150Y-3836670D01*
X7550150Y-3773170D02*
X7486650Y-3836670D01*
X7486650Y-5297170D02*
X7550150Y-5360670D01*
X7550150Y-5297170D02*
X7486650Y-5360670D01*
X7486650Y-6816090D02*
X7550150Y-6879590D01*
X7550150Y-6816090D02*
X7486650Y-6879590D01*
X7486650Y-9864090D02*
X7550150Y-9927590D01*
X7550150Y-9864090D02*
X7486650Y-9927590D01*
X7486650Y-11388090D02*
X7550150Y-11451590D01*
X7550150Y-11388090D02*
X7486650Y-11451590D01*
X7486650Y-12917170D02*
X7550150Y-12980670D01*
X7550150Y-12917170D02*
X7486650Y-12980670D01*
X7486650Y-14441170D02*
X7550150Y-14504670D01*
X7550150Y-14441170D02*
X7486650Y-14504670D01*
X10128250Y-2767330D02*
X10191750Y-2830830D01*
X10191750Y-2767330D02*
X10128250Y-2830830D01*
X10128250Y-3773170D02*
X10191750Y-3836670D01*
X10191750Y-3773170D02*
X10128250Y-3836670D01*
X10128250Y-4291330D02*
X10191750Y-4354830D01*
X10191750Y-4291330D02*
X10128250Y-4354830D01*
X10128250Y-5297170D02*
X10191750Y-5360670D01*
X10191750Y-5297170D02*
X10128250Y-5360670D01*
X10128250Y-5815330D02*
X10191750Y-5878830D01*
X10191750Y-5815330D02*
X10128250Y-5878830D01*
X10128250Y-6821170D02*
X10191750Y-6884670D01*
X10191750Y-6821170D02*
X10128250Y-6884670D01*
X10128250Y-8345170D02*
X10191750Y-8408670D01*
X10191750Y-8345170D02*
X10128250Y-8408670D01*
X10128250Y-8863330D02*
X10191750Y-8926830D01*
X10191750Y-8863330D02*
X10128250Y-8926830D01*
X10128250Y-9869170D02*
X10191750Y-9932670D01*
X10191750Y-9869170D02*
X10128250Y-9932670D01*
X10128250Y-10387330D02*
X10191750Y-10450830D01*
X10191750Y-10387330D02*
X10128250Y-10450830D01*
X10128250Y-11393170D02*
X10191750Y-11456670D01*
X10191750Y-11393170D02*
X10128250Y-11456670D01*
X10128250Y-11911330D02*
X10191750Y-11974830D01*
X10191750Y-11911330D02*
X10128250Y-11974830D01*
X10128250Y-12917170D02*
X10191750Y-12980670D01*
X10191750Y-12917170D02*
X10128250Y-12980670D01*
X10128250Y-13435330D02*
X10191750Y-13498830D01*
X10191750Y-13435330D02*
X10128250Y-13498830D01*
X10128250Y-14441170D02*
X10191750Y-14504670D01*
X10191750Y-14441170D02*
X10128250Y-14504670D01*
X10133330Y-7334250D02*
X10196830Y-7397750D01*
X10196830Y-7334250D02*
X10133330Y-7397750D01*
X10961370Y-5297170D02*
X11024870Y-5360670D01*
X11024870Y-5297170D02*
X10961370Y-5360670D01*
X11271250Y-4291330D02*
X11334750Y-4354830D01*
X11334750Y-4291330D02*
X11271250Y-4354830D01*
X12904470Y-11912600D02*
X12967970Y-11976100D01*
X12967970Y-11912600D02*
X12904470Y-11976100D01*
X12915900Y-11391900D02*
X12979400Y-11455400D01*
X12979400Y-11391900D02*
X12915900Y-11455400D01*
X13614400Y-10388600D02*
X13677900Y-10452100D01*
X13677900Y-10388600D02*
X13614400Y-10452100D01*
X3194050Y-5848350D02*
G75*
G03X3194050Y-5848350I-50800J0D01*
G01*
X3194050Y-7372350D02*
G75*
G03X3194050Y-7372350I-50800J0D01*
G01*
X3194050Y-8896350D02*
G75*
G03X3194050Y-8896350I-50800J0D01*
G01*
X3194050Y-10420350D02*
G75*
G03X3194050Y-10420350I-50800J0D01*
G01*
X3194050Y-11944350D02*
G75*
G03X3194050Y-11944350I-50800J0D01*
G01*
X3702050Y-5594350D02*
G75*
G03X3702050Y-5594350I-50800J0D01*
G01*
X3702050Y-11690350D02*
G75*
G03X3702050Y-11690350I-50800J0D01*
G01*
X4210050Y-5594350D02*
G75*
G03X4210050Y-5594350I-50800J0D01*
G01*
X12401550Y-13201650D02*
G75*
G03X12401550Y-13201650I-50800J0D01*
G01*
X12655550Y-11677650D02*
G75*
G03X12655550Y-11677650I-50800J0D01*
G01*
X12910820Y-8630920D02*
G75*
G03X12910820Y-8630920I-50800J0D01*
G01*
X13290550Y-12312650D02*
G75*
G03X13290550Y-12312650I-50800J0D01*
G01*
X13672820Y-8630920D02*
G75*
G03X13672820Y-8630920I-50800J0D01*
G01*
X13925550Y-11677650D02*
G75*
G03X13925550Y-11677650I-50800J0D01*
G01*
X14179550Y-3803650D02*
G75*
G03X14179550Y-3803650I-50800J0D01*
G01*
X14179550Y-5327650D02*
G75*
G03X14179550Y-5327650I-50800J0D01*
G01*
X14179550Y-6851650D02*
G75*
G03X14179550Y-6851650I-50800J0D01*
G01*
X14179550Y-9899650D02*
G75*
G03X14179550Y-9899650I-50800J0D01*
G01*
X14179550Y-11423650D02*
G75*
G03X14179550Y-11423650I-50800J0D01*
G01*
X14180820Y-8376920D02*
G75*
G03X14180820Y-8376920I-50800J0D01*
G01*
X4064000Y-3911600D02*
X4064000Y-4216400D01*
X3911600Y-4064000D02*
X4216400Y-4064000D01*
X4064000Y-13055600D02*
X4064000Y-13360400D01*
X3911600Y-13208000D02*
X4216400Y-13208000D01*
X5588000Y-3149600D02*
X5588000Y-3454400D01*
X5435600Y-3302000D02*
X5740400Y-3302000D01*
X5588000Y-7721600D02*
X5588000Y-8026400D01*
X5435600Y-7874000D02*
X5740400Y-7874000D01*
X5588000Y-9245600D02*
X5588000Y-9550400D01*
X5435600Y-9398000D02*
X5740400Y-9398000D01*
X5588000Y-13817600D02*
X5588000Y-14122400D01*
X5435600Y-13970000D02*
X5740400Y-13970000D01*
X11684000Y-3149600D02*
X11684000Y-3454400D01*
X11531600Y-3302000D02*
X11836400Y-3302000D01*
X11684000Y-7721600D02*
X11684000Y-8026400D01*
X11531600Y-7874000D02*
X11836400Y-7874000D01*
X11684000Y-9245600D02*
X11684000Y-9550400D01*
X11531600Y-9398000D02*
X11836400Y-9398000D01*
X11684000Y-13817600D02*
X11684000Y-14122400D01*
X11531600Y-13970000D02*
X11836400Y-13970000D01*
X13208000Y-3911600D02*
X13208000Y-4216400D01*
X13055600Y-4064000D02*
X13360400Y-4064000D01*
X13208000Y-13055600D02*
X13208000Y-13360400D01*
X13055600Y-13208000D02*
X13360400Y-13208000D01*
D13*
X2798728Y-15210414D02*
X2798728Y-14910414D01*
X2870157Y-14910414D01*
X2913014Y-14924700D01*
X2941586Y-14953271D01*
X2955871Y-14981843D01*
X2970157Y-15038986D01*
X2970157Y-15081843D01*
X2955871Y-15138986D01*
X2941586Y-15167557D01*
X2913014Y-15196129D01*
X2870157Y-15210414D01*
X2798728Y-15210414D01*
X3098728Y-15210414D02*
X3098728Y-15010414D01*
X3098728Y-15067557D02*
X3113014Y-15038986D01*
X3127300Y-15024700D01*
X3155871Y-15010414D01*
X3184443Y-15010414D01*
X3284443Y-15210414D02*
X3284443Y-15010414D01*
X3284443Y-14910414D02*
X3270157Y-14924700D01*
X3284443Y-14938986D01*
X3298728Y-14924700D01*
X3284443Y-14910414D01*
X3284443Y-14938986D01*
X3470157Y-15210414D02*
X3441586Y-15196129D01*
X3427300Y-15167557D01*
X3427300Y-14910414D01*
X3627300Y-15210414D02*
X3598728Y-15196129D01*
X3584443Y-15167557D01*
X3584443Y-14910414D01*
X3970157Y-15210414D02*
X3970157Y-14910414D01*
X4070157Y-15124700D01*
X4170157Y-14910414D01*
X4170157Y-15210414D01*
X4441586Y-15210414D02*
X4441586Y-15053271D01*
X4427300Y-15024700D01*
X4398729Y-15010414D01*
X4341586Y-15010414D01*
X4313014Y-15024700D01*
X4441586Y-15196129D02*
X4413014Y-15210414D01*
X4341586Y-15210414D01*
X4313014Y-15196129D01*
X4298729Y-15167557D01*
X4298729Y-15138986D01*
X4313014Y-15110414D01*
X4341586Y-15096129D01*
X4413014Y-15096129D01*
X4441586Y-15081843D01*
X4584443Y-15010414D02*
X4584443Y-15310414D01*
X4584443Y-15024700D02*
X4613014Y-15010414D01*
X4670157Y-15010414D01*
X4698729Y-15024700D01*
X4713014Y-15038986D01*
X4727300Y-15067557D01*
X4727300Y-15153271D01*
X4713014Y-15181843D01*
X4698729Y-15196129D01*
X4670157Y-15210414D01*
X4613014Y-15210414D01*
X4584443Y-15196129D01*
X4855871Y-15181843D02*
X4870157Y-15196129D01*
X4855871Y-15210414D01*
X4841586Y-15196129D01*
X4855871Y-15181843D01*
X4855871Y-15210414D01*
X4855871Y-15024700D02*
X4870157Y-15038986D01*
X4855871Y-15053271D01*
X4841586Y-15038986D01*
X4855871Y-15024700D01*
X4855871Y-15053271D01*
X2463800Y-15672950D02*
X2527300Y-15736450D01*
X2527300Y-15672950D02*
X2463800Y-15736450D01*
X2855871Y-15540414D02*
X2884443Y-15540414D01*
X2913014Y-15554700D01*
X2927300Y-15568986D01*
X2941586Y-15597557D01*
X2955871Y-15654700D01*
X2955871Y-15726129D01*
X2941586Y-15783271D01*
X2927300Y-15811843D01*
X2913014Y-15826129D01*
X2884443Y-15840414D01*
X2855871Y-15840414D01*
X2827300Y-15826129D01*
X2813014Y-15811843D01*
X2798728Y-15783271D01*
X2784443Y-15726129D01*
X2784443Y-15654700D01*
X2798728Y-15597557D01*
X2813014Y-15568986D01*
X2827300Y-15554700D01*
X2855871Y-15540414D01*
X3084443Y-15811843D02*
X3098728Y-15826129D01*
X3084443Y-15840414D01*
X3070157Y-15826129D01*
X3084443Y-15811843D01*
X3084443Y-15840414D01*
X3355871Y-15540414D02*
X3298728Y-15540414D01*
X3270157Y-15554700D01*
X3255871Y-15568986D01*
X3227300Y-15611843D01*
X3213014Y-15668986D01*
X3213014Y-15783271D01*
X3227300Y-15811843D01*
X3241586Y-15826129D01*
X3270157Y-15840414D01*
X3327300Y-15840414D01*
X3355871Y-15826129D01*
X3370157Y-15811843D01*
X3384443Y-15783271D01*
X3384443Y-15711843D01*
X3370157Y-15683271D01*
X3355871Y-15668986D01*
X3327300Y-15654700D01*
X3270157Y-15654700D01*
X3241586Y-15668986D01*
X3227300Y-15683271D01*
X3213014Y-15711843D01*
X3641586Y-15640414D02*
X3641586Y-15840414D01*
X3570157Y-15526129D02*
X3498728Y-15740414D01*
X3684443Y-15740414D01*
X3798728Y-15840414D02*
X3798728Y-15640414D01*
X3798728Y-15668986D02*
X3813014Y-15654700D01*
X3841586Y-15640414D01*
X3884443Y-15640414D01*
X3913014Y-15654700D01*
X3927300Y-15683271D01*
X3927300Y-15840414D01*
X3927300Y-15683271D02*
X3941586Y-15654700D01*
X3970157Y-15640414D01*
X4013014Y-15640414D01*
X4041586Y-15654700D01*
X4055871Y-15683271D01*
X4055871Y-15840414D01*
X4198729Y-15840414D02*
X4198729Y-15640414D01*
X4198729Y-15668986D02*
X4213014Y-15654700D01*
X4241586Y-15640414D01*
X4284443Y-15640414D01*
X4313014Y-15654700D01*
X4327300Y-15683271D01*
X4327300Y-15840414D01*
X4327300Y-15683271D02*
X4341586Y-15654700D01*
X4370157Y-15640414D01*
X4413014Y-15640414D01*
X4441586Y-15654700D01*
X4455871Y-15683271D01*
X4455871Y-15840414D01*
X5041586Y-15526129D02*
X4784443Y-15911843D01*
X5427300Y-15540414D02*
X5455871Y-15540414D01*
X5484443Y-15554700D01*
X5498728Y-15568986D01*
X5513014Y-15597557D01*
X5527300Y-15654700D01*
X5527300Y-15726129D01*
X5513014Y-15783271D01*
X5498728Y-15811843D01*
X5484443Y-15826129D01*
X5455871Y-15840414D01*
X5427300Y-15840414D01*
X5398728Y-15826129D01*
X5384443Y-15811843D01*
X5370157Y-15783271D01*
X5355871Y-15726129D01*
X5355871Y-15654700D01*
X5370157Y-15597557D01*
X5384443Y-15568986D01*
X5398728Y-15554700D01*
X5427300Y-15540414D01*
X5655871Y-15811843D02*
X5670157Y-15826129D01*
X5655871Y-15840414D01*
X5641586Y-15826129D01*
X5655871Y-15811843D01*
X5655871Y-15840414D01*
X5855871Y-15540414D02*
X5884443Y-15540414D01*
X5913014Y-15554700D01*
X5927300Y-15568986D01*
X5941585Y-15597557D01*
X5955871Y-15654700D01*
X5955871Y-15726129D01*
X5941585Y-15783271D01*
X5927300Y-15811843D01*
X5913014Y-15826129D01*
X5884443Y-15840414D01*
X5855871Y-15840414D01*
X5827300Y-15826129D01*
X5813014Y-15811843D01*
X5798728Y-15783271D01*
X5784443Y-15726129D01*
X5784443Y-15654700D01*
X5798728Y-15597557D01*
X5813014Y-15568986D01*
X5827300Y-15554700D01*
X5855871Y-15540414D01*
X6070157Y-15568986D02*
X6084443Y-15554700D01*
X6113014Y-15540414D01*
X6184443Y-15540414D01*
X6213014Y-15554700D01*
X6227300Y-15568986D01*
X6241585Y-15597557D01*
X6241585Y-15626129D01*
X6227300Y-15668986D01*
X6055871Y-15840414D01*
X6241585Y-15840414D01*
X6513014Y-15540414D02*
X6370157Y-15540414D01*
X6355871Y-15683271D01*
X6370157Y-15668986D01*
X6398728Y-15654700D01*
X6470157Y-15654700D01*
X6498728Y-15668986D01*
X6513014Y-15683271D01*
X6527300Y-15711843D01*
X6527300Y-15783271D01*
X6513014Y-15811843D01*
X6498728Y-15826129D01*
X6470157Y-15840414D01*
X6398728Y-15840414D01*
X6370157Y-15826129D01*
X6355871Y-15811843D01*
X6641586Y-15540414D02*
X6641586Y-15597557D01*
X6755871Y-15540414D02*
X6755871Y-15597557D01*
X7198728Y-15954700D02*
X7184443Y-15940414D01*
X7155871Y-15897557D01*
X7141585Y-15868986D01*
X7127300Y-15826129D01*
X7113014Y-15754700D01*
X7113014Y-15697557D01*
X7127300Y-15626129D01*
X7141585Y-15583271D01*
X7155871Y-15554700D01*
X7184443Y-15511843D01*
X7198728Y-15497557D01*
X7284443Y-15540414D02*
X7470157Y-15540414D01*
X7370157Y-15654700D01*
X7413014Y-15654700D01*
X7441585Y-15668986D01*
X7455871Y-15683271D01*
X7470157Y-15711843D01*
X7470157Y-15783271D01*
X7455871Y-15811843D01*
X7441585Y-15826129D01*
X7413014Y-15840414D01*
X7327300Y-15840414D01*
X7298728Y-15826129D01*
X7284443Y-15811843D01*
X7613014Y-15840414D02*
X7670157Y-15840414D01*
X7698728Y-15826129D01*
X7713014Y-15811843D01*
X7741585Y-15768986D01*
X7755871Y-15711843D01*
X7755871Y-15597557D01*
X7741585Y-15568986D01*
X7727300Y-15554700D01*
X7698728Y-15540414D01*
X7641585Y-15540414D01*
X7613014Y-15554700D01*
X7598728Y-15568986D01*
X7584443Y-15597557D01*
X7584443Y-15668986D01*
X7598728Y-15697557D01*
X7613014Y-15711843D01*
X7641585Y-15726129D01*
X7698728Y-15726129D01*
X7727300Y-15711843D01*
X7741585Y-15697557D01*
X7755871Y-15668986D01*
X8113014Y-15840414D02*
X8113014Y-15540414D01*
X8241585Y-15840414D02*
X8241585Y-15683271D01*
X8227300Y-15654700D01*
X8198728Y-15640414D01*
X8155871Y-15640414D01*
X8127300Y-15654700D01*
X8113014Y-15668986D01*
X8427300Y-15840414D02*
X8398728Y-15826129D01*
X8384443Y-15811843D01*
X8370157Y-15783271D01*
X8370157Y-15697557D01*
X8384443Y-15668986D01*
X8398728Y-15654700D01*
X8427300Y-15640414D01*
X8470157Y-15640414D01*
X8498728Y-15654700D01*
X8513014Y-15668986D01*
X8527300Y-15697557D01*
X8527300Y-15783271D01*
X8513014Y-15811843D01*
X8498728Y-15826129D01*
X8470157Y-15840414D01*
X8427300Y-15840414D01*
X8698728Y-15840414D02*
X8670157Y-15826129D01*
X8655871Y-15797557D01*
X8655871Y-15540414D01*
X8927300Y-15826129D02*
X8898729Y-15840414D01*
X8841586Y-15840414D01*
X8813014Y-15826129D01*
X8798729Y-15797557D01*
X8798729Y-15683271D01*
X8813014Y-15654700D01*
X8841586Y-15640414D01*
X8898729Y-15640414D01*
X8927300Y-15654700D01*
X8941586Y-15683271D01*
X8941586Y-15711843D01*
X8798729Y-15740414D01*
X9055871Y-15826129D02*
X9084443Y-15840414D01*
X9141586Y-15840414D01*
X9170157Y-15826129D01*
X9184443Y-15797557D01*
X9184443Y-15783271D01*
X9170157Y-15754700D01*
X9141586Y-15740414D01*
X9098729Y-15740414D01*
X9070157Y-15726129D01*
X9055871Y-15697557D01*
X9055871Y-15683271D01*
X9070157Y-15654700D01*
X9098729Y-15640414D01*
X9141586Y-15640414D01*
X9170157Y-15654700D01*
X9284443Y-15954700D02*
X9298729Y-15940414D01*
X9327300Y-15897557D01*
X9341586Y-15868986D01*
X9355871Y-15826129D01*
X9370157Y-15754700D01*
X9370157Y-15697557D01*
X9355871Y-15626129D01*
X9341586Y-15583271D01*
X9327300Y-15554700D01*
X9298729Y-15511843D01*
X9284443Y-15497557D01*
X2527300Y-16100700D02*
G75*
G03X2527300Y-16100700I-50800J0D01*
G01*
X2955871Y-16236414D02*
X2784443Y-16236414D01*
X2870157Y-16236414D02*
X2870157Y-15936414D01*
X2841586Y-15979271D01*
X2813014Y-16007843D01*
X2784443Y-16022129D01*
X3084443Y-16207843D02*
X3098728Y-16222129D01*
X3084443Y-16236414D01*
X3070157Y-16222129D01*
X3084443Y-16207843D01*
X3084443Y-16236414D01*
X3284443Y-15936414D02*
X3313014Y-15936414D01*
X3341586Y-15950700D01*
X3355871Y-15964986D01*
X3370157Y-15993557D01*
X3384443Y-16050700D01*
X3384443Y-16122129D01*
X3370157Y-16179271D01*
X3355871Y-16207843D01*
X3341586Y-16222129D01*
X3313014Y-16236414D01*
X3284443Y-16236414D01*
X3255871Y-16222129D01*
X3241586Y-16207843D01*
X3227300Y-16179271D01*
X3213014Y-16122129D01*
X3213014Y-16050700D01*
X3227300Y-15993557D01*
X3241586Y-15964986D01*
X3255871Y-15950700D01*
X3284443Y-15936414D01*
X3498728Y-15964986D02*
X3513014Y-15950700D01*
X3541586Y-15936414D01*
X3613014Y-15936414D01*
X3641586Y-15950700D01*
X3655871Y-15964986D01*
X3670157Y-15993557D01*
X3670157Y-16022129D01*
X3655871Y-16064986D01*
X3484443Y-16236414D01*
X3670157Y-16236414D01*
X3798728Y-16236414D02*
X3798728Y-16036414D01*
X3798728Y-16064986D02*
X3813014Y-16050700D01*
X3841586Y-16036414D01*
X3884443Y-16036414D01*
X3913014Y-16050700D01*
X3927300Y-16079271D01*
X3927300Y-16236414D01*
X3927300Y-16079271D02*
X3941586Y-16050700D01*
X3970157Y-16036414D01*
X4013014Y-16036414D01*
X4041586Y-16050700D01*
X4055871Y-16079271D01*
X4055871Y-16236414D01*
X4198729Y-16236414D02*
X4198729Y-16036414D01*
X4198729Y-16064986D02*
X4213014Y-16050700D01*
X4241586Y-16036414D01*
X4284443Y-16036414D01*
X4313014Y-16050700D01*
X4327300Y-16079271D01*
X4327300Y-16236414D01*
X4327300Y-16079271D02*
X4341586Y-16050700D01*
X4370157Y-16036414D01*
X4413014Y-16036414D01*
X4441586Y-16050700D01*
X4455871Y-16079271D01*
X4455871Y-16236414D01*
X5041586Y-15922129D02*
X4784443Y-16307843D01*
X5427300Y-15936414D02*
X5455871Y-15936414D01*
X5484443Y-15950700D01*
X5498728Y-15964986D01*
X5513014Y-15993557D01*
X5527300Y-16050700D01*
X5527300Y-16122129D01*
X5513014Y-16179271D01*
X5498728Y-16207843D01*
X5484443Y-16222129D01*
X5455871Y-16236414D01*
X5427300Y-16236414D01*
X5398728Y-16222129D01*
X5384443Y-16207843D01*
X5370157Y-16179271D01*
X5355871Y-16122129D01*
X5355871Y-16050700D01*
X5370157Y-15993557D01*
X5384443Y-15964986D01*
X5398728Y-15950700D01*
X5427300Y-15936414D01*
X5655871Y-16207843D02*
X5670157Y-16222129D01*
X5655871Y-16236414D01*
X5641586Y-16222129D01*
X5655871Y-16207843D01*
X5655871Y-16236414D01*
X5855871Y-15936414D02*
X5884443Y-15936414D01*
X5913014Y-15950700D01*
X5927300Y-15964986D01*
X5941585Y-15993557D01*
X5955871Y-16050700D01*
X5955871Y-16122129D01*
X5941585Y-16179271D01*
X5927300Y-16207843D01*
X5913014Y-16222129D01*
X5884443Y-16236414D01*
X5855871Y-16236414D01*
X5827300Y-16222129D01*
X5813014Y-16207843D01*
X5798728Y-16179271D01*
X5784443Y-16122129D01*
X5784443Y-16050700D01*
X5798728Y-15993557D01*
X5813014Y-15964986D01*
X5827300Y-15950700D01*
X5855871Y-15936414D01*
X6213014Y-16036414D02*
X6213014Y-16236414D01*
X6141585Y-15922129D02*
X6070157Y-16136414D01*
X6255871Y-16136414D01*
X6427300Y-15936414D02*
X6455871Y-15936414D01*
X6484443Y-15950700D01*
X6498728Y-15964986D01*
X6513014Y-15993557D01*
X6527300Y-16050700D01*
X6527300Y-16122129D01*
X6513014Y-16179271D01*
X6498728Y-16207843D01*
X6484443Y-16222129D01*
X6455871Y-16236414D01*
X6427300Y-16236414D01*
X6398728Y-16222129D01*
X6384443Y-16207843D01*
X6370157Y-16179271D01*
X6355871Y-16122129D01*
X6355871Y-16050700D01*
X6370157Y-15993557D01*
X6384443Y-15964986D01*
X6398728Y-15950700D01*
X6427300Y-15936414D01*
X6641586Y-15936414D02*
X6641586Y-15993557D01*
X6755871Y-15936414D02*
X6755871Y-15993557D01*
X7198728Y-16350700D02*
X7184443Y-16336414D01*
X7155871Y-16293557D01*
X7141585Y-16264986D01*
X7127300Y-16222129D01*
X7113014Y-16150700D01*
X7113014Y-16093557D01*
X7127300Y-16022129D01*
X7141585Y-15979271D01*
X7155871Y-15950700D01*
X7184443Y-15907843D01*
X7198728Y-15893557D01*
X7298728Y-15964986D02*
X7313014Y-15950700D01*
X7341585Y-15936414D01*
X7413014Y-15936414D01*
X7441585Y-15950700D01*
X7455871Y-15964986D01*
X7470157Y-15993557D01*
X7470157Y-16022129D01*
X7455871Y-16064986D01*
X7284443Y-16236414D01*
X7470157Y-16236414D01*
X7655871Y-15936414D02*
X7684443Y-15936414D01*
X7713014Y-15950700D01*
X7727300Y-15964986D01*
X7741585Y-15993557D01*
X7755871Y-16050700D01*
X7755871Y-16122129D01*
X7741585Y-16179271D01*
X7727300Y-16207843D01*
X7713014Y-16222129D01*
X7684443Y-16236414D01*
X7655871Y-16236414D01*
X7627300Y-16222129D01*
X7613014Y-16207843D01*
X7598728Y-16179271D01*
X7584443Y-16122129D01*
X7584443Y-16050700D01*
X7598728Y-15993557D01*
X7613014Y-15964986D01*
X7627300Y-15950700D01*
X7655871Y-15936414D01*
X8113014Y-16236414D02*
X8113014Y-15936414D01*
X8241585Y-16236414D02*
X8241585Y-16079271D01*
X8227300Y-16050700D01*
X8198728Y-16036414D01*
X8155871Y-16036414D01*
X8127300Y-16050700D01*
X8113014Y-16064986D01*
X8427300Y-16236414D02*
X8398728Y-16222129D01*
X8384443Y-16207843D01*
X8370157Y-16179271D01*
X8370157Y-16093557D01*
X8384443Y-16064986D01*
X8398728Y-16050700D01*
X8427300Y-16036414D01*
X8470157Y-16036414D01*
X8498728Y-16050700D01*
X8513014Y-16064986D01*
X8527300Y-16093557D01*
X8527300Y-16179271D01*
X8513014Y-16207843D01*
X8498728Y-16222129D01*
X8470157Y-16236414D01*
X8427300Y-16236414D01*
X8698728Y-16236414D02*
X8670157Y-16222129D01*
X8655871Y-16193557D01*
X8655871Y-15936414D01*
X8927300Y-16222129D02*
X8898729Y-16236414D01*
X8841586Y-16236414D01*
X8813014Y-16222129D01*
X8798729Y-16193557D01*
X8798729Y-16079271D01*
X8813014Y-16050700D01*
X8841586Y-16036414D01*
X8898729Y-16036414D01*
X8927300Y-16050700D01*
X8941586Y-16079271D01*
X8941586Y-16107843D01*
X8798729Y-16136414D01*
X9055871Y-16222129D02*
X9084443Y-16236414D01*
X9141586Y-16236414D01*
X9170157Y-16222129D01*
X9184443Y-16193557D01*
X9184443Y-16179271D01*
X9170157Y-16150700D01*
X9141586Y-16136414D01*
X9098729Y-16136414D01*
X9070157Y-16122129D01*
X9055871Y-16093557D01*
X9055871Y-16079271D01*
X9070157Y-16050700D01*
X9098729Y-16036414D01*
X9141586Y-16036414D01*
X9170157Y-16050700D01*
X9284443Y-16350700D02*
X9298729Y-16336414D01*
X9327300Y-16293557D01*
X9341586Y-16264986D01*
X9355871Y-16222129D01*
X9370157Y-16150700D01*
X9370157Y-16093557D01*
X9355871Y-16022129D01*
X9341586Y-15979271D01*
X9327300Y-15950700D01*
X9298729Y-15907843D01*
X9284443Y-15893557D01*
X2374900Y-16344300D02*
X2374900Y-16649100D01*
X2222500Y-16496700D02*
X2527300Y-16496700D01*
X2770157Y-16332414D02*
X2955871Y-16332414D01*
X2855871Y-16446700D01*
X2898728Y-16446700D01*
X2927300Y-16460986D01*
X2941586Y-16475271D01*
X2955871Y-16503843D01*
X2955871Y-16575271D01*
X2941586Y-16603843D01*
X2927300Y-16618129D01*
X2898728Y-16632414D01*
X2813014Y-16632414D01*
X2784443Y-16618129D01*
X2770157Y-16603843D01*
X3084443Y-16603843D02*
X3098728Y-16618129D01*
X3084443Y-16632414D01*
X3070157Y-16618129D01*
X3084443Y-16603843D01*
X3084443Y-16632414D01*
X3284443Y-16332414D02*
X3313014Y-16332414D01*
X3341586Y-16346700D01*
X3355871Y-16360986D01*
X3370157Y-16389557D01*
X3384443Y-16446700D01*
X3384443Y-16518129D01*
X3370157Y-16575271D01*
X3355871Y-16603843D01*
X3341586Y-16618129D01*
X3313014Y-16632414D01*
X3284443Y-16632414D01*
X3255871Y-16618129D01*
X3241586Y-16603843D01*
X3227300Y-16575271D01*
X3213014Y-16518129D01*
X3213014Y-16446700D01*
X3227300Y-16389557D01*
X3241586Y-16360986D01*
X3255871Y-16346700D01*
X3284443Y-16332414D01*
X3655871Y-16332414D02*
X3513014Y-16332414D01*
X3498728Y-16475271D01*
X3513014Y-16460986D01*
X3541586Y-16446700D01*
X3613014Y-16446700D01*
X3641586Y-16460986D01*
X3655871Y-16475271D01*
X3670157Y-16503843D01*
X3670157Y-16575271D01*
X3655871Y-16603843D01*
X3641586Y-16618129D01*
X3613014Y-16632414D01*
X3541586Y-16632414D01*
X3513014Y-16618129D01*
X3498728Y-16603843D01*
X3798728Y-16632414D02*
X3798728Y-16432414D01*
X3798728Y-16460986D02*
X3813014Y-16446700D01*
X3841586Y-16432414D01*
X3884443Y-16432414D01*
X3913014Y-16446700D01*
X3927300Y-16475271D01*
X3927300Y-16632414D01*
X3927300Y-16475271D02*
X3941586Y-16446700D01*
X3970157Y-16432414D01*
X4013014Y-16432414D01*
X4041586Y-16446700D01*
X4055871Y-16475271D01*
X4055871Y-16632414D01*
X4198729Y-16632414D02*
X4198729Y-16432414D01*
X4198729Y-16460986D02*
X4213014Y-16446700D01*
X4241586Y-16432414D01*
X4284443Y-16432414D01*
X4313014Y-16446700D01*
X4327300Y-16475271D01*
X4327300Y-16632414D01*
X4327300Y-16475271D02*
X4341586Y-16446700D01*
X4370157Y-16432414D01*
X4413014Y-16432414D01*
X4441586Y-16446700D01*
X4455871Y-16475271D01*
X4455871Y-16632414D01*
X5041586Y-16318129D02*
X4784443Y-16703843D01*
X5427300Y-16332414D02*
X5455871Y-16332414D01*
X5484443Y-16346700D01*
X5498728Y-16360986D01*
X5513014Y-16389557D01*
X5527300Y-16446700D01*
X5527300Y-16518129D01*
X5513014Y-16575271D01*
X5498728Y-16603843D01*
X5484443Y-16618129D01*
X5455871Y-16632414D01*
X5427300Y-16632414D01*
X5398728Y-16618129D01*
X5384443Y-16603843D01*
X5370157Y-16575271D01*
X5355871Y-16518129D01*
X5355871Y-16446700D01*
X5370157Y-16389557D01*
X5384443Y-16360986D01*
X5398728Y-16346700D01*
X5427300Y-16332414D01*
X5655871Y-16603843D02*
X5670157Y-16618129D01*
X5655871Y-16632414D01*
X5641586Y-16618129D01*
X5655871Y-16603843D01*
X5655871Y-16632414D01*
X5955871Y-16632414D02*
X5784443Y-16632414D01*
X5870157Y-16632414D02*
X5870157Y-16332414D01*
X5841585Y-16375271D01*
X5813014Y-16403843D01*
X5784443Y-16418129D01*
X6070157Y-16360986D02*
X6084443Y-16346700D01*
X6113014Y-16332414D01*
X6184443Y-16332414D01*
X6213014Y-16346700D01*
X6227300Y-16360986D01*
X6241585Y-16389557D01*
X6241585Y-16418129D01*
X6227300Y-16460986D01*
X6055871Y-16632414D01*
X6241585Y-16632414D01*
X6427300Y-16332414D02*
X6455871Y-16332414D01*
X6484443Y-16346700D01*
X6498728Y-16360986D01*
X6513014Y-16389557D01*
X6527300Y-16446700D01*
X6527300Y-16518129D01*
X6513014Y-16575271D01*
X6498728Y-16603843D01*
X6484443Y-16618129D01*
X6455871Y-16632414D01*
X6427300Y-16632414D01*
X6398728Y-16618129D01*
X6384443Y-16603843D01*
X6370157Y-16575271D01*
X6355871Y-16518129D01*
X6355871Y-16446700D01*
X6370157Y-16389557D01*
X6384443Y-16360986D01*
X6398728Y-16346700D01*
X6427300Y-16332414D01*
X6641586Y-16332414D02*
X6641586Y-16389557D01*
X6755871Y-16332414D02*
X6755871Y-16389557D01*
X7198728Y-16746700D02*
X7184443Y-16732414D01*
X7155871Y-16689557D01*
X7141585Y-16660986D01*
X7127300Y-16618129D01*
X7113014Y-16546700D01*
X7113014Y-16489557D01*
X7127300Y-16418129D01*
X7141585Y-16375271D01*
X7155871Y-16346700D01*
X7184443Y-16303843D01*
X7198728Y-16289557D01*
X7470157Y-16632414D02*
X7298728Y-16632414D01*
X7384443Y-16632414D02*
X7384443Y-16332414D01*
X7355871Y-16375271D01*
X7327300Y-16403843D01*
X7298728Y-16418129D01*
X7584443Y-16360986D02*
X7598728Y-16346700D01*
X7627300Y-16332414D01*
X7698728Y-16332414D01*
X7727300Y-16346700D01*
X7741585Y-16360986D01*
X7755871Y-16389557D01*
X7755871Y-16418129D01*
X7741585Y-16460986D01*
X7570157Y-16632414D01*
X7755871Y-16632414D01*
X8113014Y-16632414D02*
X8113014Y-16332414D01*
X8241585Y-16632414D02*
X8241585Y-16475271D01*
X8227300Y-16446700D01*
X8198728Y-16432414D01*
X8155871Y-16432414D01*
X8127300Y-16446700D01*
X8113014Y-16460986D01*
X8427300Y-16632414D02*
X8398728Y-16618129D01*
X8384443Y-16603843D01*
X8370157Y-16575271D01*
X8370157Y-16489557D01*
X8384443Y-16460986D01*
X8398728Y-16446700D01*
X8427300Y-16432414D01*
X8470157Y-16432414D01*
X8498728Y-16446700D01*
X8513014Y-16460986D01*
X8527300Y-16489557D01*
X8527300Y-16575271D01*
X8513014Y-16603843D01*
X8498728Y-16618129D01*
X8470157Y-16632414D01*
X8427300Y-16632414D01*
X8698728Y-16632414D02*
X8670157Y-16618129D01*
X8655871Y-16589557D01*
X8655871Y-16332414D01*
X8927300Y-16618129D02*
X8898729Y-16632414D01*
X8841586Y-16632414D01*
X8813014Y-16618129D01*
X8798729Y-16589557D01*
X8798729Y-16475271D01*
X8813014Y-16446700D01*
X8841586Y-16432414D01*
X8898729Y-16432414D01*
X8927300Y-16446700D01*
X8941586Y-16475271D01*
X8941586Y-16503843D01*
X8798729Y-16532414D01*
X9055871Y-16618129D02*
X9084443Y-16632414D01*
X9141586Y-16632414D01*
X9170157Y-16618129D01*
X9184443Y-16589557D01*
X9184443Y-16575271D01*
X9170157Y-16546700D01*
X9141586Y-16532414D01*
X9098729Y-16532414D01*
X9070157Y-16518129D01*
X9055871Y-16489557D01*
X9055871Y-16475271D01*
X9070157Y-16446700D01*
X9098729Y-16432414D01*
X9141586Y-16432414D01*
X9170157Y-16446700D01*
X9284443Y-16746700D02*
X9298729Y-16732414D01*
X9327300Y-16689557D01*
X9341586Y-16660986D01*
X9355871Y-16618129D01*
X9370157Y-16546700D01*
X9370157Y-16489557D01*
X9355871Y-16418129D01*
X9341586Y-16375271D01*
X9327300Y-16346700D01*
X9298729Y-16303843D01*
X9284443Y-16289557D01*
M02*
