M48
INCH,TZ
T1C0.025
T2C0.040
T3C0.120
%
G90
G05
T1
X2.0695Y-2.8375
X2.2025Y-2.9025
X2.6395Y-2.9025
X2.64Y-1.102
X2.64Y-1.702
X2.64Y-2.302
X2.64Y-3.502
X2.64Y-4.102
X2.64Y-4.702
X2.64Y-5.302
X2.9595Y-3.221
X2.96Y-1.498
X2.96Y-2.098
X2.96Y-2.696
X2.96Y-3.896
X2.96Y-4.496
X2.96Y-5.098
X2.96Y-5.698
X4.Y-1.102
X4.Y-1.498
X4.Y-1.702
X4.Y-2.098
X4.Y-2.302
X4.Y-2.698
X4.Y-3.298
X4.Y-3.502
X4.Y-3.898
X4.Y-4.102
X4.Y-4.498
X4.Y-4.702
X4.Y-5.098
X4.Y-5.302
X4.Y-5.698
X4.002Y-2.9
X4.328Y-2.098
X4.45Y-1.702
X5.093Y-4.7025
X5.0975Y-4.4975
X5.3725Y-4.1025
T2
X1.2375Y-2.3025
X1.2375Y-2.9025
X1.2375Y-3.5025
X1.2375Y-4.1025
X1.2375Y-4.7025
X1.4375Y-2.2025
X1.4375Y-4.6025
X1.6375Y-2.2025
X4.8625Y-5.1975
X4.9625Y-4.5975
X5.063Y-3.398
X5.2125Y-4.8475
X5.363Y-3.398
X5.4625Y-4.5975
X5.5625Y-1.4975
X5.5625Y-2.0975
X5.5625Y-2.6975
X5.5625Y-3.8975
X5.5625Y-4.4975
X5.563Y-3.298
T3
X1.6Y-1.6
X1.6Y-5.2
X2.2Y-1.3
X2.2Y-3.1
X2.2Y-3.7
X2.2Y-5.5
X4.6Y-1.3
X4.6Y-3.1
X4.6Y-3.7
X4.6Y-5.5
X5.2Y-1.6
X5.2Y-5.2
T0
M30
