%FSLAX34Y34*%
G04 Gerber Fmt 3.4, Leading zero omitted, Abs format*
G04 (created by PCBNEW (2014-05-21 BZR 4875)-product) date Friday 23 May 2014 05:29:24 PM IST*
%MOIN*%
G01*
G70*
G90*
G04 APERTURE LIST*
%ADD10C,0.006000*%
%ADD11C,0.010000*%
%ADD12C,0.015000*%
%ADD13C,0.012000*%
%ADD14C,0.000100*%
%ADD15C,0.005000*%
%ADD16C,0.260000*%
%ADD17R,0.060000X0.080000*%
G04 APERTURE END LIST*
G54D10*
G54D11*
X58000Y-46400D02*
G75*
G03X57400Y-45800I-600J0D01*
G74*
G01*
X56800Y-45200D02*
G75*
G03X57400Y-45800I600J0D01*
G74*
G01*
X57400Y-33800D02*
G75*
G03X56800Y-34400I0J-600D01*
G74*
G01*
X57400Y-33800D02*
G75*
G03X58000Y-33200I0J600D01*
G74*
G01*
X10000Y-21600D02*
G75*
G03X10600Y-22200I600J0D01*
G74*
G01*
X11200Y-22800D02*
G75*
G03X10600Y-22200I-600J0D01*
G74*
G01*
X10600Y-34200D02*
G75*
G03X10000Y-34800I0J-600D01*
G74*
G01*
X10600Y-34200D02*
G75*
G03X11200Y-33600I0J600D01*
G74*
G01*
X58000Y-33200D02*
X58000Y-13000D01*
X58000Y-46400D02*
X58000Y-55000D01*
X10000Y-34800D02*
X10000Y-55000D01*
X10000Y-21600D02*
X10000Y-13000D01*
X56800Y-39800D02*
X56800Y-45200D01*
X56800Y-39800D02*
X56800Y-34400D01*
X11200Y-28200D02*
X11200Y-33600D01*
X11200Y-28200D02*
X11200Y-22800D01*
X55000Y-58000D02*
X13000Y-58000D01*
X13000Y-10000D02*
X55000Y-10000D01*
X10000Y-55000D02*
G75*
G03X13000Y-58000I3000J0D01*
G74*
G01*
X58000Y-13000D02*
G75*
G03X55000Y-10000I-3000J0D01*
G74*
G01*
X13000Y-10000D02*
G75*
G03X10000Y-13000I0J-3000D01*
G74*
G01*
X55000Y-58000D02*
G75*
G03X58000Y-55000I0J3000D01*
G74*
G01*
G54D12*
X39561Y-13876D02*
X39714Y-13876D01*
X39561Y-13571D02*
X39714Y-13571D01*
X40361Y-13228D02*
X39561Y-13228D01*
X39942Y-13228D02*
X39942Y-12771D01*
X40361Y-12771D02*
X39561Y-12771D01*
X39561Y-12428D02*
X39714Y-12428D01*
X39561Y-12123D02*
X39714Y-12123D01*
X39561Y-19857D02*
X39714Y-19857D01*
X39561Y-19552D02*
X39714Y-19552D01*
X39600Y-18790D02*
X39561Y-18866D01*
X39561Y-18980D01*
X39600Y-19095D01*
X39676Y-19171D01*
X39752Y-19209D01*
X39904Y-19247D01*
X40019Y-19247D01*
X40171Y-19209D01*
X40247Y-19171D01*
X40323Y-19095D01*
X40361Y-18980D01*
X40361Y-18904D01*
X40323Y-18790D01*
X40285Y-18752D01*
X40019Y-18752D01*
X40019Y-18904D01*
X39561Y-18447D02*
X39714Y-18447D01*
X39561Y-18142D02*
X39714Y-18142D01*
X39561Y-25799D02*
X39714Y-25799D01*
X39561Y-25495D02*
X39714Y-25495D01*
X39942Y-24885D02*
X39942Y-25152D01*
X40361Y-25152D02*
X39561Y-25152D01*
X39561Y-24771D01*
X39561Y-24504D02*
X39714Y-24504D01*
X39561Y-24200D02*
X39714Y-24200D01*
X39561Y-31819D02*
X39714Y-31819D01*
X39561Y-31514D02*
X39714Y-31514D01*
X39942Y-31171D02*
X39942Y-30904D01*
X40361Y-30790D02*
X40361Y-31171D01*
X39561Y-31171D01*
X39561Y-30790D01*
X39561Y-30485D02*
X39714Y-30485D01*
X39561Y-30180D02*
X39714Y-30180D01*
X39561Y-37857D02*
X39714Y-37857D01*
X39561Y-37552D02*
X39714Y-37552D01*
X40361Y-37209D02*
X39561Y-37209D01*
X39561Y-37019D01*
X39600Y-36904D01*
X39676Y-36828D01*
X39752Y-36790D01*
X39904Y-36752D01*
X40019Y-36752D01*
X40171Y-36790D01*
X40247Y-36828D01*
X40323Y-36904D01*
X40361Y-37019D01*
X40361Y-37209D01*
X39561Y-36447D02*
X39714Y-36447D01*
X39561Y-36142D02*
X39714Y-36142D01*
X39561Y-43857D02*
X39714Y-43857D01*
X39561Y-43552D02*
X39714Y-43552D01*
X40285Y-42752D02*
X40323Y-42790D01*
X40361Y-42904D01*
X40361Y-42980D01*
X40323Y-43095D01*
X40247Y-43171D01*
X40171Y-43209D01*
X40019Y-43247D01*
X39904Y-43247D01*
X39752Y-43209D01*
X39676Y-43171D01*
X39600Y-43095D01*
X39561Y-42980D01*
X39561Y-42904D01*
X39600Y-42790D01*
X39638Y-42752D01*
X39561Y-42447D02*
X39714Y-42447D01*
X39561Y-42142D02*
X39714Y-42142D01*
X39561Y-49857D02*
X39714Y-49857D01*
X39561Y-49552D02*
X39714Y-49552D01*
X39942Y-48942D02*
X39980Y-48828D01*
X40019Y-48790D01*
X40095Y-48752D01*
X40209Y-48752D01*
X40285Y-48790D01*
X40323Y-48828D01*
X40361Y-48904D01*
X40361Y-49209D01*
X39561Y-49209D01*
X39561Y-48942D01*
X39600Y-48866D01*
X39638Y-48828D01*
X39714Y-48790D01*
X39790Y-48790D01*
X39866Y-48828D01*
X39904Y-48866D01*
X39942Y-48942D01*
X39942Y-49209D01*
X39561Y-48447D02*
X39714Y-48447D01*
X39561Y-48142D02*
X39714Y-48142D01*
X39561Y-54200D02*
X39714Y-54200D01*
X39561Y-54504D02*
X39714Y-54504D01*
X40133Y-54809D02*
X40133Y-55190D01*
X40361Y-54733D02*
X39561Y-55000D01*
X40361Y-55266D01*
X39561Y-55495D02*
X39714Y-55495D01*
X39561Y-55800D02*
X39714Y-55800D01*
G54D13*
X28561Y-51304D02*
X29361Y-51114D01*
X28790Y-50961D01*
X29361Y-50809D01*
X28561Y-50619D01*
X28980Y-50161D02*
X29361Y-50161D01*
X28561Y-50428D02*
X28980Y-50161D01*
X28561Y-49895D01*
X28561Y-49476D02*
X28561Y-49323D01*
X28600Y-49247D01*
X28676Y-49171D01*
X28828Y-49133D01*
X29095Y-49133D01*
X29247Y-49171D01*
X29323Y-49247D01*
X29361Y-49323D01*
X29361Y-49476D01*
X29323Y-49552D01*
X29247Y-49628D01*
X29095Y-49666D01*
X28828Y-49666D01*
X28676Y-49628D01*
X28600Y-49552D01*
X28561Y-49476D01*
X29361Y-48409D02*
X29361Y-48790D01*
X28561Y-48790D01*
X28561Y-48142D02*
X29209Y-48142D01*
X29285Y-48104D01*
X29323Y-48066D01*
X29361Y-47990D01*
X29361Y-47838D01*
X29323Y-47761D01*
X29285Y-47723D01*
X29209Y-47685D01*
X28561Y-47685D01*
X29361Y-47304D02*
X28561Y-47304D01*
X29133Y-47038D01*
X28561Y-46771D01*
X29361Y-46771D01*
X28828Y-29952D02*
X29361Y-29799D01*
X28980Y-29647D01*
X29361Y-29495D01*
X28828Y-29342D01*
X28828Y-29114D02*
X29361Y-28961D01*
X28980Y-28809D01*
X29361Y-28657D01*
X28828Y-28504D01*
X28828Y-28276D02*
X29361Y-28123D01*
X28980Y-27971D01*
X29361Y-27819D01*
X28828Y-27666D01*
X29285Y-27361D02*
X29323Y-27323D01*
X29361Y-27361D01*
X29323Y-27399D01*
X29285Y-27361D01*
X29361Y-27361D01*
X28828Y-27057D02*
X29361Y-26904D01*
X28980Y-26752D01*
X29361Y-26599D01*
X28828Y-26447D01*
X28828Y-26219D02*
X29361Y-26028D01*
X28828Y-25838D02*
X29361Y-26028D01*
X29552Y-26104D01*
X29590Y-26142D01*
X29628Y-26219D01*
X29361Y-25419D02*
X29323Y-25495D01*
X29285Y-25533D01*
X29209Y-25571D01*
X28980Y-25571D01*
X28904Y-25533D01*
X28866Y-25495D01*
X28828Y-25419D01*
X28828Y-25304D01*
X28866Y-25228D01*
X28904Y-25190D01*
X28980Y-25152D01*
X29209Y-25152D01*
X29285Y-25190D01*
X29323Y-25228D01*
X29361Y-25304D01*
X29361Y-25419D01*
X29361Y-24695D02*
X29323Y-24771D01*
X29247Y-24809D01*
X28561Y-24809D01*
X28828Y-24047D02*
X29361Y-24047D01*
X28828Y-24390D02*
X29247Y-24390D01*
X29323Y-24352D01*
X29361Y-24276D01*
X29361Y-24161D01*
X29323Y-24085D01*
X29285Y-24047D01*
X29361Y-23666D02*
X28828Y-23666D01*
X28904Y-23666D02*
X28866Y-23628D01*
X28828Y-23552D01*
X28828Y-23438D01*
X28866Y-23361D01*
X28942Y-23323D01*
X29361Y-23323D01*
X28942Y-23323D02*
X28866Y-23285D01*
X28828Y-23209D01*
X28828Y-23095D01*
X28866Y-23019D01*
X28942Y-22980D01*
X29361Y-22980D01*
X29285Y-22599D02*
X29323Y-22561D01*
X29361Y-22599D01*
X29323Y-22638D01*
X29285Y-22599D01*
X29361Y-22599D01*
X29323Y-21876D02*
X29361Y-21952D01*
X29361Y-22104D01*
X29323Y-22180D01*
X29285Y-22219D01*
X29209Y-22257D01*
X28980Y-22257D01*
X28904Y-22219D01*
X28866Y-22180D01*
X28828Y-22104D01*
X28828Y-21952D01*
X28866Y-21876D01*
X29361Y-21419D02*
X29323Y-21495D01*
X29285Y-21533D01*
X29209Y-21571D01*
X28980Y-21571D01*
X28904Y-21533D01*
X28866Y-21495D01*
X28828Y-21419D01*
X28828Y-21304D01*
X28866Y-21228D01*
X28904Y-21190D01*
X28980Y-21152D01*
X29209Y-21152D01*
X29285Y-21190D01*
X29323Y-21228D01*
X29361Y-21304D01*
X29361Y-21419D01*
X29361Y-20809D02*
X28828Y-20809D01*
X28904Y-20809D02*
X28866Y-20771D01*
X28828Y-20695D01*
X28828Y-20580D01*
X28866Y-20504D01*
X28942Y-20466D01*
X29361Y-20466D01*
X28942Y-20466D02*
X28866Y-20428D01*
X28828Y-20352D01*
X28828Y-20238D01*
X28866Y-20161D01*
X28942Y-20123D01*
X29361Y-20123D01*
X28561Y-39038D02*
X28561Y-38580D01*
X29361Y-38809D02*
X28561Y-38809D01*
X29361Y-38314D02*
X28828Y-38314D01*
X28561Y-38314D02*
X28600Y-38352D01*
X28638Y-38314D01*
X28600Y-38276D01*
X28561Y-38314D01*
X28638Y-38314D01*
X28828Y-37933D02*
X29361Y-37933D01*
X28904Y-37933D02*
X28866Y-37895D01*
X28828Y-37819D01*
X28828Y-37704D01*
X28866Y-37628D01*
X28942Y-37590D01*
X29361Y-37590D01*
X28828Y-37285D02*
X29361Y-37095D01*
X28828Y-36904D02*
X29361Y-37095D01*
X29552Y-37171D01*
X29590Y-37209D01*
X29628Y-37285D01*
X28561Y-36714D02*
X28561Y-36257D01*
X29361Y-36485D02*
X28561Y-36485D01*
X29361Y-35990D02*
X28828Y-35990D01*
X28561Y-35990D02*
X28600Y-36028D01*
X28638Y-35990D01*
X28600Y-35952D01*
X28561Y-35990D01*
X28638Y-35990D01*
X29361Y-35609D02*
X28561Y-35609D01*
X29133Y-35342D01*
X28561Y-35076D01*
X29361Y-35076D01*
G54D14*
G36*
X35181Y-34797D02*
X35173Y-34783D01*
X35154Y-34752D01*
X35125Y-34708D01*
X35091Y-34656D01*
X35055Y-34604D01*
X35027Y-34561D01*
X35007Y-34531D01*
X35000Y-34519D01*
X35003Y-34512D01*
X35015Y-34487D01*
X35033Y-34452D01*
X35044Y-34431D01*
X35058Y-34398D01*
X35061Y-34381D01*
X35057Y-34379D01*
X35032Y-34367D01*
X34989Y-34348D01*
X34932Y-34323D01*
X34865Y-34294D01*
X34793Y-34264D01*
X34720Y-34233D01*
X34650Y-34204D01*
X34587Y-34179D01*
X34535Y-34158D01*
X34500Y-34144D01*
X34485Y-34139D01*
X34481Y-34141D01*
X34465Y-34157D01*
X34444Y-34186D01*
X34393Y-34248D01*
X34317Y-34310D01*
X34230Y-34347D01*
X34133Y-34360D01*
X34043Y-34349D01*
X33957Y-34314D01*
X33880Y-34254D01*
X33822Y-34181D01*
X33786Y-34096D01*
X33774Y-34000D01*
X33784Y-33909D01*
X33819Y-33821D01*
X33878Y-33743D01*
X33916Y-33710D01*
X33994Y-33665D01*
X34078Y-33640D01*
X34100Y-33637D01*
X34192Y-33641D01*
X34280Y-33668D01*
X34359Y-33717D01*
X34424Y-33784D01*
X34430Y-33793D01*
X34454Y-33824D01*
X34470Y-33845D01*
X34483Y-33862D01*
X34766Y-33744D01*
X34811Y-33725D01*
X34889Y-33693D01*
X34955Y-33665D01*
X35008Y-33642D01*
X35044Y-33626D01*
X35058Y-33619D01*
X35059Y-33619D01*
X35061Y-33608D01*
X35053Y-33587D01*
X35034Y-33547D01*
X35020Y-33521D01*
X35006Y-33491D01*
X35000Y-33477D01*
X35007Y-33466D01*
X35025Y-33437D01*
X35053Y-33395D01*
X35088Y-33344D01*
X35121Y-33296D01*
X35150Y-33252D01*
X35171Y-33220D01*
X35179Y-33204D01*
X35179Y-33202D01*
X35171Y-33188D01*
X35150Y-33162D01*
X35114Y-33124D01*
X35060Y-33069D01*
X35051Y-33061D01*
X35006Y-33016D01*
X34968Y-32980D01*
X34940Y-32955D01*
X34928Y-32946D01*
X34928Y-32946D01*
X34913Y-32954D01*
X34880Y-32975D01*
X34835Y-33004D01*
X34783Y-33040D01*
X34647Y-33134D01*
X34518Y-33082D01*
X34479Y-33066D01*
X34431Y-33046D01*
X34397Y-33031D01*
X34382Y-33024D01*
X34377Y-33010D01*
X34369Y-32975D01*
X34358Y-32924D01*
X34347Y-32863D01*
X34336Y-32805D01*
X34326Y-32753D01*
X34319Y-32715D01*
X34316Y-32698D01*
X34313Y-32694D01*
X34305Y-32690D01*
X34287Y-32688D01*
X34255Y-32687D01*
X34205Y-32686D01*
X34133Y-32686D01*
X34125Y-32686D01*
X34056Y-32687D01*
X34001Y-32688D01*
X33965Y-32690D01*
X33951Y-32692D01*
X33951Y-32692D01*
X33947Y-32709D01*
X33939Y-32746D01*
X33929Y-32798D01*
X33917Y-32860D01*
X33916Y-32864D01*
X33904Y-32926D01*
X33893Y-32979D01*
X33885Y-33015D01*
X33880Y-33030D01*
X33876Y-33034D01*
X33851Y-33046D01*
X33813Y-33064D01*
X33766Y-33085D01*
X33717Y-33105D01*
X33673Y-33122D01*
X33640Y-33134D01*
X33625Y-33138D01*
X33625Y-33138D01*
X33610Y-33128D01*
X33578Y-33107D01*
X33533Y-33077D01*
X33480Y-33040D01*
X33476Y-33038D01*
X33424Y-33002D01*
X33379Y-32973D01*
X33347Y-32954D01*
X33333Y-32946D01*
X33332Y-32947D01*
X33317Y-32958D01*
X33287Y-32985D01*
X33247Y-33023D01*
X33200Y-33069D01*
X33186Y-33084D01*
X33136Y-33135D01*
X33103Y-33171D01*
X33086Y-33193D01*
X33082Y-33203D01*
X33082Y-33204D01*
X33092Y-33220D01*
X33114Y-33253D01*
X33144Y-33298D01*
X33180Y-33351D01*
X33183Y-33355D01*
X33219Y-33407D01*
X33248Y-33451D01*
X33269Y-33482D01*
X33277Y-33496D01*
X33277Y-33498D01*
X33271Y-33520D01*
X33258Y-33557D01*
X33240Y-33603D01*
X33220Y-33652D01*
X33202Y-33696D01*
X33187Y-33729D01*
X33178Y-33744D01*
X33177Y-33745D01*
X33158Y-33750D01*
X33119Y-33759D01*
X33065Y-33771D01*
X33000Y-33783D01*
X32990Y-33785D01*
X32927Y-33797D01*
X32876Y-33807D01*
X32840Y-33814D01*
X32825Y-33818D01*
X32823Y-33827D01*
X32821Y-33857D01*
X32820Y-33904D01*
X32819Y-33960D01*
X32819Y-34020D01*
X32821Y-34078D01*
X32822Y-34127D01*
X32825Y-34163D01*
X32828Y-34178D01*
X32829Y-34178D01*
X32848Y-34184D01*
X32887Y-34192D01*
X32942Y-34203D01*
X33006Y-34216D01*
X33018Y-34218D01*
X33080Y-34230D01*
X33131Y-34240D01*
X33167Y-34248D01*
X33181Y-34252D01*
X33184Y-34257D01*
X33195Y-34283D01*
X33212Y-34325D01*
X33233Y-34377D01*
X33282Y-34497D01*
X33181Y-34645D01*
X33172Y-34658D01*
X33135Y-34711D01*
X33106Y-34755D01*
X33087Y-34785D01*
X33080Y-34798D01*
X33080Y-34799D01*
X33093Y-34814D01*
X33120Y-34843D01*
X33159Y-34883D01*
X33206Y-34929D01*
X33240Y-34964D01*
X33281Y-35004D01*
X33309Y-35030D01*
X33327Y-35044D01*
X33338Y-35049D01*
X33345Y-35048D01*
X33360Y-35038D01*
X33393Y-35017D01*
X33437Y-34986D01*
X33490Y-34950D01*
X33533Y-34921D01*
X33583Y-34889D01*
X33618Y-34868D01*
X33635Y-34861D01*
X33643Y-34863D01*
X33671Y-34873D01*
X33715Y-34890D01*
X33767Y-34913D01*
X33884Y-34964D01*
X33899Y-35040D01*
X33907Y-35087D01*
X33920Y-35152D01*
X33932Y-35214D01*
X33951Y-35311D01*
X34307Y-35314D01*
X34313Y-35299D01*
X34317Y-35285D01*
X34325Y-35249D01*
X34335Y-35198D01*
X34346Y-35137D01*
X34356Y-35086D01*
X34366Y-35034D01*
X34373Y-34996D01*
X34377Y-34980D01*
X34382Y-34976D01*
X34407Y-34963D01*
X34447Y-34944D01*
X34495Y-34924D01*
X34545Y-34903D01*
X34591Y-34885D01*
X34626Y-34872D01*
X34645Y-34867D01*
X34658Y-34874D01*
X34689Y-34894D01*
X34732Y-34922D01*
X34784Y-34958D01*
X34835Y-34993D01*
X34880Y-35023D01*
X34911Y-35043D01*
X34926Y-35052D01*
X34936Y-35048D01*
X34961Y-35027D01*
X35001Y-34988D01*
X35058Y-34930D01*
X35067Y-34921D01*
X35112Y-34875D01*
X35148Y-34836D01*
X35172Y-34809D01*
X35181Y-34797D01*
X35181Y-34797D01*
G37*
X35181Y-34797D02*
X35173Y-34783D01*
X35154Y-34752D01*
X35125Y-34708D01*
X35091Y-34656D01*
X35055Y-34604D01*
X35027Y-34561D01*
X35007Y-34531D01*
X35000Y-34519D01*
X35003Y-34512D01*
X35015Y-34487D01*
X35033Y-34452D01*
X35044Y-34431D01*
X35058Y-34398D01*
X35061Y-34381D01*
X35057Y-34379D01*
X35032Y-34367D01*
X34989Y-34348D01*
X34932Y-34323D01*
X34865Y-34294D01*
X34793Y-34264D01*
X34720Y-34233D01*
X34650Y-34204D01*
X34587Y-34179D01*
X34535Y-34158D01*
X34500Y-34144D01*
X34485Y-34139D01*
X34481Y-34141D01*
X34465Y-34157D01*
X34444Y-34186D01*
X34393Y-34248D01*
X34317Y-34310D01*
X34230Y-34347D01*
X34133Y-34360D01*
X34043Y-34349D01*
X33957Y-34314D01*
X33880Y-34254D01*
X33822Y-34181D01*
X33786Y-34096D01*
X33774Y-34000D01*
X33784Y-33909D01*
X33819Y-33821D01*
X33878Y-33743D01*
X33916Y-33710D01*
X33994Y-33665D01*
X34078Y-33640D01*
X34100Y-33637D01*
X34192Y-33641D01*
X34280Y-33668D01*
X34359Y-33717D01*
X34424Y-33784D01*
X34430Y-33793D01*
X34454Y-33824D01*
X34470Y-33845D01*
X34483Y-33862D01*
X34766Y-33744D01*
X34811Y-33725D01*
X34889Y-33693D01*
X34955Y-33665D01*
X35008Y-33642D01*
X35044Y-33626D01*
X35058Y-33619D01*
X35059Y-33619D01*
X35061Y-33608D01*
X35053Y-33587D01*
X35034Y-33547D01*
X35020Y-33521D01*
X35006Y-33491D01*
X35000Y-33477D01*
X35007Y-33466D01*
X35025Y-33437D01*
X35053Y-33395D01*
X35088Y-33344D01*
X35121Y-33296D01*
X35150Y-33252D01*
X35171Y-33220D01*
X35179Y-33204D01*
X35179Y-33202D01*
X35171Y-33188D01*
X35150Y-33162D01*
X35114Y-33124D01*
X35060Y-33069D01*
X35051Y-33061D01*
X35006Y-33016D01*
X34968Y-32980D01*
X34940Y-32955D01*
X34928Y-32946D01*
X34928Y-32946D01*
X34913Y-32954D01*
X34880Y-32975D01*
X34835Y-33004D01*
X34783Y-33040D01*
X34647Y-33134D01*
X34518Y-33082D01*
X34479Y-33066D01*
X34431Y-33046D01*
X34397Y-33031D01*
X34382Y-33024D01*
X34377Y-33010D01*
X34369Y-32975D01*
X34358Y-32924D01*
X34347Y-32863D01*
X34336Y-32805D01*
X34326Y-32753D01*
X34319Y-32715D01*
X34316Y-32698D01*
X34313Y-32694D01*
X34305Y-32690D01*
X34287Y-32688D01*
X34255Y-32687D01*
X34205Y-32686D01*
X34133Y-32686D01*
X34125Y-32686D01*
X34056Y-32687D01*
X34001Y-32688D01*
X33965Y-32690D01*
X33951Y-32692D01*
X33951Y-32692D01*
X33947Y-32709D01*
X33939Y-32746D01*
X33929Y-32798D01*
X33917Y-32860D01*
X33916Y-32864D01*
X33904Y-32926D01*
X33893Y-32979D01*
X33885Y-33015D01*
X33880Y-33030D01*
X33876Y-33034D01*
X33851Y-33046D01*
X33813Y-33064D01*
X33766Y-33085D01*
X33717Y-33105D01*
X33673Y-33122D01*
X33640Y-33134D01*
X33625Y-33138D01*
X33625Y-33138D01*
X33610Y-33128D01*
X33578Y-33107D01*
X33533Y-33077D01*
X33480Y-33040D01*
X33476Y-33038D01*
X33424Y-33002D01*
X33379Y-32973D01*
X33347Y-32954D01*
X33333Y-32946D01*
X33332Y-32947D01*
X33317Y-32958D01*
X33287Y-32985D01*
X33247Y-33023D01*
X33200Y-33069D01*
X33186Y-33084D01*
X33136Y-33135D01*
X33103Y-33171D01*
X33086Y-33193D01*
X33082Y-33203D01*
X33082Y-33204D01*
X33092Y-33220D01*
X33114Y-33253D01*
X33144Y-33298D01*
X33180Y-33351D01*
X33183Y-33355D01*
X33219Y-33407D01*
X33248Y-33451D01*
X33269Y-33482D01*
X33277Y-33496D01*
X33277Y-33498D01*
X33271Y-33520D01*
X33258Y-33557D01*
X33240Y-33603D01*
X33220Y-33652D01*
X33202Y-33696D01*
X33187Y-33729D01*
X33178Y-33744D01*
X33177Y-33745D01*
X33158Y-33750D01*
X33119Y-33759D01*
X33065Y-33771D01*
X33000Y-33783D01*
X32990Y-33785D01*
X32927Y-33797D01*
X32876Y-33807D01*
X32840Y-33814D01*
X32825Y-33818D01*
X32823Y-33827D01*
X32821Y-33857D01*
X32820Y-33904D01*
X32819Y-33960D01*
X32819Y-34020D01*
X32821Y-34078D01*
X32822Y-34127D01*
X32825Y-34163D01*
X32828Y-34178D01*
X32829Y-34178D01*
X32848Y-34184D01*
X32887Y-34192D01*
X32942Y-34203D01*
X33006Y-34216D01*
X33018Y-34218D01*
X33080Y-34230D01*
X33131Y-34240D01*
X33167Y-34248D01*
X33181Y-34252D01*
X33184Y-34257D01*
X33195Y-34283D01*
X33212Y-34325D01*
X33233Y-34377D01*
X33282Y-34497D01*
X33181Y-34645D01*
X33172Y-34658D01*
X33135Y-34711D01*
X33106Y-34755D01*
X33087Y-34785D01*
X33080Y-34798D01*
X33080Y-34799D01*
X33093Y-34814D01*
X33120Y-34843D01*
X33159Y-34883D01*
X33206Y-34929D01*
X33240Y-34964D01*
X33281Y-35004D01*
X33309Y-35030D01*
X33327Y-35044D01*
X33338Y-35049D01*
X33345Y-35048D01*
X33360Y-35038D01*
X33393Y-35017D01*
X33437Y-34986D01*
X33490Y-34950D01*
X33533Y-34921D01*
X33583Y-34889D01*
X33618Y-34868D01*
X33635Y-34861D01*
X33643Y-34863D01*
X33671Y-34873D01*
X33715Y-34890D01*
X33767Y-34913D01*
X33884Y-34964D01*
X33899Y-35040D01*
X33907Y-35087D01*
X33920Y-35152D01*
X33932Y-35214D01*
X33951Y-35311D01*
X34307Y-35314D01*
X34313Y-35299D01*
X34317Y-35285D01*
X34325Y-35249D01*
X34335Y-35198D01*
X34346Y-35137D01*
X34356Y-35086D01*
X34366Y-35034D01*
X34373Y-34996D01*
X34377Y-34980D01*
X34382Y-34976D01*
X34407Y-34963D01*
X34447Y-34944D01*
X34495Y-34924D01*
X34545Y-34903D01*
X34591Y-34885D01*
X34626Y-34872D01*
X34645Y-34867D01*
X34658Y-34874D01*
X34689Y-34894D01*
X34732Y-34922D01*
X34784Y-34958D01*
X34835Y-34993D01*
X34880Y-35023D01*
X34911Y-35043D01*
X34926Y-35052D01*
X34936Y-35048D01*
X34961Y-35027D01*
X35001Y-34988D01*
X35058Y-34930D01*
X35067Y-34921D01*
X35112Y-34875D01*
X35148Y-34836D01*
X35172Y-34809D01*
X35181Y-34797D01*
G54D15*
X19925Y-11875D02*
X19925Y-11825D01*
X19975Y-11900D02*
X19975Y-11800D01*
X20025Y-11950D02*
X20025Y-11750D01*
X19900Y-11850D02*
X20075Y-11675D01*
X20075Y-11675D02*
X20075Y-12025D01*
X20075Y-12025D02*
X19900Y-11850D01*
X20000Y-12200D02*
X19900Y-12100D01*
X19800Y-14350D02*
X18200Y-14350D01*
X19800Y-11650D02*
X18200Y-11650D01*
X18000Y-12000D02*
X18100Y-12000D01*
X20000Y-14000D02*
X19900Y-14000D01*
X18000Y-14000D02*
X18100Y-14000D01*
X20000Y-12200D02*
X20000Y-13000D01*
X20000Y-13000D02*
X20000Y-14000D01*
X18000Y-14000D02*
X18000Y-13000D01*
X18000Y-13000D02*
X18000Y-12000D01*
X55925Y-17875D02*
X55925Y-17825D01*
X55975Y-17900D02*
X55975Y-17800D01*
X56025Y-17950D02*
X56025Y-17750D01*
X55900Y-17850D02*
X56075Y-17675D01*
X56075Y-17675D02*
X56075Y-18025D01*
X56075Y-18025D02*
X55900Y-17850D01*
X56000Y-18200D02*
X55900Y-18100D01*
X55800Y-20350D02*
X54200Y-20350D01*
X55800Y-17650D02*
X54200Y-17650D01*
X54000Y-18000D02*
X54100Y-18000D01*
X56000Y-20000D02*
X55900Y-20000D01*
X54000Y-20000D02*
X54100Y-20000D01*
X56000Y-18200D02*
X56000Y-19000D01*
X56000Y-19000D02*
X56000Y-20000D01*
X54000Y-20000D02*
X54000Y-19000D01*
X54000Y-19000D02*
X54000Y-18000D01*
X49925Y-17875D02*
X49925Y-17825D01*
X49975Y-17900D02*
X49975Y-17800D01*
X50025Y-17950D02*
X50025Y-17750D01*
X49900Y-17850D02*
X50075Y-17675D01*
X50075Y-17675D02*
X50075Y-18025D01*
X50075Y-18025D02*
X49900Y-17850D01*
X50000Y-18200D02*
X49900Y-18100D01*
X49800Y-20350D02*
X48200Y-20350D01*
X49800Y-17650D02*
X48200Y-17650D01*
X48000Y-18000D02*
X48100Y-18000D01*
X50000Y-20000D02*
X49900Y-20000D01*
X48000Y-20000D02*
X48100Y-20000D01*
X50000Y-18200D02*
X50000Y-19000D01*
X50000Y-19000D02*
X50000Y-20000D01*
X48000Y-20000D02*
X48000Y-19000D01*
X48000Y-19000D02*
X48000Y-18000D01*
X43925Y-17875D02*
X43925Y-17825D01*
X43975Y-17900D02*
X43975Y-17800D01*
X44025Y-17950D02*
X44025Y-17750D01*
X43900Y-17850D02*
X44075Y-17675D01*
X44075Y-17675D02*
X44075Y-18025D01*
X44075Y-18025D02*
X43900Y-17850D01*
X44000Y-18200D02*
X43900Y-18100D01*
X43800Y-20350D02*
X42200Y-20350D01*
X43800Y-17650D02*
X42200Y-17650D01*
X42000Y-18000D02*
X42100Y-18000D01*
X44000Y-20000D02*
X43900Y-20000D01*
X42000Y-20000D02*
X42100Y-20000D01*
X44000Y-18200D02*
X44000Y-19000D01*
X44000Y-19000D02*
X44000Y-20000D01*
X42000Y-20000D02*
X42000Y-19000D01*
X42000Y-19000D02*
X42000Y-18000D01*
X37925Y-17875D02*
X37925Y-17825D01*
X37975Y-17900D02*
X37975Y-17800D01*
X38025Y-17950D02*
X38025Y-17750D01*
X37900Y-17850D02*
X38075Y-17675D01*
X38075Y-17675D02*
X38075Y-18025D01*
X38075Y-18025D02*
X37900Y-17850D01*
X38000Y-18200D02*
X37900Y-18100D01*
X37800Y-20350D02*
X36200Y-20350D01*
X37800Y-17650D02*
X36200Y-17650D01*
X36000Y-18000D02*
X36100Y-18000D01*
X38000Y-20000D02*
X37900Y-20000D01*
X36000Y-20000D02*
X36100Y-20000D01*
X38000Y-18200D02*
X38000Y-19000D01*
X38000Y-19000D02*
X38000Y-20000D01*
X36000Y-20000D02*
X36000Y-19000D01*
X36000Y-19000D02*
X36000Y-18000D01*
X31925Y-17875D02*
X31925Y-17825D01*
X31975Y-17900D02*
X31975Y-17800D01*
X32025Y-17950D02*
X32025Y-17750D01*
X31900Y-17850D02*
X32075Y-17675D01*
X32075Y-17675D02*
X32075Y-18025D01*
X32075Y-18025D02*
X31900Y-17850D01*
X32000Y-18200D02*
X31900Y-18100D01*
X31800Y-20350D02*
X30200Y-20350D01*
X31800Y-17650D02*
X30200Y-17650D01*
X30000Y-18000D02*
X30100Y-18000D01*
X32000Y-20000D02*
X31900Y-20000D01*
X30000Y-20000D02*
X30100Y-20000D01*
X32000Y-18200D02*
X32000Y-19000D01*
X32000Y-19000D02*
X32000Y-20000D01*
X30000Y-20000D02*
X30000Y-19000D01*
X30000Y-19000D02*
X30000Y-18000D01*
X25925Y-17875D02*
X25925Y-17825D01*
X25975Y-17900D02*
X25975Y-17800D01*
X26025Y-17950D02*
X26025Y-17750D01*
X25900Y-17850D02*
X26075Y-17675D01*
X26075Y-17675D02*
X26075Y-18025D01*
X26075Y-18025D02*
X25900Y-17850D01*
X26000Y-18200D02*
X25900Y-18100D01*
X25800Y-20350D02*
X24200Y-20350D01*
X25800Y-17650D02*
X24200Y-17650D01*
X24000Y-18000D02*
X24100Y-18000D01*
X26000Y-20000D02*
X25900Y-20000D01*
X24000Y-20000D02*
X24100Y-20000D01*
X26000Y-18200D02*
X26000Y-19000D01*
X26000Y-19000D02*
X26000Y-20000D01*
X24000Y-20000D02*
X24000Y-19000D01*
X24000Y-19000D02*
X24000Y-18000D01*
X19925Y-17875D02*
X19925Y-17825D01*
X19975Y-17900D02*
X19975Y-17800D01*
X20025Y-17950D02*
X20025Y-17750D01*
X19900Y-17850D02*
X20075Y-17675D01*
X20075Y-17675D02*
X20075Y-18025D01*
X20075Y-18025D02*
X19900Y-17850D01*
X20000Y-18200D02*
X19900Y-18100D01*
X19800Y-20350D02*
X18200Y-20350D01*
X19800Y-17650D02*
X18200Y-17650D01*
X18000Y-18000D02*
X18100Y-18000D01*
X20000Y-20000D02*
X19900Y-20000D01*
X18000Y-20000D02*
X18100Y-20000D01*
X20000Y-18200D02*
X20000Y-19000D01*
X20000Y-19000D02*
X20000Y-20000D01*
X18000Y-20000D02*
X18000Y-19000D01*
X18000Y-19000D02*
X18000Y-18000D01*
X13925Y-17875D02*
X13925Y-17825D01*
X13975Y-17900D02*
X13975Y-17800D01*
X14025Y-17950D02*
X14025Y-17750D01*
X13900Y-17850D02*
X14075Y-17675D01*
X14075Y-17675D02*
X14075Y-18025D01*
X14075Y-18025D02*
X13900Y-17850D01*
X14000Y-18200D02*
X13900Y-18100D01*
X13800Y-20350D02*
X12200Y-20350D01*
X13800Y-17650D02*
X12200Y-17650D01*
X12000Y-18000D02*
X12100Y-18000D01*
X14000Y-20000D02*
X13900Y-20000D01*
X12000Y-20000D02*
X12100Y-20000D01*
X14000Y-18200D02*
X14000Y-19000D01*
X14000Y-19000D02*
X14000Y-20000D01*
X12000Y-20000D02*
X12000Y-19000D01*
X12000Y-19000D02*
X12000Y-18000D01*
X55925Y-23875D02*
X55925Y-23825D01*
X55975Y-23900D02*
X55975Y-23800D01*
X56025Y-23950D02*
X56025Y-23750D01*
X55900Y-23850D02*
X56075Y-23675D01*
X56075Y-23675D02*
X56075Y-24025D01*
X56075Y-24025D02*
X55900Y-23850D01*
X56000Y-24200D02*
X55900Y-24100D01*
X55800Y-26350D02*
X54200Y-26350D01*
X55800Y-23650D02*
X54200Y-23650D01*
X54000Y-24000D02*
X54100Y-24000D01*
X56000Y-26000D02*
X55900Y-26000D01*
X54000Y-26000D02*
X54100Y-26000D01*
X56000Y-24200D02*
X56000Y-25000D01*
X56000Y-25000D02*
X56000Y-26000D01*
X54000Y-26000D02*
X54000Y-25000D01*
X54000Y-25000D02*
X54000Y-24000D01*
X49925Y-23875D02*
X49925Y-23825D01*
X49975Y-23900D02*
X49975Y-23800D01*
X50025Y-23950D02*
X50025Y-23750D01*
X49900Y-23850D02*
X50075Y-23675D01*
X50075Y-23675D02*
X50075Y-24025D01*
X50075Y-24025D02*
X49900Y-23850D01*
X50000Y-24200D02*
X49900Y-24100D01*
X49800Y-26350D02*
X48200Y-26350D01*
X49800Y-23650D02*
X48200Y-23650D01*
X48000Y-24000D02*
X48100Y-24000D01*
X50000Y-26000D02*
X49900Y-26000D01*
X48000Y-26000D02*
X48100Y-26000D01*
X50000Y-24200D02*
X50000Y-25000D01*
X50000Y-25000D02*
X50000Y-26000D01*
X48000Y-26000D02*
X48000Y-25000D01*
X48000Y-25000D02*
X48000Y-24000D01*
X43925Y-23875D02*
X43925Y-23825D01*
X43975Y-23900D02*
X43975Y-23800D01*
X44025Y-23950D02*
X44025Y-23750D01*
X43900Y-23850D02*
X44075Y-23675D01*
X44075Y-23675D02*
X44075Y-24025D01*
X44075Y-24025D02*
X43900Y-23850D01*
X44000Y-24200D02*
X43900Y-24100D01*
X43800Y-26350D02*
X42200Y-26350D01*
X43800Y-23650D02*
X42200Y-23650D01*
X42000Y-24000D02*
X42100Y-24000D01*
X44000Y-26000D02*
X43900Y-26000D01*
X42000Y-26000D02*
X42100Y-26000D01*
X44000Y-24200D02*
X44000Y-25000D01*
X44000Y-25000D02*
X44000Y-26000D01*
X42000Y-26000D02*
X42000Y-25000D01*
X42000Y-25000D02*
X42000Y-24000D01*
X37925Y-23875D02*
X37925Y-23825D01*
X37975Y-23900D02*
X37975Y-23800D01*
X38025Y-23950D02*
X38025Y-23750D01*
X37900Y-23850D02*
X38075Y-23675D01*
X38075Y-23675D02*
X38075Y-24025D01*
X38075Y-24025D02*
X37900Y-23850D01*
X38000Y-24200D02*
X37900Y-24100D01*
X37800Y-26350D02*
X36200Y-26350D01*
X37800Y-23650D02*
X36200Y-23650D01*
X36000Y-24000D02*
X36100Y-24000D01*
X38000Y-26000D02*
X37900Y-26000D01*
X36000Y-26000D02*
X36100Y-26000D01*
X38000Y-24200D02*
X38000Y-25000D01*
X38000Y-25000D02*
X38000Y-26000D01*
X36000Y-26000D02*
X36000Y-25000D01*
X36000Y-25000D02*
X36000Y-24000D01*
X31925Y-23875D02*
X31925Y-23825D01*
X31975Y-23900D02*
X31975Y-23800D01*
X32025Y-23950D02*
X32025Y-23750D01*
X31900Y-23850D02*
X32075Y-23675D01*
X32075Y-23675D02*
X32075Y-24025D01*
X32075Y-24025D02*
X31900Y-23850D01*
X32000Y-24200D02*
X31900Y-24100D01*
X31800Y-26350D02*
X30200Y-26350D01*
X31800Y-23650D02*
X30200Y-23650D01*
X30000Y-24000D02*
X30100Y-24000D01*
X32000Y-26000D02*
X31900Y-26000D01*
X30000Y-26000D02*
X30100Y-26000D01*
X32000Y-24200D02*
X32000Y-25000D01*
X32000Y-25000D02*
X32000Y-26000D01*
X30000Y-26000D02*
X30000Y-25000D01*
X30000Y-25000D02*
X30000Y-24000D01*
X25925Y-23875D02*
X25925Y-23825D01*
X25975Y-23900D02*
X25975Y-23800D01*
X26025Y-23950D02*
X26025Y-23750D01*
X25900Y-23850D02*
X26075Y-23675D01*
X26075Y-23675D02*
X26075Y-24025D01*
X26075Y-24025D02*
X25900Y-23850D01*
X26000Y-24200D02*
X25900Y-24100D01*
X25800Y-26350D02*
X24200Y-26350D01*
X25800Y-23650D02*
X24200Y-23650D01*
X24000Y-24000D02*
X24100Y-24000D01*
X26000Y-26000D02*
X25900Y-26000D01*
X24000Y-26000D02*
X24100Y-26000D01*
X26000Y-24200D02*
X26000Y-25000D01*
X26000Y-25000D02*
X26000Y-26000D01*
X24000Y-26000D02*
X24000Y-25000D01*
X24000Y-25000D02*
X24000Y-24000D01*
X19925Y-23875D02*
X19925Y-23825D01*
X19975Y-23900D02*
X19975Y-23800D01*
X20025Y-23950D02*
X20025Y-23750D01*
X19900Y-23850D02*
X20075Y-23675D01*
X20075Y-23675D02*
X20075Y-24025D01*
X20075Y-24025D02*
X19900Y-23850D01*
X20000Y-24200D02*
X19900Y-24100D01*
X19800Y-26350D02*
X18200Y-26350D01*
X19800Y-23650D02*
X18200Y-23650D01*
X18000Y-24000D02*
X18100Y-24000D01*
X20000Y-26000D02*
X19900Y-26000D01*
X18000Y-26000D02*
X18100Y-26000D01*
X20000Y-24200D02*
X20000Y-25000D01*
X20000Y-25000D02*
X20000Y-26000D01*
X18000Y-26000D02*
X18000Y-25000D01*
X18000Y-25000D02*
X18000Y-24000D01*
X13925Y-23875D02*
X13925Y-23825D01*
X13975Y-23900D02*
X13975Y-23800D01*
X14025Y-23950D02*
X14025Y-23750D01*
X13900Y-23850D02*
X14075Y-23675D01*
X14075Y-23675D02*
X14075Y-24025D01*
X14075Y-24025D02*
X13900Y-23850D01*
X14000Y-24200D02*
X13900Y-24100D01*
X13800Y-26350D02*
X12200Y-26350D01*
X13800Y-23650D02*
X12200Y-23650D01*
X12000Y-24000D02*
X12100Y-24000D01*
X14000Y-26000D02*
X13900Y-26000D01*
X12000Y-26000D02*
X12100Y-26000D01*
X14000Y-24200D02*
X14000Y-25000D01*
X14000Y-25000D02*
X14000Y-26000D01*
X12000Y-26000D02*
X12000Y-25000D01*
X12000Y-25000D02*
X12000Y-24000D01*
X55925Y-29875D02*
X55925Y-29825D01*
X55975Y-29900D02*
X55975Y-29800D01*
X56025Y-29950D02*
X56025Y-29750D01*
X55900Y-29850D02*
X56075Y-29675D01*
X56075Y-29675D02*
X56075Y-30025D01*
X56075Y-30025D02*
X55900Y-29850D01*
X56000Y-30200D02*
X55900Y-30100D01*
X55800Y-32350D02*
X54200Y-32350D01*
X55800Y-29650D02*
X54200Y-29650D01*
X54000Y-30000D02*
X54100Y-30000D01*
X56000Y-32000D02*
X55900Y-32000D01*
X54000Y-32000D02*
X54100Y-32000D01*
X56000Y-30200D02*
X56000Y-31000D01*
X56000Y-31000D02*
X56000Y-32000D01*
X54000Y-32000D02*
X54000Y-31000D01*
X54000Y-31000D02*
X54000Y-30000D01*
X49925Y-29875D02*
X49925Y-29825D01*
X49975Y-29900D02*
X49975Y-29800D01*
X50025Y-29950D02*
X50025Y-29750D01*
X49900Y-29850D02*
X50075Y-29675D01*
X50075Y-29675D02*
X50075Y-30025D01*
X50075Y-30025D02*
X49900Y-29850D01*
X50000Y-30200D02*
X49900Y-30100D01*
X49800Y-32350D02*
X48200Y-32350D01*
X49800Y-29650D02*
X48200Y-29650D01*
X48000Y-30000D02*
X48100Y-30000D01*
X50000Y-32000D02*
X49900Y-32000D01*
X48000Y-32000D02*
X48100Y-32000D01*
X50000Y-30200D02*
X50000Y-31000D01*
X50000Y-31000D02*
X50000Y-32000D01*
X48000Y-32000D02*
X48000Y-31000D01*
X48000Y-31000D02*
X48000Y-30000D01*
X43925Y-29875D02*
X43925Y-29825D01*
X43975Y-29900D02*
X43975Y-29800D01*
X44025Y-29950D02*
X44025Y-29750D01*
X43900Y-29850D02*
X44075Y-29675D01*
X44075Y-29675D02*
X44075Y-30025D01*
X44075Y-30025D02*
X43900Y-29850D01*
X44000Y-30200D02*
X43900Y-30100D01*
X43800Y-32350D02*
X42200Y-32350D01*
X43800Y-29650D02*
X42200Y-29650D01*
X42000Y-30000D02*
X42100Y-30000D01*
X44000Y-32000D02*
X43900Y-32000D01*
X42000Y-32000D02*
X42100Y-32000D01*
X44000Y-30200D02*
X44000Y-31000D01*
X44000Y-31000D02*
X44000Y-32000D01*
X42000Y-32000D02*
X42000Y-31000D01*
X42000Y-31000D02*
X42000Y-30000D01*
X37925Y-29875D02*
X37925Y-29825D01*
X37975Y-29900D02*
X37975Y-29800D01*
X38025Y-29950D02*
X38025Y-29750D01*
X37900Y-29850D02*
X38075Y-29675D01*
X38075Y-29675D02*
X38075Y-30025D01*
X38075Y-30025D02*
X37900Y-29850D01*
X38000Y-30200D02*
X37900Y-30100D01*
X37800Y-32350D02*
X36200Y-32350D01*
X37800Y-29650D02*
X36200Y-29650D01*
X36000Y-30000D02*
X36100Y-30000D01*
X38000Y-32000D02*
X37900Y-32000D01*
X36000Y-32000D02*
X36100Y-32000D01*
X38000Y-30200D02*
X38000Y-31000D01*
X38000Y-31000D02*
X38000Y-32000D01*
X36000Y-32000D02*
X36000Y-31000D01*
X36000Y-31000D02*
X36000Y-30000D01*
X31925Y-29875D02*
X31925Y-29825D01*
X31975Y-29900D02*
X31975Y-29800D01*
X32025Y-29950D02*
X32025Y-29750D01*
X31900Y-29850D02*
X32075Y-29675D01*
X32075Y-29675D02*
X32075Y-30025D01*
X32075Y-30025D02*
X31900Y-29850D01*
X32000Y-30200D02*
X31900Y-30100D01*
X31800Y-32350D02*
X30200Y-32350D01*
X31800Y-29650D02*
X30200Y-29650D01*
X30000Y-30000D02*
X30100Y-30000D01*
X32000Y-32000D02*
X31900Y-32000D01*
X30000Y-32000D02*
X30100Y-32000D01*
X32000Y-30200D02*
X32000Y-31000D01*
X32000Y-31000D02*
X32000Y-32000D01*
X30000Y-32000D02*
X30000Y-31000D01*
X30000Y-31000D02*
X30000Y-30000D01*
X25925Y-29875D02*
X25925Y-29825D01*
X25975Y-29900D02*
X25975Y-29800D01*
X26025Y-29950D02*
X26025Y-29750D01*
X25900Y-29850D02*
X26075Y-29675D01*
X26075Y-29675D02*
X26075Y-30025D01*
X26075Y-30025D02*
X25900Y-29850D01*
X26000Y-30200D02*
X25900Y-30100D01*
X25800Y-32350D02*
X24200Y-32350D01*
X25800Y-29650D02*
X24200Y-29650D01*
X24000Y-30000D02*
X24100Y-30000D01*
X26000Y-32000D02*
X25900Y-32000D01*
X24000Y-32000D02*
X24100Y-32000D01*
X26000Y-30200D02*
X26000Y-31000D01*
X26000Y-31000D02*
X26000Y-32000D01*
X24000Y-32000D02*
X24000Y-31000D01*
X24000Y-31000D02*
X24000Y-30000D01*
X19925Y-29875D02*
X19925Y-29825D01*
X19975Y-29900D02*
X19975Y-29800D01*
X20025Y-29950D02*
X20025Y-29750D01*
X19900Y-29850D02*
X20075Y-29675D01*
X20075Y-29675D02*
X20075Y-30025D01*
X20075Y-30025D02*
X19900Y-29850D01*
X20000Y-30200D02*
X19900Y-30100D01*
X19800Y-32350D02*
X18200Y-32350D01*
X19800Y-29650D02*
X18200Y-29650D01*
X18000Y-30000D02*
X18100Y-30000D01*
X20000Y-32000D02*
X19900Y-32000D01*
X18000Y-32000D02*
X18100Y-32000D01*
X20000Y-30200D02*
X20000Y-31000D01*
X20000Y-31000D02*
X20000Y-32000D01*
X18000Y-32000D02*
X18000Y-31000D01*
X18000Y-31000D02*
X18000Y-30000D01*
X13925Y-29875D02*
X13925Y-29825D01*
X13975Y-29900D02*
X13975Y-29800D01*
X14025Y-29950D02*
X14025Y-29750D01*
X13900Y-29850D02*
X14075Y-29675D01*
X14075Y-29675D02*
X14075Y-30025D01*
X14075Y-30025D02*
X13900Y-29850D01*
X14000Y-30200D02*
X13900Y-30100D01*
X13800Y-32350D02*
X12200Y-32350D01*
X13800Y-29650D02*
X12200Y-29650D01*
X12000Y-30000D02*
X12100Y-30000D01*
X14000Y-32000D02*
X13900Y-32000D01*
X12000Y-32000D02*
X12100Y-32000D01*
X14000Y-30200D02*
X14000Y-31000D01*
X14000Y-31000D02*
X14000Y-32000D01*
X12000Y-32000D02*
X12000Y-31000D01*
X12000Y-31000D02*
X12000Y-30000D01*
X55925Y-35875D02*
X55925Y-35825D01*
X55975Y-35900D02*
X55975Y-35800D01*
X56025Y-35950D02*
X56025Y-35750D01*
X55900Y-35850D02*
X56075Y-35675D01*
X56075Y-35675D02*
X56075Y-36025D01*
X56075Y-36025D02*
X55900Y-35850D01*
X56000Y-36200D02*
X55900Y-36100D01*
X55800Y-38350D02*
X54200Y-38350D01*
X55800Y-35650D02*
X54200Y-35650D01*
X54000Y-36000D02*
X54100Y-36000D01*
X56000Y-38000D02*
X55900Y-38000D01*
X54000Y-38000D02*
X54100Y-38000D01*
X56000Y-36200D02*
X56000Y-37000D01*
X56000Y-37000D02*
X56000Y-38000D01*
X54000Y-38000D02*
X54000Y-37000D01*
X54000Y-37000D02*
X54000Y-36000D01*
X49925Y-35875D02*
X49925Y-35825D01*
X49975Y-35900D02*
X49975Y-35800D01*
X50025Y-35950D02*
X50025Y-35750D01*
X49900Y-35850D02*
X50075Y-35675D01*
X50075Y-35675D02*
X50075Y-36025D01*
X50075Y-36025D02*
X49900Y-35850D01*
X50000Y-36200D02*
X49900Y-36100D01*
X49800Y-38350D02*
X48200Y-38350D01*
X49800Y-35650D02*
X48200Y-35650D01*
X48000Y-36000D02*
X48100Y-36000D01*
X50000Y-38000D02*
X49900Y-38000D01*
X48000Y-38000D02*
X48100Y-38000D01*
X50000Y-36200D02*
X50000Y-37000D01*
X50000Y-37000D02*
X50000Y-38000D01*
X48000Y-38000D02*
X48000Y-37000D01*
X48000Y-37000D02*
X48000Y-36000D01*
X43925Y-35875D02*
X43925Y-35825D01*
X43975Y-35900D02*
X43975Y-35800D01*
X44025Y-35950D02*
X44025Y-35750D01*
X43900Y-35850D02*
X44075Y-35675D01*
X44075Y-35675D02*
X44075Y-36025D01*
X44075Y-36025D02*
X43900Y-35850D01*
X44000Y-36200D02*
X43900Y-36100D01*
X43800Y-38350D02*
X42200Y-38350D01*
X43800Y-35650D02*
X42200Y-35650D01*
X42000Y-36000D02*
X42100Y-36000D01*
X44000Y-38000D02*
X43900Y-38000D01*
X42000Y-38000D02*
X42100Y-38000D01*
X44000Y-36200D02*
X44000Y-37000D01*
X44000Y-37000D02*
X44000Y-38000D01*
X42000Y-38000D02*
X42000Y-37000D01*
X42000Y-37000D02*
X42000Y-36000D01*
X37925Y-35875D02*
X37925Y-35825D01*
X37975Y-35900D02*
X37975Y-35800D01*
X38025Y-35950D02*
X38025Y-35750D01*
X37900Y-35850D02*
X38075Y-35675D01*
X38075Y-35675D02*
X38075Y-36025D01*
X38075Y-36025D02*
X37900Y-35850D01*
X38000Y-36200D02*
X37900Y-36100D01*
X37800Y-38350D02*
X36200Y-38350D01*
X37800Y-35650D02*
X36200Y-35650D01*
X36000Y-36000D02*
X36100Y-36000D01*
X38000Y-38000D02*
X37900Y-38000D01*
X36000Y-38000D02*
X36100Y-38000D01*
X38000Y-36200D02*
X38000Y-37000D01*
X38000Y-37000D02*
X38000Y-38000D01*
X36000Y-38000D02*
X36000Y-37000D01*
X36000Y-37000D02*
X36000Y-36000D01*
X31925Y-35875D02*
X31925Y-35825D01*
X31975Y-35900D02*
X31975Y-35800D01*
X32025Y-35950D02*
X32025Y-35750D01*
X31900Y-35850D02*
X32075Y-35675D01*
X32075Y-35675D02*
X32075Y-36025D01*
X32075Y-36025D02*
X31900Y-35850D01*
X32000Y-36200D02*
X31900Y-36100D01*
X31800Y-38350D02*
X30200Y-38350D01*
X31800Y-35650D02*
X30200Y-35650D01*
X30000Y-36000D02*
X30100Y-36000D01*
X32000Y-38000D02*
X31900Y-38000D01*
X30000Y-38000D02*
X30100Y-38000D01*
X32000Y-36200D02*
X32000Y-37000D01*
X32000Y-37000D02*
X32000Y-38000D01*
X30000Y-38000D02*
X30000Y-37000D01*
X30000Y-37000D02*
X30000Y-36000D01*
X25925Y-35875D02*
X25925Y-35825D01*
X25975Y-35900D02*
X25975Y-35800D01*
X26025Y-35950D02*
X26025Y-35750D01*
X25900Y-35850D02*
X26075Y-35675D01*
X26075Y-35675D02*
X26075Y-36025D01*
X26075Y-36025D02*
X25900Y-35850D01*
X26000Y-36200D02*
X25900Y-36100D01*
X25800Y-38350D02*
X24200Y-38350D01*
X25800Y-35650D02*
X24200Y-35650D01*
X24000Y-36000D02*
X24100Y-36000D01*
X26000Y-38000D02*
X25900Y-38000D01*
X24000Y-38000D02*
X24100Y-38000D01*
X26000Y-36200D02*
X26000Y-37000D01*
X26000Y-37000D02*
X26000Y-38000D01*
X24000Y-38000D02*
X24000Y-37000D01*
X24000Y-37000D02*
X24000Y-36000D01*
X19925Y-35875D02*
X19925Y-35825D01*
X19975Y-35900D02*
X19975Y-35800D01*
X20025Y-35950D02*
X20025Y-35750D01*
X19900Y-35850D02*
X20075Y-35675D01*
X20075Y-35675D02*
X20075Y-36025D01*
X20075Y-36025D02*
X19900Y-35850D01*
X20000Y-36200D02*
X19900Y-36100D01*
X19800Y-38350D02*
X18200Y-38350D01*
X19800Y-35650D02*
X18200Y-35650D01*
X18000Y-36000D02*
X18100Y-36000D01*
X20000Y-38000D02*
X19900Y-38000D01*
X18000Y-38000D02*
X18100Y-38000D01*
X20000Y-36200D02*
X20000Y-37000D01*
X20000Y-37000D02*
X20000Y-38000D01*
X18000Y-38000D02*
X18000Y-37000D01*
X18000Y-37000D02*
X18000Y-36000D01*
X13925Y-35875D02*
X13925Y-35825D01*
X13975Y-35900D02*
X13975Y-35800D01*
X14025Y-35950D02*
X14025Y-35750D01*
X13900Y-35850D02*
X14075Y-35675D01*
X14075Y-35675D02*
X14075Y-36025D01*
X14075Y-36025D02*
X13900Y-35850D01*
X14000Y-36200D02*
X13900Y-36100D01*
X13800Y-38350D02*
X12200Y-38350D01*
X13800Y-35650D02*
X12200Y-35650D01*
X12000Y-36000D02*
X12100Y-36000D01*
X14000Y-38000D02*
X13900Y-38000D01*
X12000Y-38000D02*
X12100Y-38000D01*
X14000Y-36200D02*
X14000Y-37000D01*
X14000Y-37000D02*
X14000Y-38000D01*
X12000Y-38000D02*
X12000Y-37000D01*
X12000Y-37000D02*
X12000Y-36000D01*
X55925Y-41875D02*
X55925Y-41825D01*
X55975Y-41900D02*
X55975Y-41800D01*
X56025Y-41950D02*
X56025Y-41750D01*
X55900Y-41850D02*
X56075Y-41675D01*
X56075Y-41675D02*
X56075Y-42025D01*
X56075Y-42025D02*
X55900Y-41850D01*
X56000Y-42200D02*
X55900Y-42100D01*
X55800Y-44350D02*
X54200Y-44350D01*
X55800Y-41650D02*
X54200Y-41650D01*
X54000Y-42000D02*
X54100Y-42000D01*
X56000Y-44000D02*
X55900Y-44000D01*
X54000Y-44000D02*
X54100Y-44000D01*
X56000Y-42200D02*
X56000Y-43000D01*
X56000Y-43000D02*
X56000Y-44000D01*
X54000Y-44000D02*
X54000Y-43000D01*
X54000Y-43000D02*
X54000Y-42000D01*
X49925Y-41875D02*
X49925Y-41825D01*
X49975Y-41900D02*
X49975Y-41800D01*
X50025Y-41950D02*
X50025Y-41750D01*
X49900Y-41850D02*
X50075Y-41675D01*
X50075Y-41675D02*
X50075Y-42025D01*
X50075Y-42025D02*
X49900Y-41850D01*
X50000Y-42200D02*
X49900Y-42100D01*
X49800Y-44350D02*
X48200Y-44350D01*
X49800Y-41650D02*
X48200Y-41650D01*
X48000Y-42000D02*
X48100Y-42000D01*
X50000Y-44000D02*
X49900Y-44000D01*
X48000Y-44000D02*
X48100Y-44000D01*
X50000Y-42200D02*
X50000Y-43000D01*
X50000Y-43000D02*
X50000Y-44000D01*
X48000Y-44000D02*
X48000Y-43000D01*
X48000Y-43000D02*
X48000Y-42000D01*
X43925Y-41875D02*
X43925Y-41825D01*
X43975Y-41900D02*
X43975Y-41800D01*
X44025Y-41950D02*
X44025Y-41750D01*
X43900Y-41850D02*
X44075Y-41675D01*
X44075Y-41675D02*
X44075Y-42025D01*
X44075Y-42025D02*
X43900Y-41850D01*
X44000Y-42200D02*
X43900Y-42100D01*
X43800Y-44350D02*
X42200Y-44350D01*
X43800Y-41650D02*
X42200Y-41650D01*
X42000Y-42000D02*
X42100Y-42000D01*
X44000Y-44000D02*
X43900Y-44000D01*
X42000Y-44000D02*
X42100Y-44000D01*
X44000Y-42200D02*
X44000Y-43000D01*
X44000Y-43000D02*
X44000Y-44000D01*
X42000Y-44000D02*
X42000Y-43000D01*
X42000Y-43000D02*
X42000Y-42000D01*
X37925Y-41875D02*
X37925Y-41825D01*
X37975Y-41900D02*
X37975Y-41800D01*
X38025Y-41950D02*
X38025Y-41750D01*
X37900Y-41850D02*
X38075Y-41675D01*
X38075Y-41675D02*
X38075Y-42025D01*
X38075Y-42025D02*
X37900Y-41850D01*
X38000Y-42200D02*
X37900Y-42100D01*
X37800Y-44350D02*
X36200Y-44350D01*
X37800Y-41650D02*
X36200Y-41650D01*
X36000Y-42000D02*
X36100Y-42000D01*
X38000Y-44000D02*
X37900Y-44000D01*
X36000Y-44000D02*
X36100Y-44000D01*
X38000Y-42200D02*
X38000Y-43000D01*
X38000Y-43000D02*
X38000Y-44000D01*
X36000Y-44000D02*
X36000Y-43000D01*
X36000Y-43000D02*
X36000Y-42000D01*
X31925Y-41875D02*
X31925Y-41825D01*
X31975Y-41900D02*
X31975Y-41800D01*
X32025Y-41950D02*
X32025Y-41750D01*
X31900Y-41850D02*
X32075Y-41675D01*
X32075Y-41675D02*
X32075Y-42025D01*
X32075Y-42025D02*
X31900Y-41850D01*
X32000Y-42200D02*
X31900Y-42100D01*
X31800Y-44350D02*
X30200Y-44350D01*
X31800Y-41650D02*
X30200Y-41650D01*
X30000Y-42000D02*
X30100Y-42000D01*
X32000Y-44000D02*
X31900Y-44000D01*
X30000Y-44000D02*
X30100Y-44000D01*
X32000Y-42200D02*
X32000Y-43000D01*
X32000Y-43000D02*
X32000Y-44000D01*
X30000Y-44000D02*
X30000Y-43000D01*
X30000Y-43000D02*
X30000Y-42000D01*
X25925Y-41875D02*
X25925Y-41825D01*
X25975Y-41900D02*
X25975Y-41800D01*
X26025Y-41950D02*
X26025Y-41750D01*
X25900Y-41850D02*
X26075Y-41675D01*
X26075Y-41675D02*
X26075Y-42025D01*
X26075Y-42025D02*
X25900Y-41850D01*
X26000Y-42200D02*
X25900Y-42100D01*
X25800Y-44350D02*
X24200Y-44350D01*
X25800Y-41650D02*
X24200Y-41650D01*
X24000Y-42000D02*
X24100Y-42000D01*
X26000Y-44000D02*
X25900Y-44000D01*
X24000Y-44000D02*
X24100Y-44000D01*
X26000Y-42200D02*
X26000Y-43000D01*
X26000Y-43000D02*
X26000Y-44000D01*
X24000Y-44000D02*
X24000Y-43000D01*
X24000Y-43000D02*
X24000Y-42000D01*
X19925Y-41875D02*
X19925Y-41825D01*
X19975Y-41900D02*
X19975Y-41800D01*
X20025Y-41950D02*
X20025Y-41750D01*
X19900Y-41850D02*
X20075Y-41675D01*
X20075Y-41675D02*
X20075Y-42025D01*
X20075Y-42025D02*
X19900Y-41850D01*
X20000Y-42200D02*
X19900Y-42100D01*
X19800Y-44350D02*
X18200Y-44350D01*
X19800Y-41650D02*
X18200Y-41650D01*
X18000Y-42000D02*
X18100Y-42000D01*
X20000Y-44000D02*
X19900Y-44000D01*
X18000Y-44000D02*
X18100Y-44000D01*
X20000Y-42200D02*
X20000Y-43000D01*
X20000Y-43000D02*
X20000Y-44000D01*
X18000Y-44000D02*
X18000Y-43000D01*
X18000Y-43000D02*
X18000Y-42000D01*
X13925Y-41875D02*
X13925Y-41825D01*
X13975Y-41900D02*
X13975Y-41800D01*
X14025Y-41950D02*
X14025Y-41750D01*
X13900Y-41850D02*
X14075Y-41675D01*
X14075Y-41675D02*
X14075Y-42025D01*
X14075Y-42025D02*
X13900Y-41850D01*
X14000Y-42200D02*
X13900Y-42100D01*
X13800Y-44350D02*
X12200Y-44350D01*
X13800Y-41650D02*
X12200Y-41650D01*
X12000Y-42000D02*
X12100Y-42000D01*
X14000Y-44000D02*
X13900Y-44000D01*
X12000Y-44000D02*
X12100Y-44000D01*
X14000Y-42200D02*
X14000Y-43000D01*
X14000Y-43000D02*
X14000Y-44000D01*
X12000Y-44000D02*
X12000Y-43000D01*
X12000Y-43000D02*
X12000Y-42000D01*
X55925Y-47875D02*
X55925Y-47825D01*
X55975Y-47900D02*
X55975Y-47800D01*
X56025Y-47950D02*
X56025Y-47750D01*
X55900Y-47850D02*
X56075Y-47675D01*
X56075Y-47675D02*
X56075Y-48025D01*
X56075Y-48025D02*
X55900Y-47850D01*
X56000Y-48200D02*
X55900Y-48100D01*
X55800Y-50350D02*
X54200Y-50350D01*
X55800Y-47650D02*
X54200Y-47650D01*
X54000Y-48000D02*
X54100Y-48000D01*
X56000Y-50000D02*
X55900Y-50000D01*
X54000Y-50000D02*
X54100Y-50000D01*
X56000Y-48200D02*
X56000Y-49000D01*
X56000Y-49000D02*
X56000Y-50000D01*
X54000Y-50000D02*
X54000Y-49000D01*
X54000Y-49000D02*
X54000Y-48000D01*
X49925Y-47875D02*
X49925Y-47825D01*
X49975Y-47900D02*
X49975Y-47800D01*
X50025Y-47950D02*
X50025Y-47750D01*
X49900Y-47850D02*
X50075Y-47675D01*
X50075Y-47675D02*
X50075Y-48025D01*
X50075Y-48025D02*
X49900Y-47850D01*
X50000Y-48200D02*
X49900Y-48100D01*
X49800Y-50350D02*
X48200Y-50350D01*
X49800Y-47650D02*
X48200Y-47650D01*
X48000Y-48000D02*
X48100Y-48000D01*
X50000Y-50000D02*
X49900Y-50000D01*
X48000Y-50000D02*
X48100Y-50000D01*
X50000Y-48200D02*
X50000Y-49000D01*
X50000Y-49000D02*
X50000Y-50000D01*
X48000Y-50000D02*
X48000Y-49000D01*
X48000Y-49000D02*
X48000Y-48000D01*
X43925Y-47875D02*
X43925Y-47825D01*
X43975Y-47900D02*
X43975Y-47800D01*
X44025Y-47950D02*
X44025Y-47750D01*
X43900Y-47850D02*
X44075Y-47675D01*
X44075Y-47675D02*
X44075Y-48025D01*
X44075Y-48025D02*
X43900Y-47850D01*
X44000Y-48200D02*
X43900Y-48100D01*
X43800Y-50350D02*
X42200Y-50350D01*
X43800Y-47650D02*
X42200Y-47650D01*
X42000Y-48000D02*
X42100Y-48000D01*
X44000Y-50000D02*
X43900Y-50000D01*
X42000Y-50000D02*
X42100Y-50000D01*
X44000Y-48200D02*
X44000Y-49000D01*
X44000Y-49000D02*
X44000Y-50000D01*
X42000Y-50000D02*
X42000Y-49000D01*
X42000Y-49000D02*
X42000Y-48000D01*
X37925Y-47875D02*
X37925Y-47825D01*
X37975Y-47900D02*
X37975Y-47800D01*
X38025Y-47950D02*
X38025Y-47750D01*
X37900Y-47850D02*
X38075Y-47675D01*
X38075Y-47675D02*
X38075Y-48025D01*
X38075Y-48025D02*
X37900Y-47850D01*
X38000Y-48200D02*
X37900Y-48100D01*
X37800Y-50350D02*
X36200Y-50350D01*
X37800Y-47650D02*
X36200Y-47650D01*
X36000Y-48000D02*
X36100Y-48000D01*
X38000Y-50000D02*
X37900Y-50000D01*
X36000Y-50000D02*
X36100Y-50000D01*
X38000Y-48200D02*
X38000Y-49000D01*
X38000Y-49000D02*
X38000Y-50000D01*
X36000Y-50000D02*
X36000Y-49000D01*
X36000Y-49000D02*
X36000Y-48000D01*
X31925Y-47875D02*
X31925Y-47825D01*
X31975Y-47900D02*
X31975Y-47800D01*
X32025Y-47950D02*
X32025Y-47750D01*
X31900Y-47850D02*
X32075Y-47675D01*
X32075Y-47675D02*
X32075Y-48025D01*
X32075Y-48025D02*
X31900Y-47850D01*
X32000Y-48200D02*
X31900Y-48100D01*
X31800Y-50350D02*
X30200Y-50350D01*
X31800Y-47650D02*
X30200Y-47650D01*
X30000Y-48000D02*
X30100Y-48000D01*
X32000Y-50000D02*
X31900Y-50000D01*
X30000Y-50000D02*
X30100Y-50000D01*
X32000Y-48200D02*
X32000Y-49000D01*
X32000Y-49000D02*
X32000Y-50000D01*
X30000Y-50000D02*
X30000Y-49000D01*
X30000Y-49000D02*
X30000Y-48000D01*
X25925Y-47875D02*
X25925Y-47825D01*
X25975Y-47900D02*
X25975Y-47800D01*
X26025Y-47950D02*
X26025Y-47750D01*
X25900Y-47850D02*
X26075Y-47675D01*
X26075Y-47675D02*
X26075Y-48025D01*
X26075Y-48025D02*
X25900Y-47850D01*
X26000Y-48200D02*
X25900Y-48100D01*
X25800Y-50350D02*
X24200Y-50350D01*
X25800Y-47650D02*
X24200Y-47650D01*
X24000Y-48000D02*
X24100Y-48000D01*
X26000Y-50000D02*
X25900Y-50000D01*
X24000Y-50000D02*
X24100Y-50000D01*
X26000Y-48200D02*
X26000Y-49000D01*
X26000Y-49000D02*
X26000Y-50000D01*
X24000Y-50000D02*
X24000Y-49000D01*
X24000Y-49000D02*
X24000Y-48000D01*
X19925Y-47875D02*
X19925Y-47825D01*
X19975Y-47900D02*
X19975Y-47800D01*
X20025Y-47950D02*
X20025Y-47750D01*
X19900Y-47850D02*
X20075Y-47675D01*
X20075Y-47675D02*
X20075Y-48025D01*
X20075Y-48025D02*
X19900Y-47850D01*
X20000Y-48200D02*
X19900Y-48100D01*
X19800Y-50350D02*
X18200Y-50350D01*
X19800Y-47650D02*
X18200Y-47650D01*
X18000Y-48000D02*
X18100Y-48000D01*
X20000Y-50000D02*
X19900Y-50000D01*
X18000Y-50000D02*
X18100Y-50000D01*
X20000Y-48200D02*
X20000Y-49000D01*
X20000Y-49000D02*
X20000Y-50000D01*
X18000Y-50000D02*
X18000Y-49000D01*
X18000Y-49000D02*
X18000Y-48000D01*
X13925Y-47875D02*
X13925Y-47825D01*
X13975Y-47900D02*
X13975Y-47800D01*
X14025Y-47950D02*
X14025Y-47750D01*
X13900Y-47850D02*
X14075Y-47675D01*
X14075Y-47675D02*
X14075Y-48025D01*
X14075Y-48025D02*
X13900Y-47850D01*
X14000Y-48200D02*
X13900Y-48100D01*
X13800Y-50350D02*
X12200Y-50350D01*
X13800Y-47650D02*
X12200Y-47650D01*
X12000Y-48000D02*
X12100Y-48000D01*
X14000Y-50000D02*
X13900Y-50000D01*
X12000Y-50000D02*
X12100Y-50000D01*
X14000Y-48200D02*
X14000Y-49000D01*
X14000Y-49000D02*
X14000Y-50000D01*
X12000Y-50000D02*
X12000Y-49000D01*
X12000Y-49000D02*
X12000Y-48000D01*
X55925Y-53875D02*
X55925Y-53825D01*
X55975Y-53900D02*
X55975Y-53800D01*
X56025Y-53950D02*
X56025Y-53750D01*
X55900Y-53850D02*
X56075Y-53675D01*
X56075Y-53675D02*
X56075Y-54025D01*
X56075Y-54025D02*
X55900Y-53850D01*
X56000Y-54200D02*
X55900Y-54100D01*
X55800Y-56350D02*
X54200Y-56350D01*
X55800Y-53650D02*
X54200Y-53650D01*
X54000Y-54000D02*
X54100Y-54000D01*
X56000Y-56000D02*
X55900Y-56000D01*
X54000Y-56000D02*
X54100Y-56000D01*
X56000Y-54200D02*
X56000Y-55000D01*
X56000Y-55000D02*
X56000Y-56000D01*
X54000Y-56000D02*
X54000Y-55000D01*
X54000Y-55000D02*
X54000Y-54000D01*
X49925Y-53875D02*
X49925Y-53825D01*
X49975Y-53900D02*
X49975Y-53800D01*
X50025Y-53950D02*
X50025Y-53750D01*
X49900Y-53850D02*
X50075Y-53675D01*
X50075Y-53675D02*
X50075Y-54025D01*
X50075Y-54025D02*
X49900Y-53850D01*
X50000Y-54200D02*
X49900Y-54100D01*
X49800Y-56350D02*
X48200Y-56350D01*
X49800Y-53650D02*
X48200Y-53650D01*
X48000Y-54000D02*
X48100Y-54000D01*
X50000Y-56000D02*
X49900Y-56000D01*
X48000Y-56000D02*
X48100Y-56000D01*
X50000Y-54200D02*
X50000Y-55000D01*
X50000Y-55000D02*
X50000Y-56000D01*
X48000Y-56000D02*
X48000Y-55000D01*
X48000Y-55000D02*
X48000Y-54000D01*
X43925Y-53875D02*
X43925Y-53825D01*
X43975Y-53900D02*
X43975Y-53800D01*
X44025Y-53950D02*
X44025Y-53750D01*
X43900Y-53850D02*
X44075Y-53675D01*
X44075Y-53675D02*
X44075Y-54025D01*
X44075Y-54025D02*
X43900Y-53850D01*
X44000Y-54200D02*
X43900Y-54100D01*
X43800Y-56350D02*
X42200Y-56350D01*
X43800Y-53650D02*
X42200Y-53650D01*
X42000Y-54000D02*
X42100Y-54000D01*
X44000Y-56000D02*
X43900Y-56000D01*
X42000Y-56000D02*
X42100Y-56000D01*
X44000Y-54200D02*
X44000Y-55000D01*
X44000Y-55000D02*
X44000Y-56000D01*
X42000Y-56000D02*
X42000Y-55000D01*
X42000Y-55000D02*
X42000Y-54000D01*
X37925Y-53875D02*
X37925Y-53825D01*
X37975Y-53900D02*
X37975Y-53800D01*
X38025Y-53950D02*
X38025Y-53750D01*
X37900Y-53850D02*
X38075Y-53675D01*
X38075Y-53675D02*
X38075Y-54025D01*
X38075Y-54025D02*
X37900Y-53850D01*
X38000Y-54200D02*
X37900Y-54100D01*
X37800Y-56350D02*
X36200Y-56350D01*
X37800Y-53650D02*
X36200Y-53650D01*
X36000Y-54000D02*
X36100Y-54000D01*
X38000Y-56000D02*
X37900Y-56000D01*
X36000Y-56000D02*
X36100Y-56000D01*
X38000Y-54200D02*
X38000Y-55000D01*
X38000Y-55000D02*
X38000Y-56000D01*
X36000Y-56000D02*
X36000Y-55000D01*
X36000Y-55000D02*
X36000Y-54000D01*
X31925Y-53875D02*
X31925Y-53825D01*
X31975Y-53900D02*
X31975Y-53800D01*
X32025Y-53950D02*
X32025Y-53750D01*
X31900Y-53850D02*
X32075Y-53675D01*
X32075Y-53675D02*
X32075Y-54025D01*
X32075Y-54025D02*
X31900Y-53850D01*
X32000Y-54200D02*
X31900Y-54100D01*
X31800Y-56350D02*
X30200Y-56350D01*
X31800Y-53650D02*
X30200Y-53650D01*
X30000Y-54000D02*
X30100Y-54000D01*
X32000Y-56000D02*
X31900Y-56000D01*
X30000Y-56000D02*
X30100Y-56000D01*
X32000Y-54200D02*
X32000Y-55000D01*
X32000Y-55000D02*
X32000Y-56000D01*
X30000Y-56000D02*
X30000Y-55000D01*
X30000Y-55000D02*
X30000Y-54000D01*
X25925Y-53875D02*
X25925Y-53825D01*
X25975Y-53900D02*
X25975Y-53800D01*
X26025Y-53950D02*
X26025Y-53750D01*
X25900Y-53850D02*
X26075Y-53675D01*
X26075Y-53675D02*
X26075Y-54025D01*
X26075Y-54025D02*
X25900Y-53850D01*
X26000Y-54200D02*
X25900Y-54100D01*
X25800Y-56350D02*
X24200Y-56350D01*
X25800Y-53650D02*
X24200Y-53650D01*
X24000Y-54000D02*
X24100Y-54000D01*
X26000Y-56000D02*
X25900Y-56000D01*
X24000Y-56000D02*
X24100Y-56000D01*
X26000Y-54200D02*
X26000Y-55000D01*
X26000Y-55000D02*
X26000Y-56000D01*
X24000Y-56000D02*
X24000Y-55000D01*
X24000Y-55000D02*
X24000Y-54000D01*
X19925Y-53875D02*
X19925Y-53825D01*
X19975Y-53900D02*
X19975Y-53800D01*
X20025Y-53950D02*
X20025Y-53750D01*
X19900Y-53850D02*
X20075Y-53675D01*
X20075Y-53675D02*
X20075Y-54025D01*
X20075Y-54025D02*
X19900Y-53850D01*
X20000Y-54200D02*
X19900Y-54100D01*
X19800Y-56350D02*
X18200Y-56350D01*
X19800Y-53650D02*
X18200Y-53650D01*
X18000Y-54000D02*
X18100Y-54000D01*
X20000Y-56000D02*
X19900Y-56000D01*
X18000Y-56000D02*
X18100Y-56000D01*
X20000Y-54200D02*
X20000Y-55000D01*
X20000Y-55000D02*
X20000Y-56000D01*
X18000Y-56000D02*
X18000Y-55000D01*
X18000Y-55000D02*
X18000Y-54000D01*
X13925Y-53875D02*
X13925Y-53825D01*
X13975Y-53900D02*
X13975Y-53800D01*
X14025Y-53950D02*
X14025Y-53750D01*
X13900Y-53850D02*
X14075Y-53675D01*
X14075Y-53675D02*
X14075Y-54025D01*
X14075Y-54025D02*
X13900Y-53850D01*
X14000Y-54200D02*
X13900Y-54100D01*
X13800Y-56350D02*
X12200Y-56350D01*
X13800Y-53650D02*
X12200Y-53650D01*
X12000Y-54000D02*
X12100Y-54000D01*
X14000Y-56000D02*
X13900Y-56000D01*
X12000Y-56000D02*
X12100Y-56000D01*
X14000Y-54200D02*
X14000Y-55000D01*
X14000Y-55000D02*
X14000Y-56000D01*
X12000Y-56000D02*
X12000Y-55000D01*
X12000Y-55000D02*
X12000Y-54000D01*
X55925Y-11875D02*
X55925Y-11825D01*
X55975Y-11900D02*
X55975Y-11800D01*
X56025Y-11950D02*
X56025Y-11750D01*
X55900Y-11850D02*
X56075Y-11675D01*
X56075Y-11675D02*
X56075Y-12025D01*
X56075Y-12025D02*
X55900Y-11850D01*
X56000Y-12200D02*
X55900Y-12100D01*
X55800Y-14350D02*
X54200Y-14350D01*
X55800Y-11650D02*
X54200Y-11650D01*
X54000Y-12000D02*
X54100Y-12000D01*
X56000Y-14000D02*
X55900Y-14000D01*
X54000Y-14000D02*
X54100Y-14000D01*
X56000Y-12200D02*
X56000Y-13000D01*
X56000Y-13000D02*
X56000Y-14000D01*
X54000Y-14000D02*
X54000Y-13000D01*
X54000Y-13000D02*
X54000Y-12000D01*
X49925Y-11875D02*
X49925Y-11825D01*
X49975Y-11900D02*
X49975Y-11800D01*
X50025Y-11950D02*
X50025Y-11750D01*
X49900Y-11850D02*
X50075Y-11675D01*
X50075Y-11675D02*
X50075Y-12025D01*
X50075Y-12025D02*
X49900Y-11850D01*
X50000Y-12200D02*
X49900Y-12100D01*
X49800Y-14350D02*
X48200Y-14350D01*
X49800Y-11650D02*
X48200Y-11650D01*
X48000Y-12000D02*
X48100Y-12000D01*
X50000Y-14000D02*
X49900Y-14000D01*
X48000Y-14000D02*
X48100Y-14000D01*
X50000Y-12200D02*
X50000Y-13000D01*
X50000Y-13000D02*
X50000Y-14000D01*
X48000Y-14000D02*
X48000Y-13000D01*
X48000Y-13000D02*
X48000Y-12000D01*
X43925Y-11875D02*
X43925Y-11825D01*
X43975Y-11900D02*
X43975Y-11800D01*
X44025Y-11950D02*
X44025Y-11750D01*
X43900Y-11850D02*
X44075Y-11675D01*
X44075Y-11675D02*
X44075Y-12025D01*
X44075Y-12025D02*
X43900Y-11850D01*
X44000Y-12200D02*
X43900Y-12100D01*
X43800Y-14350D02*
X42200Y-14350D01*
X43800Y-11650D02*
X42200Y-11650D01*
X42000Y-12000D02*
X42100Y-12000D01*
X44000Y-14000D02*
X43900Y-14000D01*
X42000Y-14000D02*
X42100Y-14000D01*
X44000Y-12200D02*
X44000Y-13000D01*
X44000Y-13000D02*
X44000Y-14000D01*
X42000Y-14000D02*
X42000Y-13000D01*
X42000Y-13000D02*
X42000Y-12000D01*
X37925Y-11875D02*
X37925Y-11825D01*
X37975Y-11900D02*
X37975Y-11800D01*
X38025Y-11950D02*
X38025Y-11750D01*
X37900Y-11850D02*
X38075Y-11675D01*
X38075Y-11675D02*
X38075Y-12025D01*
X38075Y-12025D02*
X37900Y-11850D01*
X38000Y-12200D02*
X37900Y-12100D01*
X37800Y-14350D02*
X36200Y-14350D01*
X37800Y-11650D02*
X36200Y-11650D01*
X36000Y-12000D02*
X36100Y-12000D01*
X38000Y-14000D02*
X37900Y-14000D01*
X36000Y-14000D02*
X36100Y-14000D01*
X38000Y-12200D02*
X38000Y-13000D01*
X38000Y-13000D02*
X38000Y-14000D01*
X36000Y-14000D02*
X36000Y-13000D01*
X36000Y-13000D02*
X36000Y-12000D01*
X31925Y-11875D02*
X31925Y-11825D01*
X31975Y-11900D02*
X31975Y-11800D01*
X32025Y-11950D02*
X32025Y-11750D01*
X31900Y-11850D02*
X32075Y-11675D01*
X32075Y-11675D02*
X32075Y-12025D01*
X32075Y-12025D02*
X31900Y-11850D01*
X32000Y-12200D02*
X31900Y-12100D01*
X31800Y-14350D02*
X30200Y-14350D01*
X31800Y-11650D02*
X30200Y-11650D01*
X30000Y-12000D02*
X30100Y-12000D01*
X32000Y-14000D02*
X31900Y-14000D01*
X30000Y-14000D02*
X30100Y-14000D01*
X32000Y-12200D02*
X32000Y-13000D01*
X32000Y-13000D02*
X32000Y-14000D01*
X30000Y-14000D02*
X30000Y-13000D01*
X30000Y-13000D02*
X30000Y-12000D01*
X25925Y-11875D02*
X25925Y-11825D01*
X25975Y-11900D02*
X25975Y-11800D01*
X26025Y-11950D02*
X26025Y-11750D01*
X25900Y-11850D02*
X26075Y-11675D01*
X26075Y-11675D02*
X26075Y-12025D01*
X26075Y-12025D02*
X25900Y-11850D01*
X26000Y-12200D02*
X25900Y-12100D01*
X25800Y-14350D02*
X24200Y-14350D01*
X25800Y-11650D02*
X24200Y-11650D01*
X24000Y-12000D02*
X24100Y-12000D01*
X26000Y-14000D02*
X25900Y-14000D01*
X24000Y-14000D02*
X24100Y-14000D01*
X26000Y-12200D02*
X26000Y-13000D01*
X26000Y-13000D02*
X26000Y-14000D01*
X24000Y-14000D02*
X24000Y-13000D01*
X24000Y-13000D02*
X24000Y-12000D01*
X13925Y-11875D02*
X13925Y-11825D01*
X13975Y-11900D02*
X13975Y-11800D01*
X14025Y-11950D02*
X14025Y-11750D01*
X13900Y-11850D02*
X14075Y-11675D01*
X14075Y-11675D02*
X14075Y-12025D01*
X14075Y-12025D02*
X13900Y-11850D01*
X14000Y-12200D02*
X13900Y-12100D01*
X13800Y-14350D02*
X12200Y-14350D01*
X13800Y-11650D02*
X12200Y-11650D01*
X12000Y-12000D02*
X12100Y-12000D01*
X14000Y-14000D02*
X13900Y-14000D01*
X12000Y-14000D02*
X12100Y-14000D01*
X14000Y-12200D02*
X14000Y-13000D01*
X14000Y-13000D02*
X14000Y-14000D01*
X12000Y-14000D02*
X12000Y-13000D01*
X12000Y-13000D02*
X12000Y-12000D01*
X35485Y-35171D02*
X35485Y-35125D01*
X35500Y-35102D01*
X35528Y-35080D01*
X35585Y-35068D01*
X35685Y-35068D01*
X35742Y-35080D01*
X35771Y-35102D01*
X35785Y-35125D01*
X35785Y-35171D01*
X35771Y-35194D01*
X35742Y-35217D01*
X35685Y-35228D01*
X35585Y-35228D01*
X35528Y-35217D01*
X35500Y-35194D01*
X35485Y-35171D01*
X35585Y-34965D02*
X35885Y-34965D01*
X35600Y-34965D02*
X35585Y-34942D01*
X35585Y-34897D01*
X35600Y-34874D01*
X35614Y-34862D01*
X35642Y-34851D01*
X35728Y-34851D01*
X35757Y-34862D01*
X35771Y-34874D01*
X35785Y-34897D01*
X35785Y-34942D01*
X35771Y-34965D01*
X35771Y-34657D02*
X35785Y-34680D01*
X35785Y-34725D01*
X35771Y-34748D01*
X35742Y-34760D01*
X35628Y-34760D01*
X35600Y-34748D01*
X35585Y-34725D01*
X35585Y-34680D01*
X35600Y-34657D01*
X35628Y-34645D01*
X35657Y-34645D01*
X35685Y-34760D01*
X35585Y-34542D02*
X35785Y-34542D01*
X35614Y-34542D02*
X35600Y-34531D01*
X35585Y-34508D01*
X35585Y-34474D01*
X35600Y-34451D01*
X35628Y-34440D01*
X35785Y-34440D01*
X35785Y-34325D02*
X35485Y-34325D01*
X35628Y-34325D02*
X35628Y-34188D01*
X35785Y-34188D02*
X35485Y-34188D01*
X35785Y-33971D02*
X35628Y-33971D01*
X35600Y-33982D01*
X35585Y-34005D01*
X35585Y-34051D01*
X35600Y-34074D01*
X35771Y-33971D02*
X35785Y-33994D01*
X35785Y-34051D01*
X35771Y-34074D01*
X35742Y-34085D01*
X35714Y-34085D01*
X35685Y-34074D01*
X35671Y-34051D01*
X35671Y-33994D01*
X35657Y-33971D01*
X35785Y-33857D02*
X35585Y-33857D01*
X35642Y-33857D02*
X35614Y-33845D01*
X35600Y-33834D01*
X35585Y-33811D01*
X35585Y-33788D01*
X35785Y-33605D02*
X35485Y-33605D01*
X35771Y-33605D02*
X35785Y-33628D01*
X35785Y-33674D01*
X35771Y-33697D01*
X35757Y-33708D01*
X35728Y-33720D01*
X35642Y-33720D01*
X35614Y-33708D01*
X35600Y-33697D01*
X35585Y-33674D01*
X35585Y-33628D01*
X35600Y-33605D01*
X35585Y-33514D02*
X35785Y-33468D01*
X35642Y-33422D01*
X35785Y-33377D01*
X35585Y-33331D01*
X35785Y-33137D02*
X35628Y-33137D01*
X35600Y-33148D01*
X35585Y-33171D01*
X35585Y-33217D01*
X35600Y-33239D01*
X35771Y-33137D02*
X35785Y-33159D01*
X35785Y-33217D01*
X35771Y-33239D01*
X35742Y-33251D01*
X35714Y-33251D01*
X35685Y-33239D01*
X35671Y-33217D01*
X35671Y-33159D01*
X35657Y-33137D01*
X35785Y-33022D02*
X35585Y-33022D01*
X35642Y-33022D02*
X35614Y-33011D01*
X35600Y-32999D01*
X35585Y-32977D01*
X35585Y-32954D01*
X35771Y-32782D02*
X35785Y-32805D01*
X35785Y-32851D01*
X35771Y-32874D01*
X35742Y-32885D01*
X35628Y-32885D01*
X35600Y-32874D01*
X35585Y-32851D01*
X35585Y-32805D01*
X35600Y-32782D01*
X35628Y-32771D01*
X35657Y-32771D01*
X35685Y-32885D01*
X19558Y-11500D02*
X19841Y-11500D01*
X19875Y-11483D01*
X19891Y-11466D01*
X19908Y-11433D01*
X19908Y-11366D01*
X19891Y-11333D01*
X19875Y-11316D01*
X19841Y-11300D01*
X19558Y-11300D01*
X19708Y-11083D02*
X19691Y-11116D01*
X19675Y-11133D01*
X19641Y-11150D01*
X19625Y-11150D01*
X19591Y-11133D01*
X19575Y-11116D01*
X19558Y-11083D01*
X19558Y-11016D01*
X19575Y-10983D01*
X19591Y-10966D01*
X19625Y-10950D01*
X19641Y-10950D01*
X19675Y-10966D01*
X19691Y-10983D01*
X19708Y-11016D01*
X19708Y-11083D01*
X19725Y-11116D01*
X19741Y-11133D01*
X19775Y-11150D01*
X19841Y-11150D01*
X19875Y-11133D01*
X19891Y-11116D01*
X19908Y-11083D01*
X19908Y-11016D01*
X19891Y-10983D01*
X19875Y-10966D01*
X19841Y-10950D01*
X19775Y-10950D01*
X19741Y-10966D01*
X19725Y-10983D01*
X19708Y-11016D01*
X19558Y-10733D02*
X19558Y-10700D01*
X19575Y-10666D01*
X19591Y-10650D01*
X19625Y-10633D01*
X19691Y-10616D01*
X19775Y-10616D01*
X19841Y-10633D01*
X19875Y-10650D01*
X19891Y-10666D01*
X19908Y-10700D01*
X19908Y-10733D01*
X19891Y-10766D01*
X19875Y-10783D01*
X19841Y-10800D01*
X19775Y-10816D01*
X19691Y-10816D01*
X19625Y-10800D01*
X19591Y-10783D01*
X19575Y-10766D01*
X19558Y-10733D01*
X19591Y-10483D02*
X19575Y-10466D01*
X19558Y-10433D01*
X19558Y-10350D01*
X19575Y-10316D01*
X19591Y-10300D01*
X19625Y-10283D01*
X19658Y-10283D01*
X19708Y-10300D01*
X19908Y-10500D01*
X19908Y-10283D01*
G54D10*
X20475Y-11764D02*
X20475Y-11935D01*
X20475Y-11850D02*
X20175Y-11850D01*
X20218Y-11878D01*
X20247Y-11907D01*
X20261Y-11935D01*
G54D15*
X55558Y-17500D02*
X55841Y-17500D01*
X55875Y-17483D01*
X55891Y-17466D01*
X55908Y-17433D01*
X55908Y-17366D01*
X55891Y-17333D01*
X55875Y-17316D01*
X55841Y-17300D01*
X55558Y-17300D01*
X55558Y-17166D02*
X55558Y-16933D01*
X55908Y-17083D01*
X55558Y-16733D02*
X55558Y-16700D01*
X55575Y-16666D01*
X55591Y-16650D01*
X55625Y-16633D01*
X55691Y-16616D01*
X55775Y-16616D01*
X55841Y-16633D01*
X55875Y-16650D01*
X55891Y-16666D01*
X55908Y-16700D01*
X55908Y-16733D01*
X55891Y-16766D01*
X55875Y-16783D01*
X55841Y-16800D01*
X55775Y-16816D01*
X55691Y-16816D01*
X55625Y-16800D01*
X55591Y-16783D01*
X55575Y-16766D01*
X55558Y-16733D01*
X55708Y-16416D02*
X55691Y-16450D01*
X55675Y-16466D01*
X55641Y-16483D01*
X55625Y-16483D01*
X55591Y-16466D01*
X55575Y-16450D01*
X55558Y-16416D01*
X55558Y-16350D01*
X55575Y-16316D01*
X55591Y-16300D01*
X55625Y-16283D01*
X55641Y-16283D01*
X55675Y-16300D01*
X55691Y-16316D01*
X55708Y-16350D01*
X55708Y-16416D01*
X55725Y-16450D01*
X55741Y-16466D01*
X55775Y-16483D01*
X55841Y-16483D01*
X55875Y-16466D01*
X55891Y-16450D01*
X55908Y-16416D01*
X55908Y-16350D01*
X55891Y-16316D01*
X55875Y-16300D01*
X55841Y-16283D01*
X55775Y-16283D01*
X55741Y-16300D01*
X55725Y-16316D01*
X55708Y-16350D01*
G54D10*
X56475Y-17764D02*
X56475Y-17935D01*
X56475Y-17850D02*
X56175Y-17850D01*
X56218Y-17878D01*
X56247Y-17907D01*
X56261Y-17935D01*
G54D15*
X49558Y-17500D02*
X49841Y-17500D01*
X49875Y-17483D01*
X49891Y-17466D01*
X49908Y-17433D01*
X49908Y-17366D01*
X49891Y-17333D01*
X49875Y-17316D01*
X49841Y-17300D01*
X49558Y-17300D01*
X49558Y-17166D02*
X49558Y-16933D01*
X49908Y-17083D01*
X49558Y-16733D02*
X49558Y-16700D01*
X49575Y-16666D01*
X49591Y-16650D01*
X49625Y-16633D01*
X49691Y-16616D01*
X49775Y-16616D01*
X49841Y-16633D01*
X49875Y-16650D01*
X49891Y-16666D01*
X49908Y-16700D01*
X49908Y-16733D01*
X49891Y-16766D01*
X49875Y-16783D01*
X49841Y-16800D01*
X49775Y-16816D01*
X49691Y-16816D01*
X49625Y-16800D01*
X49591Y-16783D01*
X49575Y-16766D01*
X49558Y-16733D01*
X49558Y-16500D02*
X49558Y-16266D01*
X49908Y-16416D01*
G54D10*
X50475Y-17764D02*
X50475Y-17935D01*
X50475Y-17850D02*
X50175Y-17850D01*
X50218Y-17878D01*
X50247Y-17907D01*
X50261Y-17935D01*
G54D15*
X43558Y-17500D02*
X43841Y-17500D01*
X43875Y-17483D01*
X43891Y-17466D01*
X43908Y-17433D01*
X43908Y-17366D01*
X43891Y-17333D01*
X43875Y-17316D01*
X43841Y-17300D01*
X43558Y-17300D01*
X43558Y-17166D02*
X43558Y-16933D01*
X43908Y-17083D01*
X43558Y-16733D02*
X43558Y-16700D01*
X43575Y-16666D01*
X43591Y-16650D01*
X43625Y-16633D01*
X43691Y-16616D01*
X43775Y-16616D01*
X43841Y-16633D01*
X43875Y-16650D01*
X43891Y-16666D01*
X43908Y-16700D01*
X43908Y-16733D01*
X43891Y-16766D01*
X43875Y-16783D01*
X43841Y-16800D01*
X43775Y-16816D01*
X43691Y-16816D01*
X43625Y-16800D01*
X43591Y-16783D01*
X43575Y-16766D01*
X43558Y-16733D01*
X43558Y-16316D02*
X43558Y-16383D01*
X43575Y-16416D01*
X43591Y-16433D01*
X43641Y-16466D01*
X43708Y-16483D01*
X43841Y-16483D01*
X43875Y-16466D01*
X43891Y-16450D01*
X43908Y-16416D01*
X43908Y-16350D01*
X43891Y-16316D01*
X43875Y-16300D01*
X43841Y-16283D01*
X43758Y-16283D01*
X43725Y-16300D01*
X43708Y-16316D01*
X43691Y-16350D01*
X43691Y-16416D01*
X43708Y-16450D01*
X43725Y-16466D01*
X43758Y-16483D01*
G54D10*
X44475Y-17764D02*
X44475Y-17935D01*
X44475Y-17850D02*
X44175Y-17850D01*
X44218Y-17878D01*
X44247Y-17907D01*
X44261Y-17935D01*
G54D15*
X37558Y-17500D02*
X37841Y-17500D01*
X37875Y-17483D01*
X37891Y-17466D01*
X37908Y-17433D01*
X37908Y-17366D01*
X37891Y-17333D01*
X37875Y-17316D01*
X37841Y-17300D01*
X37558Y-17300D01*
X37558Y-17166D02*
X37558Y-16933D01*
X37908Y-17083D01*
X37558Y-16733D02*
X37558Y-16700D01*
X37575Y-16666D01*
X37591Y-16650D01*
X37625Y-16633D01*
X37691Y-16616D01*
X37775Y-16616D01*
X37841Y-16633D01*
X37875Y-16650D01*
X37891Y-16666D01*
X37908Y-16700D01*
X37908Y-16733D01*
X37891Y-16766D01*
X37875Y-16783D01*
X37841Y-16800D01*
X37775Y-16816D01*
X37691Y-16816D01*
X37625Y-16800D01*
X37591Y-16783D01*
X37575Y-16766D01*
X37558Y-16733D01*
X37558Y-16300D02*
X37558Y-16466D01*
X37725Y-16483D01*
X37708Y-16466D01*
X37691Y-16433D01*
X37691Y-16350D01*
X37708Y-16316D01*
X37725Y-16300D01*
X37758Y-16283D01*
X37841Y-16283D01*
X37875Y-16300D01*
X37891Y-16316D01*
X37908Y-16350D01*
X37908Y-16433D01*
X37891Y-16466D01*
X37875Y-16483D01*
G54D10*
X38475Y-17764D02*
X38475Y-17935D01*
X38475Y-17850D02*
X38175Y-17850D01*
X38218Y-17878D01*
X38247Y-17907D01*
X38261Y-17935D01*
G54D15*
X31558Y-17500D02*
X31841Y-17500D01*
X31875Y-17483D01*
X31891Y-17466D01*
X31908Y-17433D01*
X31908Y-17366D01*
X31891Y-17333D01*
X31875Y-17316D01*
X31841Y-17300D01*
X31558Y-17300D01*
X31558Y-17166D02*
X31558Y-16933D01*
X31908Y-17083D01*
X31558Y-16733D02*
X31558Y-16700D01*
X31575Y-16666D01*
X31591Y-16650D01*
X31625Y-16633D01*
X31691Y-16616D01*
X31775Y-16616D01*
X31841Y-16633D01*
X31875Y-16650D01*
X31891Y-16666D01*
X31908Y-16700D01*
X31908Y-16733D01*
X31891Y-16766D01*
X31875Y-16783D01*
X31841Y-16800D01*
X31775Y-16816D01*
X31691Y-16816D01*
X31625Y-16800D01*
X31591Y-16783D01*
X31575Y-16766D01*
X31558Y-16733D01*
X31675Y-16316D02*
X31908Y-16316D01*
X31541Y-16400D02*
X31791Y-16483D01*
X31791Y-16266D01*
G54D10*
X32475Y-17764D02*
X32475Y-17935D01*
X32475Y-17850D02*
X32175Y-17850D01*
X32218Y-17878D01*
X32247Y-17907D01*
X32261Y-17935D01*
G54D15*
X25558Y-17500D02*
X25841Y-17500D01*
X25875Y-17483D01*
X25891Y-17466D01*
X25908Y-17433D01*
X25908Y-17366D01*
X25891Y-17333D01*
X25875Y-17316D01*
X25841Y-17300D01*
X25558Y-17300D01*
X25558Y-17166D02*
X25558Y-16933D01*
X25908Y-17083D01*
X25558Y-16733D02*
X25558Y-16700D01*
X25575Y-16666D01*
X25591Y-16650D01*
X25625Y-16633D01*
X25691Y-16616D01*
X25775Y-16616D01*
X25841Y-16633D01*
X25875Y-16650D01*
X25891Y-16666D01*
X25908Y-16700D01*
X25908Y-16733D01*
X25891Y-16766D01*
X25875Y-16783D01*
X25841Y-16800D01*
X25775Y-16816D01*
X25691Y-16816D01*
X25625Y-16800D01*
X25591Y-16783D01*
X25575Y-16766D01*
X25558Y-16733D01*
X25558Y-16500D02*
X25558Y-16283D01*
X25691Y-16400D01*
X25691Y-16350D01*
X25708Y-16316D01*
X25725Y-16300D01*
X25758Y-16283D01*
X25841Y-16283D01*
X25875Y-16300D01*
X25891Y-16316D01*
X25908Y-16350D01*
X25908Y-16450D01*
X25891Y-16483D01*
X25875Y-16500D01*
G54D10*
X26475Y-17764D02*
X26475Y-17935D01*
X26475Y-17850D02*
X26175Y-17850D01*
X26218Y-17878D01*
X26247Y-17907D01*
X26261Y-17935D01*
G54D15*
X19558Y-17500D02*
X19841Y-17500D01*
X19875Y-17483D01*
X19891Y-17466D01*
X19908Y-17433D01*
X19908Y-17366D01*
X19891Y-17333D01*
X19875Y-17316D01*
X19841Y-17300D01*
X19558Y-17300D01*
X19558Y-17166D02*
X19558Y-16933D01*
X19908Y-17083D01*
X19558Y-16733D02*
X19558Y-16700D01*
X19575Y-16666D01*
X19591Y-16650D01*
X19625Y-16633D01*
X19691Y-16616D01*
X19775Y-16616D01*
X19841Y-16633D01*
X19875Y-16650D01*
X19891Y-16666D01*
X19908Y-16700D01*
X19908Y-16733D01*
X19891Y-16766D01*
X19875Y-16783D01*
X19841Y-16800D01*
X19775Y-16816D01*
X19691Y-16816D01*
X19625Y-16800D01*
X19591Y-16783D01*
X19575Y-16766D01*
X19558Y-16733D01*
X19591Y-16483D02*
X19575Y-16466D01*
X19558Y-16433D01*
X19558Y-16350D01*
X19575Y-16316D01*
X19591Y-16300D01*
X19625Y-16283D01*
X19658Y-16283D01*
X19708Y-16300D01*
X19908Y-16500D01*
X19908Y-16283D01*
G54D10*
X20475Y-17764D02*
X20475Y-17935D01*
X20475Y-17850D02*
X20175Y-17850D01*
X20218Y-17878D01*
X20247Y-17907D01*
X20261Y-17935D01*
G54D15*
X13558Y-17500D02*
X13841Y-17500D01*
X13875Y-17483D01*
X13891Y-17466D01*
X13908Y-17433D01*
X13908Y-17366D01*
X13891Y-17333D01*
X13875Y-17316D01*
X13841Y-17300D01*
X13558Y-17300D01*
X13558Y-17166D02*
X13558Y-16933D01*
X13908Y-17083D01*
X13558Y-16733D02*
X13558Y-16700D01*
X13575Y-16666D01*
X13591Y-16650D01*
X13625Y-16633D01*
X13691Y-16616D01*
X13775Y-16616D01*
X13841Y-16633D01*
X13875Y-16650D01*
X13891Y-16666D01*
X13908Y-16700D01*
X13908Y-16733D01*
X13891Y-16766D01*
X13875Y-16783D01*
X13841Y-16800D01*
X13775Y-16816D01*
X13691Y-16816D01*
X13625Y-16800D01*
X13591Y-16783D01*
X13575Y-16766D01*
X13558Y-16733D01*
X13908Y-16283D02*
X13908Y-16483D01*
X13908Y-16383D02*
X13558Y-16383D01*
X13608Y-16416D01*
X13641Y-16450D01*
X13658Y-16483D01*
G54D10*
X14475Y-17764D02*
X14475Y-17935D01*
X14475Y-17850D02*
X14175Y-17850D01*
X14218Y-17878D01*
X14247Y-17907D01*
X14261Y-17935D01*
G54D15*
X55558Y-23500D02*
X55841Y-23500D01*
X55875Y-23483D01*
X55891Y-23466D01*
X55908Y-23433D01*
X55908Y-23366D01*
X55891Y-23333D01*
X55875Y-23316D01*
X55841Y-23300D01*
X55558Y-23300D01*
X55558Y-22983D02*
X55558Y-23050D01*
X55575Y-23083D01*
X55591Y-23100D01*
X55641Y-23133D01*
X55708Y-23150D01*
X55841Y-23150D01*
X55875Y-23133D01*
X55891Y-23116D01*
X55908Y-23083D01*
X55908Y-23016D01*
X55891Y-22983D01*
X55875Y-22966D01*
X55841Y-22950D01*
X55758Y-22950D01*
X55725Y-22966D01*
X55708Y-22983D01*
X55691Y-23016D01*
X55691Y-23083D01*
X55708Y-23116D01*
X55725Y-23133D01*
X55758Y-23150D01*
X55558Y-22733D02*
X55558Y-22700D01*
X55575Y-22666D01*
X55591Y-22650D01*
X55625Y-22633D01*
X55691Y-22616D01*
X55775Y-22616D01*
X55841Y-22633D01*
X55875Y-22650D01*
X55891Y-22666D01*
X55908Y-22700D01*
X55908Y-22733D01*
X55891Y-22766D01*
X55875Y-22783D01*
X55841Y-22800D01*
X55775Y-22816D01*
X55691Y-22816D01*
X55625Y-22800D01*
X55591Y-22783D01*
X55575Y-22766D01*
X55558Y-22733D01*
X55708Y-22416D02*
X55691Y-22450D01*
X55675Y-22466D01*
X55641Y-22483D01*
X55625Y-22483D01*
X55591Y-22466D01*
X55575Y-22450D01*
X55558Y-22416D01*
X55558Y-22350D01*
X55575Y-22316D01*
X55591Y-22300D01*
X55625Y-22283D01*
X55641Y-22283D01*
X55675Y-22300D01*
X55691Y-22316D01*
X55708Y-22350D01*
X55708Y-22416D01*
X55725Y-22450D01*
X55741Y-22466D01*
X55775Y-22483D01*
X55841Y-22483D01*
X55875Y-22466D01*
X55891Y-22450D01*
X55908Y-22416D01*
X55908Y-22350D01*
X55891Y-22316D01*
X55875Y-22300D01*
X55841Y-22283D01*
X55775Y-22283D01*
X55741Y-22300D01*
X55725Y-22316D01*
X55708Y-22350D01*
G54D10*
X56475Y-23764D02*
X56475Y-23935D01*
X56475Y-23850D02*
X56175Y-23850D01*
X56218Y-23878D01*
X56247Y-23907D01*
X56261Y-23935D01*
G54D15*
X49558Y-23500D02*
X49841Y-23500D01*
X49875Y-23483D01*
X49891Y-23466D01*
X49908Y-23433D01*
X49908Y-23366D01*
X49891Y-23333D01*
X49875Y-23316D01*
X49841Y-23300D01*
X49558Y-23300D01*
X49558Y-22983D02*
X49558Y-23050D01*
X49575Y-23083D01*
X49591Y-23100D01*
X49641Y-23133D01*
X49708Y-23150D01*
X49841Y-23150D01*
X49875Y-23133D01*
X49891Y-23116D01*
X49908Y-23083D01*
X49908Y-23016D01*
X49891Y-22983D01*
X49875Y-22966D01*
X49841Y-22950D01*
X49758Y-22950D01*
X49725Y-22966D01*
X49708Y-22983D01*
X49691Y-23016D01*
X49691Y-23083D01*
X49708Y-23116D01*
X49725Y-23133D01*
X49758Y-23150D01*
X49558Y-22733D02*
X49558Y-22700D01*
X49575Y-22666D01*
X49591Y-22650D01*
X49625Y-22633D01*
X49691Y-22616D01*
X49775Y-22616D01*
X49841Y-22633D01*
X49875Y-22650D01*
X49891Y-22666D01*
X49908Y-22700D01*
X49908Y-22733D01*
X49891Y-22766D01*
X49875Y-22783D01*
X49841Y-22800D01*
X49775Y-22816D01*
X49691Y-22816D01*
X49625Y-22800D01*
X49591Y-22783D01*
X49575Y-22766D01*
X49558Y-22733D01*
X49558Y-22500D02*
X49558Y-22266D01*
X49908Y-22416D01*
G54D10*
X50475Y-23764D02*
X50475Y-23935D01*
X50475Y-23850D02*
X50175Y-23850D01*
X50218Y-23878D01*
X50247Y-23907D01*
X50261Y-23935D01*
G54D15*
X43558Y-23500D02*
X43841Y-23500D01*
X43875Y-23483D01*
X43891Y-23466D01*
X43908Y-23433D01*
X43908Y-23366D01*
X43891Y-23333D01*
X43875Y-23316D01*
X43841Y-23300D01*
X43558Y-23300D01*
X43558Y-22983D02*
X43558Y-23050D01*
X43575Y-23083D01*
X43591Y-23100D01*
X43641Y-23133D01*
X43708Y-23150D01*
X43841Y-23150D01*
X43875Y-23133D01*
X43891Y-23116D01*
X43908Y-23083D01*
X43908Y-23016D01*
X43891Y-22983D01*
X43875Y-22966D01*
X43841Y-22950D01*
X43758Y-22950D01*
X43725Y-22966D01*
X43708Y-22983D01*
X43691Y-23016D01*
X43691Y-23083D01*
X43708Y-23116D01*
X43725Y-23133D01*
X43758Y-23150D01*
X43558Y-22733D02*
X43558Y-22700D01*
X43575Y-22666D01*
X43591Y-22650D01*
X43625Y-22633D01*
X43691Y-22616D01*
X43775Y-22616D01*
X43841Y-22633D01*
X43875Y-22650D01*
X43891Y-22666D01*
X43908Y-22700D01*
X43908Y-22733D01*
X43891Y-22766D01*
X43875Y-22783D01*
X43841Y-22800D01*
X43775Y-22816D01*
X43691Y-22816D01*
X43625Y-22800D01*
X43591Y-22783D01*
X43575Y-22766D01*
X43558Y-22733D01*
X43558Y-22316D02*
X43558Y-22383D01*
X43575Y-22416D01*
X43591Y-22433D01*
X43641Y-22466D01*
X43708Y-22483D01*
X43841Y-22483D01*
X43875Y-22466D01*
X43891Y-22450D01*
X43908Y-22416D01*
X43908Y-22350D01*
X43891Y-22316D01*
X43875Y-22300D01*
X43841Y-22283D01*
X43758Y-22283D01*
X43725Y-22300D01*
X43708Y-22316D01*
X43691Y-22350D01*
X43691Y-22416D01*
X43708Y-22450D01*
X43725Y-22466D01*
X43758Y-22483D01*
G54D10*
X44475Y-23764D02*
X44475Y-23935D01*
X44475Y-23850D02*
X44175Y-23850D01*
X44218Y-23878D01*
X44247Y-23907D01*
X44261Y-23935D01*
G54D15*
X37558Y-23500D02*
X37841Y-23500D01*
X37875Y-23483D01*
X37891Y-23466D01*
X37908Y-23433D01*
X37908Y-23366D01*
X37891Y-23333D01*
X37875Y-23316D01*
X37841Y-23300D01*
X37558Y-23300D01*
X37558Y-22983D02*
X37558Y-23050D01*
X37575Y-23083D01*
X37591Y-23100D01*
X37641Y-23133D01*
X37708Y-23150D01*
X37841Y-23150D01*
X37875Y-23133D01*
X37891Y-23116D01*
X37908Y-23083D01*
X37908Y-23016D01*
X37891Y-22983D01*
X37875Y-22966D01*
X37841Y-22950D01*
X37758Y-22950D01*
X37725Y-22966D01*
X37708Y-22983D01*
X37691Y-23016D01*
X37691Y-23083D01*
X37708Y-23116D01*
X37725Y-23133D01*
X37758Y-23150D01*
X37558Y-22733D02*
X37558Y-22700D01*
X37575Y-22666D01*
X37591Y-22650D01*
X37625Y-22633D01*
X37691Y-22616D01*
X37775Y-22616D01*
X37841Y-22633D01*
X37875Y-22650D01*
X37891Y-22666D01*
X37908Y-22700D01*
X37908Y-22733D01*
X37891Y-22766D01*
X37875Y-22783D01*
X37841Y-22800D01*
X37775Y-22816D01*
X37691Y-22816D01*
X37625Y-22800D01*
X37591Y-22783D01*
X37575Y-22766D01*
X37558Y-22733D01*
X37558Y-22300D02*
X37558Y-22466D01*
X37725Y-22483D01*
X37708Y-22466D01*
X37691Y-22433D01*
X37691Y-22350D01*
X37708Y-22316D01*
X37725Y-22300D01*
X37758Y-22283D01*
X37841Y-22283D01*
X37875Y-22300D01*
X37891Y-22316D01*
X37908Y-22350D01*
X37908Y-22433D01*
X37891Y-22466D01*
X37875Y-22483D01*
G54D10*
X38475Y-23764D02*
X38475Y-23935D01*
X38475Y-23850D02*
X38175Y-23850D01*
X38218Y-23878D01*
X38247Y-23907D01*
X38261Y-23935D01*
G54D15*
X31558Y-23500D02*
X31841Y-23500D01*
X31875Y-23483D01*
X31891Y-23466D01*
X31908Y-23433D01*
X31908Y-23366D01*
X31891Y-23333D01*
X31875Y-23316D01*
X31841Y-23300D01*
X31558Y-23300D01*
X31558Y-22983D02*
X31558Y-23050D01*
X31575Y-23083D01*
X31591Y-23100D01*
X31641Y-23133D01*
X31708Y-23150D01*
X31841Y-23150D01*
X31875Y-23133D01*
X31891Y-23116D01*
X31908Y-23083D01*
X31908Y-23016D01*
X31891Y-22983D01*
X31875Y-22966D01*
X31841Y-22950D01*
X31758Y-22950D01*
X31725Y-22966D01*
X31708Y-22983D01*
X31691Y-23016D01*
X31691Y-23083D01*
X31708Y-23116D01*
X31725Y-23133D01*
X31758Y-23150D01*
X31558Y-22733D02*
X31558Y-22700D01*
X31575Y-22666D01*
X31591Y-22650D01*
X31625Y-22633D01*
X31691Y-22616D01*
X31775Y-22616D01*
X31841Y-22633D01*
X31875Y-22650D01*
X31891Y-22666D01*
X31908Y-22700D01*
X31908Y-22733D01*
X31891Y-22766D01*
X31875Y-22783D01*
X31841Y-22800D01*
X31775Y-22816D01*
X31691Y-22816D01*
X31625Y-22800D01*
X31591Y-22783D01*
X31575Y-22766D01*
X31558Y-22733D01*
X31675Y-22316D02*
X31908Y-22316D01*
X31541Y-22400D02*
X31791Y-22483D01*
X31791Y-22266D01*
G54D10*
X32475Y-23764D02*
X32475Y-23935D01*
X32475Y-23850D02*
X32175Y-23850D01*
X32218Y-23878D01*
X32247Y-23907D01*
X32261Y-23935D01*
G54D15*
X25558Y-23500D02*
X25841Y-23500D01*
X25875Y-23483D01*
X25891Y-23466D01*
X25908Y-23433D01*
X25908Y-23366D01*
X25891Y-23333D01*
X25875Y-23316D01*
X25841Y-23300D01*
X25558Y-23300D01*
X25558Y-22983D02*
X25558Y-23050D01*
X25575Y-23083D01*
X25591Y-23100D01*
X25641Y-23133D01*
X25708Y-23150D01*
X25841Y-23150D01*
X25875Y-23133D01*
X25891Y-23116D01*
X25908Y-23083D01*
X25908Y-23016D01*
X25891Y-22983D01*
X25875Y-22966D01*
X25841Y-22950D01*
X25758Y-22950D01*
X25725Y-22966D01*
X25708Y-22983D01*
X25691Y-23016D01*
X25691Y-23083D01*
X25708Y-23116D01*
X25725Y-23133D01*
X25758Y-23150D01*
X25558Y-22733D02*
X25558Y-22700D01*
X25575Y-22666D01*
X25591Y-22650D01*
X25625Y-22633D01*
X25691Y-22616D01*
X25775Y-22616D01*
X25841Y-22633D01*
X25875Y-22650D01*
X25891Y-22666D01*
X25908Y-22700D01*
X25908Y-22733D01*
X25891Y-22766D01*
X25875Y-22783D01*
X25841Y-22800D01*
X25775Y-22816D01*
X25691Y-22816D01*
X25625Y-22800D01*
X25591Y-22783D01*
X25575Y-22766D01*
X25558Y-22733D01*
X25558Y-22500D02*
X25558Y-22283D01*
X25691Y-22400D01*
X25691Y-22350D01*
X25708Y-22316D01*
X25725Y-22300D01*
X25758Y-22283D01*
X25841Y-22283D01*
X25875Y-22300D01*
X25891Y-22316D01*
X25908Y-22350D01*
X25908Y-22450D01*
X25891Y-22483D01*
X25875Y-22500D01*
G54D10*
X26475Y-23764D02*
X26475Y-23935D01*
X26475Y-23850D02*
X26175Y-23850D01*
X26218Y-23878D01*
X26247Y-23907D01*
X26261Y-23935D01*
G54D15*
X19558Y-23500D02*
X19841Y-23500D01*
X19875Y-23483D01*
X19891Y-23466D01*
X19908Y-23433D01*
X19908Y-23366D01*
X19891Y-23333D01*
X19875Y-23316D01*
X19841Y-23300D01*
X19558Y-23300D01*
X19558Y-22983D02*
X19558Y-23050D01*
X19575Y-23083D01*
X19591Y-23100D01*
X19641Y-23133D01*
X19708Y-23150D01*
X19841Y-23150D01*
X19875Y-23133D01*
X19891Y-23116D01*
X19908Y-23083D01*
X19908Y-23016D01*
X19891Y-22983D01*
X19875Y-22966D01*
X19841Y-22950D01*
X19758Y-22950D01*
X19725Y-22966D01*
X19708Y-22983D01*
X19691Y-23016D01*
X19691Y-23083D01*
X19708Y-23116D01*
X19725Y-23133D01*
X19758Y-23150D01*
X19558Y-22733D02*
X19558Y-22700D01*
X19575Y-22666D01*
X19591Y-22650D01*
X19625Y-22633D01*
X19691Y-22616D01*
X19775Y-22616D01*
X19841Y-22633D01*
X19875Y-22650D01*
X19891Y-22666D01*
X19908Y-22700D01*
X19908Y-22733D01*
X19891Y-22766D01*
X19875Y-22783D01*
X19841Y-22800D01*
X19775Y-22816D01*
X19691Y-22816D01*
X19625Y-22800D01*
X19591Y-22783D01*
X19575Y-22766D01*
X19558Y-22733D01*
X19591Y-22483D02*
X19575Y-22466D01*
X19558Y-22433D01*
X19558Y-22350D01*
X19575Y-22316D01*
X19591Y-22300D01*
X19625Y-22283D01*
X19658Y-22283D01*
X19708Y-22300D01*
X19908Y-22500D01*
X19908Y-22283D01*
G54D10*
X20475Y-23764D02*
X20475Y-23935D01*
X20475Y-23850D02*
X20175Y-23850D01*
X20218Y-23878D01*
X20247Y-23907D01*
X20261Y-23935D01*
G54D15*
X13558Y-23500D02*
X13841Y-23500D01*
X13875Y-23483D01*
X13891Y-23466D01*
X13908Y-23433D01*
X13908Y-23366D01*
X13891Y-23333D01*
X13875Y-23316D01*
X13841Y-23300D01*
X13558Y-23300D01*
X13558Y-22983D02*
X13558Y-23050D01*
X13575Y-23083D01*
X13591Y-23100D01*
X13641Y-23133D01*
X13708Y-23150D01*
X13841Y-23150D01*
X13875Y-23133D01*
X13891Y-23116D01*
X13908Y-23083D01*
X13908Y-23016D01*
X13891Y-22983D01*
X13875Y-22966D01*
X13841Y-22950D01*
X13758Y-22950D01*
X13725Y-22966D01*
X13708Y-22983D01*
X13691Y-23016D01*
X13691Y-23083D01*
X13708Y-23116D01*
X13725Y-23133D01*
X13758Y-23150D01*
X13558Y-22733D02*
X13558Y-22700D01*
X13575Y-22666D01*
X13591Y-22650D01*
X13625Y-22633D01*
X13691Y-22616D01*
X13775Y-22616D01*
X13841Y-22633D01*
X13875Y-22650D01*
X13891Y-22666D01*
X13908Y-22700D01*
X13908Y-22733D01*
X13891Y-22766D01*
X13875Y-22783D01*
X13841Y-22800D01*
X13775Y-22816D01*
X13691Y-22816D01*
X13625Y-22800D01*
X13591Y-22783D01*
X13575Y-22766D01*
X13558Y-22733D01*
X13908Y-22283D02*
X13908Y-22483D01*
X13908Y-22383D02*
X13558Y-22383D01*
X13608Y-22416D01*
X13641Y-22450D01*
X13658Y-22483D01*
G54D10*
X14475Y-23764D02*
X14475Y-23935D01*
X14475Y-23850D02*
X14175Y-23850D01*
X14218Y-23878D01*
X14247Y-23907D01*
X14261Y-23935D01*
G54D15*
X55558Y-29500D02*
X55841Y-29500D01*
X55875Y-29483D01*
X55891Y-29466D01*
X55908Y-29433D01*
X55908Y-29366D01*
X55891Y-29333D01*
X55875Y-29316D01*
X55841Y-29300D01*
X55558Y-29300D01*
X55558Y-28966D02*
X55558Y-29133D01*
X55725Y-29150D01*
X55708Y-29133D01*
X55691Y-29100D01*
X55691Y-29016D01*
X55708Y-28983D01*
X55725Y-28966D01*
X55758Y-28950D01*
X55841Y-28950D01*
X55875Y-28966D01*
X55891Y-28983D01*
X55908Y-29016D01*
X55908Y-29100D01*
X55891Y-29133D01*
X55875Y-29150D01*
X55558Y-28733D02*
X55558Y-28700D01*
X55575Y-28666D01*
X55591Y-28650D01*
X55625Y-28633D01*
X55691Y-28616D01*
X55775Y-28616D01*
X55841Y-28633D01*
X55875Y-28650D01*
X55891Y-28666D01*
X55908Y-28700D01*
X55908Y-28733D01*
X55891Y-28766D01*
X55875Y-28783D01*
X55841Y-28800D01*
X55775Y-28816D01*
X55691Y-28816D01*
X55625Y-28800D01*
X55591Y-28783D01*
X55575Y-28766D01*
X55558Y-28733D01*
X55708Y-28416D02*
X55691Y-28450D01*
X55675Y-28466D01*
X55641Y-28483D01*
X55625Y-28483D01*
X55591Y-28466D01*
X55575Y-28450D01*
X55558Y-28416D01*
X55558Y-28350D01*
X55575Y-28316D01*
X55591Y-28300D01*
X55625Y-28283D01*
X55641Y-28283D01*
X55675Y-28300D01*
X55691Y-28316D01*
X55708Y-28350D01*
X55708Y-28416D01*
X55725Y-28450D01*
X55741Y-28466D01*
X55775Y-28483D01*
X55841Y-28483D01*
X55875Y-28466D01*
X55891Y-28450D01*
X55908Y-28416D01*
X55908Y-28350D01*
X55891Y-28316D01*
X55875Y-28300D01*
X55841Y-28283D01*
X55775Y-28283D01*
X55741Y-28300D01*
X55725Y-28316D01*
X55708Y-28350D01*
G54D10*
X56475Y-29764D02*
X56475Y-29935D01*
X56475Y-29850D02*
X56175Y-29850D01*
X56218Y-29878D01*
X56247Y-29907D01*
X56261Y-29935D01*
G54D15*
X49558Y-29500D02*
X49841Y-29500D01*
X49875Y-29483D01*
X49891Y-29466D01*
X49908Y-29433D01*
X49908Y-29366D01*
X49891Y-29333D01*
X49875Y-29316D01*
X49841Y-29300D01*
X49558Y-29300D01*
X49558Y-28966D02*
X49558Y-29133D01*
X49725Y-29150D01*
X49708Y-29133D01*
X49691Y-29100D01*
X49691Y-29016D01*
X49708Y-28983D01*
X49725Y-28966D01*
X49758Y-28950D01*
X49841Y-28950D01*
X49875Y-28966D01*
X49891Y-28983D01*
X49908Y-29016D01*
X49908Y-29100D01*
X49891Y-29133D01*
X49875Y-29150D01*
X49558Y-28733D02*
X49558Y-28700D01*
X49575Y-28666D01*
X49591Y-28650D01*
X49625Y-28633D01*
X49691Y-28616D01*
X49775Y-28616D01*
X49841Y-28633D01*
X49875Y-28650D01*
X49891Y-28666D01*
X49908Y-28700D01*
X49908Y-28733D01*
X49891Y-28766D01*
X49875Y-28783D01*
X49841Y-28800D01*
X49775Y-28816D01*
X49691Y-28816D01*
X49625Y-28800D01*
X49591Y-28783D01*
X49575Y-28766D01*
X49558Y-28733D01*
X49558Y-28500D02*
X49558Y-28266D01*
X49908Y-28416D01*
G54D10*
X50475Y-29764D02*
X50475Y-29935D01*
X50475Y-29850D02*
X50175Y-29850D01*
X50218Y-29878D01*
X50247Y-29907D01*
X50261Y-29935D01*
G54D15*
X43558Y-29500D02*
X43841Y-29500D01*
X43875Y-29483D01*
X43891Y-29466D01*
X43908Y-29433D01*
X43908Y-29366D01*
X43891Y-29333D01*
X43875Y-29316D01*
X43841Y-29300D01*
X43558Y-29300D01*
X43558Y-28966D02*
X43558Y-29133D01*
X43725Y-29150D01*
X43708Y-29133D01*
X43691Y-29100D01*
X43691Y-29016D01*
X43708Y-28983D01*
X43725Y-28966D01*
X43758Y-28950D01*
X43841Y-28950D01*
X43875Y-28966D01*
X43891Y-28983D01*
X43908Y-29016D01*
X43908Y-29100D01*
X43891Y-29133D01*
X43875Y-29150D01*
X43558Y-28733D02*
X43558Y-28700D01*
X43575Y-28666D01*
X43591Y-28650D01*
X43625Y-28633D01*
X43691Y-28616D01*
X43775Y-28616D01*
X43841Y-28633D01*
X43875Y-28650D01*
X43891Y-28666D01*
X43908Y-28700D01*
X43908Y-28733D01*
X43891Y-28766D01*
X43875Y-28783D01*
X43841Y-28800D01*
X43775Y-28816D01*
X43691Y-28816D01*
X43625Y-28800D01*
X43591Y-28783D01*
X43575Y-28766D01*
X43558Y-28733D01*
X43558Y-28316D02*
X43558Y-28383D01*
X43575Y-28416D01*
X43591Y-28433D01*
X43641Y-28466D01*
X43708Y-28483D01*
X43841Y-28483D01*
X43875Y-28466D01*
X43891Y-28450D01*
X43908Y-28416D01*
X43908Y-28350D01*
X43891Y-28316D01*
X43875Y-28300D01*
X43841Y-28283D01*
X43758Y-28283D01*
X43725Y-28300D01*
X43708Y-28316D01*
X43691Y-28350D01*
X43691Y-28416D01*
X43708Y-28450D01*
X43725Y-28466D01*
X43758Y-28483D01*
G54D10*
X44475Y-29764D02*
X44475Y-29935D01*
X44475Y-29850D02*
X44175Y-29850D01*
X44218Y-29878D01*
X44247Y-29907D01*
X44261Y-29935D01*
G54D15*
X37558Y-29500D02*
X37841Y-29500D01*
X37875Y-29483D01*
X37891Y-29466D01*
X37908Y-29433D01*
X37908Y-29366D01*
X37891Y-29333D01*
X37875Y-29316D01*
X37841Y-29300D01*
X37558Y-29300D01*
X37558Y-28966D02*
X37558Y-29133D01*
X37725Y-29150D01*
X37708Y-29133D01*
X37691Y-29100D01*
X37691Y-29016D01*
X37708Y-28983D01*
X37725Y-28966D01*
X37758Y-28950D01*
X37841Y-28950D01*
X37875Y-28966D01*
X37891Y-28983D01*
X37908Y-29016D01*
X37908Y-29100D01*
X37891Y-29133D01*
X37875Y-29150D01*
X37558Y-28733D02*
X37558Y-28700D01*
X37575Y-28666D01*
X37591Y-28650D01*
X37625Y-28633D01*
X37691Y-28616D01*
X37775Y-28616D01*
X37841Y-28633D01*
X37875Y-28650D01*
X37891Y-28666D01*
X37908Y-28700D01*
X37908Y-28733D01*
X37891Y-28766D01*
X37875Y-28783D01*
X37841Y-28800D01*
X37775Y-28816D01*
X37691Y-28816D01*
X37625Y-28800D01*
X37591Y-28783D01*
X37575Y-28766D01*
X37558Y-28733D01*
X37558Y-28300D02*
X37558Y-28466D01*
X37725Y-28483D01*
X37708Y-28466D01*
X37691Y-28433D01*
X37691Y-28350D01*
X37708Y-28316D01*
X37725Y-28300D01*
X37758Y-28283D01*
X37841Y-28283D01*
X37875Y-28300D01*
X37891Y-28316D01*
X37908Y-28350D01*
X37908Y-28433D01*
X37891Y-28466D01*
X37875Y-28483D01*
G54D10*
X38475Y-29764D02*
X38475Y-29935D01*
X38475Y-29850D02*
X38175Y-29850D01*
X38218Y-29878D01*
X38247Y-29907D01*
X38261Y-29935D01*
G54D15*
X31558Y-29500D02*
X31841Y-29500D01*
X31875Y-29483D01*
X31891Y-29466D01*
X31908Y-29433D01*
X31908Y-29366D01*
X31891Y-29333D01*
X31875Y-29316D01*
X31841Y-29300D01*
X31558Y-29300D01*
X31558Y-28966D02*
X31558Y-29133D01*
X31725Y-29150D01*
X31708Y-29133D01*
X31691Y-29100D01*
X31691Y-29016D01*
X31708Y-28983D01*
X31725Y-28966D01*
X31758Y-28950D01*
X31841Y-28950D01*
X31875Y-28966D01*
X31891Y-28983D01*
X31908Y-29016D01*
X31908Y-29100D01*
X31891Y-29133D01*
X31875Y-29150D01*
X31558Y-28733D02*
X31558Y-28700D01*
X31575Y-28666D01*
X31591Y-28650D01*
X31625Y-28633D01*
X31691Y-28616D01*
X31775Y-28616D01*
X31841Y-28633D01*
X31875Y-28650D01*
X31891Y-28666D01*
X31908Y-28700D01*
X31908Y-28733D01*
X31891Y-28766D01*
X31875Y-28783D01*
X31841Y-28800D01*
X31775Y-28816D01*
X31691Y-28816D01*
X31625Y-28800D01*
X31591Y-28783D01*
X31575Y-28766D01*
X31558Y-28733D01*
X31675Y-28316D02*
X31908Y-28316D01*
X31541Y-28400D02*
X31791Y-28483D01*
X31791Y-28266D01*
G54D10*
X32475Y-29764D02*
X32475Y-29935D01*
X32475Y-29850D02*
X32175Y-29850D01*
X32218Y-29878D01*
X32247Y-29907D01*
X32261Y-29935D01*
G54D15*
X25558Y-29500D02*
X25841Y-29500D01*
X25875Y-29483D01*
X25891Y-29466D01*
X25908Y-29433D01*
X25908Y-29366D01*
X25891Y-29333D01*
X25875Y-29316D01*
X25841Y-29300D01*
X25558Y-29300D01*
X25558Y-28966D02*
X25558Y-29133D01*
X25725Y-29150D01*
X25708Y-29133D01*
X25691Y-29100D01*
X25691Y-29016D01*
X25708Y-28983D01*
X25725Y-28966D01*
X25758Y-28950D01*
X25841Y-28950D01*
X25875Y-28966D01*
X25891Y-28983D01*
X25908Y-29016D01*
X25908Y-29100D01*
X25891Y-29133D01*
X25875Y-29150D01*
X25558Y-28733D02*
X25558Y-28700D01*
X25575Y-28666D01*
X25591Y-28650D01*
X25625Y-28633D01*
X25691Y-28616D01*
X25775Y-28616D01*
X25841Y-28633D01*
X25875Y-28650D01*
X25891Y-28666D01*
X25908Y-28700D01*
X25908Y-28733D01*
X25891Y-28766D01*
X25875Y-28783D01*
X25841Y-28800D01*
X25775Y-28816D01*
X25691Y-28816D01*
X25625Y-28800D01*
X25591Y-28783D01*
X25575Y-28766D01*
X25558Y-28733D01*
X25558Y-28500D02*
X25558Y-28283D01*
X25691Y-28400D01*
X25691Y-28350D01*
X25708Y-28316D01*
X25725Y-28300D01*
X25758Y-28283D01*
X25841Y-28283D01*
X25875Y-28300D01*
X25891Y-28316D01*
X25908Y-28350D01*
X25908Y-28450D01*
X25891Y-28483D01*
X25875Y-28500D01*
G54D10*
X26475Y-29764D02*
X26475Y-29935D01*
X26475Y-29850D02*
X26175Y-29850D01*
X26218Y-29878D01*
X26247Y-29907D01*
X26261Y-29935D01*
G54D15*
X19558Y-29500D02*
X19841Y-29500D01*
X19875Y-29483D01*
X19891Y-29466D01*
X19908Y-29433D01*
X19908Y-29366D01*
X19891Y-29333D01*
X19875Y-29316D01*
X19841Y-29300D01*
X19558Y-29300D01*
X19558Y-28966D02*
X19558Y-29133D01*
X19725Y-29150D01*
X19708Y-29133D01*
X19691Y-29100D01*
X19691Y-29016D01*
X19708Y-28983D01*
X19725Y-28966D01*
X19758Y-28950D01*
X19841Y-28950D01*
X19875Y-28966D01*
X19891Y-28983D01*
X19908Y-29016D01*
X19908Y-29100D01*
X19891Y-29133D01*
X19875Y-29150D01*
X19558Y-28733D02*
X19558Y-28700D01*
X19575Y-28666D01*
X19591Y-28650D01*
X19625Y-28633D01*
X19691Y-28616D01*
X19775Y-28616D01*
X19841Y-28633D01*
X19875Y-28650D01*
X19891Y-28666D01*
X19908Y-28700D01*
X19908Y-28733D01*
X19891Y-28766D01*
X19875Y-28783D01*
X19841Y-28800D01*
X19775Y-28816D01*
X19691Y-28816D01*
X19625Y-28800D01*
X19591Y-28783D01*
X19575Y-28766D01*
X19558Y-28733D01*
X19591Y-28483D02*
X19575Y-28466D01*
X19558Y-28433D01*
X19558Y-28350D01*
X19575Y-28316D01*
X19591Y-28300D01*
X19625Y-28283D01*
X19658Y-28283D01*
X19708Y-28300D01*
X19908Y-28500D01*
X19908Y-28283D01*
G54D10*
X20475Y-29764D02*
X20475Y-29935D01*
X20475Y-29850D02*
X20175Y-29850D01*
X20218Y-29878D01*
X20247Y-29907D01*
X20261Y-29935D01*
G54D15*
X13558Y-29500D02*
X13841Y-29500D01*
X13875Y-29483D01*
X13891Y-29466D01*
X13908Y-29433D01*
X13908Y-29366D01*
X13891Y-29333D01*
X13875Y-29316D01*
X13841Y-29300D01*
X13558Y-29300D01*
X13558Y-28966D02*
X13558Y-29133D01*
X13725Y-29150D01*
X13708Y-29133D01*
X13691Y-29100D01*
X13691Y-29016D01*
X13708Y-28983D01*
X13725Y-28966D01*
X13758Y-28950D01*
X13841Y-28950D01*
X13875Y-28966D01*
X13891Y-28983D01*
X13908Y-29016D01*
X13908Y-29100D01*
X13891Y-29133D01*
X13875Y-29150D01*
X13558Y-28733D02*
X13558Y-28700D01*
X13575Y-28666D01*
X13591Y-28650D01*
X13625Y-28633D01*
X13691Y-28616D01*
X13775Y-28616D01*
X13841Y-28633D01*
X13875Y-28650D01*
X13891Y-28666D01*
X13908Y-28700D01*
X13908Y-28733D01*
X13891Y-28766D01*
X13875Y-28783D01*
X13841Y-28800D01*
X13775Y-28816D01*
X13691Y-28816D01*
X13625Y-28800D01*
X13591Y-28783D01*
X13575Y-28766D01*
X13558Y-28733D01*
X13908Y-28283D02*
X13908Y-28483D01*
X13908Y-28383D02*
X13558Y-28383D01*
X13608Y-28416D01*
X13641Y-28450D01*
X13658Y-28483D01*
G54D10*
X14475Y-29764D02*
X14475Y-29935D01*
X14475Y-29850D02*
X14175Y-29850D01*
X14218Y-29878D01*
X14247Y-29907D01*
X14261Y-29935D01*
G54D15*
X55558Y-35500D02*
X55841Y-35500D01*
X55875Y-35483D01*
X55891Y-35466D01*
X55908Y-35433D01*
X55908Y-35366D01*
X55891Y-35333D01*
X55875Y-35316D01*
X55841Y-35300D01*
X55558Y-35300D01*
X55675Y-34983D02*
X55908Y-34983D01*
X55541Y-35066D02*
X55791Y-35150D01*
X55791Y-34933D01*
X55558Y-34733D02*
X55558Y-34700D01*
X55575Y-34666D01*
X55591Y-34650D01*
X55625Y-34633D01*
X55691Y-34616D01*
X55775Y-34616D01*
X55841Y-34633D01*
X55875Y-34650D01*
X55891Y-34666D01*
X55908Y-34700D01*
X55908Y-34733D01*
X55891Y-34766D01*
X55875Y-34783D01*
X55841Y-34800D01*
X55775Y-34816D01*
X55691Y-34816D01*
X55625Y-34800D01*
X55591Y-34783D01*
X55575Y-34766D01*
X55558Y-34733D01*
X55708Y-34416D02*
X55691Y-34450D01*
X55675Y-34466D01*
X55641Y-34483D01*
X55625Y-34483D01*
X55591Y-34466D01*
X55575Y-34450D01*
X55558Y-34416D01*
X55558Y-34350D01*
X55575Y-34316D01*
X55591Y-34300D01*
X55625Y-34283D01*
X55641Y-34283D01*
X55675Y-34300D01*
X55691Y-34316D01*
X55708Y-34350D01*
X55708Y-34416D01*
X55725Y-34450D01*
X55741Y-34466D01*
X55775Y-34483D01*
X55841Y-34483D01*
X55875Y-34466D01*
X55891Y-34450D01*
X55908Y-34416D01*
X55908Y-34350D01*
X55891Y-34316D01*
X55875Y-34300D01*
X55841Y-34283D01*
X55775Y-34283D01*
X55741Y-34300D01*
X55725Y-34316D01*
X55708Y-34350D01*
G54D10*
X56475Y-35764D02*
X56475Y-35935D01*
X56475Y-35850D02*
X56175Y-35850D01*
X56218Y-35878D01*
X56247Y-35907D01*
X56261Y-35935D01*
G54D15*
X49558Y-35500D02*
X49841Y-35500D01*
X49875Y-35483D01*
X49891Y-35466D01*
X49908Y-35433D01*
X49908Y-35366D01*
X49891Y-35333D01*
X49875Y-35316D01*
X49841Y-35300D01*
X49558Y-35300D01*
X49675Y-34983D02*
X49908Y-34983D01*
X49541Y-35066D02*
X49791Y-35150D01*
X49791Y-34933D01*
X49558Y-34733D02*
X49558Y-34700D01*
X49575Y-34666D01*
X49591Y-34650D01*
X49625Y-34633D01*
X49691Y-34616D01*
X49775Y-34616D01*
X49841Y-34633D01*
X49875Y-34650D01*
X49891Y-34666D01*
X49908Y-34700D01*
X49908Y-34733D01*
X49891Y-34766D01*
X49875Y-34783D01*
X49841Y-34800D01*
X49775Y-34816D01*
X49691Y-34816D01*
X49625Y-34800D01*
X49591Y-34783D01*
X49575Y-34766D01*
X49558Y-34733D01*
X49558Y-34500D02*
X49558Y-34266D01*
X49908Y-34416D01*
G54D10*
X50475Y-35764D02*
X50475Y-35935D01*
X50475Y-35850D02*
X50175Y-35850D01*
X50218Y-35878D01*
X50247Y-35907D01*
X50261Y-35935D01*
G54D15*
X43558Y-35500D02*
X43841Y-35500D01*
X43875Y-35483D01*
X43891Y-35466D01*
X43908Y-35433D01*
X43908Y-35366D01*
X43891Y-35333D01*
X43875Y-35316D01*
X43841Y-35300D01*
X43558Y-35300D01*
X43675Y-34983D02*
X43908Y-34983D01*
X43541Y-35066D02*
X43791Y-35150D01*
X43791Y-34933D01*
X43558Y-34733D02*
X43558Y-34700D01*
X43575Y-34666D01*
X43591Y-34650D01*
X43625Y-34633D01*
X43691Y-34616D01*
X43775Y-34616D01*
X43841Y-34633D01*
X43875Y-34650D01*
X43891Y-34666D01*
X43908Y-34700D01*
X43908Y-34733D01*
X43891Y-34766D01*
X43875Y-34783D01*
X43841Y-34800D01*
X43775Y-34816D01*
X43691Y-34816D01*
X43625Y-34800D01*
X43591Y-34783D01*
X43575Y-34766D01*
X43558Y-34733D01*
X43558Y-34316D02*
X43558Y-34383D01*
X43575Y-34416D01*
X43591Y-34433D01*
X43641Y-34466D01*
X43708Y-34483D01*
X43841Y-34483D01*
X43875Y-34466D01*
X43891Y-34450D01*
X43908Y-34416D01*
X43908Y-34350D01*
X43891Y-34316D01*
X43875Y-34300D01*
X43841Y-34283D01*
X43758Y-34283D01*
X43725Y-34300D01*
X43708Y-34316D01*
X43691Y-34350D01*
X43691Y-34416D01*
X43708Y-34450D01*
X43725Y-34466D01*
X43758Y-34483D01*
G54D10*
X44475Y-35764D02*
X44475Y-35935D01*
X44475Y-35850D02*
X44175Y-35850D01*
X44218Y-35878D01*
X44247Y-35907D01*
X44261Y-35935D01*
G54D15*
X37558Y-35500D02*
X37841Y-35500D01*
X37875Y-35483D01*
X37891Y-35466D01*
X37908Y-35433D01*
X37908Y-35366D01*
X37891Y-35333D01*
X37875Y-35316D01*
X37841Y-35300D01*
X37558Y-35300D01*
X37675Y-34983D02*
X37908Y-34983D01*
X37541Y-35066D02*
X37791Y-35150D01*
X37791Y-34933D01*
X37558Y-34733D02*
X37558Y-34700D01*
X37575Y-34666D01*
X37591Y-34650D01*
X37625Y-34633D01*
X37691Y-34616D01*
X37775Y-34616D01*
X37841Y-34633D01*
X37875Y-34650D01*
X37891Y-34666D01*
X37908Y-34700D01*
X37908Y-34733D01*
X37891Y-34766D01*
X37875Y-34783D01*
X37841Y-34800D01*
X37775Y-34816D01*
X37691Y-34816D01*
X37625Y-34800D01*
X37591Y-34783D01*
X37575Y-34766D01*
X37558Y-34733D01*
X37558Y-34300D02*
X37558Y-34466D01*
X37725Y-34483D01*
X37708Y-34466D01*
X37691Y-34433D01*
X37691Y-34350D01*
X37708Y-34316D01*
X37725Y-34300D01*
X37758Y-34283D01*
X37841Y-34283D01*
X37875Y-34300D01*
X37891Y-34316D01*
X37908Y-34350D01*
X37908Y-34433D01*
X37891Y-34466D01*
X37875Y-34483D01*
G54D10*
X38475Y-35764D02*
X38475Y-35935D01*
X38475Y-35850D02*
X38175Y-35850D01*
X38218Y-35878D01*
X38247Y-35907D01*
X38261Y-35935D01*
G54D15*
X31558Y-35500D02*
X31841Y-35500D01*
X31875Y-35483D01*
X31891Y-35466D01*
X31908Y-35433D01*
X31908Y-35366D01*
X31891Y-35333D01*
X31875Y-35316D01*
X31841Y-35300D01*
X31558Y-35300D01*
X31675Y-34983D02*
X31908Y-34983D01*
X31541Y-35066D02*
X31791Y-35150D01*
X31791Y-34933D01*
X31558Y-34733D02*
X31558Y-34700D01*
X31575Y-34666D01*
X31591Y-34650D01*
X31625Y-34633D01*
X31691Y-34616D01*
X31775Y-34616D01*
X31841Y-34633D01*
X31875Y-34650D01*
X31891Y-34666D01*
X31908Y-34700D01*
X31908Y-34733D01*
X31891Y-34766D01*
X31875Y-34783D01*
X31841Y-34800D01*
X31775Y-34816D01*
X31691Y-34816D01*
X31625Y-34800D01*
X31591Y-34783D01*
X31575Y-34766D01*
X31558Y-34733D01*
X31675Y-34316D02*
X31908Y-34316D01*
X31541Y-34400D02*
X31791Y-34483D01*
X31791Y-34266D01*
G54D10*
X32475Y-35764D02*
X32475Y-35935D01*
X32475Y-35850D02*
X32175Y-35850D01*
X32218Y-35878D01*
X32247Y-35907D01*
X32261Y-35935D01*
G54D15*
X25558Y-35500D02*
X25841Y-35500D01*
X25875Y-35483D01*
X25891Y-35466D01*
X25908Y-35433D01*
X25908Y-35366D01*
X25891Y-35333D01*
X25875Y-35316D01*
X25841Y-35300D01*
X25558Y-35300D01*
X25675Y-34983D02*
X25908Y-34983D01*
X25541Y-35066D02*
X25791Y-35150D01*
X25791Y-34933D01*
X25558Y-34733D02*
X25558Y-34700D01*
X25575Y-34666D01*
X25591Y-34650D01*
X25625Y-34633D01*
X25691Y-34616D01*
X25775Y-34616D01*
X25841Y-34633D01*
X25875Y-34650D01*
X25891Y-34666D01*
X25908Y-34700D01*
X25908Y-34733D01*
X25891Y-34766D01*
X25875Y-34783D01*
X25841Y-34800D01*
X25775Y-34816D01*
X25691Y-34816D01*
X25625Y-34800D01*
X25591Y-34783D01*
X25575Y-34766D01*
X25558Y-34733D01*
X25558Y-34500D02*
X25558Y-34283D01*
X25691Y-34400D01*
X25691Y-34350D01*
X25708Y-34316D01*
X25725Y-34300D01*
X25758Y-34283D01*
X25841Y-34283D01*
X25875Y-34300D01*
X25891Y-34316D01*
X25908Y-34350D01*
X25908Y-34450D01*
X25891Y-34483D01*
X25875Y-34500D01*
G54D10*
X26475Y-35764D02*
X26475Y-35935D01*
X26475Y-35850D02*
X26175Y-35850D01*
X26218Y-35878D01*
X26247Y-35907D01*
X26261Y-35935D01*
G54D15*
X19558Y-35500D02*
X19841Y-35500D01*
X19875Y-35483D01*
X19891Y-35466D01*
X19908Y-35433D01*
X19908Y-35366D01*
X19891Y-35333D01*
X19875Y-35316D01*
X19841Y-35300D01*
X19558Y-35300D01*
X19675Y-34983D02*
X19908Y-34983D01*
X19541Y-35066D02*
X19791Y-35150D01*
X19791Y-34933D01*
X19558Y-34733D02*
X19558Y-34700D01*
X19575Y-34666D01*
X19591Y-34650D01*
X19625Y-34633D01*
X19691Y-34616D01*
X19775Y-34616D01*
X19841Y-34633D01*
X19875Y-34650D01*
X19891Y-34666D01*
X19908Y-34700D01*
X19908Y-34733D01*
X19891Y-34766D01*
X19875Y-34783D01*
X19841Y-34800D01*
X19775Y-34816D01*
X19691Y-34816D01*
X19625Y-34800D01*
X19591Y-34783D01*
X19575Y-34766D01*
X19558Y-34733D01*
X19591Y-34483D02*
X19575Y-34466D01*
X19558Y-34433D01*
X19558Y-34350D01*
X19575Y-34316D01*
X19591Y-34300D01*
X19625Y-34283D01*
X19658Y-34283D01*
X19708Y-34300D01*
X19908Y-34500D01*
X19908Y-34283D01*
G54D10*
X20475Y-35764D02*
X20475Y-35935D01*
X20475Y-35850D02*
X20175Y-35850D01*
X20218Y-35878D01*
X20247Y-35907D01*
X20261Y-35935D01*
G54D15*
X13558Y-35500D02*
X13841Y-35500D01*
X13875Y-35483D01*
X13891Y-35466D01*
X13908Y-35433D01*
X13908Y-35366D01*
X13891Y-35333D01*
X13875Y-35316D01*
X13841Y-35300D01*
X13558Y-35300D01*
X13675Y-34983D02*
X13908Y-34983D01*
X13541Y-35066D02*
X13791Y-35150D01*
X13791Y-34933D01*
X13558Y-34733D02*
X13558Y-34700D01*
X13575Y-34666D01*
X13591Y-34650D01*
X13625Y-34633D01*
X13691Y-34616D01*
X13775Y-34616D01*
X13841Y-34633D01*
X13875Y-34650D01*
X13891Y-34666D01*
X13908Y-34700D01*
X13908Y-34733D01*
X13891Y-34766D01*
X13875Y-34783D01*
X13841Y-34800D01*
X13775Y-34816D01*
X13691Y-34816D01*
X13625Y-34800D01*
X13591Y-34783D01*
X13575Y-34766D01*
X13558Y-34733D01*
X13908Y-34283D02*
X13908Y-34483D01*
X13908Y-34383D02*
X13558Y-34383D01*
X13608Y-34416D01*
X13641Y-34450D01*
X13658Y-34483D01*
G54D10*
X14475Y-35764D02*
X14475Y-35935D01*
X14475Y-35850D02*
X14175Y-35850D01*
X14218Y-35878D01*
X14247Y-35907D01*
X14261Y-35935D01*
G54D15*
X55558Y-41500D02*
X55841Y-41500D01*
X55875Y-41483D01*
X55891Y-41466D01*
X55908Y-41433D01*
X55908Y-41366D01*
X55891Y-41333D01*
X55875Y-41316D01*
X55841Y-41300D01*
X55558Y-41300D01*
X55558Y-41166D02*
X55558Y-40950D01*
X55691Y-41066D01*
X55691Y-41016D01*
X55708Y-40983D01*
X55725Y-40966D01*
X55758Y-40950D01*
X55841Y-40950D01*
X55875Y-40966D01*
X55891Y-40983D01*
X55908Y-41016D01*
X55908Y-41116D01*
X55891Y-41150D01*
X55875Y-41166D01*
X55558Y-40733D02*
X55558Y-40700D01*
X55575Y-40666D01*
X55591Y-40650D01*
X55625Y-40633D01*
X55691Y-40616D01*
X55775Y-40616D01*
X55841Y-40633D01*
X55875Y-40650D01*
X55891Y-40666D01*
X55908Y-40700D01*
X55908Y-40733D01*
X55891Y-40766D01*
X55875Y-40783D01*
X55841Y-40800D01*
X55775Y-40816D01*
X55691Y-40816D01*
X55625Y-40800D01*
X55591Y-40783D01*
X55575Y-40766D01*
X55558Y-40733D01*
X55708Y-40416D02*
X55691Y-40450D01*
X55675Y-40466D01*
X55641Y-40483D01*
X55625Y-40483D01*
X55591Y-40466D01*
X55575Y-40450D01*
X55558Y-40416D01*
X55558Y-40350D01*
X55575Y-40316D01*
X55591Y-40300D01*
X55625Y-40283D01*
X55641Y-40283D01*
X55675Y-40300D01*
X55691Y-40316D01*
X55708Y-40350D01*
X55708Y-40416D01*
X55725Y-40450D01*
X55741Y-40466D01*
X55775Y-40483D01*
X55841Y-40483D01*
X55875Y-40466D01*
X55891Y-40450D01*
X55908Y-40416D01*
X55908Y-40350D01*
X55891Y-40316D01*
X55875Y-40300D01*
X55841Y-40283D01*
X55775Y-40283D01*
X55741Y-40300D01*
X55725Y-40316D01*
X55708Y-40350D01*
G54D10*
X56475Y-41764D02*
X56475Y-41935D01*
X56475Y-41850D02*
X56175Y-41850D01*
X56218Y-41878D01*
X56247Y-41907D01*
X56261Y-41935D01*
G54D15*
X49558Y-41500D02*
X49841Y-41500D01*
X49875Y-41483D01*
X49891Y-41466D01*
X49908Y-41433D01*
X49908Y-41366D01*
X49891Y-41333D01*
X49875Y-41316D01*
X49841Y-41300D01*
X49558Y-41300D01*
X49558Y-41166D02*
X49558Y-40950D01*
X49691Y-41066D01*
X49691Y-41016D01*
X49708Y-40983D01*
X49725Y-40966D01*
X49758Y-40950D01*
X49841Y-40950D01*
X49875Y-40966D01*
X49891Y-40983D01*
X49908Y-41016D01*
X49908Y-41116D01*
X49891Y-41150D01*
X49875Y-41166D01*
X49558Y-40733D02*
X49558Y-40700D01*
X49575Y-40666D01*
X49591Y-40650D01*
X49625Y-40633D01*
X49691Y-40616D01*
X49775Y-40616D01*
X49841Y-40633D01*
X49875Y-40650D01*
X49891Y-40666D01*
X49908Y-40700D01*
X49908Y-40733D01*
X49891Y-40766D01*
X49875Y-40783D01*
X49841Y-40800D01*
X49775Y-40816D01*
X49691Y-40816D01*
X49625Y-40800D01*
X49591Y-40783D01*
X49575Y-40766D01*
X49558Y-40733D01*
X49558Y-40500D02*
X49558Y-40266D01*
X49908Y-40416D01*
G54D10*
X50475Y-41764D02*
X50475Y-41935D01*
X50475Y-41850D02*
X50175Y-41850D01*
X50218Y-41878D01*
X50247Y-41907D01*
X50261Y-41935D01*
G54D15*
X43558Y-41500D02*
X43841Y-41500D01*
X43875Y-41483D01*
X43891Y-41466D01*
X43908Y-41433D01*
X43908Y-41366D01*
X43891Y-41333D01*
X43875Y-41316D01*
X43841Y-41300D01*
X43558Y-41300D01*
X43558Y-41166D02*
X43558Y-40950D01*
X43691Y-41066D01*
X43691Y-41016D01*
X43708Y-40983D01*
X43725Y-40966D01*
X43758Y-40950D01*
X43841Y-40950D01*
X43875Y-40966D01*
X43891Y-40983D01*
X43908Y-41016D01*
X43908Y-41116D01*
X43891Y-41150D01*
X43875Y-41166D01*
X43558Y-40733D02*
X43558Y-40700D01*
X43575Y-40666D01*
X43591Y-40650D01*
X43625Y-40633D01*
X43691Y-40616D01*
X43775Y-40616D01*
X43841Y-40633D01*
X43875Y-40650D01*
X43891Y-40666D01*
X43908Y-40700D01*
X43908Y-40733D01*
X43891Y-40766D01*
X43875Y-40783D01*
X43841Y-40800D01*
X43775Y-40816D01*
X43691Y-40816D01*
X43625Y-40800D01*
X43591Y-40783D01*
X43575Y-40766D01*
X43558Y-40733D01*
X43558Y-40316D02*
X43558Y-40383D01*
X43575Y-40416D01*
X43591Y-40433D01*
X43641Y-40466D01*
X43708Y-40483D01*
X43841Y-40483D01*
X43875Y-40466D01*
X43891Y-40450D01*
X43908Y-40416D01*
X43908Y-40350D01*
X43891Y-40316D01*
X43875Y-40300D01*
X43841Y-40283D01*
X43758Y-40283D01*
X43725Y-40300D01*
X43708Y-40316D01*
X43691Y-40350D01*
X43691Y-40416D01*
X43708Y-40450D01*
X43725Y-40466D01*
X43758Y-40483D01*
G54D10*
X44475Y-41764D02*
X44475Y-41935D01*
X44475Y-41850D02*
X44175Y-41850D01*
X44218Y-41878D01*
X44247Y-41907D01*
X44261Y-41935D01*
G54D15*
X37558Y-41500D02*
X37841Y-41500D01*
X37875Y-41483D01*
X37891Y-41466D01*
X37908Y-41433D01*
X37908Y-41366D01*
X37891Y-41333D01*
X37875Y-41316D01*
X37841Y-41300D01*
X37558Y-41300D01*
X37558Y-41166D02*
X37558Y-40950D01*
X37691Y-41066D01*
X37691Y-41016D01*
X37708Y-40983D01*
X37725Y-40966D01*
X37758Y-40950D01*
X37841Y-40950D01*
X37875Y-40966D01*
X37891Y-40983D01*
X37908Y-41016D01*
X37908Y-41116D01*
X37891Y-41150D01*
X37875Y-41166D01*
X37558Y-40733D02*
X37558Y-40700D01*
X37575Y-40666D01*
X37591Y-40650D01*
X37625Y-40633D01*
X37691Y-40616D01*
X37775Y-40616D01*
X37841Y-40633D01*
X37875Y-40650D01*
X37891Y-40666D01*
X37908Y-40700D01*
X37908Y-40733D01*
X37891Y-40766D01*
X37875Y-40783D01*
X37841Y-40800D01*
X37775Y-40816D01*
X37691Y-40816D01*
X37625Y-40800D01*
X37591Y-40783D01*
X37575Y-40766D01*
X37558Y-40733D01*
X37558Y-40300D02*
X37558Y-40466D01*
X37725Y-40483D01*
X37708Y-40466D01*
X37691Y-40433D01*
X37691Y-40350D01*
X37708Y-40316D01*
X37725Y-40300D01*
X37758Y-40283D01*
X37841Y-40283D01*
X37875Y-40300D01*
X37891Y-40316D01*
X37908Y-40350D01*
X37908Y-40433D01*
X37891Y-40466D01*
X37875Y-40483D01*
G54D10*
X38475Y-41764D02*
X38475Y-41935D01*
X38475Y-41850D02*
X38175Y-41850D01*
X38218Y-41878D01*
X38247Y-41907D01*
X38261Y-41935D01*
G54D15*
X31558Y-41500D02*
X31841Y-41500D01*
X31875Y-41483D01*
X31891Y-41466D01*
X31908Y-41433D01*
X31908Y-41366D01*
X31891Y-41333D01*
X31875Y-41316D01*
X31841Y-41300D01*
X31558Y-41300D01*
X31558Y-41166D02*
X31558Y-40950D01*
X31691Y-41066D01*
X31691Y-41016D01*
X31708Y-40983D01*
X31725Y-40966D01*
X31758Y-40950D01*
X31841Y-40950D01*
X31875Y-40966D01*
X31891Y-40983D01*
X31908Y-41016D01*
X31908Y-41116D01*
X31891Y-41150D01*
X31875Y-41166D01*
X31558Y-40733D02*
X31558Y-40700D01*
X31575Y-40666D01*
X31591Y-40650D01*
X31625Y-40633D01*
X31691Y-40616D01*
X31775Y-40616D01*
X31841Y-40633D01*
X31875Y-40650D01*
X31891Y-40666D01*
X31908Y-40700D01*
X31908Y-40733D01*
X31891Y-40766D01*
X31875Y-40783D01*
X31841Y-40800D01*
X31775Y-40816D01*
X31691Y-40816D01*
X31625Y-40800D01*
X31591Y-40783D01*
X31575Y-40766D01*
X31558Y-40733D01*
X31675Y-40316D02*
X31908Y-40316D01*
X31541Y-40400D02*
X31791Y-40483D01*
X31791Y-40266D01*
G54D10*
X32475Y-41764D02*
X32475Y-41935D01*
X32475Y-41850D02*
X32175Y-41850D01*
X32218Y-41878D01*
X32247Y-41907D01*
X32261Y-41935D01*
G54D15*
X25558Y-41500D02*
X25841Y-41500D01*
X25875Y-41483D01*
X25891Y-41466D01*
X25908Y-41433D01*
X25908Y-41366D01*
X25891Y-41333D01*
X25875Y-41316D01*
X25841Y-41300D01*
X25558Y-41300D01*
X25558Y-41166D02*
X25558Y-40950D01*
X25691Y-41066D01*
X25691Y-41016D01*
X25708Y-40983D01*
X25725Y-40966D01*
X25758Y-40950D01*
X25841Y-40950D01*
X25875Y-40966D01*
X25891Y-40983D01*
X25908Y-41016D01*
X25908Y-41116D01*
X25891Y-41150D01*
X25875Y-41166D01*
X25558Y-40733D02*
X25558Y-40700D01*
X25575Y-40666D01*
X25591Y-40650D01*
X25625Y-40633D01*
X25691Y-40616D01*
X25775Y-40616D01*
X25841Y-40633D01*
X25875Y-40650D01*
X25891Y-40666D01*
X25908Y-40700D01*
X25908Y-40733D01*
X25891Y-40766D01*
X25875Y-40783D01*
X25841Y-40800D01*
X25775Y-40816D01*
X25691Y-40816D01*
X25625Y-40800D01*
X25591Y-40783D01*
X25575Y-40766D01*
X25558Y-40733D01*
X25558Y-40500D02*
X25558Y-40283D01*
X25691Y-40400D01*
X25691Y-40350D01*
X25708Y-40316D01*
X25725Y-40300D01*
X25758Y-40283D01*
X25841Y-40283D01*
X25875Y-40300D01*
X25891Y-40316D01*
X25908Y-40350D01*
X25908Y-40450D01*
X25891Y-40483D01*
X25875Y-40500D01*
G54D10*
X26475Y-41764D02*
X26475Y-41935D01*
X26475Y-41850D02*
X26175Y-41850D01*
X26218Y-41878D01*
X26247Y-41907D01*
X26261Y-41935D01*
G54D15*
X19558Y-41500D02*
X19841Y-41500D01*
X19875Y-41483D01*
X19891Y-41466D01*
X19908Y-41433D01*
X19908Y-41366D01*
X19891Y-41333D01*
X19875Y-41316D01*
X19841Y-41300D01*
X19558Y-41300D01*
X19558Y-41166D02*
X19558Y-40950D01*
X19691Y-41066D01*
X19691Y-41016D01*
X19708Y-40983D01*
X19725Y-40966D01*
X19758Y-40950D01*
X19841Y-40950D01*
X19875Y-40966D01*
X19891Y-40983D01*
X19908Y-41016D01*
X19908Y-41116D01*
X19891Y-41150D01*
X19875Y-41166D01*
X19558Y-40733D02*
X19558Y-40700D01*
X19575Y-40666D01*
X19591Y-40650D01*
X19625Y-40633D01*
X19691Y-40616D01*
X19775Y-40616D01*
X19841Y-40633D01*
X19875Y-40650D01*
X19891Y-40666D01*
X19908Y-40700D01*
X19908Y-40733D01*
X19891Y-40766D01*
X19875Y-40783D01*
X19841Y-40800D01*
X19775Y-40816D01*
X19691Y-40816D01*
X19625Y-40800D01*
X19591Y-40783D01*
X19575Y-40766D01*
X19558Y-40733D01*
X19591Y-40483D02*
X19575Y-40466D01*
X19558Y-40433D01*
X19558Y-40350D01*
X19575Y-40316D01*
X19591Y-40300D01*
X19625Y-40283D01*
X19658Y-40283D01*
X19708Y-40300D01*
X19908Y-40500D01*
X19908Y-40283D01*
G54D10*
X20475Y-41764D02*
X20475Y-41935D01*
X20475Y-41850D02*
X20175Y-41850D01*
X20218Y-41878D01*
X20247Y-41907D01*
X20261Y-41935D01*
G54D15*
X13558Y-41500D02*
X13841Y-41500D01*
X13875Y-41483D01*
X13891Y-41466D01*
X13908Y-41433D01*
X13908Y-41366D01*
X13891Y-41333D01*
X13875Y-41316D01*
X13841Y-41300D01*
X13558Y-41300D01*
X13558Y-41166D02*
X13558Y-40950D01*
X13691Y-41066D01*
X13691Y-41016D01*
X13708Y-40983D01*
X13725Y-40966D01*
X13758Y-40950D01*
X13841Y-40950D01*
X13875Y-40966D01*
X13891Y-40983D01*
X13908Y-41016D01*
X13908Y-41116D01*
X13891Y-41150D01*
X13875Y-41166D01*
X13558Y-40733D02*
X13558Y-40700D01*
X13575Y-40666D01*
X13591Y-40650D01*
X13625Y-40633D01*
X13691Y-40616D01*
X13775Y-40616D01*
X13841Y-40633D01*
X13875Y-40650D01*
X13891Y-40666D01*
X13908Y-40700D01*
X13908Y-40733D01*
X13891Y-40766D01*
X13875Y-40783D01*
X13841Y-40800D01*
X13775Y-40816D01*
X13691Y-40816D01*
X13625Y-40800D01*
X13591Y-40783D01*
X13575Y-40766D01*
X13558Y-40733D01*
X13908Y-40283D02*
X13908Y-40483D01*
X13908Y-40383D02*
X13558Y-40383D01*
X13608Y-40416D01*
X13641Y-40450D01*
X13658Y-40483D01*
G54D10*
X14475Y-41764D02*
X14475Y-41935D01*
X14475Y-41850D02*
X14175Y-41850D01*
X14218Y-41878D01*
X14247Y-41907D01*
X14261Y-41935D01*
G54D15*
X55558Y-47500D02*
X55841Y-47500D01*
X55875Y-47483D01*
X55891Y-47466D01*
X55908Y-47433D01*
X55908Y-47366D01*
X55891Y-47333D01*
X55875Y-47316D01*
X55841Y-47300D01*
X55558Y-47300D01*
X55591Y-47150D02*
X55575Y-47133D01*
X55558Y-47100D01*
X55558Y-47016D01*
X55575Y-46983D01*
X55591Y-46966D01*
X55625Y-46950D01*
X55658Y-46950D01*
X55708Y-46966D01*
X55908Y-47166D01*
X55908Y-46950D01*
X55558Y-46733D02*
X55558Y-46700D01*
X55575Y-46666D01*
X55591Y-46650D01*
X55625Y-46633D01*
X55691Y-46616D01*
X55775Y-46616D01*
X55841Y-46633D01*
X55875Y-46650D01*
X55891Y-46666D01*
X55908Y-46700D01*
X55908Y-46733D01*
X55891Y-46766D01*
X55875Y-46783D01*
X55841Y-46800D01*
X55775Y-46816D01*
X55691Y-46816D01*
X55625Y-46800D01*
X55591Y-46783D01*
X55575Y-46766D01*
X55558Y-46733D01*
X55708Y-46416D02*
X55691Y-46450D01*
X55675Y-46466D01*
X55641Y-46483D01*
X55625Y-46483D01*
X55591Y-46466D01*
X55575Y-46450D01*
X55558Y-46416D01*
X55558Y-46350D01*
X55575Y-46316D01*
X55591Y-46300D01*
X55625Y-46283D01*
X55641Y-46283D01*
X55675Y-46300D01*
X55691Y-46316D01*
X55708Y-46350D01*
X55708Y-46416D01*
X55725Y-46450D01*
X55741Y-46466D01*
X55775Y-46483D01*
X55841Y-46483D01*
X55875Y-46466D01*
X55891Y-46450D01*
X55908Y-46416D01*
X55908Y-46350D01*
X55891Y-46316D01*
X55875Y-46300D01*
X55841Y-46283D01*
X55775Y-46283D01*
X55741Y-46300D01*
X55725Y-46316D01*
X55708Y-46350D01*
G54D10*
X56475Y-47764D02*
X56475Y-47935D01*
X56475Y-47850D02*
X56175Y-47850D01*
X56218Y-47878D01*
X56247Y-47907D01*
X56261Y-47935D01*
G54D15*
X49558Y-47500D02*
X49841Y-47500D01*
X49875Y-47483D01*
X49891Y-47466D01*
X49908Y-47433D01*
X49908Y-47366D01*
X49891Y-47333D01*
X49875Y-47316D01*
X49841Y-47300D01*
X49558Y-47300D01*
X49591Y-47150D02*
X49575Y-47133D01*
X49558Y-47100D01*
X49558Y-47016D01*
X49575Y-46983D01*
X49591Y-46966D01*
X49625Y-46950D01*
X49658Y-46950D01*
X49708Y-46966D01*
X49908Y-47166D01*
X49908Y-46950D01*
X49558Y-46733D02*
X49558Y-46700D01*
X49575Y-46666D01*
X49591Y-46650D01*
X49625Y-46633D01*
X49691Y-46616D01*
X49775Y-46616D01*
X49841Y-46633D01*
X49875Y-46650D01*
X49891Y-46666D01*
X49908Y-46700D01*
X49908Y-46733D01*
X49891Y-46766D01*
X49875Y-46783D01*
X49841Y-46800D01*
X49775Y-46816D01*
X49691Y-46816D01*
X49625Y-46800D01*
X49591Y-46783D01*
X49575Y-46766D01*
X49558Y-46733D01*
X49558Y-46500D02*
X49558Y-46266D01*
X49908Y-46416D01*
G54D10*
X50475Y-47764D02*
X50475Y-47935D01*
X50475Y-47850D02*
X50175Y-47850D01*
X50218Y-47878D01*
X50247Y-47907D01*
X50261Y-47935D01*
G54D15*
X43558Y-47500D02*
X43841Y-47500D01*
X43875Y-47483D01*
X43891Y-47466D01*
X43908Y-47433D01*
X43908Y-47366D01*
X43891Y-47333D01*
X43875Y-47316D01*
X43841Y-47300D01*
X43558Y-47300D01*
X43591Y-47150D02*
X43575Y-47133D01*
X43558Y-47100D01*
X43558Y-47016D01*
X43575Y-46983D01*
X43591Y-46966D01*
X43625Y-46950D01*
X43658Y-46950D01*
X43708Y-46966D01*
X43908Y-47166D01*
X43908Y-46950D01*
X43558Y-46733D02*
X43558Y-46700D01*
X43575Y-46666D01*
X43591Y-46650D01*
X43625Y-46633D01*
X43691Y-46616D01*
X43775Y-46616D01*
X43841Y-46633D01*
X43875Y-46650D01*
X43891Y-46666D01*
X43908Y-46700D01*
X43908Y-46733D01*
X43891Y-46766D01*
X43875Y-46783D01*
X43841Y-46800D01*
X43775Y-46816D01*
X43691Y-46816D01*
X43625Y-46800D01*
X43591Y-46783D01*
X43575Y-46766D01*
X43558Y-46733D01*
X43558Y-46316D02*
X43558Y-46383D01*
X43575Y-46416D01*
X43591Y-46433D01*
X43641Y-46466D01*
X43708Y-46483D01*
X43841Y-46483D01*
X43875Y-46466D01*
X43891Y-46450D01*
X43908Y-46416D01*
X43908Y-46350D01*
X43891Y-46316D01*
X43875Y-46300D01*
X43841Y-46283D01*
X43758Y-46283D01*
X43725Y-46300D01*
X43708Y-46316D01*
X43691Y-46350D01*
X43691Y-46416D01*
X43708Y-46450D01*
X43725Y-46466D01*
X43758Y-46483D01*
G54D10*
X44475Y-47764D02*
X44475Y-47935D01*
X44475Y-47850D02*
X44175Y-47850D01*
X44218Y-47878D01*
X44247Y-47907D01*
X44261Y-47935D01*
G54D15*
X37558Y-47500D02*
X37841Y-47500D01*
X37875Y-47483D01*
X37891Y-47466D01*
X37908Y-47433D01*
X37908Y-47366D01*
X37891Y-47333D01*
X37875Y-47316D01*
X37841Y-47300D01*
X37558Y-47300D01*
X37591Y-47150D02*
X37575Y-47133D01*
X37558Y-47100D01*
X37558Y-47016D01*
X37575Y-46983D01*
X37591Y-46966D01*
X37625Y-46950D01*
X37658Y-46950D01*
X37708Y-46966D01*
X37908Y-47166D01*
X37908Y-46950D01*
X37558Y-46733D02*
X37558Y-46700D01*
X37575Y-46666D01*
X37591Y-46650D01*
X37625Y-46633D01*
X37691Y-46616D01*
X37775Y-46616D01*
X37841Y-46633D01*
X37875Y-46650D01*
X37891Y-46666D01*
X37908Y-46700D01*
X37908Y-46733D01*
X37891Y-46766D01*
X37875Y-46783D01*
X37841Y-46800D01*
X37775Y-46816D01*
X37691Y-46816D01*
X37625Y-46800D01*
X37591Y-46783D01*
X37575Y-46766D01*
X37558Y-46733D01*
X37558Y-46300D02*
X37558Y-46466D01*
X37725Y-46483D01*
X37708Y-46466D01*
X37691Y-46433D01*
X37691Y-46350D01*
X37708Y-46316D01*
X37725Y-46300D01*
X37758Y-46283D01*
X37841Y-46283D01*
X37875Y-46300D01*
X37891Y-46316D01*
X37908Y-46350D01*
X37908Y-46433D01*
X37891Y-46466D01*
X37875Y-46483D01*
G54D10*
X38475Y-47764D02*
X38475Y-47935D01*
X38475Y-47850D02*
X38175Y-47850D01*
X38218Y-47878D01*
X38247Y-47907D01*
X38261Y-47935D01*
G54D15*
X31558Y-47500D02*
X31841Y-47500D01*
X31875Y-47483D01*
X31891Y-47466D01*
X31908Y-47433D01*
X31908Y-47366D01*
X31891Y-47333D01*
X31875Y-47316D01*
X31841Y-47300D01*
X31558Y-47300D01*
X31591Y-47150D02*
X31575Y-47133D01*
X31558Y-47100D01*
X31558Y-47016D01*
X31575Y-46983D01*
X31591Y-46966D01*
X31625Y-46950D01*
X31658Y-46950D01*
X31708Y-46966D01*
X31908Y-47166D01*
X31908Y-46950D01*
X31558Y-46733D02*
X31558Y-46700D01*
X31575Y-46666D01*
X31591Y-46650D01*
X31625Y-46633D01*
X31691Y-46616D01*
X31775Y-46616D01*
X31841Y-46633D01*
X31875Y-46650D01*
X31891Y-46666D01*
X31908Y-46700D01*
X31908Y-46733D01*
X31891Y-46766D01*
X31875Y-46783D01*
X31841Y-46800D01*
X31775Y-46816D01*
X31691Y-46816D01*
X31625Y-46800D01*
X31591Y-46783D01*
X31575Y-46766D01*
X31558Y-46733D01*
X31675Y-46316D02*
X31908Y-46316D01*
X31541Y-46400D02*
X31791Y-46483D01*
X31791Y-46266D01*
G54D10*
X32475Y-47764D02*
X32475Y-47935D01*
X32475Y-47850D02*
X32175Y-47850D01*
X32218Y-47878D01*
X32247Y-47907D01*
X32261Y-47935D01*
G54D15*
X25558Y-47500D02*
X25841Y-47500D01*
X25875Y-47483D01*
X25891Y-47466D01*
X25908Y-47433D01*
X25908Y-47366D01*
X25891Y-47333D01*
X25875Y-47316D01*
X25841Y-47300D01*
X25558Y-47300D01*
X25591Y-47150D02*
X25575Y-47133D01*
X25558Y-47100D01*
X25558Y-47016D01*
X25575Y-46983D01*
X25591Y-46966D01*
X25625Y-46950D01*
X25658Y-46950D01*
X25708Y-46966D01*
X25908Y-47166D01*
X25908Y-46950D01*
X25558Y-46733D02*
X25558Y-46700D01*
X25575Y-46666D01*
X25591Y-46650D01*
X25625Y-46633D01*
X25691Y-46616D01*
X25775Y-46616D01*
X25841Y-46633D01*
X25875Y-46650D01*
X25891Y-46666D01*
X25908Y-46700D01*
X25908Y-46733D01*
X25891Y-46766D01*
X25875Y-46783D01*
X25841Y-46800D01*
X25775Y-46816D01*
X25691Y-46816D01*
X25625Y-46800D01*
X25591Y-46783D01*
X25575Y-46766D01*
X25558Y-46733D01*
X25558Y-46500D02*
X25558Y-46283D01*
X25691Y-46400D01*
X25691Y-46350D01*
X25708Y-46316D01*
X25725Y-46300D01*
X25758Y-46283D01*
X25841Y-46283D01*
X25875Y-46300D01*
X25891Y-46316D01*
X25908Y-46350D01*
X25908Y-46450D01*
X25891Y-46483D01*
X25875Y-46500D01*
G54D10*
X26475Y-47764D02*
X26475Y-47935D01*
X26475Y-47850D02*
X26175Y-47850D01*
X26218Y-47878D01*
X26247Y-47907D01*
X26261Y-47935D01*
G54D15*
X19558Y-47500D02*
X19841Y-47500D01*
X19875Y-47483D01*
X19891Y-47466D01*
X19908Y-47433D01*
X19908Y-47366D01*
X19891Y-47333D01*
X19875Y-47316D01*
X19841Y-47300D01*
X19558Y-47300D01*
X19591Y-47150D02*
X19575Y-47133D01*
X19558Y-47100D01*
X19558Y-47016D01*
X19575Y-46983D01*
X19591Y-46966D01*
X19625Y-46950D01*
X19658Y-46950D01*
X19708Y-46966D01*
X19908Y-47166D01*
X19908Y-46950D01*
X19558Y-46733D02*
X19558Y-46700D01*
X19575Y-46666D01*
X19591Y-46650D01*
X19625Y-46633D01*
X19691Y-46616D01*
X19775Y-46616D01*
X19841Y-46633D01*
X19875Y-46650D01*
X19891Y-46666D01*
X19908Y-46700D01*
X19908Y-46733D01*
X19891Y-46766D01*
X19875Y-46783D01*
X19841Y-46800D01*
X19775Y-46816D01*
X19691Y-46816D01*
X19625Y-46800D01*
X19591Y-46783D01*
X19575Y-46766D01*
X19558Y-46733D01*
X19591Y-46483D02*
X19575Y-46466D01*
X19558Y-46433D01*
X19558Y-46350D01*
X19575Y-46316D01*
X19591Y-46300D01*
X19625Y-46283D01*
X19658Y-46283D01*
X19708Y-46300D01*
X19908Y-46500D01*
X19908Y-46283D01*
G54D10*
X20475Y-47764D02*
X20475Y-47935D01*
X20475Y-47850D02*
X20175Y-47850D01*
X20218Y-47878D01*
X20247Y-47907D01*
X20261Y-47935D01*
G54D15*
X13558Y-47500D02*
X13841Y-47500D01*
X13875Y-47483D01*
X13891Y-47466D01*
X13908Y-47433D01*
X13908Y-47366D01*
X13891Y-47333D01*
X13875Y-47316D01*
X13841Y-47300D01*
X13558Y-47300D01*
X13591Y-47150D02*
X13575Y-47133D01*
X13558Y-47100D01*
X13558Y-47016D01*
X13575Y-46983D01*
X13591Y-46966D01*
X13625Y-46950D01*
X13658Y-46950D01*
X13708Y-46966D01*
X13908Y-47166D01*
X13908Y-46950D01*
X13558Y-46733D02*
X13558Y-46700D01*
X13575Y-46666D01*
X13591Y-46650D01*
X13625Y-46633D01*
X13691Y-46616D01*
X13775Y-46616D01*
X13841Y-46633D01*
X13875Y-46650D01*
X13891Y-46666D01*
X13908Y-46700D01*
X13908Y-46733D01*
X13891Y-46766D01*
X13875Y-46783D01*
X13841Y-46800D01*
X13775Y-46816D01*
X13691Y-46816D01*
X13625Y-46800D01*
X13591Y-46783D01*
X13575Y-46766D01*
X13558Y-46733D01*
X13908Y-46283D02*
X13908Y-46483D01*
X13908Y-46383D02*
X13558Y-46383D01*
X13608Y-46416D01*
X13641Y-46450D01*
X13658Y-46483D01*
G54D10*
X14475Y-47764D02*
X14475Y-47935D01*
X14475Y-47850D02*
X14175Y-47850D01*
X14218Y-47878D01*
X14247Y-47907D01*
X14261Y-47935D01*
G54D15*
X55558Y-53500D02*
X55841Y-53500D01*
X55875Y-53483D01*
X55891Y-53466D01*
X55908Y-53433D01*
X55908Y-53366D01*
X55891Y-53333D01*
X55875Y-53316D01*
X55841Y-53300D01*
X55558Y-53300D01*
X55908Y-52950D02*
X55908Y-53150D01*
X55908Y-53050D02*
X55558Y-53050D01*
X55608Y-53083D01*
X55641Y-53116D01*
X55658Y-53150D01*
X55558Y-52733D02*
X55558Y-52700D01*
X55575Y-52666D01*
X55591Y-52650D01*
X55625Y-52633D01*
X55691Y-52616D01*
X55775Y-52616D01*
X55841Y-52633D01*
X55875Y-52650D01*
X55891Y-52666D01*
X55908Y-52700D01*
X55908Y-52733D01*
X55891Y-52766D01*
X55875Y-52783D01*
X55841Y-52800D01*
X55775Y-52816D01*
X55691Y-52816D01*
X55625Y-52800D01*
X55591Y-52783D01*
X55575Y-52766D01*
X55558Y-52733D01*
X55708Y-52416D02*
X55691Y-52450D01*
X55675Y-52466D01*
X55641Y-52483D01*
X55625Y-52483D01*
X55591Y-52466D01*
X55575Y-52450D01*
X55558Y-52416D01*
X55558Y-52350D01*
X55575Y-52316D01*
X55591Y-52300D01*
X55625Y-52283D01*
X55641Y-52283D01*
X55675Y-52300D01*
X55691Y-52316D01*
X55708Y-52350D01*
X55708Y-52416D01*
X55725Y-52450D01*
X55741Y-52466D01*
X55775Y-52483D01*
X55841Y-52483D01*
X55875Y-52466D01*
X55891Y-52450D01*
X55908Y-52416D01*
X55908Y-52350D01*
X55891Y-52316D01*
X55875Y-52300D01*
X55841Y-52283D01*
X55775Y-52283D01*
X55741Y-52300D01*
X55725Y-52316D01*
X55708Y-52350D01*
G54D10*
X56475Y-53764D02*
X56475Y-53935D01*
X56475Y-53850D02*
X56175Y-53850D01*
X56218Y-53878D01*
X56247Y-53907D01*
X56261Y-53935D01*
G54D15*
X49558Y-53500D02*
X49841Y-53500D01*
X49875Y-53483D01*
X49891Y-53466D01*
X49908Y-53433D01*
X49908Y-53366D01*
X49891Y-53333D01*
X49875Y-53316D01*
X49841Y-53300D01*
X49558Y-53300D01*
X49908Y-52950D02*
X49908Y-53150D01*
X49908Y-53050D02*
X49558Y-53050D01*
X49608Y-53083D01*
X49641Y-53116D01*
X49658Y-53150D01*
X49558Y-52733D02*
X49558Y-52700D01*
X49575Y-52666D01*
X49591Y-52650D01*
X49625Y-52633D01*
X49691Y-52616D01*
X49775Y-52616D01*
X49841Y-52633D01*
X49875Y-52650D01*
X49891Y-52666D01*
X49908Y-52700D01*
X49908Y-52733D01*
X49891Y-52766D01*
X49875Y-52783D01*
X49841Y-52800D01*
X49775Y-52816D01*
X49691Y-52816D01*
X49625Y-52800D01*
X49591Y-52783D01*
X49575Y-52766D01*
X49558Y-52733D01*
X49558Y-52500D02*
X49558Y-52266D01*
X49908Y-52416D01*
G54D10*
X50475Y-53764D02*
X50475Y-53935D01*
X50475Y-53850D02*
X50175Y-53850D01*
X50218Y-53878D01*
X50247Y-53907D01*
X50261Y-53935D01*
G54D15*
X43558Y-53500D02*
X43841Y-53500D01*
X43875Y-53483D01*
X43891Y-53466D01*
X43908Y-53433D01*
X43908Y-53366D01*
X43891Y-53333D01*
X43875Y-53316D01*
X43841Y-53300D01*
X43558Y-53300D01*
X43908Y-52950D02*
X43908Y-53150D01*
X43908Y-53050D02*
X43558Y-53050D01*
X43608Y-53083D01*
X43641Y-53116D01*
X43658Y-53150D01*
X43558Y-52733D02*
X43558Y-52700D01*
X43575Y-52666D01*
X43591Y-52650D01*
X43625Y-52633D01*
X43691Y-52616D01*
X43775Y-52616D01*
X43841Y-52633D01*
X43875Y-52650D01*
X43891Y-52666D01*
X43908Y-52700D01*
X43908Y-52733D01*
X43891Y-52766D01*
X43875Y-52783D01*
X43841Y-52800D01*
X43775Y-52816D01*
X43691Y-52816D01*
X43625Y-52800D01*
X43591Y-52783D01*
X43575Y-52766D01*
X43558Y-52733D01*
X43558Y-52316D02*
X43558Y-52383D01*
X43575Y-52416D01*
X43591Y-52433D01*
X43641Y-52466D01*
X43708Y-52483D01*
X43841Y-52483D01*
X43875Y-52466D01*
X43891Y-52450D01*
X43908Y-52416D01*
X43908Y-52350D01*
X43891Y-52316D01*
X43875Y-52300D01*
X43841Y-52283D01*
X43758Y-52283D01*
X43725Y-52300D01*
X43708Y-52316D01*
X43691Y-52350D01*
X43691Y-52416D01*
X43708Y-52450D01*
X43725Y-52466D01*
X43758Y-52483D01*
G54D10*
X44475Y-53764D02*
X44475Y-53935D01*
X44475Y-53850D02*
X44175Y-53850D01*
X44218Y-53878D01*
X44247Y-53907D01*
X44261Y-53935D01*
G54D15*
X37558Y-53500D02*
X37841Y-53500D01*
X37875Y-53483D01*
X37891Y-53466D01*
X37908Y-53433D01*
X37908Y-53366D01*
X37891Y-53333D01*
X37875Y-53316D01*
X37841Y-53300D01*
X37558Y-53300D01*
X37908Y-52950D02*
X37908Y-53150D01*
X37908Y-53050D02*
X37558Y-53050D01*
X37608Y-53083D01*
X37641Y-53116D01*
X37658Y-53150D01*
X37558Y-52733D02*
X37558Y-52700D01*
X37575Y-52666D01*
X37591Y-52650D01*
X37625Y-52633D01*
X37691Y-52616D01*
X37775Y-52616D01*
X37841Y-52633D01*
X37875Y-52650D01*
X37891Y-52666D01*
X37908Y-52700D01*
X37908Y-52733D01*
X37891Y-52766D01*
X37875Y-52783D01*
X37841Y-52800D01*
X37775Y-52816D01*
X37691Y-52816D01*
X37625Y-52800D01*
X37591Y-52783D01*
X37575Y-52766D01*
X37558Y-52733D01*
X37558Y-52300D02*
X37558Y-52466D01*
X37725Y-52483D01*
X37708Y-52466D01*
X37691Y-52433D01*
X37691Y-52350D01*
X37708Y-52316D01*
X37725Y-52300D01*
X37758Y-52283D01*
X37841Y-52283D01*
X37875Y-52300D01*
X37891Y-52316D01*
X37908Y-52350D01*
X37908Y-52433D01*
X37891Y-52466D01*
X37875Y-52483D01*
G54D10*
X38475Y-53764D02*
X38475Y-53935D01*
X38475Y-53850D02*
X38175Y-53850D01*
X38218Y-53878D01*
X38247Y-53907D01*
X38261Y-53935D01*
G54D15*
X31558Y-53500D02*
X31841Y-53500D01*
X31875Y-53483D01*
X31891Y-53466D01*
X31908Y-53433D01*
X31908Y-53366D01*
X31891Y-53333D01*
X31875Y-53316D01*
X31841Y-53300D01*
X31558Y-53300D01*
X31908Y-52950D02*
X31908Y-53150D01*
X31908Y-53050D02*
X31558Y-53050D01*
X31608Y-53083D01*
X31641Y-53116D01*
X31658Y-53150D01*
X31558Y-52733D02*
X31558Y-52700D01*
X31575Y-52666D01*
X31591Y-52650D01*
X31625Y-52633D01*
X31691Y-52616D01*
X31775Y-52616D01*
X31841Y-52633D01*
X31875Y-52650D01*
X31891Y-52666D01*
X31908Y-52700D01*
X31908Y-52733D01*
X31891Y-52766D01*
X31875Y-52783D01*
X31841Y-52800D01*
X31775Y-52816D01*
X31691Y-52816D01*
X31625Y-52800D01*
X31591Y-52783D01*
X31575Y-52766D01*
X31558Y-52733D01*
X31675Y-52316D02*
X31908Y-52316D01*
X31541Y-52400D02*
X31791Y-52483D01*
X31791Y-52266D01*
G54D10*
X32475Y-53764D02*
X32475Y-53935D01*
X32475Y-53850D02*
X32175Y-53850D01*
X32218Y-53878D01*
X32247Y-53907D01*
X32261Y-53935D01*
G54D15*
X25558Y-53500D02*
X25841Y-53500D01*
X25875Y-53483D01*
X25891Y-53466D01*
X25908Y-53433D01*
X25908Y-53366D01*
X25891Y-53333D01*
X25875Y-53316D01*
X25841Y-53300D01*
X25558Y-53300D01*
X25908Y-52950D02*
X25908Y-53150D01*
X25908Y-53050D02*
X25558Y-53050D01*
X25608Y-53083D01*
X25641Y-53116D01*
X25658Y-53150D01*
X25558Y-52733D02*
X25558Y-52700D01*
X25575Y-52666D01*
X25591Y-52650D01*
X25625Y-52633D01*
X25691Y-52616D01*
X25775Y-52616D01*
X25841Y-52633D01*
X25875Y-52650D01*
X25891Y-52666D01*
X25908Y-52700D01*
X25908Y-52733D01*
X25891Y-52766D01*
X25875Y-52783D01*
X25841Y-52800D01*
X25775Y-52816D01*
X25691Y-52816D01*
X25625Y-52800D01*
X25591Y-52783D01*
X25575Y-52766D01*
X25558Y-52733D01*
X25558Y-52500D02*
X25558Y-52283D01*
X25691Y-52400D01*
X25691Y-52350D01*
X25708Y-52316D01*
X25725Y-52300D01*
X25758Y-52283D01*
X25841Y-52283D01*
X25875Y-52300D01*
X25891Y-52316D01*
X25908Y-52350D01*
X25908Y-52450D01*
X25891Y-52483D01*
X25875Y-52500D01*
G54D10*
X26475Y-53764D02*
X26475Y-53935D01*
X26475Y-53850D02*
X26175Y-53850D01*
X26218Y-53878D01*
X26247Y-53907D01*
X26261Y-53935D01*
G54D15*
X19558Y-53500D02*
X19841Y-53500D01*
X19875Y-53483D01*
X19891Y-53466D01*
X19908Y-53433D01*
X19908Y-53366D01*
X19891Y-53333D01*
X19875Y-53316D01*
X19841Y-53300D01*
X19558Y-53300D01*
X19908Y-52950D02*
X19908Y-53150D01*
X19908Y-53050D02*
X19558Y-53050D01*
X19608Y-53083D01*
X19641Y-53116D01*
X19658Y-53150D01*
X19558Y-52733D02*
X19558Y-52700D01*
X19575Y-52666D01*
X19591Y-52650D01*
X19625Y-52633D01*
X19691Y-52616D01*
X19775Y-52616D01*
X19841Y-52633D01*
X19875Y-52650D01*
X19891Y-52666D01*
X19908Y-52700D01*
X19908Y-52733D01*
X19891Y-52766D01*
X19875Y-52783D01*
X19841Y-52800D01*
X19775Y-52816D01*
X19691Y-52816D01*
X19625Y-52800D01*
X19591Y-52783D01*
X19575Y-52766D01*
X19558Y-52733D01*
X19591Y-52483D02*
X19575Y-52466D01*
X19558Y-52433D01*
X19558Y-52350D01*
X19575Y-52316D01*
X19591Y-52300D01*
X19625Y-52283D01*
X19658Y-52283D01*
X19708Y-52300D01*
X19908Y-52500D01*
X19908Y-52283D01*
G54D10*
X20475Y-53764D02*
X20475Y-53935D01*
X20475Y-53850D02*
X20175Y-53850D01*
X20218Y-53878D01*
X20247Y-53907D01*
X20261Y-53935D01*
G54D15*
X13558Y-53500D02*
X13841Y-53500D01*
X13875Y-53483D01*
X13891Y-53466D01*
X13908Y-53433D01*
X13908Y-53366D01*
X13891Y-53333D01*
X13875Y-53316D01*
X13841Y-53300D01*
X13558Y-53300D01*
X13908Y-52950D02*
X13908Y-53150D01*
X13908Y-53050D02*
X13558Y-53050D01*
X13608Y-53083D01*
X13641Y-53116D01*
X13658Y-53150D01*
X13558Y-52733D02*
X13558Y-52700D01*
X13575Y-52666D01*
X13591Y-52650D01*
X13625Y-52633D01*
X13691Y-52616D01*
X13775Y-52616D01*
X13841Y-52633D01*
X13875Y-52650D01*
X13891Y-52666D01*
X13908Y-52700D01*
X13908Y-52733D01*
X13891Y-52766D01*
X13875Y-52783D01*
X13841Y-52800D01*
X13775Y-52816D01*
X13691Y-52816D01*
X13625Y-52800D01*
X13591Y-52783D01*
X13575Y-52766D01*
X13558Y-52733D01*
X13908Y-52283D02*
X13908Y-52483D01*
X13908Y-52383D02*
X13558Y-52383D01*
X13608Y-52416D01*
X13641Y-52450D01*
X13658Y-52483D01*
G54D10*
X14475Y-53764D02*
X14475Y-53935D01*
X14475Y-53850D02*
X14175Y-53850D01*
X14218Y-53878D01*
X14247Y-53907D01*
X14261Y-53935D01*
G54D15*
X55558Y-11500D02*
X55841Y-11500D01*
X55875Y-11483D01*
X55891Y-11466D01*
X55908Y-11433D01*
X55908Y-11366D01*
X55891Y-11333D01*
X55875Y-11316D01*
X55841Y-11300D01*
X55558Y-11300D01*
X55708Y-11083D02*
X55691Y-11116D01*
X55675Y-11133D01*
X55641Y-11150D01*
X55625Y-11150D01*
X55591Y-11133D01*
X55575Y-11116D01*
X55558Y-11083D01*
X55558Y-11016D01*
X55575Y-10983D01*
X55591Y-10966D01*
X55625Y-10950D01*
X55641Y-10950D01*
X55675Y-10966D01*
X55691Y-10983D01*
X55708Y-11016D01*
X55708Y-11083D01*
X55725Y-11116D01*
X55741Y-11133D01*
X55775Y-11150D01*
X55841Y-11150D01*
X55875Y-11133D01*
X55891Y-11116D01*
X55908Y-11083D01*
X55908Y-11016D01*
X55891Y-10983D01*
X55875Y-10966D01*
X55841Y-10950D01*
X55775Y-10950D01*
X55741Y-10966D01*
X55725Y-10983D01*
X55708Y-11016D01*
X55558Y-10733D02*
X55558Y-10700D01*
X55575Y-10666D01*
X55591Y-10650D01*
X55625Y-10633D01*
X55691Y-10616D01*
X55775Y-10616D01*
X55841Y-10633D01*
X55875Y-10650D01*
X55891Y-10666D01*
X55908Y-10700D01*
X55908Y-10733D01*
X55891Y-10766D01*
X55875Y-10783D01*
X55841Y-10800D01*
X55775Y-10816D01*
X55691Y-10816D01*
X55625Y-10800D01*
X55591Y-10783D01*
X55575Y-10766D01*
X55558Y-10733D01*
X55708Y-10416D02*
X55691Y-10450D01*
X55675Y-10466D01*
X55641Y-10483D01*
X55625Y-10483D01*
X55591Y-10466D01*
X55575Y-10450D01*
X55558Y-10416D01*
X55558Y-10350D01*
X55575Y-10316D01*
X55591Y-10300D01*
X55625Y-10283D01*
X55641Y-10283D01*
X55675Y-10300D01*
X55691Y-10316D01*
X55708Y-10350D01*
X55708Y-10416D01*
X55725Y-10450D01*
X55741Y-10466D01*
X55775Y-10483D01*
X55841Y-10483D01*
X55875Y-10466D01*
X55891Y-10450D01*
X55908Y-10416D01*
X55908Y-10350D01*
X55891Y-10316D01*
X55875Y-10300D01*
X55841Y-10283D01*
X55775Y-10283D01*
X55741Y-10300D01*
X55725Y-10316D01*
X55708Y-10350D01*
G54D10*
X56475Y-11764D02*
X56475Y-11935D01*
X56475Y-11850D02*
X56175Y-11850D01*
X56218Y-11878D01*
X56247Y-11907D01*
X56261Y-11935D01*
G54D15*
X49558Y-11500D02*
X49841Y-11500D01*
X49875Y-11483D01*
X49891Y-11466D01*
X49908Y-11433D01*
X49908Y-11366D01*
X49891Y-11333D01*
X49875Y-11316D01*
X49841Y-11300D01*
X49558Y-11300D01*
X49708Y-11083D02*
X49691Y-11116D01*
X49675Y-11133D01*
X49641Y-11150D01*
X49625Y-11150D01*
X49591Y-11133D01*
X49575Y-11116D01*
X49558Y-11083D01*
X49558Y-11016D01*
X49575Y-10983D01*
X49591Y-10966D01*
X49625Y-10950D01*
X49641Y-10950D01*
X49675Y-10966D01*
X49691Y-10983D01*
X49708Y-11016D01*
X49708Y-11083D01*
X49725Y-11116D01*
X49741Y-11133D01*
X49775Y-11150D01*
X49841Y-11150D01*
X49875Y-11133D01*
X49891Y-11116D01*
X49908Y-11083D01*
X49908Y-11016D01*
X49891Y-10983D01*
X49875Y-10966D01*
X49841Y-10950D01*
X49775Y-10950D01*
X49741Y-10966D01*
X49725Y-10983D01*
X49708Y-11016D01*
X49558Y-10733D02*
X49558Y-10700D01*
X49575Y-10666D01*
X49591Y-10650D01*
X49625Y-10633D01*
X49691Y-10616D01*
X49775Y-10616D01*
X49841Y-10633D01*
X49875Y-10650D01*
X49891Y-10666D01*
X49908Y-10700D01*
X49908Y-10733D01*
X49891Y-10766D01*
X49875Y-10783D01*
X49841Y-10800D01*
X49775Y-10816D01*
X49691Y-10816D01*
X49625Y-10800D01*
X49591Y-10783D01*
X49575Y-10766D01*
X49558Y-10733D01*
X49558Y-10500D02*
X49558Y-10266D01*
X49908Y-10416D01*
G54D10*
X50475Y-11764D02*
X50475Y-11935D01*
X50475Y-11850D02*
X50175Y-11850D01*
X50218Y-11878D01*
X50247Y-11907D01*
X50261Y-11935D01*
G54D15*
X43558Y-11500D02*
X43841Y-11500D01*
X43875Y-11483D01*
X43891Y-11466D01*
X43908Y-11433D01*
X43908Y-11366D01*
X43891Y-11333D01*
X43875Y-11316D01*
X43841Y-11300D01*
X43558Y-11300D01*
X43708Y-11083D02*
X43691Y-11116D01*
X43675Y-11133D01*
X43641Y-11150D01*
X43625Y-11150D01*
X43591Y-11133D01*
X43575Y-11116D01*
X43558Y-11083D01*
X43558Y-11016D01*
X43575Y-10983D01*
X43591Y-10966D01*
X43625Y-10950D01*
X43641Y-10950D01*
X43675Y-10966D01*
X43691Y-10983D01*
X43708Y-11016D01*
X43708Y-11083D01*
X43725Y-11116D01*
X43741Y-11133D01*
X43775Y-11150D01*
X43841Y-11150D01*
X43875Y-11133D01*
X43891Y-11116D01*
X43908Y-11083D01*
X43908Y-11016D01*
X43891Y-10983D01*
X43875Y-10966D01*
X43841Y-10950D01*
X43775Y-10950D01*
X43741Y-10966D01*
X43725Y-10983D01*
X43708Y-11016D01*
X43558Y-10733D02*
X43558Y-10700D01*
X43575Y-10666D01*
X43591Y-10650D01*
X43625Y-10633D01*
X43691Y-10616D01*
X43775Y-10616D01*
X43841Y-10633D01*
X43875Y-10650D01*
X43891Y-10666D01*
X43908Y-10700D01*
X43908Y-10733D01*
X43891Y-10766D01*
X43875Y-10783D01*
X43841Y-10800D01*
X43775Y-10816D01*
X43691Y-10816D01*
X43625Y-10800D01*
X43591Y-10783D01*
X43575Y-10766D01*
X43558Y-10733D01*
X43558Y-10316D02*
X43558Y-10383D01*
X43575Y-10416D01*
X43591Y-10433D01*
X43641Y-10466D01*
X43708Y-10483D01*
X43841Y-10483D01*
X43875Y-10466D01*
X43891Y-10450D01*
X43908Y-10416D01*
X43908Y-10350D01*
X43891Y-10316D01*
X43875Y-10300D01*
X43841Y-10283D01*
X43758Y-10283D01*
X43725Y-10300D01*
X43708Y-10316D01*
X43691Y-10350D01*
X43691Y-10416D01*
X43708Y-10450D01*
X43725Y-10466D01*
X43758Y-10483D01*
G54D10*
X44475Y-11764D02*
X44475Y-11935D01*
X44475Y-11850D02*
X44175Y-11850D01*
X44218Y-11878D01*
X44247Y-11907D01*
X44261Y-11935D01*
G54D15*
X37558Y-11500D02*
X37841Y-11500D01*
X37875Y-11483D01*
X37891Y-11466D01*
X37908Y-11433D01*
X37908Y-11366D01*
X37891Y-11333D01*
X37875Y-11316D01*
X37841Y-11300D01*
X37558Y-11300D01*
X37708Y-11083D02*
X37691Y-11116D01*
X37675Y-11133D01*
X37641Y-11150D01*
X37625Y-11150D01*
X37591Y-11133D01*
X37575Y-11116D01*
X37558Y-11083D01*
X37558Y-11016D01*
X37575Y-10983D01*
X37591Y-10966D01*
X37625Y-10950D01*
X37641Y-10950D01*
X37675Y-10966D01*
X37691Y-10983D01*
X37708Y-11016D01*
X37708Y-11083D01*
X37725Y-11116D01*
X37741Y-11133D01*
X37775Y-11150D01*
X37841Y-11150D01*
X37875Y-11133D01*
X37891Y-11116D01*
X37908Y-11083D01*
X37908Y-11016D01*
X37891Y-10983D01*
X37875Y-10966D01*
X37841Y-10950D01*
X37775Y-10950D01*
X37741Y-10966D01*
X37725Y-10983D01*
X37708Y-11016D01*
X37558Y-10733D02*
X37558Y-10700D01*
X37575Y-10666D01*
X37591Y-10650D01*
X37625Y-10633D01*
X37691Y-10616D01*
X37775Y-10616D01*
X37841Y-10633D01*
X37875Y-10650D01*
X37891Y-10666D01*
X37908Y-10700D01*
X37908Y-10733D01*
X37891Y-10766D01*
X37875Y-10783D01*
X37841Y-10800D01*
X37775Y-10816D01*
X37691Y-10816D01*
X37625Y-10800D01*
X37591Y-10783D01*
X37575Y-10766D01*
X37558Y-10733D01*
X37558Y-10300D02*
X37558Y-10466D01*
X37725Y-10483D01*
X37708Y-10466D01*
X37691Y-10433D01*
X37691Y-10350D01*
X37708Y-10316D01*
X37725Y-10300D01*
X37758Y-10283D01*
X37841Y-10283D01*
X37875Y-10300D01*
X37891Y-10316D01*
X37908Y-10350D01*
X37908Y-10433D01*
X37891Y-10466D01*
X37875Y-10483D01*
G54D10*
X38475Y-11764D02*
X38475Y-11935D01*
X38475Y-11850D02*
X38175Y-11850D01*
X38218Y-11878D01*
X38247Y-11907D01*
X38261Y-11935D01*
G54D15*
X31558Y-11500D02*
X31841Y-11500D01*
X31875Y-11483D01*
X31891Y-11466D01*
X31908Y-11433D01*
X31908Y-11366D01*
X31891Y-11333D01*
X31875Y-11316D01*
X31841Y-11300D01*
X31558Y-11300D01*
X31708Y-11083D02*
X31691Y-11116D01*
X31675Y-11133D01*
X31641Y-11150D01*
X31625Y-11150D01*
X31591Y-11133D01*
X31575Y-11116D01*
X31558Y-11083D01*
X31558Y-11016D01*
X31575Y-10983D01*
X31591Y-10966D01*
X31625Y-10950D01*
X31641Y-10950D01*
X31675Y-10966D01*
X31691Y-10983D01*
X31708Y-11016D01*
X31708Y-11083D01*
X31725Y-11116D01*
X31741Y-11133D01*
X31775Y-11150D01*
X31841Y-11150D01*
X31875Y-11133D01*
X31891Y-11116D01*
X31908Y-11083D01*
X31908Y-11016D01*
X31891Y-10983D01*
X31875Y-10966D01*
X31841Y-10950D01*
X31775Y-10950D01*
X31741Y-10966D01*
X31725Y-10983D01*
X31708Y-11016D01*
X31558Y-10733D02*
X31558Y-10700D01*
X31575Y-10666D01*
X31591Y-10650D01*
X31625Y-10633D01*
X31691Y-10616D01*
X31775Y-10616D01*
X31841Y-10633D01*
X31875Y-10650D01*
X31891Y-10666D01*
X31908Y-10700D01*
X31908Y-10733D01*
X31891Y-10766D01*
X31875Y-10783D01*
X31841Y-10800D01*
X31775Y-10816D01*
X31691Y-10816D01*
X31625Y-10800D01*
X31591Y-10783D01*
X31575Y-10766D01*
X31558Y-10733D01*
X31675Y-10316D02*
X31908Y-10316D01*
X31541Y-10400D02*
X31791Y-10483D01*
X31791Y-10266D01*
G54D10*
X32475Y-11764D02*
X32475Y-11935D01*
X32475Y-11850D02*
X32175Y-11850D01*
X32218Y-11878D01*
X32247Y-11907D01*
X32261Y-11935D01*
G54D15*
X25558Y-11500D02*
X25841Y-11500D01*
X25875Y-11483D01*
X25891Y-11466D01*
X25908Y-11433D01*
X25908Y-11366D01*
X25891Y-11333D01*
X25875Y-11316D01*
X25841Y-11300D01*
X25558Y-11300D01*
X25708Y-11083D02*
X25691Y-11116D01*
X25675Y-11133D01*
X25641Y-11150D01*
X25625Y-11150D01*
X25591Y-11133D01*
X25575Y-11116D01*
X25558Y-11083D01*
X25558Y-11016D01*
X25575Y-10983D01*
X25591Y-10966D01*
X25625Y-10950D01*
X25641Y-10950D01*
X25675Y-10966D01*
X25691Y-10983D01*
X25708Y-11016D01*
X25708Y-11083D01*
X25725Y-11116D01*
X25741Y-11133D01*
X25775Y-11150D01*
X25841Y-11150D01*
X25875Y-11133D01*
X25891Y-11116D01*
X25908Y-11083D01*
X25908Y-11016D01*
X25891Y-10983D01*
X25875Y-10966D01*
X25841Y-10950D01*
X25775Y-10950D01*
X25741Y-10966D01*
X25725Y-10983D01*
X25708Y-11016D01*
X25558Y-10733D02*
X25558Y-10700D01*
X25575Y-10666D01*
X25591Y-10650D01*
X25625Y-10633D01*
X25691Y-10616D01*
X25775Y-10616D01*
X25841Y-10633D01*
X25875Y-10650D01*
X25891Y-10666D01*
X25908Y-10700D01*
X25908Y-10733D01*
X25891Y-10766D01*
X25875Y-10783D01*
X25841Y-10800D01*
X25775Y-10816D01*
X25691Y-10816D01*
X25625Y-10800D01*
X25591Y-10783D01*
X25575Y-10766D01*
X25558Y-10733D01*
X25558Y-10500D02*
X25558Y-10283D01*
X25691Y-10400D01*
X25691Y-10350D01*
X25708Y-10316D01*
X25725Y-10300D01*
X25758Y-10283D01*
X25841Y-10283D01*
X25875Y-10300D01*
X25891Y-10316D01*
X25908Y-10350D01*
X25908Y-10450D01*
X25891Y-10483D01*
X25875Y-10500D01*
G54D10*
X26475Y-11764D02*
X26475Y-11935D01*
X26475Y-11850D02*
X26175Y-11850D01*
X26218Y-11878D01*
X26247Y-11907D01*
X26261Y-11935D01*
G54D15*
X13558Y-11500D02*
X13841Y-11500D01*
X13875Y-11483D01*
X13891Y-11466D01*
X13908Y-11433D01*
X13908Y-11366D01*
X13891Y-11333D01*
X13875Y-11316D01*
X13841Y-11300D01*
X13558Y-11300D01*
X13708Y-11083D02*
X13691Y-11116D01*
X13675Y-11133D01*
X13641Y-11150D01*
X13625Y-11150D01*
X13591Y-11133D01*
X13575Y-11116D01*
X13558Y-11083D01*
X13558Y-11016D01*
X13575Y-10983D01*
X13591Y-10966D01*
X13625Y-10950D01*
X13641Y-10950D01*
X13675Y-10966D01*
X13691Y-10983D01*
X13708Y-11016D01*
X13708Y-11083D01*
X13725Y-11116D01*
X13741Y-11133D01*
X13775Y-11150D01*
X13841Y-11150D01*
X13875Y-11133D01*
X13891Y-11116D01*
X13908Y-11083D01*
X13908Y-11016D01*
X13891Y-10983D01*
X13875Y-10966D01*
X13841Y-10950D01*
X13775Y-10950D01*
X13741Y-10966D01*
X13725Y-10983D01*
X13708Y-11016D01*
X13558Y-10733D02*
X13558Y-10700D01*
X13575Y-10666D01*
X13591Y-10650D01*
X13625Y-10633D01*
X13691Y-10616D01*
X13775Y-10616D01*
X13841Y-10633D01*
X13875Y-10650D01*
X13891Y-10666D01*
X13908Y-10700D01*
X13908Y-10733D01*
X13891Y-10766D01*
X13875Y-10783D01*
X13841Y-10800D01*
X13775Y-10816D01*
X13691Y-10816D01*
X13625Y-10800D01*
X13591Y-10783D01*
X13575Y-10766D01*
X13558Y-10733D01*
X13908Y-10283D02*
X13908Y-10483D01*
X13908Y-10383D02*
X13558Y-10383D01*
X13608Y-10416D01*
X13641Y-10450D01*
X13658Y-10483D01*
G54D10*
X14475Y-11764D02*
X14475Y-11935D01*
X14475Y-11850D02*
X14175Y-11850D01*
X14218Y-11878D01*
X14247Y-11907D01*
X14261Y-11935D01*
%LPC*%
G54D16*
X22000Y-55000D03*
X46000Y-55000D03*
X22000Y-37000D03*
X46000Y-37000D03*
X22000Y-31000D03*
X46000Y-31000D03*
X22000Y-13000D03*
X46000Y-13000D03*
X16000Y-16000D03*
X52000Y-16000D03*
X16000Y-52000D03*
X52000Y-52000D03*
G54D17*
X19625Y-12025D03*
X18375Y-12025D03*
X18375Y-13975D03*
X19625Y-13975D03*
X55625Y-18025D03*
X54375Y-18025D03*
X54375Y-19975D03*
X55625Y-19975D03*
X49625Y-18025D03*
X48375Y-18025D03*
X48375Y-19975D03*
X49625Y-19975D03*
X43625Y-18025D03*
X42375Y-18025D03*
X42375Y-19975D03*
X43625Y-19975D03*
X37625Y-18025D03*
X36375Y-18025D03*
X36375Y-19975D03*
X37625Y-19975D03*
X31625Y-18025D03*
X30375Y-18025D03*
X30375Y-19975D03*
X31625Y-19975D03*
X25625Y-18025D03*
X24375Y-18025D03*
X24375Y-19975D03*
X25625Y-19975D03*
X19625Y-18025D03*
X18375Y-18025D03*
X18375Y-19975D03*
X19625Y-19975D03*
X13625Y-18025D03*
X12375Y-18025D03*
X12375Y-19975D03*
X13625Y-19975D03*
X55625Y-24025D03*
X54375Y-24025D03*
X54375Y-25975D03*
X55625Y-25975D03*
X49625Y-24025D03*
X48375Y-24025D03*
X48375Y-25975D03*
X49625Y-25975D03*
X43625Y-24025D03*
X42375Y-24025D03*
X42375Y-25975D03*
X43625Y-25975D03*
X37625Y-24025D03*
X36375Y-24025D03*
X36375Y-25975D03*
X37625Y-25975D03*
X31625Y-24025D03*
X30375Y-24025D03*
X30375Y-25975D03*
X31625Y-25975D03*
X25625Y-24025D03*
X24375Y-24025D03*
X24375Y-25975D03*
X25625Y-25975D03*
X19625Y-24025D03*
X18375Y-24025D03*
X18375Y-25975D03*
X19625Y-25975D03*
X13625Y-24025D03*
X12375Y-24025D03*
X12375Y-25975D03*
X13625Y-25975D03*
X55625Y-30025D03*
X54375Y-30025D03*
X54375Y-31975D03*
X55625Y-31975D03*
X49625Y-30025D03*
X48375Y-30025D03*
X48375Y-31975D03*
X49625Y-31975D03*
X43625Y-30025D03*
X42375Y-30025D03*
X42375Y-31975D03*
X43625Y-31975D03*
X37625Y-30025D03*
X36375Y-30025D03*
X36375Y-31975D03*
X37625Y-31975D03*
X31625Y-30025D03*
X30375Y-30025D03*
X30375Y-31975D03*
X31625Y-31975D03*
X25625Y-30025D03*
X24375Y-30025D03*
X24375Y-31975D03*
X25625Y-31975D03*
X19625Y-30025D03*
X18375Y-30025D03*
X18375Y-31975D03*
X19625Y-31975D03*
X13625Y-30025D03*
X12375Y-30025D03*
X12375Y-31975D03*
X13625Y-31975D03*
X55625Y-36025D03*
X54375Y-36025D03*
X54375Y-37975D03*
X55625Y-37975D03*
X49625Y-36025D03*
X48375Y-36025D03*
X48375Y-37975D03*
X49625Y-37975D03*
X43625Y-36025D03*
X42375Y-36025D03*
X42375Y-37975D03*
X43625Y-37975D03*
X37625Y-36025D03*
X36375Y-36025D03*
X36375Y-37975D03*
X37625Y-37975D03*
X31625Y-36025D03*
X30375Y-36025D03*
X30375Y-37975D03*
X31625Y-37975D03*
X25625Y-36025D03*
X24375Y-36025D03*
X24375Y-37975D03*
X25625Y-37975D03*
X19625Y-36025D03*
X18375Y-36025D03*
X18375Y-37975D03*
X19625Y-37975D03*
X13625Y-36025D03*
X12375Y-36025D03*
X12375Y-37975D03*
X13625Y-37975D03*
X55625Y-42025D03*
X54375Y-42025D03*
X54375Y-43975D03*
X55625Y-43975D03*
X49625Y-42025D03*
X48375Y-42025D03*
X48375Y-43975D03*
X49625Y-43975D03*
X43625Y-42025D03*
X42375Y-42025D03*
X42375Y-43975D03*
X43625Y-43975D03*
X37625Y-42025D03*
X36375Y-42025D03*
X36375Y-43975D03*
X37625Y-43975D03*
X31625Y-42025D03*
X30375Y-42025D03*
X30375Y-43975D03*
X31625Y-43975D03*
X25625Y-42025D03*
X24375Y-42025D03*
X24375Y-43975D03*
X25625Y-43975D03*
X19625Y-42025D03*
X18375Y-42025D03*
X18375Y-43975D03*
X19625Y-43975D03*
X13625Y-42025D03*
X12375Y-42025D03*
X12375Y-43975D03*
X13625Y-43975D03*
X55625Y-48025D03*
X54375Y-48025D03*
X54375Y-49975D03*
X55625Y-49975D03*
X49625Y-48025D03*
X48375Y-48025D03*
X48375Y-49975D03*
X49625Y-49975D03*
X43625Y-48025D03*
X42375Y-48025D03*
X42375Y-49975D03*
X43625Y-49975D03*
X37625Y-48025D03*
X36375Y-48025D03*
X36375Y-49975D03*
X37625Y-49975D03*
X31625Y-48025D03*
X30375Y-48025D03*
X30375Y-49975D03*
X31625Y-49975D03*
X25625Y-48025D03*
X24375Y-48025D03*
X24375Y-49975D03*
X25625Y-49975D03*
X19625Y-48025D03*
X18375Y-48025D03*
X18375Y-49975D03*
X19625Y-49975D03*
X13625Y-48025D03*
X12375Y-48025D03*
X12375Y-49975D03*
X13625Y-49975D03*
X55625Y-54025D03*
X54375Y-54025D03*
X54375Y-55975D03*
X55625Y-55975D03*
X49625Y-54025D03*
X48375Y-54025D03*
X48375Y-55975D03*
X49625Y-55975D03*
X43625Y-54025D03*
X42375Y-54025D03*
X42375Y-55975D03*
X43625Y-55975D03*
X37625Y-54025D03*
X36375Y-54025D03*
X36375Y-55975D03*
X37625Y-55975D03*
X31625Y-54025D03*
X30375Y-54025D03*
X30375Y-55975D03*
X31625Y-55975D03*
X25625Y-54025D03*
X24375Y-54025D03*
X24375Y-55975D03*
X25625Y-55975D03*
X19625Y-54025D03*
X18375Y-54025D03*
X18375Y-55975D03*
X19625Y-55975D03*
X13625Y-54025D03*
X12375Y-54025D03*
X12375Y-55975D03*
X13625Y-55975D03*
X55625Y-12025D03*
X54375Y-12025D03*
X54375Y-13975D03*
X55625Y-13975D03*
X49625Y-12025D03*
X48375Y-12025D03*
X48375Y-13975D03*
X49625Y-13975D03*
X43625Y-12025D03*
X42375Y-12025D03*
X42375Y-13975D03*
X43625Y-13975D03*
X37625Y-12025D03*
X36375Y-12025D03*
X36375Y-13975D03*
X37625Y-13975D03*
X31625Y-12025D03*
X30375Y-12025D03*
X30375Y-13975D03*
X31625Y-13975D03*
X25625Y-12025D03*
X24375Y-12025D03*
X24375Y-13975D03*
X25625Y-13975D03*
X13625Y-12025D03*
X12375Y-12025D03*
X12375Y-13975D03*
X13625Y-13975D03*
M02*
