%FSLAX34Y34*%
G04 Gerber Fmt 3.4, Leading zero omitted, Abs format*
G04 (created by PCBNEW (2014-05-21 BZR 4875)-product) date Friday 23 May 2014 05:29:24 PM IST*
%MOIN*%
G01*
G70*
G90*
G04 APERTURE LIST*
%ADD10C,0.006000*%
%ADD11C,0.010000*%
%ADD12C,0.240000*%
%ADD13R,0.040000X0.060000*%
%ADD14C,0.080000*%
%ADD15C,0.035000*%
%ADD16C,0.025000*%
G04 APERTURE END LIST*
G54D10*
G54D11*
X58000Y-46400D02*
G75*
G03X57400Y-45800I-600J0D01*
G74*
G01*
X56800Y-45200D02*
G75*
G03X57400Y-45800I600J0D01*
G74*
G01*
X57400Y-33800D02*
G75*
G03X56800Y-34400I0J-600D01*
G74*
G01*
X57400Y-33800D02*
G75*
G03X58000Y-33200I0J600D01*
G74*
G01*
X10000Y-21600D02*
G75*
G03X10600Y-22200I600J0D01*
G74*
G01*
X11200Y-22800D02*
G75*
G03X10600Y-22200I-600J0D01*
G74*
G01*
X10600Y-34200D02*
G75*
G03X10000Y-34800I0J-600D01*
G74*
G01*
X10600Y-34200D02*
G75*
G03X11200Y-33600I0J600D01*
G74*
G01*
X58000Y-33200D02*
X58000Y-13000D01*
X58000Y-46400D02*
X58000Y-55000D01*
X10000Y-34800D02*
X10000Y-55000D01*
X10000Y-21600D02*
X10000Y-13000D01*
X56800Y-39800D02*
X56800Y-45200D01*
X56800Y-39800D02*
X56800Y-34400D01*
X11200Y-28200D02*
X11200Y-33600D01*
X11200Y-28200D02*
X11200Y-22800D01*
X55000Y-58000D02*
X13000Y-58000D01*
X13000Y-10000D02*
X55000Y-10000D01*
X10000Y-55000D02*
G75*
G03X13000Y-58000I3000J0D01*
G74*
G01*
X58000Y-13000D02*
G75*
G03X55000Y-10000I-3000J0D01*
G74*
G01*
X13000Y-10000D02*
G75*
G03X10000Y-13000I0J-3000D01*
G74*
G01*
X55000Y-58000D02*
G75*
G03X58000Y-55000I0J3000D01*
G74*
G01*
G54D12*
X22000Y-55000D03*
X46000Y-55000D03*
X22000Y-37000D03*
X46000Y-37000D03*
X22000Y-31000D03*
X46000Y-31000D03*
X22000Y-13000D03*
X46000Y-13000D03*
X16000Y-16000D03*
X52000Y-16000D03*
X16000Y-52000D03*
X52000Y-52000D03*
G54D13*
X19625Y-12025D03*
X18375Y-12025D03*
X18375Y-13975D03*
X19625Y-13975D03*
X55625Y-18025D03*
X54375Y-18025D03*
X54375Y-19975D03*
X55625Y-19975D03*
X49625Y-18025D03*
X48375Y-18025D03*
X48375Y-19975D03*
X49625Y-19975D03*
X43625Y-18025D03*
X42375Y-18025D03*
X42375Y-19975D03*
X43625Y-19975D03*
X37625Y-18025D03*
X36375Y-18025D03*
X36375Y-19975D03*
X37625Y-19975D03*
X31625Y-18025D03*
X30375Y-18025D03*
X30375Y-19975D03*
X31625Y-19975D03*
X25625Y-18025D03*
X24375Y-18025D03*
X24375Y-19975D03*
X25625Y-19975D03*
X19625Y-18025D03*
X18375Y-18025D03*
X18375Y-19975D03*
X19625Y-19975D03*
X13625Y-18025D03*
X12375Y-18025D03*
X12375Y-19975D03*
X13625Y-19975D03*
X55625Y-24025D03*
X54375Y-24025D03*
X54375Y-25975D03*
X55625Y-25975D03*
X49625Y-24025D03*
X48375Y-24025D03*
X48375Y-25975D03*
X49625Y-25975D03*
X43625Y-24025D03*
X42375Y-24025D03*
X42375Y-25975D03*
X43625Y-25975D03*
X37625Y-24025D03*
X36375Y-24025D03*
X36375Y-25975D03*
X37625Y-25975D03*
X31625Y-24025D03*
X30375Y-24025D03*
X30375Y-25975D03*
X31625Y-25975D03*
X25625Y-24025D03*
X24375Y-24025D03*
X24375Y-25975D03*
X25625Y-25975D03*
X19625Y-24025D03*
X18375Y-24025D03*
X18375Y-25975D03*
X19625Y-25975D03*
X13625Y-24025D03*
X12375Y-24025D03*
X12375Y-25975D03*
X13625Y-25975D03*
X55625Y-30025D03*
X54375Y-30025D03*
X54375Y-31975D03*
X55625Y-31975D03*
X49625Y-30025D03*
X48375Y-30025D03*
X48375Y-31975D03*
X49625Y-31975D03*
X43625Y-30025D03*
X42375Y-30025D03*
X42375Y-31975D03*
X43625Y-31975D03*
X37625Y-30025D03*
X36375Y-30025D03*
X36375Y-31975D03*
X37625Y-31975D03*
X31625Y-30025D03*
X30375Y-30025D03*
X30375Y-31975D03*
X31625Y-31975D03*
X25625Y-30025D03*
X24375Y-30025D03*
X24375Y-31975D03*
X25625Y-31975D03*
X19625Y-30025D03*
X18375Y-30025D03*
X18375Y-31975D03*
X19625Y-31975D03*
X13625Y-30025D03*
X12375Y-30025D03*
X12375Y-31975D03*
X13625Y-31975D03*
X55625Y-36025D03*
X54375Y-36025D03*
X54375Y-37975D03*
X55625Y-37975D03*
X49625Y-36025D03*
X48375Y-36025D03*
X48375Y-37975D03*
X49625Y-37975D03*
X43625Y-36025D03*
X42375Y-36025D03*
X42375Y-37975D03*
X43625Y-37975D03*
X37625Y-36025D03*
X36375Y-36025D03*
X36375Y-37975D03*
X37625Y-37975D03*
X31625Y-36025D03*
X30375Y-36025D03*
X30375Y-37975D03*
X31625Y-37975D03*
X25625Y-36025D03*
X24375Y-36025D03*
X24375Y-37975D03*
X25625Y-37975D03*
X19625Y-36025D03*
X18375Y-36025D03*
X18375Y-37975D03*
X19625Y-37975D03*
X13625Y-36025D03*
X12375Y-36025D03*
X12375Y-37975D03*
X13625Y-37975D03*
X55625Y-42025D03*
X54375Y-42025D03*
X54375Y-43975D03*
X55625Y-43975D03*
X49625Y-42025D03*
X48375Y-42025D03*
X48375Y-43975D03*
X49625Y-43975D03*
X43625Y-42025D03*
X42375Y-42025D03*
X42375Y-43975D03*
X43625Y-43975D03*
X37625Y-42025D03*
X36375Y-42025D03*
X36375Y-43975D03*
X37625Y-43975D03*
X31625Y-42025D03*
X30375Y-42025D03*
X30375Y-43975D03*
X31625Y-43975D03*
X25625Y-42025D03*
X24375Y-42025D03*
X24375Y-43975D03*
X25625Y-43975D03*
X19625Y-42025D03*
X18375Y-42025D03*
X18375Y-43975D03*
X19625Y-43975D03*
X13625Y-42025D03*
X12375Y-42025D03*
X12375Y-43975D03*
X13625Y-43975D03*
X55625Y-48025D03*
X54375Y-48025D03*
X54375Y-49975D03*
X55625Y-49975D03*
X49625Y-48025D03*
X48375Y-48025D03*
X48375Y-49975D03*
X49625Y-49975D03*
X43625Y-48025D03*
X42375Y-48025D03*
X42375Y-49975D03*
X43625Y-49975D03*
X37625Y-48025D03*
X36375Y-48025D03*
X36375Y-49975D03*
X37625Y-49975D03*
X31625Y-48025D03*
X30375Y-48025D03*
X30375Y-49975D03*
X31625Y-49975D03*
X25625Y-48025D03*
X24375Y-48025D03*
X24375Y-49975D03*
X25625Y-49975D03*
X19625Y-48025D03*
X18375Y-48025D03*
X18375Y-49975D03*
X19625Y-49975D03*
X13625Y-48025D03*
X12375Y-48025D03*
X12375Y-49975D03*
X13625Y-49975D03*
X55625Y-54025D03*
X54375Y-54025D03*
X54375Y-55975D03*
X55625Y-55975D03*
X49625Y-54025D03*
X48375Y-54025D03*
X48375Y-55975D03*
X49625Y-55975D03*
X43625Y-54025D03*
X42375Y-54025D03*
X42375Y-55975D03*
X43625Y-55975D03*
X37625Y-54025D03*
X36375Y-54025D03*
X36375Y-55975D03*
X37625Y-55975D03*
X31625Y-54025D03*
X30375Y-54025D03*
X30375Y-55975D03*
X31625Y-55975D03*
X25625Y-54025D03*
X24375Y-54025D03*
X24375Y-55975D03*
X25625Y-55975D03*
X19625Y-54025D03*
X18375Y-54025D03*
X18375Y-55975D03*
X19625Y-55975D03*
X13625Y-54025D03*
X12375Y-54025D03*
X12375Y-55975D03*
X13625Y-55975D03*
X55625Y-12025D03*
X54375Y-12025D03*
X54375Y-13975D03*
X55625Y-13975D03*
X49625Y-12025D03*
X48375Y-12025D03*
X48375Y-13975D03*
X49625Y-13975D03*
X43625Y-12025D03*
X42375Y-12025D03*
X42375Y-13975D03*
X43625Y-13975D03*
X37625Y-12025D03*
X36375Y-12025D03*
X36375Y-13975D03*
X37625Y-13975D03*
X31625Y-12025D03*
X30375Y-12025D03*
X30375Y-13975D03*
X31625Y-13975D03*
X25625Y-12025D03*
X24375Y-12025D03*
X24375Y-13975D03*
X25625Y-13975D03*
X13625Y-12025D03*
X12375Y-12025D03*
X12375Y-13975D03*
X13625Y-13975D03*
G54D14*
X14375Y-46025D03*
X48625Y-51975D03*
X12375Y-47025D03*
X52125Y-48475D03*
X12375Y-41025D03*
X55625Y-44975D03*
X12375Y-35025D03*
X55625Y-38975D03*
X12375Y-29025D03*
X55630Y-32980D03*
X12375Y-23025D03*
X55625Y-26975D03*
X14375Y-22025D03*
X55625Y-20975D03*
X16375Y-22025D03*
X55625Y-14975D03*
X49625Y-45975D03*
X54625Y-45975D03*
X53630Y-33980D03*
X50630Y-33980D03*
G54D15*
X20695Y-28375D03*
X29600Y-56980D03*
X29600Y-50980D03*
X29600Y-44960D03*
X29600Y-38960D03*
X29600Y-26960D03*
X29600Y-20980D03*
X29600Y-14980D03*
X43280Y-20980D03*
X29595Y-32210D03*
X40000Y-14980D03*
X40000Y-20980D03*
X40000Y-26980D03*
X40000Y-32980D03*
X40000Y-38980D03*
X40000Y-44980D03*
X40000Y-50980D03*
X40000Y-56980D03*
X50975Y-44975D03*
X22025Y-29025D03*
X50930Y-47025D03*
X53725Y-41025D03*
X26400Y-53020D03*
X26400Y-47020D03*
X26400Y-41020D03*
X26400Y-35020D03*
X26400Y-23020D03*
X26400Y-17020D03*
X26400Y-11020D03*
X44500Y-17020D03*
X26395Y-29025D03*
X40000Y-11020D03*
X40000Y-17020D03*
X40000Y-23020D03*
X40020Y-29000D03*
X40000Y-35020D03*
X40000Y-41020D03*
X40000Y-47020D03*
X40000Y-53020D03*
G54D11*
X16425Y-55975D02*
X18375Y-54025D01*
X13625Y-55975D02*
X16425Y-55975D01*
X20835Y-55975D02*
X21340Y-56480D01*
X21340Y-56480D02*
X22690Y-56480D01*
X22690Y-56480D02*
X24375Y-54795D01*
X24375Y-54795D02*
X24375Y-54025D01*
X19625Y-55975D02*
X20835Y-55975D01*
X28425Y-55975D02*
X30375Y-54025D01*
X25625Y-55975D02*
X28425Y-55975D01*
X34425Y-55975D02*
X36375Y-54025D01*
X31625Y-55975D02*
X34425Y-55975D01*
X40425Y-55975D02*
X42375Y-54025D01*
X37625Y-55975D02*
X40425Y-55975D01*
X44830Y-55975D02*
X45355Y-56500D01*
X45355Y-56500D02*
X46660Y-56500D01*
X46660Y-56500D02*
X48375Y-54785D01*
X48375Y-54785D02*
X48375Y-54025D01*
X43625Y-55975D02*
X44830Y-55975D01*
X52425Y-55975D02*
X54375Y-54025D01*
X49625Y-55975D02*
X52425Y-55975D01*
X12375Y-54025D02*
X12375Y-53775D01*
X11645Y-46025D02*
X11180Y-46490D01*
X14375Y-46025D02*
X11645Y-46025D01*
X11180Y-53725D02*
X11480Y-54025D01*
X11480Y-54025D02*
X12375Y-54025D01*
X11180Y-46490D02*
X11180Y-53725D01*
X55550Y-52450D02*
X56236Y-53136D01*
X53775Y-52450D02*
X55550Y-52450D01*
X52700Y-53525D02*
X53775Y-52450D01*
X51350Y-53525D02*
X52700Y-53525D01*
X55625Y-55975D02*
X55625Y-55241D01*
X55625Y-55241D02*
X56236Y-54630D01*
X56236Y-54630D02*
X56236Y-53136D01*
X49800Y-51975D02*
X51350Y-53525D01*
X48625Y-51975D02*
X49800Y-51975D01*
X16425Y-49975D02*
X18375Y-48025D01*
X13625Y-49975D02*
X16425Y-49975D01*
X22425Y-49975D02*
X24375Y-48025D01*
X19625Y-49975D02*
X22425Y-49975D01*
X28425Y-49975D02*
X30375Y-48025D01*
X25625Y-49975D02*
X28425Y-49975D01*
X34425Y-49975D02*
X36375Y-48025D01*
X31625Y-49975D02*
X34425Y-49975D01*
X40425Y-49975D02*
X42375Y-48025D01*
X37625Y-49975D02*
X40425Y-49975D01*
X46425Y-49975D02*
X48375Y-48025D01*
X43625Y-49975D02*
X46425Y-49975D01*
X53775Y-48025D02*
X53350Y-47600D01*
X53350Y-47600D02*
X52000Y-47600D01*
X52000Y-47600D02*
X49625Y-49975D01*
X54375Y-48025D02*
X53775Y-48025D01*
X12375Y-47775D02*
X12375Y-47025D01*
X12375Y-48025D02*
X12375Y-47775D01*
X55625Y-49975D02*
X55625Y-49375D01*
X52775Y-49125D02*
X52125Y-48475D01*
X55375Y-49125D02*
X52775Y-49125D01*
X55625Y-49375D02*
X55375Y-49125D01*
X16425Y-43975D02*
X18375Y-42025D01*
X13625Y-43975D02*
X16425Y-43975D01*
X22425Y-43975D02*
X24375Y-42025D01*
X19625Y-43975D02*
X22425Y-43975D01*
X28425Y-43975D02*
X30375Y-42025D01*
X25625Y-43975D02*
X28425Y-43975D01*
X34425Y-43975D02*
X36375Y-42025D01*
X31625Y-43975D02*
X34425Y-43975D01*
X40425Y-43975D02*
X42375Y-42025D01*
X37625Y-43975D02*
X40425Y-43975D01*
X46425Y-43975D02*
X48375Y-42025D01*
X43625Y-43975D02*
X46425Y-43975D01*
X52425Y-43975D02*
X54375Y-42025D01*
X49625Y-43975D02*
X52425Y-43975D01*
X12375Y-41775D02*
X12375Y-41025D01*
X12375Y-42025D02*
X12375Y-41775D01*
X55625Y-44975D02*
X55625Y-43975D01*
X12375Y-35775D02*
X12375Y-35025D01*
X12375Y-36025D02*
X12375Y-35775D01*
X55625Y-38975D02*
X55625Y-37975D01*
X16425Y-37975D02*
X18375Y-36025D01*
X13625Y-37975D02*
X16425Y-37975D01*
X20815Y-37975D02*
X21320Y-38480D01*
X21320Y-38480D02*
X22720Y-38480D01*
X22720Y-38480D02*
X24375Y-36825D01*
X24375Y-36825D02*
X24375Y-36025D01*
X19625Y-37975D02*
X20815Y-37975D01*
X28425Y-37975D02*
X30375Y-36025D01*
X25625Y-37975D02*
X28425Y-37975D01*
X34425Y-37975D02*
X36375Y-36025D01*
X31625Y-37975D02*
X34425Y-37975D01*
X40425Y-37975D02*
X42375Y-36025D01*
X37625Y-37975D02*
X40425Y-37975D01*
X44820Y-37975D02*
X45325Y-38480D01*
X45325Y-38480D02*
X46630Y-38480D01*
X46630Y-38480D02*
X48375Y-36735D01*
X48375Y-36735D02*
X48375Y-36025D01*
X43625Y-37975D02*
X44820Y-37975D01*
X52425Y-37975D02*
X54375Y-36025D01*
X49625Y-37975D02*
X52425Y-37975D01*
X12375Y-29775D02*
X12375Y-29025D01*
X12375Y-30025D02*
X12375Y-29775D01*
X55625Y-32975D02*
X55625Y-31975D01*
X55630Y-32980D02*
X55625Y-32975D01*
X16425Y-31975D02*
X18375Y-30025D01*
X13625Y-31975D02*
X16425Y-31975D01*
X20710Y-31975D02*
X21205Y-32470D01*
X21205Y-32470D02*
X22605Y-32470D01*
X22605Y-32470D02*
X24375Y-30700D01*
X24375Y-30700D02*
X24375Y-30025D01*
X19625Y-31975D02*
X20710Y-31975D01*
X28425Y-31975D02*
X30375Y-30025D01*
X25625Y-31975D02*
X28425Y-31975D01*
X34425Y-31975D02*
X36375Y-30025D01*
X31625Y-31975D02*
X34425Y-31975D01*
X40425Y-31975D02*
X42375Y-30025D01*
X37625Y-31975D02*
X40425Y-31975D01*
X44805Y-31975D02*
X45320Y-32490D01*
X45320Y-32490D02*
X46720Y-32490D01*
X46720Y-32490D02*
X48375Y-30835D01*
X48375Y-30835D02*
X48375Y-30025D01*
X43625Y-31975D02*
X44805Y-31975D01*
X52425Y-31975D02*
X54375Y-30025D01*
X49625Y-31975D02*
X52425Y-31975D01*
X12375Y-23775D02*
X12375Y-23025D01*
X12375Y-24025D02*
X12375Y-23775D01*
X55625Y-26975D02*
X55625Y-25975D01*
X16425Y-25975D02*
X18375Y-24025D01*
X13625Y-25975D02*
X16425Y-25975D01*
X22425Y-25975D02*
X24375Y-24025D01*
X19625Y-25975D02*
X22425Y-25975D01*
X28425Y-25975D02*
X30375Y-24025D01*
X25625Y-25975D02*
X28425Y-25975D01*
X34425Y-25975D02*
X36375Y-24025D01*
X31625Y-25975D02*
X34425Y-25975D01*
X40425Y-25975D02*
X42375Y-24025D01*
X37625Y-25975D02*
X40425Y-25975D01*
X46425Y-25975D02*
X48375Y-24025D01*
X43625Y-25975D02*
X46425Y-25975D01*
X52425Y-25975D02*
X54375Y-24025D01*
X49625Y-25975D02*
X52425Y-25975D01*
X12375Y-18025D02*
X12375Y-17775D01*
X14375Y-22025D02*
X11755Y-22025D01*
X11755Y-22025D02*
X11070Y-21340D01*
X11070Y-21340D02*
X11070Y-18410D01*
X11070Y-18410D02*
X11455Y-18025D01*
X11455Y-18025D02*
X12375Y-18025D01*
X55625Y-20975D02*
X55625Y-19975D01*
X16425Y-19975D02*
X18375Y-18025D01*
X13625Y-19975D02*
X16425Y-19975D01*
X22425Y-19975D02*
X24375Y-18025D01*
X19625Y-19975D02*
X22425Y-19975D01*
X28425Y-19975D02*
X30375Y-18025D01*
X25625Y-19975D02*
X28425Y-19975D01*
X34425Y-19975D02*
X36375Y-18025D01*
X31625Y-19975D02*
X34425Y-19975D01*
X40425Y-19975D02*
X42375Y-18025D01*
X37625Y-19975D02*
X40425Y-19975D01*
X46425Y-19975D02*
X48375Y-18025D01*
X43625Y-19975D02*
X46425Y-19975D01*
X52425Y-19975D02*
X54375Y-18025D01*
X49625Y-19975D02*
X52425Y-19975D01*
X12375Y-12025D02*
X12375Y-11775D01*
X11545Y-12265D02*
X11785Y-12025D01*
X11545Y-15525D02*
X11545Y-12265D01*
X13020Y-17000D02*
X11545Y-15525D01*
X13020Y-18720D02*
X13020Y-17000D01*
X12670Y-19070D02*
X13020Y-18720D01*
X11960Y-19070D02*
X12670Y-19070D01*
X11655Y-19375D02*
X11960Y-19070D01*
X11655Y-21000D02*
X11655Y-19375D01*
X12050Y-21395D02*
X11655Y-21000D01*
X11785Y-12025D02*
X12375Y-12025D01*
X15745Y-21395D02*
X16375Y-22025D01*
X12050Y-21395D02*
X15745Y-21395D01*
X55625Y-13975D02*
X55625Y-14975D01*
X50630Y-33980D02*
X53630Y-33980D01*
X54625Y-45975D02*
X49625Y-45975D01*
X13625Y-13975D02*
X16425Y-13975D01*
X16425Y-13975D02*
X18375Y-12025D01*
X19625Y-13975D02*
X20095Y-13975D01*
X24375Y-12795D02*
X24375Y-12025D01*
X22650Y-14520D02*
X24375Y-12795D01*
X20640Y-14520D02*
X22650Y-14520D01*
X20095Y-13975D02*
X20640Y-14520D01*
X25625Y-13975D02*
X28425Y-13975D01*
X28425Y-13975D02*
X30375Y-12025D01*
X31625Y-13975D02*
X34425Y-13975D01*
X34425Y-13975D02*
X36375Y-12025D01*
X37625Y-13975D02*
X40425Y-13975D01*
X40425Y-13975D02*
X42375Y-12025D01*
X43625Y-13975D02*
X44080Y-13975D01*
X48375Y-12810D02*
X48375Y-12025D01*
X46725Y-14460D02*
X48375Y-12810D01*
X44565Y-14460D02*
X46725Y-14460D01*
X44080Y-13975D02*
X44565Y-14460D01*
X49625Y-13975D02*
X52425Y-13975D01*
X52425Y-13975D02*
X54375Y-12025D01*
G54D16*
X30375Y-19975D02*
X30375Y-20975D01*
X20695Y-28375D02*
X20695Y-26975D01*
X48375Y-13975D02*
X48375Y-14975D01*
X42375Y-13975D02*
X42375Y-14975D01*
X36375Y-13975D02*
X36375Y-14975D01*
X30375Y-13975D02*
X30375Y-14975D01*
X24375Y-13975D02*
X24375Y-14975D01*
X18375Y-13975D02*
X18375Y-14975D01*
X12375Y-13975D02*
X12375Y-14755D01*
X54375Y-14735D02*
X54375Y-13975D01*
X54135Y-14975D02*
X54375Y-14735D01*
X53345Y-14975D02*
X54135Y-14975D01*
X52785Y-14415D02*
X53345Y-14975D01*
X51185Y-14415D02*
X52785Y-14415D01*
X50625Y-14975D02*
X51185Y-14415D01*
X17215Y-14975D02*
X18375Y-14975D01*
X18375Y-14975D02*
X24375Y-14975D01*
X29600Y-14975D02*
X30375Y-14975D01*
X24375Y-14975D02*
X29600Y-14975D01*
X30375Y-14975D02*
X36375Y-14975D01*
X40000Y-14975D02*
X42375Y-14975D01*
X36375Y-14975D02*
X40000Y-14975D01*
X42375Y-14975D02*
X48375Y-14975D01*
X48375Y-14975D02*
X50625Y-14975D01*
X16665Y-14425D02*
X17215Y-14975D01*
X15305Y-14425D02*
X16665Y-14425D01*
X14755Y-14975D02*
X15305Y-14425D01*
X12595Y-14975D02*
X14755Y-14975D01*
X12375Y-14755D02*
X12595Y-14975D01*
X57100Y-25000D02*
X57100Y-28625D01*
X56280Y-37000D02*
X56280Y-31000D01*
X56280Y-37000D02*
X56280Y-43000D01*
X12375Y-20575D02*
X12775Y-20975D01*
X48375Y-20975D02*
X54130Y-20975D01*
X43280Y-20975D02*
X48375Y-20975D01*
X42375Y-20975D02*
X43280Y-20975D01*
X40000Y-20975D02*
X42375Y-20975D01*
X36375Y-20975D02*
X40000Y-20975D01*
X29600Y-20975D02*
X30375Y-20975D01*
X30375Y-20975D02*
X36375Y-20975D01*
X24375Y-20975D02*
X29600Y-20975D01*
X18375Y-20975D02*
X24375Y-20975D01*
X12775Y-20975D02*
X18375Y-20975D01*
X54130Y-20975D02*
X54375Y-20730D01*
X54375Y-20730D02*
X54375Y-19975D01*
X12375Y-19975D02*
X12375Y-20575D01*
X48375Y-20975D02*
X48375Y-19975D01*
X42375Y-20975D02*
X42375Y-19975D01*
X36375Y-20975D02*
X36375Y-19975D01*
X24375Y-20975D02*
X24375Y-19975D01*
X18375Y-20975D02*
X18375Y-19975D01*
X57100Y-19000D02*
X57100Y-25000D01*
X57100Y-13450D02*
X57100Y-19000D01*
X54375Y-19485D02*
X54860Y-19000D01*
X54860Y-19000D02*
X57100Y-19000D01*
X54375Y-19975D02*
X54375Y-19485D01*
X54375Y-13335D02*
X54710Y-13000D01*
X54710Y-13000D02*
X56650Y-13000D01*
X56650Y-13000D02*
X57100Y-13450D01*
X54375Y-13975D02*
X54375Y-13335D01*
X12375Y-26540D02*
X12810Y-26975D01*
X48375Y-26975D02*
X54095Y-26975D01*
X42375Y-26975D02*
X48375Y-26975D01*
X40000Y-26975D02*
X42375Y-26975D01*
X36375Y-26975D02*
X40000Y-26975D01*
X30375Y-26975D02*
X36375Y-26975D01*
X29600Y-26975D02*
X30375Y-26975D01*
X24375Y-26975D02*
X29600Y-26975D01*
X18375Y-26975D02*
X20695Y-26975D01*
X20695Y-26975D02*
X24375Y-26975D01*
X12810Y-26975D02*
X18375Y-26975D01*
X54095Y-26975D02*
X54375Y-26695D01*
X54375Y-26695D02*
X54375Y-25975D01*
X12375Y-25975D02*
X12375Y-26540D01*
X54375Y-25285D02*
X54660Y-25000D01*
X54660Y-25000D02*
X57100Y-25000D01*
X54375Y-25975D02*
X54375Y-25285D01*
X48375Y-26975D02*
X48375Y-25975D01*
X42375Y-26975D02*
X42375Y-25975D01*
X36375Y-26975D02*
X36375Y-25975D01*
X30375Y-26975D02*
X30375Y-25975D01*
X24375Y-26975D02*
X24375Y-25975D01*
X18375Y-26975D02*
X18375Y-25975D01*
X12375Y-32530D02*
X12820Y-32975D01*
X48375Y-32975D02*
X54030Y-32975D01*
X42375Y-32975D02*
X48375Y-32975D01*
X40000Y-32975D02*
X42375Y-32975D01*
X36375Y-32975D02*
X40000Y-32975D01*
X30375Y-32975D02*
X36375Y-32975D01*
X29595Y-32975D02*
X30375Y-32975D01*
X24375Y-32975D02*
X29595Y-32975D01*
X18375Y-32975D02*
X24375Y-32975D01*
X12820Y-32975D02*
X18375Y-32975D01*
X54030Y-32975D02*
X54375Y-32630D01*
X54375Y-32630D02*
X54375Y-31975D01*
X12375Y-31975D02*
X12375Y-32530D01*
X54750Y-31000D02*
X56280Y-31000D01*
X54375Y-31375D02*
X54750Y-31000D01*
X54375Y-31975D02*
X54375Y-31375D01*
X48375Y-32975D02*
X48375Y-31975D01*
X42375Y-32975D02*
X42375Y-31975D01*
X36375Y-32975D02*
X36375Y-31975D01*
X30375Y-32975D02*
X30375Y-31975D01*
X24375Y-32975D02*
X24375Y-31975D01*
X18375Y-32975D02*
X18375Y-31975D01*
X12375Y-38660D02*
X12690Y-38975D01*
X48375Y-38975D02*
X54025Y-38975D01*
X42375Y-38975D02*
X48375Y-38975D01*
X40000Y-38975D02*
X42375Y-38975D01*
X36375Y-38975D02*
X40000Y-38975D01*
X30375Y-38975D02*
X36375Y-38975D01*
X29600Y-38975D02*
X30375Y-38975D01*
X24375Y-38975D02*
X29600Y-38975D01*
X18375Y-38975D02*
X24375Y-38975D01*
X12690Y-38975D02*
X18375Y-38975D01*
X54025Y-38975D02*
X54375Y-38625D01*
X54375Y-38625D02*
X54375Y-37975D01*
X12375Y-37975D02*
X12375Y-38660D01*
X54375Y-37315D02*
X54690Y-37000D01*
X54690Y-37000D02*
X56280Y-37000D01*
X54375Y-37975D02*
X54375Y-37315D01*
X48375Y-38975D02*
X48375Y-37975D01*
X42375Y-38975D02*
X42375Y-37975D01*
X36375Y-38975D02*
X36375Y-37975D01*
X30375Y-38975D02*
X30375Y-37975D01*
X24375Y-38975D02*
X24375Y-37975D01*
X18375Y-38975D02*
X18375Y-37975D01*
X12375Y-44550D02*
X12800Y-44975D01*
X42375Y-44975D02*
X48375Y-44975D01*
X40000Y-44975D02*
X42375Y-44975D01*
X36375Y-44975D02*
X40000Y-44975D01*
X30375Y-44975D02*
X36375Y-44975D01*
X29600Y-44975D02*
X30375Y-44975D01*
X24375Y-44975D02*
X29600Y-44975D01*
X18375Y-44975D02*
X24375Y-44975D01*
X12800Y-44975D02*
X18375Y-44975D01*
X12375Y-43975D02*
X12375Y-44550D01*
X54700Y-43000D02*
X56280Y-43000D01*
X54375Y-43325D02*
X54700Y-43000D01*
X54375Y-43975D02*
X54375Y-43325D01*
X48375Y-44975D02*
X48375Y-43975D01*
X42375Y-44975D02*
X42375Y-43975D01*
X36375Y-44975D02*
X36375Y-43975D01*
X30375Y-44975D02*
X30375Y-43975D01*
X24375Y-44975D02*
X24375Y-43975D01*
X18375Y-44975D02*
X18375Y-43975D01*
X12375Y-50650D02*
X12700Y-50975D01*
X12700Y-50975D02*
X14700Y-50975D01*
X14700Y-50975D02*
X15250Y-50425D01*
X15250Y-50425D02*
X16700Y-50425D01*
X16700Y-50425D02*
X17250Y-50975D01*
X42375Y-50975D02*
X48375Y-50975D01*
X40000Y-50975D02*
X42375Y-50975D01*
X36375Y-50975D02*
X40000Y-50975D01*
X30375Y-50975D02*
X36375Y-50975D01*
X29600Y-50975D02*
X30375Y-50975D01*
X24375Y-50975D02*
X29600Y-50975D01*
X18375Y-50975D02*
X24375Y-50975D01*
X17250Y-50975D02*
X18375Y-50975D01*
X12375Y-49975D02*
X12375Y-50650D01*
X48375Y-50975D02*
X48375Y-49975D01*
X42375Y-50975D02*
X42375Y-49975D01*
X36375Y-50975D02*
X36375Y-49975D01*
X30375Y-50975D02*
X30375Y-49975D01*
X24375Y-50975D02*
X24375Y-49975D01*
X18375Y-50975D02*
X18375Y-49975D01*
X12375Y-56655D02*
X12695Y-56975D01*
X42375Y-56975D02*
X48375Y-56975D01*
X40000Y-56975D02*
X42375Y-56975D01*
X36375Y-56975D02*
X40000Y-56975D01*
X30375Y-56975D02*
X36375Y-56975D01*
X29600Y-56975D02*
X30375Y-56975D01*
X24375Y-56975D02*
X29600Y-56975D01*
X18375Y-56975D02*
X24375Y-56975D01*
X12695Y-56975D02*
X18375Y-56975D01*
X12375Y-55975D02*
X12375Y-56655D01*
X48375Y-56975D02*
X48375Y-55975D01*
X42375Y-56975D02*
X42375Y-55975D01*
X36375Y-56975D02*
X36375Y-55975D01*
X30375Y-56975D02*
X30375Y-55975D01*
X24375Y-56975D02*
X24375Y-55975D01*
X18375Y-56975D02*
X18375Y-55975D01*
X29600Y-56980D02*
X29600Y-56975D01*
X29600Y-50980D02*
X29600Y-50975D01*
X29600Y-44960D02*
X29600Y-44975D01*
X29600Y-38960D02*
X29600Y-38975D01*
X29600Y-26960D02*
X29600Y-26975D01*
X29600Y-20980D02*
X29600Y-20975D01*
X29600Y-14980D02*
X29600Y-14975D01*
X43280Y-20980D02*
X43280Y-20975D01*
X29595Y-32210D02*
X29595Y-32975D01*
X40000Y-14980D02*
X40000Y-14975D01*
X40000Y-20980D02*
X40000Y-20975D01*
X40000Y-26980D02*
X40000Y-26975D01*
X40000Y-32980D02*
X40000Y-32975D01*
X40000Y-38980D02*
X40000Y-38975D01*
X40000Y-44980D02*
X40000Y-44975D01*
X40000Y-50980D02*
X40000Y-50975D01*
X40000Y-56980D02*
X40000Y-56975D01*
X53975Y-44975D02*
X54375Y-44575D01*
X54375Y-44575D02*
X54375Y-43975D01*
X50975Y-44975D02*
X53975Y-44975D01*
X48375Y-44975D02*
X50975Y-44975D01*
X50650Y-50975D02*
X51250Y-50375D01*
X51250Y-50375D02*
X52725Y-50375D01*
X52725Y-50375D02*
X53325Y-50975D01*
X48375Y-50975D02*
X50650Y-50975D01*
X57100Y-46700D02*
X56280Y-45880D01*
X56280Y-45880D02*
X56280Y-43000D01*
X57100Y-50975D02*
X57100Y-46700D01*
X57100Y-55700D02*
X57100Y-50975D01*
X55825Y-56975D02*
X57100Y-55700D01*
X54375Y-56975D02*
X55825Y-56975D01*
X48375Y-56975D02*
X54375Y-56975D01*
X54375Y-55975D02*
X54375Y-56975D01*
X54375Y-50975D02*
X57100Y-50975D01*
X53325Y-50975D02*
X54375Y-50975D01*
X54375Y-49975D02*
X54375Y-50975D01*
X57100Y-30180D02*
X56280Y-31000D01*
X57100Y-28625D02*
X57100Y-30180D01*
X49625Y-12025D02*
X49625Y-11025D01*
X43625Y-12025D02*
X43625Y-11025D01*
X37625Y-12025D02*
X37625Y-11025D01*
X31625Y-12025D02*
X31625Y-11025D01*
X25625Y-12025D02*
X25625Y-11025D01*
X19625Y-12025D02*
X19625Y-11025D01*
X13625Y-12025D02*
X13625Y-11360D01*
X55365Y-12025D02*
X55625Y-12025D01*
X54365Y-11025D02*
X55365Y-12025D01*
X13960Y-11025D02*
X19625Y-11025D01*
X19625Y-11025D02*
X25625Y-11025D01*
X26400Y-11025D02*
X31625Y-11025D01*
X25625Y-11025D02*
X26400Y-11025D01*
X31625Y-11025D02*
X37625Y-11025D01*
X40000Y-11025D02*
X43625Y-11025D01*
X37625Y-11025D02*
X40000Y-11025D01*
X43625Y-11025D02*
X49625Y-11025D01*
X49625Y-11025D02*
X54365Y-11025D01*
X13625Y-11360D02*
X13960Y-11025D01*
X55430Y-17025D02*
X55625Y-17220D01*
X55625Y-17220D02*
X55625Y-18025D01*
X13625Y-18025D02*
X13625Y-17505D01*
X52695Y-17625D02*
X53295Y-17025D01*
X51300Y-17625D02*
X52695Y-17625D01*
X50700Y-17025D02*
X51300Y-17625D01*
X19625Y-17025D02*
X25625Y-17025D01*
X17265Y-17025D02*
X19625Y-17025D01*
X16665Y-17625D02*
X17265Y-17025D01*
X15365Y-17625D02*
X16665Y-17625D01*
X14765Y-17025D02*
X15365Y-17625D01*
X14105Y-17025D02*
X14765Y-17025D01*
X13625Y-17505D02*
X14105Y-17025D01*
X53295Y-17025D02*
X55430Y-17025D01*
X19625Y-18025D02*
X19625Y-17025D01*
X26400Y-17025D02*
X31625Y-17025D01*
X25625Y-17025D02*
X26400Y-17025D01*
X25625Y-18025D02*
X25625Y-17025D01*
X31625Y-17025D02*
X37625Y-17025D01*
X31625Y-18025D02*
X31625Y-17025D01*
X40000Y-17025D02*
X43625Y-17025D01*
X37625Y-17025D02*
X40000Y-17025D01*
X37625Y-18025D02*
X37625Y-17025D01*
X44500Y-17025D02*
X49625Y-17025D01*
X43625Y-17025D02*
X44500Y-17025D01*
X43625Y-18025D02*
X43625Y-17025D01*
X49625Y-17025D02*
X50700Y-17025D01*
X49625Y-17025D02*
X49625Y-18025D01*
X13625Y-23430D02*
X14030Y-23025D01*
X49625Y-23025D02*
X55380Y-23025D01*
X43625Y-23025D02*
X49625Y-23025D01*
X40000Y-23025D02*
X43625Y-23025D01*
X37625Y-23025D02*
X40000Y-23025D01*
X31625Y-23025D02*
X37625Y-23025D01*
X26400Y-23025D02*
X31625Y-23025D01*
X25625Y-23025D02*
X26400Y-23025D01*
X19625Y-23025D02*
X25625Y-23025D01*
X14030Y-23025D02*
X19625Y-23025D01*
X55380Y-23025D02*
X55625Y-23270D01*
X55625Y-23270D02*
X55625Y-24025D01*
X13625Y-24025D02*
X13625Y-23430D01*
X49625Y-23025D02*
X49625Y-24025D01*
X43625Y-23025D02*
X43625Y-24025D01*
X37625Y-23025D02*
X37625Y-24025D01*
X31625Y-23025D02*
X31625Y-24025D01*
X25625Y-23025D02*
X25625Y-24025D01*
X19625Y-23025D02*
X19625Y-24025D01*
X13625Y-29575D02*
X14175Y-29025D01*
X49625Y-29025D02*
X55395Y-29025D01*
X43625Y-29025D02*
X49625Y-29025D01*
X40020Y-29025D02*
X43625Y-29025D01*
X37625Y-29025D02*
X40020Y-29025D01*
X31625Y-29025D02*
X37625Y-29025D01*
X26395Y-29025D02*
X31625Y-29025D01*
X25625Y-29025D02*
X26395Y-29025D01*
X19625Y-29025D02*
X22025Y-29025D01*
X22025Y-29025D02*
X25625Y-29025D01*
X14175Y-29025D02*
X19625Y-29025D01*
X55395Y-29025D02*
X55625Y-29255D01*
X55625Y-29255D02*
X55625Y-30025D01*
X13625Y-30025D02*
X13625Y-29575D01*
X49625Y-29025D02*
X49625Y-30025D01*
X43625Y-29025D02*
X43625Y-30025D01*
X37625Y-29025D02*
X37625Y-30025D01*
X31625Y-29025D02*
X31625Y-30025D01*
X25625Y-29025D02*
X25625Y-30025D01*
X19625Y-29025D02*
X19625Y-30025D01*
X13625Y-35350D02*
X13950Y-35025D01*
X43625Y-35025D02*
X49625Y-35025D01*
X40000Y-35025D02*
X43625Y-35025D01*
X37625Y-35025D02*
X40000Y-35025D01*
X31625Y-35025D02*
X37625Y-35025D01*
X26400Y-35025D02*
X31625Y-35025D01*
X25625Y-35025D02*
X26400Y-35025D01*
X19625Y-35025D02*
X25625Y-35025D01*
X13950Y-35025D02*
X19625Y-35025D01*
X13625Y-36025D02*
X13625Y-35350D01*
X55625Y-35295D02*
X55355Y-35025D01*
X55355Y-35025D02*
X49625Y-35025D01*
X55625Y-36025D02*
X55625Y-35295D01*
X49625Y-35025D02*
X49625Y-36025D01*
X43625Y-35025D02*
X43625Y-36025D01*
X37625Y-35025D02*
X37625Y-36025D01*
X31625Y-35025D02*
X31625Y-36025D01*
X25625Y-35025D02*
X25625Y-36025D01*
X19625Y-35025D02*
X19625Y-36025D01*
X13625Y-41350D02*
X13950Y-41025D01*
X49625Y-41025D02*
X53725Y-41025D01*
X55625Y-42025D02*
X55625Y-41325D01*
X55325Y-41025D02*
X53725Y-41025D01*
X55625Y-41325D02*
X55325Y-41025D01*
X43625Y-41025D02*
X49625Y-41025D01*
X40000Y-41025D02*
X43625Y-41025D01*
X37625Y-41025D02*
X40000Y-41025D01*
X31625Y-41025D02*
X37625Y-41025D01*
X26400Y-41025D02*
X31625Y-41025D01*
X25625Y-41025D02*
X26400Y-41025D01*
X19625Y-41025D02*
X25625Y-41025D01*
X13950Y-41025D02*
X19625Y-41025D01*
X13625Y-42025D02*
X13625Y-41350D01*
X49625Y-41025D02*
X49625Y-42025D01*
X43625Y-41025D02*
X43625Y-42025D01*
X37625Y-41025D02*
X37625Y-42025D01*
X31625Y-41025D02*
X31625Y-42025D01*
X25625Y-41025D02*
X25625Y-42025D01*
X19625Y-41025D02*
X19625Y-42025D01*
X13625Y-47400D02*
X14000Y-47025D01*
X49625Y-47025D02*
X50930Y-47025D01*
X43625Y-47025D02*
X49625Y-47025D01*
X40000Y-47025D02*
X43625Y-47025D01*
X37625Y-47025D02*
X40000Y-47025D01*
X31625Y-47025D02*
X37625Y-47025D01*
X26400Y-47025D02*
X31625Y-47025D01*
X25625Y-47025D02*
X26400Y-47025D01*
X19625Y-47025D02*
X25625Y-47025D01*
X14000Y-47025D02*
X19625Y-47025D01*
X13625Y-48025D02*
X13625Y-47400D01*
X55325Y-47025D02*
X55625Y-47325D01*
X55625Y-47325D02*
X55625Y-48025D01*
X50930Y-47025D02*
X55325Y-47025D01*
X49625Y-47025D02*
X49625Y-48025D01*
X43625Y-47025D02*
X43625Y-48025D01*
X37625Y-47025D02*
X37625Y-48025D01*
X31625Y-47025D02*
X31625Y-48025D01*
X25625Y-47025D02*
X25625Y-48025D01*
X19625Y-47025D02*
X19625Y-48025D01*
X13630Y-54020D02*
X13625Y-54025D01*
X13625Y-54025D02*
X13625Y-53365D01*
X40000Y-53025D02*
X43625Y-53025D01*
X37625Y-53025D02*
X40000Y-53025D01*
X31625Y-53025D02*
X37625Y-53025D01*
X26400Y-53025D02*
X31625Y-53025D01*
X25625Y-53025D02*
X26400Y-53025D01*
X19625Y-53025D02*
X25625Y-53025D01*
X17195Y-53025D02*
X19625Y-53025D01*
X16700Y-53520D02*
X17195Y-53025D01*
X15260Y-53520D02*
X16700Y-53520D01*
X14765Y-53025D02*
X15260Y-53520D01*
X13965Y-53025D02*
X14765Y-53025D01*
X13625Y-53365D02*
X13965Y-53025D01*
X43625Y-53025D02*
X43625Y-54025D01*
X37625Y-53025D02*
X37625Y-54025D01*
X31625Y-53025D02*
X31625Y-54025D01*
X25625Y-53025D02*
X25625Y-54025D01*
X19625Y-53025D02*
X19625Y-54025D01*
X26400Y-53020D02*
X26400Y-53025D01*
X26400Y-47020D02*
X26400Y-47025D01*
X26400Y-41020D02*
X26400Y-41025D01*
X26400Y-35020D02*
X26400Y-35025D01*
X26400Y-23020D02*
X26400Y-23025D01*
X26400Y-17020D02*
X26400Y-17025D01*
X26400Y-11020D02*
X26400Y-11025D01*
X44500Y-17020D02*
X44500Y-17025D01*
X40000Y-11020D02*
X40000Y-11025D01*
X40000Y-17020D02*
X40000Y-17025D01*
X40000Y-23020D02*
X40000Y-23025D01*
X40020Y-29000D02*
X40020Y-29025D01*
X40000Y-35020D02*
X40000Y-35025D01*
X40000Y-41020D02*
X40000Y-41025D01*
X40000Y-47020D02*
X40000Y-47025D01*
X40000Y-53020D02*
X40000Y-53025D01*
X53100Y-54025D02*
X54100Y-53025D01*
X54100Y-53025D02*
X55140Y-53025D01*
X55140Y-53025D02*
X55625Y-53510D01*
X55625Y-53510D02*
X55625Y-54025D01*
X50950Y-54025D02*
X53100Y-54025D01*
X49950Y-53025D02*
X50950Y-54025D01*
X49625Y-53025D02*
X49950Y-53025D01*
X43625Y-53025D02*
X49625Y-53025D01*
X49625Y-54025D02*
X49625Y-53025D01*
M02*
