%FSLAX34Y34*%
G04 Gerber Fmt 3.4, Leading zero omitted, Abs format*
G04 (created by PCBNEW (2014-05-21 BZR 4875)-product) date Friday 23 May 2014 05:29:24 PM IST*
%MOIN*%
G01*
G70*
G90*
G04 APERTURE LIST*
%ADD10C,0.006000*%
%ADD11C,0.010000*%
%ADD12R,0.196850X0.035433*%
%ADD13C,0.240000*%
%ADD14R,0.133858X0.055118*%
%ADD15R,0.220472X0.090551*%
%ADD16R,0.120000X0.120000*%
%ADD17R,0.056000X0.042000*%
%ADD18R,0.080000X0.040000*%
%ADD19C,0.080000*%
%ADD20C,0.035000*%
%ADD21C,0.025000*%
G04 APERTURE END LIST*
G54D10*
G54D11*
X58000Y-46400D02*
G75*
G03X57400Y-45800I-600J0D01*
G74*
G01*
X56800Y-45200D02*
G75*
G03X57400Y-45800I600J0D01*
G74*
G01*
X57400Y-33800D02*
G75*
G03X56800Y-34400I0J-600D01*
G74*
G01*
X57400Y-33800D02*
G75*
G03X58000Y-33200I0J600D01*
G74*
G01*
X10000Y-21600D02*
G75*
G03X10600Y-22200I600J0D01*
G74*
G01*
X11200Y-22800D02*
G75*
G03X10600Y-22200I-600J0D01*
G74*
G01*
X10600Y-34200D02*
G75*
G03X10000Y-34800I0J-600D01*
G74*
G01*
X10600Y-34200D02*
G75*
G03X11200Y-33600I0J600D01*
G74*
G01*
X58000Y-33200D02*
X58000Y-13000D01*
X58000Y-46400D02*
X58000Y-55000D01*
X10000Y-34800D02*
X10000Y-55000D01*
X10000Y-21600D02*
X10000Y-13000D01*
X56800Y-39800D02*
X56800Y-45200D01*
X56800Y-39800D02*
X56800Y-34400D01*
X11200Y-28200D02*
X11200Y-33600D01*
X11200Y-28200D02*
X11200Y-22800D01*
X55000Y-58000D02*
X13000Y-58000D01*
X13000Y-10000D02*
X55000Y-10000D01*
X10000Y-55000D02*
G75*
G03X13000Y-58000I3000J0D01*
G74*
G01*
X58000Y-13000D02*
G75*
G03X55000Y-10000I-3000J0D01*
G74*
G01*
X13000Y-10000D02*
G75*
G03X10000Y-13000I0J-3000D01*
G74*
G01*
X55000Y-58000D02*
G75*
G03X58000Y-55000I0J3000D01*
G74*
G01*
G54D12*
X49122Y-36300D03*
X51877Y-36300D03*
X51877Y-37300D03*
X49122Y-37300D03*
X51877Y-38300D03*
X49122Y-38300D03*
X51877Y-39300D03*
X49122Y-39300D03*
X51877Y-40300D03*
X49122Y-40300D03*
X51877Y-41300D03*
X49122Y-41300D03*
X51877Y-42300D03*
X49122Y-42300D03*
X51877Y-43300D03*
X49122Y-43300D03*
G54D13*
X22000Y-55000D03*
X46000Y-55000D03*
X22000Y-37000D03*
X46000Y-37000D03*
X22000Y-31000D03*
X46000Y-31000D03*
X22000Y-13000D03*
X46000Y-13000D03*
G54D14*
X23500Y-20007D03*
X23500Y-20992D03*
G54D15*
X20901Y-22015D03*
X20901Y-18984D03*
G54D14*
X44500Y-20992D03*
X44500Y-20007D03*
G54D15*
X47098Y-18984D03*
X47098Y-22015D03*
G54D13*
X16000Y-16000D03*
X52000Y-16000D03*
X16000Y-52000D03*
X52000Y-52000D03*
G54D12*
X16122Y-24700D03*
X18877Y-24700D03*
X18877Y-25700D03*
X16122Y-25700D03*
X18877Y-26700D03*
X16122Y-26700D03*
X18877Y-27700D03*
X16122Y-27700D03*
X18877Y-28700D03*
X16122Y-28700D03*
X18877Y-29700D03*
X16122Y-29700D03*
X18877Y-30700D03*
X16122Y-30700D03*
X18877Y-31700D03*
X16122Y-31700D03*
G54D16*
X29600Y-13000D03*
X26400Y-13000D03*
X29600Y-19000D03*
X26400Y-19000D03*
X29600Y-25000D03*
X26400Y-25000D03*
X29595Y-31000D03*
X26395Y-31000D03*
X29600Y-37000D03*
X26400Y-37000D03*
X29600Y-43000D03*
X26400Y-43000D03*
X29600Y-49000D03*
X26400Y-49000D03*
X29600Y-55000D03*
X26400Y-55000D03*
G54D17*
X40000Y-12600D03*
X40000Y-13400D03*
X40000Y-18600D03*
X40000Y-19400D03*
X40000Y-24600D03*
X40000Y-25400D03*
X40000Y-30600D03*
X40000Y-31400D03*
X40000Y-36600D03*
X40000Y-37400D03*
X40000Y-42600D03*
X40000Y-43400D03*
X40000Y-48600D03*
X40000Y-49400D03*
X40000Y-54600D03*
X40000Y-55400D03*
G54D10*
G36*
X33100Y-37100D02*
X33100Y-36900D01*
X33900Y-36700D01*
X33900Y-37300D01*
X33100Y-37100D01*
X33100Y-37100D01*
G37*
G36*
X34100Y-37300D02*
X34100Y-36700D01*
X34900Y-36900D01*
X34900Y-37100D01*
X34100Y-37300D01*
X34100Y-37300D01*
G37*
G54D18*
X35600Y-37000D03*
X32400Y-37000D03*
G54D10*
G36*
X33100Y-36100D02*
X33100Y-35900D01*
X33900Y-35700D01*
X33900Y-36300D01*
X33100Y-36100D01*
X33100Y-36100D01*
G37*
G36*
X34100Y-36300D02*
X34100Y-35700D01*
X34900Y-35900D01*
X34900Y-36100D01*
X34100Y-36300D01*
X34100Y-36300D01*
G37*
G54D18*
X35600Y-36000D03*
X32400Y-36000D03*
G54D10*
G36*
X33100Y-35100D02*
X33100Y-34900D01*
X33900Y-34700D01*
X33900Y-35300D01*
X33100Y-35100D01*
X33100Y-35100D01*
G37*
G36*
X34100Y-35300D02*
X34100Y-34700D01*
X34900Y-34900D01*
X34900Y-35100D01*
X34100Y-35300D01*
X34100Y-35300D01*
G37*
G54D18*
X35600Y-35000D03*
X32400Y-35000D03*
G54D10*
G36*
X33100Y-34100D02*
X33100Y-33900D01*
X33900Y-33700D01*
X33900Y-34300D01*
X33100Y-34100D01*
X33100Y-34100D01*
G37*
G36*
X34100Y-34300D02*
X34100Y-33700D01*
X34900Y-33900D01*
X34900Y-34100D01*
X34100Y-34300D01*
X34100Y-34300D01*
G37*
G54D18*
X35600Y-34000D03*
X32400Y-34000D03*
G54D10*
G36*
X33100Y-33100D02*
X33100Y-32900D01*
X33900Y-32700D01*
X33900Y-33300D01*
X33100Y-33100D01*
X33100Y-33100D01*
G37*
G36*
X34100Y-33300D02*
X34100Y-32700D01*
X34900Y-32900D01*
X34900Y-33100D01*
X34100Y-33300D01*
X34100Y-33300D01*
G37*
G54D18*
X35600Y-33000D03*
X32400Y-33000D03*
G54D10*
G36*
X33100Y-32100D02*
X33100Y-31900D01*
X33900Y-31700D01*
X33900Y-32300D01*
X33100Y-32100D01*
X33100Y-32100D01*
G37*
G36*
X34100Y-32300D02*
X34100Y-31700D01*
X34900Y-31900D01*
X34900Y-32100D01*
X34100Y-32300D01*
X34100Y-32300D01*
G37*
G54D18*
X35600Y-32000D03*
X32400Y-32000D03*
G54D10*
G36*
X33100Y-31100D02*
X33100Y-30900D01*
X33900Y-30700D01*
X33900Y-31300D01*
X33100Y-31100D01*
X33100Y-31100D01*
G37*
G36*
X34100Y-31300D02*
X34100Y-30700D01*
X34900Y-30900D01*
X34900Y-31100D01*
X34100Y-31300D01*
X34100Y-31300D01*
G37*
G54D18*
X35600Y-31000D03*
X32400Y-31000D03*
G54D14*
X44500Y-47500D03*
X44500Y-46515D03*
G54D15*
X47098Y-45492D03*
X47098Y-49507D03*
G54D14*
X44500Y-48484D03*
X23500Y-47500D03*
X23500Y-48484D03*
G54D15*
X20901Y-49507D03*
X20901Y-45492D03*
G54D14*
X23500Y-46515D03*
G54D19*
X14375Y-46025D03*
X48625Y-51975D03*
X12375Y-47025D03*
X52125Y-48475D03*
X12375Y-41025D03*
X55625Y-44975D03*
X12375Y-35025D03*
X55625Y-38975D03*
X12375Y-29025D03*
X55630Y-32980D03*
X12375Y-23025D03*
X55625Y-26975D03*
X14375Y-22025D03*
X55625Y-20975D03*
X16375Y-22025D03*
X55625Y-14975D03*
X49625Y-45975D03*
X54625Y-45975D03*
X53630Y-33980D03*
X50630Y-33980D03*
G54D20*
X20695Y-28375D03*
X29600Y-56980D03*
X29600Y-50980D03*
X29600Y-44960D03*
X29600Y-38960D03*
X29600Y-26960D03*
X29600Y-20980D03*
X29600Y-14980D03*
X43280Y-20980D03*
X29595Y-32210D03*
X40000Y-14980D03*
X40000Y-20980D03*
X40000Y-26980D03*
X40000Y-32980D03*
X40000Y-38980D03*
X40000Y-44980D03*
X40000Y-50980D03*
X40000Y-56980D03*
X50975Y-44975D03*
X22025Y-29025D03*
X50930Y-47025D03*
X53725Y-41025D03*
X26400Y-53020D03*
X26400Y-47020D03*
X26400Y-41020D03*
X26400Y-35020D03*
X26400Y-23020D03*
X26400Y-17020D03*
X26400Y-11020D03*
X44500Y-17020D03*
X26395Y-29025D03*
X40000Y-11020D03*
X40000Y-17020D03*
X40000Y-23020D03*
X40020Y-29000D03*
X40000Y-35020D03*
X40000Y-41020D03*
X40000Y-47020D03*
X40000Y-53020D03*
G54D11*
X17350Y-28200D02*
X14800Y-28200D01*
X18877Y-27700D02*
X17850Y-27700D01*
X17850Y-27700D02*
X17350Y-28200D01*
X23500Y-46515D02*
X17825Y-46515D01*
X17335Y-46025D02*
X17825Y-46515D01*
X14375Y-46025D02*
X17335Y-46025D01*
X14375Y-28625D02*
X14800Y-28200D01*
X14375Y-46025D02*
X14375Y-28625D01*
X34500Y-37000D02*
X35600Y-37000D01*
X47900Y-39800D02*
X47140Y-40560D01*
X47900Y-39800D02*
X50350Y-39800D01*
X50850Y-39300D02*
X51877Y-39300D01*
X50350Y-39800D02*
X50850Y-39300D01*
X35600Y-37000D02*
X36280Y-37000D01*
X38305Y-40560D02*
X36435Y-38690D01*
X36435Y-38690D02*
X36435Y-37155D01*
X36435Y-37155D02*
X36280Y-37000D01*
X47140Y-40560D02*
X38305Y-40560D01*
X51700Y-46650D02*
X51700Y-47850D01*
X54280Y-44070D02*
X51700Y-46650D01*
X51877Y-39300D02*
X53590Y-39300D01*
X53590Y-39300D02*
X54280Y-39990D01*
X54280Y-39990D02*
X54280Y-44070D01*
X48625Y-50925D02*
X51700Y-47850D01*
X48625Y-51975D02*
X48625Y-50925D01*
X33500Y-37000D02*
X32400Y-37000D01*
X23665Y-28815D02*
X22050Y-27200D01*
X17800Y-27200D02*
X22050Y-27200D01*
X17300Y-27700D02*
X16122Y-27700D01*
X17300Y-27700D02*
X17800Y-27200D01*
X31800Y-37000D02*
X29075Y-34275D01*
X29075Y-34275D02*
X25450Y-34275D01*
X25450Y-34275D02*
X23665Y-32490D01*
X23665Y-32490D02*
X23665Y-28815D01*
X32400Y-37000D02*
X31800Y-37000D01*
X14850Y-27700D02*
X14005Y-28545D01*
X16122Y-27700D02*
X14850Y-27700D01*
X14005Y-28545D02*
X14005Y-44405D01*
X12375Y-46035D02*
X14005Y-44405D01*
X12375Y-47025D02*
X12375Y-46035D01*
X35600Y-36000D02*
X34500Y-36000D01*
X49122Y-39300D02*
X47950Y-39300D01*
X36255Y-36000D02*
X35600Y-36000D01*
X47950Y-39300D02*
X46920Y-40330D01*
X49122Y-39300D02*
X49950Y-39300D01*
X38425Y-40330D02*
X36750Y-38655D01*
X36750Y-38655D02*
X36750Y-36495D01*
X36750Y-36495D02*
X36255Y-36000D01*
X46920Y-40330D02*
X38425Y-40330D01*
X53560Y-38800D02*
X54630Y-39870D01*
X50300Y-39300D02*
X49122Y-39300D01*
X50300Y-39300D02*
X50800Y-38800D01*
X50800Y-38800D02*
X53560Y-38800D01*
X52125Y-48475D02*
X52125Y-46700D01*
X52125Y-46700D02*
X54630Y-44195D01*
X54630Y-44195D02*
X54630Y-39870D01*
X18877Y-26700D02*
X22000Y-26700D01*
X33500Y-36000D02*
X32400Y-36000D01*
X18877Y-26700D02*
X17750Y-26700D01*
X14880Y-27200D02*
X13640Y-28440D01*
X17250Y-27200D02*
X14880Y-27200D01*
X17750Y-26700D02*
X17250Y-27200D01*
X32400Y-36000D02*
X32400Y-35880D01*
X23940Y-28640D02*
X22000Y-26700D01*
X31160Y-36000D02*
X29190Y-34030D01*
X29190Y-34030D02*
X25535Y-34030D01*
X25535Y-34030D02*
X23940Y-32435D01*
X23940Y-32435D02*
X23940Y-28640D01*
X32400Y-36000D02*
X31160Y-36000D01*
X13640Y-39760D02*
X12375Y-41025D01*
X13640Y-28440D02*
X13640Y-39760D01*
X34500Y-35000D02*
X35600Y-35000D01*
X50300Y-38800D02*
X48000Y-38800D01*
X36410Y-35000D02*
X35600Y-35000D01*
X48000Y-38800D02*
X46695Y-40105D01*
X51877Y-38300D02*
X50800Y-38300D01*
X50800Y-38300D02*
X50300Y-38800D01*
X51877Y-38300D02*
X53520Y-38300D01*
X55625Y-40405D02*
X53520Y-38300D01*
X55625Y-44975D02*
X55625Y-40405D01*
X38545Y-40105D02*
X37020Y-38580D01*
X37020Y-38580D02*
X37020Y-35610D01*
X37020Y-35610D02*
X36410Y-35000D01*
X46695Y-40105D02*
X38545Y-40105D01*
X17300Y-26700D02*
X16122Y-26700D01*
X21940Y-26200D02*
X17800Y-26200D01*
X17800Y-26200D02*
X17300Y-26700D01*
X32400Y-35000D02*
X33500Y-35000D01*
X16122Y-26700D02*
X14920Y-26700D01*
X14920Y-26700D02*
X13285Y-28335D01*
X24240Y-28500D02*
X21940Y-26200D01*
X30545Y-35000D02*
X29310Y-33765D01*
X29310Y-33765D02*
X25630Y-33765D01*
X25630Y-33765D02*
X24240Y-32375D01*
X24240Y-32375D02*
X24240Y-28500D01*
X32400Y-35000D02*
X30545Y-35000D01*
X13285Y-34115D02*
X12375Y-35025D01*
X13285Y-28335D02*
X13285Y-34115D01*
X35600Y-34000D02*
X34500Y-34000D01*
X36415Y-34000D02*
X35600Y-34000D01*
X48050Y-38300D02*
X46470Y-39880D01*
X49122Y-38300D02*
X48050Y-38300D01*
X50300Y-38300D02*
X49122Y-38300D01*
X50300Y-38300D02*
X50800Y-37800D01*
X50800Y-37800D02*
X53100Y-37800D01*
X38655Y-39880D02*
X37290Y-38515D01*
X37290Y-38515D02*
X37290Y-34875D01*
X37290Y-34875D02*
X36415Y-34000D01*
X46470Y-39880D02*
X38655Y-39880D01*
X54450Y-37800D02*
X55625Y-38975D01*
X53100Y-37800D02*
X54450Y-37800D01*
X18877Y-25700D02*
X21880Y-25700D01*
X33500Y-34000D02*
X32400Y-34000D01*
X17750Y-25700D02*
X17250Y-26200D01*
X18877Y-25700D02*
X17750Y-25700D01*
X24535Y-28355D02*
X21880Y-25700D01*
X29915Y-34000D02*
X29435Y-33520D01*
X29435Y-33520D02*
X25715Y-33520D01*
X25715Y-33520D02*
X24535Y-32340D01*
X24535Y-32340D02*
X24535Y-28355D01*
X32400Y-34000D02*
X29915Y-34000D01*
X14610Y-26200D02*
X12375Y-28435D01*
X12375Y-28435D02*
X12375Y-29025D01*
X17250Y-26200D02*
X14610Y-26200D01*
X34500Y-33000D02*
X35600Y-33000D01*
X53300Y-37300D02*
X53640Y-36960D01*
X51877Y-37300D02*
X53300Y-37300D01*
X37570Y-34255D02*
X36315Y-33000D01*
X37570Y-38445D02*
X37570Y-34255D01*
X38785Y-39660D02*
X37570Y-38445D01*
X50300Y-37800D02*
X48050Y-37800D01*
X48050Y-37800D02*
X46190Y-39660D01*
X38785Y-39660D02*
X46190Y-39660D01*
X50800Y-37300D02*
X50300Y-37800D01*
X50800Y-37300D02*
X51877Y-37300D01*
X35600Y-33000D02*
X36315Y-33000D01*
X53640Y-35650D02*
X52410Y-34420D01*
X52410Y-34420D02*
X52410Y-33360D01*
X52410Y-33360D02*
X52790Y-32980D01*
X52790Y-32980D02*
X55630Y-32980D01*
X53640Y-36960D02*
X53640Y-35650D01*
X17750Y-25200D02*
X17250Y-25700D01*
X17250Y-25700D02*
X16122Y-25700D01*
X21850Y-25200D02*
X17750Y-25200D01*
X32400Y-33000D02*
X33500Y-33000D01*
X24780Y-28130D02*
X21850Y-25200D01*
X30745Y-33000D02*
X30480Y-33265D01*
X30480Y-33265D02*
X25800Y-33265D01*
X25800Y-33265D02*
X24780Y-32244D01*
X24780Y-32244D02*
X24780Y-28130D01*
X32400Y-33000D02*
X30745Y-33000D01*
X14170Y-25700D02*
X12375Y-23905D01*
X12375Y-23905D02*
X12375Y-23025D01*
X16122Y-25700D02*
X14170Y-25700D01*
X35600Y-32000D02*
X34500Y-32000D01*
X36350Y-32000D02*
X35600Y-32000D01*
X49122Y-37300D02*
X48100Y-37300D01*
X45975Y-39425D02*
X48100Y-37300D01*
X50300Y-37300D02*
X49122Y-37300D01*
X50300Y-37300D02*
X50800Y-36800D01*
X50800Y-36800D02*
X53020Y-36800D01*
X53020Y-36800D02*
X53330Y-36490D01*
X38905Y-39425D02*
X37820Y-38340D01*
X37820Y-38340D02*
X37820Y-33470D01*
X37820Y-33470D02*
X36350Y-32000D01*
X45975Y-39425D02*
X38905Y-39425D01*
X53330Y-35760D02*
X51900Y-34330D01*
X51900Y-34330D02*
X51900Y-31505D01*
X51900Y-31505D02*
X55625Y-27780D01*
X55625Y-27780D02*
X55625Y-26975D01*
X53330Y-36490D02*
X53330Y-35760D01*
X18877Y-24700D02*
X21820Y-24700D01*
X33500Y-32000D02*
X32400Y-32000D01*
X25045Y-27925D02*
X21820Y-24700D01*
X17250Y-25200D02*
X14850Y-25200D01*
X17750Y-24700D02*
X17250Y-25200D01*
X18877Y-24700D02*
X17750Y-24700D01*
X31335Y-32000D02*
X30330Y-33005D01*
X30330Y-33005D02*
X25880Y-33005D01*
X25880Y-33005D02*
X25045Y-32170D01*
X25045Y-32170D02*
X25045Y-27925D01*
X32400Y-32000D02*
X31335Y-32000D01*
X14375Y-24725D02*
X14850Y-25200D01*
X14375Y-22025D02*
X14375Y-24725D01*
X34500Y-31000D02*
X35600Y-31000D01*
X51877Y-36300D02*
X50800Y-36300D01*
X36100Y-31000D02*
X35600Y-31000D01*
X39355Y-34255D02*
X36100Y-31000D01*
X48000Y-36800D02*
X47700Y-36500D01*
X50300Y-36800D02*
X48000Y-36800D01*
X50800Y-36300D02*
X50300Y-36800D01*
X47700Y-34790D02*
X47210Y-34300D01*
X47210Y-34300D02*
X39395Y-34300D01*
X39395Y-34300D02*
X39355Y-34260D01*
X39355Y-34260D02*
X39355Y-34255D01*
X47700Y-36500D02*
X47700Y-34790D01*
X55625Y-22210D02*
X55625Y-20975D01*
X51877Y-35317D02*
X51610Y-35050D01*
X51610Y-35050D02*
X51610Y-26225D01*
X51610Y-26225D02*
X55625Y-22210D01*
X51877Y-36300D02*
X51877Y-35317D01*
X17750Y-24100D02*
X21660Y-24100D01*
X16122Y-24700D02*
X17150Y-24700D01*
X17150Y-24700D02*
X17750Y-24100D01*
X32400Y-31000D02*
X33500Y-31000D01*
X25290Y-27730D02*
X21660Y-24100D01*
X31970Y-31000D02*
X30225Y-32745D01*
X30225Y-32745D02*
X25950Y-32745D01*
X25950Y-32745D02*
X25290Y-32085D01*
X25290Y-32085D02*
X25290Y-27730D01*
X32400Y-31000D02*
X31970Y-31000D01*
X16375Y-23455D02*
X16375Y-22025D01*
X16122Y-23707D02*
X16375Y-23455D01*
X16122Y-24700D02*
X16122Y-23707D01*
X49865Y-33980D02*
X49122Y-34722D01*
X49122Y-34722D02*
X49122Y-36300D01*
X50630Y-33980D02*
X49865Y-33980D01*
X55625Y-16685D02*
X55625Y-14975D01*
X56220Y-45975D02*
X54625Y-45975D01*
X56595Y-45600D02*
X56220Y-45975D01*
X56595Y-36945D02*
X53630Y-33980D01*
X56595Y-36945D02*
X56595Y-45600D01*
X49084Y-46515D02*
X49625Y-45975D01*
X44500Y-46515D02*
X49084Y-46515D01*
X50630Y-21680D02*
X55625Y-16685D01*
X50630Y-33980D02*
X50630Y-21680D01*
G54D21*
X18877Y-29200D02*
X20270Y-29200D01*
X20695Y-28775D02*
X20695Y-28375D01*
X20270Y-29200D02*
X20695Y-28775D01*
X23500Y-47500D02*
X24515Y-47500D01*
X29600Y-47030D02*
X29600Y-49000D01*
X28860Y-46290D02*
X29600Y-47030D01*
X25725Y-46290D02*
X28860Y-46290D01*
X24515Y-47500D02*
X25725Y-46290D01*
X49122Y-40800D02*
X49145Y-40800D01*
X49145Y-40800D02*
X51877Y-40800D01*
X51877Y-40300D02*
X51877Y-40800D01*
X51877Y-40800D02*
X51877Y-41300D01*
X49122Y-40300D02*
X49122Y-40800D01*
X49122Y-40800D02*
X49122Y-41300D01*
X16122Y-29200D02*
X18877Y-29200D01*
X18877Y-28700D02*
X18877Y-29200D01*
X18877Y-29200D02*
X18877Y-29700D01*
X16122Y-28700D02*
X16122Y-29200D01*
X16122Y-29200D02*
X16122Y-29700D01*
X29600Y-55000D02*
X29600Y-56980D01*
X29600Y-49000D02*
X29600Y-50980D01*
X29600Y-43000D02*
X29600Y-44960D01*
X29600Y-37000D02*
X29600Y-38960D01*
X29600Y-25000D02*
X29600Y-26960D01*
X29600Y-19000D02*
X29600Y-20980D01*
X29600Y-13000D02*
X29600Y-14980D01*
X44500Y-21480D02*
X44380Y-21600D01*
X44380Y-21600D02*
X43520Y-21600D01*
X43520Y-21600D02*
X43280Y-21360D01*
X43280Y-21360D02*
X43280Y-20980D01*
X44500Y-20992D02*
X44500Y-21480D01*
X24787Y-20007D02*
X25760Y-20980D01*
X25760Y-20980D02*
X29600Y-20980D01*
X23500Y-20007D02*
X24787Y-20007D01*
X29595Y-31000D02*
X29595Y-32210D01*
X40000Y-13400D02*
X40000Y-14980D01*
X40000Y-19400D02*
X40000Y-20980D01*
X40000Y-25400D02*
X40000Y-26980D01*
X40000Y-31400D02*
X40000Y-32980D01*
X40000Y-37400D02*
X40000Y-38980D01*
X40000Y-43400D02*
X40000Y-44980D01*
X40000Y-49400D02*
X40000Y-50980D01*
X40000Y-55400D02*
X40000Y-56980D01*
X50975Y-46163D02*
X50975Y-44975D01*
X49638Y-47500D02*
X50975Y-46163D01*
X44500Y-47500D02*
X49638Y-47500D01*
X50657Y-44205D02*
X50975Y-44523D01*
X50975Y-44523D02*
X50975Y-44975D01*
X47725Y-40800D02*
X47340Y-41185D01*
X47340Y-41185D02*
X47340Y-43650D01*
X47340Y-43650D02*
X47895Y-44205D01*
X47895Y-44205D02*
X50657Y-44205D01*
X49145Y-40800D02*
X47725Y-40800D01*
X18877Y-31200D02*
X20055Y-31200D01*
X21525Y-29025D02*
X22025Y-29025D01*
X20350Y-30200D02*
X21525Y-29025D01*
X20350Y-30905D02*
X20350Y-30200D01*
X20055Y-31200D02*
X20350Y-30905D01*
X23500Y-48484D02*
X24400Y-48484D01*
X25865Y-47020D02*
X26400Y-47020D01*
X24400Y-48484D02*
X25865Y-47020D01*
X44500Y-48484D02*
X50265Y-48484D01*
X50930Y-47820D02*
X50930Y-47025D01*
X50265Y-48484D02*
X50930Y-47820D01*
X51877Y-42800D02*
X53240Y-42800D01*
X53725Y-42315D02*
X53725Y-41025D01*
X53240Y-42800D02*
X53725Y-42315D01*
X49122Y-42800D02*
X51877Y-42800D01*
X51877Y-42300D02*
X51877Y-42800D01*
X51877Y-42800D02*
X51877Y-43300D01*
X49122Y-42300D02*
X49122Y-42800D01*
X49122Y-42800D02*
X49122Y-43300D01*
X16122Y-31200D02*
X18877Y-31200D01*
X18877Y-30700D02*
X18877Y-31200D01*
X18877Y-31200D02*
X18877Y-31700D01*
X16122Y-30700D02*
X16122Y-31200D01*
X16122Y-31200D02*
X16122Y-31700D01*
X23500Y-48484D02*
X23500Y-48700D01*
X26400Y-55000D02*
X26400Y-53020D01*
X26400Y-49000D02*
X26400Y-47020D01*
X26400Y-43000D02*
X26400Y-41020D01*
X26400Y-37000D02*
X26400Y-35020D01*
X26400Y-25000D02*
X26400Y-23020D01*
X26400Y-19000D02*
X26400Y-17020D01*
X26400Y-13000D02*
X26400Y-11020D01*
X44500Y-20007D02*
X44500Y-17020D01*
X23500Y-22540D02*
X23980Y-23020D01*
X23980Y-23020D02*
X26400Y-23020D01*
X23500Y-20992D02*
X23500Y-22540D01*
X26395Y-31000D02*
X26395Y-29025D01*
X40000Y-12600D02*
X40000Y-11020D01*
X40000Y-18600D02*
X40000Y-17020D01*
X40000Y-24600D02*
X40000Y-23020D01*
X40000Y-29020D02*
X40020Y-29000D01*
X40000Y-30600D02*
X40000Y-29020D01*
X40000Y-36600D02*
X40000Y-35020D01*
X40000Y-42600D02*
X40000Y-41020D01*
X40000Y-48600D02*
X40000Y-47020D01*
X40000Y-54600D02*
X40000Y-53020D01*
G54D11*
G36*
X47887Y-37087D02*
X47281Y-37693D01*
X47449Y-37289D01*
X47450Y-36712D01*
X47229Y-36179D01*
X46822Y-35771D01*
X46289Y-35550D01*
X45712Y-35549D01*
X45179Y-35770D01*
X44771Y-36177D01*
X44550Y-36710D01*
X44549Y-37287D01*
X44770Y-37820D01*
X45177Y-38228D01*
X45710Y-38449D01*
X46287Y-38450D01*
X46693Y-38282D01*
X45850Y-39125D01*
X40399Y-39125D01*
X40424Y-39064D01*
X40425Y-38895D01*
X40375Y-38774D01*
X40375Y-37841D01*
X40421Y-37821D01*
X40491Y-37751D01*
X40530Y-37659D01*
X40530Y-37560D01*
X40530Y-37140D01*
X40491Y-37048D01*
X40443Y-37000D01*
X40491Y-36951D01*
X40530Y-36859D01*
X40530Y-36687D01*
X40530Y-36512D01*
X40530Y-36340D01*
X40491Y-36248D01*
X40421Y-36178D01*
X40329Y-36140D01*
X40230Y-36140D01*
X40087Y-36140D01*
X40025Y-36202D01*
X40025Y-36575D01*
X40467Y-36575D01*
X40530Y-36512D01*
X40530Y-36687D01*
X40467Y-36625D01*
X40025Y-36625D01*
X40025Y-36632D01*
X39975Y-36632D01*
X39975Y-36625D01*
X39975Y-36575D01*
X39975Y-36202D01*
X39912Y-36140D01*
X39769Y-36140D01*
X39670Y-36140D01*
X39578Y-36178D01*
X39508Y-36248D01*
X39470Y-36340D01*
X39470Y-36512D01*
X39532Y-36575D01*
X39975Y-36575D01*
X39975Y-36625D01*
X39532Y-36625D01*
X39470Y-36687D01*
X39470Y-36859D01*
X39508Y-36951D01*
X39556Y-37000D01*
X39508Y-37048D01*
X39470Y-37140D01*
X39470Y-37239D01*
X39470Y-37659D01*
X39508Y-37751D01*
X39578Y-37821D01*
X39625Y-37841D01*
X39625Y-38774D01*
X39575Y-38895D01*
X39574Y-39064D01*
X39600Y-39125D01*
X39029Y-39125D01*
X38120Y-38215D01*
X38120Y-33470D01*
X38113Y-33437D01*
X39132Y-34457D01*
X39142Y-34472D01*
X39182Y-34512D01*
X39280Y-34577D01*
X39395Y-34600D01*
X47085Y-34600D01*
X47400Y-34914D01*
X47400Y-36500D01*
X47422Y-36614D01*
X47487Y-36712D01*
X47787Y-37012D01*
X47846Y-37051D01*
X47885Y-37077D01*
X47885Y-37077D01*
X47887Y-37077D01*
X47887Y-37087D01*
X47887Y-37087D01*
G37*
X47887Y-37087D02*
X47281Y-37693D01*
X47449Y-37289D01*
X47450Y-36712D01*
X47229Y-36179D01*
X46822Y-35771D01*
X46289Y-35550D01*
X45712Y-35549D01*
X45179Y-35770D01*
X44771Y-36177D01*
X44550Y-36710D01*
X44549Y-37287D01*
X44770Y-37820D01*
X45177Y-38228D01*
X45710Y-38449D01*
X46287Y-38450D01*
X46693Y-38282D01*
X45850Y-39125D01*
X40399Y-39125D01*
X40424Y-39064D01*
X40425Y-38895D01*
X40375Y-38774D01*
X40375Y-37841D01*
X40421Y-37821D01*
X40491Y-37751D01*
X40530Y-37659D01*
X40530Y-37560D01*
X40530Y-37140D01*
X40491Y-37048D01*
X40443Y-37000D01*
X40491Y-36951D01*
X40530Y-36859D01*
X40530Y-36687D01*
X40530Y-36512D01*
X40530Y-36340D01*
X40491Y-36248D01*
X40421Y-36178D01*
X40329Y-36140D01*
X40230Y-36140D01*
X40087Y-36140D01*
X40025Y-36202D01*
X40025Y-36575D01*
X40467Y-36575D01*
X40530Y-36512D01*
X40530Y-36687D01*
X40467Y-36625D01*
X40025Y-36625D01*
X40025Y-36632D01*
X39975Y-36632D01*
X39975Y-36625D01*
X39975Y-36575D01*
X39975Y-36202D01*
X39912Y-36140D01*
X39769Y-36140D01*
X39670Y-36140D01*
X39578Y-36178D01*
X39508Y-36248D01*
X39470Y-36340D01*
X39470Y-36512D01*
X39532Y-36575D01*
X39975Y-36575D01*
X39975Y-36625D01*
X39532Y-36625D01*
X39470Y-36687D01*
X39470Y-36859D01*
X39508Y-36951D01*
X39556Y-37000D01*
X39508Y-37048D01*
X39470Y-37140D01*
X39470Y-37239D01*
X39470Y-37659D01*
X39508Y-37751D01*
X39578Y-37821D01*
X39625Y-37841D01*
X39625Y-38774D01*
X39575Y-38895D01*
X39574Y-39064D01*
X39600Y-39125D01*
X39029Y-39125D01*
X38120Y-38215D01*
X38120Y-33470D01*
X38113Y-33437D01*
X39132Y-34457D01*
X39142Y-34472D01*
X39182Y-34512D01*
X39280Y-34577D01*
X39395Y-34600D01*
X47085Y-34600D01*
X47400Y-34914D01*
X47400Y-36500D01*
X47422Y-36614D01*
X47487Y-36712D01*
X47787Y-37012D01*
X47846Y-37051D01*
X47885Y-37077D01*
X47885Y-37077D01*
X47887Y-37077D01*
X47887Y-37087D01*
G36*
X57700Y-54970D02*
X57489Y-56030D01*
X56905Y-56905D01*
X56030Y-57489D01*
X54970Y-57700D01*
X53450Y-57700D01*
X53450Y-51712D01*
X53229Y-51179D01*
X52822Y-50771D01*
X52289Y-50550D01*
X51712Y-50549D01*
X51179Y-50770D01*
X50771Y-51177D01*
X50550Y-51710D01*
X50549Y-52287D01*
X50770Y-52820D01*
X51177Y-53228D01*
X51710Y-53449D01*
X52287Y-53450D01*
X52820Y-53229D01*
X53228Y-52822D01*
X53449Y-52289D01*
X53450Y-51712D01*
X53450Y-57700D01*
X47450Y-57700D01*
X47450Y-54712D01*
X47229Y-54179D01*
X46822Y-53771D01*
X46289Y-53550D01*
X45712Y-53549D01*
X45419Y-53671D01*
X45419Y-48809D01*
X45419Y-48571D01*
X45356Y-48509D01*
X44525Y-48509D01*
X44525Y-48947D01*
X44587Y-49009D01*
X45119Y-49009D01*
X45219Y-49009D01*
X45310Y-48971D01*
X45381Y-48901D01*
X45419Y-48809D01*
X45419Y-53671D01*
X45179Y-53770D01*
X44771Y-54177D01*
X44550Y-54710D01*
X44549Y-55287D01*
X44770Y-55820D01*
X45177Y-56228D01*
X45710Y-56449D01*
X46287Y-56450D01*
X46820Y-56229D01*
X47228Y-55822D01*
X47449Y-55289D01*
X47450Y-54712D01*
X47450Y-57700D01*
X44475Y-57700D01*
X44475Y-48947D01*
X44475Y-48509D01*
X43643Y-48509D01*
X43580Y-48571D01*
X43580Y-48809D01*
X43618Y-48901D01*
X43689Y-48971D01*
X43780Y-49009D01*
X43880Y-49009D01*
X44412Y-49009D01*
X44475Y-48947D01*
X44475Y-57700D01*
X40530Y-57700D01*
X40530Y-55659D01*
X40530Y-55560D01*
X40530Y-55140D01*
X40491Y-55048D01*
X40443Y-55000D01*
X40491Y-54951D01*
X40530Y-54859D01*
X40530Y-54687D01*
X40530Y-54512D01*
X40530Y-54340D01*
X40530Y-49659D01*
X40530Y-49560D01*
X40530Y-49140D01*
X40491Y-49048D01*
X40443Y-49000D01*
X40491Y-48951D01*
X40530Y-48859D01*
X40530Y-48687D01*
X40530Y-48512D01*
X40530Y-48340D01*
X40530Y-43659D01*
X40530Y-43560D01*
X40530Y-43140D01*
X40491Y-43048D01*
X40443Y-43000D01*
X40491Y-42951D01*
X40530Y-42859D01*
X40530Y-42687D01*
X40530Y-42512D01*
X40530Y-42340D01*
X40491Y-42248D01*
X40421Y-42178D01*
X40329Y-42140D01*
X40230Y-42140D01*
X40087Y-42140D01*
X40025Y-42202D01*
X40025Y-42575D01*
X40467Y-42575D01*
X40530Y-42512D01*
X40530Y-42687D01*
X40467Y-42625D01*
X40025Y-42625D01*
X40025Y-42632D01*
X39975Y-42632D01*
X39975Y-42625D01*
X39975Y-42575D01*
X39975Y-42202D01*
X39912Y-42140D01*
X39769Y-42140D01*
X39670Y-42140D01*
X39578Y-42178D01*
X39508Y-42248D01*
X39470Y-42340D01*
X39470Y-42512D01*
X39532Y-42575D01*
X39975Y-42575D01*
X39975Y-42625D01*
X39532Y-42625D01*
X39470Y-42687D01*
X39470Y-42859D01*
X39508Y-42951D01*
X39556Y-43000D01*
X39508Y-43048D01*
X39470Y-43140D01*
X39470Y-43239D01*
X39470Y-43659D01*
X39508Y-43751D01*
X39578Y-43821D01*
X39625Y-43841D01*
X39625Y-44774D01*
X39575Y-44895D01*
X39574Y-45064D01*
X39639Y-45220D01*
X39758Y-45340D01*
X39915Y-45404D01*
X40084Y-45405D01*
X40240Y-45340D01*
X40360Y-45221D01*
X40424Y-45064D01*
X40425Y-44895D01*
X40375Y-44774D01*
X40375Y-43841D01*
X40421Y-43821D01*
X40491Y-43751D01*
X40530Y-43659D01*
X40530Y-48340D01*
X40491Y-48248D01*
X40421Y-48178D01*
X40329Y-48140D01*
X40230Y-48140D01*
X40087Y-48140D01*
X40025Y-48202D01*
X40025Y-48575D01*
X40467Y-48575D01*
X40530Y-48512D01*
X40530Y-48687D01*
X40467Y-48625D01*
X40025Y-48625D01*
X40025Y-48632D01*
X39975Y-48632D01*
X39975Y-48625D01*
X39975Y-48575D01*
X39975Y-48202D01*
X39912Y-48140D01*
X39769Y-48140D01*
X39670Y-48140D01*
X39578Y-48178D01*
X39508Y-48248D01*
X39470Y-48340D01*
X39470Y-48512D01*
X39532Y-48575D01*
X39975Y-48575D01*
X39975Y-48625D01*
X39532Y-48625D01*
X39470Y-48687D01*
X39470Y-48859D01*
X39508Y-48951D01*
X39556Y-49000D01*
X39508Y-49048D01*
X39470Y-49140D01*
X39470Y-49239D01*
X39470Y-49659D01*
X39508Y-49751D01*
X39578Y-49821D01*
X39625Y-49841D01*
X39625Y-50774D01*
X39575Y-50895D01*
X39574Y-51064D01*
X39639Y-51220D01*
X39758Y-51340D01*
X39915Y-51404D01*
X40084Y-51405D01*
X40240Y-51340D01*
X40360Y-51221D01*
X40424Y-51064D01*
X40425Y-50895D01*
X40375Y-50774D01*
X40375Y-49841D01*
X40421Y-49821D01*
X40491Y-49751D01*
X40530Y-49659D01*
X40530Y-54340D01*
X40491Y-54248D01*
X40421Y-54178D01*
X40329Y-54140D01*
X40230Y-54140D01*
X40087Y-54140D01*
X40025Y-54202D01*
X40025Y-54575D01*
X40467Y-54575D01*
X40530Y-54512D01*
X40530Y-54687D01*
X40467Y-54625D01*
X40025Y-54625D01*
X40025Y-54632D01*
X39975Y-54632D01*
X39975Y-54625D01*
X39975Y-54575D01*
X39975Y-54202D01*
X39912Y-54140D01*
X39769Y-54140D01*
X39670Y-54140D01*
X39578Y-54178D01*
X39508Y-54248D01*
X39470Y-54340D01*
X39470Y-54512D01*
X39532Y-54575D01*
X39975Y-54575D01*
X39975Y-54625D01*
X39532Y-54625D01*
X39470Y-54687D01*
X39470Y-54859D01*
X39508Y-54951D01*
X39556Y-55000D01*
X39508Y-55048D01*
X39470Y-55140D01*
X39470Y-55239D01*
X39470Y-55659D01*
X39508Y-55751D01*
X39578Y-55821D01*
X39625Y-55841D01*
X39625Y-56774D01*
X39575Y-56895D01*
X39574Y-57064D01*
X39639Y-57220D01*
X39758Y-57340D01*
X39915Y-57404D01*
X40084Y-57405D01*
X40240Y-57340D01*
X40360Y-57221D01*
X40424Y-57064D01*
X40425Y-56895D01*
X40375Y-56774D01*
X40375Y-55841D01*
X40421Y-55821D01*
X40491Y-55751D01*
X40530Y-55659D01*
X40530Y-57700D01*
X30450Y-57700D01*
X30450Y-55649D01*
X30450Y-55550D01*
X30450Y-54350D01*
X30411Y-54258D01*
X30341Y-54188D01*
X30249Y-54150D01*
X30150Y-54150D01*
X28950Y-54150D01*
X28858Y-54188D01*
X28788Y-54258D01*
X28750Y-54350D01*
X28750Y-54449D01*
X28750Y-55649D01*
X28788Y-55741D01*
X28858Y-55811D01*
X28950Y-55850D01*
X29049Y-55850D01*
X29225Y-55850D01*
X29225Y-56774D01*
X29175Y-56895D01*
X29174Y-57064D01*
X29239Y-57220D01*
X29358Y-57340D01*
X29515Y-57404D01*
X29684Y-57405D01*
X29840Y-57340D01*
X29960Y-57221D01*
X30024Y-57064D01*
X30025Y-56895D01*
X29975Y-56774D01*
X29975Y-55850D01*
X30249Y-55850D01*
X30341Y-55811D01*
X30411Y-55741D01*
X30450Y-55649D01*
X30450Y-57700D01*
X27250Y-57700D01*
X27250Y-55649D01*
X27250Y-55550D01*
X27250Y-55087D01*
X27250Y-54912D01*
X27250Y-54449D01*
X27250Y-54350D01*
X27250Y-49649D01*
X27250Y-49550D01*
X27250Y-49087D01*
X27250Y-48912D01*
X27250Y-48449D01*
X27250Y-48350D01*
X27211Y-48258D01*
X27141Y-48188D01*
X27049Y-48150D01*
X26487Y-48150D01*
X26425Y-48212D01*
X26425Y-48975D01*
X27187Y-48975D01*
X27250Y-48912D01*
X27250Y-49087D01*
X27187Y-49025D01*
X26425Y-49025D01*
X26425Y-49787D01*
X26487Y-49850D01*
X27049Y-49850D01*
X27141Y-49811D01*
X27211Y-49741D01*
X27250Y-49649D01*
X27250Y-54350D01*
X27211Y-54258D01*
X27141Y-54188D01*
X27049Y-54150D01*
X26487Y-54150D01*
X26425Y-54212D01*
X26425Y-54975D01*
X27187Y-54975D01*
X27250Y-54912D01*
X27250Y-55087D01*
X27187Y-55025D01*
X26425Y-55025D01*
X26425Y-55787D01*
X26487Y-55850D01*
X27049Y-55850D01*
X27141Y-55811D01*
X27211Y-55741D01*
X27250Y-55649D01*
X27250Y-57700D01*
X26375Y-57700D01*
X26375Y-55787D01*
X26375Y-55025D01*
X26375Y-54975D01*
X26375Y-54212D01*
X26375Y-49787D01*
X26375Y-49025D01*
X26375Y-48975D01*
X26375Y-48212D01*
X26312Y-48150D01*
X25750Y-48150D01*
X25658Y-48188D01*
X25588Y-48258D01*
X25550Y-48350D01*
X25550Y-48449D01*
X25550Y-48912D01*
X25612Y-48975D01*
X26375Y-48975D01*
X26375Y-49025D01*
X25612Y-49025D01*
X25550Y-49087D01*
X25550Y-49550D01*
X25550Y-49649D01*
X25588Y-49741D01*
X25658Y-49811D01*
X25750Y-49850D01*
X26312Y-49850D01*
X26375Y-49787D01*
X26375Y-54212D01*
X26312Y-54150D01*
X25750Y-54150D01*
X25658Y-54188D01*
X25588Y-54258D01*
X25550Y-54350D01*
X25550Y-54449D01*
X25550Y-54912D01*
X25612Y-54975D01*
X26375Y-54975D01*
X26375Y-55025D01*
X25612Y-55025D01*
X25550Y-55087D01*
X25550Y-55550D01*
X25550Y-55649D01*
X25588Y-55741D01*
X25658Y-55811D01*
X25750Y-55850D01*
X26312Y-55850D01*
X26375Y-55787D01*
X26375Y-57700D01*
X24419Y-57700D01*
X24419Y-48809D01*
X24419Y-48571D01*
X24356Y-48509D01*
X23525Y-48509D01*
X23525Y-48947D01*
X23587Y-49009D01*
X24119Y-49009D01*
X24219Y-49009D01*
X24310Y-48971D01*
X24381Y-48901D01*
X24419Y-48809D01*
X24419Y-57700D01*
X23475Y-57700D01*
X23475Y-48947D01*
X23475Y-48509D01*
X22643Y-48509D01*
X22580Y-48571D01*
X22580Y-48809D01*
X22618Y-48901D01*
X22689Y-48971D01*
X22780Y-49009D01*
X22880Y-49009D01*
X23412Y-49009D01*
X23475Y-48947D01*
X23475Y-57700D01*
X23450Y-57700D01*
X23450Y-54712D01*
X23229Y-54179D01*
X22822Y-53771D01*
X22289Y-53550D01*
X22253Y-53550D01*
X22253Y-50010D01*
X22253Y-49910D01*
X22253Y-49005D01*
X22215Y-48913D01*
X22145Y-48843D01*
X22053Y-48805D01*
X21954Y-48805D01*
X19749Y-48805D01*
X19657Y-48843D01*
X19587Y-48913D01*
X19549Y-49005D01*
X19549Y-49104D01*
X19549Y-50010D01*
X19587Y-50102D01*
X19657Y-50172D01*
X19749Y-50210D01*
X19848Y-50210D01*
X22053Y-50210D01*
X22145Y-50172D01*
X22215Y-50102D01*
X22253Y-50010D01*
X22253Y-53550D01*
X21712Y-53549D01*
X21179Y-53770D01*
X20771Y-54177D01*
X20550Y-54710D01*
X20549Y-55287D01*
X20770Y-55820D01*
X21177Y-56228D01*
X21710Y-56449D01*
X22287Y-56450D01*
X22820Y-56229D01*
X23228Y-55822D01*
X23449Y-55289D01*
X23450Y-54712D01*
X23450Y-57700D01*
X17450Y-57700D01*
X17450Y-51712D01*
X17229Y-51179D01*
X16822Y-50771D01*
X16289Y-50550D01*
X15712Y-50549D01*
X15179Y-50770D01*
X14771Y-51177D01*
X14550Y-51710D01*
X14549Y-52287D01*
X14770Y-52820D01*
X15177Y-53228D01*
X15710Y-53449D01*
X16287Y-53450D01*
X16820Y-53229D01*
X17228Y-52822D01*
X17449Y-52289D01*
X17450Y-51712D01*
X17450Y-57700D01*
X13029Y-57700D01*
X11969Y-57489D01*
X11094Y-56905D01*
X10510Y-56030D01*
X10300Y-54970D01*
X10300Y-34829D01*
X10328Y-34687D01*
X10392Y-34592D01*
X10487Y-34528D01*
X10658Y-34494D01*
X10888Y-34448D01*
X10888Y-34448D01*
X10932Y-34430D01*
X10996Y-34403D01*
X10996Y-34403D01*
X11190Y-34273D01*
X11190Y-34273D01*
X11190Y-34273D01*
X11232Y-34232D01*
X11273Y-34190D01*
X11273Y-34190D01*
X11273Y-34190D01*
X11403Y-33996D01*
X11403Y-33996D01*
X11448Y-33888D01*
X11448Y-33888D01*
X11448Y-33888D01*
X11494Y-33658D01*
X11494Y-33628D01*
X11500Y-33600D01*
X11500Y-28200D01*
X11500Y-22800D01*
X11494Y-22771D01*
X11494Y-22741D01*
X11448Y-22511D01*
X11448Y-22511D01*
X11448Y-22511D01*
X11403Y-22403D01*
X11403Y-22403D01*
X11273Y-22209D01*
X11273Y-22209D01*
X11273Y-22209D01*
X11232Y-22167D01*
X11190Y-22126D01*
X11190Y-22126D01*
X10996Y-21996D01*
X10996Y-21996D01*
X10932Y-21969D01*
X10888Y-21951D01*
X10658Y-21905D01*
X10487Y-21871D01*
X10392Y-21807D01*
X10328Y-21712D01*
X10300Y-21570D01*
X10300Y-13029D01*
X10510Y-11969D01*
X11094Y-11094D01*
X11969Y-10510D01*
X13029Y-10300D01*
X54970Y-10300D01*
X56030Y-10510D01*
X56905Y-11094D01*
X57489Y-11969D01*
X57700Y-13029D01*
X57700Y-33170D01*
X57671Y-33312D01*
X57607Y-33407D01*
X57512Y-33471D01*
X57341Y-33505D01*
X57111Y-33551D01*
X57111Y-33551D01*
X57003Y-33596D01*
X56809Y-33726D01*
X56809Y-33726D01*
X56767Y-33767D01*
X56726Y-33809D01*
X56726Y-33809D01*
X56596Y-34003D01*
X56569Y-34067D01*
X56551Y-34111D01*
X56505Y-34341D01*
X56505Y-34371D01*
X56500Y-34400D01*
X56500Y-36425D01*
X56280Y-36205D01*
X56280Y-32851D01*
X56181Y-32612D01*
X55998Y-32429D01*
X55759Y-32330D01*
X55501Y-32329D01*
X55262Y-32428D01*
X55079Y-32611D01*
X55050Y-32680D01*
X52790Y-32680D01*
X52675Y-32702D01*
X52577Y-32767D01*
X52200Y-33145D01*
X52200Y-31629D01*
X55837Y-27992D01*
X55837Y-27992D01*
X55876Y-27933D01*
X55902Y-27894D01*
X55902Y-27894D01*
X55925Y-27780D01*
X55925Y-27554D01*
X55992Y-27526D01*
X56175Y-27343D01*
X56274Y-27104D01*
X56275Y-26846D01*
X56176Y-26607D01*
X55993Y-26424D01*
X55754Y-26325D01*
X55496Y-26324D01*
X55257Y-26423D01*
X55074Y-26606D01*
X54975Y-26845D01*
X54974Y-27103D01*
X55073Y-27342D01*
X55256Y-27525D01*
X55325Y-27554D01*
X55325Y-27655D01*
X51910Y-31070D01*
X51910Y-26349D01*
X55837Y-22422D01*
X55837Y-22422D01*
X55902Y-22324D01*
X55924Y-22210D01*
X55925Y-22210D01*
X55925Y-21554D01*
X55992Y-21526D01*
X56175Y-21343D01*
X56274Y-21104D01*
X56275Y-20846D01*
X56176Y-20607D01*
X55993Y-20424D01*
X55754Y-20325D01*
X55496Y-20324D01*
X55257Y-20423D01*
X55074Y-20606D01*
X54975Y-20845D01*
X54974Y-21103D01*
X55073Y-21342D01*
X55256Y-21525D01*
X55325Y-21554D01*
X55325Y-22085D01*
X51397Y-26012D01*
X51332Y-26110D01*
X51310Y-26225D01*
X51310Y-35050D01*
X51332Y-35164D01*
X51397Y-35262D01*
X51577Y-35442D01*
X51577Y-35872D01*
X50843Y-35872D01*
X50752Y-35910D01*
X50681Y-35981D01*
X50656Y-36041D01*
X50656Y-36041D01*
X50587Y-36087D01*
X50356Y-36319D01*
X50356Y-36073D01*
X50318Y-35981D01*
X50247Y-35910D01*
X50156Y-35872D01*
X50056Y-35872D01*
X49422Y-35872D01*
X49422Y-34847D01*
X49989Y-34280D01*
X50050Y-34280D01*
X50078Y-34347D01*
X50261Y-34530D01*
X50500Y-34629D01*
X50758Y-34630D01*
X50997Y-34531D01*
X51180Y-34348D01*
X51279Y-34109D01*
X51280Y-33851D01*
X51181Y-33612D01*
X50998Y-33429D01*
X50930Y-33400D01*
X50930Y-21804D01*
X55837Y-16897D01*
X55837Y-16897D01*
X55876Y-16838D01*
X55902Y-16799D01*
X55902Y-16799D01*
X55925Y-16685D01*
X55925Y-15554D01*
X55992Y-15526D01*
X56175Y-15343D01*
X56274Y-15104D01*
X56275Y-14846D01*
X56176Y-14607D01*
X55993Y-14424D01*
X55754Y-14325D01*
X55496Y-14324D01*
X55257Y-14423D01*
X55074Y-14606D01*
X54975Y-14845D01*
X54974Y-15103D01*
X55073Y-15342D01*
X55256Y-15525D01*
X55325Y-15554D01*
X55325Y-16560D01*
X53450Y-18435D01*
X53450Y-15712D01*
X53229Y-15179D01*
X52822Y-14771D01*
X52289Y-14550D01*
X51712Y-14549D01*
X51179Y-14770D01*
X50771Y-15177D01*
X50550Y-15710D01*
X50549Y-16287D01*
X50770Y-16820D01*
X51177Y-17228D01*
X51710Y-17449D01*
X52287Y-17450D01*
X52820Y-17229D01*
X53228Y-16822D01*
X53449Y-16289D01*
X53450Y-15712D01*
X53450Y-18435D01*
X50417Y-21467D01*
X50352Y-21565D01*
X50330Y-21680D01*
X50330Y-33400D01*
X50262Y-33428D01*
X50079Y-33611D01*
X50050Y-33680D01*
X49865Y-33680D01*
X49750Y-33702D01*
X49652Y-33767D01*
X48909Y-34510D01*
X48844Y-34608D01*
X48822Y-34722D01*
X48822Y-35872D01*
X48450Y-35872D01*
X48450Y-22518D01*
X48450Y-22418D01*
X48450Y-21513D01*
X48450Y-19486D01*
X48450Y-19387D01*
X48450Y-18481D01*
X48412Y-18389D01*
X48342Y-18319D01*
X48250Y-18281D01*
X48151Y-18281D01*
X47450Y-18281D01*
X47450Y-12712D01*
X47229Y-12179D01*
X46822Y-11771D01*
X46289Y-11550D01*
X45712Y-11549D01*
X45179Y-11770D01*
X44771Y-12177D01*
X44550Y-12710D01*
X44549Y-13287D01*
X44770Y-13820D01*
X45177Y-14228D01*
X45710Y-14449D01*
X46287Y-14450D01*
X46820Y-14229D01*
X47228Y-13822D01*
X47449Y-13289D01*
X47450Y-12712D01*
X47450Y-18281D01*
X45946Y-18281D01*
X45854Y-18319D01*
X45784Y-18389D01*
X45746Y-18481D01*
X45746Y-18581D01*
X45746Y-19486D01*
X45784Y-19578D01*
X45854Y-19648D01*
X45946Y-19687D01*
X46045Y-19687D01*
X48250Y-19687D01*
X48342Y-19648D01*
X48412Y-19578D01*
X48450Y-19486D01*
X48450Y-21513D01*
X48412Y-21421D01*
X48342Y-21351D01*
X48250Y-21312D01*
X48151Y-21312D01*
X45946Y-21312D01*
X45854Y-21351D01*
X45784Y-21421D01*
X45746Y-21513D01*
X45746Y-21612D01*
X45746Y-22518D01*
X45784Y-22610D01*
X45854Y-22680D01*
X45946Y-22718D01*
X46045Y-22718D01*
X48250Y-22718D01*
X48342Y-22680D01*
X48412Y-22610D01*
X48450Y-22518D01*
X48450Y-35872D01*
X48088Y-35872D01*
X48000Y-35909D01*
X48000Y-34790D01*
X47977Y-34675D01*
X47912Y-34577D01*
X47912Y-34577D01*
X47450Y-34115D01*
X47450Y-30712D01*
X47229Y-30179D01*
X46822Y-29771D01*
X46289Y-29550D01*
X45712Y-29549D01*
X45419Y-29671D01*
X45419Y-21317D01*
X45419Y-21217D01*
X45419Y-20666D01*
X45381Y-20574D01*
X45310Y-20504D01*
X45299Y-20500D01*
X45310Y-20495D01*
X45381Y-20425D01*
X45419Y-20333D01*
X45419Y-20095D01*
X45419Y-19920D01*
X45419Y-19682D01*
X45381Y-19590D01*
X45310Y-19520D01*
X45219Y-19482D01*
X45119Y-19482D01*
X44587Y-19482D01*
X44525Y-19544D01*
X44525Y-19982D01*
X45356Y-19982D01*
X45419Y-19920D01*
X45419Y-20095D01*
X45356Y-20032D01*
X44525Y-20032D01*
X44525Y-20040D01*
X44475Y-20040D01*
X44475Y-20032D01*
X44475Y-19982D01*
X44475Y-19544D01*
X44412Y-19482D01*
X43880Y-19482D01*
X43780Y-19482D01*
X43689Y-19520D01*
X43618Y-19590D01*
X43580Y-19682D01*
X43580Y-19920D01*
X43643Y-19982D01*
X44475Y-19982D01*
X44475Y-20032D01*
X43643Y-20032D01*
X43580Y-20095D01*
X43580Y-20333D01*
X43618Y-20425D01*
X43689Y-20495D01*
X43700Y-20500D01*
X43689Y-20504D01*
X43618Y-20574D01*
X43580Y-20666D01*
X43580Y-20679D01*
X43521Y-20619D01*
X43364Y-20555D01*
X43195Y-20554D01*
X43039Y-20619D01*
X42919Y-20738D01*
X42855Y-20895D01*
X42854Y-21064D01*
X42905Y-21185D01*
X42905Y-21360D01*
X42933Y-21503D01*
X43014Y-21625D01*
X43254Y-21865D01*
X43327Y-21913D01*
X43376Y-21946D01*
X43376Y-21946D01*
X43520Y-21975D01*
X44380Y-21975D01*
X44523Y-21946D01*
X44645Y-21865D01*
X44765Y-21745D01*
X44846Y-21623D01*
X44867Y-21517D01*
X44867Y-21517D01*
X45219Y-21517D01*
X45310Y-21479D01*
X45381Y-21409D01*
X45419Y-21317D01*
X45419Y-29671D01*
X45179Y-29770D01*
X44771Y-30177D01*
X44550Y-30710D01*
X44549Y-31287D01*
X44770Y-31820D01*
X45177Y-32228D01*
X45710Y-32449D01*
X46287Y-32450D01*
X46820Y-32229D01*
X47228Y-31822D01*
X47449Y-31289D01*
X47450Y-30712D01*
X47450Y-34115D01*
X47422Y-34087D01*
X47324Y-34022D01*
X47210Y-34000D01*
X40530Y-34000D01*
X40530Y-31659D01*
X40530Y-31560D01*
X40530Y-31140D01*
X40491Y-31048D01*
X40443Y-31000D01*
X40491Y-30951D01*
X40530Y-30859D01*
X40530Y-30687D01*
X40530Y-30512D01*
X40530Y-30340D01*
X40530Y-25659D01*
X40530Y-25560D01*
X40530Y-25140D01*
X40491Y-25048D01*
X40443Y-25000D01*
X40491Y-24951D01*
X40530Y-24859D01*
X40530Y-24687D01*
X40530Y-24512D01*
X40530Y-24340D01*
X40530Y-19659D01*
X40530Y-19560D01*
X40530Y-19140D01*
X40491Y-19048D01*
X40443Y-19000D01*
X40491Y-18951D01*
X40530Y-18859D01*
X40530Y-18687D01*
X40530Y-18512D01*
X40530Y-18340D01*
X40530Y-13659D01*
X40530Y-13560D01*
X40530Y-13140D01*
X40491Y-13048D01*
X40443Y-13000D01*
X40491Y-12951D01*
X40530Y-12859D01*
X40530Y-12687D01*
X40530Y-12512D01*
X40530Y-12340D01*
X40491Y-12248D01*
X40421Y-12178D01*
X40329Y-12140D01*
X40230Y-12140D01*
X40087Y-12140D01*
X40025Y-12202D01*
X40025Y-12575D01*
X40467Y-12575D01*
X40530Y-12512D01*
X40530Y-12687D01*
X40467Y-12625D01*
X40025Y-12625D01*
X40025Y-12632D01*
X39975Y-12632D01*
X39975Y-12625D01*
X39975Y-12575D01*
X39975Y-12202D01*
X39912Y-12140D01*
X39769Y-12140D01*
X39670Y-12140D01*
X39578Y-12178D01*
X39508Y-12248D01*
X39470Y-12340D01*
X39470Y-12512D01*
X39532Y-12575D01*
X39975Y-12575D01*
X39975Y-12625D01*
X39532Y-12625D01*
X39470Y-12687D01*
X39470Y-12859D01*
X39508Y-12951D01*
X39556Y-13000D01*
X39508Y-13048D01*
X39470Y-13140D01*
X39470Y-13239D01*
X39470Y-13659D01*
X39508Y-13751D01*
X39578Y-13821D01*
X39625Y-13841D01*
X39625Y-14774D01*
X39575Y-14895D01*
X39574Y-15064D01*
X39639Y-15220D01*
X39758Y-15340D01*
X39915Y-15404D01*
X40084Y-15405D01*
X40240Y-15340D01*
X40360Y-15221D01*
X40424Y-15064D01*
X40425Y-14895D01*
X40375Y-14774D01*
X40375Y-13841D01*
X40421Y-13821D01*
X40491Y-13751D01*
X40530Y-13659D01*
X40530Y-18340D01*
X40491Y-18248D01*
X40421Y-18178D01*
X40329Y-18140D01*
X40230Y-18140D01*
X40087Y-18140D01*
X40025Y-18202D01*
X40025Y-18575D01*
X40467Y-18575D01*
X40530Y-18512D01*
X40530Y-18687D01*
X40467Y-18625D01*
X40025Y-18625D01*
X40025Y-18632D01*
X39975Y-18632D01*
X39975Y-18625D01*
X39975Y-18575D01*
X39975Y-18202D01*
X39912Y-18140D01*
X39769Y-18140D01*
X39670Y-18140D01*
X39578Y-18178D01*
X39508Y-18248D01*
X39470Y-18340D01*
X39470Y-18512D01*
X39532Y-18575D01*
X39975Y-18575D01*
X39975Y-18625D01*
X39532Y-18625D01*
X39470Y-18687D01*
X39470Y-18859D01*
X39508Y-18951D01*
X39556Y-19000D01*
X39508Y-19048D01*
X39470Y-19140D01*
X39470Y-19239D01*
X39470Y-19659D01*
X39508Y-19751D01*
X39578Y-19821D01*
X39625Y-19841D01*
X39625Y-20774D01*
X39575Y-20895D01*
X39574Y-21064D01*
X39639Y-21220D01*
X39758Y-21340D01*
X39915Y-21404D01*
X40084Y-21405D01*
X40240Y-21340D01*
X40360Y-21221D01*
X40424Y-21064D01*
X40425Y-20895D01*
X40375Y-20774D01*
X40375Y-19841D01*
X40421Y-19821D01*
X40491Y-19751D01*
X40530Y-19659D01*
X40530Y-24340D01*
X40491Y-24248D01*
X40421Y-24178D01*
X40329Y-24140D01*
X40230Y-24140D01*
X40087Y-24140D01*
X40025Y-24202D01*
X40025Y-24575D01*
X40467Y-24575D01*
X40530Y-24512D01*
X40530Y-24687D01*
X40467Y-24625D01*
X40025Y-24625D01*
X40025Y-24632D01*
X39975Y-24632D01*
X39975Y-24625D01*
X39975Y-24575D01*
X39975Y-24202D01*
X39912Y-24140D01*
X39769Y-24140D01*
X39670Y-24140D01*
X39578Y-24178D01*
X39508Y-24248D01*
X39470Y-24340D01*
X39470Y-24512D01*
X39532Y-24575D01*
X39975Y-24575D01*
X39975Y-24625D01*
X39532Y-24625D01*
X39470Y-24687D01*
X39470Y-24859D01*
X39508Y-24951D01*
X39556Y-25000D01*
X39508Y-25048D01*
X39470Y-25140D01*
X39470Y-25239D01*
X39470Y-25659D01*
X39508Y-25751D01*
X39578Y-25821D01*
X39625Y-25841D01*
X39625Y-26774D01*
X39575Y-26895D01*
X39574Y-27064D01*
X39639Y-27220D01*
X39758Y-27340D01*
X39915Y-27404D01*
X40084Y-27405D01*
X40240Y-27340D01*
X40360Y-27221D01*
X40424Y-27064D01*
X40425Y-26895D01*
X40375Y-26774D01*
X40375Y-25841D01*
X40421Y-25821D01*
X40491Y-25751D01*
X40530Y-25659D01*
X40530Y-30340D01*
X40491Y-30248D01*
X40421Y-30178D01*
X40329Y-30140D01*
X40230Y-30140D01*
X40087Y-30140D01*
X40025Y-30202D01*
X40025Y-30575D01*
X40467Y-30575D01*
X40530Y-30512D01*
X40530Y-30687D01*
X40467Y-30625D01*
X40025Y-30625D01*
X40025Y-30632D01*
X39975Y-30632D01*
X39975Y-30625D01*
X39975Y-30575D01*
X39975Y-30202D01*
X39912Y-30140D01*
X39769Y-30140D01*
X39670Y-30140D01*
X39578Y-30178D01*
X39508Y-30248D01*
X39470Y-30340D01*
X39470Y-30512D01*
X39532Y-30575D01*
X39975Y-30575D01*
X39975Y-30625D01*
X39532Y-30625D01*
X39470Y-30687D01*
X39470Y-30859D01*
X39508Y-30951D01*
X39556Y-31000D01*
X39508Y-31048D01*
X39470Y-31140D01*
X39470Y-31239D01*
X39470Y-31659D01*
X39508Y-31751D01*
X39578Y-31821D01*
X39625Y-31841D01*
X39625Y-32774D01*
X39575Y-32895D01*
X39574Y-33064D01*
X39639Y-33220D01*
X39758Y-33340D01*
X39915Y-33404D01*
X40084Y-33405D01*
X40240Y-33340D01*
X40360Y-33221D01*
X40424Y-33064D01*
X40425Y-32895D01*
X40375Y-32774D01*
X40375Y-31841D01*
X40421Y-31821D01*
X40491Y-31751D01*
X40530Y-31659D01*
X40530Y-34000D01*
X39524Y-34000D01*
X36312Y-30787D01*
X36247Y-30744D01*
X36211Y-30658D01*
X36141Y-30588D01*
X36049Y-30550D01*
X35950Y-30550D01*
X35150Y-30550D01*
X35114Y-30564D01*
X35111Y-30558D01*
X35041Y-30488D01*
X34949Y-30450D01*
X34850Y-30450D01*
X34050Y-30450D01*
X34000Y-30470D01*
X33949Y-30450D01*
X33850Y-30450D01*
X33050Y-30450D01*
X32958Y-30488D01*
X32888Y-30558D01*
X32885Y-30564D01*
X32849Y-30550D01*
X32750Y-30550D01*
X31950Y-30550D01*
X31858Y-30588D01*
X31788Y-30658D01*
X31750Y-30750D01*
X31750Y-30795D01*
X30450Y-32095D01*
X30450Y-25649D01*
X30450Y-25550D01*
X30450Y-24350D01*
X30450Y-19649D01*
X30450Y-19550D01*
X30450Y-18350D01*
X30450Y-13649D01*
X30450Y-13550D01*
X30450Y-12350D01*
X30411Y-12258D01*
X30341Y-12188D01*
X30249Y-12150D01*
X30150Y-12150D01*
X28950Y-12150D01*
X28858Y-12188D01*
X28788Y-12258D01*
X28750Y-12350D01*
X28750Y-12449D01*
X28750Y-13649D01*
X28788Y-13741D01*
X28858Y-13811D01*
X28950Y-13850D01*
X29049Y-13850D01*
X29225Y-13850D01*
X29225Y-14774D01*
X29175Y-14895D01*
X29174Y-15064D01*
X29239Y-15220D01*
X29358Y-15340D01*
X29515Y-15404D01*
X29684Y-15405D01*
X29840Y-15340D01*
X29960Y-15221D01*
X30024Y-15064D01*
X30025Y-14895D01*
X29975Y-14774D01*
X29975Y-13850D01*
X30249Y-13850D01*
X30341Y-13811D01*
X30411Y-13741D01*
X30450Y-13649D01*
X30450Y-18350D01*
X30411Y-18258D01*
X30341Y-18188D01*
X30249Y-18150D01*
X30150Y-18150D01*
X28950Y-18150D01*
X28858Y-18188D01*
X28788Y-18258D01*
X28750Y-18350D01*
X28750Y-18449D01*
X28750Y-19649D01*
X28788Y-19741D01*
X28858Y-19811D01*
X28950Y-19850D01*
X29049Y-19850D01*
X29225Y-19850D01*
X29225Y-20605D01*
X27250Y-20605D01*
X27250Y-19649D01*
X27250Y-19550D01*
X27250Y-19087D01*
X27250Y-18912D01*
X27250Y-18449D01*
X27250Y-18350D01*
X27250Y-13649D01*
X27250Y-13550D01*
X27250Y-13087D01*
X27250Y-12912D01*
X27250Y-12449D01*
X27250Y-12350D01*
X27211Y-12258D01*
X27141Y-12188D01*
X27049Y-12150D01*
X26487Y-12150D01*
X26425Y-12212D01*
X26425Y-12975D01*
X27187Y-12975D01*
X27250Y-12912D01*
X27250Y-13087D01*
X27187Y-13025D01*
X26425Y-13025D01*
X26425Y-13787D01*
X26487Y-13850D01*
X27049Y-13850D01*
X27141Y-13811D01*
X27211Y-13741D01*
X27250Y-13649D01*
X27250Y-18350D01*
X27211Y-18258D01*
X27141Y-18188D01*
X27049Y-18150D01*
X26487Y-18150D01*
X26425Y-18212D01*
X26425Y-18975D01*
X27187Y-18975D01*
X27250Y-18912D01*
X27250Y-19087D01*
X27187Y-19025D01*
X26425Y-19025D01*
X26425Y-19787D01*
X26487Y-19850D01*
X27049Y-19850D01*
X27141Y-19811D01*
X27211Y-19741D01*
X27250Y-19649D01*
X27250Y-20605D01*
X26375Y-20605D01*
X26375Y-19787D01*
X26375Y-19025D01*
X26375Y-18975D01*
X26375Y-18212D01*
X26375Y-13787D01*
X26375Y-13025D01*
X26375Y-12975D01*
X26375Y-12212D01*
X26312Y-12150D01*
X25750Y-12150D01*
X25658Y-12188D01*
X25588Y-12258D01*
X25550Y-12350D01*
X25550Y-12449D01*
X25550Y-12912D01*
X25612Y-12975D01*
X26375Y-12975D01*
X26375Y-13025D01*
X25612Y-13025D01*
X25550Y-13087D01*
X25550Y-13550D01*
X25550Y-13649D01*
X25588Y-13741D01*
X25658Y-13811D01*
X25750Y-13850D01*
X26312Y-13850D01*
X26375Y-13787D01*
X26375Y-18212D01*
X26312Y-18150D01*
X25750Y-18150D01*
X25658Y-18188D01*
X25588Y-18258D01*
X25550Y-18350D01*
X25550Y-18449D01*
X25550Y-18912D01*
X25612Y-18975D01*
X26375Y-18975D01*
X26375Y-19025D01*
X25612Y-19025D01*
X25550Y-19087D01*
X25550Y-19550D01*
X25550Y-19649D01*
X25588Y-19741D01*
X25658Y-19811D01*
X25750Y-19850D01*
X26312Y-19850D01*
X26375Y-19787D01*
X26375Y-20605D01*
X25915Y-20605D01*
X25053Y-19742D01*
X24931Y-19661D01*
X24787Y-19632D01*
X24398Y-19632D01*
X24381Y-19590D01*
X24310Y-19520D01*
X24219Y-19482D01*
X24119Y-19482D01*
X23450Y-19482D01*
X23450Y-12712D01*
X23229Y-12179D01*
X22822Y-11771D01*
X22289Y-11550D01*
X21712Y-11549D01*
X21179Y-11770D01*
X20771Y-12177D01*
X20550Y-12710D01*
X20549Y-13287D01*
X20770Y-13820D01*
X21177Y-14228D01*
X21710Y-14449D01*
X22287Y-14450D01*
X22820Y-14229D01*
X23228Y-13822D01*
X23449Y-13289D01*
X23450Y-12712D01*
X23450Y-19482D01*
X22780Y-19482D01*
X22689Y-19520D01*
X22618Y-19590D01*
X22580Y-19682D01*
X22580Y-19782D01*
X22580Y-20333D01*
X22618Y-20425D01*
X22689Y-20495D01*
X22700Y-20500D01*
X22689Y-20504D01*
X22618Y-20574D01*
X22580Y-20666D01*
X22580Y-20904D01*
X22643Y-20967D01*
X23475Y-20967D01*
X23475Y-20959D01*
X23525Y-20959D01*
X23525Y-20967D01*
X24356Y-20967D01*
X24419Y-20904D01*
X24419Y-20666D01*
X24381Y-20574D01*
X24310Y-20504D01*
X24299Y-20499D01*
X24310Y-20495D01*
X24381Y-20425D01*
X24398Y-20382D01*
X24632Y-20382D01*
X25494Y-21245D01*
X25616Y-21326D01*
X25760Y-21355D01*
X29394Y-21355D01*
X29515Y-21404D01*
X29684Y-21405D01*
X29840Y-21340D01*
X29960Y-21221D01*
X30024Y-21064D01*
X30025Y-20895D01*
X29975Y-20774D01*
X29975Y-19850D01*
X30249Y-19850D01*
X30341Y-19811D01*
X30411Y-19741D01*
X30450Y-19649D01*
X30450Y-24350D01*
X30411Y-24258D01*
X30341Y-24188D01*
X30249Y-24150D01*
X30150Y-24150D01*
X28950Y-24150D01*
X28858Y-24188D01*
X28788Y-24258D01*
X28750Y-24350D01*
X28750Y-24449D01*
X28750Y-25649D01*
X28788Y-25741D01*
X28858Y-25811D01*
X28950Y-25850D01*
X29049Y-25850D01*
X29225Y-25850D01*
X29225Y-26754D01*
X29175Y-26875D01*
X29174Y-27044D01*
X29239Y-27200D01*
X29358Y-27320D01*
X29515Y-27384D01*
X29684Y-27385D01*
X29840Y-27320D01*
X29960Y-27201D01*
X30024Y-27044D01*
X30025Y-26875D01*
X29975Y-26754D01*
X29975Y-25850D01*
X30249Y-25850D01*
X30341Y-25811D01*
X30411Y-25741D01*
X30450Y-25649D01*
X30450Y-32095D01*
X30100Y-32445D01*
X29957Y-32445D01*
X30019Y-32294D01*
X30020Y-32125D01*
X29970Y-32004D01*
X29970Y-31850D01*
X30244Y-31850D01*
X30336Y-31811D01*
X30406Y-31741D01*
X30445Y-31649D01*
X30445Y-31550D01*
X30445Y-30350D01*
X30406Y-30258D01*
X30336Y-30188D01*
X30244Y-30150D01*
X30145Y-30150D01*
X28945Y-30150D01*
X28853Y-30188D01*
X28783Y-30258D01*
X28745Y-30350D01*
X28745Y-30449D01*
X28745Y-31649D01*
X28783Y-31741D01*
X28853Y-31811D01*
X28945Y-31850D01*
X29044Y-31850D01*
X29220Y-31850D01*
X29220Y-32004D01*
X29170Y-32125D01*
X29169Y-32294D01*
X29232Y-32445D01*
X27250Y-32445D01*
X27250Y-25649D01*
X27250Y-25550D01*
X27250Y-25087D01*
X27250Y-24912D01*
X27250Y-24449D01*
X27250Y-24350D01*
X27211Y-24258D01*
X27141Y-24188D01*
X27049Y-24150D01*
X26487Y-24150D01*
X26425Y-24212D01*
X26425Y-24975D01*
X27187Y-24975D01*
X27250Y-24912D01*
X27250Y-25087D01*
X27187Y-25025D01*
X26425Y-25025D01*
X26425Y-25787D01*
X26487Y-25850D01*
X27049Y-25850D01*
X27141Y-25811D01*
X27211Y-25741D01*
X27250Y-25649D01*
X27250Y-32445D01*
X27245Y-32445D01*
X27245Y-31649D01*
X27245Y-31550D01*
X27245Y-31087D01*
X27245Y-30912D01*
X27245Y-30449D01*
X27245Y-30350D01*
X27206Y-30258D01*
X27136Y-30188D01*
X27044Y-30150D01*
X26482Y-30150D01*
X26420Y-30212D01*
X26420Y-30975D01*
X27182Y-30975D01*
X27245Y-30912D01*
X27245Y-31087D01*
X27182Y-31025D01*
X26420Y-31025D01*
X26420Y-31787D01*
X26482Y-31850D01*
X27044Y-31850D01*
X27136Y-31811D01*
X27206Y-31741D01*
X27245Y-31649D01*
X27245Y-32445D01*
X26375Y-32445D01*
X26375Y-25787D01*
X26375Y-25025D01*
X26375Y-24975D01*
X26375Y-24212D01*
X26312Y-24150D01*
X25750Y-24150D01*
X25658Y-24188D01*
X25588Y-24258D01*
X25550Y-24350D01*
X25550Y-24449D01*
X25550Y-24912D01*
X25612Y-24975D01*
X26375Y-24975D01*
X26375Y-25025D01*
X25612Y-25025D01*
X25550Y-25087D01*
X25550Y-25550D01*
X25550Y-25649D01*
X25588Y-25741D01*
X25658Y-25811D01*
X25750Y-25850D01*
X26312Y-25850D01*
X26375Y-25787D01*
X26375Y-32445D01*
X26074Y-32445D01*
X25590Y-31960D01*
X25590Y-31748D01*
X25653Y-31811D01*
X25745Y-31850D01*
X26307Y-31850D01*
X26370Y-31787D01*
X26370Y-31025D01*
X26362Y-31025D01*
X26362Y-30975D01*
X26370Y-30975D01*
X26370Y-30212D01*
X26307Y-30150D01*
X25745Y-30150D01*
X25653Y-30188D01*
X25590Y-30251D01*
X25590Y-27730D01*
X25567Y-27615D01*
X25567Y-27615D01*
X25502Y-27517D01*
X24419Y-26435D01*
X24419Y-21317D01*
X24419Y-21079D01*
X24356Y-21017D01*
X23525Y-21017D01*
X23525Y-21455D01*
X23587Y-21517D01*
X24119Y-21517D01*
X24219Y-21517D01*
X24310Y-21479D01*
X24381Y-21409D01*
X24419Y-21317D01*
X24419Y-26435D01*
X23475Y-25490D01*
X23475Y-21455D01*
X23475Y-21017D01*
X22643Y-21017D01*
X22580Y-21079D01*
X22580Y-21317D01*
X22618Y-21409D01*
X22689Y-21479D01*
X22780Y-21517D01*
X22880Y-21517D01*
X23412Y-21517D01*
X23475Y-21455D01*
X23475Y-25490D01*
X22253Y-24269D01*
X22253Y-22518D01*
X22253Y-22418D01*
X22253Y-21513D01*
X22253Y-19486D01*
X22253Y-19387D01*
X22253Y-18481D01*
X22215Y-18389D01*
X22145Y-18319D01*
X22053Y-18281D01*
X21954Y-18281D01*
X19749Y-18281D01*
X19657Y-18319D01*
X19587Y-18389D01*
X19549Y-18481D01*
X19549Y-18581D01*
X19549Y-19486D01*
X19587Y-19578D01*
X19657Y-19648D01*
X19749Y-19687D01*
X19848Y-19687D01*
X22053Y-19687D01*
X22145Y-19648D01*
X22215Y-19578D01*
X22253Y-19486D01*
X22253Y-21513D01*
X22215Y-21421D01*
X22145Y-21351D01*
X22053Y-21312D01*
X21954Y-21312D01*
X19749Y-21312D01*
X19657Y-21351D01*
X19587Y-21421D01*
X19549Y-21513D01*
X19549Y-21612D01*
X19549Y-22518D01*
X19587Y-22610D01*
X19657Y-22680D01*
X19749Y-22718D01*
X19848Y-22718D01*
X22053Y-22718D01*
X22145Y-22680D01*
X22215Y-22610D01*
X22253Y-22518D01*
X22253Y-24269D01*
X21872Y-23887D01*
X21774Y-23822D01*
X21660Y-23800D01*
X17750Y-23800D01*
X17635Y-23822D01*
X17537Y-23887D01*
X17450Y-23975D01*
X17450Y-15712D01*
X17229Y-15179D01*
X16822Y-14771D01*
X16289Y-14550D01*
X15712Y-14549D01*
X15179Y-14770D01*
X14771Y-15177D01*
X14550Y-15710D01*
X14549Y-16287D01*
X14770Y-16820D01*
X15177Y-17228D01*
X15710Y-17449D01*
X16287Y-17450D01*
X16820Y-17229D01*
X17228Y-16822D01*
X17449Y-16289D01*
X17450Y-15712D01*
X17450Y-23975D01*
X17152Y-24272D01*
X17056Y-24272D01*
X16422Y-24272D01*
X16422Y-23832D01*
X16587Y-23667D01*
X16587Y-23667D01*
X16652Y-23569D01*
X16674Y-23455D01*
X16675Y-23455D01*
X16675Y-22604D01*
X16742Y-22576D01*
X16925Y-22393D01*
X17024Y-22154D01*
X17025Y-21896D01*
X16926Y-21657D01*
X16743Y-21474D01*
X16504Y-21375D01*
X16246Y-21374D01*
X16007Y-21473D01*
X15824Y-21656D01*
X15725Y-21895D01*
X15724Y-22153D01*
X15823Y-22392D01*
X16006Y-22575D01*
X16075Y-22604D01*
X16075Y-23330D01*
X15909Y-23495D01*
X15844Y-23593D01*
X15822Y-23707D01*
X15822Y-24272D01*
X15088Y-24272D01*
X14996Y-24310D01*
X14925Y-24381D01*
X14887Y-24473D01*
X14887Y-24572D01*
X14887Y-24813D01*
X14675Y-24600D01*
X14675Y-22604D01*
X14742Y-22576D01*
X14925Y-22393D01*
X15024Y-22154D01*
X15025Y-21896D01*
X14926Y-21657D01*
X14743Y-21474D01*
X14504Y-21375D01*
X14246Y-21374D01*
X14007Y-21473D01*
X13824Y-21656D01*
X13725Y-21895D01*
X13724Y-22153D01*
X13823Y-22392D01*
X14006Y-22575D01*
X14075Y-22604D01*
X14075Y-24725D01*
X14097Y-24839D01*
X14162Y-24937D01*
X14625Y-25400D01*
X14294Y-25400D01*
X12675Y-23780D01*
X12675Y-23604D01*
X12742Y-23576D01*
X12925Y-23393D01*
X13024Y-23154D01*
X13025Y-22896D01*
X12926Y-22657D01*
X12743Y-22474D01*
X12504Y-22375D01*
X12246Y-22374D01*
X12007Y-22473D01*
X11824Y-22656D01*
X11725Y-22895D01*
X11724Y-23153D01*
X11823Y-23392D01*
X12006Y-23575D01*
X12075Y-23604D01*
X12075Y-23905D01*
X12097Y-24019D01*
X12162Y-24117D01*
X13957Y-25912D01*
X14055Y-25977D01*
X14055Y-25977D01*
X14170Y-26000D01*
X14385Y-26000D01*
X12162Y-28222D01*
X12097Y-28320D01*
X12075Y-28435D01*
X12075Y-28445D01*
X12007Y-28473D01*
X11824Y-28656D01*
X11725Y-28895D01*
X11724Y-29153D01*
X11823Y-29392D01*
X12006Y-29575D01*
X12245Y-29674D01*
X12503Y-29675D01*
X12742Y-29576D01*
X12925Y-29393D01*
X12985Y-29250D01*
X12985Y-33990D01*
X12572Y-34403D01*
X12504Y-34375D01*
X12246Y-34374D01*
X12007Y-34473D01*
X11824Y-34656D01*
X11725Y-34895D01*
X11724Y-35153D01*
X11823Y-35392D01*
X12006Y-35575D01*
X12245Y-35674D01*
X12503Y-35675D01*
X12742Y-35576D01*
X12925Y-35393D01*
X13024Y-35154D01*
X13025Y-34896D01*
X12996Y-34827D01*
X13340Y-34484D01*
X13340Y-39635D01*
X12572Y-40403D01*
X12504Y-40375D01*
X12246Y-40374D01*
X12007Y-40473D01*
X11824Y-40656D01*
X11725Y-40895D01*
X11724Y-41153D01*
X11823Y-41392D01*
X12006Y-41575D01*
X12245Y-41674D01*
X12503Y-41675D01*
X12742Y-41576D01*
X12925Y-41393D01*
X13024Y-41154D01*
X13025Y-40896D01*
X12996Y-40827D01*
X13705Y-40119D01*
X13705Y-44280D01*
X12162Y-45822D01*
X12097Y-45920D01*
X12075Y-46035D01*
X12075Y-46445D01*
X12007Y-46473D01*
X11824Y-46656D01*
X11725Y-46895D01*
X11724Y-47153D01*
X11823Y-47392D01*
X12006Y-47575D01*
X12245Y-47674D01*
X12503Y-47675D01*
X12742Y-47576D01*
X12925Y-47393D01*
X13024Y-47154D01*
X13025Y-46896D01*
X12926Y-46657D01*
X12743Y-46474D01*
X12675Y-46445D01*
X12675Y-46159D01*
X14075Y-44759D01*
X14075Y-45445D01*
X14007Y-45473D01*
X13824Y-45656D01*
X13725Y-45895D01*
X13724Y-46153D01*
X13823Y-46392D01*
X14006Y-46575D01*
X14245Y-46674D01*
X14503Y-46675D01*
X14742Y-46576D01*
X14925Y-46393D01*
X14954Y-46325D01*
X17210Y-46325D01*
X17613Y-46727D01*
X17613Y-46727D01*
X17710Y-46792D01*
X17825Y-46815D01*
X22580Y-46815D01*
X22580Y-46841D01*
X22618Y-46932D01*
X22689Y-47003D01*
X22700Y-47007D01*
X22689Y-47012D01*
X22618Y-47082D01*
X22580Y-47174D01*
X22580Y-47274D01*
X22580Y-47825D01*
X22618Y-47917D01*
X22689Y-47987D01*
X22700Y-47992D01*
X22689Y-47996D01*
X22618Y-48067D01*
X22580Y-48158D01*
X22580Y-48396D01*
X22643Y-48459D01*
X23475Y-48459D01*
X23475Y-48451D01*
X23525Y-48451D01*
X23525Y-48459D01*
X24356Y-48459D01*
X24419Y-48396D01*
X24419Y-48158D01*
X24381Y-48067D01*
X24310Y-47996D01*
X24299Y-47992D01*
X24310Y-47987D01*
X24381Y-47917D01*
X24398Y-47875D01*
X24515Y-47875D01*
X24658Y-47846D01*
X24780Y-47765D01*
X25880Y-46665D01*
X28704Y-46665D01*
X29225Y-47185D01*
X29225Y-48150D01*
X28950Y-48150D01*
X28858Y-48188D01*
X28788Y-48258D01*
X28750Y-48350D01*
X28750Y-48449D01*
X28750Y-49649D01*
X28788Y-49741D01*
X28858Y-49811D01*
X28950Y-49850D01*
X29049Y-49850D01*
X29225Y-49850D01*
X29225Y-50774D01*
X29175Y-50895D01*
X29174Y-51064D01*
X29239Y-51220D01*
X29358Y-51340D01*
X29515Y-51404D01*
X29684Y-51405D01*
X29840Y-51340D01*
X29960Y-51221D01*
X30024Y-51064D01*
X30025Y-50895D01*
X29975Y-50774D01*
X29975Y-49850D01*
X30249Y-49850D01*
X30341Y-49811D01*
X30411Y-49741D01*
X30450Y-49649D01*
X30450Y-49550D01*
X30450Y-48350D01*
X30450Y-43649D01*
X30450Y-43550D01*
X30450Y-42350D01*
X30450Y-37649D01*
X30450Y-37550D01*
X30450Y-36350D01*
X30411Y-36258D01*
X30341Y-36188D01*
X30249Y-36150D01*
X30150Y-36150D01*
X28950Y-36150D01*
X28858Y-36188D01*
X28788Y-36258D01*
X28750Y-36350D01*
X28750Y-36449D01*
X28750Y-37649D01*
X28788Y-37741D01*
X28858Y-37811D01*
X28950Y-37850D01*
X29049Y-37850D01*
X29225Y-37850D01*
X29225Y-38754D01*
X29175Y-38875D01*
X29174Y-39044D01*
X29239Y-39200D01*
X29358Y-39320D01*
X29515Y-39384D01*
X29684Y-39385D01*
X29840Y-39320D01*
X29960Y-39201D01*
X30024Y-39044D01*
X30025Y-38875D01*
X29975Y-38754D01*
X29975Y-37850D01*
X30249Y-37850D01*
X30341Y-37811D01*
X30411Y-37741D01*
X30450Y-37649D01*
X30450Y-42350D01*
X30411Y-42258D01*
X30341Y-42188D01*
X30249Y-42150D01*
X30150Y-42150D01*
X28950Y-42150D01*
X28858Y-42188D01*
X28788Y-42258D01*
X28750Y-42350D01*
X28750Y-42449D01*
X28750Y-43649D01*
X28788Y-43741D01*
X28858Y-43811D01*
X28950Y-43850D01*
X29049Y-43850D01*
X29225Y-43850D01*
X29225Y-44754D01*
X29175Y-44875D01*
X29174Y-45044D01*
X29239Y-45200D01*
X29358Y-45320D01*
X29515Y-45384D01*
X29684Y-45385D01*
X29840Y-45320D01*
X29960Y-45201D01*
X30024Y-45044D01*
X30025Y-44875D01*
X29975Y-44754D01*
X29975Y-43850D01*
X30249Y-43850D01*
X30341Y-43811D01*
X30411Y-43741D01*
X30450Y-43649D01*
X30450Y-48350D01*
X30411Y-48258D01*
X30341Y-48188D01*
X30249Y-48150D01*
X30150Y-48150D01*
X29975Y-48150D01*
X29975Y-47030D01*
X29946Y-46886D01*
X29865Y-46764D01*
X29125Y-46024D01*
X29003Y-45943D01*
X28860Y-45915D01*
X27250Y-45915D01*
X27250Y-43649D01*
X27250Y-43550D01*
X27250Y-43087D01*
X27250Y-42912D01*
X27250Y-42449D01*
X27250Y-42350D01*
X27250Y-37649D01*
X27250Y-37550D01*
X27250Y-37087D01*
X27250Y-36912D01*
X27250Y-36449D01*
X27250Y-36350D01*
X27211Y-36258D01*
X27141Y-36188D01*
X27049Y-36150D01*
X26487Y-36150D01*
X26425Y-36212D01*
X26425Y-36975D01*
X27187Y-36975D01*
X27250Y-36912D01*
X27250Y-37087D01*
X27187Y-37025D01*
X26425Y-37025D01*
X26425Y-37787D01*
X26487Y-37850D01*
X27049Y-37850D01*
X27141Y-37811D01*
X27211Y-37741D01*
X27250Y-37649D01*
X27250Y-42350D01*
X27211Y-42258D01*
X27141Y-42188D01*
X27049Y-42150D01*
X26487Y-42150D01*
X26425Y-42212D01*
X26425Y-42975D01*
X27187Y-42975D01*
X27250Y-42912D01*
X27250Y-43087D01*
X27187Y-43025D01*
X26425Y-43025D01*
X26425Y-43787D01*
X26487Y-43850D01*
X27049Y-43850D01*
X27141Y-43811D01*
X27211Y-43741D01*
X27250Y-43649D01*
X27250Y-45915D01*
X26375Y-45915D01*
X26375Y-43787D01*
X26375Y-43025D01*
X26375Y-42975D01*
X26375Y-42212D01*
X26375Y-37787D01*
X26375Y-37025D01*
X26375Y-36975D01*
X26375Y-36212D01*
X26312Y-36150D01*
X25750Y-36150D01*
X25658Y-36188D01*
X25588Y-36258D01*
X25550Y-36350D01*
X25550Y-36449D01*
X25550Y-36912D01*
X25612Y-36975D01*
X26375Y-36975D01*
X26375Y-37025D01*
X25612Y-37025D01*
X25550Y-37087D01*
X25550Y-37550D01*
X25550Y-37649D01*
X25588Y-37741D01*
X25658Y-37811D01*
X25750Y-37850D01*
X26312Y-37850D01*
X26375Y-37787D01*
X26375Y-42212D01*
X26312Y-42150D01*
X25750Y-42150D01*
X25658Y-42188D01*
X25588Y-42258D01*
X25550Y-42350D01*
X25550Y-42449D01*
X25550Y-42912D01*
X25612Y-42975D01*
X26375Y-42975D01*
X26375Y-43025D01*
X25612Y-43025D01*
X25550Y-43087D01*
X25550Y-43550D01*
X25550Y-43649D01*
X25588Y-43741D01*
X25658Y-43811D01*
X25750Y-43850D01*
X26312Y-43850D01*
X26375Y-43787D01*
X26375Y-45915D01*
X25725Y-45915D01*
X25581Y-45943D01*
X25459Y-46024D01*
X24387Y-47097D01*
X24381Y-47082D01*
X24310Y-47012D01*
X24299Y-47007D01*
X24310Y-47003D01*
X24381Y-46932D01*
X24419Y-46841D01*
X24419Y-46741D01*
X24419Y-46190D01*
X24381Y-46098D01*
X24310Y-46028D01*
X24219Y-45990D01*
X24119Y-45990D01*
X23450Y-45990D01*
X23450Y-36712D01*
X23229Y-36179D01*
X22822Y-35771D01*
X22289Y-35550D01*
X21712Y-35549D01*
X21179Y-35770D01*
X20771Y-36177D01*
X20550Y-36710D01*
X20549Y-37287D01*
X20770Y-37820D01*
X21177Y-38228D01*
X21710Y-38449D01*
X22287Y-38450D01*
X22820Y-38229D01*
X23228Y-37822D01*
X23449Y-37289D01*
X23450Y-36712D01*
X23450Y-45990D01*
X22780Y-45990D01*
X22689Y-46028D01*
X22618Y-46098D01*
X22580Y-46190D01*
X22580Y-46215D01*
X22253Y-46215D01*
X22253Y-45994D01*
X22253Y-45895D01*
X22253Y-44989D01*
X22215Y-44897D01*
X22145Y-44827D01*
X22053Y-44789D01*
X21954Y-44789D01*
X20112Y-44789D01*
X20112Y-31926D01*
X20112Y-31827D01*
X20112Y-31787D01*
X20112Y-31612D01*
X20112Y-31572D01*
X20112Y-31473D01*
X20112Y-30926D01*
X20112Y-30827D01*
X20112Y-30787D01*
X20112Y-30612D01*
X20112Y-30572D01*
X20112Y-30473D01*
X20074Y-30381D01*
X20003Y-30310D01*
X19911Y-30272D01*
X18965Y-30272D01*
X18902Y-30335D01*
X18902Y-30675D01*
X20049Y-30675D01*
X20112Y-30612D01*
X20112Y-30787D01*
X20049Y-30725D01*
X18902Y-30725D01*
X18902Y-31064D01*
X18965Y-31127D01*
X19911Y-31127D01*
X20003Y-31089D01*
X20074Y-31018D01*
X20112Y-30926D01*
X20112Y-31473D01*
X20074Y-31381D01*
X20003Y-31310D01*
X19911Y-31272D01*
X18965Y-31272D01*
X18902Y-31335D01*
X18902Y-31675D01*
X20049Y-31675D01*
X20112Y-31612D01*
X20112Y-31787D01*
X20049Y-31725D01*
X18902Y-31725D01*
X18902Y-32064D01*
X18965Y-32127D01*
X19911Y-32127D01*
X20003Y-32089D01*
X20074Y-32018D01*
X20112Y-31926D01*
X20112Y-44789D01*
X19749Y-44789D01*
X19657Y-44827D01*
X19587Y-44897D01*
X19549Y-44989D01*
X19549Y-45089D01*
X19549Y-45994D01*
X19587Y-46086D01*
X19657Y-46156D01*
X19749Y-46194D01*
X19848Y-46194D01*
X22053Y-46194D01*
X22145Y-46156D01*
X22215Y-46086D01*
X22253Y-45994D01*
X22253Y-46215D01*
X18852Y-46215D01*
X18852Y-32064D01*
X18852Y-31725D01*
X18852Y-31675D01*
X18852Y-31335D01*
X18852Y-31064D01*
X18852Y-30725D01*
X18852Y-30675D01*
X18852Y-30335D01*
X18790Y-30272D01*
X17843Y-30272D01*
X17752Y-30310D01*
X17681Y-30381D01*
X17643Y-30473D01*
X17643Y-30572D01*
X17643Y-30612D01*
X17706Y-30675D01*
X18852Y-30675D01*
X18852Y-30725D01*
X17706Y-30725D01*
X17643Y-30787D01*
X17643Y-30827D01*
X17643Y-30926D01*
X17681Y-31018D01*
X17752Y-31089D01*
X17843Y-31127D01*
X18790Y-31127D01*
X18852Y-31064D01*
X18852Y-31335D01*
X18790Y-31272D01*
X17843Y-31272D01*
X17752Y-31310D01*
X17681Y-31381D01*
X17643Y-31473D01*
X17643Y-31572D01*
X17643Y-31612D01*
X17706Y-31675D01*
X18852Y-31675D01*
X18852Y-31725D01*
X17706Y-31725D01*
X17643Y-31787D01*
X17643Y-31827D01*
X17643Y-31926D01*
X17681Y-32018D01*
X17752Y-32089D01*
X17843Y-32127D01*
X18790Y-32127D01*
X18852Y-32064D01*
X18852Y-46215D01*
X17950Y-46215D01*
X17547Y-45812D01*
X17449Y-45747D01*
X17356Y-45729D01*
X17356Y-31926D01*
X17356Y-31827D01*
X17356Y-31787D01*
X17356Y-31612D01*
X17356Y-31572D01*
X17356Y-31473D01*
X17356Y-30926D01*
X17356Y-30827D01*
X17356Y-30787D01*
X17356Y-30612D01*
X17356Y-30572D01*
X17356Y-30473D01*
X17318Y-30381D01*
X17247Y-30310D01*
X17156Y-30272D01*
X16209Y-30272D01*
X16147Y-30335D01*
X16147Y-30675D01*
X17293Y-30675D01*
X17356Y-30612D01*
X17356Y-30787D01*
X17293Y-30725D01*
X16147Y-30725D01*
X16147Y-31064D01*
X16209Y-31127D01*
X17156Y-31127D01*
X17247Y-31089D01*
X17318Y-31018D01*
X17356Y-30926D01*
X17356Y-31473D01*
X17318Y-31381D01*
X17247Y-31310D01*
X17156Y-31272D01*
X16209Y-31272D01*
X16147Y-31335D01*
X16147Y-31675D01*
X17293Y-31675D01*
X17356Y-31612D01*
X17356Y-31787D01*
X17293Y-31725D01*
X16147Y-31725D01*
X16147Y-32064D01*
X16209Y-32127D01*
X17156Y-32127D01*
X17247Y-32089D01*
X17318Y-32018D01*
X17356Y-31926D01*
X17356Y-45729D01*
X17335Y-45725D01*
X16097Y-45725D01*
X16097Y-32064D01*
X16097Y-31725D01*
X16097Y-31675D01*
X16097Y-31335D01*
X16097Y-31064D01*
X16097Y-30725D01*
X16097Y-30675D01*
X16097Y-30335D01*
X16034Y-30272D01*
X15088Y-30272D01*
X14996Y-30310D01*
X14925Y-30381D01*
X14887Y-30473D01*
X14887Y-30572D01*
X14887Y-30612D01*
X14950Y-30675D01*
X16097Y-30675D01*
X16097Y-30725D01*
X14950Y-30725D01*
X14887Y-30787D01*
X14887Y-30827D01*
X14887Y-30926D01*
X14925Y-31018D01*
X14996Y-31089D01*
X15088Y-31127D01*
X16034Y-31127D01*
X16097Y-31064D01*
X16097Y-31335D01*
X16034Y-31272D01*
X15088Y-31272D01*
X14996Y-31310D01*
X14925Y-31381D01*
X14887Y-31473D01*
X14887Y-31572D01*
X14887Y-31612D01*
X14950Y-31675D01*
X16097Y-31675D01*
X16097Y-31725D01*
X14950Y-31725D01*
X14887Y-31787D01*
X14887Y-31827D01*
X14887Y-31926D01*
X14925Y-32018D01*
X14996Y-32089D01*
X15088Y-32127D01*
X16034Y-32127D01*
X16097Y-32064D01*
X16097Y-45725D01*
X14954Y-45725D01*
X14926Y-45657D01*
X14743Y-45474D01*
X14675Y-45445D01*
X14675Y-28749D01*
X14887Y-28536D01*
X14887Y-28572D01*
X14887Y-28926D01*
X14925Y-29018D01*
X14996Y-29089D01*
X15088Y-29127D01*
X15187Y-29127D01*
X15747Y-29127D01*
X15747Y-29200D01*
X15747Y-29272D01*
X15088Y-29272D01*
X14996Y-29310D01*
X14925Y-29381D01*
X14887Y-29473D01*
X14887Y-29572D01*
X14887Y-29926D01*
X14925Y-30018D01*
X14996Y-30089D01*
X15088Y-30127D01*
X15187Y-30127D01*
X17156Y-30127D01*
X17247Y-30089D01*
X17318Y-30018D01*
X17356Y-29926D01*
X17356Y-29827D01*
X17356Y-29575D01*
X17643Y-29575D01*
X17643Y-29926D01*
X17681Y-30018D01*
X17752Y-30089D01*
X17843Y-30127D01*
X17943Y-30127D01*
X19911Y-30127D01*
X20003Y-30089D01*
X20074Y-30018D01*
X20112Y-29926D01*
X20112Y-29827D01*
X20112Y-29575D01*
X20270Y-29575D01*
X20413Y-29546D01*
X20535Y-29465D01*
X20960Y-29040D01*
X20960Y-29040D01*
X21008Y-28967D01*
X21041Y-28918D01*
X21041Y-28918D01*
X21070Y-28775D01*
X21070Y-28580D01*
X21119Y-28459D01*
X21120Y-28290D01*
X21055Y-28134D01*
X20936Y-28014D01*
X20779Y-27950D01*
X20610Y-27949D01*
X20454Y-28014D01*
X20334Y-28133D01*
X20270Y-28290D01*
X20269Y-28459D01*
X20320Y-28580D01*
X20320Y-28619D01*
X20114Y-28825D01*
X20112Y-28825D01*
X20112Y-28473D01*
X20074Y-28381D01*
X20003Y-28310D01*
X19911Y-28272D01*
X19812Y-28272D01*
X17843Y-28272D01*
X17752Y-28310D01*
X17681Y-28381D01*
X17643Y-28473D01*
X17643Y-28572D01*
X17643Y-28825D01*
X17356Y-28825D01*
X17356Y-28498D01*
X17464Y-28477D01*
X17464Y-28477D01*
X17562Y-28412D01*
X17847Y-28127D01*
X17943Y-28127D01*
X19911Y-28127D01*
X20003Y-28089D01*
X20074Y-28018D01*
X20112Y-27926D01*
X20112Y-27827D01*
X20112Y-27500D01*
X21925Y-27500D01*
X23365Y-28939D01*
X23365Y-30506D01*
X23229Y-30179D01*
X22822Y-29771D01*
X22289Y-29550D01*
X21712Y-29549D01*
X21179Y-29770D01*
X20771Y-30177D01*
X20550Y-30710D01*
X20549Y-31287D01*
X20770Y-31820D01*
X21177Y-32228D01*
X21710Y-32449D01*
X22287Y-32450D01*
X22820Y-32229D01*
X23228Y-31822D01*
X23365Y-31493D01*
X23365Y-32490D01*
X23387Y-32604D01*
X23452Y-32702D01*
X25237Y-34487D01*
X25335Y-34552D01*
X25335Y-34552D01*
X25450Y-34575D01*
X28950Y-34575D01*
X31587Y-37212D01*
X31685Y-37277D01*
X31768Y-37293D01*
X31768Y-37293D01*
X31788Y-37341D01*
X31858Y-37411D01*
X31950Y-37450D01*
X32049Y-37450D01*
X32849Y-37450D01*
X32885Y-37435D01*
X32888Y-37441D01*
X32958Y-37511D01*
X33050Y-37550D01*
X33149Y-37550D01*
X33949Y-37550D01*
X33999Y-37529D01*
X34050Y-37550D01*
X34149Y-37550D01*
X34949Y-37550D01*
X35041Y-37511D01*
X35111Y-37441D01*
X35114Y-37435D01*
X35150Y-37450D01*
X35249Y-37450D01*
X36049Y-37450D01*
X36135Y-37414D01*
X36135Y-38690D01*
X36157Y-38804D01*
X36222Y-38902D01*
X38092Y-40772D01*
X38190Y-40837D01*
X38190Y-40837D01*
X38305Y-40860D01*
X47134Y-40860D01*
X47074Y-40919D01*
X46993Y-41041D01*
X46965Y-41185D01*
X46965Y-43650D01*
X46993Y-43793D01*
X47074Y-43915D01*
X47629Y-44470D01*
X47751Y-44551D01*
X47895Y-44580D01*
X50501Y-44580D01*
X50600Y-44678D01*
X50600Y-44769D01*
X50550Y-44890D01*
X50549Y-45059D01*
X50600Y-45180D01*
X50600Y-46007D01*
X49482Y-47125D01*
X45398Y-47125D01*
X45381Y-47082D01*
X45310Y-47012D01*
X45299Y-47007D01*
X45310Y-47003D01*
X45381Y-46932D01*
X45419Y-46841D01*
X45419Y-46815D01*
X49084Y-46815D01*
X49084Y-46815D01*
X49199Y-46792D01*
X49199Y-46792D01*
X49296Y-46727D01*
X49427Y-46596D01*
X49495Y-46624D01*
X49753Y-46625D01*
X49992Y-46526D01*
X50175Y-46343D01*
X50274Y-46104D01*
X50275Y-45846D01*
X50176Y-45607D01*
X49993Y-45424D01*
X49754Y-45325D01*
X49496Y-45324D01*
X49257Y-45423D01*
X49074Y-45606D01*
X48975Y-45845D01*
X48974Y-46103D01*
X49003Y-46172D01*
X48959Y-46215D01*
X48450Y-46215D01*
X48450Y-45994D01*
X48450Y-45895D01*
X48450Y-44989D01*
X48412Y-44897D01*
X48342Y-44827D01*
X48250Y-44789D01*
X48151Y-44789D01*
X45946Y-44789D01*
X45854Y-44827D01*
X45784Y-44897D01*
X45746Y-44989D01*
X45746Y-45089D01*
X45746Y-45994D01*
X45784Y-46086D01*
X45854Y-46156D01*
X45946Y-46194D01*
X46045Y-46194D01*
X48250Y-46194D01*
X48342Y-46156D01*
X48412Y-46086D01*
X48450Y-45994D01*
X48450Y-46215D01*
X45419Y-46215D01*
X45419Y-46190D01*
X45381Y-46098D01*
X45310Y-46028D01*
X45219Y-45990D01*
X45119Y-45990D01*
X43780Y-45990D01*
X43689Y-46028D01*
X43618Y-46098D01*
X43580Y-46190D01*
X43580Y-46289D01*
X43580Y-46841D01*
X43618Y-46932D01*
X43689Y-47003D01*
X43700Y-47007D01*
X43689Y-47012D01*
X43618Y-47082D01*
X43580Y-47174D01*
X43580Y-47274D01*
X43580Y-47825D01*
X43618Y-47917D01*
X43689Y-47987D01*
X43700Y-47992D01*
X43689Y-47996D01*
X43618Y-48067D01*
X43580Y-48158D01*
X43580Y-48396D01*
X43643Y-48459D01*
X44475Y-48459D01*
X44475Y-48451D01*
X44525Y-48451D01*
X44525Y-48459D01*
X45356Y-48459D01*
X45419Y-48396D01*
X45419Y-48158D01*
X45381Y-48067D01*
X45310Y-47996D01*
X45299Y-47992D01*
X45310Y-47987D01*
X45381Y-47917D01*
X45398Y-47875D01*
X49638Y-47875D01*
X49781Y-47846D01*
X49903Y-47765D01*
X51240Y-46428D01*
X51321Y-46306D01*
X51350Y-46163D01*
X51350Y-45180D01*
X51399Y-45059D01*
X51400Y-44890D01*
X51350Y-44769D01*
X51350Y-44523D01*
X51321Y-44379D01*
X51321Y-44379D01*
X51288Y-44330D01*
X51240Y-44257D01*
X50922Y-43939D01*
X50800Y-43858D01*
X50657Y-43830D01*
X50356Y-43830D01*
X50356Y-43526D01*
X50356Y-43427D01*
X50356Y-43387D01*
X50356Y-43212D01*
X50356Y-43172D01*
X50356Y-43073D01*
X50356Y-42526D01*
X50356Y-42427D01*
X50356Y-42387D01*
X50356Y-42212D01*
X50356Y-42172D01*
X50356Y-42073D01*
X50318Y-41981D01*
X50247Y-41910D01*
X50156Y-41872D01*
X49209Y-41872D01*
X49147Y-41935D01*
X49147Y-42275D01*
X50293Y-42275D01*
X50356Y-42212D01*
X50356Y-42387D01*
X50293Y-42325D01*
X49147Y-42325D01*
X49147Y-42664D01*
X49209Y-42727D01*
X50156Y-42727D01*
X50247Y-42689D01*
X50318Y-42618D01*
X50356Y-42526D01*
X50356Y-43073D01*
X50318Y-42981D01*
X50247Y-42910D01*
X50156Y-42872D01*
X49209Y-42872D01*
X49147Y-42935D01*
X49147Y-43275D01*
X50293Y-43275D01*
X50356Y-43212D01*
X50356Y-43387D01*
X50293Y-43325D01*
X49147Y-43325D01*
X49147Y-43664D01*
X49209Y-43727D01*
X50156Y-43727D01*
X50247Y-43689D01*
X50318Y-43618D01*
X50356Y-43526D01*
X50356Y-43830D01*
X49097Y-43830D01*
X49097Y-43664D01*
X49097Y-43325D01*
X49097Y-43275D01*
X49097Y-42935D01*
X49097Y-42664D01*
X49097Y-42325D01*
X49097Y-42275D01*
X49097Y-41935D01*
X49034Y-41872D01*
X48088Y-41872D01*
X47996Y-41910D01*
X47925Y-41981D01*
X47887Y-42073D01*
X47887Y-42172D01*
X47887Y-42212D01*
X47950Y-42275D01*
X49097Y-42275D01*
X49097Y-42325D01*
X47950Y-42325D01*
X47887Y-42387D01*
X47887Y-42427D01*
X47887Y-42526D01*
X47925Y-42618D01*
X47996Y-42689D01*
X48088Y-42727D01*
X49034Y-42727D01*
X49097Y-42664D01*
X49097Y-42935D01*
X49034Y-42872D01*
X48088Y-42872D01*
X47996Y-42910D01*
X47925Y-42981D01*
X47887Y-43073D01*
X47887Y-43172D01*
X47887Y-43212D01*
X47950Y-43275D01*
X49097Y-43275D01*
X49097Y-43325D01*
X47950Y-43325D01*
X47887Y-43387D01*
X47887Y-43427D01*
X47887Y-43526D01*
X47925Y-43618D01*
X47996Y-43689D01*
X48088Y-43727D01*
X49034Y-43727D01*
X49097Y-43664D01*
X49097Y-43830D01*
X48050Y-43830D01*
X47715Y-43494D01*
X47715Y-41340D01*
X47880Y-41175D01*
X47887Y-41175D01*
X47887Y-41526D01*
X47925Y-41618D01*
X47996Y-41689D01*
X48088Y-41727D01*
X48187Y-41727D01*
X50156Y-41727D01*
X50247Y-41689D01*
X50318Y-41618D01*
X50356Y-41526D01*
X50356Y-41427D01*
X50356Y-41175D01*
X50643Y-41175D01*
X50643Y-41526D01*
X50681Y-41618D01*
X50752Y-41689D01*
X50843Y-41727D01*
X50943Y-41727D01*
X52911Y-41727D01*
X53003Y-41689D01*
X53074Y-41618D01*
X53112Y-41526D01*
X53112Y-41427D01*
X53112Y-41073D01*
X53074Y-40981D01*
X53003Y-40910D01*
X52911Y-40872D01*
X52812Y-40872D01*
X52252Y-40872D01*
X52252Y-40800D01*
X52252Y-40727D01*
X52911Y-40727D01*
X53003Y-40689D01*
X53074Y-40618D01*
X53112Y-40526D01*
X53112Y-40427D01*
X53112Y-40073D01*
X53074Y-39981D01*
X53003Y-39910D01*
X52911Y-39872D01*
X52812Y-39872D01*
X50843Y-39872D01*
X50752Y-39910D01*
X50681Y-39981D01*
X50643Y-40073D01*
X50643Y-40172D01*
X50643Y-40425D01*
X50356Y-40425D01*
X50356Y-40098D01*
X50464Y-40077D01*
X50464Y-40077D01*
X50562Y-40012D01*
X50847Y-39727D01*
X50943Y-39727D01*
X52911Y-39727D01*
X53003Y-39689D01*
X53074Y-39618D01*
X53081Y-39600D01*
X53465Y-39600D01*
X53980Y-40114D01*
X53980Y-43945D01*
X53112Y-44813D01*
X53112Y-43526D01*
X53112Y-43427D01*
X53112Y-43387D01*
X53112Y-43212D01*
X53112Y-43172D01*
X53112Y-43073D01*
X53112Y-42526D01*
X53112Y-42427D01*
X53112Y-42387D01*
X53112Y-42212D01*
X53112Y-42172D01*
X53112Y-42073D01*
X53074Y-41981D01*
X53003Y-41910D01*
X52911Y-41872D01*
X51965Y-41872D01*
X51902Y-41935D01*
X51902Y-42275D01*
X53049Y-42275D01*
X53112Y-42212D01*
X53112Y-42387D01*
X53049Y-42325D01*
X51902Y-42325D01*
X51902Y-42664D01*
X51965Y-42727D01*
X52911Y-42727D01*
X53003Y-42689D01*
X53074Y-42618D01*
X53112Y-42526D01*
X53112Y-43073D01*
X53074Y-42981D01*
X53003Y-42910D01*
X52911Y-42872D01*
X51965Y-42872D01*
X51902Y-42935D01*
X51902Y-43275D01*
X53049Y-43275D01*
X53112Y-43212D01*
X53112Y-43387D01*
X53049Y-43325D01*
X51902Y-43325D01*
X51902Y-43664D01*
X51965Y-43727D01*
X52911Y-43727D01*
X53003Y-43689D01*
X53074Y-43618D01*
X53112Y-43526D01*
X53112Y-44813D01*
X51852Y-46072D01*
X51852Y-43664D01*
X51852Y-43325D01*
X51852Y-43275D01*
X51852Y-42935D01*
X51852Y-42664D01*
X51852Y-42325D01*
X51852Y-42275D01*
X51852Y-41935D01*
X51790Y-41872D01*
X50843Y-41872D01*
X50752Y-41910D01*
X50681Y-41981D01*
X50643Y-42073D01*
X50643Y-42172D01*
X50643Y-42212D01*
X50706Y-42275D01*
X51852Y-42275D01*
X51852Y-42325D01*
X50706Y-42325D01*
X50643Y-42387D01*
X50643Y-42427D01*
X50643Y-42526D01*
X50681Y-42618D01*
X50752Y-42689D01*
X50843Y-42727D01*
X51790Y-42727D01*
X51852Y-42664D01*
X51852Y-42935D01*
X51790Y-42872D01*
X50843Y-42872D01*
X50752Y-42910D01*
X50681Y-42981D01*
X50643Y-43073D01*
X50643Y-43172D01*
X50643Y-43212D01*
X50706Y-43275D01*
X51852Y-43275D01*
X51852Y-43325D01*
X50706Y-43325D01*
X50643Y-43387D01*
X50643Y-43427D01*
X50643Y-43526D01*
X50681Y-43618D01*
X50752Y-43689D01*
X50843Y-43727D01*
X51790Y-43727D01*
X51852Y-43664D01*
X51852Y-46072D01*
X51487Y-46437D01*
X51422Y-46535D01*
X51400Y-46650D01*
X51400Y-47725D01*
X48450Y-50674D01*
X48450Y-50010D01*
X48450Y-49910D01*
X48450Y-49005D01*
X48412Y-48913D01*
X48342Y-48843D01*
X48250Y-48805D01*
X48151Y-48805D01*
X45946Y-48805D01*
X45854Y-48843D01*
X45784Y-48913D01*
X45746Y-49005D01*
X45746Y-49104D01*
X45746Y-50010D01*
X45784Y-50102D01*
X45854Y-50172D01*
X45946Y-50210D01*
X46045Y-50210D01*
X48250Y-50210D01*
X48342Y-50172D01*
X48412Y-50102D01*
X48450Y-50010D01*
X48450Y-50674D01*
X48412Y-50712D01*
X48347Y-50810D01*
X48325Y-50925D01*
X48325Y-51395D01*
X48257Y-51423D01*
X48074Y-51606D01*
X47975Y-51845D01*
X47974Y-52103D01*
X48073Y-52342D01*
X48256Y-52525D01*
X48495Y-52624D01*
X48753Y-52625D01*
X48992Y-52526D01*
X49175Y-52343D01*
X49274Y-52104D01*
X49275Y-51846D01*
X49176Y-51607D01*
X48993Y-51424D01*
X48925Y-51395D01*
X48925Y-51049D01*
X51474Y-48499D01*
X51474Y-48603D01*
X51573Y-48842D01*
X51756Y-49025D01*
X51995Y-49124D01*
X52253Y-49125D01*
X52492Y-49026D01*
X52675Y-48843D01*
X52774Y-48604D01*
X52775Y-48346D01*
X52676Y-48107D01*
X52493Y-47924D01*
X52425Y-47895D01*
X52425Y-46824D01*
X54842Y-44407D01*
X54842Y-44407D01*
X54881Y-44348D01*
X54907Y-44309D01*
X54907Y-44309D01*
X54930Y-44195D01*
X54930Y-40134D01*
X55325Y-40529D01*
X55325Y-44395D01*
X55257Y-44423D01*
X55074Y-44606D01*
X54975Y-44845D01*
X54974Y-45103D01*
X55073Y-45342D01*
X55256Y-45525D01*
X55495Y-45624D01*
X55753Y-45625D01*
X55992Y-45526D01*
X56175Y-45343D01*
X56274Y-45104D01*
X56275Y-44846D01*
X56176Y-44607D01*
X55993Y-44424D01*
X55925Y-44395D01*
X55925Y-40405D01*
X55902Y-40290D01*
X55902Y-40290D01*
X55876Y-40251D01*
X55837Y-40192D01*
X53744Y-38100D01*
X54325Y-38100D01*
X55003Y-38777D01*
X54975Y-38845D01*
X54974Y-39103D01*
X55073Y-39342D01*
X55256Y-39525D01*
X55495Y-39624D01*
X55753Y-39625D01*
X55992Y-39526D01*
X56175Y-39343D01*
X56274Y-39104D01*
X56275Y-38846D01*
X56176Y-38607D01*
X55993Y-38424D01*
X55754Y-38325D01*
X55496Y-38324D01*
X55427Y-38353D01*
X54662Y-37587D01*
X54564Y-37522D01*
X54450Y-37500D01*
X53524Y-37500D01*
X53852Y-37172D01*
X53917Y-37074D01*
X53917Y-37074D01*
X53940Y-36960D01*
X53940Y-35650D01*
X53917Y-35535D01*
X53917Y-35535D01*
X53852Y-35437D01*
X52710Y-34295D01*
X52710Y-33484D01*
X52914Y-33280D01*
X55050Y-33280D01*
X55078Y-33347D01*
X55261Y-33530D01*
X55500Y-33629D01*
X55758Y-33630D01*
X55997Y-33531D01*
X56180Y-33348D01*
X56279Y-33109D01*
X56280Y-32851D01*
X56280Y-36205D01*
X54251Y-34177D01*
X54279Y-34109D01*
X54280Y-33851D01*
X54181Y-33612D01*
X53998Y-33429D01*
X53759Y-33330D01*
X53501Y-33329D01*
X53262Y-33428D01*
X53079Y-33611D01*
X52980Y-33850D01*
X52979Y-34108D01*
X53078Y-34347D01*
X53261Y-34530D01*
X53500Y-34629D01*
X53758Y-34630D01*
X53827Y-34601D01*
X56295Y-37069D01*
X56295Y-45475D01*
X56095Y-45675D01*
X55204Y-45675D01*
X55176Y-45607D01*
X54993Y-45424D01*
X54754Y-45325D01*
X54496Y-45324D01*
X54257Y-45423D01*
X54074Y-45606D01*
X53975Y-45845D01*
X53974Y-46103D01*
X54073Y-46342D01*
X54256Y-46525D01*
X54495Y-46624D01*
X54753Y-46625D01*
X54992Y-46526D01*
X55175Y-46343D01*
X55204Y-46275D01*
X56220Y-46275D01*
X56220Y-46274D01*
X56334Y-46252D01*
X56334Y-46252D01*
X56432Y-46187D01*
X56777Y-45841D01*
X56809Y-45873D01*
X56809Y-45873D01*
X56809Y-45873D01*
X57003Y-46003D01*
X57003Y-46003D01*
X57111Y-46048D01*
X57111Y-46048D01*
X57111Y-46048D01*
X57341Y-46094D01*
X57512Y-46128D01*
X57607Y-46192D01*
X57671Y-46287D01*
X57700Y-46429D01*
X57700Y-54970D01*
X57700Y-54970D01*
G37*
X57700Y-54970D02*
X57489Y-56030D01*
X56905Y-56905D01*
X56030Y-57489D01*
X54970Y-57700D01*
X53450Y-57700D01*
X53450Y-51712D01*
X53229Y-51179D01*
X52822Y-50771D01*
X52289Y-50550D01*
X51712Y-50549D01*
X51179Y-50770D01*
X50771Y-51177D01*
X50550Y-51710D01*
X50549Y-52287D01*
X50770Y-52820D01*
X51177Y-53228D01*
X51710Y-53449D01*
X52287Y-53450D01*
X52820Y-53229D01*
X53228Y-52822D01*
X53449Y-52289D01*
X53450Y-51712D01*
X53450Y-57700D01*
X47450Y-57700D01*
X47450Y-54712D01*
X47229Y-54179D01*
X46822Y-53771D01*
X46289Y-53550D01*
X45712Y-53549D01*
X45419Y-53671D01*
X45419Y-48809D01*
X45419Y-48571D01*
X45356Y-48509D01*
X44525Y-48509D01*
X44525Y-48947D01*
X44587Y-49009D01*
X45119Y-49009D01*
X45219Y-49009D01*
X45310Y-48971D01*
X45381Y-48901D01*
X45419Y-48809D01*
X45419Y-53671D01*
X45179Y-53770D01*
X44771Y-54177D01*
X44550Y-54710D01*
X44549Y-55287D01*
X44770Y-55820D01*
X45177Y-56228D01*
X45710Y-56449D01*
X46287Y-56450D01*
X46820Y-56229D01*
X47228Y-55822D01*
X47449Y-55289D01*
X47450Y-54712D01*
X47450Y-57700D01*
X44475Y-57700D01*
X44475Y-48947D01*
X44475Y-48509D01*
X43643Y-48509D01*
X43580Y-48571D01*
X43580Y-48809D01*
X43618Y-48901D01*
X43689Y-48971D01*
X43780Y-49009D01*
X43880Y-49009D01*
X44412Y-49009D01*
X44475Y-48947D01*
X44475Y-57700D01*
X40530Y-57700D01*
X40530Y-55659D01*
X40530Y-55560D01*
X40530Y-55140D01*
X40491Y-55048D01*
X40443Y-55000D01*
X40491Y-54951D01*
X40530Y-54859D01*
X40530Y-54687D01*
X40530Y-54512D01*
X40530Y-54340D01*
X40530Y-49659D01*
X40530Y-49560D01*
X40530Y-49140D01*
X40491Y-49048D01*
X40443Y-49000D01*
X40491Y-48951D01*
X40530Y-48859D01*
X40530Y-48687D01*
X40530Y-48512D01*
X40530Y-48340D01*
X40530Y-43659D01*
X40530Y-43560D01*
X40530Y-43140D01*
X40491Y-43048D01*
X40443Y-43000D01*
X40491Y-42951D01*
X40530Y-42859D01*
X40530Y-42687D01*
X40530Y-42512D01*
X40530Y-42340D01*
X40491Y-42248D01*
X40421Y-42178D01*
X40329Y-42140D01*
X40230Y-42140D01*
X40087Y-42140D01*
X40025Y-42202D01*
X40025Y-42575D01*
X40467Y-42575D01*
X40530Y-42512D01*
X40530Y-42687D01*
X40467Y-42625D01*
X40025Y-42625D01*
X40025Y-42632D01*
X39975Y-42632D01*
X39975Y-42625D01*
X39975Y-42575D01*
X39975Y-42202D01*
X39912Y-42140D01*
X39769Y-42140D01*
X39670Y-42140D01*
X39578Y-42178D01*
X39508Y-42248D01*
X39470Y-42340D01*
X39470Y-42512D01*
X39532Y-42575D01*
X39975Y-42575D01*
X39975Y-42625D01*
X39532Y-42625D01*
X39470Y-42687D01*
X39470Y-42859D01*
X39508Y-42951D01*
X39556Y-43000D01*
X39508Y-43048D01*
X39470Y-43140D01*
X39470Y-43239D01*
X39470Y-43659D01*
X39508Y-43751D01*
X39578Y-43821D01*
X39625Y-43841D01*
X39625Y-44774D01*
X39575Y-44895D01*
X39574Y-45064D01*
X39639Y-45220D01*
X39758Y-45340D01*
X39915Y-45404D01*
X40084Y-45405D01*
X40240Y-45340D01*
X40360Y-45221D01*
X40424Y-45064D01*
X40425Y-44895D01*
X40375Y-44774D01*
X40375Y-43841D01*
X40421Y-43821D01*
X40491Y-43751D01*
X40530Y-43659D01*
X40530Y-48340D01*
X40491Y-48248D01*
X40421Y-48178D01*
X40329Y-48140D01*
X40230Y-48140D01*
X40087Y-48140D01*
X40025Y-48202D01*
X40025Y-48575D01*
X40467Y-48575D01*
X40530Y-48512D01*
X40530Y-48687D01*
X40467Y-48625D01*
X40025Y-48625D01*
X40025Y-48632D01*
X39975Y-48632D01*
X39975Y-48625D01*
X39975Y-48575D01*
X39975Y-48202D01*
X39912Y-48140D01*
X39769Y-48140D01*
X39670Y-48140D01*
X39578Y-48178D01*
X39508Y-48248D01*
X39470Y-48340D01*
X39470Y-48512D01*
X39532Y-48575D01*
X39975Y-48575D01*
X39975Y-48625D01*
X39532Y-48625D01*
X39470Y-48687D01*
X39470Y-48859D01*
X39508Y-48951D01*
X39556Y-49000D01*
X39508Y-49048D01*
X39470Y-49140D01*
X39470Y-49239D01*
X39470Y-49659D01*
X39508Y-49751D01*
X39578Y-49821D01*
X39625Y-49841D01*
X39625Y-50774D01*
X39575Y-50895D01*
X39574Y-51064D01*
X39639Y-51220D01*
X39758Y-51340D01*
X39915Y-51404D01*
X40084Y-51405D01*
X40240Y-51340D01*
X40360Y-51221D01*
X40424Y-51064D01*
X40425Y-50895D01*
X40375Y-50774D01*
X40375Y-49841D01*
X40421Y-49821D01*
X40491Y-49751D01*
X40530Y-49659D01*
X40530Y-54340D01*
X40491Y-54248D01*
X40421Y-54178D01*
X40329Y-54140D01*
X40230Y-54140D01*
X40087Y-54140D01*
X40025Y-54202D01*
X40025Y-54575D01*
X40467Y-54575D01*
X40530Y-54512D01*
X40530Y-54687D01*
X40467Y-54625D01*
X40025Y-54625D01*
X40025Y-54632D01*
X39975Y-54632D01*
X39975Y-54625D01*
X39975Y-54575D01*
X39975Y-54202D01*
X39912Y-54140D01*
X39769Y-54140D01*
X39670Y-54140D01*
X39578Y-54178D01*
X39508Y-54248D01*
X39470Y-54340D01*
X39470Y-54512D01*
X39532Y-54575D01*
X39975Y-54575D01*
X39975Y-54625D01*
X39532Y-54625D01*
X39470Y-54687D01*
X39470Y-54859D01*
X39508Y-54951D01*
X39556Y-55000D01*
X39508Y-55048D01*
X39470Y-55140D01*
X39470Y-55239D01*
X39470Y-55659D01*
X39508Y-55751D01*
X39578Y-55821D01*
X39625Y-55841D01*
X39625Y-56774D01*
X39575Y-56895D01*
X39574Y-57064D01*
X39639Y-57220D01*
X39758Y-57340D01*
X39915Y-57404D01*
X40084Y-57405D01*
X40240Y-57340D01*
X40360Y-57221D01*
X40424Y-57064D01*
X40425Y-56895D01*
X40375Y-56774D01*
X40375Y-55841D01*
X40421Y-55821D01*
X40491Y-55751D01*
X40530Y-55659D01*
X40530Y-57700D01*
X30450Y-57700D01*
X30450Y-55649D01*
X30450Y-55550D01*
X30450Y-54350D01*
X30411Y-54258D01*
X30341Y-54188D01*
X30249Y-54150D01*
X30150Y-54150D01*
X28950Y-54150D01*
X28858Y-54188D01*
X28788Y-54258D01*
X28750Y-54350D01*
X28750Y-54449D01*
X28750Y-55649D01*
X28788Y-55741D01*
X28858Y-55811D01*
X28950Y-55850D01*
X29049Y-55850D01*
X29225Y-55850D01*
X29225Y-56774D01*
X29175Y-56895D01*
X29174Y-57064D01*
X29239Y-57220D01*
X29358Y-57340D01*
X29515Y-57404D01*
X29684Y-57405D01*
X29840Y-57340D01*
X29960Y-57221D01*
X30024Y-57064D01*
X30025Y-56895D01*
X29975Y-56774D01*
X29975Y-55850D01*
X30249Y-55850D01*
X30341Y-55811D01*
X30411Y-55741D01*
X30450Y-55649D01*
X30450Y-57700D01*
X27250Y-57700D01*
X27250Y-55649D01*
X27250Y-55550D01*
X27250Y-55087D01*
X27250Y-54912D01*
X27250Y-54449D01*
X27250Y-54350D01*
X27250Y-49649D01*
X27250Y-49550D01*
X27250Y-49087D01*
X27250Y-48912D01*
X27250Y-48449D01*
X27250Y-48350D01*
X27211Y-48258D01*
X27141Y-48188D01*
X27049Y-48150D01*
X26487Y-48150D01*
X26425Y-48212D01*
X26425Y-48975D01*
X27187Y-48975D01*
X27250Y-48912D01*
X27250Y-49087D01*
X27187Y-49025D01*
X26425Y-49025D01*
X26425Y-49787D01*
X26487Y-49850D01*
X27049Y-49850D01*
X27141Y-49811D01*
X27211Y-49741D01*
X27250Y-49649D01*
X27250Y-54350D01*
X27211Y-54258D01*
X27141Y-54188D01*
X27049Y-54150D01*
X26487Y-54150D01*
X26425Y-54212D01*
X26425Y-54975D01*
X27187Y-54975D01*
X27250Y-54912D01*
X27250Y-55087D01*
X27187Y-55025D01*
X26425Y-55025D01*
X26425Y-55787D01*
X26487Y-55850D01*
X27049Y-55850D01*
X27141Y-55811D01*
X27211Y-55741D01*
X27250Y-55649D01*
X27250Y-57700D01*
X26375Y-57700D01*
X26375Y-55787D01*
X26375Y-55025D01*
X26375Y-54975D01*
X26375Y-54212D01*
X26375Y-49787D01*
X26375Y-49025D01*
X26375Y-48975D01*
X26375Y-48212D01*
X26312Y-48150D01*
X25750Y-48150D01*
X25658Y-48188D01*
X25588Y-48258D01*
X25550Y-48350D01*
X25550Y-48449D01*
X25550Y-48912D01*
X25612Y-48975D01*
X26375Y-48975D01*
X26375Y-49025D01*
X25612Y-49025D01*
X25550Y-49087D01*
X25550Y-49550D01*
X25550Y-49649D01*
X25588Y-49741D01*
X25658Y-49811D01*
X25750Y-49850D01*
X26312Y-49850D01*
X26375Y-49787D01*
X26375Y-54212D01*
X26312Y-54150D01*
X25750Y-54150D01*
X25658Y-54188D01*
X25588Y-54258D01*
X25550Y-54350D01*
X25550Y-54449D01*
X25550Y-54912D01*
X25612Y-54975D01*
X26375Y-54975D01*
X26375Y-55025D01*
X25612Y-55025D01*
X25550Y-55087D01*
X25550Y-55550D01*
X25550Y-55649D01*
X25588Y-55741D01*
X25658Y-55811D01*
X25750Y-55850D01*
X26312Y-55850D01*
X26375Y-55787D01*
X26375Y-57700D01*
X24419Y-57700D01*
X24419Y-48809D01*
X24419Y-48571D01*
X24356Y-48509D01*
X23525Y-48509D01*
X23525Y-48947D01*
X23587Y-49009D01*
X24119Y-49009D01*
X24219Y-49009D01*
X24310Y-48971D01*
X24381Y-48901D01*
X24419Y-48809D01*
X24419Y-57700D01*
X23475Y-57700D01*
X23475Y-48947D01*
X23475Y-48509D01*
X22643Y-48509D01*
X22580Y-48571D01*
X22580Y-48809D01*
X22618Y-48901D01*
X22689Y-48971D01*
X22780Y-49009D01*
X22880Y-49009D01*
X23412Y-49009D01*
X23475Y-48947D01*
X23475Y-57700D01*
X23450Y-57700D01*
X23450Y-54712D01*
X23229Y-54179D01*
X22822Y-53771D01*
X22289Y-53550D01*
X22253Y-53550D01*
X22253Y-50010D01*
X22253Y-49910D01*
X22253Y-49005D01*
X22215Y-48913D01*
X22145Y-48843D01*
X22053Y-48805D01*
X21954Y-48805D01*
X19749Y-48805D01*
X19657Y-48843D01*
X19587Y-48913D01*
X19549Y-49005D01*
X19549Y-49104D01*
X19549Y-50010D01*
X19587Y-50102D01*
X19657Y-50172D01*
X19749Y-50210D01*
X19848Y-50210D01*
X22053Y-50210D01*
X22145Y-50172D01*
X22215Y-50102D01*
X22253Y-50010D01*
X22253Y-53550D01*
X21712Y-53549D01*
X21179Y-53770D01*
X20771Y-54177D01*
X20550Y-54710D01*
X20549Y-55287D01*
X20770Y-55820D01*
X21177Y-56228D01*
X21710Y-56449D01*
X22287Y-56450D01*
X22820Y-56229D01*
X23228Y-55822D01*
X23449Y-55289D01*
X23450Y-54712D01*
X23450Y-57700D01*
X17450Y-57700D01*
X17450Y-51712D01*
X17229Y-51179D01*
X16822Y-50771D01*
X16289Y-50550D01*
X15712Y-50549D01*
X15179Y-50770D01*
X14771Y-51177D01*
X14550Y-51710D01*
X14549Y-52287D01*
X14770Y-52820D01*
X15177Y-53228D01*
X15710Y-53449D01*
X16287Y-53450D01*
X16820Y-53229D01*
X17228Y-52822D01*
X17449Y-52289D01*
X17450Y-51712D01*
X17450Y-57700D01*
X13029Y-57700D01*
X11969Y-57489D01*
X11094Y-56905D01*
X10510Y-56030D01*
X10300Y-54970D01*
X10300Y-34829D01*
X10328Y-34687D01*
X10392Y-34592D01*
X10487Y-34528D01*
X10658Y-34494D01*
X10888Y-34448D01*
X10888Y-34448D01*
X10932Y-34430D01*
X10996Y-34403D01*
X10996Y-34403D01*
X11190Y-34273D01*
X11190Y-34273D01*
X11190Y-34273D01*
X11232Y-34232D01*
X11273Y-34190D01*
X11273Y-34190D01*
X11273Y-34190D01*
X11403Y-33996D01*
X11403Y-33996D01*
X11448Y-33888D01*
X11448Y-33888D01*
X11448Y-33888D01*
X11494Y-33658D01*
X11494Y-33628D01*
X11500Y-33600D01*
X11500Y-28200D01*
X11500Y-22800D01*
X11494Y-22771D01*
X11494Y-22741D01*
X11448Y-22511D01*
X11448Y-22511D01*
X11448Y-22511D01*
X11403Y-22403D01*
X11403Y-22403D01*
X11273Y-22209D01*
X11273Y-22209D01*
X11273Y-22209D01*
X11232Y-22167D01*
X11190Y-22126D01*
X11190Y-22126D01*
X10996Y-21996D01*
X10996Y-21996D01*
X10932Y-21969D01*
X10888Y-21951D01*
X10658Y-21905D01*
X10487Y-21871D01*
X10392Y-21807D01*
X10328Y-21712D01*
X10300Y-21570D01*
X10300Y-13029D01*
X10510Y-11969D01*
X11094Y-11094D01*
X11969Y-10510D01*
X13029Y-10300D01*
X54970Y-10300D01*
X56030Y-10510D01*
X56905Y-11094D01*
X57489Y-11969D01*
X57700Y-13029D01*
X57700Y-33170D01*
X57671Y-33312D01*
X57607Y-33407D01*
X57512Y-33471D01*
X57341Y-33505D01*
X57111Y-33551D01*
X57111Y-33551D01*
X57003Y-33596D01*
X56809Y-33726D01*
X56809Y-33726D01*
X56767Y-33767D01*
X56726Y-33809D01*
X56726Y-33809D01*
X56596Y-34003D01*
X56569Y-34067D01*
X56551Y-34111D01*
X56505Y-34341D01*
X56505Y-34371D01*
X56500Y-34400D01*
X56500Y-36425D01*
X56280Y-36205D01*
X56280Y-32851D01*
X56181Y-32612D01*
X55998Y-32429D01*
X55759Y-32330D01*
X55501Y-32329D01*
X55262Y-32428D01*
X55079Y-32611D01*
X55050Y-32680D01*
X52790Y-32680D01*
X52675Y-32702D01*
X52577Y-32767D01*
X52200Y-33145D01*
X52200Y-31629D01*
X55837Y-27992D01*
X55837Y-27992D01*
X55876Y-27933D01*
X55902Y-27894D01*
X55902Y-27894D01*
X55925Y-27780D01*
X55925Y-27554D01*
X55992Y-27526D01*
X56175Y-27343D01*
X56274Y-27104D01*
X56275Y-26846D01*
X56176Y-26607D01*
X55993Y-26424D01*
X55754Y-26325D01*
X55496Y-26324D01*
X55257Y-26423D01*
X55074Y-26606D01*
X54975Y-26845D01*
X54974Y-27103D01*
X55073Y-27342D01*
X55256Y-27525D01*
X55325Y-27554D01*
X55325Y-27655D01*
X51910Y-31070D01*
X51910Y-26349D01*
X55837Y-22422D01*
X55837Y-22422D01*
X55902Y-22324D01*
X55924Y-22210D01*
X55925Y-22210D01*
X55925Y-21554D01*
X55992Y-21526D01*
X56175Y-21343D01*
X56274Y-21104D01*
X56275Y-20846D01*
X56176Y-20607D01*
X55993Y-20424D01*
X55754Y-20325D01*
X55496Y-20324D01*
X55257Y-20423D01*
X55074Y-20606D01*
X54975Y-20845D01*
X54974Y-21103D01*
X55073Y-21342D01*
X55256Y-21525D01*
X55325Y-21554D01*
X55325Y-22085D01*
X51397Y-26012D01*
X51332Y-26110D01*
X51310Y-26225D01*
X51310Y-35050D01*
X51332Y-35164D01*
X51397Y-35262D01*
X51577Y-35442D01*
X51577Y-35872D01*
X50843Y-35872D01*
X50752Y-35910D01*
X50681Y-35981D01*
X50656Y-36041D01*
X50656Y-36041D01*
X50587Y-36087D01*
X50356Y-36319D01*
X50356Y-36073D01*
X50318Y-35981D01*
X50247Y-35910D01*
X50156Y-35872D01*
X50056Y-35872D01*
X49422Y-35872D01*
X49422Y-34847D01*
X49989Y-34280D01*
X50050Y-34280D01*
X50078Y-34347D01*
X50261Y-34530D01*
X50500Y-34629D01*
X50758Y-34630D01*
X50997Y-34531D01*
X51180Y-34348D01*
X51279Y-34109D01*
X51280Y-33851D01*
X51181Y-33612D01*
X50998Y-33429D01*
X50930Y-33400D01*
X50930Y-21804D01*
X55837Y-16897D01*
X55837Y-16897D01*
X55876Y-16838D01*
X55902Y-16799D01*
X55902Y-16799D01*
X55925Y-16685D01*
X55925Y-15554D01*
X55992Y-15526D01*
X56175Y-15343D01*
X56274Y-15104D01*
X56275Y-14846D01*
X56176Y-14607D01*
X55993Y-14424D01*
X55754Y-14325D01*
X55496Y-14324D01*
X55257Y-14423D01*
X55074Y-14606D01*
X54975Y-14845D01*
X54974Y-15103D01*
X55073Y-15342D01*
X55256Y-15525D01*
X55325Y-15554D01*
X55325Y-16560D01*
X53450Y-18435D01*
X53450Y-15712D01*
X53229Y-15179D01*
X52822Y-14771D01*
X52289Y-14550D01*
X51712Y-14549D01*
X51179Y-14770D01*
X50771Y-15177D01*
X50550Y-15710D01*
X50549Y-16287D01*
X50770Y-16820D01*
X51177Y-17228D01*
X51710Y-17449D01*
X52287Y-17450D01*
X52820Y-17229D01*
X53228Y-16822D01*
X53449Y-16289D01*
X53450Y-15712D01*
X53450Y-18435D01*
X50417Y-21467D01*
X50352Y-21565D01*
X50330Y-21680D01*
X50330Y-33400D01*
X50262Y-33428D01*
X50079Y-33611D01*
X50050Y-33680D01*
X49865Y-33680D01*
X49750Y-33702D01*
X49652Y-33767D01*
X48909Y-34510D01*
X48844Y-34608D01*
X48822Y-34722D01*
X48822Y-35872D01*
X48450Y-35872D01*
X48450Y-22518D01*
X48450Y-22418D01*
X48450Y-21513D01*
X48450Y-19486D01*
X48450Y-19387D01*
X48450Y-18481D01*
X48412Y-18389D01*
X48342Y-18319D01*
X48250Y-18281D01*
X48151Y-18281D01*
X47450Y-18281D01*
X47450Y-12712D01*
X47229Y-12179D01*
X46822Y-11771D01*
X46289Y-11550D01*
X45712Y-11549D01*
X45179Y-11770D01*
X44771Y-12177D01*
X44550Y-12710D01*
X44549Y-13287D01*
X44770Y-13820D01*
X45177Y-14228D01*
X45710Y-14449D01*
X46287Y-14450D01*
X46820Y-14229D01*
X47228Y-13822D01*
X47449Y-13289D01*
X47450Y-12712D01*
X47450Y-18281D01*
X45946Y-18281D01*
X45854Y-18319D01*
X45784Y-18389D01*
X45746Y-18481D01*
X45746Y-18581D01*
X45746Y-19486D01*
X45784Y-19578D01*
X45854Y-19648D01*
X45946Y-19687D01*
X46045Y-19687D01*
X48250Y-19687D01*
X48342Y-19648D01*
X48412Y-19578D01*
X48450Y-19486D01*
X48450Y-21513D01*
X48412Y-21421D01*
X48342Y-21351D01*
X48250Y-21312D01*
X48151Y-21312D01*
X45946Y-21312D01*
X45854Y-21351D01*
X45784Y-21421D01*
X45746Y-21513D01*
X45746Y-21612D01*
X45746Y-22518D01*
X45784Y-22610D01*
X45854Y-22680D01*
X45946Y-22718D01*
X46045Y-22718D01*
X48250Y-22718D01*
X48342Y-22680D01*
X48412Y-22610D01*
X48450Y-22518D01*
X48450Y-35872D01*
X48088Y-35872D01*
X48000Y-35909D01*
X48000Y-34790D01*
X47977Y-34675D01*
X47912Y-34577D01*
X47912Y-34577D01*
X47450Y-34115D01*
X47450Y-30712D01*
X47229Y-30179D01*
X46822Y-29771D01*
X46289Y-29550D01*
X45712Y-29549D01*
X45419Y-29671D01*
X45419Y-21317D01*
X45419Y-21217D01*
X45419Y-20666D01*
X45381Y-20574D01*
X45310Y-20504D01*
X45299Y-20500D01*
X45310Y-20495D01*
X45381Y-20425D01*
X45419Y-20333D01*
X45419Y-20095D01*
X45419Y-19920D01*
X45419Y-19682D01*
X45381Y-19590D01*
X45310Y-19520D01*
X45219Y-19482D01*
X45119Y-19482D01*
X44587Y-19482D01*
X44525Y-19544D01*
X44525Y-19982D01*
X45356Y-19982D01*
X45419Y-19920D01*
X45419Y-20095D01*
X45356Y-20032D01*
X44525Y-20032D01*
X44525Y-20040D01*
X44475Y-20040D01*
X44475Y-20032D01*
X44475Y-19982D01*
X44475Y-19544D01*
X44412Y-19482D01*
X43880Y-19482D01*
X43780Y-19482D01*
X43689Y-19520D01*
X43618Y-19590D01*
X43580Y-19682D01*
X43580Y-19920D01*
X43643Y-19982D01*
X44475Y-19982D01*
X44475Y-20032D01*
X43643Y-20032D01*
X43580Y-20095D01*
X43580Y-20333D01*
X43618Y-20425D01*
X43689Y-20495D01*
X43700Y-20500D01*
X43689Y-20504D01*
X43618Y-20574D01*
X43580Y-20666D01*
X43580Y-20679D01*
X43521Y-20619D01*
X43364Y-20555D01*
X43195Y-20554D01*
X43039Y-20619D01*
X42919Y-20738D01*
X42855Y-20895D01*
X42854Y-21064D01*
X42905Y-21185D01*
X42905Y-21360D01*
X42933Y-21503D01*
X43014Y-21625D01*
X43254Y-21865D01*
X43327Y-21913D01*
X43376Y-21946D01*
X43376Y-21946D01*
X43520Y-21975D01*
X44380Y-21975D01*
X44523Y-21946D01*
X44645Y-21865D01*
X44765Y-21745D01*
X44846Y-21623D01*
X44867Y-21517D01*
X44867Y-21517D01*
X45219Y-21517D01*
X45310Y-21479D01*
X45381Y-21409D01*
X45419Y-21317D01*
X45419Y-29671D01*
X45179Y-29770D01*
X44771Y-30177D01*
X44550Y-30710D01*
X44549Y-31287D01*
X44770Y-31820D01*
X45177Y-32228D01*
X45710Y-32449D01*
X46287Y-32450D01*
X46820Y-32229D01*
X47228Y-31822D01*
X47449Y-31289D01*
X47450Y-30712D01*
X47450Y-34115D01*
X47422Y-34087D01*
X47324Y-34022D01*
X47210Y-34000D01*
X40530Y-34000D01*
X40530Y-31659D01*
X40530Y-31560D01*
X40530Y-31140D01*
X40491Y-31048D01*
X40443Y-31000D01*
X40491Y-30951D01*
X40530Y-30859D01*
X40530Y-30687D01*
X40530Y-30512D01*
X40530Y-30340D01*
X40530Y-25659D01*
X40530Y-25560D01*
X40530Y-25140D01*
X40491Y-25048D01*
X40443Y-25000D01*
X40491Y-24951D01*
X40530Y-24859D01*
X40530Y-24687D01*
X40530Y-24512D01*
X40530Y-24340D01*
X40530Y-19659D01*
X40530Y-19560D01*
X40530Y-19140D01*
X40491Y-19048D01*
X40443Y-19000D01*
X40491Y-18951D01*
X40530Y-18859D01*
X40530Y-18687D01*
X40530Y-18512D01*
X40530Y-18340D01*
X40530Y-13659D01*
X40530Y-13560D01*
X40530Y-13140D01*
X40491Y-13048D01*
X40443Y-13000D01*
X40491Y-12951D01*
X40530Y-12859D01*
X40530Y-12687D01*
X40530Y-12512D01*
X40530Y-12340D01*
X40491Y-12248D01*
X40421Y-12178D01*
X40329Y-12140D01*
X40230Y-12140D01*
X40087Y-12140D01*
X40025Y-12202D01*
X40025Y-12575D01*
X40467Y-12575D01*
X40530Y-12512D01*
X40530Y-12687D01*
X40467Y-12625D01*
X40025Y-12625D01*
X40025Y-12632D01*
X39975Y-12632D01*
X39975Y-12625D01*
X39975Y-12575D01*
X39975Y-12202D01*
X39912Y-12140D01*
X39769Y-12140D01*
X39670Y-12140D01*
X39578Y-12178D01*
X39508Y-12248D01*
X39470Y-12340D01*
X39470Y-12512D01*
X39532Y-12575D01*
X39975Y-12575D01*
X39975Y-12625D01*
X39532Y-12625D01*
X39470Y-12687D01*
X39470Y-12859D01*
X39508Y-12951D01*
X39556Y-13000D01*
X39508Y-13048D01*
X39470Y-13140D01*
X39470Y-13239D01*
X39470Y-13659D01*
X39508Y-13751D01*
X39578Y-13821D01*
X39625Y-13841D01*
X39625Y-14774D01*
X39575Y-14895D01*
X39574Y-15064D01*
X39639Y-15220D01*
X39758Y-15340D01*
X39915Y-15404D01*
X40084Y-15405D01*
X40240Y-15340D01*
X40360Y-15221D01*
X40424Y-15064D01*
X40425Y-14895D01*
X40375Y-14774D01*
X40375Y-13841D01*
X40421Y-13821D01*
X40491Y-13751D01*
X40530Y-13659D01*
X40530Y-18340D01*
X40491Y-18248D01*
X40421Y-18178D01*
X40329Y-18140D01*
X40230Y-18140D01*
X40087Y-18140D01*
X40025Y-18202D01*
X40025Y-18575D01*
X40467Y-18575D01*
X40530Y-18512D01*
X40530Y-18687D01*
X40467Y-18625D01*
X40025Y-18625D01*
X40025Y-18632D01*
X39975Y-18632D01*
X39975Y-18625D01*
X39975Y-18575D01*
X39975Y-18202D01*
X39912Y-18140D01*
X39769Y-18140D01*
X39670Y-18140D01*
X39578Y-18178D01*
X39508Y-18248D01*
X39470Y-18340D01*
X39470Y-18512D01*
X39532Y-18575D01*
X39975Y-18575D01*
X39975Y-18625D01*
X39532Y-18625D01*
X39470Y-18687D01*
X39470Y-18859D01*
X39508Y-18951D01*
X39556Y-19000D01*
X39508Y-19048D01*
X39470Y-19140D01*
X39470Y-19239D01*
X39470Y-19659D01*
X39508Y-19751D01*
X39578Y-19821D01*
X39625Y-19841D01*
X39625Y-20774D01*
X39575Y-20895D01*
X39574Y-21064D01*
X39639Y-21220D01*
X39758Y-21340D01*
X39915Y-21404D01*
X40084Y-21405D01*
X40240Y-21340D01*
X40360Y-21221D01*
X40424Y-21064D01*
X40425Y-20895D01*
X40375Y-20774D01*
X40375Y-19841D01*
X40421Y-19821D01*
X40491Y-19751D01*
X40530Y-19659D01*
X40530Y-24340D01*
X40491Y-24248D01*
X40421Y-24178D01*
X40329Y-24140D01*
X40230Y-24140D01*
X40087Y-24140D01*
X40025Y-24202D01*
X40025Y-24575D01*
X40467Y-24575D01*
X40530Y-24512D01*
X40530Y-24687D01*
X40467Y-24625D01*
X40025Y-24625D01*
X40025Y-24632D01*
X39975Y-24632D01*
X39975Y-24625D01*
X39975Y-24575D01*
X39975Y-24202D01*
X39912Y-24140D01*
X39769Y-24140D01*
X39670Y-24140D01*
X39578Y-24178D01*
X39508Y-24248D01*
X39470Y-24340D01*
X39470Y-24512D01*
X39532Y-24575D01*
X39975Y-24575D01*
X39975Y-24625D01*
X39532Y-24625D01*
X39470Y-24687D01*
X39470Y-24859D01*
X39508Y-24951D01*
X39556Y-25000D01*
X39508Y-25048D01*
X39470Y-25140D01*
X39470Y-25239D01*
X39470Y-25659D01*
X39508Y-25751D01*
X39578Y-25821D01*
X39625Y-25841D01*
X39625Y-26774D01*
X39575Y-26895D01*
X39574Y-27064D01*
X39639Y-27220D01*
X39758Y-27340D01*
X39915Y-27404D01*
X40084Y-27405D01*
X40240Y-27340D01*
X40360Y-27221D01*
X40424Y-27064D01*
X40425Y-26895D01*
X40375Y-26774D01*
X40375Y-25841D01*
X40421Y-25821D01*
X40491Y-25751D01*
X40530Y-25659D01*
X40530Y-30340D01*
X40491Y-30248D01*
X40421Y-30178D01*
X40329Y-30140D01*
X40230Y-30140D01*
X40087Y-30140D01*
X40025Y-30202D01*
X40025Y-30575D01*
X40467Y-30575D01*
X40530Y-30512D01*
X40530Y-30687D01*
X40467Y-30625D01*
X40025Y-30625D01*
X40025Y-30632D01*
X39975Y-30632D01*
X39975Y-30625D01*
X39975Y-30575D01*
X39975Y-30202D01*
X39912Y-30140D01*
X39769Y-30140D01*
X39670Y-30140D01*
X39578Y-30178D01*
X39508Y-30248D01*
X39470Y-30340D01*
X39470Y-30512D01*
X39532Y-30575D01*
X39975Y-30575D01*
X39975Y-30625D01*
X39532Y-30625D01*
X39470Y-30687D01*
X39470Y-30859D01*
X39508Y-30951D01*
X39556Y-31000D01*
X39508Y-31048D01*
X39470Y-31140D01*
X39470Y-31239D01*
X39470Y-31659D01*
X39508Y-31751D01*
X39578Y-31821D01*
X39625Y-31841D01*
X39625Y-32774D01*
X39575Y-32895D01*
X39574Y-33064D01*
X39639Y-33220D01*
X39758Y-33340D01*
X39915Y-33404D01*
X40084Y-33405D01*
X40240Y-33340D01*
X40360Y-33221D01*
X40424Y-33064D01*
X40425Y-32895D01*
X40375Y-32774D01*
X40375Y-31841D01*
X40421Y-31821D01*
X40491Y-31751D01*
X40530Y-31659D01*
X40530Y-34000D01*
X39524Y-34000D01*
X36312Y-30787D01*
X36247Y-30744D01*
X36211Y-30658D01*
X36141Y-30588D01*
X36049Y-30550D01*
X35950Y-30550D01*
X35150Y-30550D01*
X35114Y-30564D01*
X35111Y-30558D01*
X35041Y-30488D01*
X34949Y-30450D01*
X34850Y-30450D01*
X34050Y-30450D01*
X34000Y-30470D01*
X33949Y-30450D01*
X33850Y-30450D01*
X33050Y-30450D01*
X32958Y-30488D01*
X32888Y-30558D01*
X32885Y-30564D01*
X32849Y-30550D01*
X32750Y-30550D01*
X31950Y-30550D01*
X31858Y-30588D01*
X31788Y-30658D01*
X31750Y-30750D01*
X31750Y-30795D01*
X30450Y-32095D01*
X30450Y-25649D01*
X30450Y-25550D01*
X30450Y-24350D01*
X30450Y-19649D01*
X30450Y-19550D01*
X30450Y-18350D01*
X30450Y-13649D01*
X30450Y-13550D01*
X30450Y-12350D01*
X30411Y-12258D01*
X30341Y-12188D01*
X30249Y-12150D01*
X30150Y-12150D01*
X28950Y-12150D01*
X28858Y-12188D01*
X28788Y-12258D01*
X28750Y-12350D01*
X28750Y-12449D01*
X28750Y-13649D01*
X28788Y-13741D01*
X28858Y-13811D01*
X28950Y-13850D01*
X29049Y-13850D01*
X29225Y-13850D01*
X29225Y-14774D01*
X29175Y-14895D01*
X29174Y-15064D01*
X29239Y-15220D01*
X29358Y-15340D01*
X29515Y-15404D01*
X29684Y-15405D01*
X29840Y-15340D01*
X29960Y-15221D01*
X30024Y-15064D01*
X30025Y-14895D01*
X29975Y-14774D01*
X29975Y-13850D01*
X30249Y-13850D01*
X30341Y-13811D01*
X30411Y-13741D01*
X30450Y-13649D01*
X30450Y-18350D01*
X30411Y-18258D01*
X30341Y-18188D01*
X30249Y-18150D01*
X30150Y-18150D01*
X28950Y-18150D01*
X28858Y-18188D01*
X28788Y-18258D01*
X28750Y-18350D01*
X28750Y-18449D01*
X28750Y-19649D01*
X28788Y-19741D01*
X28858Y-19811D01*
X28950Y-19850D01*
X29049Y-19850D01*
X29225Y-19850D01*
X29225Y-20605D01*
X27250Y-20605D01*
X27250Y-19649D01*
X27250Y-19550D01*
X27250Y-19087D01*
X27250Y-18912D01*
X27250Y-18449D01*
X27250Y-18350D01*
X27250Y-13649D01*
X27250Y-13550D01*
X27250Y-13087D01*
X27250Y-12912D01*
X27250Y-12449D01*
X27250Y-12350D01*
X27211Y-12258D01*
X27141Y-12188D01*
X27049Y-12150D01*
X26487Y-12150D01*
X26425Y-12212D01*
X26425Y-12975D01*
X27187Y-12975D01*
X27250Y-12912D01*
X27250Y-13087D01*
X27187Y-13025D01*
X26425Y-13025D01*
X26425Y-13787D01*
X26487Y-13850D01*
X27049Y-13850D01*
X27141Y-13811D01*
X27211Y-13741D01*
X27250Y-13649D01*
X27250Y-18350D01*
X27211Y-18258D01*
X27141Y-18188D01*
X27049Y-18150D01*
X26487Y-18150D01*
X26425Y-18212D01*
X26425Y-18975D01*
X27187Y-18975D01*
X27250Y-18912D01*
X27250Y-19087D01*
X27187Y-19025D01*
X26425Y-19025D01*
X26425Y-19787D01*
X26487Y-19850D01*
X27049Y-19850D01*
X27141Y-19811D01*
X27211Y-19741D01*
X27250Y-19649D01*
X27250Y-20605D01*
X26375Y-20605D01*
X26375Y-19787D01*
X26375Y-19025D01*
X26375Y-18975D01*
X26375Y-18212D01*
X26375Y-13787D01*
X26375Y-13025D01*
X26375Y-12975D01*
X26375Y-12212D01*
X26312Y-12150D01*
X25750Y-12150D01*
X25658Y-12188D01*
X25588Y-12258D01*
X25550Y-12350D01*
X25550Y-12449D01*
X25550Y-12912D01*
X25612Y-12975D01*
X26375Y-12975D01*
X26375Y-13025D01*
X25612Y-13025D01*
X25550Y-13087D01*
X25550Y-13550D01*
X25550Y-13649D01*
X25588Y-13741D01*
X25658Y-13811D01*
X25750Y-13850D01*
X26312Y-13850D01*
X26375Y-13787D01*
X26375Y-18212D01*
X26312Y-18150D01*
X25750Y-18150D01*
X25658Y-18188D01*
X25588Y-18258D01*
X25550Y-18350D01*
X25550Y-18449D01*
X25550Y-18912D01*
X25612Y-18975D01*
X26375Y-18975D01*
X26375Y-19025D01*
X25612Y-19025D01*
X25550Y-19087D01*
X25550Y-19550D01*
X25550Y-19649D01*
X25588Y-19741D01*
X25658Y-19811D01*
X25750Y-19850D01*
X26312Y-19850D01*
X26375Y-19787D01*
X26375Y-20605D01*
X25915Y-20605D01*
X25053Y-19742D01*
X24931Y-19661D01*
X24787Y-19632D01*
X24398Y-19632D01*
X24381Y-19590D01*
X24310Y-19520D01*
X24219Y-19482D01*
X24119Y-19482D01*
X23450Y-19482D01*
X23450Y-12712D01*
X23229Y-12179D01*
X22822Y-11771D01*
X22289Y-11550D01*
X21712Y-11549D01*
X21179Y-11770D01*
X20771Y-12177D01*
X20550Y-12710D01*
X20549Y-13287D01*
X20770Y-13820D01*
X21177Y-14228D01*
X21710Y-14449D01*
X22287Y-14450D01*
X22820Y-14229D01*
X23228Y-13822D01*
X23449Y-13289D01*
X23450Y-12712D01*
X23450Y-19482D01*
X22780Y-19482D01*
X22689Y-19520D01*
X22618Y-19590D01*
X22580Y-19682D01*
X22580Y-19782D01*
X22580Y-20333D01*
X22618Y-20425D01*
X22689Y-20495D01*
X22700Y-20500D01*
X22689Y-20504D01*
X22618Y-20574D01*
X22580Y-20666D01*
X22580Y-20904D01*
X22643Y-20967D01*
X23475Y-20967D01*
X23475Y-20959D01*
X23525Y-20959D01*
X23525Y-20967D01*
X24356Y-20967D01*
X24419Y-20904D01*
X24419Y-20666D01*
X24381Y-20574D01*
X24310Y-20504D01*
X24299Y-20499D01*
X24310Y-20495D01*
X24381Y-20425D01*
X24398Y-20382D01*
X24632Y-20382D01*
X25494Y-21245D01*
X25616Y-21326D01*
X25760Y-21355D01*
X29394Y-21355D01*
X29515Y-21404D01*
X29684Y-21405D01*
X29840Y-21340D01*
X29960Y-21221D01*
X30024Y-21064D01*
X30025Y-20895D01*
X29975Y-20774D01*
X29975Y-19850D01*
X30249Y-19850D01*
X30341Y-19811D01*
X30411Y-19741D01*
X30450Y-19649D01*
X30450Y-24350D01*
X30411Y-24258D01*
X30341Y-24188D01*
X30249Y-24150D01*
X30150Y-24150D01*
X28950Y-24150D01*
X28858Y-24188D01*
X28788Y-24258D01*
X28750Y-24350D01*
X28750Y-24449D01*
X28750Y-25649D01*
X28788Y-25741D01*
X28858Y-25811D01*
X28950Y-25850D01*
X29049Y-25850D01*
X29225Y-25850D01*
X29225Y-26754D01*
X29175Y-26875D01*
X29174Y-27044D01*
X29239Y-27200D01*
X29358Y-27320D01*
X29515Y-27384D01*
X29684Y-27385D01*
X29840Y-27320D01*
X29960Y-27201D01*
X30024Y-27044D01*
X30025Y-26875D01*
X29975Y-26754D01*
X29975Y-25850D01*
X30249Y-25850D01*
X30341Y-25811D01*
X30411Y-25741D01*
X30450Y-25649D01*
X30450Y-32095D01*
X30100Y-32445D01*
X29957Y-32445D01*
X30019Y-32294D01*
X30020Y-32125D01*
X29970Y-32004D01*
X29970Y-31850D01*
X30244Y-31850D01*
X30336Y-31811D01*
X30406Y-31741D01*
X30445Y-31649D01*
X30445Y-31550D01*
X30445Y-30350D01*
X30406Y-30258D01*
X30336Y-30188D01*
X30244Y-30150D01*
X30145Y-30150D01*
X28945Y-30150D01*
X28853Y-30188D01*
X28783Y-30258D01*
X28745Y-30350D01*
X28745Y-30449D01*
X28745Y-31649D01*
X28783Y-31741D01*
X28853Y-31811D01*
X28945Y-31850D01*
X29044Y-31850D01*
X29220Y-31850D01*
X29220Y-32004D01*
X29170Y-32125D01*
X29169Y-32294D01*
X29232Y-32445D01*
X27250Y-32445D01*
X27250Y-25649D01*
X27250Y-25550D01*
X27250Y-25087D01*
X27250Y-24912D01*
X27250Y-24449D01*
X27250Y-24350D01*
X27211Y-24258D01*
X27141Y-24188D01*
X27049Y-24150D01*
X26487Y-24150D01*
X26425Y-24212D01*
X26425Y-24975D01*
X27187Y-24975D01*
X27250Y-24912D01*
X27250Y-25087D01*
X27187Y-25025D01*
X26425Y-25025D01*
X26425Y-25787D01*
X26487Y-25850D01*
X27049Y-25850D01*
X27141Y-25811D01*
X27211Y-25741D01*
X27250Y-25649D01*
X27250Y-32445D01*
X27245Y-32445D01*
X27245Y-31649D01*
X27245Y-31550D01*
X27245Y-31087D01*
X27245Y-30912D01*
X27245Y-30449D01*
X27245Y-30350D01*
X27206Y-30258D01*
X27136Y-30188D01*
X27044Y-30150D01*
X26482Y-30150D01*
X26420Y-30212D01*
X26420Y-30975D01*
X27182Y-30975D01*
X27245Y-30912D01*
X27245Y-31087D01*
X27182Y-31025D01*
X26420Y-31025D01*
X26420Y-31787D01*
X26482Y-31850D01*
X27044Y-31850D01*
X27136Y-31811D01*
X27206Y-31741D01*
X27245Y-31649D01*
X27245Y-32445D01*
X26375Y-32445D01*
X26375Y-25787D01*
X26375Y-25025D01*
X26375Y-24975D01*
X26375Y-24212D01*
X26312Y-24150D01*
X25750Y-24150D01*
X25658Y-24188D01*
X25588Y-24258D01*
X25550Y-24350D01*
X25550Y-24449D01*
X25550Y-24912D01*
X25612Y-24975D01*
X26375Y-24975D01*
X26375Y-25025D01*
X25612Y-25025D01*
X25550Y-25087D01*
X25550Y-25550D01*
X25550Y-25649D01*
X25588Y-25741D01*
X25658Y-25811D01*
X25750Y-25850D01*
X26312Y-25850D01*
X26375Y-25787D01*
X26375Y-32445D01*
X26074Y-32445D01*
X25590Y-31960D01*
X25590Y-31748D01*
X25653Y-31811D01*
X25745Y-31850D01*
X26307Y-31850D01*
X26370Y-31787D01*
X26370Y-31025D01*
X26362Y-31025D01*
X26362Y-30975D01*
X26370Y-30975D01*
X26370Y-30212D01*
X26307Y-30150D01*
X25745Y-30150D01*
X25653Y-30188D01*
X25590Y-30251D01*
X25590Y-27730D01*
X25567Y-27615D01*
X25567Y-27615D01*
X25502Y-27517D01*
X24419Y-26435D01*
X24419Y-21317D01*
X24419Y-21079D01*
X24356Y-21017D01*
X23525Y-21017D01*
X23525Y-21455D01*
X23587Y-21517D01*
X24119Y-21517D01*
X24219Y-21517D01*
X24310Y-21479D01*
X24381Y-21409D01*
X24419Y-21317D01*
X24419Y-26435D01*
X23475Y-25490D01*
X23475Y-21455D01*
X23475Y-21017D01*
X22643Y-21017D01*
X22580Y-21079D01*
X22580Y-21317D01*
X22618Y-21409D01*
X22689Y-21479D01*
X22780Y-21517D01*
X22880Y-21517D01*
X23412Y-21517D01*
X23475Y-21455D01*
X23475Y-25490D01*
X22253Y-24269D01*
X22253Y-22518D01*
X22253Y-22418D01*
X22253Y-21513D01*
X22253Y-19486D01*
X22253Y-19387D01*
X22253Y-18481D01*
X22215Y-18389D01*
X22145Y-18319D01*
X22053Y-18281D01*
X21954Y-18281D01*
X19749Y-18281D01*
X19657Y-18319D01*
X19587Y-18389D01*
X19549Y-18481D01*
X19549Y-18581D01*
X19549Y-19486D01*
X19587Y-19578D01*
X19657Y-19648D01*
X19749Y-19687D01*
X19848Y-19687D01*
X22053Y-19687D01*
X22145Y-19648D01*
X22215Y-19578D01*
X22253Y-19486D01*
X22253Y-21513D01*
X22215Y-21421D01*
X22145Y-21351D01*
X22053Y-21312D01*
X21954Y-21312D01*
X19749Y-21312D01*
X19657Y-21351D01*
X19587Y-21421D01*
X19549Y-21513D01*
X19549Y-21612D01*
X19549Y-22518D01*
X19587Y-22610D01*
X19657Y-22680D01*
X19749Y-22718D01*
X19848Y-22718D01*
X22053Y-22718D01*
X22145Y-22680D01*
X22215Y-22610D01*
X22253Y-22518D01*
X22253Y-24269D01*
X21872Y-23887D01*
X21774Y-23822D01*
X21660Y-23800D01*
X17750Y-23800D01*
X17635Y-23822D01*
X17537Y-23887D01*
X17450Y-23975D01*
X17450Y-15712D01*
X17229Y-15179D01*
X16822Y-14771D01*
X16289Y-14550D01*
X15712Y-14549D01*
X15179Y-14770D01*
X14771Y-15177D01*
X14550Y-15710D01*
X14549Y-16287D01*
X14770Y-16820D01*
X15177Y-17228D01*
X15710Y-17449D01*
X16287Y-17450D01*
X16820Y-17229D01*
X17228Y-16822D01*
X17449Y-16289D01*
X17450Y-15712D01*
X17450Y-23975D01*
X17152Y-24272D01*
X17056Y-24272D01*
X16422Y-24272D01*
X16422Y-23832D01*
X16587Y-23667D01*
X16587Y-23667D01*
X16652Y-23569D01*
X16674Y-23455D01*
X16675Y-23455D01*
X16675Y-22604D01*
X16742Y-22576D01*
X16925Y-22393D01*
X17024Y-22154D01*
X17025Y-21896D01*
X16926Y-21657D01*
X16743Y-21474D01*
X16504Y-21375D01*
X16246Y-21374D01*
X16007Y-21473D01*
X15824Y-21656D01*
X15725Y-21895D01*
X15724Y-22153D01*
X15823Y-22392D01*
X16006Y-22575D01*
X16075Y-22604D01*
X16075Y-23330D01*
X15909Y-23495D01*
X15844Y-23593D01*
X15822Y-23707D01*
X15822Y-24272D01*
X15088Y-24272D01*
X14996Y-24310D01*
X14925Y-24381D01*
X14887Y-24473D01*
X14887Y-24572D01*
X14887Y-24813D01*
X14675Y-24600D01*
X14675Y-22604D01*
X14742Y-22576D01*
X14925Y-22393D01*
X15024Y-22154D01*
X15025Y-21896D01*
X14926Y-21657D01*
X14743Y-21474D01*
X14504Y-21375D01*
X14246Y-21374D01*
X14007Y-21473D01*
X13824Y-21656D01*
X13725Y-21895D01*
X13724Y-22153D01*
X13823Y-22392D01*
X14006Y-22575D01*
X14075Y-22604D01*
X14075Y-24725D01*
X14097Y-24839D01*
X14162Y-24937D01*
X14625Y-25400D01*
X14294Y-25400D01*
X12675Y-23780D01*
X12675Y-23604D01*
X12742Y-23576D01*
X12925Y-23393D01*
X13024Y-23154D01*
X13025Y-22896D01*
X12926Y-22657D01*
X12743Y-22474D01*
X12504Y-22375D01*
X12246Y-22374D01*
X12007Y-22473D01*
X11824Y-22656D01*
X11725Y-22895D01*
X11724Y-23153D01*
X11823Y-23392D01*
X12006Y-23575D01*
X12075Y-23604D01*
X12075Y-23905D01*
X12097Y-24019D01*
X12162Y-24117D01*
X13957Y-25912D01*
X14055Y-25977D01*
X14055Y-25977D01*
X14170Y-26000D01*
X14385Y-26000D01*
X12162Y-28222D01*
X12097Y-28320D01*
X12075Y-28435D01*
X12075Y-28445D01*
X12007Y-28473D01*
X11824Y-28656D01*
X11725Y-28895D01*
X11724Y-29153D01*
X11823Y-29392D01*
X12006Y-29575D01*
X12245Y-29674D01*
X12503Y-29675D01*
X12742Y-29576D01*
X12925Y-29393D01*
X12985Y-29250D01*
X12985Y-33990D01*
X12572Y-34403D01*
X12504Y-34375D01*
X12246Y-34374D01*
X12007Y-34473D01*
X11824Y-34656D01*
X11725Y-34895D01*
X11724Y-35153D01*
X11823Y-35392D01*
X12006Y-35575D01*
X12245Y-35674D01*
X12503Y-35675D01*
X12742Y-35576D01*
X12925Y-35393D01*
X13024Y-35154D01*
X13025Y-34896D01*
X12996Y-34827D01*
X13340Y-34484D01*
X13340Y-39635D01*
X12572Y-40403D01*
X12504Y-40375D01*
X12246Y-40374D01*
X12007Y-40473D01*
X11824Y-40656D01*
X11725Y-40895D01*
X11724Y-41153D01*
X11823Y-41392D01*
X12006Y-41575D01*
X12245Y-41674D01*
X12503Y-41675D01*
X12742Y-41576D01*
X12925Y-41393D01*
X13024Y-41154D01*
X13025Y-40896D01*
X12996Y-40827D01*
X13705Y-40119D01*
X13705Y-44280D01*
X12162Y-45822D01*
X12097Y-45920D01*
X12075Y-46035D01*
X12075Y-46445D01*
X12007Y-46473D01*
X11824Y-46656D01*
X11725Y-46895D01*
X11724Y-47153D01*
X11823Y-47392D01*
X12006Y-47575D01*
X12245Y-47674D01*
X12503Y-47675D01*
X12742Y-47576D01*
X12925Y-47393D01*
X13024Y-47154D01*
X13025Y-46896D01*
X12926Y-46657D01*
X12743Y-46474D01*
X12675Y-46445D01*
X12675Y-46159D01*
X14075Y-44759D01*
X14075Y-45445D01*
X14007Y-45473D01*
X13824Y-45656D01*
X13725Y-45895D01*
X13724Y-46153D01*
X13823Y-46392D01*
X14006Y-46575D01*
X14245Y-46674D01*
X14503Y-46675D01*
X14742Y-46576D01*
X14925Y-46393D01*
X14954Y-46325D01*
X17210Y-46325D01*
X17613Y-46727D01*
X17613Y-46727D01*
X17710Y-46792D01*
X17825Y-46815D01*
X22580Y-46815D01*
X22580Y-46841D01*
X22618Y-46932D01*
X22689Y-47003D01*
X22700Y-47007D01*
X22689Y-47012D01*
X22618Y-47082D01*
X22580Y-47174D01*
X22580Y-47274D01*
X22580Y-47825D01*
X22618Y-47917D01*
X22689Y-47987D01*
X22700Y-47992D01*
X22689Y-47996D01*
X22618Y-48067D01*
X22580Y-48158D01*
X22580Y-48396D01*
X22643Y-48459D01*
X23475Y-48459D01*
X23475Y-48451D01*
X23525Y-48451D01*
X23525Y-48459D01*
X24356Y-48459D01*
X24419Y-48396D01*
X24419Y-48158D01*
X24381Y-48067D01*
X24310Y-47996D01*
X24299Y-47992D01*
X24310Y-47987D01*
X24381Y-47917D01*
X24398Y-47875D01*
X24515Y-47875D01*
X24658Y-47846D01*
X24780Y-47765D01*
X25880Y-46665D01*
X28704Y-46665D01*
X29225Y-47185D01*
X29225Y-48150D01*
X28950Y-48150D01*
X28858Y-48188D01*
X28788Y-48258D01*
X28750Y-48350D01*
X28750Y-48449D01*
X28750Y-49649D01*
X28788Y-49741D01*
X28858Y-49811D01*
X28950Y-49850D01*
X29049Y-49850D01*
X29225Y-49850D01*
X29225Y-50774D01*
X29175Y-50895D01*
X29174Y-51064D01*
X29239Y-51220D01*
X29358Y-51340D01*
X29515Y-51404D01*
X29684Y-51405D01*
X29840Y-51340D01*
X29960Y-51221D01*
X30024Y-51064D01*
X30025Y-50895D01*
X29975Y-50774D01*
X29975Y-49850D01*
X30249Y-49850D01*
X30341Y-49811D01*
X30411Y-49741D01*
X30450Y-49649D01*
X30450Y-49550D01*
X30450Y-48350D01*
X30450Y-43649D01*
X30450Y-43550D01*
X30450Y-42350D01*
X30450Y-37649D01*
X30450Y-37550D01*
X30450Y-36350D01*
X30411Y-36258D01*
X30341Y-36188D01*
X30249Y-36150D01*
X30150Y-36150D01*
X28950Y-36150D01*
X28858Y-36188D01*
X28788Y-36258D01*
X28750Y-36350D01*
X28750Y-36449D01*
X28750Y-37649D01*
X28788Y-37741D01*
X28858Y-37811D01*
X28950Y-37850D01*
X29049Y-37850D01*
X29225Y-37850D01*
X29225Y-38754D01*
X29175Y-38875D01*
X29174Y-39044D01*
X29239Y-39200D01*
X29358Y-39320D01*
X29515Y-39384D01*
X29684Y-39385D01*
X29840Y-39320D01*
X29960Y-39201D01*
X30024Y-39044D01*
X30025Y-38875D01*
X29975Y-38754D01*
X29975Y-37850D01*
X30249Y-37850D01*
X30341Y-37811D01*
X30411Y-37741D01*
X30450Y-37649D01*
X30450Y-42350D01*
X30411Y-42258D01*
X30341Y-42188D01*
X30249Y-42150D01*
X30150Y-42150D01*
X28950Y-42150D01*
X28858Y-42188D01*
X28788Y-42258D01*
X28750Y-42350D01*
X28750Y-42449D01*
X28750Y-43649D01*
X28788Y-43741D01*
X28858Y-43811D01*
X28950Y-43850D01*
X29049Y-43850D01*
X29225Y-43850D01*
X29225Y-44754D01*
X29175Y-44875D01*
X29174Y-45044D01*
X29239Y-45200D01*
X29358Y-45320D01*
X29515Y-45384D01*
X29684Y-45385D01*
X29840Y-45320D01*
X29960Y-45201D01*
X30024Y-45044D01*
X30025Y-44875D01*
X29975Y-44754D01*
X29975Y-43850D01*
X30249Y-43850D01*
X30341Y-43811D01*
X30411Y-43741D01*
X30450Y-43649D01*
X30450Y-48350D01*
X30411Y-48258D01*
X30341Y-48188D01*
X30249Y-48150D01*
X30150Y-48150D01*
X29975Y-48150D01*
X29975Y-47030D01*
X29946Y-46886D01*
X29865Y-46764D01*
X29125Y-46024D01*
X29003Y-45943D01*
X28860Y-45915D01*
X27250Y-45915D01*
X27250Y-43649D01*
X27250Y-43550D01*
X27250Y-43087D01*
X27250Y-42912D01*
X27250Y-42449D01*
X27250Y-42350D01*
X27250Y-37649D01*
X27250Y-37550D01*
X27250Y-37087D01*
X27250Y-36912D01*
X27250Y-36449D01*
X27250Y-36350D01*
X27211Y-36258D01*
X27141Y-36188D01*
X27049Y-36150D01*
X26487Y-36150D01*
X26425Y-36212D01*
X26425Y-36975D01*
X27187Y-36975D01*
X27250Y-36912D01*
X27250Y-37087D01*
X27187Y-37025D01*
X26425Y-37025D01*
X26425Y-37787D01*
X26487Y-37850D01*
X27049Y-37850D01*
X27141Y-37811D01*
X27211Y-37741D01*
X27250Y-37649D01*
X27250Y-42350D01*
X27211Y-42258D01*
X27141Y-42188D01*
X27049Y-42150D01*
X26487Y-42150D01*
X26425Y-42212D01*
X26425Y-42975D01*
X27187Y-42975D01*
X27250Y-42912D01*
X27250Y-43087D01*
X27187Y-43025D01*
X26425Y-43025D01*
X26425Y-43787D01*
X26487Y-43850D01*
X27049Y-43850D01*
X27141Y-43811D01*
X27211Y-43741D01*
X27250Y-43649D01*
X27250Y-45915D01*
X26375Y-45915D01*
X26375Y-43787D01*
X26375Y-43025D01*
X26375Y-42975D01*
X26375Y-42212D01*
X26375Y-37787D01*
X26375Y-37025D01*
X26375Y-36975D01*
X26375Y-36212D01*
X26312Y-36150D01*
X25750Y-36150D01*
X25658Y-36188D01*
X25588Y-36258D01*
X25550Y-36350D01*
X25550Y-36449D01*
X25550Y-36912D01*
X25612Y-36975D01*
X26375Y-36975D01*
X26375Y-37025D01*
X25612Y-37025D01*
X25550Y-37087D01*
X25550Y-37550D01*
X25550Y-37649D01*
X25588Y-37741D01*
X25658Y-37811D01*
X25750Y-37850D01*
X26312Y-37850D01*
X26375Y-37787D01*
X26375Y-42212D01*
X26312Y-42150D01*
X25750Y-42150D01*
X25658Y-42188D01*
X25588Y-42258D01*
X25550Y-42350D01*
X25550Y-42449D01*
X25550Y-42912D01*
X25612Y-42975D01*
X26375Y-42975D01*
X26375Y-43025D01*
X25612Y-43025D01*
X25550Y-43087D01*
X25550Y-43550D01*
X25550Y-43649D01*
X25588Y-43741D01*
X25658Y-43811D01*
X25750Y-43850D01*
X26312Y-43850D01*
X26375Y-43787D01*
X26375Y-45915D01*
X25725Y-45915D01*
X25581Y-45943D01*
X25459Y-46024D01*
X24387Y-47097D01*
X24381Y-47082D01*
X24310Y-47012D01*
X24299Y-47007D01*
X24310Y-47003D01*
X24381Y-46932D01*
X24419Y-46841D01*
X24419Y-46741D01*
X24419Y-46190D01*
X24381Y-46098D01*
X24310Y-46028D01*
X24219Y-45990D01*
X24119Y-45990D01*
X23450Y-45990D01*
X23450Y-36712D01*
X23229Y-36179D01*
X22822Y-35771D01*
X22289Y-35550D01*
X21712Y-35549D01*
X21179Y-35770D01*
X20771Y-36177D01*
X20550Y-36710D01*
X20549Y-37287D01*
X20770Y-37820D01*
X21177Y-38228D01*
X21710Y-38449D01*
X22287Y-38450D01*
X22820Y-38229D01*
X23228Y-37822D01*
X23449Y-37289D01*
X23450Y-36712D01*
X23450Y-45990D01*
X22780Y-45990D01*
X22689Y-46028D01*
X22618Y-46098D01*
X22580Y-46190D01*
X22580Y-46215D01*
X22253Y-46215D01*
X22253Y-45994D01*
X22253Y-45895D01*
X22253Y-44989D01*
X22215Y-44897D01*
X22145Y-44827D01*
X22053Y-44789D01*
X21954Y-44789D01*
X20112Y-44789D01*
X20112Y-31926D01*
X20112Y-31827D01*
X20112Y-31787D01*
X20112Y-31612D01*
X20112Y-31572D01*
X20112Y-31473D01*
X20112Y-30926D01*
X20112Y-30827D01*
X20112Y-30787D01*
X20112Y-30612D01*
X20112Y-30572D01*
X20112Y-30473D01*
X20074Y-30381D01*
X20003Y-30310D01*
X19911Y-30272D01*
X18965Y-30272D01*
X18902Y-30335D01*
X18902Y-30675D01*
X20049Y-30675D01*
X20112Y-30612D01*
X20112Y-30787D01*
X20049Y-30725D01*
X18902Y-30725D01*
X18902Y-31064D01*
X18965Y-31127D01*
X19911Y-31127D01*
X20003Y-31089D01*
X20074Y-31018D01*
X20112Y-30926D01*
X20112Y-31473D01*
X20074Y-31381D01*
X20003Y-31310D01*
X19911Y-31272D01*
X18965Y-31272D01*
X18902Y-31335D01*
X18902Y-31675D01*
X20049Y-31675D01*
X20112Y-31612D01*
X20112Y-31787D01*
X20049Y-31725D01*
X18902Y-31725D01*
X18902Y-32064D01*
X18965Y-32127D01*
X19911Y-32127D01*
X20003Y-32089D01*
X20074Y-32018D01*
X20112Y-31926D01*
X20112Y-44789D01*
X19749Y-44789D01*
X19657Y-44827D01*
X19587Y-44897D01*
X19549Y-44989D01*
X19549Y-45089D01*
X19549Y-45994D01*
X19587Y-46086D01*
X19657Y-46156D01*
X19749Y-46194D01*
X19848Y-46194D01*
X22053Y-46194D01*
X22145Y-46156D01*
X22215Y-46086D01*
X22253Y-45994D01*
X22253Y-46215D01*
X18852Y-46215D01*
X18852Y-32064D01*
X18852Y-31725D01*
X18852Y-31675D01*
X18852Y-31335D01*
X18852Y-31064D01*
X18852Y-30725D01*
X18852Y-30675D01*
X18852Y-30335D01*
X18790Y-30272D01*
X17843Y-30272D01*
X17752Y-30310D01*
X17681Y-30381D01*
X17643Y-30473D01*
X17643Y-30572D01*
X17643Y-30612D01*
X17706Y-30675D01*
X18852Y-30675D01*
X18852Y-30725D01*
X17706Y-30725D01*
X17643Y-30787D01*
X17643Y-30827D01*
X17643Y-30926D01*
X17681Y-31018D01*
X17752Y-31089D01*
X17843Y-31127D01*
X18790Y-31127D01*
X18852Y-31064D01*
X18852Y-31335D01*
X18790Y-31272D01*
X17843Y-31272D01*
X17752Y-31310D01*
X17681Y-31381D01*
X17643Y-31473D01*
X17643Y-31572D01*
X17643Y-31612D01*
X17706Y-31675D01*
X18852Y-31675D01*
X18852Y-31725D01*
X17706Y-31725D01*
X17643Y-31787D01*
X17643Y-31827D01*
X17643Y-31926D01*
X17681Y-32018D01*
X17752Y-32089D01*
X17843Y-32127D01*
X18790Y-32127D01*
X18852Y-32064D01*
X18852Y-46215D01*
X17950Y-46215D01*
X17547Y-45812D01*
X17449Y-45747D01*
X17356Y-45729D01*
X17356Y-31926D01*
X17356Y-31827D01*
X17356Y-31787D01*
X17356Y-31612D01*
X17356Y-31572D01*
X17356Y-31473D01*
X17356Y-30926D01*
X17356Y-30827D01*
X17356Y-30787D01*
X17356Y-30612D01*
X17356Y-30572D01*
X17356Y-30473D01*
X17318Y-30381D01*
X17247Y-30310D01*
X17156Y-30272D01*
X16209Y-30272D01*
X16147Y-30335D01*
X16147Y-30675D01*
X17293Y-30675D01*
X17356Y-30612D01*
X17356Y-30787D01*
X17293Y-30725D01*
X16147Y-30725D01*
X16147Y-31064D01*
X16209Y-31127D01*
X17156Y-31127D01*
X17247Y-31089D01*
X17318Y-31018D01*
X17356Y-30926D01*
X17356Y-31473D01*
X17318Y-31381D01*
X17247Y-31310D01*
X17156Y-31272D01*
X16209Y-31272D01*
X16147Y-31335D01*
X16147Y-31675D01*
X17293Y-31675D01*
X17356Y-31612D01*
X17356Y-31787D01*
X17293Y-31725D01*
X16147Y-31725D01*
X16147Y-32064D01*
X16209Y-32127D01*
X17156Y-32127D01*
X17247Y-32089D01*
X17318Y-32018D01*
X17356Y-31926D01*
X17356Y-45729D01*
X17335Y-45725D01*
X16097Y-45725D01*
X16097Y-32064D01*
X16097Y-31725D01*
X16097Y-31675D01*
X16097Y-31335D01*
X16097Y-31064D01*
X16097Y-30725D01*
X16097Y-30675D01*
X16097Y-30335D01*
X16034Y-30272D01*
X15088Y-30272D01*
X14996Y-30310D01*
X14925Y-30381D01*
X14887Y-30473D01*
X14887Y-30572D01*
X14887Y-30612D01*
X14950Y-30675D01*
X16097Y-30675D01*
X16097Y-30725D01*
X14950Y-30725D01*
X14887Y-30787D01*
X14887Y-30827D01*
X14887Y-30926D01*
X14925Y-31018D01*
X14996Y-31089D01*
X15088Y-31127D01*
X16034Y-31127D01*
X16097Y-31064D01*
X16097Y-31335D01*
X16034Y-31272D01*
X15088Y-31272D01*
X14996Y-31310D01*
X14925Y-31381D01*
X14887Y-31473D01*
X14887Y-31572D01*
X14887Y-31612D01*
X14950Y-31675D01*
X16097Y-31675D01*
X16097Y-31725D01*
X14950Y-31725D01*
X14887Y-31787D01*
X14887Y-31827D01*
X14887Y-31926D01*
X14925Y-32018D01*
X14996Y-32089D01*
X15088Y-32127D01*
X16034Y-32127D01*
X16097Y-32064D01*
X16097Y-45725D01*
X14954Y-45725D01*
X14926Y-45657D01*
X14743Y-45474D01*
X14675Y-45445D01*
X14675Y-28749D01*
X14887Y-28536D01*
X14887Y-28572D01*
X14887Y-28926D01*
X14925Y-29018D01*
X14996Y-29089D01*
X15088Y-29127D01*
X15187Y-29127D01*
X15747Y-29127D01*
X15747Y-29200D01*
X15747Y-29272D01*
X15088Y-29272D01*
X14996Y-29310D01*
X14925Y-29381D01*
X14887Y-29473D01*
X14887Y-29572D01*
X14887Y-29926D01*
X14925Y-30018D01*
X14996Y-30089D01*
X15088Y-30127D01*
X15187Y-30127D01*
X17156Y-30127D01*
X17247Y-30089D01*
X17318Y-30018D01*
X17356Y-29926D01*
X17356Y-29827D01*
X17356Y-29575D01*
X17643Y-29575D01*
X17643Y-29926D01*
X17681Y-30018D01*
X17752Y-30089D01*
X17843Y-30127D01*
X17943Y-30127D01*
X19911Y-30127D01*
X20003Y-30089D01*
X20074Y-30018D01*
X20112Y-29926D01*
X20112Y-29827D01*
X20112Y-29575D01*
X20270Y-29575D01*
X20413Y-29546D01*
X20535Y-29465D01*
X20960Y-29040D01*
X20960Y-29040D01*
X21008Y-28967D01*
X21041Y-28918D01*
X21041Y-28918D01*
X21070Y-28775D01*
X21070Y-28580D01*
X21119Y-28459D01*
X21120Y-28290D01*
X21055Y-28134D01*
X20936Y-28014D01*
X20779Y-27950D01*
X20610Y-27949D01*
X20454Y-28014D01*
X20334Y-28133D01*
X20270Y-28290D01*
X20269Y-28459D01*
X20320Y-28580D01*
X20320Y-28619D01*
X20114Y-28825D01*
X20112Y-28825D01*
X20112Y-28473D01*
X20074Y-28381D01*
X20003Y-28310D01*
X19911Y-28272D01*
X19812Y-28272D01*
X17843Y-28272D01*
X17752Y-28310D01*
X17681Y-28381D01*
X17643Y-28473D01*
X17643Y-28572D01*
X17643Y-28825D01*
X17356Y-28825D01*
X17356Y-28498D01*
X17464Y-28477D01*
X17464Y-28477D01*
X17562Y-28412D01*
X17847Y-28127D01*
X17943Y-28127D01*
X19911Y-28127D01*
X20003Y-28089D01*
X20074Y-28018D01*
X20112Y-27926D01*
X20112Y-27827D01*
X20112Y-27500D01*
X21925Y-27500D01*
X23365Y-28939D01*
X23365Y-30506D01*
X23229Y-30179D01*
X22822Y-29771D01*
X22289Y-29550D01*
X21712Y-29549D01*
X21179Y-29770D01*
X20771Y-30177D01*
X20550Y-30710D01*
X20549Y-31287D01*
X20770Y-31820D01*
X21177Y-32228D01*
X21710Y-32449D01*
X22287Y-32450D01*
X22820Y-32229D01*
X23228Y-31822D01*
X23365Y-31493D01*
X23365Y-32490D01*
X23387Y-32604D01*
X23452Y-32702D01*
X25237Y-34487D01*
X25335Y-34552D01*
X25335Y-34552D01*
X25450Y-34575D01*
X28950Y-34575D01*
X31587Y-37212D01*
X31685Y-37277D01*
X31768Y-37293D01*
X31768Y-37293D01*
X31788Y-37341D01*
X31858Y-37411D01*
X31950Y-37450D01*
X32049Y-37450D01*
X32849Y-37450D01*
X32885Y-37435D01*
X32888Y-37441D01*
X32958Y-37511D01*
X33050Y-37550D01*
X33149Y-37550D01*
X33949Y-37550D01*
X33999Y-37529D01*
X34050Y-37550D01*
X34149Y-37550D01*
X34949Y-37550D01*
X35041Y-37511D01*
X35111Y-37441D01*
X35114Y-37435D01*
X35150Y-37450D01*
X35249Y-37450D01*
X36049Y-37450D01*
X36135Y-37414D01*
X36135Y-38690D01*
X36157Y-38804D01*
X36222Y-38902D01*
X38092Y-40772D01*
X38190Y-40837D01*
X38190Y-40837D01*
X38305Y-40860D01*
X47134Y-40860D01*
X47074Y-40919D01*
X46993Y-41041D01*
X46965Y-41185D01*
X46965Y-43650D01*
X46993Y-43793D01*
X47074Y-43915D01*
X47629Y-44470D01*
X47751Y-44551D01*
X47895Y-44580D01*
X50501Y-44580D01*
X50600Y-44678D01*
X50600Y-44769D01*
X50550Y-44890D01*
X50549Y-45059D01*
X50600Y-45180D01*
X50600Y-46007D01*
X49482Y-47125D01*
X45398Y-47125D01*
X45381Y-47082D01*
X45310Y-47012D01*
X45299Y-47007D01*
X45310Y-47003D01*
X45381Y-46932D01*
X45419Y-46841D01*
X45419Y-46815D01*
X49084Y-46815D01*
X49084Y-46815D01*
X49199Y-46792D01*
X49199Y-46792D01*
X49296Y-46727D01*
X49427Y-46596D01*
X49495Y-46624D01*
X49753Y-46625D01*
X49992Y-46526D01*
X50175Y-46343D01*
X50274Y-46104D01*
X50275Y-45846D01*
X50176Y-45607D01*
X49993Y-45424D01*
X49754Y-45325D01*
X49496Y-45324D01*
X49257Y-45423D01*
X49074Y-45606D01*
X48975Y-45845D01*
X48974Y-46103D01*
X49003Y-46172D01*
X48959Y-46215D01*
X48450Y-46215D01*
X48450Y-45994D01*
X48450Y-45895D01*
X48450Y-44989D01*
X48412Y-44897D01*
X48342Y-44827D01*
X48250Y-44789D01*
X48151Y-44789D01*
X45946Y-44789D01*
X45854Y-44827D01*
X45784Y-44897D01*
X45746Y-44989D01*
X45746Y-45089D01*
X45746Y-45994D01*
X45784Y-46086D01*
X45854Y-46156D01*
X45946Y-46194D01*
X46045Y-46194D01*
X48250Y-46194D01*
X48342Y-46156D01*
X48412Y-46086D01*
X48450Y-45994D01*
X48450Y-46215D01*
X45419Y-46215D01*
X45419Y-46190D01*
X45381Y-46098D01*
X45310Y-46028D01*
X45219Y-45990D01*
X45119Y-45990D01*
X43780Y-45990D01*
X43689Y-46028D01*
X43618Y-46098D01*
X43580Y-46190D01*
X43580Y-46289D01*
X43580Y-46841D01*
X43618Y-46932D01*
X43689Y-47003D01*
X43700Y-47007D01*
X43689Y-47012D01*
X43618Y-47082D01*
X43580Y-47174D01*
X43580Y-47274D01*
X43580Y-47825D01*
X43618Y-47917D01*
X43689Y-47987D01*
X43700Y-47992D01*
X43689Y-47996D01*
X43618Y-48067D01*
X43580Y-48158D01*
X43580Y-48396D01*
X43643Y-48459D01*
X44475Y-48459D01*
X44475Y-48451D01*
X44525Y-48451D01*
X44525Y-48459D01*
X45356Y-48459D01*
X45419Y-48396D01*
X45419Y-48158D01*
X45381Y-48067D01*
X45310Y-47996D01*
X45299Y-47992D01*
X45310Y-47987D01*
X45381Y-47917D01*
X45398Y-47875D01*
X49638Y-47875D01*
X49781Y-47846D01*
X49903Y-47765D01*
X51240Y-46428D01*
X51321Y-46306D01*
X51350Y-46163D01*
X51350Y-45180D01*
X51399Y-45059D01*
X51400Y-44890D01*
X51350Y-44769D01*
X51350Y-44523D01*
X51321Y-44379D01*
X51321Y-44379D01*
X51288Y-44330D01*
X51240Y-44257D01*
X50922Y-43939D01*
X50800Y-43858D01*
X50657Y-43830D01*
X50356Y-43830D01*
X50356Y-43526D01*
X50356Y-43427D01*
X50356Y-43387D01*
X50356Y-43212D01*
X50356Y-43172D01*
X50356Y-43073D01*
X50356Y-42526D01*
X50356Y-42427D01*
X50356Y-42387D01*
X50356Y-42212D01*
X50356Y-42172D01*
X50356Y-42073D01*
X50318Y-41981D01*
X50247Y-41910D01*
X50156Y-41872D01*
X49209Y-41872D01*
X49147Y-41935D01*
X49147Y-42275D01*
X50293Y-42275D01*
X50356Y-42212D01*
X50356Y-42387D01*
X50293Y-42325D01*
X49147Y-42325D01*
X49147Y-42664D01*
X49209Y-42727D01*
X50156Y-42727D01*
X50247Y-42689D01*
X50318Y-42618D01*
X50356Y-42526D01*
X50356Y-43073D01*
X50318Y-42981D01*
X50247Y-42910D01*
X50156Y-42872D01*
X49209Y-42872D01*
X49147Y-42935D01*
X49147Y-43275D01*
X50293Y-43275D01*
X50356Y-43212D01*
X50356Y-43387D01*
X50293Y-43325D01*
X49147Y-43325D01*
X49147Y-43664D01*
X49209Y-43727D01*
X50156Y-43727D01*
X50247Y-43689D01*
X50318Y-43618D01*
X50356Y-43526D01*
X50356Y-43830D01*
X49097Y-43830D01*
X49097Y-43664D01*
X49097Y-43325D01*
X49097Y-43275D01*
X49097Y-42935D01*
X49097Y-42664D01*
X49097Y-42325D01*
X49097Y-42275D01*
X49097Y-41935D01*
X49034Y-41872D01*
X48088Y-41872D01*
X47996Y-41910D01*
X47925Y-41981D01*
X47887Y-42073D01*
X47887Y-42172D01*
X47887Y-42212D01*
X47950Y-42275D01*
X49097Y-42275D01*
X49097Y-42325D01*
X47950Y-42325D01*
X47887Y-42387D01*
X47887Y-42427D01*
X47887Y-42526D01*
X47925Y-42618D01*
X47996Y-42689D01*
X48088Y-42727D01*
X49034Y-42727D01*
X49097Y-42664D01*
X49097Y-42935D01*
X49034Y-42872D01*
X48088Y-42872D01*
X47996Y-42910D01*
X47925Y-42981D01*
X47887Y-43073D01*
X47887Y-43172D01*
X47887Y-43212D01*
X47950Y-43275D01*
X49097Y-43275D01*
X49097Y-43325D01*
X47950Y-43325D01*
X47887Y-43387D01*
X47887Y-43427D01*
X47887Y-43526D01*
X47925Y-43618D01*
X47996Y-43689D01*
X48088Y-43727D01*
X49034Y-43727D01*
X49097Y-43664D01*
X49097Y-43830D01*
X48050Y-43830D01*
X47715Y-43494D01*
X47715Y-41340D01*
X47880Y-41175D01*
X47887Y-41175D01*
X47887Y-41526D01*
X47925Y-41618D01*
X47996Y-41689D01*
X48088Y-41727D01*
X48187Y-41727D01*
X50156Y-41727D01*
X50247Y-41689D01*
X50318Y-41618D01*
X50356Y-41526D01*
X50356Y-41427D01*
X50356Y-41175D01*
X50643Y-41175D01*
X50643Y-41526D01*
X50681Y-41618D01*
X50752Y-41689D01*
X50843Y-41727D01*
X50943Y-41727D01*
X52911Y-41727D01*
X53003Y-41689D01*
X53074Y-41618D01*
X53112Y-41526D01*
X53112Y-41427D01*
X53112Y-41073D01*
X53074Y-40981D01*
X53003Y-40910D01*
X52911Y-40872D01*
X52812Y-40872D01*
X52252Y-40872D01*
X52252Y-40800D01*
X52252Y-40727D01*
X52911Y-40727D01*
X53003Y-40689D01*
X53074Y-40618D01*
X53112Y-40526D01*
X53112Y-40427D01*
X53112Y-40073D01*
X53074Y-39981D01*
X53003Y-39910D01*
X52911Y-39872D01*
X52812Y-39872D01*
X50843Y-39872D01*
X50752Y-39910D01*
X50681Y-39981D01*
X50643Y-40073D01*
X50643Y-40172D01*
X50643Y-40425D01*
X50356Y-40425D01*
X50356Y-40098D01*
X50464Y-40077D01*
X50464Y-40077D01*
X50562Y-40012D01*
X50847Y-39727D01*
X50943Y-39727D01*
X52911Y-39727D01*
X53003Y-39689D01*
X53074Y-39618D01*
X53081Y-39600D01*
X53465Y-39600D01*
X53980Y-40114D01*
X53980Y-43945D01*
X53112Y-44813D01*
X53112Y-43526D01*
X53112Y-43427D01*
X53112Y-43387D01*
X53112Y-43212D01*
X53112Y-43172D01*
X53112Y-43073D01*
X53112Y-42526D01*
X53112Y-42427D01*
X53112Y-42387D01*
X53112Y-42212D01*
X53112Y-42172D01*
X53112Y-42073D01*
X53074Y-41981D01*
X53003Y-41910D01*
X52911Y-41872D01*
X51965Y-41872D01*
X51902Y-41935D01*
X51902Y-42275D01*
X53049Y-42275D01*
X53112Y-42212D01*
X53112Y-42387D01*
X53049Y-42325D01*
X51902Y-42325D01*
X51902Y-42664D01*
X51965Y-42727D01*
X52911Y-42727D01*
X53003Y-42689D01*
X53074Y-42618D01*
X53112Y-42526D01*
X53112Y-43073D01*
X53074Y-42981D01*
X53003Y-42910D01*
X52911Y-42872D01*
X51965Y-42872D01*
X51902Y-42935D01*
X51902Y-43275D01*
X53049Y-43275D01*
X53112Y-43212D01*
X53112Y-43387D01*
X53049Y-43325D01*
X51902Y-43325D01*
X51902Y-43664D01*
X51965Y-43727D01*
X52911Y-43727D01*
X53003Y-43689D01*
X53074Y-43618D01*
X53112Y-43526D01*
X53112Y-44813D01*
X51852Y-46072D01*
X51852Y-43664D01*
X51852Y-43325D01*
X51852Y-43275D01*
X51852Y-42935D01*
X51852Y-42664D01*
X51852Y-42325D01*
X51852Y-42275D01*
X51852Y-41935D01*
X51790Y-41872D01*
X50843Y-41872D01*
X50752Y-41910D01*
X50681Y-41981D01*
X50643Y-42073D01*
X50643Y-42172D01*
X50643Y-42212D01*
X50706Y-42275D01*
X51852Y-42275D01*
X51852Y-42325D01*
X50706Y-42325D01*
X50643Y-42387D01*
X50643Y-42427D01*
X50643Y-42526D01*
X50681Y-42618D01*
X50752Y-42689D01*
X50843Y-42727D01*
X51790Y-42727D01*
X51852Y-42664D01*
X51852Y-42935D01*
X51790Y-42872D01*
X50843Y-42872D01*
X50752Y-42910D01*
X50681Y-42981D01*
X50643Y-43073D01*
X50643Y-43172D01*
X50643Y-43212D01*
X50706Y-43275D01*
X51852Y-43275D01*
X51852Y-43325D01*
X50706Y-43325D01*
X50643Y-43387D01*
X50643Y-43427D01*
X50643Y-43526D01*
X50681Y-43618D01*
X50752Y-43689D01*
X50843Y-43727D01*
X51790Y-43727D01*
X51852Y-43664D01*
X51852Y-46072D01*
X51487Y-46437D01*
X51422Y-46535D01*
X51400Y-46650D01*
X51400Y-47725D01*
X48450Y-50674D01*
X48450Y-50010D01*
X48450Y-49910D01*
X48450Y-49005D01*
X48412Y-48913D01*
X48342Y-48843D01*
X48250Y-48805D01*
X48151Y-48805D01*
X45946Y-48805D01*
X45854Y-48843D01*
X45784Y-48913D01*
X45746Y-49005D01*
X45746Y-49104D01*
X45746Y-50010D01*
X45784Y-50102D01*
X45854Y-50172D01*
X45946Y-50210D01*
X46045Y-50210D01*
X48250Y-50210D01*
X48342Y-50172D01*
X48412Y-50102D01*
X48450Y-50010D01*
X48450Y-50674D01*
X48412Y-50712D01*
X48347Y-50810D01*
X48325Y-50925D01*
X48325Y-51395D01*
X48257Y-51423D01*
X48074Y-51606D01*
X47975Y-51845D01*
X47974Y-52103D01*
X48073Y-52342D01*
X48256Y-52525D01*
X48495Y-52624D01*
X48753Y-52625D01*
X48992Y-52526D01*
X49175Y-52343D01*
X49274Y-52104D01*
X49275Y-51846D01*
X49176Y-51607D01*
X48993Y-51424D01*
X48925Y-51395D01*
X48925Y-51049D01*
X51474Y-48499D01*
X51474Y-48603D01*
X51573Y-48842D01*
X51756Y-49025D01*
X51995Y-49124D01*
X52253Y-49125D01*
X52492Y-49026D01*
X52675Y-48843D01*
X52774Y-48604D01*
X52775Y-48346D01*
X52676Y-48107D01*
X52493Y-47924D01*
X52425Y-47895D01*
X52425Y-46824D01*
X54842Y-44407D01*
X54842Y-44407D01*
X54881Y-44348D01*
X54907Y-44309D01*
X54907Y-44309D01*
X54930Y-44195D01*
X54930Y-40134D01*
X55325Y-40529D01*
X55325Y-44395D01*
X55257Y-44423D01*
X55074Y-44606D01*
X54975Y-44845D01*
X54974Y-45103D01*
X55073Y-45342D01*
X55256Y-45525D01*
X55495Y-45624D01*
X55753Y-45625D01*
X55992Y-45526D01*
X56175Y-45343D01*
X56274Y-45104D01*
X56275Y-44846D01*
X56176Y-44607D01*
X55993Y-44424D01*
X55925Y-44395D01*
X55925Y-40405D01*
X55902Y-40290D01*
X55902Y-40290D01*
X55876Y-40251D01*
X55837Y-40192D01*
X53744Y-38100D01*
X54325Y-38100D01*
X55003Y-38777D01*
X54975Y-38845D01*
X54974Y-39103D01*
X55073Y-39342D01*
X55256Y-39525D01*
X55495Y-39624D01*
X55753Y-39625D01*
X55992Y-39526D01*
X56175Y-39343D01*
X56274Y-39104D01*
X56275Y-38846D01*
X56176Y-38607D01*
X55993Y-38424D01*
X55754Y-38325D01*
X55496Y-38324D01*
X55427Y-38353D01*
X54662Y-37587D01*
X54564Y-37522D01*
X54450Y-37500D01*
X53524Y-37500D01*
X53852Y-37172D01*
X53917Y-37074D01*
X53917Y-37074D01*
X53940Y-36960D01*
X53940Y-35650D01*
X53917Y-35535D01*
X53917Y-35535D01*
X53852Y-35437D01*
X52710Y-34295D01*
X52710Y-33484D01*
X52914Y-33280D01*
X55050Y-33280D01*
X55078Y-33347D01*
X55261Y-33530D01*
X55500Y-33629D01*
X55758Y-33630D01*
X55997Y-33531D01*
X56180Y-33348D01*
X56279Y-33109D01*
X56280Y-32851D01*
X56280Y-36205D01*
X54251Y-34177D01*
X54279Y-34109D01*
X54280Y-33851D01*
X54181Y-33612D01*
X53998Y-33429D01*
X53759Y-33330D01*
X53501Y-33329D01*
X53262Y-33428D01*
X53079Y-33611D01*
X52980Y-33850D01*
X52979Y-34108D01*
X53078Y-34347D01*
X53261Y-34530D01*
X53500Y-34629D01*
X53758Y-34630D01*
X53827Y-34601D01*
X56295Y-37069D01*
X56295Y-45475D01*
X56095Y-45675D01*
X55204Y-45675D01*
X55176Y-45607D01*
X54993Y-45424D01*
X54754Y-45325D01*
X54496Y-45324D01*
X54257Y-45423D01*
X54074Y-45606D01*
X53975Y-45845D01*
X53974Y-46103D01*
X54073Y-46342D01*
X54256Y-46525D01*
X54495Y-46624D01*
X54753Y-46625D01*
X54992Y-46526D01*
X55175Y-46343D01*
X55204Y-46275D01*
X56220Y-46275D01*
X56220Y-46274D01*
X56334Y-46252D01*
X56334Y-46252D01*
X56432Y-46187D01*
X56777Y-45841D01*
X56809Y-45873D01*
X56809Y-45873D01*
X56809Y-45873D01*
X57003Y-46003D01*
X57003Y-46003D01*
X57111Y-46048D01*
X57111Y-46048D01*
X57111Y-46048D01*
X57341Y-46094D01*
X57512Y-46128D01*
X57607Y-46192D01*
X57671Y-46287D01*
X57700Y-46429D01*
X57700Y-54970D01*
M02*
