%FSLAX34Y34*%
G04 Gerber Fmt 3.4, Leading zero omitted, Abs format*
G04 (created by PCBNEW (2014-04-25 BZR 4828)-product) date Friday 25 April 2014 06:21:09 PM IST*
%MOIN*%
G01*
G70*
G90*
G04 APERTURE LIST*
%ADD10C,0.006000*%
%ADD11C,0.010000*%
G04 APERTURE END LIST*
G54D10*
G54D11*
X58000Y-46400D02*
G75*
G03X57400Y-45800I-600J0D01*
G74*
G01*
X56800Y-45200D02*
G75*
G03X57400Y-45800I600J0D01*
G74*
G01*
X57400Y-33800D02*
G75*
G03X56800Y-34400I0J-600D01*
G74*
G01*
X57400Y-33800D02*
G75*
G03X58000Y-33200I0J600D01*
G74*
G01*
X10000Y-21600D02*
G75*
G03X10600Y-22200I600J0D01*
G74*
G01*
X11200Y-22800D02*
G75*
G03X10600Y-22200I-600J0D01*
G74*
G01*
X10600Y-34200D02*
G75*
G03X10000Y-34800I0J-600D01*
G74*
G01*
X10600Y-34200D02*
G75*
G03X11200Y-33600I0J600D01*
G74*
G01*
X58000Y-33200D02*
X58000Y-13000D01*
X58000Y-46400D02*
X58000Y-55000D01*
X10000Y-34800D02*
X10000Y-55000D01*
X10000Y-21600D02*
X10000Y-13000D01*
X56800Y-39800D02*
X56800Y-45200D01*
X56800Y-39800D02*
X56800Y-34400D01*
X11200Y-28200D02*
X11200Y-33600D01*
X11200Y-28200D02*
X11200Y-22800D01*
X55000Y-58000D02*
X13000Y-58000D01*
X13000Y-10000D02*
X55000Y-10000D01*
X10000Y-55000D02*
G75*
G03X13000Y-58000I3000J0D01*
G74*
G01*
X58000Y-13000D02*
G75*
G03X55000Y-10000I-3000J0D01*
G74*
G01*
X13000Y-10000D02*
G75*
G03X10000Y-13000I0J-3000D01*
G74*
G01*
X55000Y-58000D02*
G75*
G03X58000Y-55000I0J3000D01*
G74*
G01*
M02*
