%FSLAX34Y34*%
G04 Gerber Fmt 3.4, Leading zero omitted, Abs format*
G04 (created by PCBNEW (2014-04-25 BZR 4828)-product) date Saturday 26 April 2014 11:52:58 AM IST*
%MOIN*%
G01*
G70*
G90*
G04 APERTURE LIST*
%ADD10C,0.005000*%
%ADD11C,0.010000*%
%ADD12C,0.007874*%
%ADD13C,0.011811*%
G04 APERTURE END LIST*
G54D10*
G54D11*
X58000Y-46400D02*
G75*
G03X57400Y-45800I-600J0D01*
G74*
G01*
X56800Y-45200D02*
G75*
G03X57400Y-45800I600J0D01*
G74*
G01*
X57400Y-33800D02*
G75*
G03X56800Y-34400I0J-600D01*
G74*
G01*
X57400Y-33800D02*
G75*
G03X58000Y-33200I0J600D01*
G74*
G01*
X10000Y-21600D02*
G75*
G03X10600Y-22200I600J0D01*
G74*
G01*
X11200Y-22800D02*
G75*
G03X10600Y-22200I-600J0D01*
G74*
G01*
X10600Y-34200D02*
G75*
G03X10000Y-34800I0J-600D01*
G74*
G01*
X10600Y-34200D02*
G75*
G03X11200Y-33600I0J600D01*
G74*
G01*
X58000Y-33200D02*
X58000Y-13000D01*
X58000Y-46400D02*
X58000Y-55000D01*
X10000Y-34800D02*
X10000Y-55000D01*
X10000Y-21600D02*
X10000Y-13000D01*
X56800Y-39800D02*
X56800Y-45200D01*
X56800Y-39800D02*
X56800Y-34400D01*
X11200Y-28200D02*
X11200Y-33600D01*
X11200Y-28200D02*
X11200Y-22800D01*
X55000Y-58000D02*
X13000Y-58000D01*
X13000Y-10000D02*
X55000Y-10000D01*
X10000Y-55000D02*
G75*
G03X13000Y-58000I3000J0D01*
G74*
G01*
X58000Y-13000D02*
G75*
G03X55000Y-10000I-3000J0D01*
G74*
G01*
X13000Y-10000D02*
G75*
G03X10000Y-13000I0J-3000D01*
G74*
G01*
X55000Y-58000D02*
G75*
G03X58000Y-55000I0J3000D01*
G74*
G01*
G54D12*
X15775Y-39575D02*
X16025Y-39825D01*
X16025Y-39575D02*
X15775Y-39825D01*
X17375Y-33575D02*
X17625Y-33825D01*
X17625Y-33575D02*
X17375Y-33825D01*
X17575Y-36875D02*
X17825Y-37125D01*
X17825Y-36875D02*
X17575Y-37125D01*
X23125Y-29275D02*
X23375Y-29525D01*
X23375Y-29275D02*
X23125Y-29525D01*
X23375Y-18875D02*
X23625Y-19125D01*
X23625Y-18875D02*
X23375Y-19125D01*
X23375Y-21575D02*
X23625Y-21825D01*
X23625Y-21575D02*
X23375Y-21825D01*
X26275Y-15575D02*
X26525Y-15825D01*
X26525Y-15575D02*
X26275Y-15825D01*
X26275Y-21575D02*
X26525Y-21825D01*
X26525Y-21575D02*
X26275Y-21825D01*
X26275Y-45575D02*
X26525Y-45825D01*
X26525Y-45575D02*
X26275Y-45825D01*
X26275Y-51575D02*
X26525Y-51825D01*
X26525Y-51575D02*
X26275Y-51825D01*
X26275Y-57025D02*
X26525Y-57275D01*
X26525Y-57025D02*
X26275Y-57275D01*
X30875Y-12875D02*
X31125Y-13125D01*
X31125Y-12875D02*
X30875Y-13125D01*
X30875Y-18875D02*
X31125Y-19125D01*
X31125Y-18875D02*
X30875Y-19125D01*
X30875Y-42875D02*
X31125Y-43125D01*
X31125Y-42875D02*
X30875Y-43125D01*
X30875Y-48875D02*
X31125Y-49125D01*
X31125Y-48875D02*
X30875Y-49125D01*
X30875Y-54875D02*
X31125Y-55125D01*
X31125Y-54875D02*
X30875Y-55125D01*
X38275Y-27575D02*
X38525Y-27825D01*
X38525Y-27575D02*
X38275Y-27825D01*
X42875Y-18875D02*
X43125Y-19125D01*
X43125Y-18875D02*
X42875Y-19125D01*
X42875Y-24875D02*
X43125Y-25125D01*
X43125Y-24875D02*
X42875Y-25125D01*
X42875Y-30875D02*
X43125Y-31125D01*
X43125Y-30875D02*
X42875Y-31125D01*
X42875Y-48875D02*
X43125Y-49125D01*
X43125Y-48875D02*
X42875Y-49125D01*
X44375Y-51575D02*
X44625Y-51825D01*
X44625Y-51575D02*
X44375Y-51825D01*
X46775Y-42875D02*
X47025Y-43125D01*
X47025Y-42875D02*
X46775Y-43125D01*
X49475Y-21575D02*
X49725Y-21825D01*
X49725Y-21575D02*
X49475Y-21825D01*
X53325Y-45575D02*
X53575Y-45825D01*
X53575Y-45575D02*
X53325Y-45825D01*
X13200Y-11150D02*
G75*
G03X13200Y-11150I-200J0D01*
G74*
G01*
X13200Y-17150D02*
G75*
G03X13200Y-17150I-200J0D01*
G74*
G01*
X13200Y-23150D02*
G75*
G03X13200Y-23150I-200J0D01*
G74*
G01*
X13200Y-29150D02*
G75*
G03X13200Y-29150I-200J0D01*
G74*
G01*
X13200Y-35150D02*
G75*
G03X13200Y-35150I-200J0D01*
G74*
G01*
X13200Y-41150D02*
G75*
G03X13200Y-41150I-200J0D01*
G74*
G01*
X13200Y-47150D02*
G75*
G03X13200Y-47150I-200J0D01*
G74*
G01*
X13200Y-53150D02*
G75*
G03X13200Y-53150I-200J0D01*
G74*
G01*
X16200Y-20150D02*
G75*
G03X16200Y-20150I-200J0D01*
G74*
G01*
X16200Y-47150D02*
G75*
G03X16200Y-47150I-200J0D01*
G74*
G01*
X22200Y-17150D02*
G75*
G03X22200Y-17150I-200J0D01*
G74*
G01*
X52400Y-33800D02*
G75*
G03X52400Y-33800I-200J0D01*
G74*
G01*
X52750Y-23150D02*
G75*
G03X52750Y-23150I-200J0D01*
G74*
G01*
X52750Y-47150D02*
G75*
G03X52750Y-47150I-200J0D01*
G74*
G01*
X55700Y-33800D02*
G75*
G03X55700Y-33800I-200J0D01*
G74*
G01*
X55750Y-11150D02*
G75*
G03X55750Y-11150I-200J0D01*
G74*
G01*
X55750Y-17150D02*
G75*
G03X55750Y-17150I-200J0D01*
G74*
G01*
X55750Y-23150D02*
G75*
G03X55750Y-23150I-200J0D01*
G74*
G01*
X55750Y-29150D02*
G75*
G03X55750Y-29150I-200J0D01*
G74*
G01*
X55750Y-35150D02*
G75*
G03X55750Y-35150I-200J0D01*
G74*
G01*
X55750Y-41150D02*
G75*
G03X55750Y-41150I-200J0D01*
G74*
G01*
X55750Y-47150D02*
G75*
G03X55750Y-47150I-200J0D01*
G74*
G01*
X55750Y-53150D02*
G75*
G03X55750Y-53150I-200J0D01*
G74*
G01*
X16000Y-15400D02*
X16000Y-16600D01*
X15400Y-16000D02*
X16600Y-16000D01*
X16000Y-51400D02*
X16000Y-52600D01*
X15400Y-52000D02*
X16600Y-52000D01*
X22000Y-12400D02*
X22000Y-13600D01*
X21400Y-13000D02*
X22600Y-13000D01*
X22000Y-30400D02*
X22000Y-31600D01*
X21400Y-31000D02*
X22600Y-31000D01*
X22000Y-36400D02*
X22000Y-37600D01*
X21400Y-37000D02*
X22600Y-37000D01*
X22000Y-54400D02*
X22000Y-55600D01*
X21400Y-55000D02*
X22600Y-55000D01*
X46000Y-12400D02*
X46000Y-13600D01*
X45400Y-13000D02*
X46600Y-13000D01*
X46000Y-30400D02*
X46000Y-31600D01*
X45400Y-31000D02*
X46600Y-31000D01*
X46000Y-36400D02*
X46000Y-37600D01*
X45400Y-37000D02*
X46600Y-37000D01*
X46000Y-54400D02*
X46000Y-55600D01*
X45400Y-55000D02*
X46600Y-55000D01*
X52000Y-15400D02*
X52000Y-16600D01*
X51400Y-16000D02*
X52600Y-16000D01*
X52000Y-51400D02*
X52000Y-52600D01*
X51400Y-52000D02*
X52600Y-52000D01*
G54D13*
X11018Y-59883D02*
X11018Y-58702D01*
X11299Y-58702D01*
X11468Y-58758D01*
X11581Y-58871D01*
X11637Y-58983D01*
X11693Y-59208D01*
X11693Y-59377D01*
X11637Y-59602D01*
X11581Y-59714D01*
X11468Y-59827D01*
X11299Y-59883D01*
X11018Y-59883D01*
X12199Y-59883D02*
X12199Y-59096D01*
X12199Y-59321D02*
X12255Y-59208D01*
X12312Y-59152D01*
X12424Y-59096D01*
X12537Y-59096D01*
X12930Y-59883D02*
X12930Y-59096D01*
X12930Y-58702D02*
X12874Y-58758D01*
X12930Y-58814D01*
X12987Y-58758D01*
X12930Y-58702D01*
X12930Y-58814D01*
X13662Y-59883D02*
X13549Y-59827D01*
X13493Y-59714D01*
X13493Y-58702D01*
X14280Y-59883D02*
X14168Y-59827D01*
X14111Y-59714D01*
X14111Y-58702D01*
X15630Y-59883D02*
X15630Y-58702D01*
X16024Y-59546D01*
X16417Y-58702D01*
X16417Y-59883D01*
X17486Y-59883D02*
X17486Y-59264D01*
X17430Y-59152D01*
X17317Y-59096D01*
X17092Y-59096D01*
X16980Y-59152D01*
X17486Y-59827D02*
X17374Y-59883D01*
X17092Y-59883D01*
X16980Y-59827D01*
X16924Y-59714D01*
X16924Y-59602D01*
X16980Y-59489D01*
X17092Y-59433D01*
X17374Y-59433D01*
X17486Y-59377D01*
X18048Y-59096D02*
X18048Y-60277D01*
X18048Y-59152D02*
X18161Y-59096D01*
X18386Y-59096D01*
X18498Y-59152D01*
X18555Y-59208D01*
X18611Y-59321D01*
X18611Y-59658D01*
X18555Y-59771D01*
X18498Y-59827D01*
X18386Y-59883D01*
X18161Y-59883D01*
X18048Y-59827D01*
X19117Y-59771D02*
X19173Y-59827D01*
X19117Y-59883D01*
X19061Y-59827D01*
X19117Y-59771D01*
X19117Y-59883D01*
X19117Y-59152D02*
X19173Y-59208D01*
X19117Y-59264D01*
X19061Y-59208D01*
X19117Y-59152D01*
X19117Y-59264D01*
X9699Y-61704D02*
X9949Y-61954D01*
X9949Y-61704D02*
X9699Y-61954D01*
X11243Y-61182D02*
X11356Y-61182D01*
X11468Y-61238D01*
X11524Y-61295D01*
X11581Y-61407D01*
X11637Y-61632D01*
X11637Y-61913D01*
X11581Y-62138D01*
X11524Y-62251D01*
X11468Y-62307D01*
X11356Y-62363D01*
X11243Y-62363D01*
X11131Y-62307D01*
X11074Y-62251D01*
X11018Y-62138D01*
X10962Y-61913D01*
X10962Y-61632D01*
X11018Y-61407D01*
X11074Y-61295D01*
X11131Y-61238D01*
X11243Y-61182D01*
X12143Y-62251D02*
X12199Y-62307D01*
X12143Y-62363D01*
X12087Y-62307D01*
X12143Y-62251D01*
X12143Y-62363D01*
X13212Y-61182D02*
X12987Y-61182D01*
X12874Y-61238D01*
X12818Y-61295D01*
X12705Y-61463D01*
X12649Y-61688D01*
X12649Y-62138D01*
X12705Y-62251D01*
X12762Y-62307D01*
X12874Y-62363D01*
X13099Y-62363D01*
X13212Y-62307D01*
X13268Y-62251D01*
X13324Y-62138D01*
X13324Y-61857D01*
X13268Y-61745D01*
X13212Y-61688D01*
X13099Y-61632D01*
X12874Y-61632D01*
X12762Y-61688D01*
X12705Y-61745D01*
X12649Y-61857D01*
X14336Y-61576D02*
X14336Y-62363D01*
X14055Y-61126D02*
X13774Y-61970D01*
X14505Y-61970D01*
X14955Y-62363D02*
X14955Y-61576D01*
X14955Y-61688D02*
X15011Y-61632D01*
X15124Y-61576D01*
X15293Y-61576D01*
X15405Y-61632D01*
X15461Y-61745D01*
X15461Y-62363D01*
X15461Y-61745D02*
X15518Y-61632D01*
X15630Y-61576D01*
X15799Y-61576D01*
X15911Y-61632D01*
X15967Y-61745D01*
X15967Y-62363D01*
X16530Y-62363D02*
X16530Y-61576D01*
X16530Y-61688D02*
X16586Y-61632D01*
X16699Y-61576D01*
X16867Y-61576D01*
X16980Y-61632D01*
X17036Y-61745D01*
X17036Y-62363D01*
X17036Y-61745D02*
X17092Y-61632D01*
X17205Y-61576D01*
X17374Y-61576D01*
X17486Y-61632D01*
X17542Y-61745D01*
X17542Y-62363D01*
X19848Y-61126D02*
X18836Y-62645D01*
X21367Y-61182D02*
X21479Y-61182D01*
X21592Y-61238D01*
X21648Y-61295D01*
X21704Y-61407D01*
X21761Y-61632D01*
X21761Y-61913D01*
X21704Y-62138D01*
X21648Y-62251D01*
X21592Y-62307D01*
X21479Y-62363D01*
X21367Y-62363D01*
X21254Y-62307D01*
X21198Y-62251D01*
X21142Y-62138D01*
X21086Y-61913D01*
X21086Y-61632D01*
X21142Y-61407D01*
X21198Y-61295D01*
X21254Y-61238D01*
X21367Y-61182D01*
X22267Y-62251D02*
X22323Y-62307D01*
X22267Y-62363D01*
X22210Y-62307D01*
X22267Y-62251D01*
X22267Y-62363D01*
X23054Y-61182D02*
X23167Y-61182D01*
X23279Y-61238D01*
X23335Y-61295D01*
X23392Y-61407D01*
X23448Y-61632D01*
X23448Y-61913D01*
X23392Y-62138D01*
X23335Y-62251D01*
X23279Y-62307D01*
X23167Y-62363D01*
X23054Y-62363D01*
X22942Y-62307D01*
X22885Y-62251D01*
X22829Y-62138D01*
X22773Y-61913D01*
X22773Y-61632D01*
X22829Y-61407D01*
X22885Y-61295D01*
X22942Y-61238D01*
X23054Y-61182D01*
X23898Y-61295D02*
X23954Y-61238D01*
X24066Y-61182D01*
X24348Y-61182D01*
X24460Y-61238D01*
X24516Y-61295D01*
X24573Y-61407D01*
X24573Y-61520D01*
X24516Y-61688D01*
X23842Y-62363D01*
X24573Y-62363D01*
X25641Y-61182D02*
X25079Y-61182D01*
X25023Y-61745D01*
X25079Y-61688D01*
X25191Y-61632D01*
X25473Y-61632D01*
X25585Y-61688D01*
X25641Y-61745D01*
X25698Y-61857D01*
X25698Y-62138D01*
X25641Y-62251D01*
X25585Y-62307D01*
X25473Y-62363D01*
X25191Y-62363D01*
X25079Y-62307D01*
X25023Y-62251D01*
X26147Y-61182D02*
X26147Y-61407D01*
X26597Y-61182D02*
X26597Y-61407D01*
X28341Y-62813D02*
X28285Y-62757D01*
X28172Y-62588D01*
X28116Y-62476D01*
X28060Y-62307D01*
X28003Y-62026D01*
X28003Y-61801D01*
X28060Y-61520D01*
X28116Y-61351D01*
X28172Y-61238D01*
X28285Y-61070D01*
X28341Y-61014D01*
X28735Y-61295D02*
X28791Y-61238D01*
X28903Y-61182D01*
X29185Y-61182D01*
X29297Y-61238D01*
X29353Y-61295D01*
X29410Y-61407D01*
X29410Y-61520D01*
X29353Y-61688D01*
X28678Y-62363D01*
X29410Y-62363D01*
X30478Y-61182D02*
X29916Y-61182D01*
X29860Y-61745D01*
X29916Y-61688D01*
X30028Y-61632D01*
X30309Y-61632D01*
X30422Y-61688D01*
X30478Y-61745D01*
X30534Y-61857D01*
X30534Y-62138D01*
X30478Y-62251D01*
X30422Y-62307D01*
X30309Y-62363D01*
X30028Y-62363D01*
X29916Y-62307D01*
X29860Y-62251D01*
X31941Y-62363D02*
X31941Y-61182D01*
X32447Y-62363D02*
X32447Y-61745D01*
X32390Y-61632D01*
X32278Y-61576D01*
X32109Y-61576D01*
X31997Y-61632D01*
X31941Y-61688D01*
X33178Y-62363D02*
X33065Y-62307D01*
X33009Y-62251D01*
X32953Y-62138D01*
X32953Y-61801D01*
X33009Y-61688D01*
X33065Y-61632D01*
X33178Y-61576D01*
X33347Y-61576D01*
X33459Y-61632D01*
X33515Y-61688D01*
X33572Y-61801D01*
X33572Y-62138D01*
X33515Y-62251D01*
X33459Y-62307D01*
X33347Y-62363D01*
X33178Y-62363D01*
X34246Y-62363D02*
X34134Y-62307D01*
X34078Y-62195D01*
X34078Y-61182D01*
X35146Y-62307D02*
X35034Y-62363D01*
X34809Y-62363D01*
X34696Y-62307D01*
X34640Y-62195D01*
X34640Y-61745D01*
X34696Y-61632D01*
X34809Y-61576D01*
X35034Y-61576D01*
X35146Y-61632D01*
X35203Y-61745D01*
X35203Y-61857D01*
X34640Y-61970D01*
X35653Y-62307D02*
X35765Y-62363D01*
X35990Y-62363D01*
X36102Y-62307D01*
X36159Y-62195D01*
X36159Y-62138D01*
X36102Y-62026D01*
X35990Y-61970D01*
X35821Y-61970D01*
X35709Y-61913D01*
X35653Y-61801D01*
X35653Y-61745D01*
X35709Y-61632D01*
X35821Y-61576D01*
X35990Y-61576D01*
X36102Y-61632D01*
X36552Y-62813D02*
X36609Y-62757D01*
X36721Y-62588D01*
X36777Y-62476D01*
X36834Y-62307D01*
X36890Y-62026D01*
X36890Y-61801D01*
X36834Y-61520D01*
X36777Y-61351D01*
X36721Y-61238D01*
X36609Y-61070D01*
X36552Y-61014D01*
G54D12*
X9949Y-63388D02*
G75*
G03X9949Y-63388I-200J0D01*
G74*
G01*
G54D13*
X11637Y-63922D02*
X10962Y-63922D01*
X11299Y-63922D02*
X11299Y-62741D01*
X11187Y-62910D01*
X11074Y-63023D01*
X10962Y-63079D01*
X12143Y-63810D02*
X12199Y-63866D01*
X12143Y-63922D01*
X12087Y-63866D01*
X12143Y-63810D01*
X12143Y-63922D01*
X12930Y-62741D02*
X13043Y-62741D01*
X13155Y-62798D01*
X13212Y-62854D01*
X13268Y-62966D01*
X13324Y-63191D01*
X13324Y-63472D01*
X13268Y-63697D01*
X13212Y-63810D01*
X13155Y-63866D01*
X13043Y-63922D01*
X12930Y-63922D01*
X12818Y-63866D01*
X12762Y-63810D01*
X12705Y-63697D01*
X12649Y-63472D01*
X12649Y-63191D01*
X12705Y-62966D01*
X12762Y-62854D01*
X12818Y-62798D01*
X12930Y-62741D01*
X13774Y-62854D02*
X13830Y-62798D01*
X13943Y-62741D01*
X14224Y-62741D01*
X14336Y-62798D01*
X14393Y-62854D01*
X14449Y-62966D01*
X14449Y-63079D01*
X14393Y-63247D01*
X13718Y-63922D01*
X14449Y-63922D01*
X14955Y-63922D02*
X14955Y-63135D01*
X14955Y-63247D02*
X15011Y-63191D01*
X15124Y-63135D01*
X15293Y-63135D01*
X15405Y-63191D01*
X15461Y-63304D01*
X15461Y-63922D01*
X15461Y-63304D02*
X15518Y-63191D01*
X15630Y-63135D01*
X15799Y-63135D01*
X15911Y-63191D01*
X15967Y-63304D01*
X15967Y-63922D01*
X16530Y-63922D02*
X16530Y-63135D01*
X16530Y-63247D02*
X16586Y-63191D01*
X16699Y-63135D01*
X16867Y-63135D01*
X16980Y-63191D01*
X17036Y-63304D01*
X17036Y-63922D01*
X17036Y-63304D02*
X17092Y-63191D01*
X17205Y-63135D01*
X17374Y-63135D01*
X17486Y-63191D01*
X17542Y-63304D01*
X17542Y-63922D01*
X19848Y-62685D02*
X18836Y-64204D01*
X21367Y-62741D02*
X21479Y-62741D01*
X21592Y-62798D01*
X21648Y-62854D01*
X21704Y-62966D01*
X21761Y-63191D01*
X21761Y-63472D01*
X21704Y-63697D01*
X21648Y-63810D01*
X21592Y-63866D01*
X21479Y-63922D01*
X21367Y-63922D01*
X21254Y-63866D01*
X21198Y-63810D01*
X21142Y-63697D01*
X21086Y-63472D01*
X21086Y-63191D01*
X21142Y-62966D01*
X21198Y-62854D01*
X21254Y-62798D01*
X21367Y-62741D01*
X22267Y-63810D02*
X22323Y-63866D01*
X22267Y-63922D01*
X22210Y-63866D01*
X22267Y-63810D01*
X22267Y-63922D01*
X23054Y-62741D02*
X23167Y-62741D01*
X23279Y-62798D01*
X23335Y-62854D01*
X23392Y-62966D01*
X23448Y-63191D01*
X23448Y-63472D01*
X23392Y-63697D01*
X23335Y-63810D01*
X23279Y-63866D01*
X23167Y-63922D01*
X23054Y-63922D01*
X22942Y-63866D01*
X22885Y-63810D01*
X22829Y-63697D01*
X22773Y-63472D01*
X22773Y-63191D01*
X22829Y-62966D01*
X22885Y-62854D01*
X22942Y-62798D01*
X23054Y-62741D01*
X24460Y-63135D02*
X24460Y-63922D01*
X24179Y-62685D02*
X23898Y-63529D01*
X24629Y-63529D01*
X25304Y-62741D02*
X25416Y-62741D01*
X25529Y-62798D01*
X25585Y-62854D01*
X25641Y-62966D01*
X25698Y-63191D01*
X25698Y-63472D01*
X25641Y-63697D01*
X25585Y-63810D01*
X25529Y-63866D01*
X25416Y-63922D01*
X25304Y-63922D01*
X25191Y-63866D01*
X25135Y-63810D01*
X25079Y-63697D01*
X25023Y-63472D01*
X25023Y-63191D01*
X25079Y-62966D01*
X25135Y-62854D01*
X25191Y-62798D01*
X25304Y-62741D01*
X26147Y-62741D02*
X26147Y-62966D01*
X26597Y-62741D02*
X26597Y-62966D01*
X28341Y-64372D02*
X28285Y-64316D01*
X28172Y-64147D01*
X28116Y-64035D01*
X28060Y-63866D01*
X28003Y-63585D01*
X28003Y-63360D01*
X28060Y-63079D01*
X28116Y-62910D01*
X28172Y-62798D01*
X28285Y-62629D01*
X28341Y-62573D01*
X28735Y-62854D02*
X28791Y-62798D01*
X28903Y-62741D01*
X29185Y-62741D01*
X29297Y-62798D01*
X29353Y-62854D01*
X29410Y-62966D01*
X29410Y-63079D01*
X29353Y-63247D01*
X28678Y-63922D01*
X29410Y-63922D01*
X29803Y-62741D02*
X30534Y-62741D01*
X30141Y-63191D01*
X30309Y-63191D01*
X30422Y-63247D01*
X30478Y-63304D01*
X30534Y-63416D01*
X30534Y-63697D01*
X30478Y-63810D01*
X30422Y-63866D01*
X30309Y-63922D01*
X29972Y-63922D01*
X29860Y-63866D01*
X29803Y-63810D01*
X31941Y-63922D02*
X31941Y-62741D01*
X32447Y-63922D02*
X32447Y-63304D01*
X32390Y-63191D01*
X32278Y-63135D01*
X32109Y-63135D01*
X31997Y-63191D01*
X31941Y-63247D01*
X33178Y-63922D02*
X33065Y-63866D01*
X33009Y-63810D01*
X32953Y-63697D01*
X32953Y-63360D01*
X33009Y-63247D01*
X33065Y-63191D01*
X33178Y-63135D01*
X33347Y-63135D01*
X33459Y-63191D01*
X33515Y-63247D01*
X33572Y-63360D01*
X33572Y-63697D01*
X33515Y-63810D01*
X33459Y-63866D01*
X33347Y-63922D01*
X33178Y-63922D01*
X34246Y-63922D02*
X34134Y-63866D01*
X34078Y-63754D01*
X34078Y-62741D01*
X35146Y-63866D02*
X35034Y-63922D01*
X34809Y-63922D01*
X34696Y-63866D01*
X34640Y-63754D01*
X34640Y-63304D01*
X34696Y-63191D01*
X34809Y-63135D01*
X35034Y-63135D01*
X35146Y-63191D01*
X35203Y-63304D01*
X35203Y-63416D01*
X34640Y-63529D01*
X35653Y-63866D02*
X35765Y-63922D01*
X35990Y-63922D01*
X36102Y-63866D01*
X36159Y-63754D01*
X36159Y-63697D01*
X36102Y-63585D01*
X35990Y-63529D01*
X35821Y-63529D01*
X35709Y-63472D01*
X35653Y-63360D01*
X35653Y-63304D01*
X35709Y-63191D01*
X35821Y-63135D01*
X35990Y-63135D01*
X36102Y-63191D01*
X36552Y-64372D02*
X36609Y-64316D01*
X36721Y-64147D01*
X36777Y-64035D01*
X36834Y-63866D01*
X36890Y-63585D01*
X36890Y-63360D01*
X36834Y-63079D01*
X36777Y-62910D01*
X36721Y-62798D01*
X36609Y-62629D01*
X36552Y-62573D01*
X9349Y-64347D02*
X9349Y-65547D01*
X8749Y-64947D02*
X9949Y-64947D01*
X10906Y-64300D02*
X11637Y-64300D01*
X11243Y-64750D01*
X11412Y-64750D01*
X11524Y-64807D01*
X11581Y-64863D01*
X11637Y-64975D01*
X11637Y-65256D01*
X11581Y-65369D01*
X11524Y-65425D01*
X11412Y-65481D01*
X11074Y-65481D01*
X10962Y-65425D01*
X10906Y-65369D01*
X12143Y-65369D02*
X12199Y-65425D01*
X12143Y-65481D01*
X12087Y-65425D01*
X12143Y-65369D01*
X12143Y-65481D01*
X12930Y-64300D02*
X13043Y-64300D01*
X13155Y-64357D01*
X13212Y-64413D01*
X13268Y-64525D01*
X13324Y-64750D01*
X13324Y-65032D01*
X13268Y-65256D01*
X13212Y-65369D01*
X13155Y-65425D01*
X13043Y-65481D01*
X12930Y-65481D01*
X12818Y-65425D01*
X12762Y-65369D01*
X12705Y-65256D01*
X12649Y-65032D01*
X12649Y-64750D01*
X12705Y-64525D01*
X12762Y-64413D01*
X12818Y-64357D01*
X12930Y-64300D01*
X14393Y-64300D02*
X13830Y-64300D01*
X13774Y-64863D01*
X13830Y-64807D01*
X13943Y-64750D01*
X14224Y-64750D01*
X14336Y-64807D01*
X14393Y-64863D01*
X14449Y-64975D01*
X14449Y-65256D01*
X14393Y-65369D01*
X14336Y-65425D01*
X14224Y-65481D01*
X13943Y-65481D01*
X13830Y-65425D01*
X13774Y-65369D01*
X14955Y-65481D02*
X14955Y-64694D01*
X14955Y-64807D02*
X15011Y-64750D01*
X15124Y-64694D01*
X15293Y-64694D01*
X15405Y-64750D01*
X15461Y-64863D01*
X15461Y-65481D01*
X15461Y-64863D02*
X15518Y-64750D01*
X15630Y-64694D01*
X15799Y-64694D01*
X15911Y-64750D01*
X15967Y-64863D01*
X15967Y-65481D01*
X16530Y-65481D02*
X16530Y-64694D01*
X16530Y-64807D02*
X16586Y-64750D01*
X16699Y-64694D01*
X16867Y-64694D01*
X16980Y-64750D01*
X17036Y-64863D01*
X17036Y-65481D01*
X17036Y-64863D02*
X17092Y-64750D01*
X17205Y-64694D01*
X17374Y-64694D01*
X17486Y-64750D01*
X17542Y-64863D01*
X17542Y-65481D01*
X19848Y-64244D02*
X18836Y-65763D01*
X21367Y-64300D02*
X21479Y-64300D01*
X21592Y-64357D01*
X21648Y-64413D01*
X21704Y-64525D01*
X21761Y-64750D01*
X21761Y-65032D01*
X21704Y-65256D01*
X21648Y-65369D01*
X21592Y-65425D01*
X21479Y-65481D01*
X21367Y-65481D01*
X21254Y-65425D01*
X21198Y-65369D01*
X21142Y-65256D01*
X21086Y-65032D01*
X21086Y-64750D01*
X21142Y-64525D01*
X21198Y-64413D01*
X21254Y-64357D01*
X21367Y-64300D01*
X22267Y-65369D02*
X22323Y-65425D01*
X22267Y-65481D01*
X22210Y-65425D01*
X22267Y-65369D01*
X22267Y-65481D01*
X23448Y-65481D02*
X22773Y-65481D01*
X23110Y-65481D02*
X23110Y-64300D01*
X22998Y-64469D01*
X22885Y-64582D01*
X22773Y-64638D01*
X23898Y-64413D02*
X23954Y-64357D01*
X24066Y-64300D01*
X24348Y-64300D01*
X24460Y-64357D01*
X24516Y-64413D01*
X24573Y-64525D01*
X24573Y-64638D01*
X24516Y-64807D01*
X23842Y-65481D01*
X24573Y-65481D01*
X25304Y-64300D02*
X25416Y-64300D01*
X25529Y-64357D01*
X25585Y-64413D01*
X25641Y-64525D01*
X25698Y-64750D01*
X25698Y-65032D01*
X25641Y-65256D01*
X25585Y-65369D01*
X25529Y-65425D01*
X25416Y-65481D01*
X25304Y-65481D01*
X25191Y-65425D01*
X25135Y-65369D01*
X25079Y-65256D01*
X25023Y-65032D01*
X25023Y-64750D01*
X25079Y-64525D01*
X25135Y-64413D01*
X25191Y-64357D01*
X25304Y-64300D01*
X26147Y-64300D02*
X26147Y-64525D01*
X26597Y-64300D02*
X26597Y-64525D01*
X28341Y-65931D02*
X28285Y-65875D01*
X28172Y-65706D01*
X28116Y-65594D01*
X28060Y-65425D01*
X28003Y-65144D01*
X28003Y-64919D01*
X28060Y-64638D01*
X28116Y-64469D01*
X28172Y-64357D01*
X28285Y-64188D01*
X28341Y-64132D01*
X29410Y-65481D02*
X28735Y-65481D01*
X29072Y-65481D02*
X29072Y-64300D01*
X28960Y-64469D01*
X28847Y-64582D01*
X28735Y-64638D01*
X29860Y-64413D02*
X29916Y-64357D01*
X30028Y-64300D01*
X30309Y-64300D01*
X30422Y-64357D01*
X30478Y-64413D01*
X30534Y-64525D01*
X30534Y-64638D01*
X30478Y-64807D01*
X29803Y-65481D01*
X30534Y-65481D01*
X31941Y-65481D02*
X31941Y-64300D01*
X32447Y-65481D02*
X32447Y-64863D01*
X32390Y-64750D01*
X32278Y-64694D01*
X32109Y-64694D01*
X31997Y-64750D01*
X31941Y-64807D01*
X33178Y-65481D02*
X33065Y-65425D01*
X33009Y-65369D01*
X32953Y-65256D01*
X32953Y-64919D01*
X33009Y-64807D01*
X33065Y-64750D01*
X33178Y-64694D01*
X33347Y-64694D01*
X33459Y-64750D01*
X33515Y-64807D01*
X33572Y-64919D01*
X33572Y-65256D01*
X33515Y-65369D01*
X33459Y-65425D01*
X33347Y-65481D01*
X33178Y-65481D01*
X34246Y-65481D02*
X34134Y-65425D01*
X34078Y-65313D01*
X34078Y-64300D01*
X35146Y-65425D02*
X35034Y-65481D01*
X34809Y-65481D01*
X34696Y-65425D01*
X34640Y-65313D01*
X34640Y-64863D01*
X34696Y-64750D01*
X34809Y-64694D01*
X35034Y-64694D01*
X35146Y-64750D01*
X35203Y-64863D01*
X35203Y-64975D01*
X34640Y-65088D01*
X35653Y-65425D02*
X35765Y-65481D01*
X35990Y-65481D01*
X36102Y-65425D01*
X36159Y-65313D01*
X36159Y-65256D01*
X36102Y-65144D01*
X35990Y-65088D01*
X35821Y-65088D01*
X35709Y-65032D01*
X35653Y-64919D01*
X35653Y-64863D01*
X35709Y-64750D01*
X35821Y-64694D01*
X35990Y-64694D01*
X36102Y-64750D01*
X36552Y-65931D02*
X36609Y-65875D01*
X36721Y-65706D01*
X36777Y-65594D01*
X36834Y-65425D01*
X36890Y-65144D01*
X36890Y-64919D01*
X36834Y-64638D01*
X36777Y-64469D01*
X36721Y-64357D01*
X36609Y-64188D01*
X36552Y-64132D01*
M02*
