G04 (created by PCBNEW (2013-jul-07)-stable) date Friday 25 April 2014 11:21:42 AM IST*
%MOIN*%
G04 Gerber Fmt 3.4, Leading zero omitted, Abs format*
%FSLAX34Y34*%
G01*
G70*
G90*
G04 APERTURE LIST*
%ADD10C,0.006*%
%ADD11C,0.01*%
%ADD12C,0.015*%
%ADD13C,0.012*%
%ADD14C,0.0001*%
%ADD15C,0.005*%
%ADD16C,0.004*%
%ADD17R,0.076X0.062*%
%ADD18C,0.26*%
%ADD19R,0.06X0.08*%
G04 APERTURE END LIST*
G54D10*
G54D11*
X58000Y-46400D02*
G75*
G03X57400Y-45800I-600J0D01*
G74*
G01*
X56800Y-45200D02*
G75*
G03X57400Y-45800I600J0D01*
G74*
G01*
X57400Y-33800D02*
G75*
G03X56800Y-34400I0J-600D01*
G74*
G01*
X57400Y-33800D02*
G75*
G03X58000Y-33200I0J600D01*
G74*
G01*
X10000Y-21600D02*
G75*
G03X10600Y-22200I600J0D01*
G74*
G01*
X11200Y-22800D02*
G75*
G03X10600Y-22200I-600J0D01*
G74*
G01*
X10600Y-34200D02*
G75*
G03X10000Y-34800I0J-600D01*
G74*
G01*
X10600Y-34200D02*
G75*
G03X11200Y-33600I0J600D01*
G74*
G01*
X58000Y-33200D02*
X58000Y-13000D01*
X58000Y-46400D02*
X58000Y-55000D01*
X10000Y-34800D02*
X10000Y-55000D01*
X10000Y-21600D02*
X10000Y-13000D01*
X56800Y-39800D02*
X56800Y-45200D01*
X56800Y-39800D02*
X56800Y-34400D01*
X11200Y-28200D02*
X11200Y-33600D01*
X11200Y-28200D02*
X11200Y-22800D01*
X55000Y-58000D02*
X13000Y-58000D01*
X13000Y-10000D02*
X55000Y-10000D01*
X10000Y-55000D02*
G75*
G03X13000Y-58000I3000J0D01*
G74*
G01*
X58000Y-13000D02*
G75*
G03X55000Y-10000I-3000J0D01*
G74*
G01*
X13000Y-10000D02*
G75*
G03X10000Y-13000I0J-3000D01*
G74*
G01*
X55000Y-58000D02*
G75*
G03X58000Y-55000I0J3000D01*
G74*
G01*
G54D12*
X39523Y-13876D02*
X39676Y-13876D01*
X39523Y-13571D02*
X39676Y-13571D01*
X40323Y-13228D02*
X39523Y-13228D01*
X39904Y-13228D02*
X39904Y-12771D01*
X40323Y-12771D02*
X39523Y-12771D01*
X39523Y-12428D02*
X39676Y-12428D01*
X39523Y-12123D02*
X39676Y-12123D01*
X39523Y-19857D02*
X39676Y-19857D01*
X39523Y-19552D02*
X39676Y-19552D01*
X39561Y-18790D02*
X39523Y-18866D01*
X39523Y-18980D01*
X39561Y-19095D01*
X39638Y-19171D01*
X39714Y-19209D01*
X39866Y-19247D01*
X39980Y-19247D01*
X40133Y-19209D01*
X40209Y-19171D01*
X40285Y-19095D01*
X40323Y-18980D01*
X40323Y-18904D01*
X40285Y-18790D01*
X40247Y-18752D01*
X39980Y-18752D01*
X39980Y-18904D01*
X39523Y-18447D02*
X39676Y-18447D01*
X39523Y-18142D02*
X39676Y-18142D01*
X39523Y-25799D02*
X39676Y-25799D01*
X39523Y-25495D02*
X39676Y-25495D01*
X39904Y-24885D02*
X39904Y-25152D01*
X40323Y-25152D02*
X39523Y-25152D01*
X39523Y-24771D01*
X39523Y-24504D02*
X39676Y-24504D01*
X39523Y-24200D02*
X39676Y-24200D01*
X39523Y-31819D02*
X39676Y-31819D01*
X39523Y-31514D02*
X39676Y-31514D01*
X39904Y-31171D02*
X39904Y-30904D01*
X40323Y-30790D02*
X40323Y-31171D01*
X39523Y-31171D01*
X39523Y-30790D01*
X39523Y-30485D02*
X39676Y-30485D01*
X39523Y-30180D02*
X39676Y-30180D01*
X39523Y-37857D02*
X39676Y-37857D01*
X39523Y-37552D02*
X39676Y-37552D01*
X40323Y-37209D02*
X39523Y-37209D01*
X39523Y-37019D01*
X39561Y-36904D01*
X39638Y-36828D01*
X39714Y-36790D01*
X39866Y-36752D01*
X39980Y-36752D01*
X40133Y-36790D01*
X40209Y-36828D01*
X40285Y-36904D01*
X40323Y-37019D01*
X40323Y-37209D01*
X39523Y-36447D02*
X39676Y-36447D01*
X39523Y-36142D02*
X39676Y-36142D01*
X39523Y-43857D02*
X39676Y-43857D01*
X39523Y-43552D02*
X39676Y-43552D01*
X40247Y-42752D02*
X40285Y-42790D01*
X40323Y-42904D01*
X40323Y-42980D01*
X40285Y-43095D01*
X40209Y-43171D01*
X40133Y-43209D01*
X39980Y-43247D01*
X39866Y-43247D01*
X39714Y-43209D01*
X39638Y-43171D01*
X39561Y-43095D01*
X39523Y-42980D01*
X39523Y-42904D01*
X39561Y-42790D01*
X39600Y-42752D01*
X39523Y-42447D02*
X39676Y-42447D01*
X39523Y-42142D02*
X39676Y-42142D01*
X39523Y-49857D02*
X39676Y-49857D01*
X39523Y-49552D02*
X39676Y-49552D01*
X39904Y-48942D02*
X39942Y-48828D01*
X39980Y-48790D01*
X40057Y-48752D01*
X40171Y-48752D01*
X40247Y-48790D01*
X40285Y-48828D01*
X40323Y-48904D01*
X40323Y-49209D01*
X39523Y-49209D01*
X39523Y-48942D01*
X39561Y-48866D01*
X39600Y-48828D01*
X39676Y-48790D01*
X39752Y-48790D01*
X39828Y-48828D01*
X39866Y-48866D01*
X39904Y-48942D01*
X39904Y-49209D01*
X39523Y-48447D02*
X39676Y-48447D01*
X39523Y-48142D02*
X39676Y-48142D01*
X39523Y-54200D02*
X39676Y-54200D01*
X39523Y-54504D02*
X39676Y-54504D01*
X40095Y-54809D02*
X40095Y-55190D01*
X40323Y-54733D02*
X39523Y-55000D01*
X40323Y-55266D01*
X39523Y-55495D02*
X39676Y-55495D01*
X39523Y-55800D02*
X39676Y-55800D01*
G54D13*
X28523Y-51304D02*
X29323Y-51114D01*
X28752Y-50961D01*
X29323Y-50809D01*
X28523Y-50619D01*
X28942Y-50161D02*
X29323Y-50161D01*
X28523Y-50428D02*
X28942Y-50161D01*
X28523Y-49895D01*
X28523Y-49476D02*
X28523Y-49323D01*
X28561Y-49247D01*
X28638Y-49171D01*
X28790Y-49133D01*
X29057Y-49133D01*
X29209Y-49171D01*
X29285Y-49247D01*
X29323Y-49323D01*
X29323Y-49476D01*
X29285Y-49552D01*
X29209Y-49628D01*
X29057Y-49666D01*
X28790Y-49666D01*
X28638Y-49628D01*
X28561Y-49552D01*
X28523Y-49476D01*
X29323Y-48409D02*
X29323Y-48790D01*
X28523Y-48790D01*
X28523Y-48142D02*
X29171Y-48142D01*
X29247Y-48104D01*
X29285Y-48066D01*
X29323Y-47990D01*
X29323Y-47838D01*
X29285Y-47761D01*
X29247Y-47723D01*
X29171Y-47685D01*
X28523Y-47685D01*
X29323Y-47304D02*
X28523Y-47304D01*
X29095Y-47038D01*
X28523Y-46771D01*
X29323Y-46771D01*
X28790Y-29952D02*
X29323Y-29799D01*
X28942Y-29647D01*
X29323Y-29495D01*
X28790Y-29342D01*
X28790Y-29114D02*
X29323Y-28961D01*
X28942Y-28809D01*
X29323Y-28657D01*
X28790Y-28504D01*
X28790Y-28276D02*
X29323Y-28123D01*
X28942Y-27971D01*
X29323Y-27819D01*
X28790Y-27666D01*
X29247Y-27361D02*
X29285Y-27323D01*
X29323Y-27361D01*
X29285Y-27399D01*
X29247Y-27361D01*
X29323Y-27361D01*
X28790Y-27057D02*
X29323Y-26904D01*
X28942Y-26752D01*
X29323Y-26599D01*
X28790Y-26447D01*
X28790Y-26219D02*
X29323Y-26028D01*
X28790Y-25838D02*
X29323Y-26028D01*
X29514Y-26104D01*
X29552Y-26142D01*
X29590Y-26219D01*
X29323Y-25419D02*
X29285Y-25495D01*
X29247Y-25533D01*
X29171Y-25571D01*
X28942Y-25571D01*
X28866Y-25533D01*
X28828Y-25495D01*
X28790Y-25419D01*
X28790Y-25304D01*
X28828Y-25228D01*
X28866Y-25190D01*
X28942Y-25152D01*
X29171Y-25152D01*
X29247Y-25190D01*
X29285Y-25228D01*
X29323Y-25304D01*
X29323Y-25419D01*
X29323Y-24695D02*
X29285Y-24771D01*
X29209Y-24809D01*
X28523Y-24809D01*
X28790Y-24047D02*
X29323Y-24047D01*
X28790Y-24390D02*
X29209Y-24390D01*
X29285Y-24352D01*
X29323Y-24276D01*
X29323Y-24161D01*
X29285Y-24085D01*
X29247Y-24047D01*
X29323Y-23666D02*
X28790Y-23666D01*
X28866Y-23666D02*
X28828Y-23628D01*
X28790Y-23552D01*
X28790Y-23438D01*
X28828Y-23361D01*
X28904Y-23323D01*
X29323Y-23323D01*
X28904Y-23323D02*
X28828Y-23285D01*
X28790Y-23209D01*
X28790Y-23095D01*
X28828Y-23019D01*
X28904Y-22980D01*
X29323Y-22980D01*
X29247Y-22599D02*
X29285Y-22561D01*
X29323Y-22599D01*
X29285Y-22638D01*
X29247Y-22599D01*
X29323Y-22599D01*
X29285Y-21876D02*
X29323Y-21952D01*
X29323Y-22104D01*
X29285Y-22180D01*
X29247Y-22219D01*
X29171Y-22257D01*
X28942Y-22257D01*
X28866Y-22219D01*
X28828Y-22180D01*
X28790Y-22104D01*
X28790Y-21952D01*
X28828Y-21876D01*
X29323Y-21419D02*
X29285Y-21495D01*
X29247Y-21533D01*
X29171Y-21571D01*
X28942Y-21571D01*
X28866Y-21533D01*
X28828Y-21495D01*
X28790Y-21419D01*
X28790Y-21304D01*
X28828Y-21228D01*
X28866Y-21190D01*
X28942Y-21152D01*
X29171Y-21152D01*
X29247Y-21190D01*
X29285Y-21228D01*
X29323Y-21304D01*
X29323Y-21419D01*
X29323Y-20809D02*
X28790Y-20809D01*
X28866Y-20809D02*
X28828Y-20771D01*
X28790Y-20695D01*
X28790Y-20580D01*
X28828Y-20504D01*
X28904Y-20466D01*
X29323Y-20466D01*
X28904Y-20466D02*
X28828Y-20428D01*
X28790Y-20352D01*
X28790Y-20238D01*
X28828Y-20161D01*
X28904Y-20123D01*
X29323Y-20123D01*
X28523Y-39038D02*
X28523Y-38580D01*
X29323Y-38809D02*
X28523Y-38809D01*
X29323Y-38314D02*
X28790Y-38314D01*
X28523Y-38314D02*
X28561Y-38352D01*
X28600Y-38314D01*
X28561Y-38276D01*
X28523Y-38314D01*
X28600Y-38314D01*
X28790Y-37933D02*
X29323Y-37933D01*
X28866Y-37933D02*
X28828Y-37895D01*
X28790Y-37819D01*
X28790Y-37704D01*
X28828Y-37628D01*
X28904Y-37590D01*
X29323Y-37590D01*
X28790Y-37285D02*
X29323Y-37095D01*
X28790Y-36904D02*
X29323Y-37095D01*
X29514Y-37171D01*
X29552Y-37209D01*
X29590Y-37285D01*
X28523Y-36714D02*
X28523Y-36257D01*
X29323Y-36485D02*
X28523Y-36485D01*
X29323Y-35990D02*
X28790Y-35990D01*
X28523Y-35990D02*
X28561Y-36028D01*
X28600Y-35990D01*
X28561Y-35952D01*
X28523Y-35990D01*
X28600Y-35990D01*
X29323Y-35609D02*
X28523Y-35609D01*
X29095Y-35342D01*
X28523Y-35076D01*
X29323Y-35076D01*
G54D10*
X14175Y-56150D02*
X14175Y-55450D01*
X15025Y-56150D02*
X15025Y-55450D01*
X14175Y-55000D02*
X14175Y-54650D01*
X15025Y-54650D02*
X15025Y-55000D01*
X15025Y-55450D02*
X14175Y-55450D01*
X15025Y-56150D02*
X14175Y-56150D01*
X15025Y-54650D02*
X14175Y-54650D01*
X14175Y-50150D02*
X14175Y-49450D01*
X15025Y-50150D02*
X15025Y-49450D01*
X14175Y-49000D02*
X14175Y-48650D01*
X15025Y-48650D02*
X15025Y-49000D01*
X15025Y-49450D02*
X14175Y-49450D01*
X15025Y-50150D02*
X14175Y-50150D01*
X15025Y-48650D02*
X14175Y-48650D01*
X14175Y-44150D02*
X14175Y-43450D01*
X15025Y-44150D02*
X15025Y-43450D01*
X14175Y-43000D02*
X14175Y-42650D01*
X15025Y-42650D02*
X15025Y-43000D01*
X15025Y-43450D02*
X14175Y-43450D01*
X15025Y-44150D02*
X14175Y-44150D01*
X15025Y-42650D02*
X14175Y-42650D01*
X14175Y-38150D02*
X14175Y-37450D01*
X15025Y-38150D02*
X15025Y-37450D01*
X14175Y-37000D02*
X14175Y-36650D01*
X15025Y-36650D02*
X15025Y-37000D01*
X15025Y-37450D02*
X14175Y-37450D01*
X15025Y-38150D02*
X14175Y-38150D01*
X15025Y-36650D02*
X14175Y-36650D01*
X14175Y-32150D02*
X14175Y-31450D01*
X15025Y-32150D02*
X15025Y-31450D01*
X14175Y-31000D02*
X14175Y-30650D01*
X15025Y-30650D02*
X15025Y-31000D01*
X15025Y-31450D02*
X14175Y-31450D01*
X15025Y-32150D02*
X14175Y-32150D01*
X15025Y-30650D02*
X14175Y-30650D01*
X14175Y-26150D02*
X14175Y-25450D01*
X15025Y-26150D02*
X15025Y-25450D01*
X14175Y-25000D02*
X14175Y-24650D01*
X15025Y-24650D02*
X15025Y-25000D01*
X15025Y-25450D02*
X14175Y-25450D01*
X15025Y-26150D02*
X14175Y-26150D01*
X15025Y-24650D02*
X14175Y-24650D01*
X14175Y-20150D02*
X14175Y-19450D01*
X15025Y-20150D02*
X15025Y-19450D01*
X14175Y-19000D02*
X14175Y-18650D01*
X15025Y-18650D02*
X15025Y-19000D01*
X15025Y-19450D02*
X14175Y-19450D01*
X15025Y-20150D02*
X14175Y-20150D01*
X15025Y-18650D02*
X14175Y-18650D01*
X14175Y-14150D02*
X14175Y-13450D01*
X15025Y-14150D02*
X15025Y-13450D01*
X14175Y-13000D02*
X14175Y-12650D01*
X15025Y-12650D02*
X15025Y-13000D01*
X15025Y-13450D02*
X14175Y-13450D01*
X15025Y-14150D02*
X14175Y-14150D01*
X15025Y-12650D02*
X14175Y-12650D01*
G54D14*
G36*
X35181Y-34797D02*
X35173Y-34783D01*
X35154Y-34752D01*
X35125Y-34708D01*
X35091Y-34656D01*
X35055Y-34604D01*
X35027Y-34561D01*
X35007Y-34531D01*
X35000Y-34519D01*
X35003Y-34512D01*
X35015Y-34487D01*
X35033Y-34452D01*
X35044Y-34431D01*
X35058Y-34398D01*
X35061Y-34381D01*
X35057Y-34379D01*
X35032Y-34367D01*
X34989Y-34348D01*
X34932Y-34323D01*
X34865Y-34294D01*
X34793Y-34264D01*
X34720Y-34233D01*
X34650Y-34204D01*
X34587Y-34179D01*
X34535Y-34158D01*
X34500Y-34144D01*
X34485Y-34139D01*
X34481Y-34141D01*
X34465Y-34157D01*
X34444Y-34186D01*
X34393Y-34248D01*
X34317Y-34310D01*
X34230Y-34347D01*
X34133Y-34360D01*
X34043Y-34349D01*
X33957Y-34314D01*
X33880Y-34254D01*
X33822Y-34181D01*
X33786Y-34096D01*
X33774Y-34000D01*
X33784Y-33909D01*
X33819Y-33821D01*
X33878Y-33743D01*
X33916Y-33710D01*
X33994Y-33665D01*
X34078Y-33640D01*
X34100Y-33637D01*
X34192Y-33641D01*
X34280Y-33668D01*
X34359Y-33717D01*
X34424Y-33784D01*
X34430Y-33793D01*
X34454Y-33824D01*
X34470Y-33845D01*
X34483Y-33862D01*
X34766Y-33744D01*
X34811Y-33725D01*
X34889Y-33693D01*
X34955Y-33665D01*
X35008Y-33642D01*
X35044Y-33626D01*
X35058Y-33619D01*
X35059Y-33619D01*
X35061Y-33608D01*
X35053Y-33587D01*
X35034Y-33547D01*
X35020Y-33521D01*
X35006Y-33491D01*
X35000Y-33477D01*
X35007Y-33466D01*
X35025Y-33437D01*
X35053Y-33395D01*
X35088Y-33344D01*
X35121Y-33296D01*
X35150Y-33252D01*
X35171Y-33220D01*
X35179Y-33204D01*
X35179Y-33202D01*
X35171Y-33188D01*
X35150Y-33162D01*
X35114Y-33124D01*
X35060Y-33069D01*
X35051Y-33061D01*
X35006Y-33016D01*
X34968Y-32980D01*
X34940Y-32955D01*
X34928Y-32946D01*
X34928Y-32946D01*
X34913Y-32954D01*
X34880Y-32975D01*
X34835Y-33004D01*
X34783Y-33040D01*
X34647Y-33134D01*
X34518Y-33082D01*
X34479Y-33066D01*
X34431Y-33046D01*
X34397Y-33031D01*
X34382Y-33024D01*
X34377Y-33010D01*
X34369Y-32975D01*
X34358Y-32924D01*
X34347Y-32863D01*
X34336Y-32805D01*
X34326Y-32753D01*
X34319Y-32715D01*
X34316Y-32698D01*
X34313Y-32694D01*
X34305Y-32690D01*
X34287Y-32688D01*
X34255Y-32687D01*
X34205Y-32686D01*
X34133Y-32686D01*
X34125Y-32686D01*
X34056Y-32687D01*
X34001Y-32688D01*
X33965Y-32690D01*
X33951Y-32692D01*
X33951Y-32692D01*
X33947Y-32709D01*
X33939Y-32746D01*
X33929Y-32798D01*
X33917Y-32860D01*
X33916Y-32864D01*
X33904Y-32926D01*
X33893Y-32979D01*
X33885Y-33015D01*
X33880Y-33030D01*
X33876Y-33034D01*
X33851Y-33046D01*
X33813Y-33064D01*
X33766Y-33085D01*
X33717Y-33105D01*
X33673Y-33122D01*
X33640Y-33134D01*
X33625Y-33138D01*
X33625Y-33138D01*
X33610Y-33128D01*
X33578Y-33107D01*
X33533Y-33077D01*
X33480Y-33040D01*
X33476Y-33038D01*
X33424Y-33002D01*
X33379Y-32973D01*
X33347Y-32954D01*
X33333Y-32946D01*
X33332Y-32947D01*
X33317Y-32958D01*
X33287Y-32985D01*
X33247Y-33023D01*
X33200Y-33069D01*
X33186Y-33084D01*
X33136Y-33135D01*
X33103Y-33171D01*
X33086Y-33193D01*
X33082Y-33203D01*
X33082Y-33204D01*
X33092Y-33220D01*
X33114Y-33253D01*
X33144Y-33298D01*
X33180Y-33351D01*
X33183Y-33355D01*
X33219Y-33407D01*
X33248Y-33451D01*
X33269Y-33482D01*
X33277Y-33496D01*
X33277Y-33498D01*
X33271Y-33520D01*
X33258Y-33557D01*
X33240Y-33603D01*
X33220Y-33652D01*
X33202Y-33696D01*
X33187Y-33729D01*
X33178Y-33744D01*
X33177Y-33745D01*
X33158Y-33750D01*
X33119Y-33759D01*
X33065Y-33771D01*
X33000Y-33783D01*
X32990Y-33785D01*
X32927Y-33797D01*
X32876Y-33807D01*
X32840Y-33814D01*
X32825Y-33818D01*
X32823Y-33827D01*
X32821Y-33857D01*
X32820Y-33904D01*
X32819Y-33960D01*
X32819Y-34020D01*
X32821Y-34078D01*
X32822Y-34127D01*
X32825Y-34163D01*
X32828Y-34178D01*
X32829Y-34178D01*
X32848Y-34184D01*
X32887Y-34192D01*
X32942Y-34203D01*
X33006Y-34216D01*
X33018Y-34218D01*
X33080Y-34230D01*
X33131Y-34240D01*
X33167Y-34248D01*
X33181Y-34252D01*
X33184Y-34257D01*
X33195Y-34283D01*
X33212Y-34325D01*
X33233Y-34377D01*
X33282Y-34497D01*
X33181Y-34645D01*
X33172Y-34658D01*
X33135Y-34711D01*
X33106Y-34755D01*
X33087Y-34785D01*
X33080Y-34798D01*
X33080Y-34799D01*
X33093Y-34814D01*
X33120Y-34843D01*
X33159Y-34883D01*
X33206Y-34929D01*
X33240Y-34964D01*
X33281Y-35004D01*
X33309Y-35030D01*
X33327Y-35044D01*
X33338Y-35049D01*
X33345Y-35048D01*
X33360Y-35038D01*
X33393Y-35017D01*
X33437Y-34986D01*
X33490Y-34950D01*
X33533Y-34921D01*
X33583Y-34889D01*
X33618Y-34868D01*
X33635Y-34861D01*
X33643Y-34863D01*
X33671Y-34873D01*
X33715Y-34890D01*
X33767Y-34913D01*
X33884Y-34964D01*
X33899Y-35040D01*
X33907Y-35087D01*
X33920Y-35152D01*
X33932Y-35214D01*
X33951Y-35311D01*
X34307Y-35314D01*
X34313Y-35299D01*
X34317Y-35285D01*
X34325Y-35249D01*
X34335Y-35198D01*
X34346Y-35137D01*
X34356Y-35086D01*
X34366Y-35034D01*
X34373Y-34996D01*
X34377Y-34980D01*
X34382Y-34976D01*
X34407Y-34963D01*
X34447Y-34944D01*
X34495Y-34924D01*
X34545Y-34903D01*
X34591Y-34885D01*
X34626Y-34872D01*
X34645Y-34867D01*
X34658Y-34874D01*
X34689Y-34894D01*
X34732Y-34922D01*
X34784Y-34958D01*
X34835Y-34993D01*
X34880Y-35023D01*
X34911Y-35043D01*
X34926Y-35052D01*
X34936Y-35048D01*
X34961Y-35027D01*
X35001Y-34988D01*
X35058Y-34930D01*
X35067Y-34921D01*
X35112Y-34875D01*
X35148Y-34836D01*
X35172Y-34809D01*
X35181Y-34797D01*
X35181Y-34797D01*
G37*
G54D15*
X33900Y-34000D02*
X34100Y-34000D01*
X34000Y-33900D02*
X34000Y-34100D01*
X55925Y-11875D02*
X55925Y-11825D01*
X55975Y-11900D02*
X55975Y-11800D01*
X56025Y-11950D02*
X56025Y-11750D01*
X55900Y-11850D02*
X56075Y-11675D01*
X56075Y-11675D02*
X56075Y-12025D01*
X56075Y-12025D02*
X55900Y-11850D01*
X56000Y-12200D02*
X55900Y-12100D01*
X55800Y-14350D02*
X54200Y-14350D01*
X55800Y-11650D02*
X54200Y-11650D01*
X54000Y-12000D02*
X54100Y-12000D01*
X56000Y-14000D02*
X55900Y-14000D01*
X54000Y-14000D02*
X54100Y-14000D01*
X56000Y-12200D02*
X56000Y-13000D01*
X56000Y-13000D02*
X56000Y-14000D01*
X54000Y-14000D02*
X54000Y-13000D01*
X54000Y-13000D02*
X54000Y-12000D01*
X49925Y-11875D02*
X49925Y-11825D01*
X49975Y-11900D02*
X49975Y-11800D01*
X50025Y-11950D02*
X50025Y-11750D01*
X49900Y-11850D02*
X50075Y-11675D01*
X50075Y-11675D02*
X50075Y-12025D01*
X50075Y-12025D02*
X49900Y-11850D01*
X50000Y-12200D02*
X49900Y-12100D01*
X49800Y-14350D02*
X48200Y-14350D01*
X49800Y-11650D02*
X48200Y-11650D01*
X48000Y-12000D02*
X48100Y-12000D01*
X50000Y-14000D02*
X49900Y-14000D01*
X48000Y-14000D02*
X48100Y-14000D01*
X50000Y-12200D02*
X50000Y-13000D01*
X50000Y-13000D02*
X50000Y-14000D01*
X48000Y-14000D02*
X48000Y-13000D01*
X48000Y-13000D02*
X48000Y-12000D01*
X43925Y-11875D02*
X43925Y-11825D01*
X43975Y-11900D02*
X43975Y-11800D01*
X44025Y-11950D02*
X44025Y-11750D01*
X43900Y-11850D02*
X44075Y-11675D01*
X44075Y-11675D02*
X44075Y-12025D01*
X44075Y-12025D02*
X43900Y-11850D01*
X44000Y-12200D02*
X43900Y-12100D01*
X43800Y-14350D02*
X42200Y-14350D01*
X43800Y-11650D02*
X42200Y-11650D01*
X42000Y-12000D02*
X42100Y-12000D01*
X44000Y-14000D02*
X43900Y-14000D01*
X42000Y-14000D02*
X42100Y-14000D01*
X44000Y-12200D02*
X44000Y-13000D01*
X44000Y-13000D02*
X44000Y-14000D01*
X42000Y-14000D02*
X42000Y-13000D01*
X42000Y-13000D02*
X42000Y-12000D01*
X37925Y-11875D02*
X37925Y-11825D01*
X37975Y-11900D02*
X37975Y-11800D01*
X38025Y-11950D02*
X38025Y-11750D01*
X37900Y-11850D02*
X38075Y-11675D01*
X38075Y-11675D02*
X38075Y-12025D01*
X38075Y-12025D02*
X37900Y-11850D01*
X38000Y-12200D02*
X37900Y-12100D01*
X37800Y-14350D02*
X36200Y-14350D01*
X37800Y-11650D02*
X36200Y-11650D01*
X36000Y-12000D02*
X36100Y-12000D01*
X38000Y-14000D02*
X37900Y-14000D01*
X36000Y-14000D02*
X36100Y-14000D01*
X38000Y-12200D02*
X38000Y-13000D01*
X38000Y-13000D02*
X38000Y-14000D01*
X36000Y-14000D02*
X36000Y-13000D01*
X36000Y-13000D02*
X36000Y-12000D01*
X31925Y-11875D02*
X31925Y-11825D01*
X31975Y-11900D02*
X31975Y-11800D01*
X32025Y-11950D02*
X32025Y-11750D01*
X31900Y-11850D02*
X32075Y-11675D01*
X32075Y-11675D02*
X32075Y-12025D01*
X32075Y-12025D02*
X31900Y-11850D01*
X32000Y-12200D02*
X31900Y-12100D01*
X31800Y-14350D02*
X30200Y-14350D01*
X31800Y-11650D02*
X30200Y-11650D01*
X30000Y-12000D02*
X30100Y-12000D01*
X32000Y-14000D02*
X31900Y-14000D01*
X30000Y-14000D02*
X30100Y-14000D01*
X32000Y-12200D02*
X32000Y-13000D01*
X32000Y-13000D02*
X32000Y-14000D01*
X30000Y-14000D02*
X30000Y-13000D01*
X30000Y-13000D02*
X30000Y-12000D01*
X25925Y-11875D02*
X25925Y-11825D01*
X25975Y-11900D02*
X25975Y-11800D01*
X26025Y-11950D02*
X26025Y-11750D01*
X25900Y-11850D02*
X26075Y-11675D01*
X26075Y-11675D02*
X26075Y-12025D01*
X26075Y-12025D02*
X25900Y-11850D01*
X26000Y-12200D02*
X25900Y-12100D01*
X25800Y-14350D02*
X24200Y-14350D01*
X25800Y-11650D02*
X24200Y-11650D01*
X24000Y-12000D02*
X24100Y-12000D01*
X26000Y-14000D02*
X25900Y-14000D01*
X24000Y-14000D02*
X24100Y-14000D01*
X26000Y-12200D02*
X26000Y-13000D01*
X26000Y-13000D02*
X26000Y-14000D01*
X24000Y-14000D02*
X24000Y-13000D01*
X24000Y-13000D02*
X24000Y-12000D01*
X19925Y-11875D02*
X19925Y-11825D01*
X19975Y-11900D02*
X19975Y-11800D01*
X20025Y-11950D02*
X20025Y-11750D01*
X19900Y-11850D02*
X20075Y-11675D01*
X20075Y-11675D02*
X20075Y-12025D01*
X20075Y-12025D02*
X19900Y-11850D01*
X20000Y-12200D02*
X19900Y-12100D01*
X19800Y-14350D02*
X18200Y-14350D01*
X19800Y-11650D02*
X18200Y-11650D01*
X18000Y-12000D02*
X18100Y-12000D01*
X20000Y-14000D02*
X19900Y-14000D01*
X18000Y-14000D02*
X18100Y-14000D01*
X20000Y-12200D02*
X20000Y-13000D01*
X20000Y-13000D02*
X20000Y-14000D01*
X18000Y-14000D02*
X18000Y-13000D01*
X18000Y-13000D02*
X18000Y-12000D01*
X13925Y-11875D02*
X13925Y-11825D01*
X13975Y-11900D02*
X13975Y-11800D01*
X14025Y-11950D02*
X14025Y-11750D01*
X13900Y-11850D02*
X14075Y-11675D01*
X14075Y-11675D02*
X14075Y-12025D01*
X14075Y-12025D02*
X13900Y-11850D01*
X14000Y-12200D02*
X13900Y-12100D01*
X13800Y-14350D02*
X12200Y-14350D01*
X13800Y-11650D02*
X12200Y-11650D01*
X12000Y-12000D02*
X12100Y-12000D01*
X14000Y-14000D02*
X13900Y-14000D01*
X12000Y-14000D02*
X12100Y-14000D01*
X14000Y-12200D02*
X14000Y-13000D01*
X14000Y-13000D02*
X14000Y-14000D01*
X12000Y-14000D02*
X12000Y-13000D01*
X12000Y-13000D02*
X12000Y-12000D01*
X55925Y-17875D02*
X55925Y-17825D01*
X55975Y-17900D02*
X55975Y-17800D01*
X56025Y-17950D02*
X56025Y-17750D01*
X55900Y-17850D02*
X56075Y-17675D01*
X56075Y-17675D02*
X56075Y-18025D01*
X56075Y-18025D02*
X55900Y-17850D01*
X56000Y-18200D02*
X55900Y-18100D01*
X55800Y-20350D02*
X54200Y-20350D01*
X55800Y-17650D02*
X54200Y-17650D01*
X54000Y-18000D02*
X54100Y-18000D01*
X56000Y-20000D02*
X55900Y-20000D01*
X54000Y-20000D02*
X54100Y-20000D01*
X56000Y-18200D02*
X56000Y-19000D01*
X56000Y-19000D02*
X56000Y-20000D01*
X54000Y-20000D02*
X54000Y-19000D01*
X54000Y-19000D02*
X54000Y-18000D01*
X49925Y-17875D02*
X49925Y-17825D01*
X49975Y-17900D02*
X49975Y-17800D01*
X50025Y-17950D02*
X50025Y-17750D01*
X49900Y-17850D02*
X50075Y-17675D01*
X50075Y-17675D02*
X50075Y-18025D01*
X50075Y-18025D02*
X49900Y-17850D01*
X50000Y-18200D02*
X49900Y-18100D01*
X49800Y-20350D02*
X48200Y-20350D01*
X49800Y-17650D02*
X48200Y-17650D01*
X48000Y-18000D02*
X48100Y-18000D01*
X50000Y-20000D02*
X49900Y-20000D01*
X48000Y-20000D02*
X48100Y-20000D01*
X50000Y-18200D02*
X50000Y-19000D01*
X50000Y-19000D02*
X50000Y-20000D01*
X48000Y-20000D02*
X48000Y-19000D01*
X48000Y-19000D02*
X48000Y-18000D01*
X43925Y-17875D02*
X43925Y-17825D01*
X43975Y-17900D02*
X43975Y-17800D01*
X44025Y-17950D02*
X44025Y-17750D01*
X43900Y-17850D02*
X44075Y-17675D01*
X44075Y-17675D02*
X44075Y-18025D01*
X44075Y-18025D02*
X43900Y-17850D01*
X44000Y-18200D02*
X43900Y-18100D01*
X43800Y-20350D02*
X42200Y-20350D01*
X43800Y-17650D02*
X42200Y-17650D01*
X42000Y-18000D02*
X42100Y-18000D01*
X44000Y-20000D02*
X43900Y-20000D01*
X42000Y-20000D02*
X42100Y-20000D01*
X44000Y-18200D02*
X44000Y-19000D01*
X44000Y-19000D02*
X44000Y-20000D01*
X42000Y-20000D02*
X42000Y-19000D01*
X42000Y-19000D02*
X42000Y-18000D01*
X37925Y-17875D02*
X37925Y-17825D01*
X37975Y-17900D02*
X37975Y-17800D01*
X38025Y-17950D02*
X38025Y-17750D01*
X37900Y-17850D02*
X38075Y-17675D01*
X38075Y-17675D02*
X38075Y-18025D01*
X38075Y-18025D02*
X37900Y-17850D01*
X38000Y-18200D02*
X37900Y-18100D01*
X37800Y-20350D02*
X36200Y-20350D01*
X37800Y-17650D02*
X36200Y-17650D01*
X36000Y-18000D02*
X36100Y-18000D01*
X38000Y-20000D02*
X37900Y-20000D01*
X36000Y-20000D02*
X36100Y-20000D01*
X38000Y-18200D02*
X38000Y-19000D01*
X38000Y-19000D02*
X38000Y-20000D01*
X36000Y-20000D02*
X36000Y-19000D01*
X36000Y-19000D02*
X36000Y-18000D01*
X31925Y-17875D02*
X31925Y-17825D01*
X31975Y-17900D02*
X31975Y-17800D01*
X32025Y-17950D02*
X32025Y-17750D01*
X31900Y-17850D02*
X32075Y-17675D01*
X32075Y-17675D02*
X32075Y-18025D01*
X32075Y-18025D02*
X31900Y-17850D01*
X32000Y-18200D02*
X31900Y-18100D01*
X31800Y-20350D02*
X30200Y-20350D01*
X31800Y-17650D02*
X30200Y-17650D01*
X30000Y-18000D02*
X30100Y-18000D01*
X32000Y-20000D02*
X31900Y-20000D01*
X30000Y-20000D02*
X30100Y-20000D01*
X32000Y-18200D02*
X32000Y-19000D01*
X32000Y-19000D02*
X32000Y-20000D01*
X30000Y-20000D02*
X30000Y-19000D01*
X30000Y-19000D02*
X30000Y-18000D01*
X25925Y-17875D02*
X25925Y-17825D01*
X25975Y-17900D02*
X25975Y-17800D01*
X26025Y-17950D02*
X26025Y-17750D01*
X25900Y-17850D02*
X26075Y-17675D01*
X26075Y-17675D02*
X26075Y-18025D01*
X26075Y-18025D02*
X25900Y-17850D01*
X26000Y-18200D02*
X25900Y-18100D01*
X25800Y-20350D02*
X24200Y-20350D01*
X25800Y-17650D02*
X24200Y-17650D01*
X24000Y-18000D02*
X24100Y-18000D01*
X26000Y-20000D02*
X25900Y-20000D01*
X24000Y-20000D02*
X24100Y-20000D01*
X26000Y-18200D02*
X26000Y-19000D01*
X26000Y-19000D02*
X26000Y-20000D01*
X24000Y-20000D02*
X24000Y-19000D01*
X24000Y-19000D02*
X24000Y-18000D01*
X19925Y-17875D02*
X19925Y-17825D01*
X19975Y-17900D02*
X19975Y-17800D01*
X20025Y-17950D02*
X20025Y-17750D01*
X19900Y-17850D02*
X20075Y-17675D01*
X20075Y-17675D02*
X20075Y-18025D01*
X20075Y-18025D02*
X19900Y-17850D01*
X20000Y-18200D02*
X19900Y-18100D01*
X19800Y-20350D02*
X18200Y-20350D01*
X19800Y-17650D02*
X18200Y-17650D01*
X18000Y-18000D02*
X18100Y-18000D01*
X20000Y-20000D02*
X19900Y-20000D01*
X18000Y-20000D02*
X18100Y-20000D01*
X20000Y-18200D02*
X20000Y-19000D01*
X20000Y-19000D02*
X20000Y-20000D01*
X18000Y-20000D02*
X18000Y-19000D01*
X18000Y-19000D02*
X18000Y-18000D01*
X13925Y-17875D02*
X13925Y-17825D01*
X13975Y-17900D02*
X13975Y-17800D01*
X14025Y-17950D02*
X14025Y-17750D01*
X13900Y-17850D02*
X14075Y-17675D01*
X14075Y-17675D02*
X14075Y-18025D01*
X14075Y-18025D02*
X13900Y-17850D01*
X14000Y-18200D02*
X13900Y-18100D01*
X13800Y-20350D02*
X12200Y-20350D01*
X13800Y-17650D02*
X12200Y-17650D01*
X12000Y-18000D02*
X12100Y-18000D01*
X14000Y-20000D02*
X13900Y-20000D01*
X12000Y-20000D02*
X12100Y-20000D01*
X14000Y-18200D02*
X14000Y-19000D01*
X14000Y-19000D02*
X14000Y-20000D01*
X12000Y-20000D02*
X12000Y-19000D01*
X12000Y-19000D02*
X12000Y-18000D01*
X55925Y-23875D02*
X55925Y-23825D01*
X55975Y-23900D02*
X55975Y-23800D01*
X56025Y-23950D02*
X56025Y-23750D01*
X55900Y-23850D02*
X56075Y-23675D01*
X56075Y-23675D02*
X56075Y-24025D01*
X56075Y-24025D02*
X55900Y-23850D01*
X56000Y-24200D02*
X55900Y-24100D01*
X55800Y-26350D02*
X54200Y-26350D01*
X55800Y-23650D02*
X54200Y-23650D01*
X54000Y-24000D02*
X54100Y-24000D01*
X56000Y-26000D02*
X55900Y-26000D01*
X54000Y-26000D02*
X54100Y-26000D01*
X56000Y-24200D02*
X56000Y-25000D01*
X56000Y-25000D02*
X56000Y-26000D01*
X54000Y-26000D02*
X54000Y-25000D01*
X54000Y-25000D02*
X54000Y-24000D01*
X49925Y-23875D02*
X49925Y-23825D01*
X49975Y-23900D02*
X49975Y-23800D01*
X50025Y-23950D02*
X50025Y-23750D01*
X49900Y-23850D02*
X50075Y-23675D01*
X50075Y-23675D02*
X50075Y-24025D01*
X50075Y-24025D02*
X49900Y-23850D01*
X50000Y-24200D02*
X49900Y-24100D01*
X49800Y-26350D02*
X48200Y-26350D01*
X49800Y-23650D02*
X48200Y-23650D01*
X48000Y-24000D02*
X48100Y-24000D01*
X50000Y-26000D02*
X49900Y-26000D01*
X48000Y-26000D02*
X48100Y-26000D01*
X50000Y-24200D02*
X50000Y-25000D01*
X50000Y-25000D02*
X50000Y-26000D01*
X48000Y-26000D02*
X48000Y-25000D01*
X48000Y-25000D02*
X48000Y-24000D01*
X43925Y-23875D02*
X43925Y-23825D01*
X43975Y-23900D02*
X43975Y-23800D01*
X44025Y-23950D02*
X44025Y-23750D01*
X43900Y-23850D02*
X44075Y-23675D01*
X44075Y-23675D02*
X44075Y-24025D01*
X44075Y-24025D02*
X43900Y-23850D01*
X44000Y-24200D02*
X43900Y-24100D01*
X43800Y-26350D02*
X42200Y-26350D01*
X43800Y-23650D02*
X42200Y-23650D01*
X42000Y-24000D02*
X42100Y-24000D01*
X44000Y-26000D02*
X43900Y-26000D01*
X42000Y-26000D02*
X42100Y-26000D01*
X44000Y-24200D02*
X44000Y-25000D01*
X44000Y-25000D02*
X44000Y-26000D01*
X42000Y-26000D02*
X42000Y-25000D01*
X42000Y-25000D02*
X42000Y-24000D01*
X37925Y-23875D02*
X37925Y-23825D01*
X37975Y-23900D02*
X37975Y-23800D01*
X38025Y-23950D02*
X38025Y-23750D01*
X37900Y-23850D02*
X38075Y-23675D01*
X38075Y-23675D02*
X38075Y-24025D01*
X38075Y-24025D02*
X37900Y-23850D01*
X38000Y-24200D02*
X37900Y-24100D01*
X37800Y-26350D02*
X36200Y-26350D01*
X37800Y-23650D02*
X36200Y-23650D01*
X36000Y-24000D02*
X36100Y-24000D01*
X38000Y-26000D02*
X37900Y-26000D01*
X36000Y-26000D02*
X36100Y-26000D01*
X38000Y-24200D02*
X38000Y-25000D01*
X38000Y-25000D02*
X38000Y-26000D01*
X36000Y-26000D02*
X36000Y-25000D01*
X36000Y-25000D02*
X36000Y-24000D01*
X31925Y-23875D02*
X31925Y-23825D01*
X31975Y-23900D02*
X31975Y-23800D01*
X32025Y-23950D02*
X32025Y-23750D01*
X31900Y-23850D02*
X32075Y-23675D01*
X32075Y-23675D02*
X32075Y-24025D01*
X32075Y-24025D02*
X31900Y-23850D01*
X32000Y-24200D02*
X31900Y-24100D01*
X31800Y-26350D02*
X30200Y-26350D01*
X31800Y-23650D02*
X30200Y-23650D01*
X30000Y-24000D02*
X30100Y-24000D01*
X32000Y-26000D02*
X31900Y-26000D01*
X30000Y-26000D02*
X30100Y-26000D01*
X32000Y-24200D02*
X32000Y-25000D01*
X32000Y-25000D02*
X32000Y-26000D01*
X30000Y-26000D02*
X30000Y-25000D01*
X30000Y-25000D02*
X30000Y-24000D01*
X25925Y-23875D02*
X25925Y-23825D01*
X25975Y-23900D02*
X25975Y-23800D01*
X26025Y-23950D02*
X26025Y-23750D01*
X25900Y-23850D02*
X26075Y-23675D01*
X26075Y-23675D02*
X26075Y-24025D01*
X26075Y-24025D02*
X25900Y-23850D01*
X26000Y-24200D02*
X25900Y-24100D01*
X25800Y-26350D02*
X24200Y-26350D01*
X25800Y-23650D02*
X24200Y-23650D01*
X24000Y-24000D02*
X24100Y-24000D01*
X26000Y-26000D02*
X25900Y-26000D01*
X24000Y-26000D02*
X24100Y-26000D01*
X26000Y-24200D02*
X26000Y-25000D01*
X26000Y-25000D02*
X26000Y-26000D01*
X24000Y-26000D02*
X24000Y-25000D01*
X24000Y-25000D02*
X24000Y-24000D01*
X19925Y-23875D02*
X19925Y-23825D01*
X19975Y-23900D02*
X19975Y-23800D01*
X20025Y-23950D02*
X20025Y-23750D01*
X19900Y-23850D02*
X20075Y-23675D01*
X20075Y-23675D02*
X20075Y-24025D01*
X20075Y-24025D02*
X19900Y-23850D01*
X20000Y-24200D02*
X19900Y-24100D01*
X19800Y-26350D02*
X18200Y-26350D01*
X19800Y-23650D02*
X18200Y-23650D01*
X18000Y-24000D02*
X18100Y-24000D01*
X20000Y-26000D02*
X19900Y-26000D01*
X18000Y-26000D02*
X18100Y-26000D01*
X20000Y-24200D02*
X20000Y-25000D01*
X20000Y-25000D02*
X20000Y-26000D01*
X18000Y-26000D02*
X18000Y-25000D01*
X18000Y-25000D02*
X18000Y-24000D01*
X13925Y-23875D02*
X13925Y-23825D01*
X13975Y-23900D02*
X13975Y-23800D01*
X14025Y-23950D02*
X14025Y-23750D01*
X13900Y-23850D02*
X14075Y-23675D01*
X14075Y-23675D02*
X14075Y-24025D01*
X14075Y-24025D02*
X13900Y-23850D01*
X14000Y-24200D02*
X13900Y-24100D01*
X13800Y-26350D02*
X12200Y-26350D01*
X13800Y-23650D02*
X12200Y-23650D01*
X12000Y-24000D02*
X12100Y-24000D01*
X14000Y-26000D02*
X13900Y-26000D01*
X12000Y-26000D02*
X12100Y-26000D01*
X14000Y-24200D02*
X14000Y-25000D01*
X14000Y-25000D02*
X14000Y-26000D01*
X12000Y-26000D02*
X12000Y-25000D01*
X12000Y-25000D02*
X12000Y-24000D01*
X55925Y-29875D02*
X55925Y-29825D01*
X55975Y-29900D02*
X55975Y-29800D01*
X56025Y-29950D02*
X56025Y-29750D01*
X55900Y-29850D02*
X56075Y-29675D01*
X56075Y-29675D02*
X56075Y-30025D01*
X56075Y-30025D02*
X55900Y-29850D01*
X56000Y-30200D02*
X55900Y-30100D01*
X55800Y-32350D02*
X54200Y-32350D01*
X55800Y-29650D02*
X54200Y-29650D01*
X54000Y-30000D02*
X54100Y-30000D01*
X56000Y-32000D02*
X55900Y-32000D01*
X54000Y-32000D02*
X54100Y-32000D01*
X56000Y-30200D02*
X56000Y-31000D01*
X56000Y-31000D02*
X56000Y-32000D01*
X54000Y-32000D02*
X54000Y-31000D01*
X54000Y-31000D02*
X54000Y-30000D01*
X49925Y-29875D02*
X49925Y-29825D01*
X49975Y-29900D02*
X49975Y-29800D01*
X50025Y-29950D02*
X50025Y-29750D01*
X49900Y-29850D02*
X50075Y-29675D01*
X50075Y-29675D02*
X50075Y-30025D01*
X50075Y-30025D02*
X49900Y-29850D01*
X50000Y-30200D02*
X49900Y-30100D01*
X49800Y-32350D02*
X48200Y-32350D01*
X49800Y-29650D02*
X48200Y-29650D01*
X48000Y-30000D02*
X48100Y-30000D01*
X50000Y-32000D02*
X49900Y-32000D01*
X48000Y-32000D02*
X48100Y-32000D01*
X50000Y-30200D02*
X50000Y-31000D01*
X50000Y-31000D02*
X50000Y-32000D01*
X48000Y-32000D02*
X48000Y-31000D01*
X48000Y-31000D02*
X48000Y-30000D01*
X43925Y-29875D02*
X43925Y-29825D01*
X43975Y-29900D02*
X43975Y-29800D01*
X44025Y-29950D02*
X44025Y-29750D01*
X43900Y-29850D02*
X44075Y-29675D01*
X44075Y-29675D02*
X44075Y-30025D01*
X44075Y-30025D02*
X43900Y-29850D01*
X44000Y-30200D02*
X43900Y-30100D01*
X43800Y-32350D02*
X42200Y-32350D01*
X43800Y-29650D02*
X42200Y-29650D01*
X42000Y-30000D02*
X42100Y-30000D01*
X44000Y-32000D02*
X43900Y-32000D01*
X42000Y-32000D02*
X42100Y-32000D01*
X44000Y-30200D02*
X44000Y-31000D01*
X44000Y-31000D02*
X44000Y-32000D01*
X42000Y-32000D02*
X42000Y-31000D01*
X42000Y-31000D02*
X42000Y-30000D01*
X37925Y-29875D02*
X37925Y-29825D01*
X37975Y-29900D02*
X37975Y-29800D01*
X38025Y-29950D02*
X38025Y-29750D01*
X37900Y-29850D02*
X38075Y-29675D01*
X38075Y-29675D02*
X38075Y-30025D01*
X38075Y-30025D02*
X37900Y-29850D01*
X38000Y-30200D02*
X37900Y-30100D01*
X37800Y-32350D02*
X36200Y-32350D01*
X37800Y-29650D02*
X36200Y-29650D01*
X36000Y-30000D02*
X36100Y-30000D01*
X38000Y-32000D02*
X37900Y-32000D01*
X36000Y-32000D02*
X36100Y-32000D01*
X38000Y-30200D02*
X38000Y-31000D01*
X38000Y-31000D02*
X38000Y-32000D01*
X36000Y-32000D02*
X36000Y-31000D01*
X36000Y-31000D02*
X36000Y-30000D01*
X31925Y-29875D02*
X31925Y-29825D01*
X31975Y-29900D02*
X31975Y-29800D01*
X32025Y-29950D02*
X32025Y-29750D01*
X31900Y-29850D02*
X32075Y-29675D01*
X32075Y-29675D02*
X32075Y-30025D01*
X32075Y-30025D02*
X31900Y-29850D01*
X32000Y-30200D02*
X31900Y-30100D01*
X31800Y-32350D02*
X30200Y-32350D01*
X31800Y-29650D02*
X30200Y-29650D01*
X30000Y-30000D02*
X30100Y-30000D01*
X32000Y-32000D02*
X31900Y-32000D01*
X30000Y-32000D02*
X30100Y-32000D01*
X32000Y-30200D02*
X32000Y-31000D01*
X32000Y-31000D02*
X32000Y-32000D01*
X30000Y-32000D02*
X30000Y-31000D01*
X30000Y-31000D02*
X30000Y-30000D01*
X25925Y-29875D02*
X25925Y-29825D01*
X25975Y-29900D02*
X25975Y-29800D01*
X26025Y-29950D02*
X26025Y-29750D01*
X25900Y-29850D02*
X26075Y-29675D01*
X26075Y-29675D02*
X26075Y-30025D01*
X26075Y-30025D02*
X25900Y-29850D01*
X26000Y-30200D02*
X25900Y-30100D01*
X25800Y-32350D02*
X24200Y-32350D01*
X25800Y-29650D02*
X24200Y-29650D01*
X24000Y-30000D02*
X24100Y-30000D01*
X26000Y-32000D02*
X25900Y-32000D01*
X24000Y-32000D02*
X24100Y-32000D01*
X26000Y-30200D02*
X26000Y-31000D01*
X26000Y-31000D02*
X26000Y-32000D01*
X24000Y-32000D02*
X24000Y-31000D01*
X24000Y-31000D02*
X24000Y-30000D01*
X19925Y-29875D02*
X19925Y-29825D01*
X19975Y-29900D02*
X19975Y-29800D01*
X20025Y-29950D02*
X20025Y-29750D01*
X19900Y-29850D02*
X20075Y-29675D01*
X20075Y-29675D02*
X20075Y-30025D01*
X20075Y-30025D02*
X19900Y-29850D01*
X20000Y-30200D02*
X19900Y-30100D01*
X19800Y-32350D02*
X18200Y-32350D01*
X19800Y-29650D02*
X18200Y-29650D01*
X18000Y-30000D02*
X18100Y-30000D01*
X20000Y-32000D02*
X19900Y-32000D01*
X18000Y-32000D02*
X18100Y-32000D01*
X20000Y-30200D02*
X20000Y-31000D01*
X20000Y-31000D02*
X20000Y-32000D01*
X18000Y-32000D02*
X18000Y-31000D01*
X18000Y-31000D02*
X18000Y-30000D01*
X13925Y-29875D02*
X13925Y-29825D01*
X13975Y-29900D02*
X13975Y-29800D01*
X14025Y-29950D02*
X14025Y-29750D01*
X13900Y-29850D02*
X14075Y-29675D01*
X14075Y-29675D02*
X14075Y-30025D01*
X14075Y-30025D02*
X13900Y-29850D01*
X14000Y-30200D02*
X13900Y-30100D01*
X13800Y-32350D02*
X12200Y-32350D01*
X13800Y-29650D02*
X12200Y-29650D01*
X12000Y-30000D02*
X12100Y-30000D01*
X14000Y-32000D02*
X13900Y-32000D01*
X12000Y-32000D02*
X12100Y-32000D01*
X14000Y-30200D02*
X14000Y-31000D01*
X14000Y-31000D02*
X14000Y-32000D01*
X12000Y-32000D02*
X12000Y-31000D01*
X12000Y-31000D02*
X12000Y-30000D01*
X55925Y-35875D02*
X55925Y-35825D01*
X55975Y-35900D02*
X55975Y-35800D01*
X56025Y-35950D02*
X56025Y-35750D01*
X55900Y-35850D02*
X56075Y-35675D01*
X56075Y-35675D02*
X56075Y-36025D01*
X56075Y-36025D02*
X55900Y-35850D01*
X56000Y-36200D02*
X55900Y-36100D01*
X55800Y-38350D02*
X54200Y-38350D01*
X55800Y-35650D02*
X54200Y-35650D01*
X54000Y-36000D02*
X54100Y-36000D01*
X56000Y-38000D02*
X55900Y-38000D01*
X54000Y-38000D02*
X54100Y-38000D01*
X56000Y-36200D02*
X56000Y-37000D01*
X56000Y-37000D02*
X56000Y-38000D01*
X54000Y-38000D02*
X54000Y-37000D01*
X54000Y-37000D02*
X54000Y-36000D01*
X49925Y-35875D02*
X49925Y-35825D01*
X49975Y-35900D02*
X49975Y-35800D01*
X50025Y-35950D02*
X50025Y-35750D01*
X49900Y-35850D02*
X50075Y-35675D01*
X50075Y-35675D02*
X50075Y-36025D01*
X50075Y-36025D02*
X49900Y-35850D01*
X50000Y-36200D02*
X49900Y-36100D01*
X49800Y-38350D02*
X48200Y-38350D01*
X49800Y-35650D02*
X48200Y-35650D01*
X48000Y-36000D02*
X48100Y-36000D01*
X50000Y-38000D02*
X49900Y-38000D01*
X48000Y-38000D02*
X48100Y-38000D01*
X50000Y-36200D02*
X50000Y-37000D01*
X50000Y-37000D02*
X50000Y-38000D01*
X48000Y-38000D02*
X48000Y-37000D01*
X48000Y-37000D02*
X48000Y-36000D01*
X43925Y-35875D02*
X43925Y-35825D01*
X43975Y-35900D02*
X43975Y-35800D01*
X44025Y-35950D02*
X44025Y-35750D01*
X43900Y-35850D02*
X44075Y-35675D01*
X44075Y-35675D02*
X44075Y-36025D01*
X44075Y-36025D02*
X43900Y-35850D01*
X44000Y-36200D02*
X43900Y-36100D01*
X43800Y-38350D02*
X42200Y-38350D01*
X43800Y-35650D02*
X42200Y-35650D01*
X42000Y-36000D02*
X42100Y-36000D01*
X44000Y-38000D02*
X43900Y-38000D01*
X42000Y-38000D02*
X42100Y-38000D01*
X44000Y-36200D02*
X44000Y-37000D01*
X44000Y-37000D02*
X44000Y-38000D01*
X42000Y-38000D02*
X42000Y-37000D01*
X42000Y-37000D02*
X42000Y-36000D01*
X37925Y-35875D02*
X37925Y-35825D01*
X37975Y-35900D02*
X37975Y-35800D01*
X38025Y-35950D02*
X38025Y-35750D01*
X37900Y-35850D02*
X38075Y-35675D01*
X38075Y-35675D02*
X38075Y-36025D01*
X38075Y-36025D02*
X37900Y-35850D01*
X38000Y-36200D02*
X37900Y-36100D01*
X37800Y-38350D02*
X36200Y-38350D01*
X37800Y-35650D02*
X36200Y-35650D01*
X36000Y-36000D02*
X36100Y-36000D01*
X38000Y-38000D02*
X37900Y-38000D01*
X36000Y-38000D02*
X36100Y-38000D01*
X38000Y-36200D02*
X38000Y-37000D01*
X38000Y-37000D02*
X38000Y-38000D01*
X36000Y-38000D02*
X36000Y-37000D01*
X36000Y-37000D02*
X36000Y-36000D01*
X31925Y-35875D02*
X31925Y-35825D01*
X31975Y-35900D02*
X31975Y-35800D01*
X32025Y-35950D02*
X32025Y-35750D01*
X31900Y-35850D02*
X32075Y-35675D01*
X32075Y-35675D02*
X32075Y-36025D01*
X32075Y-36025D02*
X31900Y-35850D01*
X32000Y-36200D02*
X31900Y-36100D01*
X31800Y-38350D02*
X30200Y-38350D01*
X31800Y-35650D02*
X30200Y-35650D01*
X30000Y-36000D02*
X30100Y-36000D01*
X32000Y-38000D02*
X31900Y-38000D01*
X30000Y-38000D02*
X30100Y-38000D01*
X32000Y-36200D02*
X32000Y-37000D01*
X32000Y-37000D02*
X32000Y-38000D01*
X30000Y-38000D02*
X30000Y-37000D01*
X30000Y-37000D02*
X30000Y-36000D01*
X25925Y-35875D02*
X25925Y-35825D01*
X25975Y-35900D02*
X25975Y-35800D01*
X26025Y-35950D02*
X26025Y-35750D01*
X25900Y-35850D02*
X26075Y-35675D01*
X26075Y-35675D02*
X26075Y-36025D01*
X26075Y-36025D02*
X25900Y-35850D01*
X26000Y-36200D02*
X25900Y-36100D01*
X25800Y-38350D02*
X24200Y-38350D01*
X25800Y-35650D02*
X24200Y-35650D01*
X24000Y-36000D02*
X24100Y-36000D01*
X26000Y-38000D02*
X25900Y-38000D01*
X24000Y-38000D02*
X24100Y-38000D01*
X26000Y-36200D02*
X26000Y-37000D01*
X26000Y-37000D02*
X26000Y-38000D01*
X24000Y-38000D02*
X24000Y-37000D01*
X24000Y-37000D02*
X24000Y-36000D01*
X19925Y-35875D02*
X19925Y-35825D01*
X19975Y-35900D02*
X19975Y-35800D01*
X20025Y-35950D02*
X20025Y-35750D01*
X19900Y-35850D02*
X20075Y-35675D01*
X20075Y-35675D02*
X20075Y-36025D01*
X20075Y-36025D02*
X19900Y-35850D01*
X20000Y-36200D02*
X19900Y-36100D01*
X19800Y-38350D02*
X18200Y-38350D01*
X19800Y-35650D02*
X18200Y-35650D01*
X18000Y-36000D02*
X18100Y-36000D01*
X20000Y-38000D02*
X19900Y-38000D01*
X18000Y-38000D02*
X18100Y-38000D01*
X20000Y-36200D02*
X20000Y-37000D01*
X20000Y-37000D02*
X20000Y-38000D01*
X18000Y-38000D02*
X18000Y-37000D01*
X18000Y-37000D02*
X18000Y-36000D01*
X13925Y-35875D02*
X13925Y-35825D01*
X13975Y-35900D02*
X13975Y-35800D01*
X14025Y-35950D02*
X14025Y-35750D01*
X13900Y-35850D02*
X14075Y-35675D01*
X14075Y-35675D02*
X14075Y-36025D01*
X14075Y-36025D02*
X13900Y-35850D01*
X14000Y-36200D02*
X13900Y-36100D01*
X13800Y-38350D02*
X12200Y-38350D01*
X13800Y-35650D02*
X12200Y-35650D01*
X12000Y-36000D02*
X12100Y-36000D01*
X14000Y-38000D02*
X13900Y-38000D01*
X12000Y-38000D02*
X12100Y-38000D01*
X14000Y-36200D02*
X14000Y-37000D01*
X14000Y-37000D02*
X14000Y-38000D01*
X12000Y-38000D02*
X12000Y-37000D01*
X12000Y-37000D02*
X12000Y-36000D01*
X55925Y-41875D02*
X55925Y-41825D01*
X55975Y-41900D02*
X55975Y-41800D01*
X56025Y-41950D02*
X56025Y-41750D01*
X55900Y-41850D02*
X56075Y-41675D01*
X56075Y-41675D02*
X56075Y-42025D01*
X56075Y-42025D02*
X55900Y-41850D01*
X56000Y-42200D02*
X55900Y-42100D01*
X55800Y-44350D02*
X54200Y-44350D01*
X55800Y-41650D02*
X54200Y-41650D01*
X54000Y-42000D02*
X54100Y-42000D01*
X56000Y-44000D02*
X55900Y-44000D01*
X54000Y-44000D02*
X54100Y-44000D01*
X56000Y-42200D02*
X56000Y-43000D01*
X56000Y-43000D02*
X56000Y-44000D01*
X54000Y-44000D02*
X54000Y-43000D01*
X54000Y-43000D02*
X54000Y-42000D01*
X49925Y-41875D02*
X49925Y-41825D01*
X49975Y-41900D02*
X49975Y-41800D01*
X50025Y-41950D02*
X50025Y-41750D01*
X49900Y-41850D02*
X50075Y-41675D01*
X50075Y-41675D02*
X50075Y-42025D01*
X50075Y-42025D02*
X49900Y-41850D01*
X50000Y-42200D02*
X49900Y-42100D01*
X49800Y-44350D02*
X48200Y-44350D01*
X49800Y-41650D02*
X48200Y-41650D01*
X48000Y-42000D02*
X48100Y-42000D01*
X50000Y-44000D02*
X49900Y-44000D01*
X48000Y-44000D02*
X48100Y-44000D01*
X50000Y-42200D02*
X50000Y-43000D01*
X50000Y-43000D02*
X50000Y-44000D01*
X48000Y-44000D02*
X48000Y-43000D01*
X48000Y-43000D02*
X48000Y-42000D01*
X43925Y-41875D02*
X43925Y-41825D01*
X43975Y-41900D02*
X43975Y-41800D01*
X44025Y-41950D02*
X44025Y-41750D01*
X43900Y-41850D02*
X44075Y-41675D01*
X44075Y-41675D02*
X44075Y-42025D01*
X44075Y-42025D02*
X43900Y-41850D01*
X44000Y-42200D02*
X43900Y-42100D01*
X43800Y-44350D02*
X42200Y-44350D01*
X43800Y-41650D02*
X42200Y-41650D01*
X42000Y-42000D02*
X42100Y-42000D01*
X44000Y-44000D02*
X43900Y-44000D01*
X42000Y-44000D02*
X42100Y-44000D01*
X44000Y-42200D02*
X44000Y-43000D01*
X44000Y-43000D02*
X44000Y-44000D01*
X42000Y-44000D02*
X42000Y-43000D01*
X42000Y-43000D02*
X42000Y-42000D01*
X37925Y-41875D02*
X37925Y-41825D01*
X37975Y-41900D02*
X37975Y-41800D01*
X38025Y-41950D02*
X38025Y-41750D01*
X37900Y-41850D02*
X38075Y-41675D01*
X38075Y-41675D02*
X38075Y-42025D01*
X38075Y-42025D02*
X37900Y-41850D01*
X38000Y-42200D02*
X37900Y-42100D01*
X37800Y-44350D02*
X36200Y-44350D01*
X37800Y-41650D02*
X36200Y-41650D01*
X36000Y-42000D02*
X36100Y-42000D01*
X38000Y-44000D02*
X37900Y-44000D01*
X36000Y-44000D02*
X36100Y-44000D01*
X38000Y-42200D02*
X38000Y-43000D01*
X38000Y-43000D02*
X38000Y-44000D01*
X36000Y-44000D02*
X36000Y-43000D01*
X36000Y-43000D02*
X36000Y-42000D01*
X31925Y-41875D02*
X31925Y-41825D01*
X31975Y-41900D02*
X31975Y-41800D01*
X32025Y-41950D02*
X32025Y-41750D01*
X31900Y-41850D02*
X32075Y-41675D01*
X32075Y-41675D02*
X32075Y-42025D01*
X32075Y-42025D02*
X31900Y-41850D01*
X32000Y-42200D02*
X31900Y-42100D01*
X31800Y-44350D02*
X30200Y-44350D01*
X31800Y-41650D02*
X30200Y-41650D01*
X30000Y-42000D02*
X30100Y-42000D01*
X32000Y-44000D02*
X31900Y-44000D01*
X30000Y-44000D02*
X30100Y-44000D01*
X32000Y-42200D02*
X32000Y-43000D01*
X32000Y-43000D02*
X32000Y-44000D01*
X30000Y-44000D02*
X30000Y-43000D01*
X30000Y-43000D02*
X30000Y-42000D01*
X25925Y-41875D02*
X25925Y-41825D01*
X25975Y-41900D02*
X25975Y-41800D01*
X26025Y-41950D02*
X26025Y-41750D01*
X25900Y-41850D02*
X26075Y-41675D01*
X26075Y-41675D02*
X26075Y-42025D01*
X26075Y-42025D02*
X25900Y-41850D01*
X26000Y-42200D02*
X25900Y-42100D01*
X25800Y-44350D02*
X24200Y-44350D01*
X25800Y-41650D02*
X24200Y-41650D01*
X24000Y-42000D02*
X24100Y-42000D01*
X26000Y-44000D02*
X25900Y-44000D01*
X24000Y-44000D02*
X24100Y-44000D01*
X26000Y-42200D02*
X26000Y-43000D01*
X26000Y-43000D02*
X26000Y-44000D01*
X24000Y-44000D02*
X24000Y-43000D01*
X24000Y-43000D02*
X24000Y-42000D01*
X19925Y-41875D02*
X19925Y-41825D01*
X19975Y-41900D02*
X19975Y-41800D01*
X20025Y-41950D02*
X20025Y-41750D01*
X19900Y-41850D02*
X20075Y-41675D01*
X20075Y-41675D02*
X20075Y-42025D01*
X20075Y-42025D02*
X19900Y-41850D01*
X20000Y-42200D02*
X19900Y-42100D01*
X19800Y-44350D02*
X18200Y-44350D01*
X19800Y-41650D02*
X18200Y-41650D01*
X18000Y-42000D02*
X18100Y-42000D01*
X20000Y-44000D02*
X19900Y-44000D01*
X18000Y-44000D02*
X18100Y-44000D01*
X20000Y-42200D02*
X20000Y-43000D01*
X20000Y-43000D02*
X20000Y-44000D01*
X18000Y-44000D02*
X18000Y-43000D01*
X18000Y-43000D02*
X18000Y-42000D01*
X13925Y-41875D02*
X13925Y-41825D01*
X13975Y-41900D02*
X13975Y-41800D01*
X14025Y-41950D02*
X14025Y-41750D01*
X13900Y-41850D02*
X14075Y-41675D01*
X14075Y-41675D02*
X14075Y-42025D01*
X14075Y-42025D02*
X13900Y-41850D01*
X14000Y-42200D02*
X13900Y-42100D01*
X13800Y-44350D02*
X12200Y-44350D01*
X13800Y-41650D02*
X12200Y-41650D01*
X12000Y-42000D02*
X12100Y-42000D01*
X14000Y-44000D02*
X13900Y-44000D01*
X12000Y-44000D02*
X12100Y-44000D01*
X14000Y-42200D02*
X14000Y-43000D01*
X14000Y-43000D02*
X14000Y-44000D01*
X12000Y-44000D02*
X12000Y-43000D01*
X12000Y-43000D02*
X12000Y-42000D01*
X55925Y-47875D02*
X55925Y-47825D01*
X55975Y-47900D02*
X55975Y-47800D01*
X56025Y-47950D02*
X56025Y-47750D01*
X55900Y-47850D02*
X56075Y-47675D01*
X56075Y-47675D02*
X56075Y-48025D01*
X56075Y-48025D02*
X55900Y-47850D01*
X56000Y-48200D02*
X55900Y-48100D01*
X55800Y-50350D02*
X54200Y-50350D01*
X55800Y-47650D02*
X54200Y-47650D01*
X54000Y-48000D02*
X54100Y-48000D01*
X56000Y-50000D02*
X55900Y-50000D01*
X54000Y-50000D02*
X54100Y-50000D01*
X56000Y-48200D02*
X56000Y-49000D01*
X56000Y-49000D02*
X56000Y-50000D01*
X54000Y-50000D02*
X54000Y-49000D01*
X54000Y-49000D02*
X54000Y-48000D01*
X49925Y-47875D02*
X49925Y-47825D01*
X49975Y-47900D02*
X49975Y-47800D01*
X50025Y-47950D02*
X50025Y-47750D01*
X49900Y-47850D02*
X50075Y-47675D01*
X50075Y-47675D02*
X50075Y-48025D01*
X50075Y-48025D02*
X49900Y-47850D01*
X50000Y-48200D02*
X49900Y-48100D01*
X49800Y-50350D02*
X48200Y-50350D01*
X49800Y-47650D02*
X48200Y-47650D01*
X48000Y-48000D02*
X48100Y-48000D01*
X50000Y-50000D02*
X49900Y-50000D01*
X48000Y-50000D02*
X48100Y-50000D01*
X50000Y-48200D02*
X50000Y-49000D01*
X50000Y-49000D02*
X50000Y-50000D01*
X48000Y-50000D02*
X48000Y-49000D01*
X48000Y-49000D02*
X48000Y-48000D01*
X43925Y-47875D02*
X43925Y-47825D01*
X43975Y-47900D02*
X43975Y-47800D01*
X44025Y-47950D02*
X44025Y-47750D01*
X43900Y-47850D02*
X44075Y-47675D01*
X44075Y-47675D02*
X44075Y-48025D01*
X44075Y-48025D02*
X43900Y-47850D01*
X44000Y-48200D02*
X43900Y-48100D01*
X43800Y-50350D02*
X42200Y-50350D01*
X43800Y-47650D02*
X42200Y-47650D01*
X42000Y-48000D02*
X42100Y-48000D01*
X44000Y-50000D02*
X43900Y-50000D01*
X42000Y-50000D02*
X42100Y-50000D01*
X44000Y-48200D02*
X44000Y-49000D01*
X44000Y-49000D02*
X44000Y-50000D01*
X42000Y-50000D02*
X42000Y-49000D01*
X42000Y-49000D02*
X42000Y-48000D01*
X37925Y-47875D02*
X37925Y-47825D01*
X37975Y-47900D02*
X37975Y-47800D01*
X38025Y-47950D02*
X38025Y-47750D01*
X37900Y-47850D02*
X38075Y-47675D01*
X38075Y-47675D02*
X38075Y-48025D01*
X38075Y-48025D02*
X37900Y-47850D01*
X38000Y-48200D02*
X37900Y-48100D01*
X37800Y-50350D02*
X36200Y-50350D01*
X37800Y-47650D02*
X36200Y-47650D01*
X36000Y-48000D02*
X36100Y-48000D01*
X38000Y-50000D02*
X37900Y-50000D01*
X36000Y-50000D02*
X36100Y-50000D01*
X38000Y-48200D02*
X38000Y-49000D01*
X38000Y-49000D02*
X38000Y-50000D01*
X36000Y-50000D02*
X36000Y-49000D01*
X36000Y-49000D02*
X36000Y-48000D01*
X31925Y-47875D02*
X31925Y-47825D01*
X31975Y-47900D02*
X31975Y-47800D01*
X32025Y-47950D02*
X32025Y-47750D01*
X31900Y-47850D02*
X32075Y-47675D01*
X32075Y-47675D02*
X32075Y-48025D01*
X32075Y-48025D02*
X31900Y-47850D01*
X32000Y-48200D02*
X31900Y-48100D01*
X31800Y-50350D02*
X30200Y-50350D01*
X31800Y-47650D02*
X30200Y-47650D01*
X30000Y-48000D02*
X30100Y-48000D01*
X32000Y-50000D02*
X31900Y-50000D01*
X30000Y-50000D02*
X30100Y-50000D01*
X32000Y-48200D02*
X32000Y-49000D01*
X32000Y-49000D02*
X32000Y-50000D01*
X30000Y-50000D02*
X30000Y-49000D01*
X30000Y-49000D02*
X30000Y-48000D01*
X25925Y-47875D02*
X25925Y-47825D01*
X25975Y-47900D02*
X25975Y-47800D01*
X26025Y-47950D02*
X26025Y-47750D01*
X25900Y-47850D02*
X26075Y-47675D01*
X26075Y-47675D02*
X26075Y-48025D01*
X26075Y-48025D02*
X25900Y-47850D01*
X26000Y-48200D02*
X25900Y-48100D01*
X25800Y-50350D02*
X24200Y-50350D01*
X25800Y-47650D02*
X24200Y-47650D01*
X24000Y-48000D02*
X24100Y-48000D01*
X26000Y-50000D02*
X25900Y-50000D01*
X24000Y-50000D02*
X24100Y-50000D01*
X26000Y-48200D02*
X26000Y-49000D01*
X26000Y-49000D02*
X26000Y-50000D01*
X24000Y-50000D02*
X24000Y-49000D01*
X24000Y-49000D02*
X24000Y-48000D01*
X19925Y-47875D02*
X19925Y-47825D01*
X19975Y-47900D02*
X19975Y-47800D01*
X20025Y-47950D02*
X20025Y-47750D01*
X19900Y-47850D02*
X20075Y-47675D01*
X20075Y-47675D02*
X20075Y-48025D01*
X20075Y-48025D02*
X19900Y-47850D01*
X20000Y-48200D02*
X19900Y-48100D01*
X19800Y-50350D02*
X18200Y-50350D01*
X19800Y-47650D02*
X18200Y-47650D01*
X18000Y-48000D02*
X18100Y-48000D01*
X20000Y-50000D02*
X19900Y-50000D01*
X18000Y-50000D02*
X18100Y-50000D01*
X20000Y-48200D02*
X20000Y-49000D01*
X20000Y-49000D02*
X20000Y-50000D01*
X18000Y-50000D02*
X18000Y-49000D01*
X18000Y-49000D02*
X18000Y-48000D01*
X13925Y-47875D02*
X13925Y-47825D01*
X13975Y-47900D02*
X13975Y-47800D01*
X14025Y-47950D02*
X14025Y-47750D01*
X13900Y-47850D02*
X14075Y-47675D01*
X14075Y-47675D02*
X14075Y-48025D01*
X14075Y-48025D02*
X13900Y-47850D01*
X14000Y-48200D02*
X13900Y-48100D01*
X13800Y-50350D02*
X12200Y-50350D01*
X13800Y-47650D02*
X12200Y-47650D01*
X12000Y-48000D02*
X12100Y-48000D01*
X14000Y-50000D02*
X13900Y-50000D01*
X12000Y-50000D02*
X12100Y-50000D01*
X14000Y-48200D02*
X14000Y-49000D01*
X14000Y-49000D02*
X14000Y-50000D01*
X12000Y-50000D02*
X12000Y-49000D01*
X12000Y-49000D02*
X12000Y-48000D01*
X55925Y-53875D02*
X55925Y-53825D01*
X55975Y-53900D02*
X55975Y-53800D01*
X56025Y-53950D02*
X56025Y-53750D01*
X55900Y-53850D02*
X56075Y-53675D01*
X56075Y-53675D02*
X56075Y-54025D01*
X56075Y-54025D02*
X55900Y-53850D01*
X56000Y-54200D02*
X55900Y-54100D01*
X55800Y-56350D02*
X54200Y-56350D01*
X55800Y-53650D02*
X54200Y-53650D01*
X54000Y-54000D02*
X54100Y-54000D01*
X56000Y-56000D02*
X55900Y-56000D01*
X54000Y-56000D02*
X54100Y-56000D01*
X56000Y-54200D02*
X56000Y-55000D01*
X56000Y-55000D02*
X56000Y-56000D01*
X54000Y-56000D02*
X54000Y-55000D01*
X54000Y-55000D02*
X54000Y-54000D01*
X49925Y-53875D02*
X49925Y-53825D01*
X49975Y-53900D02*
X49975Y-53800D01*
X50025Y-53950D02*
X50025Y-53750D01*
X49900Y-53850D02*
X50075Y-53675D01*
X50075Y-53675D02*
X50075Y-54025D01*
X50075Y-54025D02*
X49900Y-53850D01*
X50000Y-54200D02*
X49900Y-54100D01*
X49800Y-56350D02*
X48200Y-56350D01*
X49800Y-53650D02*
X48200Y-53650D01*
X48000Y-54000D02*
X48100Y-54000D01*
X50000Y-56000D02*
X49900Y-56000D01*
X48000Y-56000D02*
X48100Y-56000D01*
X50000Y-54200D02*
X50000Y-55000D01*
X50000Y-55000D02*
X50000Y-56000D01*
X48000Y-56000D02*
X48000Y-55000D01*
X48000Y-55000D02*
X48000Y-54000D01*
X43925Y-53875D02*
X43925Y-53825D01*
X43975Y-53900D02*
X43975Y-53800D01*
X44025Y-53950D02*
X44025Y-53750D01*
X43900Y-53850D02*
X44075Y-53675D01*
X44075Y-53675D02*
X44075Y-54025D01*
X44075Y-54025D02*
X43900Y-53850D01*
X44000Y-54200D02*
X43900Y-54100D01*
X43800Y-56350D02*
X42200Y-56350D01*
X43800Y-53650D02*
X42200Y-53650D01*
X42000Y-54000D02*
X42100Y-54000D01*
X44000Y-56000D02*
X43900Y-56000D01*
X42000Y-56000D02*
X42100Y-56000D01*
X44000Y-54200D02*
X44000Y-55000D01*
X44000Y-55000D02*
X44000Y-56000D01*
X42000Y-56000D02*
X42000Y-55000D01*
X42000Y-55000D02*
X42000Y-54000D01*
X37925Y-53875D02*
X37925Y-53825D01*
X37975Y-53900D02*
X37975Y-53800D01*
X38025Y-53950D02*
X38025Y-53750D01*
X37900Y-53850D02*
X38075Y-53675D01*
X38075Y-53675D02*
X38075Y-54025D01*
X38075Y-54025D02*
X37900Y-53850D01*
X38000Y-54200D02*
X37900Y-54100D01*
X37800Y-56350D02*
X36200Y-56350D01*
X37800Y-53650D02*
X36200Y-53650D01*
X36000Y-54000D02*
X36100Y-54000D01*
X38000Y-56000D02*
X37900Y-56000D01*
X36000Y-56000D02*
X36100Y-56000D01*
X38000Y-54200D02*
X38000Y-55000D01*
X38000Y-55000D02*
X38000Y-56000D01*
X36000Y-56000D02*
X36000Y-55000D01*
X36000Y-55000D02*
X36000Y-54000D01*
X31925Y-53875D02*
X31925Y-53825D01*
X31975Y-53900D02*
X31975Y-53800D01*
X32025Y-53950D02*
X32025Y-53750D01*
X31900Y-53850D02*
X32075Y-53675D01*
X32075Y-53675D02*
X32075Y-54025D01*
X32075Y-54025D02*
X31900Y-53850D01*
X32000Y-54200D02*
X31900Y-54100D01*
X31800Y-56350D02*
X30200Y-56350D01*
X31800Y-53650D02*
X30200Y-53650D01*
X30000Y-54000D02*
X30100Y-54000D01*
X32000Y-56000D02*
X31900Y-56000D01*
X30000Y-56000D02*
X30100Y-56000D01*
X32000Y-54200D02*
X32000Y-55000D01*
X32000Y-55000D02*
X32000Y-56000D01*
X30000Y-56000D02*
X30000Y-55000D01*
X30000Y-55000D02*
X30000Y-54000D01*
X25925Y-53875D02*
X25925Y-53825D01*
X25975Y-53900D02*
X25975Y-53800D01*
X26025Y-53950D02*
X26025Y-53750D01*
X25900Y-53850D02*
X26075Y-53675D01*
X26075Y-53675D02*
X26075Y-54025D01*
X26075Y-54025D02*
X25900Y-53850D01*
X26000Y-54200D02*
X25900Y-54100D01*
X25800Y-56350D02*
X24200Y-56350D01*
X25800Y-53650D02*
X24200Y-53650D01*
X24000Y-54000D02*
X24100Y-54000D01*
X26000Y-56000D02*
X25900Y-56000D01*
X24000Y-56000D02*
X24100Y-56000D01*
X26000Y-54200D02*
X26000Y-55000D01*
X26000Y-55000D02*
X26000Y-56000D01*
X24000Y-56000D02*
X24000Y-55000D01*
X24000Y-55000D02*
X24000Y-54000D01*
X19925Y-53875D02*
X19925Y-53825D01*
X19975Y-53900D02*
X19975Y-53800D01*
X20025Y-53950D02*
X20025Y-53750D01*
X19900Y-53850D02*
X20075Y-53675D01*
X20075Y-53675D02*
X20075Y-54025D01*
X20075Y-54025D02*
X19900Y-53850D01*
X20000Y-54200D02*
X19900Y-54100D01*
X19800Y-56350D02*
X18200Y-56350D01*
X19800Y-53650D02*
X18200Y-53650D01*
X18000Y-54000D02*
X18100Y-54000D01*
X20000Y-56000D02*
X19900Y-56000D01*
X18000Y-56000D02*
X18100Y-56000D01*
X20000Y-54200D02*
X20000Y-55000D01*
X20000Y-55000D02*
X20000Y-56000D01*
X18000Y-56000D02*
X18000Y-55000D01*
X18000Y-55000D02*
X18000Y-54000D01*
X13925Y-53875D02*
X13925Y-53825D01*
X13975Y-53900D02*
X13975Y-53800D01*
X14025Y-53950D02*
X14025Y-53750D01*
X13900Y-53850D02*
X14075Y-53675D01*
X14075Y-53675D02*
X14075Y-54025D01*
X14075Y-54025D02*
X13900Y-53850D01*
X14000Y-54200D02*
X13900Y-54100D01*
X13800Y-56350D02*
X12200Y-56350D01*
X13800Y-53650D02*
X12200Y-53650D01*
X12000Y-54000D02*
X12100Y-54000D01*
X14000Y-56000D02*
X13900Y-56000D01*
X12000Y-56000D02*
X12100Y-56000D01*
X14000Y-54200D02*
X14000Y-55000D01*
X14000Y-55000D02*
X14000Y-56000D01*
X12000Y-56000D02*
X12000Y-55000D01*
X12000Y-55000D02*
X12000Y-54000D01*
G54D16*
X14442Y-57135D02*
X14457Y-57150D01*
X14471Y-57192D01*
X14471Y-57221D01*
X14457Y-57264D01*
X14428Y-57292D01*
X14400Y-57307D01*
X14342Y-57321D01*
X14300Y-57321D01*
X14242Y-57307D01*
X14214Y-57292D01*
X14185Y-57264D01*
X14171Y-57221D01*
X14171Y-57192D01*
X14185Y-57150D01*
X14200Y-57135D01*
X14471Y-56850D02*
X14471Y-57021D01*
X14471Y-56935D02*
X14171Y-56935D01*
X14214Y-56964D01*
X14242Y-56992D01*
X14257Y-57021D01*
X14171Y-56664D02*
X14171Y-56635D01*
X14185Y-56607D01*
X14200Y-56592D01*
X14228Y-56578D01*
X14285Y-56564D01*
X14357Y-56564D01*
X14414Y-56578D01*
X14442Y-56592D01*
X14457Y-56607D01*
X14471Y-56635D01*
X14471Y-56664D01*
X14457Y-56692D01*
X14442Y-56707D01*
X14414Y-56721D01*
X14357Y-56735D01*
X14285Y-56735D01*
X14228Y-56721D01*
X14200Y-56707D01*
X14185Y-56692D01*
X14171Y-56664D01*
X14471Y-56278D02*
X14471Y-56450D01*
X14471Y-56364D02*
X14171Y-56364D01*
X14214Y-56392D01*
X14242Y-56421D01*
X14257Y-56450D01*
X14896Y-57135D02*
X14896Y-57307D01*
X14896Y-57221D02*
X14596Y-57221D01*
X14639Y-57249D01*
X14667Y-57278D01*
X14682Y-57307D01*
X14596Y-56950D02*
X14596Y-56921D01*
X14610Y-56892D01*
X14625Y-56878D01*
X14653Y-56864D01*
X14710Y-56850D01*
X14782Y-56850D01*
X14839Y-56864D01*
X14867Y-56878D01*
X14882Y-56892D01*
X14896Y-56921D01*
X14896Y-56950D01*
X14882Y-56978D01*
X14867Y-56992D01*
X14839Y-57007D01*
X14782Y-57021D01*
X14710Y-57021D01*
X14653Y-57007D01*
X14625Y-56992D01*
X14610Y-56978D01*
X14596Y-56950D01*
X14596Y-56664D02*
X14596Y-56635D01*
X14610Y-56607D01*
X14625Y-56592D01*
X14653Y-56578D01*
X14710Y-56564D01*
X14782Y-56564D01*
X14839Y-56578D01*
X14867Y-56592D01*
X14882Y-56607D01*
X14896Y-56635D01*
X14896Y-56664D01*
X14882Y-56692D01*
X14867Y-56707D01*
X14839Y-56721D01*
X14782Y-56735D01*
X14710Y-56735D01*
X14653Y-56721D01*
X14625Y-56707D01*
X14610Y-56692D01*
X14596Y-56664D01*
X14696Y-56435D02*
X14896Y-56435D01*
X14725Y-56435D02*
X14710Y-56421D01*
X14696Y-56392D01*
X14696Y-56350D01*
X14710Y-56321D01*
X14739Y-56307D01*
X14896Y-56307D01*
X14442Y-51185D02*
X14457Y-51200D01*
X14471Y-51242D01*
X14471Y-51271D01*
X14457Y-51314D01*
X14428Y-51342D01*
X14400Y-51357D01*
X14342Y-51371D01*
X14300Y-51371D01*
X14242Y-51357D01*
X14214Y-51342D01*
X14185Y-51314D01*
X14171Y-51271D01*
X14171Y-51242D01*
X14185Y-51200D01*
X14200Y-51185D01*
X14200Y-51071D02*
X14185Y-51057D01*
X14171Y-51028D01*
X14171Y-50957D01*
X14185Y-50928D01*
X14200Y-50914D01*
X14228Y-50900D01*
X14257Y-50900D01*
X14300Y-50914D01*
X14471Y-51085D01*
X14471Y-50900D01*
X14171Y-50714D02*
X14171Y-50685D01*
X14185Y-50657D01*
X14200Y-50642D01*
X14228Y-50628D01*
X14285Y-50614D01*
X14357Y-50614D01*
X14414Y-50628D01*
X14442Y-50642D01*
X14457Y-50657D01*
X14471Y-50685D01*
X14471Y-50714D01*
X14457Y-50742D01*
X14442Y-50757D01*
X14414Y-50771D01*
X14357Y-50785D01*
X14285Y-50785D01*
X14228Y-50771D01*
X14200Y-50757D01*
X14185Y-50742D01*
X14171Y-50714D01*
X14471Y-50328D02*
X14471Y-50500D01*
X14471Y-50414D02*
X14171Y-50414D01*
X14214Y-50442D01*
X14242Y-50471D01*
X14257Y-50500D01*
X14896Y-51135D02*
X14896Y-51307D01*
X14896Y-51221D02*
X14596Y-51221D01*
X14639Y-51249D01*
X14667Y-51278D01*
X14682Y-51307D01*
X14596Y-50950D02*
X14596Y-50921D01*
X14610Y-50892D01*
X14625Y-50878D01*
X14653Y-50864D01*
X14710Y-50850D01*
X14782Y-50850D01*
X14839Y-50864D01*
X14867Y-50878D01*
X14882Y-50892D01*
X14896Y-50921D01*
X14896Y-50950D01*
X14882Y-50978D01*
X14867Y-50992D01*
X14839Y-51007D01*
X14782Y-51021D01*
X14710Y-51021D01*
X14653Y-51007D01*
X14625Y-50992D01*
X14610Y-50978D01*
X14596Y-50950D01*
X14596Y-50664D02*
X14596Y-50635D01*
X14610Y-50607D01*
X14625Y-50592D01*
X14653Y-50578D01*
X14710Y-50564D01*
X14782Y-50564D01*
X14839Y-50578D01*
X14867Y-50592D01*
X14882Y-50607D01*
X14896Y-50635D01*
X14896Y-50664D01*
X14882Y-50692D01*
X14867Y-50707D01*
X14839Y-50721D01*
X14782Y-50735D01*
X14710Y-50735D01*
X14653Y-50721D01*
X14625Y-50707D01*
X14610Y-50692D01*
X14596Y-50664D01*
X14696Y-50435D02*
X14896Y-50435D01*
X14725Y-50435D02*
X14710Y-50421D01*
X14696Y-50392D01*
X14696Y-50350D01*
X14710Y-50321D01*
X14739Y-50307D01*
X14896Y-50307D01*
X14442Y-45185D02*
X14457Y-45200D01*
X14471Y-45242D01*
X14471Y-45271D01*
X14457Y-45314D01*
X14428Y-45342D01*
X14400Y-45357D01*
X14342Y-45371D01*
X14300Y-45371D01*
X14242Y-45357D01*
X14214Y-45342D01*
X14185Y-45314D01*
X14171Y-45271D01*
X14171Y-45242D01*
X14185Y-45200D01*
X14200Y-45185D01*
X14171Y-45085D02*
X14171Y-44900D01*
X14285Y-45000D01*
X14285Y-44957D01*
X14300Y-44928D01*
X14314Y-44914D01*
X14342Y-44900D01*
X14414Y-44900D01*
X14442Y-44914D01*
X14457Y-44928D01*
X14471Y-44957D01*
X14471Y-45042D01*
X14457Y-45071D01*
X14442Y-45085D01*
X14171Y-44714D02*
X14171Y-44685D01*
X14185Y-44657D01*
X14200Y-44642D01*
X14228Y-44628D01*
X14285Y-44614D01*
X14357Y-44614D01*
X14414Y-44628D01*
X14442Y-44642D01*
X14457Y-44657D01*
X14471Y-44685D01*
X14471Y-44714D01*
X14457Y-44742D01*
X14442Y-44757D01*
X14414Y-44771D01*
X14357Y-44785D01*
X14285Y-44785D01*
X14228Y-44771D01*
X14200Y-44757D01*
X14185Y-44742D01*
X14171Y-44714D01*
X14471Y-44328D02*
X14471Y-44500D01*
X14471Y-44414D02*
X14171Y-44414D01*
X14214Y-44442D01*
X14242Y-44471D01*
X14257Y-44500D01*
X14896Y-45135D02*
X14896Y-45307D01*
X14896Y-45221D02*
X14596Y-45221D01*
X14639Y-45249D01*
X14667Y-45278D01*
X14682Y-45307D01*
X14596Y-44950D02*
X14596Y-44921D01*
X14610Y-44892D01*
X14625Y-44878D01*
X14653Y-44864D01*
X14710Y-44850D01*
X14782Y-44850D01*
X14839Y-44864D01*
X14867Y-44878D01*
X14882Y-44892D01*
X14896Y-44921D01*
X14896Y-44950D01*
X14882Y-44978D01*
X14867Y-44992D01*
X14839Y-45007D01*
X14782Y-45021D01*
X14710Y-45021D01*
X14653Y-45007D01*
X14625Y-44992D01*
X14610Y-44978D01*
X14596Y-44950D01*
X14596Y-44664D02*
X14596Y-44635D01*
X14610Y-44607D01*
X14625Y-44592D01*
X14653Y-44578D01*
X14710Y-44564D01*
X14782Y-44564D01*
X14839Y-44578D01*
X14867Y-44592D01*
X14882Y-44607D01*
X14896Y-44635D01*
X14896Y-44664D01*
X14882Y-44692D01*
X14867Y-44707D01*
X14839Y-44721D01*
X14782Y-44735D01*
X14710Y-44735D01*
X14653Y-44721D01*
X14625Y-44707D01*
X14610Y-44692D01*
X14596Y-44664D01*
X14696Y-44435D02*
X14896Y-44435D01*
X14725Y-44435D02*
X14710Y-44421D01*
X14696Y-44392D01*
X14696Y-44350D01*
X14710Y-44321D01*
X14739Y-44307D01*
X14896Y-44307D01*
X14442Y-39185D02*
X14457Y-39200D01*
X14471Y-39242D01*
X14471Y-39271D01*
X14457Y-39314D01*
X14428Y-39342D01*
X14400Y-39357D01*
X14342Y-39371D01*
X14300Y-39371D01*
X14242Y-39357D01*
X14214Y-39342D01*
X14185Y-39314D01*
X14171Y-39271D01*
X14171Y-39242D01*
X14185Y-39200D01*
X14200Y-39185D01*
X14271Y-38928D02*
X14471Y-38928D01*
X14157Y-39000D02*
X14371Y-39071D01*
X14371Y-38885D01*
X14171Y-38714D02*
X14171Y-38685D01*
X14185Y-38657D01*
X14200Y-38642D01*
X14228Y-38628D01*
X14285Y-38614D01*
X14357Y-38614D01*
X14414Y-38628D01*
X14442Y-38642D01*
X14457Y-38657D01*
X14471Y-38685D01*
X14471Y-38714D01*
X14457Y-38742D01*
X14442Y-38757D01*
X14414Y-38771D01*
X14357Y-38785D01*
X14285Y-38785D01*
X14228Y-38771D01*
X14200Y-38757D01*
X14185Y-38742D01*
X14171Y-38714D01*
X14471Y-38328D02*
X14471Y-38500D01*
X14471Y-38414D02*
X14171Y-38414D01*
X14214Y-38442D01*
X14242Y-38471D01*
X14257Y-38500D01*
X14896Y-39135D02*
X14896Y-39307D01*
X14896Y-39221D02*
X14596Y-39221D01*
X14639Y-39249D01*
X14667Y-39278D01*
X14682Y-39307D01*
X14596Y-38950D02*
X14596Y-38921D01*
X14610Y-38892D01*
X14625Y-38878D01*
X14653Y-38864D01*
X14710Y-38850D01*
X14782Y-38850D01*
X14839Y-38864D01*
X14867Y-38878D01*
X14882Y-38892D01*
X14896Y-38921D01*
X14896Y-38950D01*
X14882Y-38978D01*
X14867Y-38992D01*
X14839Y-39007D01*
X14782Y-39021D01*
X14710Y-39021D01*
X14653Y-39007D01*
X14625Y-38992D01*
X14610Y-38978D01*
X14596Y-38950D01*
X14596Y-38664D02*
X14596Y-38635D01*
X14610Y-38607D01*
X14625Y-38592D01*
X14653Y-38578D01*
X14710Y-38564D01*
X14782Y-38564D01*
X14839Y-38578D01*
X14867Y-38592D01*
X14882Y-38607D01*
X14896Y-38635D01*
X14896Y-38664D01*
X14882Y-38692D01*
X14867Y-38707D01*
X14839Y-38721D01*
X14782Y-38735D01*
X14710Y-38735D01*
X14653Y-38721D01*
X14625Y-38707D01*
X14610Y-38692D01*
X14596Y-38664D01*
X14696Y-38435D02*
X14896Y-38435D01*
X14725Y-38435D02*
X14710Y-38421D01*
X14696Y-38392D01*
X14696Y-38350D01*
X14710Y-38321D01*
X14739Y-38307D01*
X14896Y-38307D01*
X14442Y-33185D02*
X14457Y-33200D01*
X14471Y-33242D01*
X14471Y-33271D01*
X14457Y-33314D01*
X14428Y-33342D01*
X14400Y-33357D01*
X14342Y-33371D01*
X14300Y-33371D01*
X14242Y-33357D01*
X14214Y-33342D01*
X14185Y-33314D01*
X14171Y-33271D01*
X14171Y-33242D01*
X14185Y-33200D01*
X14200Y-33185D01*
X14171Y-32914D02*
X14171Y-33057D01*
X14314Y-33071D01*
X14300Y-33057D01*
X14285Y-33028D01*
X14285Y-32957D01*
X14300Y-32928D01*
X14314Y-32914D01*
X14342Y-32900D01*
X14414Y-32900D01*
X14442Y-32914D01*
X14457Y-32928D01*
X14471Y-32957D01*
X14471Y-33028D01*
X14457Y-33057D01*
X14442Y-33071D01*
X14171Y-32714D02*
X14171Y-32685D01*
X14185Y-32657D01*
X14200Y-32642D01*
X14228Y-32628D01*
X14285Y-32614D01*
X14357Y-32614D01*
X14414Y-32628D01*
X14442Y-32642D01*
X14457Y-32657D01*
X14471Y-32685D01*
X14471Y-32714D01*
X14457Y-32742D01*
X14442Y-32757D01*
X14414Y-32771D01*
X14357Y-32785D01*
X14285Y-32785D01*
X14228Y-32771D01*
X14200Y-32757D01*
X14185Y-32742D01*
X14171Y-32714D01*
X14471Y-32328D02*
X14471Y-32500D01*
X14471Y-32414D02*
X14171Y-32414D01*
X14214Y-32442D01*
X14242Y-32471D01*
X14257Y-32500D01*
X14896Y-33135D02*
X14896Y-33307D01*
X14896Y-33221D02*
X14596Y-33221D01*
X14639Y-33249D01*
X14667Y-33278D01*
X14682Y-33307D01*
X14596Y-32950D02*
X14596Y-32921D01*
X14610Y-32892D01*
X14625Y-32878D01*
X14653Y-32864D01*
X14710Y-32850D01*
X14782Y-32850D01*
X14839Y-32864D01*
X14867Y-32878D01*
X14882Y-32892D01*
X14896Y-32921D01*
X14896Y-32950D01*
X14882Y-32978D01*
X14867Y-32992D01*
X14839Y-33007D01*
X14782Y-33021D01*
X14710Y-33021D01*
X14653Y-33007D01*
X14625Y-32992D01*
X14610Y-32978D01*
X14596Y-32950D01*
X14596Y-32664D02*
X14596Y-32635D01*
X14610Y-32607D01*
X14625Y-32592D01*
X14653Y-32578D01*
X14710Y-32564D01*
X14782Y-32564D01*
X14839Y-32578D01*
X14867Y-32592D01*
X14882Y-32607D01*
X14896Y-32635D01*
X14896Y-32664D01*
X14882Y-32692D01*
X14867Y-32707D01*
X14839Y-32721D01*
X14782Y-32735D01*
X14710Y-32735D01*
X14653Y-32721D01*
X14625Y-32707D01*
X14610Y-32692D01*
X14596Y-32664D01*
X14696Y-32435D02*
X14896Y-32435D01*
X14725Y-32435D02*
X14710Y-32421D01*
X14696Y-32392D01*
X14696Y-32350D01*
X14710Y-32321D01*
X14739Y-32307D01*
X14896Y-32307D01*
X14442Y-27185D02*
X14457Y-27200D01*
X14471Y-27242D01*
X14471Y-27271D01*
X14457Y-27314D01*
X14428Y-27342D01*
X14400Y-27357D01*
X14342Y-27371D01*
X14300Y-27371D01*
X14242Y-27357D01*
X14214Y-27342D01*
X14185Y-27314D01*
X14171Y-27271D01*
X14171Y-27242D01*
X14185Y-27200D01*
X14200Y-27185D01*
X14171Y-26928D02*
X14171Y-26985D01*
X14185Y-27014D01*
X14200Y-27028D01*
X14242Y-27057D01*
X14300Y-27071D01*
X14414Y-27071D01*
X14442Y-27057D01*
X14457Y-27042D01*
X14471Y-27014D01*
X14471Y-26957D01*
X14457Y-26928D01*
X14442Y-26914D01*
X14414Y-26900D01*
X14342Y-26900D01*
X14314Y-26914D01*
X14300Y-26928D01*
X14285Y-26957D01*
X14285Y-27014D01*
X14300Y-27042D01*
X14314Y-27057D01*
X14342Y-27071D01*
X14171Y-26714D02*
X14171Y-26685D01*
X14185Y-26657D01*
X14200Y-26642D01*
X14228Y-26628D01*
X14285Y-26614D01*
X14357Y-26614D01*
X14414Y-26628D01*
X14442Y-26642D01*
X14457Y-26657D01*
X14471Y-26685D01*
X14471Y-26714D01*
X14457Y-26742D01*
X14442Y-26757D01*
X14414Y-26771D01*
X14357Y-26785D01*
X14285Y-26785D01*
X14228Y-26771D01*
X14200Y-26757D01*
X14185Y-26742D01*
X14171Y-26714D01*
X14471Y-26328D02*
X14471Y-26500D01*
X14471Y-26414D02*
X14171Y-26414D01*
X14214Y-26442D01*
X14242Y-26471D01*
X14257Y-26500D01*
X14896Y-27135D02*
X14896Y-27307D01*
X14896Y-27221D02*
X14596Y-27221D01*
X14639Y-27249D01*
X14667Y-27278D01*
X14682Y-27307D01*
X14596Y-26950D02*
X14596Y-26921D01*
X14610Y-26892D01*
X14625Y-26878D01*
X14653Y-26864D01*
X14710Y-26850D01*
X14782Y-26850D01*
X14839Y-26864D01*
X14867Y-26878D01*
X14882Y-26892D01*
X14896Y-26921D01*
X14896Y-26950D01*
X14882Y-26978D01*
X14867Y-26992D01*
X14839Y-27007D01*
X14782Y-27021D01*
X14710Y-27021D01*
X14653Y-27007D01*
X14625Y-26992D01*
X14610Y-26978D01*
X14596Y-26950D01*
X14596Y-26664D02*
X14596Y-26635D01*
X14610Y-26607D01*
X14625Y-26592D01*
X14653Y-26578D01*
X14710Y-26564D01*
X14782Y-26564D01*
X14839Y-26578D01*
X14867Y-26592D01*
X14882Y-26607D01*
X14896Y-26635D01*
X14896Y-26664D01*
X14882Y-26692D01*
X14867Y-26707D01*
X14839Y-26721D01*
X14782Y-26735D01*
X14710Y-26735D01*
X14653Y-26721D01*
X14625Y-26707D01*
X14610Y-26692D01*
X14596Y-26664D01*
X14696Y-26435D02*
X14896Y-26435D01*
X14725Y-26435D02*
X14710Y-26421D01*
X14696Y-26392D01*
X14696Y-26350D01*
X14710Y-26321D01*
X14739Y-26307D01*
X14896Y-26307D01*
X14442Y-21185D02*
X14457Y-21200D01*
X14471Y-21242D01*
X14471Y-21271D01*
X14457Y-21314D01*
X14428Y-21342D01*
X14400Y-21357D01*
X14342Y-21371D01*
X14300Y-21371D01*
X14242Y-21357D01*
X14214Y-21342D01*
X14185Y-21314D01*
X14171Y-21271D01*
X14171Y-21242D01*
X14185Y-21200D01*
X14200Y-21185D01*
X14171Y-21085D02*
X14171Y-20885D01*
X14471Y-21014D01*
X14171Y-20714D02*
X14171Y-20685D01*
X14185Y-20657D01*
X14200Y-20642D01*
X14228Y-20628D01*
X14285Y-20614D01*
X14357Y-20614D01*
X14414Y-20628D01*
X14442Y-20642D01*
X14457Y-20657D01*
X14471Y-20685D01*
X14471Y-20714D01*
X14457Y-20742D01*
X14442Y-20757D01*
X14414Y-20771D01*
X14357Y-20785D01*
X14285Y-20785D01*
X14228Y-20771D01*
X14200Y-20757D01*
X14185Y-20742D01*
X14171Y-20714D01*
X14471Y-20328D02*
X14471Y-20500D01*
X14471Y-20414D02*
X14171Y-20414D01*
X14214Y-20442D01*
X14242Y-20471D01*
X14257Y-20500D01*
X14896Y-21135D02*
X14896Y-21307D01*
X14896Y-21221D02*
X14596Y-21221D01*
X14639Y-21249D01*
X14667Y-21278D01*
X14682Y-21307D01*
X14596Y-20950D02*
X14596Y-20921D01*
X14610Y-20892D01*
X14625Y-20878D01*
X14653Y-20864D01*
X14710Y-20850D01*
X14782Y-20850D01*
X14839Y-20864D01*
X14867Y-20878D01*
X14882Y-20892D01*
X14896Y-20921D01*
X14896Y-20950D01*
X14882Y-20978D01*
X14867Y-20992D01*
X14839Y-21007D01*
X14782Y-21021D01*
X14710Y-21021D01*
X14653Y-21007D01*
X14625Y-20992D01*
X14610Y-20978D01*
X14596Y-20950D01*
X14596Y-20664D02*
X14596Y-20635D01*
X14610Y-20607D01*
X14625Y-20592D01*
X14653Y-20578D01*
X14710Y-20564D01*
X14782Y-20564D01*
X14839Y-20578D01*
X14867Y-20592D01*
X14882Y-20607D01*
X14896Y-20635D01*
X14896Y-20664D01*
X14882Y-20692D01*
X14867Y-20707D01*
X14839Y-20721D01*
X14782Y-20735D01*
X14710Y-20735D01*
X14653Y-20721D01*
X14625Y-20707D01*
X14610Y-20692D01*
X14596Y-20664D01*
X14696Y-20435D02*
X14896Y-20435D01*
X14725Y-20435D02*
X14710Y-20421D01*
X14696Y-20392D01*
X14696Y-20350D01*
X14710Y-20321D01*
X14739Y-20307D01*
X14896Y-20307D01*
X14442Y-15185D02*
X14457Y-15200D01*
X14471Y-15242D01*
X14471Y-15271D01*
X14457Y-15314D01*
X14428Y-15342D01*
X14400Y-15357D01*
X14342Y-15371D01*
X14300Y-15371D01*
X14242Y-15357D01*
X14214Y-15342D01*
X14185Y-15314D01*
X14171Y-15271D01*
X14171Y-15242D01*
X14185Y-15200D01*
X14200Y-15185D01*
X14300Y-15014D02*
X14285Y-15042D01*
X14271Y-15057D01*
X14242Y-15071D01*
X14228Y-15071D01*
X14200Y-15057D01*
X14185Y-15042D01*
X14171Y-15014D01*
X14171Y-14957D01*
X14185Y-14928D01*
X14200Y-14914D01*
X14228Y-14900D01*
X14242Y-14900D01*
X14271Y-14914D01*
X14285Y-14928D01*
X14300Y-14957D01*
X14300Y-15014D01*
X14314Y-15042D01*
X14328Y-15057D01*
X14357Y-15071D01*
X14414Y-15071D01*
X14442Y-15057D01*
X14457Y-15042D01*
X14471Y-15014D01*
X14471Y-14957D01*
X14457Y-14928D01*
X14442Y-14914D01*
X14414Y-14900D01*
X14357Y-14900D01*
X14328Y-14914D01*
X14314Y-14928D01*
X14300Y-14957D01*
X14171Y-14714D02*
X14171Y-14685D01*
X14185Y-14657D01*
X14200Y-14642D01*
X14228Y-14628D01*
X14285Y-14614D01*
X14357Y-14614D01*
X14414Y-14628D01*
X14442Y-14642D01*
X14457Y-14657D01*
X14471Y-14685D01*
X14471Y-14714D01*
X14457Y-14742D01*
X14442Y-14757D01*
X14414Y-14771D01*
X14357Y-14785D01*
X14285Y-14785D01*
X14228Y-14771D01*
X14200Y-14757D01*
X14185Y-14742D01*
X14171Y-14714D01*
X14471Y-14328D02*
X14471Y-14500D01*
X14471Y-14414D02*
X14171Y-14414D01*
X14214Y-14442D01*
X14242Y-14471D01*
X14257Y-14500D01*
X14896Y-15135D02*
X14896Y-15307D01*
X14896Y-15221D02*
X14596Y-15221D01*
X14639Y-15249D01*
X14667Y-15278D01*
X14682Y-15307D01*
X14596Y-14950D02*
X14596Y-14921D01*
X14610Y-14892D01*
X14625Y-14878D01*
X14653Y-14864D01*
X14710Y-14850D01*
X14782Y-14850D01*
X14839Y-14864D01*
X14867Y-14878D01*
X14882Y-14892D01*
X14896Y-14921D01*
X14896Y-14950D01*
X14882Y-14978D01*
X14867Y-14992D01*
X14839Y-15007D01*
X14782Y-15021D01*
X14710Y-15021D01*
X14653Y-15007D01*
X14625Y-14992D01*
X14610Y-14978D01*
X14596Y-14950D01*
X14596Y-14664D02*
X14596Y-14635D01*
X14610Y-14607D01*
X14625Y-14592D01*
X14653Y-14578D01*
X14710Y-14564D01*
X14782Y-14564D01*
X14839Y-14578D01*
X14867Y-14592D01*
X14882Y-14607D01*
X14896Y-14635D01*
X14896Y-14664D01*
X14882Y-14692D01*
X14867Y-14707D01*
X14839Y-14721D01*
X14782Y-14735D01*
X14710Y-14735D01*
X14653Y-14721D01*
X14625Y-14707D01*
X14610Y-14692D01*
X14596Y-14664D01*
X14696Y-14435D02*
X14896Y-14435D01*
X14725Y-14435D02*
X14710Y-14421D01*
X14696Y-14392D01*
X14696Y-14350D01*
X14710Y-14321D01*
X14739Y-14307D01*
X14896Y-14307D01*
G54D15*
X35471Y-35171D02*
X35471Y-35125D01*
X35485Y-35102D01*
X35514Y-35080D01*
X35571Y-35068D01*
X35671Y-35068D01*
X35728Y-35080D01*
X35757Y-35102D01*
X35771Y-35125D01*
X35771Y-35171D01*
X35757Y-35194D01*
X35728Y-35217D01*
X35671Y-35228D01*
X35571Y-35228D01*
X35514Y-35217D01*
X35485Y-35194D01*
X35471Y-35171D01*
X35571Y-34965D02*
X35871Y-34965D01*
X35585Y-34965D02*
X35571Y-34942D01*
X35571Y-34897D01*
X35585Y-34874D01*
X35600Y-34862D01*
X35628Y-34851D01*
X35714Y-34851D01*
X35742Y-34862D01*
X35757Y-34874D01*
X35771Y-34897D01*
X35771Y-34942D01*
X35757Y-34965D01*
X35757Y-34657D02*
X35771Y-34680D01*
X35771Y-34725D01*
X35757Y-34748D01*
X35728Y-34760D01*
X35614Y-34760D01*
X35585Y-34748D01*
X35571Y-34725D01*
X35571Y-34680D01*
X35585Y-34657D01*
X35614Y-34645D01*
X35642Y-34645D01*
X35671Y-34760D01*
X35571Y-34542D02*
X35771Y-34542D01*
X35600Y-34542D02*
X35585Y-34531D01*
X35571Y-34508D01*
X35571Y-34474D01*
X35585Y-34451D01*
X35614Y-34440D01*
X35771Y-34440D01*
X35771Y-34325D02*
X35471Y-34325D01*
X35614Y-34325D02*
X35614Y-34188D01*
X35771Y-34188D02*
X35471Y-34188D01*
X35771Y-33971D02*
X35614Y-33971D01*
X35585Y-33982D01*
X35571Y-34005D01*
X35571Y-34051D01*
X35585Y-34074D01*
X35757Y-33971D02*
X35771Y-33994D01*
X35771Y-34051D01*
X35757Y-34074D01*
X35728Y-34085D01*
X35700Y-34085D01*
X35671Y-34074D01*
X35657Y-34051D01*
X35657Y-33994D01*
X35642Y-33971D01*
X35771Y-33857D02*
X35571Y-33857D01*
X35628Y-33857D02*
X35600Y-33845D01*
X35585Y-33834D01*
X35571Y-33811D01*
X35571Y-33788D01*
X35771Y-33605D02*
X35471Y-33605D01*
X35757Y-33605D02*
X35771Y-33628D01*
X35771Y-33674D01*
X35757Y-33697D01*
X35742Y-33708D01*
X35714Y-33720D01*
X35628Y-33720D01*
X35600Y-33708D01*
X35585Y-33697D01*
X35571Y-33674D01*
X35571Y-33628D01*
X35585Y-33605D01*
X35571Y-33514D02*
X35771Y-33468D01*
X35628Y-33422D01*
X35771Y-33377D01*
X35571Y-33331D01*
X35771Y-33137D02*
X35614Y-33137D01*
X35585Y-33148D01*
X35571Y-33171D01*
X35571Y-33217D01*
X35585Y-33239D01*
X35757Y-33137D02*
X35771Y-33159D01*
X35771Y-33217D01*
X35757Y-33239D01*
X35728Y-33251D01*
X35700Y-33251D01*
X35671Y-33239D01*
X35657Y-33217D01*
X35657Y-33159D01*
X35642Y-33137D01*
X35771Y-33022D02*
X35571Y-33022D01*
X35628Y-33022D02*
X35600Y-33011D01*
X35585Y-32999D01*
X35571Y-32977D01*
X35571Y-32954D01*
X35757Y-32782D02*
X35771Y-32805D01*
X35771Y-32851D01*
X35757Y-32874D01*
X35728Y-32885D01*
X35614Y-32885D01*
X35585Y-32874D01*
X35571Y-32851D01*
X35571Y-32805D01*
X35585Y-32782D01*
X35614Y-32771D01*
X35642Y-32771D01*
X35671Y-32885D01*
X54641Y-11500D02*
X54925Y-11500D01*
X54958Y-11483D01*
X54975Y-11466D01*
X54991Y-11433D01*
X54991Y-11366D01*
X54975Y-11333D01*
X54958Y-11316D01*
X54925Y-11300D01*
X54641Y-11300D01*
X54791Y-11083D02*
X54775Y-11116D01*
X54758Y-11133D01*
X54725Y-11150D01*
X54708Y-11150D01*
X54675Y-11133D01*
X54658Y-11116D01*
X54641Y-11083D01*
X54641Y-11016D01*
X54658Y-10983D01*
X54675Y-10966D01*
X54708Y-10950D01*
X54725Y-10950D01*
X54758Y-10966D01*
X54775Y-10983D01*
X54791Y-11016D01*
X54791Y-11083D01*
X54808Y-11116D01*
X54825Y-11133D01*
X54858Y-11150D01*
X54925Y-11150D01*
X54958Y-11133D01*
X54975Y-11116D01*
X54991Y-11083D01*
X54991Y-11016D01*
X54975Y-10983D01*
X54958Y-10966D01*
X54925Y-10950D01*
X54858Y-10950D01*
X54825Y-10966D01*
X54808Y-10983D01*
X54791Y-11016D01*
X54641Y-10733D02*
X54641Y-10700D01*
X54658Y-10666D01*
X54675Y-10650D01*
X54708Y-10633D01*
X54775Y-10616D01*
X54858Y-10616D01*
X54925Y-10633D01*
X54958Y-10650D01*
X54975Y-10666D01*
X54991Y-10700D01*
X54991Y-10733D01*
X54975Y-10766D01*
X54958Y-10783D01*
X54925Y-10800D01*
X54858Y-10816D01*
X54775Y-10816D01*
X54708Y-10800D01*
X54675Y-10783D01*
X54658Y-10766D01*
X54641Y-10733D01*
X54791Y-10416D02*
X54775Y-10450D01*
X54758Y-10466D01*
X54725Y-10483D01*
X54708Y-10483D01*
X54675Y-10466D01*
X54658Y-10450D01*
X54641Y-10416D01*
X54641Y-10350D01*
X54658Y-10316D01*
X54675Y-10300D01*
X54708Y-10283D01*
X54725Y-10283D01*
X54758Y-10300D01*
X54775Y-10316D01*
X54791Y-10350D01*
X54791Y-10416D01*
X54808Y-10450D01*
X54825Y-10466D01*
X54858Y-10483D01*
X54925Y-10483D01*
X54958Y-10466D01*
X54975Y-10450D01*
X54991Y-10416D01*
X54991Y-10350D01*
X54975Y-10316D01*
X54958Y-10300D01*
X54925Y-10283D01*
X54858Y-10283D01*
X54825Y-10300D01*
X54808Y-10316D01*
X54791Y-10350D01*
G54D10*
X56461Y-11764D02*
X56461Y-11935D01*
X56461Y-11850D02*
X56161Y-11850D01*
X56204Y-11878D01*
X56232Y-11907D01*
X56247Y-11935D01*
G54D15*
X49391Y-11500D02*
X49675Y-11500D01*
X49708Y-11483D01*
X49725Y-11466D01*
X49741Y-11433D01*
X49741Y-11366D01*
X49725Y-11333D01*
X49708Y-11316D01*
X49675Y-11300D01*
X49391Y-11300D01*
X49541Y-11083D02*
X49525Y-11116D01*
X49508Y-11133D01*
X49475Y-11150D01*
X49458Y-11150D01*
X49425Y-11133D01*
X49408Y-11116D01*
X49391Y-11083D01*
X49391Y-11016D01*
X49408Y-10983D01*
X49425Y-10966D01*
X49458Y-10950D01*
X49475Y-10950D01*
X49508Y-10966D01*
X49525Y-10983D01*
X49541Y-11016D01*
X49541Y-11083D01*
X49558Y-11116D01*
X49575Y-11133D01*
X49608Y-11150D01*
X49675Y-11150D01*
X49708Y-11133D01*
X49725Y-11116D01*
X49741Y-11083D01*
X49741Y-11016D01*
X49725Y-10983D01*
X49708Y-10966D01*
X49675Y-10950D01*
X49608Y-10950D01*
X49575Y-10966D01*
X49558Y-10983D01*
X49541Y-11016D01*
X49391Y-10733D02*
X49391Y-10700D01*
X49408Y-10666D01*
X49425Y-10650D01*
X49458Y-10633D01*
X49525Y-10616D01*
X49608Y-10616D01*
X49675Y-10633D01*
X49708Y-10650D01*
X49725Y-10666D01*
X49741Y-10700D01*
X49741Y-10733D01*
X49725Y-10766D01*
X49708Y-10783D01*
X49675Y-10800D01*
X49608Y-10816D01*
X49525Y-10816D01*
X49458Y-10800D01*
X49425Y-10783D01*
X49408Y-10766D01*
X49391Y-10733D01*
X49391Y-10500D02*
X49391Y-10266D01*
X49741Y-10416D01*
G54D10*
X50461Y-11764D02*
X50461Y-11935D01*
X50461Y-11850D02*
X50161Y-11850D01*
X50204Y-11878D01*
X50232Y-11907D01*
X50247Y-11935D01*
G54D15*
X43391Y-11500D02*
X43675Y-11500D01*
X43708Y-11483D01*
X43725Y-11466D01*
X43741Y-11433D01*
X43741Y-11366D01*
X43725Y-11333D01*
X43708Y-11316D01*
X43675Y-11300D01*
X43391Y-11300D01*
X43541Y-11083D02*
X43525Y-11116D01*
X43508Y-11133D01*
X43475Y-11150D01*
X43458Y-11150D01*
X43425Y-11133D01*
X43408Y-11116D01*
X43391Y-11083D01*
X43391Y-11016D01*
X43408Y-10983D01*
X43425Y-10966D01*
X43458Y-10950D01*
X43475Y-10950D01*
X43508Y-10966D01*
X43525Y-10983D01*
X43541Y-11016D01*
X43541Y-11083D01*
X43558Y-11116D01*
X43575Y-11133D01*
X43608Y-11150D01*
X43675Y-11150D01*
X43708Y-11133D01*
X43725Y-11116D01*
X43741Y-11083D01*
X43741Y-11016D01*
X43725Y-10983D01*
X43708Y-10966D01*
X43675Y-10950D01*
X43608Y-10950D01*
X43575Y-10966D01*
X43558Y-10983D01*
X43541Y-11016D01*
X43391Y-10733D02*
X43391Y-10700D01*
X43408Y-10666D01*
X43425Y-10650D01*
X43458Y-10633D01*
X43525Y-10616D01*
X43608Y-10616D01*
X43675Y-10633D01*
X43708Y-10650D01*
X43725Y-10666D01*
X43741Y-10700D01*
X43741Y-10733D01*
X43725Y-10766D01*
X43708Y-10783D01*
X43675Y-10800D01*
X43608Y-10816D01*
X43525Y-10816D01*
X43458Y-10800D01*
X43425Y-10783D01*
X43408Y-10766D01*
X43391Y-10733D01*
X43391Y-10316D02*
X43391Y-10383D01*
X43408Y-10416D01*
X43425Y-10433D01*
X43475Y-10466D01*
X43541Y-10483D01*
X43675Y-10483D01*
X43708Y-10466D01*
X43725Y-10450D01*
X43741Y-10416D01*
X43741Y-10350D01*
X43725Y-10316D01*
X43708Y-10300D01*
X43675Y-10283D01*
X43591Y-10283D01*
X43558Y-10300D01*
X43541Y-10316D01*
X43525Y-10350D01*
X43525Y-10416D01*
X43541Y-10450D01*
X43558Y-10466D01*
X43591Y-10483D01*
G54D10*
X44461Y-11764D02*
X44461Y-11935D01*
X44461Y-11850D02*
X44161Y-11850D01*
X44204Y-11878D01*
X44232Y-11907D01*
X44247Y-11935D01*
G54D15*
X37391Y-11500D02*
X37675Y-11500D01*
X37708Y-11483D01*
X37725Y-11466D01*
X37741Y-11433D01*
X37741Y-11366D01*
X37725Y-11333D01*
X37708Y-11316D01*
X37675Y-11300D01*
X37391Y-11300D01*
X37541Y-11083D02*
X37525Y-11116D01*
X37508Y-11133D01*
X37475Y-11150D01*
X37458Y-11150D01*
X37425Y-11133D01*
X37408Y-11116D01*
X37391Y-11083D01*
X37391Y-11016D01*
X37408Y-10983D01*
X37425Y-10966D01*
X37458Y-10950D01*
X37475Y-10950D01*
X37508Y-10966D01*
X37525Y-10983D01*
X37541Y-11016D01*
X37541Y-11083D01*
X37558Y-11116D01*
X37575Y-11133D01*
X37608Y-11150D01*
X37675Y-11150D01*
X37708Y-11133D01*
X37725Y-11116D01*
X37741Y-11083D01*
X37741Y-11016D01*
X37725Y-10983D01*
X37708Y-10966D01*
X37675Y-10950D01*
X37608Y-10950D01*
X37575Y-10966D01*
X37558Y-10983D01*
X37541Y-11016D01*
X37391Y-10733D02*
X37391Y-10700D01*
X37408Y-10666D01*
X37425Y-10650D01*
X37458Y-10633D01*
X37525Y-10616D01*
X37608Y-10616D01*
X37675Y-10633D01*
X37708Y-10650D01*
X37725Y-10666D01*
X37741Y-10700D01*
X37741Y-10733D01*
X37725Y-10766D01*
X37708Y-10783D01*
X37675Y-10800D01*
X37608Y-10816D01*
X37525Y-10816D01*
X37458Y-10800D01*
X37425Y-10783D01*
X37408Y-10766D01*
X37391Y-10733D01*
X37391Y-10300D02*
X37391Y-10466D01*
X37558Y-10483D01*
X37541Y-10466D01*
X37525Y-10433D01*
X37525Y-10350D01*
X37541Y-10316D01*
X37558Y-10300D01*
X37591Y-10283D01*
X37675Y-10283D01*
X37708Y-10300D01*
X37725Y-10316D01*
X37741Y-10350D01*
X37741Y-10433D01*
X37725Y-10466D01*
X37708Y-10483D01*
G54D10*
X38461Y-11764D02*
X38461Y-11935D01*
X38461Y-11850D02*
X38161Y-11850D01*
X38204Y-11878D01*
X38232Y-11907D01*
X38247Y-11935D01*
G54D15*
X31391Y-11500D02*
X31675Y-11500D01*
X31708Y-11483D01*
X31725Y-11466D01*
X31741Y-11433D01*
X31741Y-11366D01*
X31725Y-11333D01*
X31708Y-11316D01*
X31675Y-11300D01*
X31391Y-11300D01*
X31541Y-11083D02*
X31525Y-11116D01*
X31508Y-11133D01*
X31475Y-11150D01*
X31458Y-11150D01*
X31425Y-11133D01*
X31408Y-11116D01*
X31391Y-11083D01*
X31391Y-11016D01*
X31408Y-10983D01*
X31425Y-10966D01*
X31458Y-10950D01*
X31475Y-10950D01*
X31508Y-10966D01*
X31525Y-10983D01*
X31541Y-11016D01*
X31541Y-11083D01*
X31558Y-11116D01*
X31575Y-11133D01*
X31608Y-11150D01*
X31675Y-11150D01*
X31708Y-11133D01*
X31725Y-11116D01*
X31741Y-11083D01*
X31741Y-11016D01*
X31725Y-10983D01*
X31708Y-10966D01*
X31675Y-10950D01*
X31608Y-10950D01*
X31575Y-10966D01*
X31558Y-10983D01*
X31541Y-11016D01*
X31391Y-10733D02*
X31391Y-10700D01*
X31408Y-10666D01*
X31425Y-10650D01*
X31458Y-10633D01*
X31525Y-10616D01*
X31608Y-10616D01*
X31675Y-10633D01*
X31708Y-10650D01*
X31725Y-10666D01*
X31741Y-10700D01*
X31741Y-10733D01*
X31725Y-10766D01*
X31708Y-10783D01*
X31675Y-10800D01*
X31608Y-10816D01*
X31525Y-10816D01*
X31458Y-10800D01*
X31425Y-10783D01*
X31408Y-10766D01*
X31391Y-10733D01*
X31508Y-10316D02*
X31741Y-10316D01*
X31375Y-10400D02*
X31625Y-10483D01*
X31625Y-10266D01*
G54D10*
X32461Y-11764D02*
X32461Y-11935D01*
X32461Y-11850D02*
X32161Y-11850D01*
X32204Y-11878D01*
X32232Y-11907D01*
X32247Y-11935D01*
G54D15*
X25391Y-11500D02*
X25675Y-11500D01*
X25708Y-11483D01*
X25725Y-11466D01*
X25741Y-11433D01*
X25741Y-11366D01*
X25725Y-11333D01*
X25708Y-11316D01*
X25675Y-11300D01*
X25391Y-11300D01*
X25541Y-11083D02*
X25525Y-11116D01*
X25508Y-11133D01*
X25475Y-11150D01*
X25458Y-11150D01*
X25425Y-11133D01*
X25408Y-11116D01*
X25391Y-11083D01*
X25391Y-11016D01*
X25408Y-10983D01*
X25425Y-10966D01*
X25458Y-10950D01*
X25475Y-10950D01*
X25508Y-10966D01*
X25525Y-10983D01*
X25541Y-11016D01*
X25541Y-11083D01*
X25558Y-11116D01*
X25575Y-11133D01*
X25608Y-11150D01*
X25675Y-11150D01*
X25708Y-11133D01*
X25725Y-11116D01*
X25741Y-11083D01*
X25741Y-11016D01*
X25725Y-10983D01*
X25708Y-10966D01*
X25675Y-10950D01*
X25608Y-10950D01*
X25575Y-10966D01*
X25558Y-10983D01*
X25541Y-11016D01*
X25391Y-10733D02*
X25391Y-10700D01*
X25408Y-10666D01*
X25425Y-10650D01*
X25458Y-10633D01*
X25525Y-10616D01*
X25608Y-10616D01*
X25675Y-10633D01*
X25708Y-10650D01*
X25725Y-10666D01*
X25741Y-10700D01*
X25741Y-10733D01*
X25725Y-10766D01*
X25708Y-10783D01*
X25675Y-10800D01*
X25608Y-10816D01*
X25525Y-10816D01*
X25458Y-10800D01*
X25425Y-10783D01*
X25408Y-10766D01*
X25391Y-10733D01*
X25391Y-10500D02*
X25391Y-10283D01*
X25525Y-10400D01*
X25525Y-10350D01*
X25541Y-10316D01*
X25558Y-10300D01*
X25591Y-10283D01*
X25675Y-10283D01*
X25708Y-10300D01*
X25725Y-10316D01*
X25741Y-10350D01*
X25741Y-10450D01*
X25725Y-10483D01*
X25708Y-10500D01*
G54D10*
X26461Y-11764D02*
X26461Y-11935D01*
X26461Y-11850D02*
X26161Y-11850D01*
X26204Y-11878D01*
X26232Y-11907D01*
X26247Y-11935D01*
G54D15*
X19391Y-11500D02*
X19675Y-11500D01*
X19708Y-11483D01*
X19725Y-11466D01*
X19741Y-11433D01*
X19741Y-11366D01*
X19725Y-11333D01*
X19708Y-11316D01*
X19675Y-11300D01*
X19391Y-11300D01*
X19541Y-11083D02*
X19525Y-11116D01*
X19508Y-11133D01*
X19475Y-11150D01*
X19458Y-11150D01*
X19425Y-11133D01*
X19408Y-11116D01*
X19391Y-11083D01*
X19391Y-11016D01*
X19408Y-10983D01*
X19425Y-10966D01*
X19458Y-10950D01*
X19475Y-10950D01*
X19508Y-10966D01*
X19525Y-10983D01*
X19541Y-11016D01*
X19541Y-11083D01*
X19558Y-11116D01*
X19575Y-11133D01*
X19608Y-11150D01*
X19675Y-11150D01*
X19708Y-11133D01*
X19725Y-11116D01*
X19741Y-11083D01*
X19741Y-11016D01*
X19725Y-10983D01*
X19708Y-10966D01*
X19675Y-10950D01*
X19608Y-10950D01*
X19575Y-10966D01*
X19558Y-10983D01*
X19541Y-11016D01*
X19391Y-10733D02*
X19391Y-10700D01*
X19408Y-10666D01*
X19425Y-10650D01*
X19458Y-10633D01*
X19525Y-10616D01*
X19608Y-10616D01*
X19675Y-10633D01*
X19708Y-10650D01*
X19725Y-10666D01*
X19741Y-10700D01*
X19741Y-10733D01*
X19725Y-10766D01*
X19708Y-10783D01*
X19675Y-10800D01*
X19608Y-10816D01*
X19525Y-10816D01*
X19458Y-10800D01*
X19425Y-10783D01*
X19408Y-10766D01*
X19391Y-10733D01*
X19425Y-10483D02*
X19408Y-10466D01*
X19391Y-10433D01*
X19391Y-10350D01*
X19408Y-10316D01*
X19425Y-10300D01*
X19458Y-10283D01*
X19491Y-10283D01*
X19541Y-10300D01*
X19741Y-10500D01*
X19741Y-10283D01*
G54D10*
X20461Y-11764D02*
X20461Y-11935D01*
X20461Y-11850D02*
X20161Y-11850D01*
X20204Y-11878D01*
X20232Y-11907D01*
X20247Y-11935D01*
G54D15*
X13541Y-11500D02*
X13825Y-11500D01*
X13858Y-11483D01*
X13875Y-11466D01*
X13891Y-11433D01*
X13891Y-11366D01*
X13875Y-11333D01*
X13858Y-11316D01*
X13825Y-11300D01*
X13541Y-11300D01*
X13691Y-11083D02*
X13675Y-11116D01*
X13658Y-11133D01*
X13625Y-11150D01*
X13608Y-11150D01*
X13575Y-11133D01*
X13558Y-11116D01*
X13541Y-11083D01*
X13541Y-11016D01*
X13558Y-10983D01*
X13575Y-10966D01*
X13608Y-10950D01*
X13625Y-10950D01*
X13658Y-10966D01*
X13675Y-10983D01*
X13691Y-11016D01*
X13691Y-11083D01*
X13708Y-11116D01*
X13725Y-11133D01*
X13758Y-11150D01*
X13825Y-11150D01*
X13858Y-11133D01*
X13875Y-11116D01*
X13891Y-11083D01*
X13891Y-11016D01*
X13875Y-10983D01*
X13858Y-10966D01*
X13825Y-10950D01*
X13758Y-10950D01*
X13725Y-10966D01*
X13708Y-10983D01*
X13691Y-11016D01*
X13541Y-10733D02*
X13541Y-10700D01*
X13558Y-10666D01*
X13575Y-10650D01*
X13608Y-10633D01*
X13675Y-10616D01*
X13758Y-10616D01*
X13825Y-10633D01*
X13858Y-10650D01*
X13875Y-10666D01*
X13891Y-10700D01*
X13891Y-10733D01*
X13875Y-10766D01*
X13858Y-10783D01*
X13825Y-10800D01*
X13758Y-10816D01*
X13675Y-10816D01*
X13608Y-10800D01*
X13575Y-10783D01*
X13558Y-10766D01*
X13541Y-10733D01*
X13891Y-10283D02*
X13891Y-10483D01*
X13891Y-10383D02*
X13541Y-10383D01*
X13591Y-10416D01*
X13625Y-10450D01*
X13641Y-10483D01*
G54D10*
X14461Y-11764D02*
X14461Y-11935D01*
X14461Y-11850D02*
X14161Y-11850D01*
X14204Y-11878D01*
X14232Y-11907D01*
X14247Y-11935D01*
G54D15*
X56141Y-17500D02*
X56425Y-17500D01*
X56458Y-17483D01*
X56475Y-17466D01*
X56491Y-17433D01*
X56491Y-17366D01*
X56475Y-17333D01*
X56458Y-17316D01*
X56425Y-17300D01*
X56141Y-17300D01*
X56141Y-17166D02*
X56141Y-16933D01*
X56491Y-17083D01*
X56141Y-16733D02*
X56141Y-16700D01*
X56158Y-16666D01*
X56175Y-16650D01*
X56208Y-16633D01*
X56275Y-16616D01*
X56358Y-16616D01*
X56425Y-16633D01*
X56458Y-16650D01*
X56475Y-16666D01*
X56491Y-16700D01*
X56491Y-16733D01*
X56475Y-16766D01*
X56458Y-16783D01*
X56425Y-16800D01*
X56358Y-16816D01*
X56275Y-16816D01*
X56208Y-16800D01*
X56175Y-16783D01*
X56158Y-16766D01*
X56141Y-16733D01*
X56291Y-16416D02*
X56275Y-16450D01*
X56258Y-16466D01*
X56225Y-16483D01*
X56208Y-16483D01*
X56175Y-16466D01*
X56158Y-16450D01*
X56141Y-16416D01*
X56141Y-16350D01*
X56158Y-16316D01*
X56175Y-16300D01*
X56208Y-16283D01*
X56225Y-16283D01*
X56258Y-16300D01*
X56275Y-16316D01*
X56291Y-16350D01*
X56291Y-16416D01*
X56308Y-16450D01*
X56325Y-16466D01*
X56358Y-16483D01*
X56425Y-16483D01*
X56458Y-16466D01*
X56475Y-16450D01*
X56491Y-16416D01*
X56491Y-16350D01*
X56475Y-16316D01*
X56458Y-16300D01*
X56425Y-16283D01*
X56358Y-16283D01*
X56325Y-16300D01*
X56308Y-16316D01*
X56291Y-16350D01*
G54D10*
X56461Y-17764D02*
X56461Y-17935D01*
X56461Y-17850D02*
X56161Y-17850D01*
X56204Y-17878D01*
X56232Y-17907D01*
X56247Y-17935D01*
G54D15*
X49391Y-17500D02*
X49675Y-17500D01*
X49708Y-17483D01*
X49725Y-17466D01*
X49741Y-17433D01*
X49741Y-17366D01*
X49725Y-17333D01*
X49708Y-17316D01*
X49675Y-17300D01*
X49391Y-17300D01*
X49391Y-17166D02*
X49391Y-16933D01*
X49741Y-17083D01*
X49391Y-16733D02*
X49391Y-16700D01*
X49408Y-16666D01*
X49425Y-16650D01*
X49458Y-16633D01*
X49525Y-16616D01*
X49608Y-16616D01*
X49675Y-16633D01*
X49708Y-16650D01*
X49725Y-16666D01*
X49741Y-16700D01*
X49741Y-16733D01*
X49725Y-16766D01*
X49708Y-16783D01*
X49675Y-16800D01*
X49608Y-16816D01*
X49525Y-16816D01*
X49458Y-16800D01*
X49425Y-16783D01*
X49408Y-16766D01*
X49391Y-16733D01*
X49391Y-16500D02*
X49391Y-16266D01*
X49741Y-16416D01*
G54D10*
X50461Y-17764D02*
X50461Y-17935D01*
X50461Y-17850D02*
X50161Y-17850D01*
X50204Y-17878D01*
X50232Y-17907D01*
X50247Y-17935D01*
G54D15*
X43391Y-17500D02*
X43675Y-17500D01*
X43708Y-17483D01*
X43725Y-17466D01*
X43741Y-17433D01*
X43741Y-17366D01*
X43725Y-17333D01*
X43708Y-17316D01*
X43675Y-17300D01*
X43391Y-17300D01*
X43391Y-17166D02*
X43391Y-16933D01*
X43741Y-17083D01*
X43391Y-16733D02*
X43391Y-16700D01*
X43408Y-16666D01*
X43425Y-16650D01*
X43458Y-16633D01*
X43525Y-16616D01*
X43608Y-16616D01*
X43675Y-16633D01*
X43708Y-16650D01*
X43725Y-16666D01*
X43741Y-16700D01*
X43741Y-16733D01*
X43725Y-16766D01*
X43708Y-16783D01*
X43675Y-16800D01*
X43608Y-16816D01*
X43525Y-16816D01*
X43458Y-16800D01*
X43425Y-16783D01*
X43408Y-16766D01*
X43391Y-16733D01*
X43391Y-16316D02*
X43391Y-16383D01*
X43408Y-16416D01*
X43425Y-16433D01*
X43475Y-16466D01*
X43541Y-16483D01*
X43675Y-16483D01*
X43708Y-16466D01*
X43725Y-16450D01*
X43741Y-16416D01*
X43741Y-16350D01*
X43725Y-16316D01*
X43708Y-16300D01*
X43675Y-16283D01*
X43591Y-16283D01*
X43558Y-16300D01*
X43541Y-16316D01*
X43525Y-16350D01*
X43525Y-16416D01*
X43541Y-16450D01*
X43558Y-16466D01*
X43591Y-16483D01*
G54D10*
X44461Y-17764D02*
X44461Y-17935D01*
X44461Y-17850D02*
X44161Y-17850D01*
X44204Y-17878D01*
X44232Y-17907D01*
X44247Y-17935D01*
G54D15*
X37391Y-17500D02*
X37675Y-17500D01*
X37708Y-17483D01*
X37725Y-17466D01*
X37741Y-17433D01*
X37741Y-17366D01*
X37725Y-17333D01*
X37708Y-17316D01*
X37675Y-17300D01*
X37391Y-17300D01*
X37391Y-17166D02*
X37391Y-16933D01*
X37741Y-17083D01*
X37391Y-16733D02*
X37391Y-16700D01*
X37408Y-16666D01*
X37425Y-16650D01*
X37458Y-16633D01*
X37525Y-16616D01*
X37608Y-16616D01*
X37675Y-16633D01*
X37708Y-16650D01*
X37725Y-16666D01*
X37741Y-16700D01*
X37741Y-16733D01*
X37725Y-16766D01*
X37708Y-16783D01*
X37675Y-16800D01*
X37608Y-16816D01*
X37525Y-16816D01*
X37458Y-16800D01*
X37425Y-16783D01*
X37408Y-16766D01*
X37391Y-16733D01*
X37391Y-16300D02*
X37391Y-16466D01*
X37558Y-16483D01*
X37541Y-16466D01*
X37525Y-16433D01*
X37525Y-16350D01*
X37541Y-16316D01*
X37558Y-16300D01*
X37591Y-16283D01*
X37675Y-16283D01*
X37708Y-16300D01*
X37725Y-16316D01*
X37741Y-16350D01*
X37741Y-16433D01*
X37725Y-16466D01*
X37708Y-16483D01*
G54D10*
X38461Y-17764D02*
X38461Y-17935D01*
X38461Y-17850D02*
X38161Y-17850D01*
X38204Y-17878D01*
X38232Y-17907D01*
X38247Y-17935D01*
G54D15*
X31391Y-17500D02*
X31675Y-17500D01*
X31708Y-17483D01*
X31725Y-17466D01*
X31741Y-17433D01*
X31741Y-17366D01*
X31725Y-17333D01*
X31708Y-17316D01*
X31675Y-17300D01*
X31391Y-17300D01*
X31391Y-17166D02*
X31391Y-16933D01*
X31741Y-17083D01*
X31391Y-16733D02*
X31391Y-16700D01*
X31408Y-16666D01*
X31425Y-16650D01*
X31458Y-16633D01*
X31525Y-16616D01*
X31608Y-16616D01*
X31675Y-16633D01*
X31708Y-16650D01*
X31725Y-16666D01*
X31741Y-16700D01*
X31741Y-16733D01*
X31725Y-16766D01*
X31708Y-16783D01*
X31675Y-16800D01*
X31608Y-16816D01*
X31525Y-16816D01*
X31458Y-16800D01*
X31425Y-16783D01*
X31408Y-16766D01*
X31391Y-16733D01*
X31508Y-16316D02*
X31741Y-16316D01*
X31375Y-16400D02*
X31625Y-16483D01*
X31625Y-16266D01*
G54D10*
X32461Y-17764D02*
X32461Y-17935D01*
X32461Y-17850D02*
X32161Y-17850D01*
X32204Y-17878D01*
X32232Y-17907D01*
X32247Y-17935D01*
G54D15*
X25391Y-17500D02*
X25675Y-17500D01*
X25708Y-17483D01*
X25725Y-17466D01*
X25741Y-17433D01*
X25741Y-17366D01*
X25725Y-17333D01*
X25708Y-17316D01*
X25675Y-17300D01*
X25391Y-17300D01*
X25391Y-17166D02*
X25391Y-16933D01*
X25741Y-17083D01*
X25391Y-16733D02*
X25391Y-16700D01*
X25408Y-16666D01*
X25425Y-16650D01*
X25458Y-16633D01*
X25525Y-16616D01*
X25608Y-16616D01*
X25675Y-16633D01*
X25708Y-16650D01*
X25725Y-16666D01*
X25741Y-16700D01*
X25741Y-16733D01*
X25725Y-16766D01*
X25708Y-16783D01*
X25675Y-16800D01*
X25608Y-16816D01*
X25525Y-16816D01*
X25458Y-16800D01*
X25425Y-16783D01*
X25408Y-16766D01*
X25391Y-16733D01*
X25391Y-16500D02*
X25391Y-16283D01*
X25525Y-16400D01*
X25525Y-16350D01*
X25541Y-16316D01*
X25558Y-16300D01*
X25591Y-16283D01*
X25675Y-16283D01*
X25708Y-16300D01*
X25725Y-16316D01*
X25741Y-16350D01*
X25741Y-16450D01*
X25725Y-16483D01*
X25708Y-16500D01*
G54D10*
X26461Y-17764D02*
X26461Y-17935D01*
X26461Y-17850D02*
X26161Y-17850D01*
X26204Y-17878D01*
X26232Y-17907D01*
X26247Y-17935D01*
G54D15*
X19391Y-17500D02*
X19675Y-17500D01*
X19708Y-17483D01*
X19725Y-17466D01*
X19741Y-17433D01*
X19741Y-17366D01*
X19725Y-17333D01*
X19708Y-17316D01*
X19675Y-17300D01*
X19391Y-17300D01*
X19391Y-17166D02*
X19391Y-16933D01*
X19741Y-17083D01*
X19391Y-16733D02*
X19391Y-16700D01*
X19408Y-16666D01*
X19425Y-16650D01*
X19458Y-16633D01*
X19525Y-16616D01*
X19608Y-16616D01*
X19675Y-16633D01*
X19708Y-16650D01*
X19725Y-16666D01*
X19741Y-16700D01*
X19741Y-16733D01*
X19725Y-16766D01*
X19708Y-16783D01*
X19675Y-16800D01*
X19608Y-16816D01*
X19525Y-16816D01*
X19458Y-16800D01*
X19425Y-16783D01*
X19408Y-16766D01*
X19391Y-16733D01*
X19425Y-16483D02*
X19408Y-16466D01*
X19391Y-16433D01*
X19391Y-16350D01*
X19408Y-16316D01*
X19425Y-16300D01*
X19458Y-16283D01*
X19491Y-16283D01*
X19541Y-16300D01*
X19741Y-16500D01*
X19741Y-16283D01*
G54D10*
X20461Y-17764D02*
X20461Y-17935D01*
X20461Y-17850D02*
X20161Y-17850D01*
X20204Y-17878D01*
X20232Y-17907D01*
X20247Y-17935D01*
G54D15*
X13541Y-17500D02*
X13825Y-17500D01*
X13858Y-17483D01*
X13875Y-17466D01*
X13891Y-17433D01*
X13891Y-17366D01*
X13875Y-17333D01*
X13858Y-17316D01*
X13825Y-17300D01*
X13541Y-17300D01*
X13541Y-17166D02*
X13541Y-16933D01*
X13891Y-17083D01*
X13541Y-16733D02*
X13541Y-16700D01*
X13558Y-16666D01*
X13575Y-16650D01*
X13608Y-16633D01*
X13675Y-16616D01*
X13758Y-16616D01*
X13825Y-16633D01*
X13858Y-16650D01*
X13875Y-16666D01*
X13891Y-16700D01*
X13891Y-16733D01*
X13875Y-16766D01*
X13858Y-16783D01*
X13825Y-16800D01*
X13758Y-16816D01*
X13675Y-16816D01*
X13608Y-16800D01*
X13575Y-16783D01*
X13558Y-16766D01*
X13541Y-16733D01*
X13891Y-16283D02*
X13891Y-16483D01*
X13891Y-16383D02*
X13541Y-16383D01*
X13591Y-16416D01*
X13625Y-16450D01*
X13641Y-16483D01*
G54D10*
X14461Y-17764D02*
X14461Y-17935D01*
X14461Y-17850D02*
X14161Y-17850D01*
X14204Y-17878D01*
X14232Y-17907D01*
X14247Y-17935D01*
G54D15*
X56141Y-23500D02*
X56425Y-23500D01*
X56458Y-23483D01*
X56475Y-23466D01*
X56491Y-23433D01*
X56491Y-23366D01*
X56475Y-23333D01*
X56458Y-23316D01*
X56425Y-23300D01*
X56141Y-23300D01*
X56141Y-22983D02*
X56141Y-23050D01*
X56158Y-23083D01*
X56175Y-23100D01*
X56225Y-23133D01*
X56291Y-23150D01*
X56425Y-23150D01*
X56458Y-23133D01*
X56475Y-23116D01*
X56491Y-23083D01*
X56491Y-23016D01*
X56475Y-22983D01*
X56458Y-22966D01*
X56425Y-22950D01*
X56341Y-22950D01*
X56308Y-22966D01*
X56291Y-22983D01*
X56275Y-23016D01*
X56275Y-23083D01*
X56291Y-23116D01*
X56308Y-23133D01*
X56341Y-23150D01*
X56141Y-22733D02*
X56141Y-22700D01*
X56158Y-22666D01*
X56175Y-22650D01*
X56208Y-22633D01*
X56275Y-22616D01*
X56358Y-22616D01*
X56425Y-22633D01*
X56458Y-22650D01*
X56475Y-22666D01*
X56491Y-22700D01*
X56491Y-22733D01*
X56475Y-22766D01*
X56458Y-22783D01*
X56425Y-22800D01*
X56358Y-22816D01*
X56275Y-22816D01*
X56208Y-22800D01*
X56175Y-22783D01*
X56158Y-22766D01*
X56141Y-22733D01*
X56291Y-22416D02*
X56275Y-22450D01*
X56258Y-22466D01*
X56225Y-22483D01*
X56208Y-22483D01*
X56175Y-22466D01*
X56158Y-22450D01*
X56141Y-22416D01*
X56141Y-22350D01*
X56158Y-22316D01*
X56175Y-22300D01*
X56208Y-22283D01*
X56225Y-22283D01*
X56258Y-22300D01*
X56275Y-22316D01*
X56291Y-22350D01*
X56291Y-22416D01*
X56308Y-22450D01*
X56325Y-22466D01*
X56358Y-22483D01*
X56425Y-22483D01*
X56458Y-22466D01*
X56475Y-22450D01*
X56491Y-22416D01*
X56491Y-22350D01*
X56475Y-22316D01*
X56458Y-22300D01*
X56425Y-22283D01*
X56358Y-22283D01*
X56325Y-22300D01*
X56308Y-22316D01*
X56291Y-22350D01*
G54D10*
X56461Y-23764D02*
X56461Y-23935D01*
X56461Y-23850D02*
X56161Y-23850D01*
X56204Y-23878D01*
X56232Y-23907D01*
X56247Y-23935D01*
G54D15*
X49391Y-23500D02*
X49675Y-23500D01*
X49708Y-23483D01*
X49725Y-23466D01*
X49741Y-23433D01*
X49741Y-23366D01*
X49725Y-23333D01*
X49708Y-23316D01*
X49675Y-23300D01*
X49391Y-23300D01*
X49391Y-22983D02*
X49391Y-23050D01*
X49408Y-23083D01*
X49425Y-23100D01*
X49475Y-23133D01*
X49541Y-23150D01*
X49675Y-23150D01*
X49708Y-23133D01*
X49725Y-23116D01*
X49741Y-23083D01*
X49741Y-23016D01*
X49725Y-22983D01*
X49708Y-22966D01*
X49675Y-22950D01*
X49591Y-22950D01*
X49558Y-22966D01*
X49541Y-22983D01*
X49525Y-23016D01*
X49525Y-23083D01*
X49541Y-23116D01*
X49558Y-23133D01*
X49591Y-23150D01*
X49391Y-22733D02*
X49391Y-22700D01*
X49408Y-22666D01*
X49425Y-22650D01*
X49458Y-22633D01*
X49525Y-22616D01*
X49608Y-22616D01*
X49675Y-22633D01*
X49708Y-22650D01*
X49725Y-22666D01*
X49741Y-22700D01*
X49741Y-22733D01*
X49725Y-22766D01*
X49708Y-22783D01*
X49675Y-22800D01*
X49608Y-22816D01*
X49525Y-22816D01*
X49458Y-22800D01*
X49425Y-22783D01*
X49408Y-22766D01*
X49391Y-22733D01*
X49391Y-22500D02*
X49391Y-22266D01*
X49741Y-22416D01*
G54D10*
X50461Y-23764D02*
X50461Y-23935D01*
X50461Y-23850D02*
X50161Y-23850D01*
X50204Y-23878D01*
X50232Y-23907D01*
X50247Y-23935D01*
G54D15*
X43391Y-23500D02*
X43675Y-23500D01*
X43708Y-23483D01*
X43725Y-23466D01*
X43741Y-23433D01*
X43741Y-23366D01*
X43725Y-23333D01*
X43708Y-23316D01*
X43675Y-23300D01*
X43391Y-23300D01*
X43391Y-22983D02*
X43391Y-23050D01*
X43408Y-23083D01*
X43425Y-23100D01*
X43475Y-23133D01*
X43541Y-23150D01*
X43675Y-23150D01*
X43708Y-23133D01*
X43725Y-23116D01*
X43741Y-23083D01*
X43741Y-23016D01*
X43725Y-22983D01*
X43708Y-22966D01*
X43675Y-22950D01*
X43591Y-22950D01*
X43558Y-22966D01*
X43541Y-22983D01*
X43525Y-23016D01*
X43525Y-23083D01*
X43541Y-23116D01*
X43558Y-23133D01*
X43591Y-23150D01*
X43391Y-22733D02*
X43391Y-22700D01*
X43408Y-22666D01*
X43425Y-22650D01*
X43458Y-22633D01*
X43525Y-22616D01*
X43608Y-22616D01*
X43675Y-22633D01*
X43708Y-22650D01*
X43725Y-22666D01*
X43741Y-22700D01*
X43741Y-22733D01*
X43725Y-22766D01*
X43708Y-22783D01*
X43675Y-22800D01*
X43608Y-22816D01*
X43525Y-22816D01*
X43458Y-22800D01*
X43425Y-22783D01*
X43408Y-22766D01*
X43391Y-22733D01*
X43391Y-22316D02*
X43391Y-22383D01*
X43408Y-22416D01*
X43425Y-22433D01*
X43475Y-22466D01*
X43541Y-22483D01*
X43675Y-22483D01*
X43708Y-22466D01*
X43725Y-22450D01*
X43741Y-22416D01*
X43741Y-22350D01*
X43725Y-22316D01*
X43708Y-22300D01*
X43675Y-22283D01*
X43591Y-22283D01*
X43558Y-22300D01*
X43541Y-22316D01*
X43525Y-22350D01*
X43525Y-22416D01*
X43541Y-22450D01*
X43558Y-22466D01*
X43591Y-22483D01*
G54D10*
X44461Y-23764D02*
X44461Y-23935D01*
X44461Y-23850D02*
X44161Y-23850D01*
X44204Y-23878D01*
X44232Y-23907D01*
X44247Y-23935D01*
G54D15*
X37391Y-23500D02*
X37675Y-23500D01*
X37708Y-23483D01*
X37725Y-23466D01*
X37741Y-23433D01*
X37741Y-23366D01*
X37725Y-23333D01*
X37708Y-23316D01*
X37675Y-23300D01*
X37391Y-23300D01*
X37391Y-22983D02*
X37391Y-23050D01*
X37408Y-23083D01*
X37425Y-23100D01*
X37475Y-23133D01*
X37541Y-23150D01*
X37675Y-23150D01*
X37708Y-23133D01*
X37725Y-23116D01*
X37741Y-23083D01*
X37741Y-23016D01*
X37725Y-22983D01*
X37708Y-22966D01*
X37675Y-22950D01*
X37591Y-22950D01*
X37558Y-22966D01*
X37541Y-22983D01*
X37525Y-23016D01*
X37525Y-23083D01*
X37541Y-23116D01*
X37558Y-23133D01*
X37591Y-23150D01*
X37391Y-22733D02*
X37391Y-22700D01*
X37408Y-22666D01*
X37425Y-22650D01*
X37458Y-22633D01*
X37525Y-22616D01*
X37608Y-22616D01*
X37675Y-22633D01*
X37708Y-22650D01*
X37725Y-22666D01*
X37741Y-22700D01*
X37741Y-22733D01*
X37725Y-22766D01*
X37708Y-22783D01*
X37675Y-22800D01*
X37608Y-22816D01*
X37525Y-22816D01*
X37458Y-22800D01*
X37425Y-22783D01*
X37408Y-22766D01*
X37391Y-22733D01*
X37391Y-22300D02*
X37391Y-22466D01*
X37558Y-22483D01*
X37541Y-22466D01*
X37525Y-22433D01*
X37525Y-22350D01*
X37541Y-22316D01*
X37558Y-22300D01*
X37591Y-22283D01*
X37675Y-22283D01*
X37708Y-22300D01*
X37725Y-22316D01*
X37741Y-22350D01*
X37741Y-22433D01*
X37725Y-22466D01*
X37708Y-22483D01*
G54D10*
X38461Y-23764D02*
X38461Y-23935D01*
X38461Y-23850D02*
X38161Y-23850D01*
X38204Y-23878D01*
X38232Y-23907D01*
X38247Y-23935D01*
G54D15*
X31391Y-23500D02*
X31675Y-23500D01*
X31708Y-23483D01*
X31725Y-23466D01*
X31741Y-23433D01*
X31741Y-23366D01*
X31725Y-23333D01*
X31708Y-23316D01*
X31675Y-23300D01*
X31391Y-23300D01*
X31391Y-22983D02*
X31391Y-23050D01*
X31408Y-23083D01*
X31425Y-23100D01*
X31475Y-23133D01*
X31541Y-23150D01*
X31675Y-23150D01*
X31708Y-23133D01*
X31725Y-23116D01*
X31741Y-23083D01*
X31741Y-23016D01*
X31725Y-22983D01*
X31708Y-22966D01*
X31675Y-22950D01*
X31591Y-22950D01*
X31558Y-22966D01*
X31541Y-22983D01*
X31525Y-23016D01*
X31525Y-23083D01*
X31541Y-23116D01*
X31558Y-23133D01*
X31591Y-23150D01*
X31391Y-22733D02*
X31391Y-22700D01*
X31408Y-22666D01*
X31425Y-22650D01*
X31458Y-22633D01*
X31525Y-22616D01*
X31608Y-22616D01*
X31675Y-22633D01*
X31708Y-22650D01*
X31725Y-22666D01*
X31741Y-22700D01*
X31741Y-22733D01*
X31725Y-22766D01*
X31708Y-22783D01*
X31675Y-22800D01*
X31608Y-22816D01*
X31525Y-22816D01*
X31458Y-22800D01*
X31425Y-22783D01*
X31408Y-22766D01*
X31391Y-22733D01*
X31508Y-22316D02*
X31741Y-22316D01*
X31375Y-22400D02*
X31625Y-22483D01*
X31625Y-22266D01*
G54D10*
X32461Y-23764D02*
X32461Y-23935D01*
X32461Y-23850D02*
X32161Y-23850D01*
X32204Y-23878D01*
X32232Y-23907D01*
X32247Y-23935D01*
G54D15*
X25391Y-23500D02*
X25675Y-23500D01*
X25708Y-23483D01*
X25725Y-23466D01*
X25741Y-23433D01*
X25741Y-23366D01*
X25725Y-23333D01*
X25708Y-23316D01*
X25675Y-23300D01*
X25391Y-23300D01*
X25391Y-22983D02*
X25391Y-23050D01*
X25408Y-23083D01*
X25425Y-23100D01*
X25475Y-23133D01*
X25541Y-23150D01*
X25675Y-23150D01*
X25708Y-23133D01*
X25725Y-23116D01*
X25741Y-23083D01*
X25741Y-23016D01*
X25725Y-22983D01*
X25708Y-22966D01*
X25675Y-22950D01*
X25591Y-22950D01*
X25558Y-22966D01*
X25541Y-22983D01*
X25525Y-23016D01*
X25525Y-23083D01*
X25541Y-23116D01*
X25558Y-23133D01*
X25591Y-23150D01*
X25391Y-22733D02*
X25391Y-22700D01*
X25408Y-22666D01*
X25425Y-22650D01*
X25458Y-22633D01*
X25525Y-22616D01*
X25608Y-22616D01*
X25675Y-22633D01*
X25708Y-22650D01*
X25725Y-22666D01*
X25741Y-22700D01*
X25741Y-22733D01*
X25725Y-22766D01*
X25708Y-22783D01*
X25675Y-22800D01*
X25608Y-22816D01*
X25525Y-22816D01*
X25458Y-22800D01*
X25425Y-22783D01*
X25408Y-22766D01*
X25391Y-22733D01*
X25391Y-22500D02*
X25391Y-22283D01*
X25525Y-22400D01*
X25525Y-22350D01*
X25541Y-22316D01*
X25558Y-22300D01*
X25591Y-22283D01*
X25675Y-22283D01*
X25708Y-22300D01*
X25725Y-22316D01*
X25741Y-22350D01*
X25741Y-22450D01*
X25725Y-22483D01*
X25708Y-22500D01*
G54D10*
X26461Y-23764D02*
X26461Y-23935D01*
X26461Y-23850D02*
X26161Y-23850D01*
X26204Y-23878D01*
X26232Y-23907D01*
X26247Y-23935D01*
G54D15*
X19391Y-23500D02*
X19675Y-23500D01*
X19708Y-23483D01*
X19725Y-23466D01*
X19741Y-23433D01*
X19741Y-23366D01*
X19725Y-23333D01*
X19708Y-23316D01*
X19675Y-23300D01*
X19391Y-23300D01*
X19391Y-22983D02*
X19391Y-23050D01*
X19408Y-23083D01*
X19425Y-23100D01*
X19475Y-23133D01*
X19541Y-23150D01*
X19675Y-23150D01*
X19708Y-23133D01*
X19725Y-23116D01*
X19741Y-23083D01*
X19741Y-23016D01*
X19725Y-22983D01*
X19708Y-22966D01*
X19675Y-22950D01*
X19591Y-22950D01*
X19558Y-22966D01*
X19541Y-22983D01*
X19525Y-23016D01*
X19525Y-23083D01*
X19541Y-23116D01*
X19558Y-23133D01*
X19591Y-23150D01*
X19391Y-22733D02*
X19391Y-22700D01*
X19408Y-22666D01*
X19425Y-22650D01*
X19458Y-22633D01*
X19525Y-22616D01*
X19608Y-22616D01*
X19675Y-22633D01*
X19708Y-22650D01*
X19725Y-22666D01*
X19741Y-22700D01*
X19741Y-22733D01*
X19725Y-22766D01*
X19708Y-22783D01*
X19675Y-22800D01*
X19608Y-22816D01*
X19525Y-22816D01*
X19458Y-22800D01*
X19425Y-22783D01*
X19408Y-22766D01*
X19391Y-22733D01*
X19425Y-22483D02*
X19408Y-22466D01*
X19391Y-22433D01*
X19391Y-22350D01*
X19408Y-22316D01*
X19425Y-22300D01*
X19458Y-22283D01*
X19491Y-22283D01*
X19541Y-22300D01*
X19741Y-22500D01*
X19741Y-22283D01*
G54D10*
X20461Y-23764D02*
X20461Y-23935D01*
X20461Y-23850D02*
X20161Y-23850D01*
X20204Y-23878D01*
X20232Y-23907D01*
X20247Y-23935D01*
G54D15*
X13541Y-23500D02*
X13825Y-23500D01*
X13858Y-23483D01*
X13875Y-23466D01*
X13891Y-23433D01*
X13891Y-23366D01*
X13875Y-23333D01*
X13858Y-23316D01*
X13825Y-23300D01*
X13541Y-23300D01*
X13541Y-22983D02*
X13541Y-23050D01*
X13558Y-23083D01*
X13575Y-23100D01*
X13625Y-23133D01*
X13691Y-23150D01*
X13825Y-23150D01*
X13858Y-23133D01*
X13875Y-23116D01*
X13891Y-23083D01*
X13891Y-23016D01*
X13875Y-22983D01*
X13858Y-22966D01*
X13825Y-22950D01*
X13741Y-22950D01*
X13708Y-22966D01*
X13691Y-22983D01*
X13675Y-23016D01*
X13675Y-23083D01*
X13691Y-23116D01*
X13708Y-23133D01*
X13741Y-23150D01*
X13541Y-22733D02*
X13541Y-22700D01*
X13558Y-22666D01*
X13575Y-22650D01*
X13608Y-22633D01*
X13675Y-22616D01*
X13758Y-22616D01*
X13825Y-22633D01*
X13858Y-22650D01*
X13875Y-22666D01*
X13891Y-22700D01*
X13891Y-22733D01*
X13875Y-22766D01*
X13858Y-22783D01*
X13825Y-22800D01*
X13758Y-22816D01*
X13675Y-22816D01*
X13608Y-22800D01*
X13575Y-22783D01*
X13558Y-22766D01*
X13541Y-22733D01*
X13891Y-22283D02*
X13891Y-22483D01*
X13891Y-22383D02*
X13541Y-22383D01*
X13591Y-22416D01*
X13625Y-22450D01*
X13641Y-22483D01*
G54D10*
X14461Y-23764D02*
X14461Y-23935D01*
X14461Y-23850D02*
X14161Y-23850D01*
X14204Y-23878D01*
X14232Y-23907D01*
X14247Y-23935D01*
G54D15*
X56141Y-29500D02*
X56425Y-29500D01*
X56458Y-29483D01*
X56475Y-29466D01*
X56491Y-29433D01*
X56491Y-29366D01*
X56475Y-29333D01*
X56458Y-29316D01*
X56425Y-29300D01*
X56141Y-29300D01*
X56141Y-28966D02*
X56141Y-29133D01*
X56308Y-29150D01*
X56291Y-29133D01*
X56275Y-29100D01*
X56275Y-29016D01*
X56291Y-28983D01*
X56308Y-28966D01*
X56341Y-28950D01*
X56425Y-28950D01*
X56458Y-28966D01*
X56475Y-28983D01*
X56491Y-29016D01*
X56491Y-29100D01*
X56475Y-29133D01*
X56458Y-29150D01*
X56141Y-28733D02*
X56141Y-28700D01*
X56158Y-28666D01*
X56175Y-28650D01*
X56208Y-28633D01*
X56275Y-28616D01*
X56358Y-28616D01*
X56425Y-28633D01*
X56458Y-28650D01*
X56475Y-28666D01*
X56491Y-28700D01*
X56491Y-28733D01*
X56475Y-28766D01*
X56458Y-28783D01*
X56425Y-28800D01*
X56358Y-28816D01*
X56275Y-28816D01*
X56208Y-28800D01*
X56175Y-28783D01*
X56158Y-28766D01*
X56141Y-28733D01*
X56291Y-28416D02*
X56275Y-28450D01*
X56258Y-28466D01*
X56225Y-28483D01*
X56208Y-28483D01*
X56175Y-28466D01*
X56158Y-28450D01*
X56141Y-28416D01*
X56141Y-28350D01*
X56158Y-28316D01*
X56175Y-28300D01*
X56208Y-28283D01*
X56225Y-28283D01*
X56258Y-28300D01*
X56275Y-28316D01*
X56291Y-28350D01*
X56291Y-28416D01*
X56308Y-28450D01*
X56325Y-28466D01*
X56358Y-28483D01*
X56425Y-28483D01*
X56458Y-28466D01*
X56475Y-28450D01*
X56491Y-28416D01*
X56491Y-28350D01*
X56475Y-28316D01*
X56458Y-28300D01*
X56425Y-28283D01*
X56358Y-28283D01*
X56325Y-28300D01*
X56308Y-28316D01*
X56291Y-28350D01*
G54D10*
X56461Y-29764D02*
X56461Y-29935D01*
X56461Y-29850D02*
X56161Y-29850D01*
X56204Y-29878D01*
X56232Y-29907D01*
X56247Y-29935D01*
G54D15*
X49391Y-29500D02*
X49675Y-29500D01*
X49708Y-29483D01*
X49725Y-29466D01*
X49741Y-29433D01*
X49741Y-29366D01*
X49725Y-29333D01*
X49708Y-29316D01*
X49675Y-29300D01*
X49391Y-29300D01*
X49391Y-28966D02*
X49391Y-29133D01*
X49558Y-29150D01*
X49541Y-29133D01*
X49525Y-29100D01*
X49525Y-29016D01*
X49541Y-28983D01*
X49558Y-28966D01*
X49591Y-28950D01*
X49675Y-28950D01*
X49708Y-28966D01*
X49725Y-28983D01*
X49741Y-29016D01*
X49741Y-29100D01*
X49725Y-29133D01*
X49708Y-29150D01*
X49391Y-28733D02*
X49391Y-28700D01*
X49408Y-28666D01*
X49425Y-28650D01*
X49458Y-28633D01*
X49525Y-28616D01*
X49608Y-28616D01*
X49675Y-28633D01*
X49708Y-28650D01*
X49725Y-28666D01*
X49741Y-28700D01*
X49741Y-28733D01*
X49725Y-28766D01*
X49708Y-28783D01*
X49675Y-28800D01*
X49608Y-28816D01*
X49525Y-28816D01*
X49458Y-28800D01*
X49425Y-28783D01*
X49408Y-28766D01*
X49391Y-28733D01*
X49391Y-28500D02*
X49391Y-28266D01*
X49741Y-28416D01*
G54D10*
X50461Y-29764D02*
X50461Y-29935D01*
X50461Y-29850D02*
X50161Y-29850D01*
X50204Y-29878D01*
X50232Y-29907D01*
X50247Y-29935D01*
G54D15*
X43391Y-29500D02*
X43675Y-29500D01*
X43708Y-29483D01*
X43725Y-29466D01*
X43741Y-29433D01*
X43741Y-29366D01*
X43725Y-29333D01*
X43708Y-29316D01*
X43675Y-29300D01*
X43391Y-29300D01*
X43391Y-28966D02*
X43391Y-29133D01*
X43558Y-29150D01*
X43541Y-29133D01*
X43525Y-29100D01*
X43525Y-29016D01*
X43541Y-28983D01*
X43558Y-28966D01*
X43591Y-28950D01*
X43675Y-28950D01*
X43708Y-28966D01*
X43725Y-28983D01*
X43741Y-29016D01*
X43741Y-29100D01*
X43725Y-29133D01*
X43708Y-29150D01*
X43391Y-28733D02*
X43391Y-28700D01*
X43408Y-28666D01*
X43425Y-28650D01*
X43458Y-28633D01*
X43525Y-28616D01*
X43608Y-28616D01*
X43675Y-28633D01*
X43708Y-28650D01*
X43725Y-28666D01*
X43741Y-28700D01*
X43741Y-28733D01*
X43725Y-28766D01*
X43708Y-28783D01*
X43675Y-28800D01*
X43608Y-28816D01*
X43525Y-28816D01*
X43458Y-28800D01*
X43425Y-28783D01*
X43408Y-28766D01*
X43391Y-28733D01*
X43391Y-28316D02*
X43391Y-28383D01*
X43408Y-28416D01*
X43425Y-28433D01*
X43475Y-28466D01*
X43541Y-28483D01*
X43675Y-28483D01*
X43708Y-28466D01*
X43725Y-28450D01*
X43741Y-28416D01*
X43741Y-28350D01*
X43725Y-28316D01*
X43708Y-28300D01*
X43675Y-28283D01*
X43591Y-28283D01*
X43558Y-28300D01*
X43541Y-28316D01*
X43525Y-28350D01*
X43525Y-28416D01*
X43541Y-28450D01*
X43558Y-28466D01*
X43591Y-28483D01*
G54D10*
X44461Y-29764D02*
X44461Y-29935D01*
X44461Y-29850D02*
X44161Y-29850D01*
X44204Y-29878D01*
X44232Y-29907D01*
X44247Y-29935D01*
G54D15*
X37391Y-29500D02*
X37675Y-29500D01*
X37708Y-29483D01*
X37725Y-29466D01*
X37741Y-29433D01*
X37741Y-29366D01*
X37725Y-29333D01*
X37708Y-29316D01*
X37675Y-29300D01*
X37391Y-29300D01*
X37391Y-28966D02*
X37391Y-29133D01*
X37558Y-29150D01*
X37541Y-29133D01*
X37525Y-29100D01*
X37525Y-29016D01*
X37541Y-28983D01*
X37558Y-28966D01*
X37591Y-28950D01*
X37675Y-28950D01*
X37708Y-28966D01*
X37725Y-28983D01*
X37741Y-29016D01*
X37741Y-29100D01*
X37725Y-29133D01*
X37708Y-29150D01*
X37391Y-28733D02*
X37391Y-28700D01*
X37408Y-28666D01*
X37425Y-28650D01*
X37458Y-28633D01*
X37525Y-28616D01*
X37608Y-28616D01*
X37675Y-28633D01*
X37708Y-28650D01*
X37725Y-28666D01*
X37741Y-28700D01*
X37741Y-28733D01*
X37725Y-28766D01*
X37708Y-28783D01*
X37675Y-28800D01*
X37608Y-28816D01*
X37525Y-28816D01*
X37458Y-28800D01*
X37425Y-28783D01*
X37408Y-28766D01*
X37391Y-28733D01*
X37391Y-28300D02*
X37391Y-28466D01*
X37558Y-28483D01*
X37541Y-28466D01*
X37525Y-28433D01*
X37525Y-28350D01*
X37541Y-28316D01*
X37558Y-28300D01*
X37591Y-28283D01*
X37675Y-28283D01*
X37708Y-28300D01*
X37725Y-28316D01*
X37741Y-28350D01*
X37741Y-28433D01*
X37725Y-28466D01*
X37708Y-28483D01*
G54D10*
X38461Y-29764D02*
X38461Y-29935D01*
X38461Y-29850D02*
X38161Y-29850D01*
X38204Y-29878D01*
X38232Y-29907D01*
X38247Y-29935D01*
G54D15*
X31391Y-29500D02*
X31675Y-29500D01*
X31708Y-29483D01*
X31725Y-29466D01*
X31741Y-29433D01*
X31741Y-29366D01*
X31725Y-29333D01*
X31708Y-29316D01*
X31675Y-29300D01*
X31391Y-29300D01*
X31391Y-28966D02*
X31391Y-29133D01*
X31558Y-29150D01*
X31541Y-29133D01*
X31525Y-29100D01*
X31525Y-29016D01*
X31541Y-28983D01*
X31558Y-28966D01*
X31591Y-28950D01*
X31675Y-28950D01*
X31708Y-28966D01*
X31725Y-28983D01*
X31741Y-29016D01*
X31741Y-29100D01*
X31725Y-29133D01*
X31708Y-29150D01*
X31391Y-28733D02*
X31391Y-28700D01*
X31408Y-28666D01*
X31425Y-28650D01*
X31458Y-28633D01*
X31525Y-28616D01*
X31608Y-28616D01*
X31675Y-28633D01*
X31708Y-28650D01*
X31725Y-28666D01*
X31741Y-28700D01*
X31741Y-28733D01*
X31725Y-28766D01*
X31708Y-28783D01*
X31675Y-28800D01*
X31608Y-28816D01*
X31525Y-28816D01*
X31458Y-28800D01*
X31425Y-28783D01*
X31408Y-28766D01*
X31391Y-28733D01*
X31508Y-28316D02*
X31741Y-28316D01*
X31375Y-28400D02*
X31625Y-28483D01*
X31625Y-28266D01*
G54D10*
X32461Y-29764D02*
X32461Y-29935D01*
X32461Y-29850D02*
X32161Y-29850D01*
X32204Y-29878D01*
X32232Y-29907D01*
X32247Y-29935D01*
G54D15*
X25391Y-29500D02*
X25675Y-29500D01*
X25708Y-29483D01*
X25725Y-29466D01*
X25741Y-29433D01*
X25741Y-29366D01*
X25725Y-29333D01*
X25708Y-29316D01*
X25675Y-29300D01*
X25391Y-29300D01*
X25391Y-28966D02*
X25391Y-29133D01*
X25558Y-29150D01*
X25541Y-29133D01*
X25525Y-29100D01*
X25525Y-29016D01*
X25541Y-28983D01*
X25558Y-28966D01*
X25591Y-28950D01*
X25675Y-28950D01*
X25708Y-28966D01*
X25725Y-28983D01*
X25741Y-29016D01*
X25741Y-29100D01*
X25725Y-29133D01*
X25708Y-29150D01*
X25391Y-28733D02*
X25391Y-28700D01*
X25408Y-28666D01*
X25425Y-28650D01*
X25458Y-28633D01*
X25525Y-28616D01*
X25608Y-28616D01*
X25675Y-28633D01*
X25708Y-28650D01*
X25725Y-28666D01*
X25741Y-28700D01*
X25741Y-28733D01*
X25725Y-28766D01*
X25708Y-28783D01*
X25675Y-28800D01*
X25608Y-28816D01*
X25525Y-28816D01*
X25458Y-28800D01*
X25425Y-28783D01*
X25408Y-28766D01*
X25391Y-28733D01*
X25391Y-28500D02*
X25391Y-28283D01*
X25525Y-28400D01*
X25525Y-28350D01*
X25541Y-28316D01*
X25558Y-28300D01*
X25591Y-28283D01*
X25675Y-28283D01*
X25708Y-28300D01*
X25725Y-28316D01*
X25741Y-28350D01*
X25741Y-28450D01*
X25725Y-28483D01*
X25708Y-28500D01*
G54D10*
X26461Y-29764D02*
X26461Y-29935D01*
X26461Y-29850D02*
X26161Y-29850D01*
X26204Y-29878D01*
X26232Y-29907D01*
X26247Y-29935D01*
G54D15*
X19391Y-29500D02*
X19675Y-29500D01*
X19708Y-29483D01*
X19725Y-29466D01*
X19741Y-29433D01*
X19741Y-29366D01*
X19725Y-29333D01*
X19708Y-29316D01*
X19675Y-29300D01*
X19391Y-29300D01*
X19391Y-28966D02*
X19391Y-29133D01*
X19558Y-29150D01*
X19541Y-29133D01*
X19525Y-29100D01*
X19525Y-29016D01*
X19541Y-28983D01*
X19558Y-28966D01*
X19591Y-28950D01*
X19675Y-28950D01*
X19708Y-28966D01*
X19725Y-28983D01*
X19741Y-29016D01*
X19741Y-29100D01*
X19725Y-29133D01*
X19708Y-29150D01*
X19391Y-28733D02*
X19391Y-28700D01*
X19408Y-28666D01*
X19425Y-28650D01*
X19458Y-28633D01*
X19525Y-28616D01*
X19608Y-28616D01*
X19675Y-28633D01*
X19708Y-28650D01*
X19725Y-28666D01*
X19741Y-28700D01*
X19741Y-28733D01*
X19725Y-28766D01*
X19708Y-28783D01*
X19675Y-28800D01*
X19608Y-28816D01*
X19525Y-28816D01*
X19458Y-28800D01*
X19425Y-28783D01*
X19408Y-28766D01*
X19391Y-28733D01*
X19425Y-28483D02*
X19408Y-28466D01*
X19391Y-28433D01*
X19391Y-28350D01*
X19408Y-28316D01*
X19425Y-28300D01*
X19458Y-28283D01*
X19491Y-28283D01*
X19541Y-28300D01*
X19741Y-28500D01*
X19741Y-28283D01*
G54D10*
X20461Y-29764D02*
X20461Y-29935D01*
X20461Y-29850D02*
X20161Y-29850D01*
X20204Y-29878D01*
X20232Y-29907D01*
X20247Y-29935D01*
G54D15*
X13541Y-29500D02*
X13825Y-29500D01*
X13858Y-29483D01*
X13875Y-29466D01*
X13891Y-29433D01*
X13891Y-29366D01*
X13875Y-29333D01*
X13858Y-29316D01*
X13825Y-29300D01*
X13541Y-29300D01*
X13541Y-28966D02*
X13541Y-29133D01*
X13708Y-29150D01*
X13691Y-29133D01*
X13675Y-29100D01*
X13675Y-29016D01*
X13691Y-28983D01*
X13708Y-28966D01*
X13741Y-28950D01*
X13825Y-28950D01*
X13858Y-28966D01*
X13875Y-28983D01*
X13891Y-29016D01*
X13891Y-29100D01*
X13875Y-29133D01*
X13858Y-29150D01*
X13541Y-28733D02*
X13541Y-28700D01*
X13558Y-28666D01*
X13575Y-28650D01*
X13608Y-28633D01*
X13675Y-28616D01*
X13758Y-28616D01*
X13825Y-28633D01*
X13858Y-28650D01*
X13875Y-28666D01*
X13891Y-28700D01*
X13891Y-28733D01*
X13875Y-28766D01*
X13858Y-28783D01*
X13825Y-28800D01*
X13758Y-28816D01*
X13675Y-28816D01*
X13608Y-28800D01*
X13575Y-28783D01*
X13558Y-28766D01*
X13541Y-28733D01*
X13891Y-28283D02*
X13891Y-28483D01*
X13891Y-28383D02*
X13541Y-28383D01*
X13591Y-28416D01*
X13625Y-28450D01*
X13641Y-28483D01*
G54D10*
X14461Y-29764D02*
X14461Y-29935D01*
X14461Y-29850D02*
X14161Y-29850D01*
X14204Y-29878D01*
X14232Y-29907D01*
X14247Y-29935D01*
G54D15*
X56141Y-35500D02*
X56425Y-35500D01*
X56458Y-35483D01*
X56475Y-35466D01*
X56491Y-35433D01*
X56491Y-35366D01*
X56475Y-35333D01*
X56458Y-35316D01*
X56425Y-35300D01*
X56141Y-35300D01*
X56258Y-34983D02*
X56491Y-34983D01*
X56125Y-35066D02*
X56375Y-35150D01*
X56375Y-34933D01*
X56141Y-34733D02*
X56141Y-34700D01*
X56158Y-34666D01*
X56175Y-34650D01*
X56208Y-34633D01*
X56275Y-34616D01*
X56358Y-34616D01*
X56425Y-34633D01*
X56458Y-34650D01*
X56475Y-34666D01*
X56491Y-34700D01*
X56491Y-34733D01*
X56475Y-34766D01*
X56458Y-34783D01*
X56425Y-34800D01*
X56358Y-34816D01*
X56275Y-34816D01*
X56208Y-34800D01*
X56175Y-34783D01*
X56158Y-34766D01*
X56141Y-34733D01*
X56291Y-34416D02*
X56275Y-34450D01*
X56258Y-34466D01*
X56225Y-34483D01*
X56208Y-34483D01*
X56175Y-34466D01*
X56158Y-34450D01*
X56141Y-34416D01*
X56141Y-34350D01*
X56158Y-34316D01*
X56175Y-34300D01*
X56208Y-34283D01*
X56225Y-34283D01*
X56258Y-34300D01*
X56275Y-34316D01*
X56291Y-34350D01*
X56291Y-34416D01*
X56308Y-34450D01*
X56325Y-34466D01*
X56358Y-34483D01*
X56425Y-34483D01*
X56458Y-34466D01*
X56475Y-34450D01*
X56491Y-34416D01*
X56491Y-34350D01*
X56475Y-34316D01*
X56458Y-34300D01*
X56425Y-34283D01*
X56358Y-34283D01*
X56325Y-34300D01*
X56308Y-34316D01*
X56291Y-34350D01*
G54D10*
X56461Y-35764D02*
X56461Y-35935D01*
X56461Y-35850D02*
X56161Y-35850D01*
X56204Y-35878D01*
X56232Y-35907D01*
X56247Y-35935D01*
G54D15*
X49391Y-35500D02*
X49675Y-35500D01*
X49708Y-35483D01*
X49725Y-35466D01*
X49741Y-35433D01*
X49741Y-35366D01*
X49725Y-35333D01*
X49708Y-35316D01*
X49675Y-35300D01*
X49391Y-35300D01*
X49508Y-34983D02*
X49741Y-34983D01*
X49375Y-35066D02*
X49625Y-35150D01*
X49625Y-34933D01*
X49391Y-34733D02*
X49391Y-34700D01*
X49408Y-34666D01*
X49425Y-34650D01*
X49458Y-34633D01*
X49525Y-34616D01*
X49608Y-34616D01*
X49675Y-34633D01*
X49708Y-34650D01*
X49725Y-34666D01*
X49741Y-34700D01*
X49741Y-34733D01*
X49725Y-34766D01*
X49708Y-34783D01*
X49675Y-34800D01*
X49608Y-34816D01*
X49525Y-34816D01*
X49458Y-34800D01*
X49425Y-34783D01*
X49408Y-34766D01*
X49391Y-34733D01*
X49391Y-34500D02*
X49391Y-34266D01*
X49741Y-34416D01*
G54D10*
X50461Y-35764D02*
X50461Y-35935D01*
X50461Y-35850D02*
X50161Y-35850D01*
X50204Y-35878D01*
X50232Y-35907D01*
X50247Y-35935D01*
G54D15*
X43391Y-35500D02*
X43675Y-35500D01*
X43708Y-35483D01*
X43725Y-35466D01*
X43741Y-35433D01*
X43741Y-35366D01*
X43725Y-35333D01*
X43708Y-35316D01*
X43675Y-35300D01*
X43391Y-35300D01*
X43508Y-34983D02*
X43741Y-34983D01*
X43375Y-35066D02*
X43625Y-35150D01*
X43625Y-34933D01*
X43391Y-34733D02*
X43391Y-34700D01*
X43408Y-34666D01*
X43425Y-34650D01*
X43458Y-34633D01*
X43525Y-34616D01*
X43608Y-34616D01*
X43675Y-34633D01*
X43708Y-34650D01*
X43725Y-34666D01*
X43741Y-34700D01*
X43741Y-34733D01*
X43725Y-34766D01*
X43708Y-34783D01*
X43675Y-34800D01*
X43608Y-34816D01*
X43525Y-34816D01*
X43458Y-34800D01*
X43425Y-34783D01*
X43408Y-34766D01*
X43391Y-34733D01*
X43391Y-34316D02*
X43391Y-34383D01*
X43408Y-34416D01*
X43425Y-34433D01*
X43475Y-34466D01*
X43541Y-34483D01*
X43675Y-34483D01*
X43708Y-34466D01*
X43725Y-34450D01*
X43741Y-34416D01*
X43741Y-34350D01*
X43725Y-34316D01*
X43708Y-34300D01*
X43675Y-34283D01*
X43591Y-34283D01*
X43558Y-34300D01*
X43541Y-34316D01*
X43525Y-34350D01*
X43525Y-34416D01*
X43541Y-34450D01*
X43558Y-34466D01*
X43591Y-34483D01*
G54D10*
X44461Y-35764D02*
X44461Y-35935D01*
X44461Y-35850D02*
X44161Y-35850D01*
X44204Y-35878D01*
X44232Y-35907D01*
X44247Y-35935D01*
G54D15*
X37391Y-35500D02*
X37675Y-35500D01*
X37708Y-35483D01*
X37725Y-35466D01*
X37741Y-35433D01*
X37741Y-35366D01*
X37725Y-35333D01*
X37708Y-35316D01*
X37675Y-35300D01*
X37391Y-35300D01*
X37508Y-34983D02*
X37741Y-34983D01*
X37375Y-35066D02*
X37625Y-35150D01*
X37625Y-34933D01*
X37391Y-34733D02*
X37391Y-34700D01*
X37408Y-34666D01*
X37425Y-34650D01*
X37458Y-34633D01*
X37525Y-34616D01*
X37608Y-34616D01*
X37675Y-34633D01*
X37708Y-34650D01*
X37725Y-34666D01*
X37741Y-34700D01*
X37741Y-34733D01*
X37725Y-34766D01*
X37708Y-34783D01*
X37675Y-34800D01*
X37608Y-34816D01*
X37525Y-34816D01*
X37458Y-34800D01*
X37425Y-34783D01*
X37408Y-34766D01*
X37391Y-34733D01*
X37391Y-34300D02*
X37391Y-34466D01*
X37558Y-34483D01*
X37541Y-34466D01*
X37525Y-34433D01*
X37525Y-34350D01*
X37541Y-34316D01*
X37558Y-34300D01*
X37591Y-34283D01*
X37675Y-34283D01*
X37708Y-34300D01*
X37725Y-34316D01*
X37741Y-34350D01*
X37741Y-34433D01*
X37725Y-34466D01*
X37708Y-34483D01*
G54D10*
X38461Y-35764D02*
X38461Y-35935D01*
X38461Y-35850D02*
X38161Y-35850D01*
X38204Y-35878D01*
X38232Y-35907D01*
X38247Y-35935D01*
G54D15*
X31391Y-35500D02*
X31675Y-35500D01*
X31708Y-35483D01*
X31725Y-35466D01*
X31741Y-35433D01*
X31741Y-35366D01*
X31725Y-35333D01*
X31708Y-35316D01*
X31675Y-35300D01*
X31391Y-35300D01*
X31508Y-34983D02*
X31741Y-34983D01*
X31375Y-35066D02*
X31625Y-35150D01*
X31625Y-34933D01*
X31391Y-34733D02*
X31391Y-34700D01*
X31408Y-34666D01*
X31425Y-34650D01*
X31458Y-34633D01*
X31525Y-34616D01*
X31608Y-34616D01*
X31675Y-34633D01*
X31708Y-34650D01*
X31725Y-34666D01*
X31741Y-34700D01*
X31741Y-34733D01*
X31725Y-34766D01*
X31708Y-34783D01*
X31675Y-34800D01*
X31608Y-34816D01*
X31525Y-34816D01*
X31458Y-34800D01*
X31425Y-34783D01*
X31408Y-34766D01*
X31391Y-34733D01*
X31508Y-34316D02*
X31741Y-34316D01*
X31375Y-34400D02*
X31625Y-34483D01*
X31625Y-34266D01*
G54D10*
X32461Y-35764D02*
X32461Y-35935D01*
X32461Y-35850D02*
X32161Y-35850D01*
X32204Y-35878D01*
X32232Y-35907D01*
X32247Y-35935D01*
G54D15*
X25391Y-35500D02*
X25675Y-35500D01*
X25708Y-35483D01*
X25725Y-35466D01*
X25741Y-35433D01*
X25741Y-35366D01*
X25725Y-35333D01*
X25708Y-35316D01*
X25675Y-35300D01*
X25391Y-35300D01*
X25508Y-34983D02*
X25741Y-34983D01*
X25375Y-35066D02*
X25625Y-35150D01*
X25625Y-34933D01*
X25391Y-34733D02*
X25391Y-34700D01*
X25408Y-34666D01*
X25425Y-34650D01*
X25458Y-34633D01*
X25525Y-34616D01*
X25608Y-34616D01*
X25675Y-34633D01*
X25708Y-34650D01*
X25725Y-34666D01*
X25741Y-34700D01*
X25741Y-34733D01*
X25725Y-34766D01*
X25708Y-34783D01*
X25675Y-34800D01*
X25608Y-34816D01*
X25525Y-34816D01*
X25458Y-34800D01*
X25425Y-34783D01*
X25408Y-34766D01*
X25391Y-34733D01*
X25391Y-34500D02*
X25391Y-34283D01*
X25525Y-34400D01*
X25525Y-34350D01*
X25541Y-34316D01*
X25558Y-34300D01*
X25591Y-34283D01*
X25675Y-34283D01*
X25708Y-34300D01*
X25725Y-34316D01*
X25741Y-34350D01*
X25741Y-34450D01*
X25725Y-34483D01*
X25708Y-34500D01*
G54D10*
X26461Y-35764D02*
X26461Y-35935D01*
X26461Y-35850D02*
X26161Y-35850D01*
X26204Y-35878D01*
X26232Y-35907D01*
X26247Y-35935D01*
G54D15*
X19391Y-35500D02*
X19675Y-35500D01*
X19708Y-35483D01*
X19725Y-35466D01*
X19741Y-35433D01*
X19741Y-35366D01*
X19725Y-35333D01*
X19708Y-35316D01*
X19675Y-35300D01*
X19391Y-35300D01*
X19508Y-34983D02*
X19741Y-34983D01*
X19375Y-35066D02*
X19625Y-35150D01*
X19625Y-34933D01*
X19391Y-34733D02*
X19391Y-34700D01*
X19408Y-34666D01*
X19425Y-34650D01*
X19458Y-34633D01*
X19525Y-34616D01*
X19608Y-34616D01*
X19675Y-34633D01*
X19708Y-34650D01*
X19725Y-34666D01*
X19741Y-34700D01*
X19741Y-34733D01*
X19725Y-34766D01*
X19708Y-34783D01*
X19675Y-34800D01*
X19608Y-34816D01*
X19525Y-34816D01*
X19458Y-34800D01*
X19425Y-34783D01*
X19408Y-34766D01*
X19391Y-34733D01*
X19425Y-34483D02*
X19408Y-34466D01*
X19391Y-34433D01*
X19391Y-34350D01*
X19408Y-34316D01*
X19425Y-34300D01*
X19458Y-34283D01*
X19491Y-34283D01*
X19541Y-34300D01*
X19741Y-34500D01*
X19741Y-34283D01*
G54D10*
X20461Y-35764D02*
X20461Y-35935D01*
X20461Y-35850D02*
X20161Y-35850D01*
X20204Y-35878D01*
X20232Y-35907D01*
X20247Y-35935D01*
G54D15*
X13541Y-35500D02*
X13825Y-35500D01*
X13858Y-35483D01*
X13875Y-35466D01*
X13891Y-35433D01*
X13891Y-35366D01*
X13875Y-35333D01*
X13858Y-35316D01*
X13825Y-35300D01*
X13541Y-35300D01*
X13658Y-34983D02*
X13891Y-34983D01*
X13525Y-35066D02*
X13775Y-35150D01*
X13775Y-34933D01*
X13541Y-34733D02*
X13541Y-34700D01*
X13558Y-34666D01*
X13575Y-34650D01*
X13608Y-34633D01*
X13675Y-34616D01*
X13758Y-34616D01*
X13825Y-34633D01*
X13858Y-34650D01*
X13875Y-34666D01*
X13891Y-34700D01*
X13891Y-34733D01*
X13875Y-34766D01*
X13858Y-34783D01*
X13825Y-34800D01*
X13758Y-34816D01*
X13675Y-34816D01*
X13608Y-34800D01*
X13575Y-34783D01*
X13558Y-34766D01*
X13541Y-34733D01*
X13891Y-34283D02*
X13891Y-34483D01*
X13891Y-34383D02*
X13541Y-34383D01*
X13591Y-34416D01*
X13625Y-34450D01*
X13641Y-34483D01*
G54D10*
X14461Y-35764D02*
X14461Y-35935D01*
X14461Y-35850D02*
X14161Y-35850D01*
X14204Y-35878D01*
X14232Y-35907D01*
X14247Y-35935D01*
G54D15*
X56141Y-41500D02*
X56425Y-41500D01*
X56458Y-41483D01*
X56475Y-41466D01*
X56491Y-41433D01*
X56491Y-41366D01*
X56475Y-41333D01*
X56458Y-41316D01*
X56425Y-41300D01*
X56141Y-41300D01*
X56141Y-41166D02*
X56141Y-40950D01*
X56275Y-41066D01*
X56275Y-41016D01*
X56291Y-40983D01*
X56308Y-40966D01*
X56341Y-40950D01*
X56425Y-40950D01*
X56458Y-40966D01*
X56475Y-40983D01*
X56491Y-41016D01*
X56491Y-41116D01*
X56475Y-41150D01*
X56458Y-41166D01*
X56141Y-40733D02*
X56141Y-40700D01*
X56158Y-40666D01*
X56175Y-40650D01*
X56208Y-40633D01*
X56275Y-40616D01*
X56358Y-40616D01*
X56425Y-40633D01*
X56458Y-40650D01*
X56475Y-40666D01*
X56491Y-40700D01*
X56491Y-40733D01*
X56475Y-40766D01*
X56458Y-40783D01*
X56425Y-40800D01*
X56358Y-40816D01*
X56275Y-40816D01*
X56208Y-40800D01*
X56175Y-40783D01*
X56158Y-40766D01*
X56141Y-40733D01*
X56291Y-40416D02*
X56275Y-40450D01*
X56258Y-40466D01*
X56225Y-40483D01*
X56208Y-40483D01*
X56175Y-40466D01*
X56158Y-40450D01*
X56141Y-40416D01*
X56141Y-40350D01*
X56158Y-40316D01*
X56175Y-40300D01*
X56208Y-40283D01*
X56225Y-40283D01*
X56258Y-40300D01*
X56275Y-40316D01*
X56291Y-40350D01*
X56291Y-40416D01*
X56308Y-40450D01*
X56325Y-40466D01*
X56358Y-40483D01*
X56425Y-40483D01*
X56458Y-40466D01*
X56475Y-40450D01*
X56491Y-40416D01*
X56491Y-40350D01*
X56475Y-40316D01*
X56458Y-40300D01*
X56425Y-40283D01*
X56358Y-40283D01*
X56325Y-40300D01*
X56308Y-40316D01*
X56291Y-40350D01*
G54D10*
X56461Y-41764D02*
X56461Y-41935D01*
X56461Y-41850D02*
X56161Y-41850D01*
X56204Y-41878D01*
X56232Y-41907D01*
X56247Y-41935D01*
G54D15*
X49391Y-41500D02*
X49675Y-41500D01*
X49708Y-41483D01*
X49725Y-41466D01*
X49741Y-41433D01*
X49741Y-41366D01*
X49725Y-41333D01*
X49708Y-41316D01*
X49675Y-41300D01*
X49391Y-41300D01*
X49391Y-41166D02*
X49391Y-40950D01*
X49525Y-41066D01*
X49525Y-41016D01*
X49541Y-40983D01*
X49558Y-40966D01*
X49591Y-40950D01*
X49675Y-40950D01*
X49708Y-40966D01*
X49725Y-40983D01*
X49741Y-41016D01*
X49741Y-41116D01*
X49725Y-41150D01*
X49708Y-41166D01*
X49391Y-40733D02*
X49391Y-40700D01*
X49408Y-40666D01*
X49425Y-40650D01*
X49458Y-40633D01*
X49525Y-40616D01*
X49608Y-40616D01*
X49675Y-40633D01*
X49708Y-40650D01*
X49725Y-40666D01*
X49741Y-40700D01*
X49741Y-40733D01*
X49725Y-40766D01*
X49708Y-40783D01*
X49675Y-40800D01*
X49608Y-40816D01*
X49525Y-40816D01*
X49458Y-40800D01*
X49425Y-40783D01*
X49408Y-40766D01*
X49391Y-40733D01*
X49391Y-40500D02*
X49391Y-40266D01*
X49741Y-40416D01*
G54D10*
X50461Y-41764D02*
X50461Y-41935D01*
X50461Y-41850D02*
X50161Y-41850D01*
X50204Y-41878D01*
X50232Y-41907D01*
X50247Y-41935D01*
G54D15*
X43391Y-41500D02*
X43675Y-41500D01*
X43708Y-41483D01*
X43725Y-41466D01*
X43741Y-41433D01*
X43741Y-41366D01*
X43725Y-41333D01*
X43708Y-41316D01*
X43675Y-41300D01*
X43391Y-41300D01*
X43391Y-41166D02*
X43391Y-40950D01*
X43525Y-41066D01*
X43525Y-41016D01*
X43541Y-40983D01*
X43558Y-40966D01*
X43591Y-40950D01*
X43675Y-40950D01*
X43708Y-40966D01*
X43725Y-40983D01*
X43741Y-41016D01*
X43741Y-41116D01*
X43725Y-41150D01*
X43708Y-41166D01*
X43391Y-40733D02*
X43391Y-40700D01*
X43408Y-40666D01*
X43425Y-40650D01*
X43458Y-40633D01*
X43525Y-40616D01*
X43608Y-40616D01*
X43675Y-40633D01*
X43708Y-40650D01*
X43725Y-40666D01*
X43741Y-40700D01*
X43741Y-40733D01*
X43725Y-40766D01*
X43708Y-40783D01*
X43675Y-40800D01*
X43608Y-40816D01*
X43525Y-40816D01*
X43458Y-40800D01*
X43425Y-40783D01*
X43408Y-40766D01*
X43391Y-40733D01*
X43391Y-40316D02*
X43391Y-40383D01*
X43408Y-40416D01*
X43425Y-40433D01*
X43475Y-40466D01*
X43541Y-40483D01*
X43675Y-40483D01*
X43708Y-40466D01*
X43725Y-40450D01*
X43741Y-40416D01*
X43741Y-40350D01*
X43725Y-40316D01*
X43708Y-40300D01*
X43675Y-40283D01*
X43591Y-40283D01*
X43558Y-40300D01*
X43541Y-40316D01*
X43525Y-40350D01*
X43525Y-40416D01*
X43541Y-40450D01*
X43558Y-40466D01*
X43591Y-40483D01*
G54D10*
X44461Y-41764D02*
X44461Y-41935D01*
X44461Y-41850D02*
X44161Y-41850D01*
X44204Y-41878D01*
X44232Y-41907D01*
X44247Y-41935D01*
G54D15*
X37391Y-41500D02*
X37675Y-41500D01*
X37708Y-41483D01*
X37725Y-41466D01*
X37741Y-41433D01*
X37741Y-41366D01*
X37725Y-41333D01*
X37708Y-41316D01*
X37675Y-41300D01*
X37391Y-41300D01*
X37391Y-41166D02*
X37391Y-40950D01*
X37525Y-41066D01*
X37525Y-41016D01*
X37541Y-40983D01*
X37558Y-40966D01*
X37591Y-40950D01*
X37675Y-40950D01*
X37708Y-40966D01*
X37725Y-40983D01*
X37741Y-41016D01*
X37741Y-41116D01*
X37725Y-41150D01*
X37708Y-41166D01*
X37391Y-40733D02*
X37391Y-40700D01*
X37408Y-40666D01*
X37425Y-40650D01*
X37458Y-40633D01*
X37525Y-40616D01*
X37608Y-40616D01*
X37675Y-40633D01*
X37708Y-40650D01*
X37725Y-40666D01*
X37741Y-40700D01*
X37741Y-40733D01*
X37725Y-40766D01*
X37708Y-40783D01*
X37675Y-40800D01*
X37608Y-40816D01*
X37525Y-40816D01*
X37458Y-40800D01*
X37425Y-40783D01*
X37408Y-40766D01*
X37391Y-40733D01*
X37391Y-40300D02*
X37391Y-40466D01*
X37558Y-40483D01*
X37541Y-40466D01*
X37525Y-40433D01*
X37525Y-40350D01*
X37541Y-40316D01*
X37558Y-40300D01*
X37591Y-40283D01*
X37675Y-40283D01*
X37708Y-40300D01*
X37725Y-40316D01*
X37741Y-40350D01*
X37741Y-40433D01*
X37725Y-40466D01*
X37708Y-40483D01*
G54D10*
X38461Y-41764D02*
X38461Y-41935D01*
X38461Y-41850D02*
X38161Y-41850D01*
X38204Y-41878D01*
X38232Y-41907D01*
X38247Y-41935D01*
G54D15*
X31391Y-41500D02*
X31675Y-41500D01*
X31708Y-41483D01*
X31725Y-41466D01*
X31741Y-41433D01*
X31741Y-41366D01*
X31725Y-41333D01*
X31708Y-41316D01*
X31675Y-41300D01*
X31391Y-41300D01*
X31391Y-41166D02*
X31391Y-40950D01*
X31525Y-41066D01*
X31525Y-41016D01*
X31541Y-40983D01*
X31558Y-40966D01*
X31591Y-40950D01*
X31675Y-40950D01*
X31708Y-40966D01*
X31725Y-40983D01*
X31741Y-41016D01*
X31741Y-41116D01*
X31725Y-41150D01*
X31708Y-41166D01*
X31391Y-40733D02*
X31391Y-40700D01*
X31408Y-40666D01*
X31425Y-40650D01*
X31458Y-40633D01*
X31525Y-40616D01*
X31608Y-40616D01*
X31675Y-40633D01*
X31708Y-40650D01*
X31725Y-40666D01*
X31741Y-40700D01*
X31741Y-40733D01*
X31725Y-40766D01*
X31708Y-40783D01*
X31675Y-40800D01*
X31608Y-40816D01*
X31525Y-40816D01*
X31458Y-40800D01*
X31425Y-40783D01*
X31408Y-40766D01*
X31391Y-40733D01*
X31508Y-40316D02*
X31741Y-40316D01*
X31375Y-40400D02*
X31625Y-40483D01*
X31625Y-40266D01*
G54D10*
X32461Y-41764D02*
X32461Y-41935D01*
X32461Y-41850D02*
X32161Y-41850D01*
X32204Y-41878D01*
X32232Y-41907D01*
X32247Y-41935D01*
G54D15*
X25391Y-41500D02*
X25675Y-41500D01*
X25708Y-41483D01*
X25725Y-41466D01*
X25741Y-41433D01*
X25741Y-41366D01*
X25725Y-41333D01*
X25708Y-41316D01*
X25675Y-41300D01*
X25391Y-41300D01*
X25391Y-41166D02*
X25391Y-40950D01*
X25525Y-41066D01*
X25525Y-41016D01*
X25541Y-40983D01*
X25558Y-40966D01*
X25591Y-40950D01*
X25675Y-40950D01*
X25708Y-40966D01*
X25725Y-40983D01*
X25741Y-41016D01*
X25741Y-41116D01*
X25725Y-41150D01*
X25708Y-41166D01*
X25391Y-40733D02*
X25391Y-40700D01*
X25408Y-40666D01*
X25425Y-40650D01*
X25458Y-40633D01*
X25525Y-40616D01*
X25608Y-40616D01*
X25675Y-40633D01*
X25708Y-40650D01*
X25725Y-40666D01*
X25741Y-40700D01*
X25741Y-40733D01*
X25725Y-40766D01*
X25708Y-40783D01*
X25675Y-40800D01*
X25608Y-40816D01*
X25525Y-40816D01*
X25458Y-40800D01*
X25425Y-40783D01*
X25408Y-40766D01*
X25391Y-40733D01*
X25391Y-40500D02*
X25391Y-40283D01*
X25525Y-40400D01*
X25525Y-40350D01*
X25541Y-40316D01*
X25558Y-40300D01*
X25591Y-40283D01*
X25675Y-40283D01*
X25708Y-40300D01*
X25725Y-40316D01*
X25741Y-40350D01*
X25741Y-40450D01*
X25725Y-40483D01*
X25708Y-40500D01*
G54D10*
X26461Y-41764D02*
X26461Y-41935D01*
X26461Y-41850D02*
X26161Y-41850D01*
X26204Y-41878D01*
X26232Y-41907D01*
X26247Y-41935D01*
G54D15*
X19391Y-41500D02*
X19675Y-41500D01*
X19708Y-41483D01*
X19725Y-41466D01*
X19741Y-41433D01*
X19741Y-41366D01*
X19725Y-41333D01*
X19708Y-41316D01*
X19675Y-41300D01*
X19391Y-41300D01*
X19391Y-41166D02*
X19391Y-40950D01*
X19525Y-41066D01*
X19525Y-41016D01*
X19541Y-40983D01*
X19558Y-40966D01*
X19591Y-40950D01*
X19675Y-40950D01*
X19708Y-40966D01*
X19725Y-40983D01*
X19741Y-41016D01*
X19741Y-41116D01*
X19725Y-41150D01*
X19708Y-41166D01*
X19391Y-40733D02*
X19391Y-40700D01*
X19408Y-40666D01*
X19425Y-40650D01*
X19458Y-40633D01*
X19525Y-40616D01*
X19608Y-40616D01*
X19675Y-40633D01*
X19708Y-40650D01*
X19725Y-40666D01*
X19741Y-40700D01*
X19741Y-40733D01*
X19725Y-40766D01*
X19708Y-40783D01*
X19675Y-40800D01*
X19608Y-40816D01*
X19525Y-40816D01*
X19458Y-40800D01*
X19425Y-40783D01*
X19408Y-40766D01*
X19391Y-40733D01*
X19425Y-40483D02*
X19408Y-40466D01*
X19391Y-40433D01*
X19391Y-40350D01*
X19408Y-40316D01*
X19425Y-40300D01*
X19458Y-40283D01*
X19491Y-40283D01*
X19541Y-40300D01*
X19741Y-40500D01*
X19741Y-40283D01*
G54D10*
X20461Y-41764D02*
X20461Y-41935D01*
X20461Y-41850D02*
X20161Y-41850D01*
X20204Y-41878D01*
X20232Y-41907D01*
X20247Y-41935D01*
G54D15*
X13541Y-41500D02*
X13825Y-41500D01*
X13858Y-41483D01*
X13875Y-41466D01*
X13891Y-41433D01*
X13891Y-41366D01*
X13875Y-41333D01*
X13858Y-41316D01*
X13825Y-41300D01*
X13541Y-41300D01*
X13541Y-41166D02*
X13541Y-40950D01*
X13675Y-41066D01*
X13675Y-41016D01*
X13691Y-40983D01*
X13708Y-40966D01*
X13741Y-40950D01*
X13825Y-40950D01*
X13858Y-40966D01*
X13875Y-40983D01*
X13891Y-41016D01*
X13891Y-41116D01*
X13875Y-41150D01*
X13858Y-41166D01*
X13541Y-40733D02*
X13541Y-40700D01*
X13558Y-40666D01*
X13575Y-40650D01*
X13608Y-40633D01*
X13675Y-40616D01*
X13758Y-40616D01*
X13825Y-40633D01*
X13858Y-40650D01*
X13875Y-40666D01*
X13891Y-40700D01*
X13891Y-40733D01*
X13875Y-40766D01*
X13858Y-40783D01*
X13825Y-40800D01*
X13758Y-40816D01*
X13675Y-40816D01*
X13608Y-40800D01*
X13575Y-40783D01*
X13558Y-40766D01*
X13541Y-40733D01*
X13891Y-40283D02*
X13891Y-40483D01*
X13891Y-40383D02*
X13541Y-40383D01*
X13591Y-40416D01*
X13625Y-40450D01*
X13641Y-40483D01*
G54D10*
X14461Y-41764D02*
X14461Y-41935D01*
X14461Y-41850D02*
X14161Y-41850D01*
X14204Y-41878D01*
X14232Y-41907D01*
X14247Y-41935D01*
G54D15*
X56141Y-47500D02*
X56425Y-47500D01*
X56458Y-47483D01*
X56475Y-47466D01*
X56491Y-47433D01*
X56491Y-47366D01*
X56475Y-47333D01*
X56458Y-47316D01*
X56425Y-47300D01*
X56141Y-47300D01*
X56175Y-47150D02*
X56158Y-47133D01*
X56141Y-47100D01*
X56141Y-47016D01*
X56158Y-46983D01*
X56175Y-46966D01*
X56208Y-46950D01*
X56241Y-46950D01*
X56291Y-46966D01*
X56491Y-47166D01*
X56491Y-46950D01*
X56141Y-46733D02*
X56141Y-46700D01*
X56158Y-46666D01*
X56175Y-46650D01*
X56208Y-46633D01*
X56275Y-46616D01*
X56358Y-46616D01*
X56425Y-46633D01*
X56458Y-46650D01*
X56475Y-46666D01*
X56491Y-46700D01*
X56491Y-46733D01*
X56475Y-46766D01*
X56458Y-46783D01*
X56425Y-46800D01*
X56358Y-46816D01*
X56275Y-46816D01*
X56208Y-46800D01*
X56175Y-46783D01*
X56158Y-46766D01*
X56141Y-46733D01*
X56291Y-46416D02*
X56275Y-46450D01*
X56258Y-46466D01*
X56225Y-46483D01*
X56208Y-46483D01*
X56175Y-46466D01*
X56158Y-46450D01*
X56141Y-46416D01*
X56141Y-46350D01*
X56158Y-46316D01*
X56175Y-46300D01*
X56208Y-46283D01*
X56225Y-46283D01*
X56258Y-46300D01*
X56275Y-46316D01*
X56291Y-46350D01*
X56291Y-46416D01*
X56308Y-46450D01*
X56325Y-46466D01*
X56358Y-46483D01*
X56425Y-46483D01*
X56458Y-46466D01*
X56475Y-46450D01*
X56491Y-46416D01*
X56491Y-46350D01*
X56475Y-46316D01*
X56458Y-46300D01*
X56425Y-46283D01*
X56358Y-46283D01*
X56325Y-46300D01*
X56308Y-46316D01*
X56291Y-46350D01*
G54D10*
X56461Y-47764D02*
X56461Y-47935D01*
X56461Y-47850D02*
X56161Y-47850D01*
X56204Y-47878D01*
X56232Y-47907D01*
X56247Y-47935D01*
G54D15*
X49391Y-47500D02*
X49675Y-47500D01*
X49708Y-47483D01*
X49725Y-47466D01*
X49741Y-47433D01*
X49741Y-47366D01*
X49725Y-47333D01*
X49708Y-47316D01*
X49675Y-47300D01*
X49391Y-47300D01*
X49425Y-47150D02*
X49408Y-47133D01*
X49391Y-47100D01*
X49391Y-47016D01*
X49408Y-46983D01*
X49425Y-46966D01*
X49458Y-46950D01*
X49491Y-46950D01*
X49541Y-46966D01*
X49741Y-47166D01*
X49741Y-46950D01*
X49391Y-46733D02*
X49391Y-46700D01*
X49408Y-46666D01*
X49425Y-46650D01*
X49458Y-46633D01*
X49525Y-46616D01*
X49608Y-46616D01*
X49675Y-46633D01*
X49708Y-46650D01*
X49725Y-46666D01*
X49741Y-46700D01*
X49741Y-46733D01*
X49725Y-46766D01*
X49708Y-46783D01*
X49675Y-46800D01*
X49608Y-46816D01*
X49525Y-46816D01*
X49458Y-46800D01*
X49425Y-46783D01*
X49408Y-46766D01*
X49391Y-46733D01*
X49391Y-46500D02*
X49391Y-46266D01*
X49741Y-46416D01*
G54D10*
X50461Y-47764D02*
X50461Y-47935D01*
X50461Y-47850D02*
X50161Y-47850D01*
X50204Y-47878D01*
X50232Y-47907D01*
X50247Y-47935D01*
G54D15*
X43391Y-47500D02*
X43675Y-47500D01*
X43708Y-47483D01*
X43725Y-47466D01*
X43741Y-47433D01*
X43741Y-47366D01*
X43725Y-47333D01*
X43708Y-47316D01*
X43675Y-47300D01*
X43391Y-47300D01*
X43425Y-47150D02*
X43408Y-47133D01*
X43391Y-47100D01*
X43391Y-47016D01*
X43408Y-46983D01*
X43425Y-46966D01*
X43458Y-46950D01*
X43491Y-46950D01*
X43541Y-46966D01*
X43741Y-47166D01*
X43741Y-46950D01*
X43391Y-46733D02*
X43391Y-46700D01*
X43408Y-46666D01*
X43425Y-46650D01*
X43458Y-46633D01*
X43525Y-46616D01*
X43608Y-46616D01*
X43675Y-46633D01*
X43708Y-46650D01*
X43725Y-46666D01*
X43741Y-46700D01*
X43741Y-46733D01*
X43725Y-46766D01*
X43708Y-46783D01*
X43675Y-46800D01*
X43608Y-46816D01*
X43525Y-46816D01*
X43458Y-46800D01*
X43425Y-46783D01*
X43408Y-46766D01*
X43391Y-46733D01*
X43391Y-46316D02*
X43391Y-46383D01*
X43408Y-46416D01*
X43425Y-46433D01*
X43475Y-46466D01*
X43541Y-46483D01*
X43675Y-46483D01*
X43708Y-46466D01*
X43725Y-46450D01*
X43741Y-46416D01*
X43741Y-46350D01*
X43725Y-46316D01*
X43708Y-46300D01*
X43675Y-46283D01*
X43591Y-46283D01*
X43558Y-46300D01*
X43541Y-46316D01*
X43525Y-46350D01*
X43525Y-46416D01*
X43541Y-46450D01*
X43558Y-46466D01*
X43591Y-46483D01*
G54D10*
X44461Y-47764D02*
X44461Y-47935D01*
X44461Y-47850D02*
X44161Y-47850D01*
X44204Y-47878D01*
X44232Y-47907D01*
X44247Y-47935D01*
G54D15*
X37391Y-47500D02*
X37675Y-47500D01*
X37708Y-47483D01*
X37725Y-47466D01*
X37741Y-47433D01*
X37741Y-47366D01*
X37725Y-47333D01*
X37708Y-47316D01*
X37675Y-47300D01*
X37391Y-47300D01*
X37425Y-47150D02*
X37408Y-47133D01*
X37391Y-47100D01*
X37391Y-47016D01*
X37408Y-46983D01*
X37425Y-46966D01*
X37458Y-46950D01*
X37491Y-46950D01*
X37541Y-46966D01*
X37741Y-47166D01*
X37741Y-46950D01*
X37391Y-46733D02*
X37391Y-46700D01*
X37408Y-46666D01*
X37425Y-46650D01*
X37458Y-46633D01*
X37525Y-46616D01*
X37608Y-46616D01*
X37675Y-46633D01*
X37708Y-46650D01*
X37725Y-46666D01*
X37741Y-46700D01*
X37741Y-46733D01*
X37725Y-46766D01*
X37708Y-46783D01*
X37675Y-46800D01*
X37608Y-46816D01*
X37525Y-46816D01*
X37458Y-46800D01*
X37425Y-46783D01*
X37408Y-46766D01*
X37391Y-46733D01*
X37391Y-46300D02*
X37391Y-46466D01*
X37558Y-46483D01*
X37541Y-46466D01*
X37525Y-46433D01*
X37525Y-46350D01*
X37541Y-46316D01*
X37558Y-46300D01*
X37591Y-46283D01*
X37675Y-46283D01*
X37708Y-46300D01*
X37725Y-46316D01*
X37741Y-46350D01*
X37741Y-46433D01*
X37725Y-46466D01*
X37708Y-46483D01*
G54D10*
X38461Y-47764D02*
X38461Y-47935D01*
X38461Y-47850D02*
X38161Y-47850D01*
X38204Y-47878D01*
X38232Y-47907D01*
X38247Y-47935D01*
G54D15*
X31391Y-47500D02*
X31675Y-47500D01*
X31708Y-47483D01*
X31725Y-47466D01*
X31741Y-47433D01*
X31741Y-47366D01*
X31725Y-47333D01*
X31708Y-47316D01*
X31675Y-47300D01*
X31391Y-47300D01*
X31425Y-47150D02*
X31408Y-47133D01*
X31391Y-47100D01*
X31391Y-47016D01*
X31408Y-46983D01*
X31425Y-46966D01*
X31458Y-46950D01*
X31491Y-46950D01*
X31541Y-46966D01*
X31741Y-47166D01*
X31741Y-46950D01*
X31391Y-46733D02*
X31391Y-46700D01*
X31408Y-46666D01*
X31425Y-46650D01*
X31458Y-46633D01*
X31525Y-46616D01*
X31608Y-46616D01*
X31675Y-46633D01*
X31708Y-46650D01*
X31725Y-46666D01*
X31741Y-46700D01*
X31741Y-46733D01*
X31725Y-46766D01*
X31708Y-46783D01*
X31675Y-46800D01*
X31608Y-46816D01*
X31525Y-46816D01*
X31458Y-46800D01*
X31425Y-46783D01*
X31408Y-46766D01*
X31391Y-46733D01*
X31508Y-46316D02*
X31741Y-46316D01*
X31375Y-46400D02*
X31625Y-46483D01*
X31625Y-46266D01*
G54D10*
X32461Y-47764D02*
X32461Y-47935D01*
X32461Y-47850D02*
X32161Y-47850D01*
X32204Y-47878D01*
X32232Y-47907D01*
X32247Y-47935D01*
G54D15*
X25391Y-47500D02*
X25675Y-47500D01*
X25708Y-47483D01*
X25725Y-47466D01*
X25741Y-47433D01*
X25741Y-47366D01*
X25725Y-47333D01*
X25708Y-47316D01*
X25675Y-47300D01*
X25391Y-47300D01*
X25425Y-47150D02*
X25408Y-47133D01*
X25391Y-47100D01*
X25391Y-47016D01*
X25408Y-46983D01*
X25425Y-46966D01*
X25458Y-46950D01*
X25491Y-46950D01*
X25541Y-46966D01*
X25741Y-47166D01*
X25741Y-46950D01*
X25391Y-46733D02*
X25391Y-46700D01*
X25408Y-46666D01*
X25425Y-46650D01*
X25458Y-46633D01*
X25525Y-46616D01*
X25608Y-46616D01*
X25675Y-46633D01*
X25708Y-46650D01*
X25725Y-46666D01*
X25741Y-46700D01*
X25741Y-46733D01*
X25725Y-46766D01*
X25708Y-46783D01*
X25675Y-46800D01*
X25608Y-46816D01*
X25525Y-46816D01*
X25458Y-46800D01*
X25425Y-46783D01*
X25408Y-46766D01*
X25391Y-46733D01*
X25391Y-46500D02*
X25391Y-46283D01*
X25525Y-46400D01*
X25525Y-46350D01*
X25541Y-46316D01*
X25558Y-46300D01*
X25591Y-46283D01*
X25675Y-46283D01*
X25708Y-46300D01*
X25725Y-46316D01*
X25741Y-46350D01*
X25741Y-46450D01*
X25725Y-46483D01*
X25708Y-46500D01*
G54D10*
X26461Y-47764D02*
X26461Y-47935D01*
X26461Y-47850D02*
X26161Y-47850D01*
X26204Y-47878D01*
X26232Y-47907D01*
X26247Y-47935D01*
G54D15*
X19391Y-47500D02*
X19675Y-47500D01*
X19708Y-47483D01*
X19725Y-47466D01*
X19741Y-47433D01*
X19741Y-47366D01*
X19725Y-47333D01*
X19708Y-47316D01*
X19675Y-47300D01*
X19391Y-47300D01*
X19425Y-47150D02*
X19408Y-47133D01*
X19391Y-47100D01*
X19391Y-47016D01*
X19408Y-46983D01*
X19425Y-46966D01*
X19458Y-46950D01*
X19491Y-46950D01*
X19541Y-46966D01*
X19741Y-47166D01*
X19741Y-46950D01*
X19391Y-46733D02*
X19391Y-46700D01*
X19408Y-46666D01*
X19425Y-46650D01*
X19458Y-46633D01*
X19525Y-46616D01*
X19608Y-46616D01*
X19675Y-46633D01*
X19708Y-46650D01*
X19725Y-46666D01*
X19741Y-46700D01*
X19741Y-46733D01*
X19725Y-46766D01*
X19708Y-46783D01*
X19675Y-46800D01*
X19608Y-46816D01*
X19525Y-46816D01*
X19458Y-46800D01*
X19425Y-46783D01*
X19408Y-46766D01*
X19391Y-46733D01*
X19425Y-46483D02*
X19408Y-46466D01*
X19391Y-46433D01*
X19391Y-46350D01*
X19408Y-46316D01*
X19425Y-46300D01*
X19458Y-46283D01*
X19491Y-46283D01*
X19541Y-46300D01*
X19741Y-46500D01*
X19741Y-46283D01*
G54D10*
X20461Y-47764D02*
X20461Y-47935D01*
X20461Y-47850D02*
X20161Y-47850D01*
X20204Y-47878D01*
X20232Y-47907D01*
X20247Y-47935D01*
G54D15*
X13541Y-47500D02*
X13825Y-47500D01*
X13858Y-47483D01*
X13875Y-47466D01*
X13891Y-47433D01*
X13891Y-47366D01*
X13875Y-47333D01*
X13858Y-47316D01*
X13825Y-47300D01*
X13541Y-47300D01*
X13575Y-47150D02*
X13558Y-47133D01*
X13541Y-47100D01*
X13541Y-47016D01*
X13558Y-46983D01*
X13575Y-46966D01*
X13608Y-46950D01*
X13641Y-46950D01*
X13691Y-46966D01*
X13891Y-47166D01*
X13891Y-46950D01*
X13541Y-46733D02*
X13541Y-46700D01*
X13558Y-46666D01*
X13575Y-46650D01*
X13608Y-46633D01*
X13675Y-46616D01*
X13758Y-46616D01*
X13825Y-46633D01*
X13858Y-46650D01*
X13875Y-46666D01*
X13891Y-46700D01*
X13891Y-46733D01*
X13875Y-46766D01*
X13858Y-46783D01*
X13825Y-46800D01*
X13758Y-46816D01*
X13675Y-46816D01*
X13608Y-46800D01*
X13575Y-46783D01*
X13558Y-46766D01*
X13541Y-46733D01*
X13891Y-46283D02*
X13891Y-46483D01*
X13891Y-46383D02*
X13541Y-46383D01*
X13591Y-46416D01*
X13625Y-46450D01*
X13641Y-46483D01*
G54D10*
X14461Y-47764D02*
X14461Y-47935D01*
X14461Y-47850D02*
X14161Y-47850D01*
X14204Y-47878D01*
X14232Y-47907D01*
X14247Y-47935D01*
G54D15*
X56141Y-53500D02*
X56425Y-53500D01*
X56458Y-53483D01*
X56475Y-53466D01*
X56491Y-53433D01*
X56491Y-53366D01*
X56475Y-53333D01*
X56458Y-53316D01*
X56425Y-53300D01*
X56141Y-53300D01*
X56491Y-52950D02*
X56491Y-53150D01*
X56491Y-53050D02*
X56141Y-53050D01*
X56191Y-53083D01*
X56225Y-53116D01*
X56241Y-53150D01*
X56141Y-52733D02*
X56141Y-52700D01*
X56158Y-52666D01*
X56175Y-52650D01*
X56208Y-52633D01*
X56275Y-52616D01*
X56358Y-52616D01*
X56425Y-52633D01*
X56458Y-52650D01*
X56475Y-52666D01*
X56491Y-52700D01*
X56491Y-52733D01*
X56475Y-52766D01*
X56458Y-52783D01*
X56425Y-52800D01*
X56358Y-52816D01*
X56275Y-52816D01*
X56208Y-52800D01*
X56175Y-52783D01*
X56158Y-52766D01*
X56141Y-52733D01*
X56291Y-52416D02*
X56275Y-52450D01*
X56258Y-52466D01*
X56225Y-52483D01*
X56208Y-52483D01*
X56175Y-52466D01*
X56158Y-52450D01*
X56141Y-52416D01*
X56141Y-52350D01*
X56158Y-52316D01*
X56175Y-52300D01*
X56208Y-52283D01*
X56225Y-52283D01*
X56258Y-52300D01*
X56275Y-52316D01*
X56291Y-52350D01*
X56291Y-52416D01*
X56308Y-52450D01*
X56325Y-52466D01*
X56358Y-52483D01*
X56425Y-52483D01*
X56458Y-52466D01*
X56475Y-52450D01*
X56491Y-52416D01*
X56491Y-52350D01*
X56475Y-52316D01*
X56458Y-52300D01*
X56425Y-52283D01*
X56358Y-52283D01*
X56325Y-52300D01*
X56308Y-52316D01*
X56291Y-52350D01*
G54D10*
X56461Y-53764D02*
X56461Y-53935D01*
X56461Y-53850D02*
X56161Y-53850D01*
X56204Y-53878D01*
X56232Y-53907D01*
X56247Y-53935D01*
G54D15*
X49391Y-53500D02*
X49675Y-53500D01*
X49708Y-53483D01*
X49725Y-53466D01*
X49741Y-53433D01*
X49741Y-53366D01*
X49725Y-53333D01*
X49708Y-53316D01*
X49675Y-53300D01*
X49391Y-53300D01*
X49741Y-52950D02*
X49741Y-53150D01*
X49741Y-53050D02*
X49391Y-53050D01*
X49441Y-53083D01*
X49475Y-53116D01*
X49491Y-53150D01*
X49391Y-52733D02*
X49391Y-52700D01*
X49408Y-52666D01*
X49425Y-52650D01*
X49458Y-52633D01*
X49525Y-52616D01*
X49608Y-52616D01*
X49675Y-52633D01*
X49708Y-52650D01*
X49725Y-52666D01*
X49741Y-52700D01*
X49741Y-52733D01*
X49725Y-52766D01*
X49708Y-52783D01*
X49675Y-52800D01*
X49608Y-52816D01*
X49525Y-52816D01*
X49458Y-52800D01*
X49425Y-52783D01*
X49408Y-52766D01*
X49391Y-52733D01*
X49391Y-52500D02*
X49391Y-52266D01*
X49741Y-52416D01*
G54D10*
X50461Y-53764D02*
X50461Y-53935D01*
X50461Y-53850D02*
X50161Y-53850D01*
X50204Y-53878D01*
X50232Y-53907D01*
X50247Y-53935D01*
G54D15*
X43391Y-53500D02*
X43675Y-53500D01*
X43708Y-53483D01*
X43725Y-53466D01*
X43741Y-53433D01*
X43741Y-53366D01*
X43725Y-53333D01*
X43708Y-53316D01*
X43675Y-53300D01*
X43391Y-53300D01*
X43741Y-52950D02*
X43741Y-53150D01*
X43741Y-53050D02*
X43391Y-53050D01*
X43441Y-53083D01*
X43475Y-53116D01*
X43491Y-53150D01*
X43391Y-52733D02*
X43391Y-52700D01*
X43408Y-52666D01*
X43425Y-52650D01*
X43458Y-52633D01*
X43525Y-52616D01*
X43608Y-52616D01*
X43675Y-52633D01*
X43708Y-52650D01*
X43725Y-52666D01*
X43741Y-52700D01*
X43741Y-52733D01*
X43725Y-52766D01*
X43708Y-52783D01*
X43675Y-52800D01*
X43608Y-52816D01*
X43525Y-52816D01*
X43458Y-52800D01*
X43425Y-52783D01*
X43408Y-52766D01*
X43391Y-52733D01*
X43391Y-52316D02*
X43391Y-52383D01*
X43408Y-52416D01*
X43425Y-52433D01*
X43475Y-52466D01*
X43541Y-52483D01*
X43675Y-52483D01*
X43708Y-52466D01*
X43725Y-52450D01*
X43741Y-52416D01*
X43741Y-52350D01*
X43725Y-52316D01*
X43708Y-52300D01*
X43675Y-52283D01*
X43591Y-52283D01*
X43558Y-52300D01*
X43541Y-52316D01*
X43525Y-52350D01*
X43525Y-52416D01*
X43541Y-52450D01*
X43558Y-52466D01*
X43591Y-52483D01*
G54D10*
X44461Y-53764D02*
X44461Y-53935D01*
X44461Y-53850D02*
X44161Y-53850D01*
X44204Y-53878D01*
X44232Y-53907D01*
X44247Y-53935D01*
G54D15*
X37391Y-53500D02*
X37675Y-53500D01*
X37708Y-53483D01*
X37725Y-53466D01*
X37741Y-53433D01*
X37741Y-53366D01*
X37725Y-53333D01*
X37708Y-53316D01*
X37675Y-53300D01*
X37391Y-53300D01*
X37741Y-52950D02*
X37741Y-53150D01*
X37741Y-53050D02*
X37391Y-53050D01*
X37441Y-53083D01*
X37475Y-53116D01*
X37491Y-53150D01*
X37391Y-52733D02*
X37391Y-52700D01*
X37408Y-52666D01*
X37425Y-52650D01*
X37458Y-52633D01*
X37525Y-52616D01*
X37608Y-52616D01*
X37675Y-52633D01*
X37708Y-52650D01*
X37725Y-52666D01*
X37741Y-52700D01*
X37741Y-52733D01*
X37725Y-52766D01*
X37708Y-52783D01*
X37675Y-52800D01*
X37608Y-52816D01*
X37525Y-52816D01*
X37458Y-52800D01*
X37425Y-52783D01*
X37408Y-52766D01*
X37391Y-52733D01*
X37391Y-52300D02*
X37391Y-52466D01*
X37558Y-52483D01*
X37541Y-52466D01*
X37525Y-52433D01*
X37525Y-52350D01*
X37541Y-52316D01*
X37558Y-52300D01*
X37591Y-52283D01*
X37675Y-52283D01*
X37708Y-52300D01*
X37725Y-52316D01*
X37741Y-52350D01*
X37741Y-52433D01*
X37725Y-52466D01*
X37708Y-52483D01*
G54D10*
X38461Y-53764D02*
X38461Y-53935D01*
X38461Y-53850D02*
X38161Y-53850D01*
X38204Y-53878D01*
X38232Y-53907D01*
X38247Y-53935D01*
G54D15*
X31391Y-53500D02*
X31675Y-53500D01*
X31708Y-53483D01*
X31725Y-53466D01*
X31741Y-53433D01*
X31741Y-53366D01*
X31725Y-53333D01*
X31708Y-53316D01*
X31675Y-53300D01*
X31391Y-53300D01*
X31741Y-52950D02*
X31741Y-53150D01*
X31741Y-53050D02*
X31391Y-53050D01*
X31441Y-53083D01*
X31475Y-53116D01*
X31491Y-53150D01*
X31391Y-52733D02*
X31391Y-52700D01*
X31408Y-52666D01*
X31425Y-52650D01*
X31458Y-52633D01*
X31525Y-52616D01*
X31608Y-52616D01*
X31675Y-52633D01*
X31708Y-52650D01*
X31725Y-52666D01*
X31741Y-52700D01*
X31741Y-52733D01*
X31725Y-52766D01*
X31708Y-52783D01*
X31675Y-52800D01*
X31608Y-52816D01*
X31525Y-52816D01*
X31458Y-52800D01*
X31425Y-52783D01*
X31408Y-52766D01*
X31391Y-52733D01*
X31508Y-52316D02*
X31741Y-52316D01*
X31375Y-52400D02*
X31625Y-52483D01*
X31625Y-52266D01*
G54D10*
X32461Y-53764D02*
X32461Y-53935D01*
X32461Y-53850D02*
X32161Y-53850D01*
X32204Y-53878D01*
X32232Y-53907D01*
X32247Y-53935D01*
G54D15*
X25391Y-53500D02*
X25675Y-53500D01*
X25708Y-53483D01*
X25725Y-53466D01*
X25741Y-53433D01*
X25741Y-53366D01*
X25725Y-53333D01*
X25708Y-53316D01*
X25675Y-53300D01*
X25391Y-53300D01*
X25741Y-52950D02*
X25741Y-53150D01*
X25741Y-53050D02*
X25391Y-53050D01*
X25441Y-53083D01*
X25475Y-53116D01*
X25491Y-53150D01*
X25391Y-52733D02*
X25391Y-52700D01*
X25408Y-52666D01*
X25425Y-52650D01*
X25458Y-52633D01*
X25525Y-52616D01*
X25608Y-52616D01*
X25675Y-52633D01*
X25708Y-52650D01*
X25725Y-52666D01*
X25741Y-52700D01*
X25741Y-52733D01*
X25725Y-52766D01*
X25708Y-52783D01*
X25675Y-52800D01*
X25608Y-52816D01*
X25525Y-52816D01*
X25458Y-52800D01*
X25425Y-52783D01*
X25408Y-52766D01*
X25391Y-52733D01*
X25391Y-52500D02*
X25391Y-52283D01*
X25525Y-52400D01*
X25525Y-52350D01*
X25541Y-52316D01*
X25558Y-52300D01*
X25591Y-52283D01*
X25675Y-52283D01*
X25708Y-52300D01*
X25725Y-52316D01*
X25741Y-52350D01*
X25741Y-52450D01*
X25725Y-52483D01*
X25708Y-52500D01*
G54D10*
X26461Y-53764D02*
X26461Y-53935D01*
X26461Y-53850D02*
X26161Y-53850D01*
X26204Y-53878D01*
X26232Y-53907D01*
X26247Y-53935D01*
G54D15*
X19391Y-53500D02*
X19675Y-53500D01*
X19708Y-53483D01*
X19725Y-53466D01*
X19741Y-53433D01*
X19741Y-53366D01*
X19725Y-53333D01*
X19708Y-53316D01*
X19675Y-53300D01*
X19391Y-53300D01*
X19741Y-52950D02*
X19741Y-53150D01*
X19741Y-53050D02*
X19391Y-53050D01*
X19441Y-53083D01*
X19475Y-53116D01*
X19491Y-53150D01*
X19391Y-52733D02*
X19391Y-52700D01*
X19408Y-52666D01*
X19425Y-52650D01*
X19458Y-52633D01*
X19525Y-52616D01*
X19608Y-52616D01*
X19675Y-52633D01*
X19708Y-52650D01*
X19725Y-52666D01*
X19741Y-52700D01*
X19741Y-52733D01*
X19725Y-52766D01*
X19708Y-52783D01*
X19675Y-52800D01*
X19608Y-52816D01*
X19525Y-52816D01*
X19458Y-52800D01*
X19425Y-52783D01*
X19408Y-52766D01*
X19391Y-52733D01*
X19425Y-52483D02*
X19408Y-52466D01*
X19391Y-52433D01*
X19391Y-52350D01*
X19408Y-52316D01*
X19425Y-52300D01*
X19458Y-52283D01*
X19491Y-52283D01*
X19541Y-52300D01*
X19741Y-52500D01*
X19741Y-52283D01*
G54D10*
X20461Y-53764D02*
X20461Y-53935D01*
X20461Y-53850D02*
X20161Y-53850D01*
X20204Y-53878D01*
X20232Y-53907D01*
X20247Y-53935D01*
G54D15*
X13541Y-53500D02*
X13825Y-53500D01*
X13858Y-53483D01*
X13875Y-53466D01*
X13891Y-53433D01*
X13891Y-53366D01*
X13875Y-53333D01*
X13858Y-53316D01*
X13825Y-53300D01*
X13541Y-53300D01*
X13891Y-52950D02*
X13891Y-53150D01*
X13891Y-53050D02*
X13541Y-53050D01*
X13591Y-53083D01*
X13625Y-53116D01*
X13641Y-53150D01*
X13541Y-52733D02*
X13541Y-52700D01*
X13558Y-52666D01*
X13575Y-52650D01*
X13608Y-52633D01*
X13675Y-52616D01*
X13758Y-52616D01*
X13825Y-52633D01*
X13858Y-52650D01*
X13875Y-52666D01*
X13891Y-52700D01*
X13891Y-52733D01*
X13875Y-52766D01*
X13858Y-52783D01*
X13825Y-52800D01*
X13758Y-52816D01*
X13675Y-52816D01*
X13608Y-52800D01*
X13575Y-52783D01*
X13558Y-52766D01*
X13541Y-52733D01*
X13891Y-52283D02*
X13891Y-52483D01*
X13891Y-52383D02*
X13541Y-52383D01*
X13591Y-52416D01*
X13625Y-52450D01*
X13641Y-52483D01*
G54D10*
X14461Y-53764D02*
X14461Y-53935D01*
X14461Y-53850D02*
X14161Y-53850D01*
X14204Y-53878D01*
X14232Y-53907D01*
X14247Y-53935D01*
%LPC*%
G54D17*
X14600Y-55800D03*
X14600Y-55000D03*
X14600Y-49800D03*
X14600Y-49000D03*
X14600Y-43800D03*
X14600Y-43000D03*
X14600Y-37800D03*
X14600Y-37000D03*
X14600Y-31800D03*
X14600Y-31000D03*
X14600Y-25800D03*
X14600Y-25000D03*
X14600Y-19800D03*
X14600Y-19000D03*
X14600Y-13800D03*
X14600Y-13000D03*
G54D18*
X22000Y-55000D03*
X46000Y-55000D03*
X22000Y-37000D03*
X46000Y-37000D03*
X22000Y-31000D03*
X46000Y-31000D03*
X22000Y-13000D03*
X46000Y-13000D03*
X16000Y-16000D03*
X52000Y-16000D03*
X16000Y-52000D03*
X52000Y-52000D03*
G54D19*
X55625Y-12025D03*
X55000Y-12025D03*
X54375Y-12025D03*
X54375Y-13975D03*
X55000Y-13975D03*
X55625Y-13975D03*
X49625Y-12025D03*
X49000Y-12025D03*
X48375Y-12025D03*
X48375Y-13975D03*
X49000Y-13975D03*
X49625Y-13975D03*
X43625Y-12025D03*
X43000Y-12025D03*
X42375Y-12025D03*
X42375Y-13975D03*
X43000Y-13975D03*
X43625Y-13975D03*
X37625Y-12025D03*
X37000Y-12025D03*
X36375Y-12025D03*
X36375Y-13975D03*
X37000Y-13975D03*
X37625Y-13975D03*
X31625Y-12025D03*
X31000Y-12025D03*
X30375Y-12025D03*
X30375Y-13975D03*
X31000Y-13975D03*
X31625Y-13975D03*
X25625Y-12025D03*
X25000Y-12025D03*
X24375Y-12025D03*
X24375Y-13975D03*
X25000Y-13975D03*
X25625Y-13975D03*
X19625Y-12025D03*
X19000Y-12025D03*
X18375Y-12025D03*
X18375Y-13975D03*
X19000Y-13975D03*
X19625Y-13975D03*
X13625Y-12025D03*
X13000Y-12025D03*
X12375Y-12025D03*
X12375Y-13975D03*
X13000Y-13975D03*
X13625Y-13975D03*
X55625Y-18025D03*
X55000Y-18025D03*
X54375Y-18025D03*
X54375Y-19975D03*
X55000Y-19975D03*
X55625Y-19975D03*
X49625Y-18025D03*
X49000Y-18025D03*
X48375Y-18025D03*
X48375Y-19975D03*
X49000Y-19975D03*
X49625Y-19975D03*
X43625Y-18025D03*
X43000Y-18025D03*
X42375Y-18025D03*
X42375Y-19975D03*
X43000Y-19975D03*
X43625Y-19975D03*
X37625Y-18025D03*
X37000Y-18025D03*
X36375Y-18025D03*
X36375Y-19975D03*
X37000Y-19975D03*
X37625Y-19975D03*
X31625Y-18025D03*
X31000Y-18025D03*
X30375Y-18025D03*
X30375Y-19975D03*
X31000Y-19975D03*
X31625Y-19975D03*
X25625Y-18025D03*
X25000Y-18025D03*
X24375Y-18025D03*
X24375Y-19975D03*
X25000Y-19975D03*
X25625Y-19975D03*
X19625Y-18025D03*
X19000Y-18025D03*
X18375Y-18025D03*
X18375Y-19975D03*
X19000Y-19975D03*
X19625Y-19975D03*
X13625Y-18025D03*
X13000Y-18025D03*
X12375Y-18025D03*
X12375Y-19975D03*
X13000Y-19975D03*
X13625Y-19975D03*
X55625Y-24025D03*
X55000Y-24025D03*
X54375Y-24025D03*
X54375Y-25975D03*
X55000Y-25975D03*
X55625Y-25975D03*
X49625Y-24025D03*
X49000Y-24025D03*
X48375Y-24025D03*
X48375Y-25975D03*
X49000Y-25975D03*
X49625Y-25975D03*
X43625Y-24025D03*
X43000Y-24025D03*
X42375Y-24025D03*
X42375Y-25975D03*
X43000Y-25975D03*
X43625Y-25975D03*
X37625Y-24025D03*
X37000Y-24025D03*
X36375Y-24025D03*
X36375Y-25975D03*
X37000Y-25975D03*
X37625Y-25975D03*
X31625Y-24025D03*
X31000Y-24025D03*
X30375Y-24025D03*
X30375Y-25975D03*
X31000Y-25975D03*
X31625Y-25975D03*
X25625Y-24025D03*
X25000Y-24025D03*
X24375Y-24025D03*
X24375Y-25975D03*
X25000Y-25975D03*
X25625Y-25975D03*
X19625Y-24025D03*
X19000Y-24025D03*
X18375Y-24025D03*
X18375Y-25975D03*
X19000Y-25975D03*
X19625Y-25975D03*
X13625Y-24025D03*
X13000Y-24025D03*
X12375Y-24025D03*
X12375Y-25975D03*
X13000Y-25975D03*
X13625Y-25975D03*
X55625Y-30025D03*
X55000Y-30025D03*
X54375Y-30025D03*
X54375Y-31975D03*
X55000Y-31975D03*
X55625Y-31975D03*
X49625Y-30025D03*
X49000Y-30025D03*
X48375Y-30025D03*
X48375Y-31975D03*
X49000Y-31975D03*
X49625Y-31975D03*
X43625Y-30025D03*
X43000Y-30025D03*
X42375Y-30025D03*
X42375Y-31975D03*
X43000Y-31975D03*
X43625Y-31975D03*
X37625Y-30025D03*
X37000Y-30025D03*
X36375Y-30025D03*
X36375Y-31975D03*
X37000Y-31975D03*
X37625Y-31975D03*
X31625Y-30025D03*
X31000Y-30025D03*
X30375Y-30025D03*
X30375Y-31975D03*
X31000Y-31975D03*
X31625Y-31975D03*
X25625Y-30025D03*
X25000Y-30025D03*
X24375Y-30025D03*
X24375Y-31975D03*
X25000Y-31975D03*
X25625Y-31975D03*
X19625Y-30025D03*
X19000Y-30025D03*
X18375Y-30025D03*
X18375Y-31975D03*
X19000Y-31975D03*
X19625Y-31975D03*
X13625Y-30025D03*
X13000Y-30025D03*
X12375Y-30025D03*
X12375Y-31975D03*
X13000Y-31975D03*
X13625Y-31975D03*
X55625Y-36025D03*
X55000Y-36025D03*
X54375Y-36025D03*
X54375Y-37975D03*
X55000Y-37975D03*
X55625Y-37975D03*
X49625Y-36025D03*
X49000Y-36025D03*
X48375Y-36025D03*
X48375Y-37975D03*
X49000Y-37975D03*
X49625Y-37975D03*
X43625Y-36025D03*
X43000Y-36025D03*
X42375Y-36025D03*
X42375Y-37975D03*
X43000Y-37975D03*
X43625Y-37975D03*
X37625Y-36025D03*
X37000Y-36025D03*
X36375Y-36025D03*
X36375Y-37975D03*
X37000Y-37975D03*
X37625Y-37975D03*
X31625Y-36025D03*
X31000Y-36025D03*
X30375Y-36025D03*
X30375Y-37975D03*
X31000Y-37975D03*
X31625Y-37975D03*
X25625Y-36025D03*
X25000Y-36025D03*
X24375Y-36025D03*
X24375Y-37975D03*
X25000Y-37975D03*
X25625Y-37975D03*
X19625Y-36025D03*
X19000Y-36025D03*
X18375Y-36025D03*
X18375Y-37975D03*
X19000Y-37975D03*
X19625Y-37975D03*
X13625Y-36025D03*
X13000Y-36025D03*
X12375Y-36025D03*
X12375Y-37975D03*
X13000Y-37975D03*
X13625Y-37975D03*
X55625Y-42025D03*
X55000Y-42025D03*
X54375Y-42025D03*
X54375Y-43975D03*
X55000Y-43975D03*
X55625Y-43975D03*
X49625Y-42025D03*
X49000Y-42025D03*
X48375Y-42025D03*
X48375Y-43975D03*
X49000Y-43975D03*
X49625Y-43975D03*
X43625Y-42025D03*
X43000Y-42025D03*
X42375Y-42025D03*
X42375Y-43975D03*
X43000Y-43975D03*
X43625Y-43975D03*
X37625Y-42025D03*
X37000Y-42025D03*
X36375Y-42025D03*
X36375Y-43975D03*
X37000Y-43975D03*
X37625Y-43975D03*
X31625Y-42025D03*
X31000Y-42025D03*
X30375Y-42025D03*
X30375Y-43975D03*
X31000Y-43975D03*
X31625Y-43975D03*
X25625Y-42025D03*
X25000Y-42025D03*
X24375Y-42025D03*
X24375Y-43975D03*
X25000Y-43975D03*
X25625Y-43975D03*
X19625Y-42025D03*
X19000Y-42025D03*
X18375Y-42025D03*
X18375Y-43975D03*
X19000Y-43975D03*
X19625Y-43975D03*
X13625Y-42025D03*
X13000Y-42025D03*
X12375Y-42025D03*
X12375Y-43975D03*
X13000Y-43975D03*
X13625Y-43975D03*
X55625Y-48025D03*
X55000Y-48025D03*
X54375Y-48025D03*
X54375Y-49975D03*
X55000Y-49975D03*
X55625Y-49975D03*
X49625Y-48025D03*
X49000Y-48025D03*
X48375Y-48025D03*
X48375Y-49975D03*
X49000Y-49975D03*
X49625Y-49975D03*
X43625Y-48025D03*
X43000Y-48025D03*
X42375Y-48025D03*
X42375Y-49975D03*
X43000Y-49975D03*
X43625Y-49975D03*
X37625Y-48025D03*
X37000Y-48025D03*
X36375Y-48025D03*
X36375Y-49975D03*
X37000Y-49975D03*
X37625Y-49975D03*
X31625Y-48025D03*
X31000Y-48025D03*
X30375Y-48025D03*
X30375Y-49975D03*
X31000Y-49975D03*
X31625Y-49975D03*
X25625Y-48025D03*
X25000Y-48025D03*
X24375Y-48025D03*
X24375Y-49975D03*
X25000Y-49975D03*
X25625Y-49975D03*
X19625Y-48025D03*
X19000Y-48025D03*
X18375Y-48025D03*
X18375Y-49975D03*
X19000Y-49975D03*
X19625Y-49975D03*
X13625Y-48025D03*
X13000Y-48025D03*
X12375Y-48025D03*
X12375Y-49975D03*
X13000Y-49975D03*
X13625Y-49975D03*
X55625Y-54025D03*
X55000Y-54025D03*
X54375Y-54025D03*
X54375Y-55975D03*
X55000Y-55975D03*
X55625Y-55975D03*
X49625Y-54025D03*
X49000Y-54025D03*
X48375Y-54025D03*
X48375Y-55975D03*
X49000Y-55975D03*
X49625Y-55975D03*
X43625Y-54025D03*
X43000Y-54025D03*
X42375Y-54025D03*
X42375Y-55975D03*
X43000Y-55975D03*
X43625Y-55975D03*
X37625Y-54025D03*
X37000Y-54025D03*
X36375Y-54025D03*
X36375Y-55975D03*
X37000Y-55975D03*
X37625Y-55975D03*
X31625Y-54025D03*
X31000Y-54025D03*
X30375Y-54025D03*
X30375Y-55975D03*
X31000Y-55975D03*
X31625Y-55975D03*
X25625Y-54025D03*
X25000Y-54025D03*
X24375Y-54025D03*
X24375Y-55975D03*
X25000Y-55975D03*
X25625Y-55975D03*
X19625Y-54025D03*
X19000Y-54025D03*
X18375Y-54025D03*
X18375Y-55975D03*
X19000Y-55975D03*
X19625Y-55975D03*
X13625Y-54025D03*
X13000Y-54025D03*
X12375Y-54025D03*
X12375Y-55975D03*
X13000Y-55975D03*
X13625Y-55975D03*
M02*
