M48
INCH,TZ
T1C0.025
T2C0.040
T3C0.120
%
G90
G05
T1
X1.59Y-3.97
X1.75Y-3.37
X1.77Y-3.7
X2.325Y-2.94
X2.35Y-1.9
X2.35Y-2.17
X2.64Y-1.57
X2.64Y-2.17
X2.64Y-4.57
X2.64Y-5.17
X2.64Y-5.715
X3.1Y-1.3
X3.1Y-1.9
X3.1Y-4.3
X3.1Y-4.9
X3.1Y-5.5
X3.84Y-2.77
X4.3Y-1.9
X4.3Y-2.5
X4.3Y-3.1
X4.3Y-4.9
X4.45Y-5.17
X4.69Y-4.3
X4.96Y-2.17
X5.345Y-4.57
T2
X1.3Y-1.115
X1.3Y-1.715
X1.3Y-2.315
X1.3Y-2.915
X1.3Y-3.515
X1.3Y-4.115
X1.3Y-4.715
X1.3Y-5.315
X1.6Y-2.015
X1.6Y-4.715
X2.2Y-1.715
X5.22Y-3.38
X5.255Y-2.315
X5.255Y-4.715
X5.55Y-3.38
X5.555Y-1.115
X5.555Y-1.715
X5.555Y-2.315
X5.555Y-2.915
X5.555Y-3.515
X5.555Y-4.115
X5.555Y-4.715
X5.555Y-5.315
T3
X1.6Y-1.6
X1.6Y-5.2
X2.2Y-1.3
X2.2Y-3.1
X2.2Y-3.7
X2.2Y-5.5
X4.6Y-1.3
X4.6Y-3.1
X4.6Y-3.7
X4.6Y-5.5
X5.2Y-1.6
X5.2Y-5.2
T0
M30
