%FSLAX34Y34*%
G04 Gerber Fmt 3.4, Leading zero omitted, Abs format*
G04 (created by PCBNEW (2014-04-25 BZR 4828)-product) date Friday 25 April 2014 06:21:09 PM IST*
%MOIN*%
G01*
G70*
G90*
G04 APERTURE LIST*
%ADD10C,0.006000*%
%ADD11C,0.010000*%
%ADD12R,0.196850X0.035433*%
%ADD13R,0.120000X0.120000*%
%ADD14R,0.080000X0.040000*%
%ADD15C,0.240000*%
%ADD16R,0.133858X0.055118*%
%ADD17R,0.220472X0.090551*%
%ADD18C,0.080000*%
%ADD19C,0.035000*%
%ADD20C,0.025000*%
G04 APERTURE END LIST*
G54D10*
G54D11*
X58000Y-46400D02*
G75*
G03X57400Y-45800I-600J0D01*
G74*
G01*
X56800Y-45200D02*
G75*
G03X57400Y-45800I600J0D01*
G74*
G01*
X57400Y-33800D02*
G75*
G03X56800Y-34400I0J-600D01*
G74*
G01*
X57400Y-33800D02*
G75*
G03X58000Y-33200I0J600D01*
G74*
G01*
X10000Y-21600D02*
G75*
G03X10600Y-22200I600J0D01*
G74*
G01*
X11200Y-22800D02*
G75*
G03X10600Y-22200I-600J0D01*
G74*
G01*
X10600Y-34200D02*
G75*
G03X10000Y-34800I0J-600D01*
G74*
G01*
X10600Y-34200D02*
G75*
G03X11200Y-33600I0J600D01*
G74*
G01*
X58000Y-33200D02*
X58000Y-13000D01*
X58000Y-46400D02*
X58000Y-55000D01*
X10000Y-34800D02*
X10000Y-55000D01*
X10000Y-21600D02*
X10000Y-13000D01*
X56800Y-39800D02*
X56800Y-45200D01*
X56800Y-39800D02*
X56800Y-34400D01*
X11200Y-28200D02*
X11200Y-33600D01*
X11200Y-28200D02*
X11200Y-22800D01*
X55000Y-58000D02*
X13000Y-58000D01*
X13000Y-10000D02*
X55000Y-10000D01*
X10000Y-55000D02*
G75*
G03X13000Y-58000I3000J0D01*
G74*
G01*
X58000Y-13000D02*
G75*
G03X55000Y-10000I-3000J0D01*
G74*
G01*
X13000Y-10000D02*
G75*
G03X10000Y-13000I0J-3000D01*
G74*
G01*
X55000Y-58000D02*
G75*
G03X58000Y-55000I0J3000D01*
G74*
G01*
G54D12*
X49122Y-36300D03*
X51877Y-36300D03*
X51877Y-37300D03*
X49122Y-37300D03*
X51877Y-38300D03*
X49122Y-38300D03*
X51877Y-39300D03*
X49122Y-39300D03*
X51877Y-40300D03*
X49122Y-40300D03*
X51877Y-41300D03*
X49122Y-41300D03*
X51877Y-42300D03*
X49122Y-42300D03*
X51877Y-43300D03*
X49122Y-43300D03*
G54D13*
X29600Y-55000D03*
X26400Y-55000D03*
X29600Y-49000D03*
X26400Y-49000D03*
X29600Y-43000D03*
X26400Y-43000D03*
X19100Y-37000D03*
X15900Y-37000D03*
X41600Y-31000D03*
X38400Y-31000D03*
X41600Y-25000D03*
X38400Y-25000D03*
X29600Y-19000D03*
X26400Y-19000D03*
X29600Y-13000D03*
X26400Y-13000D03*
G54D10*
G36*
X33100Y-31100D02*
X33100Y-30900D01*
X33900Y-30700D01*
X33900Y-31300D01*
X33100Y-31100D01*
X33100Y-31100D01*
G37*
G36*
X34100Y-31300D02*
X34100Y-30700D01*
X34900Y-30900D01*
X34900Y-31100D01*
X34100Y-31300D01*
X34100Y-31300D01*
G37*
G54D14*
X35600Y-31000D03*
X32400Y-31000D03*
G54D10*
G36*
X33100Y-32100D02*
X33100Y-31900D01*
X33900Y-31700D01*
X33900Y-32300D01*
X33100Y-32100D01*
X33100Y-32100D01*
G37*
G36*
X34100Y-32300D02*
X34100Y-31700D01*
X34900Y-31900D01*
X34900Y-32100D01*
X34100Y-32300D01*
X34100Y-32300D01*
G37*
G54D14*
X35600Y-32000D03*
X32400Y-32000D03*
G54D10*
G36*
X33100Y-33100D02*
X33100Y-32900D01*
X33900Y-32700D01*
X33900Y-33300D01*
X33100Y-33100D01*
X33100Y-33100D01*
G37*
G36*
X34100Y-33300D02*
X34100Y-32700D01*
X34900Y-32900D01*
X34900Y-33100D01*
X34100Y-33300D01*
X34100Y-33300D01*
G37*
G54D14*
X35600Y-33000D03*
X32400Y-33000D03*
G54D10*
G36*
X33100Y-34100D02*
X33100Y-33900D01*
X33900Y-33700D01*
X33900Y-34300D01*
X33100Y-34100D01*
X33100Y-34100D01*
G37*
G36*
X34100Y-34300D02*
X34100Y-33700D01*
X34900Y-33900D01*
X34900Y-34100D01*
X34100Y-34300D01*
X34100Y-34300D01*
G37*
G54D14*
X35600Y-34000D03*
X32400Y-34000D03*
G54D10*
G36*
X33100Y-35100D02*
X33100Y-34900D01*
X33900Y-34700D01*
X33900Y-35300D01*
X33100Y-35100D01*
X33100Y-35100D01*
G37*
G36*
X34100Y-35300D02*
X34100Y-34700D01*
X34900Y-34900D01*
X34900Y-35100D01*
X34100Y-35300D01*
X34100Y-35300D01*
G37*
G54D14*
X35600Y-35000D03*
X32400Y-35000D03*
G54D10*
G36*
X33100Y-36100D02*
X33100Y-35900D01*
X33900Y-35700D01*
X33900Y-36300D01*
X33100Y-36100D01*
X33100Y-36100D01*
G37*
G36*
X34100Y-36300D02*
X34100Y-35700D01*
X34900Y-35900D01*
X34900Y-36100D01*
X34100Y-36300D01*
X34100Y-36300D01*
G37*
G54D14*
X35600Y-36000D03*
X32400Y-36000D03*
G54D10*
G36*
X33100Y-37100D02*
X33100Y-36900D01*
X33900Y-36700D01*
X33900Y-37300D01*
X33100Y-37100D01*
X33100Y-37100D01*
G37*
G36*
X34100Y-37300D02*
X34100Y-36700D01*
X34900Y-36900D01*
X34900Y-37100D01*
X34100Y-37300D01*
X34100Y-37300D01*
G37*
G54D14*
X35600Y-37000D03*
X32400Y-37000D03*
G54D15*
X22000Y-55000D03*
X46000Y-55000D03*
X22000Y-37000D03*
X46000Y-37000D03*
X22000Y-31000D03*
X46000Y-31000D03*
X22000Y-13000D03*
X46000Y-13000D03*
G54D16*
X23500Y-20007D03*
X23500Y-20992D03*
G54D17*
X20901Y-22015D03*
X20901Y-18984D03*
G54D16*
X44500Y-20992D03*
X44500Y-20007D03*
G54D17*
X47098Y-18984D03*
X47098Y-22015D03*
G54D15*
X16000Y-16000D03*
X52000Y-16000D03*
X16000Y-52000D03*
X52000Y-52000D03*
G54D12*
X16122Y-24700D03*
X18877Y-24700D03*
X18877Y-25700D03*
X16122Y-25700D03*
X18877Y-26700D03*
X16122Y-26700D03*
X18877Y-27700D03*
X16122Y-27700D03*
X18877Y-28700D03*
X16122Y-28700D03*
X18877Y-29700D03*
X16122Y-29700D03*
X18877Y-30700D03*
X16122Y-30700D03*
X18877Y-31700D03*
X16122Y-31700D03*
G54D16*
X44500Y-47500D03*
X44500Y-46515D03*
G54D17*
X47098Y-45492D03*
X47098Y-49507D03*
G54D16*
X44500Y-48484D03*
X23500Y-47500D03*
X23500Y-48484D03*
G54D17*
X20901Y-49507D03*
X20901Y-45492D03*
G54D16*
X23500Y-46515D03*
G54D18*
X16000Y-47150D03*
X13000Y-53150D03*
X55550Y-53150D03*
X52550Y-47150D03*
X13000Y-47150D03*
X55550Y-47150D03*
X13000Y-41150D03*
X55550Y-41150D03*
X13000Y-35150D03*
X55550Y-35150D03*
X13000Y-29150D03*
X55550Y-29150D03*
X13000Y-23150D03*
X55550Y-23150D03*
X13000Y-17150D03*
X16000Y-20150D03*
X55550Y-17150D03*
X52550Y-23150D03*
X13000Y-11150D03*
X22000Y-17150D03*
X55500Y-33800D03*
X52200Y-33800D03*
X55550Y-11150D03*
G54D19*
X31000Y-49000D03*
X31000Y-43000D03*
X43000Y-31000D03*
X46900Y-43000D03*
X23250Y-29400D03*
X23500Y-19000D03*
X43000Y-19000D03*
X31000Y-55000D03*
X31000Y-19000D03*
X31000Y-13000D03*
X43000Y-25000D03*
X17700Y-37000D03*
X43000Y-49000D03*
X26400Y-51700D03*
X26400Y-45700D03*
X53450Y-45700D03*
X17500Y-33700D03*
X23500Y-21700D03*
X49600Y-21700D03*
X26400Y-21700D03*
X26400Y-15700D03*
X38400Y-27700D03*
X15900Y-39700D03*
X26400Y-57150D03*
X44500Y-51700D03*
G54D11*
X17684Y-46515D02*
X23500Y-46515D01*
X17050Y-47150D02*
X16000Y-47150D01*
X17684Y-46515D02*
X17050Y-47150D01*
X14580Y-44880D02*
X16000Y-46300D01*
X14580Y-28420D02*
X14580Y-44880D01*
X17850Y-27700D02*
X17350Y-28200D01*
X17350Y-28200D02*
X14800Y-28200D01*
X14800Y-28200D02*
X14580Y-28420D01*
X18877Y-27700D02*
X17850Y-27700D01*
X16000Y-46300D02*
X16000Y-47150D01*
X13000Y-51550D02*
X13000Y-53150D01*
X16000Y-48550D02*
X13000Y-51550D01*
X16000Y-47150D02*
X16000Y-48550D01*
X34500Y-37000D02*
X35600Y-37000D01*
X42620Y-40140D02*
X39480Y-37000D01*
X47560Y-40140D02*
X42620Y-40140D01*
X47900Y-39800D02*
X47560Y-40140D01*
X47900Y-39800D02*
X50350Y-39800D01*
X50850Y-39300D02*
X51877Y-39300D01*
X50350Y-39800D02*
X50850Y-39300D01*
X35600Y-37000D02*
X39480Y-37000D01*
X51877Y-39300D02*
X53590Y-39300D01*
X53590Y-39300D02*
X54200Y-39910D01*
X52550Y-50150D02*
X55550Y-53150D01*
X54200Y-39910D02*
X54200Y-45950D01*
X53000Y-47150D02*
X52550Y-47150D01*
X54200Y-45950D02*
X53000Y-47150D01*
X52550Y-47150D02*
X52550Y-50150D01*
X14265Y-28285D02*
X14265Y-45885D01*
X14850Y-27700D02*
X14265Y-28285D01*
X16122Y-27700D02*
X14850Y-27700D01*
X14265Y-45885D02*
X13000Y-47150D01*
X33500Y-37000D02*
X32400Y-37000D01*
X31850Y-37000D02*
X22050Y-27200D01*
X17800Y-27200D02*
X22050Y-27200D01*
X17300Y-27700D02*
X16122Y-27700D01*
X17300Y-27700D02*
X17800Y-27200D01*
X32400Y-37000D02*
X31850Y-37000D01*
X35600Y-36000D02*
X34500Y-36000D01*
X49122Y-39300D02*
X47950Y-39300D01*
X38920Y-36000D02*
X35600Y-36000D01*
X42760Y-39840D02*
X38920Y-36000D01*
X47410Y-39840D02*
X42760Y-39840D01*
X47950Y-39300D02*
X47410Y-39840D01*
X49122Y-39300D02*
X49950Y-39300D01*
X53560Y-38800D02*
X54500Y-39740D01*
X50800Y-38800D02*
X53560Y-38800D01*
X50300Y-39300D02*
X50800Y-38800D01*
X50300Y-39300D02*
X49122Y-39300D01*
X54500Y-46100D02*
X55550Y-47150D01*
X54500Y-39740D02*
X54500Y-46100D01*
X18877Y-26700D02*
X22000Y-26700D01*
X33500Y-36000D02*
X32400Y-36000D01*
X18877Y-26700D02*
X17750Y-26700D01*
X14880Y-27200D02*
X13955Y-28125D01*
X17250Y-27200D02*
X14880Y-27200D01*
X17750Y-26700D02*
X17250Y-27200D01*
X13955Y-28125D02*
X13955Y-40195D01*
X13955Y-40195D02*
X13000Y-41150D01*
X32400Y-36000D02*
X32400Y-35880D01*
X31300Y-36000D02*
X22000Y-26700D01*
X32400Y-36000D02*
X31300Y-36000D01*
X51877Y-38300D02*
X53520Y-38300D01*
X34500Y-35000D02*
X35600Y-35000D01*
X50300Y-38800D02*
X48000Y-38800D01*
X38340Y-35000D02*
X35600Y-35000D01*
X42880Y-39540D02*
X38340Y-35000D01*
X47260Y-39540D02*
X42880Y-39540D01*
X48000Y-38800D02*
X47260Y-39540D01*
X51877Y-38300D02*
X50800Y-38300D01*
X50800Y-38300D02*
X50300Y-38800D01*
X55550Y-40330D02*
X53520Y-38300D01*
X55550Y-41150D02*
X55550Y-40330D01*
X13640Y-27980D02*
X13640Y-34510D01*
X17300Y-26700D02*
X16122Y-26700D01*
X21940Y-26200D02*
X17800Y-26200D01*
X17800Y-26200D02*
X17300Y-26700D01*
X32400Y-35000D02*
X33500Y-35000D01*
X16122Y-26700D02*
X14920Y-26700D01*
X14920Y-26700D02*
X13640Y-27980D01*
X13640Y-34510D02*
X13000Y-35150D01*
X30740Y-35000D02*
X21940Y-26200D01*
X32400Y-35000D02*
X30740Y-35000D01*
X35600Y-34000D02*
X34500Y-34000D01*
X43020Y-39240D02*
X37780Y-34000D01*
X37780Y-34000D02*
X35600Y-34000D01*
X43020Y-39240D02*
X47110Y-39240D01*
X48050Y-38300D02*
X47110Y-39240D01*
X49122Y-38300D02*
X48050Y-38300D01*
X55550Y-35150D02*
X55550Y-35750D01*
X53500Y-37800D02*
X50800Y-37800D01*
X55550Y-35750D02*
X53500Y-37800D01*
X50300Y-38300D02*
X49122Y-38300D01*
X50300Y-38300D02*
X50800Y-37800D01*
X18877Y-25700D02*
X21880Y-25700D01*
X33500Y-34000D02*
X32400Y-34000D01*
X13000Y-28160D02*
X13000Y-29150D01*
X14960Y-26200D02*
X13000Y-28160D01*
X17250Y-26200D02*
X14960Y-26200D01*
X17750Y-25700D02*
X17250Y-26200D01*
X18877Y-25700D02*
X17750Y-25700D01*
X30180Y-34000D02*
X21880Y-25700D01*
X32400Y-34000D02*
X30180Y-34000D01*
X34500Y-33000D02*
X35600Y-33000D01*
X51877Y-37300D02*
X50800Y-37300D01*
X50800Y-37300D02*
X50300Y-37800D01*
X53020Y-37300D02*
X53950Y-36370D01*
X51877Y-37300D02*
X53020Y-37300D01*
X53950Y-32550D02*
X53950Y-36370D01*
X43160Y-38940D02*
X37220Y-33000D01*
X37220Y-33000D02*
X35600Y-33000D01*
X43160Y-38940D02*
X46910Y-38940D01*
X48050Y-37800D02*
X46910Y-38940D01*
X50300Y-37800D02*
X48050Y-37800D01*
X55550Y-30950D02*
X53950Y-32550D01*
X55550Y-29150D02*
X55550Y-30950D01*
X17750Y-25200D02*
X17250Y-25700D01*
X17250Y-25700D02*
X16122Y-25700D01*
X21850Y-25200D02*
X17750Y-25200D01*
X32400Y-33000D02*
X33500Y-33000D01*
X16122Y-25700D02*
X14910Y-25700D01*
X14910Y-25700D02*
X13000Y-23790D01*
X13000Y-23790D02*
X13000Y-23150D01*
X29650Y-33000D02*
X21850Y-25200D01*
X32400Y-33000D02*
X29650Y-33000D01*
X35600Y-32000D02*
X34500Y-32000D01*
X36660Y-32000D02*
X35600Y-32000D01*
X43300Y-38640D02*
X36660Y-32000D01*
X49122Y-37300D02*
X48100Y-37300D01*
X46760Y-38640D02*
X48100Y-37300D01*
X43300Y-38640D02*
X46760Y-38640D01*
X53650Y-26850D02*
X53650Y-36170D01*
X50300Y-37300D02*
X49122Y-37300D01*
X50300Y-37300D02*
X50800Y-36800D01*
X50800Y-36800D02*
X53020Y-36800D01*
X53020Y-36800D02*
X53650Y-36170D01*
X55550Y-24950D02*
X53650Y-26850D01*
X55550Y-23150D02*
X55550Y-24950D01*
X18877Y-24700D02*
X17750Y-24700D01*
X17750Y-24700D02*
X17250Y-25200D01*
X18877Y-24700D02*
X21820Y-24700D01*
X33500Y-32000D02*
X32400Y-32000D01*
X29120Y-32000D02*
X21820Y-24700D01*
X32400Y-32000D02*
X29120Y-32000D01*
X14850Y-25200D02*
X14450Y-24800D01*
X14450Y-24800D02*
X14450Y-23300D01*
X14450Y-23300D02*
X16000Y-21750D01*
X16000Y-21750D02*
X16000Y-20150D01*
X13000Y-19575D02*
X13000Y-17150D01*
X13575Y-20150D02*
X16000Y-20150D01*
X13000Y-19575D02*
X13575Y-20150D01*
X17250Y-25200D02*
X14850Y-25200D01*
X47700Y-36500D02*
X47700Y-35780D01*
X47370Y-35450D02*
X40550Y-35450D01*
X47700Y-35780D02*
X47370Y-35450D01*
X34500Y-31000D02*
X35600Y-31000D01*
X51877Y-36300D02*
X50800Y-36300D01*
X36100Y-31000D02*
X35600Y-31000D01*
X40550Y-35450D02*
X36100Y-31000D01*
X48000Y-36800D02*
X47700Y-36500D01*
X50300Y-36800D02*
X48000Y-36800D01*
X50800Y-36300D02*
X50300Y-36800D01*
X53350Y-26850D02*
X53350Y-35970D01*
X53020Y-36300D02*
X51877Y-36300D01*
X53020Y-36300D02*
X53350Y-35970D01*
X55550Y-17150D02*
X55550Y-18950D01*
X52550Y-21950D02*
X55550Y-18950D01*
X53350Y-26850D02*
X52550Y-26050D01*
X52550Y-26050D02*
X52550Y-23150D01*
X52550Y-23150D02*
X52550Y-21950D01*
X17750Y-24100D02*
X21660Y-24100D01*
X16122Y-24700D02*
X17150Y-24700D01*
X17150Y-24700D02*
X17750Y-24100D01*
X32400Y-31000D02*
X33500Y-31000D01*
X28560Y-31000D02*
X21660Y-24100D01*
X32400Y-31000D02*
X28560Y-31000D01*
X18150Y-11150D02*
X18950Y-11950D01*
X18950Y-11950D02*
X18950Y-14950D01*
X18950Y-14950D02*
X19450Y-15450D01*
X19450Y-15450D02*
X21750Y-15450D01*
X21750Y-15450D02*
X22000Y-15700D01*
X22000Y-15700D02*
X22000Y-17150D01*
X19750Y-17150D02*
X22000Y-17150D01*
X13000Y-11150D02*
X18150Y-11150D01*
X16122Y-23927D02*
X16700Y-23350D01*
X16700Y-23350D02*
X18350Y-23350D01*
X18350Y-23350D02*
X18650Y-23050D01*
X18650Y-23050D02*
X18650Y-18250D01*
X18650Y-18250D02*
X19750Y-17150D01*
X16122Y-24700D02*
X16122Y-23927D01*
X49122Y-36300D02*
X50300Y-36300D01*
X56550Y-53700D02*
X55950Y-54300D01*
X55950Y-54300D02*
X50300Y-54300D01*
X56550Y-34100D02*
X56250Y-33800D01*
X56250Y-33800D02*
X55500Y-33800D01*
X56550Y-53700D02*
X56550Y-34100D01*
X52200Y-34400D02*
X50300Y-36300D01*
X52200Y-33800D02*
X52200Y-34400D01*
X55550Y-11150D02*
X55550Y-15670D01*
X49465Y-46515D02*
X49900Y-46950D01*
X49900Y-46950D02*
X49900Y-53900D01*
X49900Y-53900D02*
X50300Y-54300D01*
X44500Y-46515D02*
X49465Y-46515D01*
X52200Y-32900D02*
X50350Y-31050D01*
X50350Y-31050D02*
X50350Y-20870D01*
X50350Y-20870D02*
X55550Y-15670D01*
X52200Y-33800D02*
X52200Y-32900D01*
G54D20*
X18877Y-29200D02*
X23050Y-29200D01*
X23050Y-29200D02*
X23250Y-29400D01*
X29600Y-49000D02*
X31000Y-49000D01*
X29600Y-43000D02*
X31000Y-43000D01*
X41600Y-31000D02*
X43000Y-31000D01*
X49150Y-40800D02*
X47900Y-40800D01*
X46900Y-41800D02*
X46900Y-43000D01*
X47900Y-40800D02*
X46900Y-41800D01*
X49122Y-40800D02*
X49150Y-40800D01*
X49150Y-40800D02*
X51877Y-40800D01*
X51877Y-40300D02*
X51877Y-40800D01*
X51877Y-40800D02*
X51877Y-41300D01*
X49122Y-40300D02*
X49122Y-40800D01*
X49122Y-40800D02*
X49122Y-41300D01*
X16122Y-29200D02*
X18877Y-29200D01*
X18877Y-28700D02*
X18877Y-29200D01*
X18877Y-29200D02*
X18877Y-29700D01*
X16122Y-28700D02*
X16122Y-29200D01*
X16122Y-29200D02*
X16122Y-29700D01*
X23500Y-20007D02*
X23500Y-19000D01*
X44500Y-20992D02*
X43192Y-20992D01*
X43000Y-20800D02*
X43000Y-19000D01*
X43192Y-20992D02*
X43000Y-20800D01*
X29600Y-55000D02*
X31000Y-55000D01*
X29600Y-19000D02*
X31000Y-19000D01*
X29600Y-13000D02*
X31000Y-13000D01*
X41600Y-25000D02*
X43000Y-25000D01*
X19100Y-37000D02*
X17700Y-37000D01*
X28950Y-47500D02*
X29600Y-48150D01*
X29600Y-48150D02*
X29600Y-49000D01*
X23500Y-47500D02*
X28950Y-47500D01*
X43500Y-47500D02*
X43000Y-48000D01*
X43000Y-48000D02*
X43000Y-49000D01*
X44500Y-47500D02*
X43500Y-47500D01*
X26400Y-49000D02*
X26400Y-51700D01*
X26400Y-43000D02*
X26400Y-45700D01*
X51877Y-42800D02*
X53200Y-42800D01*
X53450Y-43050D02*
X53450Y-45700D01*
X53200Y-42800D02*
X53450Y-43050D01*
X49122Y-42800D02*
X51877Y-42800D01*
X51877Y-42300D02*
X51877Y-42800D01*
X51877Y-42800D02*
X51877Y-43300D01*
X49122Y-42300D02*
X49122Y-42800D01*
X49122Y-42800D02*
X49122Y-43300D01*
X17500Y-31200D02*
X17500Y-33700D01*
X16122Y-31200D02*
X17500Y-31200D01*
X17500Y-31200D02*
X18877Y-31200D01*
X18877Y-30700D02*
X18877Y-31200D01*
X18877Y-31200D02*
X18877Y-31700D01*
X16122Y-30700D02*
X16122Y-31200D01*
X16122Y-31200D02*
X16122Y-31700D01*
X23500Y-20992D02*
X23500Y-21700D01*
X44500Y-20007D02*
X46537Y-20007D01*
X49600Y-21050D02*
X49600Y-21700D01*
X49250Y-20700D02*
X49600Y-21050D01*
X47230Y-20700D02*
X49250Y-20700D01*
X46537Y-20007D02*
X47230Y-20700D01*
X26400Y-55000D02*
X26400Y-57150D01*
X26400Y-19000D02*
X26400Y-21700D01*
X26400Y-13000D02*
X26400Y-15700D01*
X38400Y-25000D02*
X38400Y-27700D01*
X38400Y-31000D02*
X38400Y-27700D01*
X15900Y-37000D02*
X15900Y-39700D01*
X23800Y-49000D02*
X26400Y-49000D01*
X23500Y-48700D02*
X23800Y-49000D01*
X23500Y-48484D02*
X23500Y-48700D01*
X44500Y-48484D02*
X44500Y-51700D01*
G54D10*
G36*
X57700Y-54965D02*
X57489Y-56028D01*
X56903Y-56907D01*
X56029Y-57490D01*
X54970Y-57700D01*
X48450Y-57700D01*
X48450Y-49911D01*
X48450Y-49005D01*
X48412Y-48913D01*
X48342Y-48843D01*
X48250Y-48805D01*
X48151Y-48805D01*
X45946Y-48805D01*
X45854Y-48843D01*
X45784Y-48913D01*
X45746Y-49005D01*
X45746Y-49104D01*
X45746Y-50010D01*
X45783Y-50102D01*
X45854Y-50172D01*
X45946Y-50210D01*
X46045Y-50210D01*
X48250Y-50210D01*
X48342Y-50172D01*
X48412Y-50102D01*
X48450Y-50010D01*
X48450Y-49911D01*
X48450Y-57700D01*
X47450Y-57700D01*
X47450Y-54712D01*
X47229Y-54179D01*
X46822Y-53771D01*
X46289Y-53550D01*
X45712Y-53549D01*
X45419Y-53671D01*
X45419Y-48809D01*
X45419Y-48571D01*
X45356Y-48509D01*
X44525Y-48509D01*
X44525Y-48947D01*
X44587Y-49009D01*
X45119Y-49009D01*
X45219Y-49009D01*
X45311Y-48971D01*
X45381Y-48901D01*
X45419Y-48809D01*
X45419Y-53671D01*
X45179Y-53770D01*
X44771Y-54177D01*
X44550Y-54710D01*
X44549Y-55287D01*
X44770Y-55820D01*
X45177Y-56228D01*
X45710Y-56449D01*
X46287Y-56450D01*
X46820Y-56229D01*
X47228Y-55822D01*
X47449Y-55289D01*
X47450Y-54712D01*
X47450Y-57700D01*
X44475Y-57700D01*
X44475Y-48947D01*
X44475Y-48509D01*
X43643Y-48509D01*
X43580Y-48571D01*
X43580Y-48809D01*
X43618Y-48901D01*
X43688Y-48971D01*
X43780Y-49009D01*
X43880Y-49009D01*
X44412Y-49009D01*
X44475Y-48947D01*
X44475Y-57700D01*
X31425Y-57700D01*
X31425Y-54915D01*
X31360Y-54759D01*
X31241Y-54639D01*
X31084Y-54575D01*
X30915Y-54574D01*
X30794Y-54625D01*
X30450Y-54625D01*
X30450Y-54350D01*
X30412Y-54258D01*
X30341Y-54188D01*
X30249Y-54150D01*
X30150Y-54149D01*
X28950Y-54149D01*
X28858Y-54187D01*
X28788Y-54258D01*
X28750Y-54350D01*
X28749Y-54449D01*
X28749Y-55649D01*
X28787Y-55741D01*
X28858Y-55811D01*
X28950Y-55849D01*
X29049Y-55850D01*
X30249Y-55850D01*
X30341Y-55812D01*
X30411Y-55741D01*
X30449Y-55649D01*
X30450Y-55550D01*
X30450Y-55375D01*
X30794Y-55375D01*
X30915Y-55424D01*
X31084Y-55425D01*
X31240Y-55360D01*
X31360Y-55241D01*
X31424Y-55084D01*
X31425Y-54915D01*
X31425Y-57700D01*
X27250Y-57700D01*
X27250Y-55550D01*
X27250Y-54449D01*
X27250Y-49550D01*
X27250Y-48449D01*
X27249Y-48350D01*
X27211Y-48258D01*
X27141Y-48187D01*
X27049Y-48149D01*
X26487Y-48150D01*
X26425Y-48212D01*
X26425Y-48975D01*
X27187Y-48975D01*
X27250Y-48912D01*
X27250Y-48449D01*
X27250Y-49550D01*
X27250Y-49087D01*
X27187Y-49025D01*
X26425Y-49025D01*
X26425Y-49787D01*
X26487Y-49850D01*
X27049Y-49850D01*
X27141Y-49812D01*
X27211Y-49741D01*
X27249Y-49649D01*
X27250Y-49550D01*
X27250Y-54449D01*
X27249Y-54350D01*
X27211Y-54258D01*
X27141Y-54187D01*
X27049Y-54149D01*
X26487Y-54150D01*
X26425Y-54212D01*
X26425Y-54975D01*
X27187Y-54975D01*
X27250Y-54912D01*
X27250Y-54449D01*
X27250Y-55550D01*
X27250Y-55087D01*
X27187Y-55025D01*
X26425Y-55025D01*
X26425Y-55787D01*
X26487Y-55850D01*
X27049Y-55850D01*
X27141Y-55812D01*
X27211Y-55741D01*
X27249Y-55649D01*
X27250Y-55550D01*
X27250Y-57700D01*
X26375Y-57700D01*
X26375Y-55787D01*
X26375Y-55025D01*
X26375Y-54975D01*
X26375Y-54212D01*
X26375Y-49787D01*
X26375Y-49025D01*
X26375Y-48975D01*
X26375Y-48212D01*
X26312Y-48150D01*
X25750Y-48149D01*
X25658Y-48187D01*
X25588Y-48258D01*
X25550Y-48350D01*
X25549Y-48449D01*
X25550Y-48912D01*
X25612Y-48975D01*
X26375Y-48975D01*
X26375Y-49025D01*
X25612Y-49025D01*
X25550Y-49087D01*
X25549Y-49550D01*
X25550Y-49649D01*
X25588Y-49741D01*
X25658Y-49812D01*
X25750Y-49850D01*
X26312Y-49850D01*
X26375Y-49787D01*
X26375Y-54212D01*
X26312Y-54150D01*
X25750Y-54149D01*
X25658Y-54187D01*
X25588Y-54258D01*
X25550Y-54350D01*
X25549Y-54449D01*
X25550Y-54912D01*
X25612Y-54975D01*
X26375Y-54975D01*
X26375Y-55025D01*
X25612Y-55025D01*
X25550Y-55087D01*
X25549Y-55550D01*
X25550Y-55649D01*
X25588Y-55741D01*
X25658Y-55812D01*
X25750Y-55850D01*
X26312Y-55850D01*
X26375Y-55787D01*
X26375Y-57700D01*
X24419Y-57700D01*
X24419Y-48809D01*
X24419Y-48571D01*
X24356Y-48509D01*
X23525Y-48509D01*
X23525Y-48947D01*
X23587Y-49009D01*
X24119Y-49009D01*
X24219Y-49009D01*
X24311Y-48971D01*
X24381Y-48901D01*
X24419Y-48809D01*
X24419Y-57700D01*
X23475Y-57700D01*
X23475Y-48947D01*
X23475Y-48509D01*
X22643Y-48509D01*
X22580Y-48571D01*
X22580Y-48809D01*
X22618Y-48901D01*
X22688Y-48971D01*
X22780Y-49009D01*
X22880Y-49009D01*
X23412Y-49009D01*
X23475Y-48947D01*
X23475Y-57700D01*
X23450Y-57700D01*
X23450Y-54712D01*
X23229Y-54179D01*
X22822Y-53771D01*
X22289Y-53550D01*
X22253Y-53550D01*
X22253Y-49911D01*
X22253Y-49005D01*
X22216Y-48913D01*
X22145Y-48843D01*
X22053Y-48805D01*
X21954Y-48805D01*
X19749Y-48805D01*
X19657Y-48843D01*
X19587Y-48913D01*
X19549Y-49005D01*
X19549Y-49104D01*
X19549Y-50010D01*
X19587Y-50102D01*
X19657Y-50172D01*
X19749Y-50210D01*
X19848Y-50210D01*
X22053Y-50210D01*
X22145Y-50172D01*
X22215Y-50102D01*
X22253Y-50010D01*
X22253Y-49911D01*
X22253Y-53550D01*
X21712Y-53549D01*
X21179Y-53770D01*
X20771Y-54177D01*
X20550Y-54710D01*
X20549Y-55287D01*
X20770Y-55820D01*
X21177Y-56228D01*
X21710Y-56449D01*
X22287Y-56450D01*
X22820Y-56229D01*
X23228Y-55822D01*
X23449Y-55289D01*
X23450Y-54712D01*
X23450Y-57700D01*
X17450Y-57700D01*
X17450Y-51712D01*
X17229Y-51179D01*
X16822Y-50771D01*
X16289Y-50550D01*
X15712Y-50549D01*
X15179Y-50770D01*
X14771Y-51177D01*
X14550Y-51710D01*
X14549Y-52287D01*
X14770Y-52820D01*
X15177Y-53228D01*
X15710Y-53449D01*
X16287Y-53450D01*
X16820Y-53229D01*
X17228Y-52822D01*
X17449Y-52289D01*
X17450Y-51712D01*
X17450Y-57700D01*
X13034Y-57700D01*
X11971Y-57489D01*
X11092Y-56903D01*
X10509Y-56029D01*
X10300Y-54970D01*
X10300Y-34829D01*
X10328Y-34686D01*
X10391Y-34592D01*
X10487Y-34528D01*
X10657Y-34494D01*
X10658Y-34494D01*
X10886Y-34448D01*
X10887Y-34448D01*
X10996Y-34403D01*
X11190Y-34274D01*
X11273Y-34191D01*
X11274Y-34190D01*
X11402Y-33997D01*
X11403Y-33996D01*
X11448Y-33888D01*
X11494Y-33658D01*
X11494Y-33628D01*
X11500Y-33600D01*
X11500Y-28200D01*
X11500Y-22800D01*
X11494Y-22771D01*
X11494Y-22741D01*
X11448Y-22511D01*
X11403Y-22403D01*
X11402Y-22402D01*
X11274Y-22209D01*
X11273Y-22208D01*
X11190Y-22125D01*
X10996Y-21996D01*
X10887Y-21951D01*
X10886Y-21951D01*
X10658Y-21905D01*
X10657Y-21905D01*
X10487Y-21871D01*
X10391Y-21807D01*
X10328Y-21713D01*
X10300Y-21570D01*
X10300Y-13029D01*
X10509Y-11970D01*
X11092Y-11096D01*
X11971Y-10510D01*
X13034Y-10300D01*
X54970Y-10300D01*
X56029Y-10509D01*
X56903Y-11092D01*
X57489Y-11971D01*
X57700Y-13034D01*
X57700Y-33171D01*
X57671Y-33312D01*
X57607Y-33408D01*
X57513Y-33471D01*
X57342Y-33505D01*
X57341Y-33505D01*
X57111Y-33551D01*
X57003Y-33596D01*
X57002Y-33597D01*
X56809Y-33725D01*
X56808Y-33726D01*
X56725Y-33809D01*
X56708Y-33834D01*
X56462Y-33587D01*
X56364Y-33522D01*
X56250Y-33500D01*
X56079Y-33500D01*
X56051Y-33432D01*
X55868Y-33249D01*
X55629Y-33150D01*
X55371Y-33149D01*
X55132Y-33248D01*
X54949Y-33431D01*
X54850Y-33670D01*
X54849Y-33928D01*
X54948Y-34167D01*
X55131Y-34350D01*
X55370Y-34449D01*
X55628Y-34450D01*
X55867Y-34351D01*
X56050Y-34168D01*
X56079Y-34100D01*
X56125Y-34100D01*
X56250Y-34224D01*
X56250Y-53575D01*
X56200Y-53625D01*
X56200Y-53021D01*
X56101Y-52782D01*
X55918Y-52599D01*
X55679Y-52500D01*
X55421Y-52499D01*
X55352Y-52528D01*
X52850Y-50025D01*
X52850Y-47729D01*
X52917Y-47701D01*
X53100Y-47518D01*
X53147Y-47405D01*
X53212Y-47362D01*
X54277Y-46296D01*
X54287Y-46312D01*
X54928Y-46952D01*
X54900Y-47020D01*
X54899Y-47278D01*
X54998Y-47517D01*
X55181Y-47700D01*
X55420Y-47799D01*
X55678Y-47800D01*
X55917Y-47701D01*
X56100Y-47518D01*
X56199Y-47279D01*
X56200Y-47021D01*
X56101Y-46782D01*
X55918Y-46599D01*
X55679Y-46500D01*
X55421Y-46499D01*
X55352Y-46528D01*
X54800Y-45975D01*
X54800Y-40004D01*
X55250Y-40454D01*
X55250Y-40570D01*
X55182Y-40598D01*
X54999Y-40781D01*
X54900Y-41020D01*
X54899Y-41278D01*
X54998Y-41517D01*
X55181Y-41700D01*
X55420Y-41799D01*
X55678Y-41800D01*
X55917Y-41701D01*
X56100Y-41518D01*
X56199Y-41279D01*
X56200Y-41021D01*
X56101Y-40782D01*
X55918Y-40599D01*
X55850Y-40570D01*
X55850Y-40330D01*
X55849Y-40329D01*
X55827Y-40215D01*
X55762Y-40117D01*
X55762Y-40117D01*
X53732Y-38087D01*
X53665Y-38043D01*
X53712Y-38012D01*
X55762Y-35962D01*
X55827Y-35864D01*
X55827Y-35864D01*
X55849Y-35750D01*
X55850Y-35750D01*
X55850Y-35729D01*
X55917Y-35701D01*
X56100Y-35518D01*
X56199Y-35279D01*
X56200Y-35021D01*
X56101Y-34782D01*
X55918Y-34599D01*
X55679Y-34500D01*
X55421Y-34499D01*
X55182Y-34598D01*
X54999Y-34781D01*
X54900Y-35020D01*
X54899Y-35278D01*
X54998Y-35517D01*
X55178Y-35697D01*
X53375Y-37500D01*
X53244Y-37500D01*
X54162Y-36582D01*
X54162Y-36582D01*
X54227Y-36484D01*
X54249Y-36370D01*
X54250Y-36370D01*
X54250Y-32674D01*
X55762Y-31162D01*
X55762Y-31162D01*
X55827Y-31064D01*
X55849Y-30950D01*
X55850Y-30950D01*
X55850Y-29729D01*
X55917Y-29701D01*
X56100Y-29518D01*
X56199Y-29279D01*
X56200Y-29021D01*
X56101Y-28782D01*
X55918Y-28599D01*
X55679Y-28500D01*
X55421Y-28499D01*
X55182Y-28598D01*
X54999Y-28781D01*
X54900Y-29020D01*
X54899Y-29278D01*
X54998Y-29517D01*
X55181Y-29700D01*
X55250Y-29729D01*
X55250Y-30825D01*
X53950Y-32125D01*
X53950Y-26974D01*
X55762Y-25162D01*
X55762Y-25162D01*
X55827Y-25064D01*
X55849Y-24950D01*
X55850Y-24950D01*
X55850Y-23729D01*
X55917Y-23701D01*
X56100Y-23518D01*
X56199Y-23279D01*
X56200Y-23021D01*
X56101Y-22782D01*
X55918Y-22599D01*
X55679Y-22500D01*
X55421Y-22499D01*
X55182Y-22598D01*
X54999Y-22781D01*
X54900Y-23020D01*
X54899Y-23278D01*
X54998Y-23517D01*
X55181Y-23700D01*
X55250Y-23729D01*
X55250Y-24825D01*
X53500Y-26575D01*
X52850Y-25925D01*
X52850Y-23729D01*
X52917Y-23701D01*
X53100Y-23518D01*
X53199Y-23279D01*
X53200Y-23021D01*
X53101Y-22782D01*
X52918Y-22599D01*
X52850Y-22570D01*
X52850Y-22074D01*
X55762Y-19162D01*
X55762Y-19162D01*
X55827Y-19064D01*
X55849Y-18950D01*
X55850Y-18950D01*
X55850Y-17729D01*
X55917Y-17701D01*
X56100Y-17518D01*
X56199Y-17279D01*
X56200Y-17021D01*
X56101Y-16782D01*
X55918Y-16599D01*
X55679Y-16500D01*
X55421Y-16499D01*
X55182Y-16598D01*
X54999Y-16781D01*
X54900Y-17020D01*
X54899Y-17278D01*
X54998Y-17517D01*
X55181Y-17700D01*
X55250Y-17729D01*
X55250Y-18825D01*
X52337Y-21737D01*
X52272Y-21835D01*
X52250Y-21950D01*
X52250Y-22570D01*
X52182Y-22598D01*
X51999Y-22781D01*
X51900Y-23020D01*
X51899Y-23278D01*
X51998Y-23517D01*
X52181Y-23700D01*
X52250Y-23729D01*
X52250Y-26050D01*
X52272Y-26164D01*
X52337Y-26262D01*
X53050Y-26974D01*
X53050Y-35845D01*
X52990Y-35905D01*
X52912Y-35872D01*
X52812Y-35872D01*
X51151Y-35872D01*
X52412Y-34612D01*
X52412Y-34612D01*
X52477Y-34514D01*
X52499Y-34400D01*
X52500Y-34400D01*
X52500Y-34379D01*
X52567Y-34351D01*
X52750Y-34168D01*
X52849Y-33929D01*
X52850Y-33671D01*
X52751Y-33432D01*
X52568Y-33249D01*
X52500Y-33220D01*
X52500Y-32900D01*
X52477Y-32785D01*
X52412Y-32687D01*
X52412Y-32687D01*
X50650Y-30925D01*
X50650Y-20994D01*
X55762Y-15882D01*
X55762Y-15882D01*
X55827Y-15784D01*
X55849Y-15670D01*
X55850Y-15670D01*
X55850Y-11729D01*
X55917Y-11701D01*
X56100Y-11518D01*
X56199Y-11279D01*
X56200Y-11021D01*
X56101Y-10782D01*
X55918Y-10599D01*
X55679Y-10500D01*
X55421Y-10499D01*
X55182Y-10598D01*
X54999Y-10781D01*
X54900Y-11020D01*
X54899Y-11278D01*
X54998Y-11517D01*
X55181Y-11700D01*
X55250Y-11729D01*
X55250Y-15545D01*
X53450Y-17345D01*
X53450Y-15712D01*
X53229Y-15179D01*
X52822Y-14771D01*
X52289Y-14550D01*
X51712Y-14549D01*
X51179Y-14770D01*
X50771Y-15177D01*
X50550Y-15710D01*
X50549Y-16287D01*
X50770Y-16820D01*
X51177Y-17228D01*
X51710Y-17449D01*
X52287Y-17450D01*
X52820Y-17229D01*
X53228Y-16822D01*
X53449Y-16289D01*
X53450Y-15712D01*
X53450Y-17345D01*
X50137Y-20657D01*
X50072Y-20755D01*
X50050Y-20870D01*
X50050Y-31050D01*
X50072Y-31164D01*
X50137Y-31262D01*
X51900Y-33024D01*
X51900Y-33220D01*
X51832Y-33248D01*
X51649Y-33431D01*
X51550Y-33670D01*
X51549Y-33928D01*
X51648Y-34167D01*
X51828Y-34347D01*
X50256Y-35919D01*
X50248Y-35911D01*
X50156Y-35872D01*
X50056Y-35872D01*
X48450Y-35872D01*
X48450Y-22418D01*
X48450Y-21513D01*
X48450Y-19387D01*
X48450Y-18481D01*
X48412Y-18390D01*
X48342Y-18319D01*
X48250Y-18281D01*
X48151Y-18281D01*
X47450Y-18281D01*
X47450Y-12712D01*
X47229Y-12179D01*
X46822Y-11771D01*
X46289Y-11550D01*
X45712Y-11549D01*
X45179Y-11770D01*
X44771Y-12177D01*
X44550Y-12710D01*
X44549Y-13287D01*
X44770Y-13820D01*
X45177Y-14228D01*
X45710Y-14449D01*
X46287Y-14450D01*
X46820Y-14229D01*
X47228Y-13822D01*
X47449Y-13289D01*
X47450Y-12712D01*
X47450Y-18281D01*
X45946Y-18281D01*
X45854Y-18319D01*
X45784Y-18389D01*
X45746Y-18481D01*
X45746Y-18581D01*
X45746Y-19486D01*
X45783Y-19578D01*
X45854Y-19648D01*
X45946Y-19686D01*
X46045Y-19687D01*
X48250Y-19687D01*
X48342Y-19649D01*
X48412Y-19578D01*
X48450Y-19486D01*
X48450Y-19387D01*
X48450Y-21513D01*
X48412Y-21421D01*
X48342Y-21351D01*
X48250Y-21313D01*
X48151Y-21312D01*
X45946Y-21312D01*
X45854Y-21350D01*
X45784Y-21421D01*
X45746Y-21513D01*
X45746Y-21612D01*
X45746Y-22518D01*
X45783Y-22609D01*
X45854Y-22680D01*
X45946Y-22718D01*
X46045Y-22718D01*
X48250Y-22718D01*
X48342Y-22680D01*
X48412Y-22610D01*
X48450Y-22518D01*
X48450Y-22418D01*
X48450Y-35872D01*
X48088Y-35872D01*
X48000Y-35909D01*
X48000Y-35780D01*
X47999Y-35779D01*
X47977Y-35665D01*
X47912Y-35567D01*
X47912Y-35567D01*
X47582Y-35237D01*
X47484Y-35172D01*
X47450Y-35165D01*
X47450Y-30712D01*
X47229Y-30179D01*
X46822Y-29771D01*
X46289Y-29550D01*
X45712Y-29549D01*
X45419Y-29671D01*
X45419Y-21218D01*
X45419Y-20667D01*
X45381Y-20575D01*
X45311Y-20504D01*
X45299Y-20500D01*
X45311Y-20495D01*
X45381Y-20424D01*
X45419Y-20332D01*
X45419Y-19682D01*
X45381Y-19590D01*
X45311Y-19520D01*
X45219Y-19482D01*
X45119Y-19482D01*
X44587Y-19482D01*
X44525Y-19544D01*
X44525Y-19982D01*
X45356Y-19982D01*
X45419Y-19920D01*
X45419Y-19682D01*
X45419Y-20332D01*
X45419Y-20095D01*
X45356Y-20032D01*
X44525Y-20032D01*
X44525Y-20040D01*
X44475Y-20040D01*
X44475Y-20032D01*
X44475Y-19982D01*
X44475Y-19544D01*
X44412Y-19482D01*
X43880Y-19482D01*
X43780Y-19482D01*
X43688Y-19520D01*
X43618Y-19590D01*
X43580Y-19682D01*
X43580Y-19920D01*
X43643Y-19982D01*
X44475Y-19982D01*
X44475Y-20032D01*
X43643Y-20032D01*
X43580Y-20095D01*
X43580Y-20332D01*
X43618Y-20424D01*
X43688Y-20495D01*
X43700Y-20499D01*
X43689Y-20504D01*
X43618Y-20574D01*
X43601Y-20617D01*
X43375Y-20617D01*
X43375Y-19205D01*
X43424Y-19084D01*
X43425Y-18915D01*
X43360Y-18759D01*
X43241Y-18639D01*
X43084Y-18575D01*
X42915Y-18574D01*
X42759Y-18639D01*
X42639Y-18758D01*
X42575Y-18915D01*
X42574Y-19084D01*
X42625Y-19205D01*
X42625Y-20800D01*
X42653Y-20943D01*
X42734Y-21065D01*
X42926Y-21257D01*
X43048Y-21338D01*
X43192Y-21367D01*
X43601Y-21367D01*
X43618Y-21409D01*
X43688Y-21479D01*
X43780Y-21517D01*
X43880Y-21517D01*
X45218Y-21517D01*
X45310Y-21479D01*
X45381Y-21409D01*
X45419Y-21317D01*
X45419Y-21218D01*
X45419Y-29671D01*
X45179Y-29770D01*
X44771Y-30177D01*
X44550Y-30710D01*
X44549Y-31287D01*
X44770Y-31820D01*
X45177Y-32228D01*
X45710Y-32449D01*
X46287Y-32450D01*
X46820Y-32229D01*
X47228Y-31822D01*
X47449Y-31289D01*
X47450Y-30712D01*
X47450Y-35165D01*
X47370Y-35150D01*
X43425Y-35150D01*
X43425Y-30915D01*
X43425Y-24915D01*
X43360Y-24759D01*
X43241Y-24639D01*
X43084Y-24575D01*
X42915Y-24574D01*
X42794Y-24625D01*
X42450Y-24625D01*
X42450Y-24350D01*
X42412Y-24258D01*
X42341Y-24188D01*
X42249Y-24150D01*
X42150Y-24149D01*
X40950Y-24149D01*
X40858Y-24187D01*
X40788Y-24258D01*
X40750Y-24350D01*
X40749Y-24449D01*
X40749Y-25649D01*
X40787Y-25741D01*
X40858Y-25811D01*
X40950Y-25849D01*
X41049Y-25850D01*
X42249Y-25850D01*
X42341Y-25812D01*
X42411Y-25741D01*
X42449Y-25649D01*
X42450Y-25550D01*
X42450Y-25375D01*
X42794Y-25375D01*
X42915Y-25424D01*
X43084Y-25425D01*
X43240Y-25360D01*
X43360Y-25241D01*
X43424Y-25084D01*
X43425Y-24915D01*
X43425Y-30915D01*
X43360Y-30759D01*
X43241Y-30639D01*
X43084Y-30575D01*
X42915Y-30574D01*
X42794Y-30625D01*
X42450Y-30625D01*
X42450Y-30350D01*
X42412Y-30258D01*
X42341Y-30188D01*
X42249Y-30150D01*
X42150Y-30149D01*
X40950Y-30149D01*
X40858Y-30187D01*
X40788Y-30258D01*
X40750Y-30350D01*
X40749Y-30449D01*
X40749Y-31649D01*
X40787Y-31741D01*
X40858Y-31811D01*
X40950Y-31849D01*
X41049Y-31850D01*
X42249Y-31850D01*
X42341Y-31812D01*
X42411Y-31741D01*
X42449Y-31649D01*
X42450Y-31550D01*
X42450Y-31375D01*
X42794Y-31375D01*
X42915Y-31424D01*
X43084Y-31425D01*
X43240Y-31360D01*
X43360Y-31241D01*
X43424Y-31084D01*
X43425Y-30915D01*
X43425Y-35150D01*
X40674Y-35150D01*
X39250Y-33725D01*
X39250Y-31550D01*
X39250Y-30449D01*
X39250Y-25550D01*
X39250Y-24449D01*
X39249Y-24350D01*
X39211Y-24258D01*
X39141Y-24187D01*
X39049Y-24149D01*
X38487Y-24150D01*
X38425Y-24212D01*
X38425Y-24975D01*
X39187Y-24975D01*
X39250Y-24912D01*
X39250Y-24449D01*
X39250Y-25550D01*
X39250Y-25087D01*
X39187Y-25025D01*
X38425Y-25025D01*
X38425Y-25787D01*
X38487Y-25850D01*
X39049Y-25850D01*
X39141Y-25812D01*
X39211Y-25741D01*
X39249Y-25649D01*
X39250Y-25550D01*
X39250Y-30449D01*
X39249Y-30350D01*
X39211Y-30258D01*
X39141Y-30187D01*
X39049Y-30149D01*
X38487Y-30150D01*
X38425Y-30212D01*
X38425Y-30975D01*
X39187Y-30975D01*
X39250Y-30912D01*
X39250Y-30449D01*
X39250Y-31550D01*
X39250Y-31087D01*
X39187Y-31025D01*
X38425Y-31025D01*
X38425Y-31787D01*
X38487Y-31850D01*
X39049Y-31850D01*
X39141Y-31812D01*
X39211Y-31741D01*
X39249Y-31649D01*
X39250Y-31550D01*
X39250Y-33725D01*
X38375Y-32850D01*
X38375Y-31787D01*
X38375Y-31025D01*
X38375Y-30975D01*
X38375Y-30212D01*
X38375Y-25787D01*
X38375Y-25025D01*
X38375Y-24975D01*
X38375Y-24212D01*
X38312Y-24150D01*
X37750Y-24149D01*
X37658Y-24187D01*
X37588Y-24258D01*
X37550Y-24350D01*
X37549Y-24449D01*
X37550Y-24912D01*
X37612Y-24975D01*
X38375Y-24975D01*
X38375Y-25025D01*
X37612Y-25025D01*
X37550Y-25087D01*
X37549Y-25550D01*
X37550Y-25649D01*
X37588Y-25741D01*
X37658Y-25812D01*
X37750Y-25850D01*
X38312Y-25850D01*
X38375Y-25787D01*
X38375Y-30212D01*
X38312Y-30150D01*
X37750Y-30149D01*
X37658Y-30187D01*
X37588Y-30258D01*
X37550Y-30350D01*
X37549Y-30449D01*
X37550Y-30912D01*
X37612Y-30975D01*
X38375Y-30975D01*
X38375Y-31025D01*
X37612Y-31025D01*
X37550Y-31087D01*
X37549Y-31550D01*
X37550Y-31649D01*
X37588Y-31741D01*
X37658Y-31812D01*
X37750Y-31850D01*
X38312Y-31850D01*
X38375Y-31787D01*
X38375Y-32850D01*
X36312Y-30787D01*
X36247Y-30744D01*
X36212Y-30658D01*
X36141Y-30588D01*
X36049Y-30550D01*
X35950Y-30549D01*
X35150Y-30549D01*
X35114Y-30564D01*
X35112Y-30558D01*
X35041Y-30488D01*
X34949Y-30450D01*
X34850Y-30449D01*
X34050Y-30449D01*
X33999Y-30470D01*
X33949Y-30450D01*
X33850Y-30449D01*
X33050Y-30449D01*
X32958Y-30487D01*
X32888Y-30558D01*
X32885Y-30564D01*
X32849Y-30550D01*
X32750Y-30549D01*
X31950Y-30549D01*
X31858Y-30587D01*
X31788Y-30658D01*
X31770Y-30700D01*
X31425Y-30700D01*
X31425Y-18915D01*
X31425Y-12915D01*
X31360Y-12759D01*
X31241Y-12639D01*
X31084Y-12575D01*
X30915Y-12574D01*
X30794Y-12625D01*
X30450Y-12625D01*
X30450Y-12350D01*
X30412Y-12258D01*
X30341Y-12188D01*
X30249Y-12150D01*
X30150Y-12149D01*
X28950Y-12149D01*
X28858Y-12187D01*
X28788Y-12258D01*
X28750Y-12350D01*
X28749Y-12449D01*
X28749Y-13649D01*
X28787Y-13741D01*
X28858Y-13811D01*
X28950Y-13849D01*
X29049Y-13850D01*
X30249Y-13850D01*
X30341Y-13812D01*
X30411Y-13741D01*
X30449Y-13649D01*
X30450Y-13550D01*
X30450Y-13375D01*
X30794Y-13375D01*
X30915Y-13424D01*
X31084Y-13425D01*
X31240Y-13360D01*
X31360Y-13241D01*
X31424Y-13084D01*
X31425Y-12915D01*
X31425Y-18915D01*
X31360Y-18759D01*
X31241Y-18639D01*
X31084Y-18575D01*
X30915Y-18574D01*
X30794Y-18625D01*
X30450Y-18625D01*
X30450Y-18350D01*
X30412Y-18258D01*
X30341Y-18188D01*
X30249Y-18150D01*
X30150Y-18149D01*
X28950Y-18149D01*
X28858Y-18187D01*
X28788Y-18258D01*
X28750Y-18350D01*
X28749Y-18449D01*
X28749Y-19649D01*
X28787Y-19741D01*
X28858Y-19811D01*
X28950Y-19849D01*
X29049Y-19850D01*
X30249Y-19850D01*
X30341Y-19812D01*
X30411Y-19741D01*
X30449Y-19649D01*
X30450Y-19550D01*
X30450Y-19375D01*
X30794Y-19375D01*
X30915Y-19424D01*
X31084Y-19425D01*
X31240Y-19360D01*
X31360Y-19241D01*
X31424Y-19084D01*
X31425Y-18915D01*
X31425Y-30700D01*
X28684Y-30700D01*
X27250Y-29265D01*
X27250Y-19550D01*
X27250Y-18449D01*
X27250Y-13550D01*
X27250Y-12449D01*
X27249Y-12350D01*
X27211Y-12258D01*
X27141Y-12187D01*
X27049Y-12149D01*
X26487Y-12150D01*
X26425Y-12212D01*
X26425Y-12975D01*
X27187Y-12975D01*
X27250Y-12912D01*
X27250Y-12449D01*
X27250Y-13550D01*
X27250Y-13087D01*
X27187Y-13025D01*
X26425Y-13025D01*
X26425Y-13787D01*
X26487Y-13850D01*
X27049Y-13850D01*
X27141Y-13812D01*
X27211Y-13741D01*
X27249Y-13649D01*
X27250Y-13550D01*
X27250Y-18449D01*
X27249Y-18350D01*
X27211Y-18258D01*
X27141Y-18187D01*
X27049Y-18149D01*
X26487Y-18150D01*
X26425Y-18212D01*
X26425Y-18975D01*
X27187Y-18975D01*
X27250Y-18912D01*
X27250Y-18449D01*
X27250Y-19550D01*
X27250Y-19087D01*
X27187Y-19025D01*
X26425Y-19025D01*
X26425Y-19787D01*
X26487Y-19850D01*
X27049Y-19850D01*
X27141Y-19812D01*
X27211Y-19741D01*
X27249Y-19649D01*
X27250Y-19550D01*
X27250Y-29265D01*
X26375Y-28390D01*
X26375Y-19787D01*
X26375Y-19025D01*
X26375Y-18975D01*
X26375Y-18212D01*
X26375Y-13787D01*
X26375Y-13025D01*
X26375Y-12975D01*
X26375Y-12212D01*
X26312Y-12150D01*
X25750Y-12149D01*
X25658Y-12187D01*
X25588Y-12258D01*
X25550Y-12350D01*
X25549Y-12449D01*
X25550Y-12912D01*
X25612Y-12975D01*
X26375Y-12975D01*
X26375Y-13025D01*
X25612Y-13025D01*
X25550Y-13087D01*
X25549Y-13550D01*
X25550Y-13649D01*
X25588Y-13741D01*
X25658Y-13812D01*
X25750Y-13850D01*
X26312Y-13850D01*
X26375Y-13787D01*
X26375Y-18212D01*
X26312Y-18150D01*
X25750Y-18149D01*
X25658Y-18187D01*
X25588Y-18258D01*
X25550Y-18350D01*
X25549Y-18449D01*
X25550Y-18912D01*
X25612Y-18975D01*
X26375Y-18975D01*
X26375Y-19025D01*
X25612Y-19025D01*
X25550Y-19087D01*
X25549Y-19550D01*
X25550Y-19649D01*
X25588Y-19741D01*
X25658Y-19812D01*
X25750Y-19850D01*
X26312Y-19850D01*
X26375Y-19787D01*
X26375Y-28390D01*
X24419Y-26435D01*
X24419Y-21317D01*
X24419Y-20667D01*
X24381Y-20575D01*
X24311Y-20504D01*
X24299Y-20500D01*
X24310Y-20495D01*
X24381Y-20425D01*
X24419Y-20333D01*
X24419Y-20233D01*
X24419Y-19682D01*
X24381Y-19590D01*
X24311Y-19520D01*
X24219Y-19482D01*
X24119Y-19482D01*
X23875Y-19482D01*
X23875Y-19205D01*
X23924Y-19084D01*
X23925Y-18915D01*
X23860Y-18759D01*
X23741Y-18639D01*
X23584Y-18575D01*
X23450Y-18574D01*
X23450Y-12712D01*
X23229Y-12179D01*
X22822Y-11771D01*
X22289Y-11550D01*
X21712Y-11549D01*
X21179Y-11770D01*
X20771Y-12177D01*
X20550Y-12710D01*
X20549Y-13287D01*
X20770Y-13820D01*
X21177Y-14228D01*
X21710Y-14449D01*
X22287Y-14450D01*
X22820Y-14229D01*
X23228Y-13822D01*
X23449Y-13289D01*
X23450Y-12712D01*
X23450Y-18574D01*
X23415Y-18574D01*
X23259Y-18639D01*
X23139Y-18758D01*
X23075Y-18915D01*
X23074Y-19084D01*
X23125Y-19205D01*
X23125Y-19482D01*
X22781Y-19482D01*
X22689Y-19520D01*
X22618Y-19590D01*
X22580Y-19682D01*
X22580Y-19781D01*
X22580Y-20332D01*
X22618Y-20424D01*
X22688Y-20495D01*
X22700Y-20500D01*
X22688Y-20504D01*
X22618Y-20575D01*
X22580Y-20667D01*
X22580Y-20904D01*
X22643Y-20967D01*
X23475Y-20967D01*
X23475Y-20959D01*
X23525Y-20959D01*
X23525Y-20967D01*
X24356Y-20967D01*
X24419Y-20904D01*
X24419Y-20667D01*
X24419Y-21317D01*
X24419Y-21079D01*
X24356Y-21017D01*
X23525Y-21017D01*
X23525Y-21455D01*
X23587Y-21517D01*
X24119Y-21517D01*
X24219Y-21517D01*
X24311Y-21479D01*
X24381Y-21409D01*
X24419Y-21317D01*
X24419Y-26435D01*
X23475Y-25490D01*
X23475Y-21455D01*
X23475Y-21017D01*
X22643Y-21017D01*
X22580Y-21079D01*
X22580Y-21317D01*
X22618Y-21409D01*
X22688Y-21479D01*
X22780Y-21517D01*
X22880Y-21517D01*
X23412Y-21517D01*
X23475Y-21455D01*
X23475Y-25490D01*
X22253Y-24269D01*
X22253Y-22418D01*
X22253Y-21513D01*
X22253Y-19387D01*
X22253Y-18481D01*
X22216Y-18390D01*
X22145Y-18319D01*
X22053Y-18281D01*
X21954Y-18281D01*
X19749Y-18281D01*
X19657Y-18319D01*
X19587Y-18389D01*
X19549Y-18481D01*
X19549Y-18581D01*
X19549Y-19486D01*
X19587Y-19578D01*
X19657Y-19648D01*
X19749Y-19686D01*
X19848Y-19687D01*
X22053Y-19687D01*
X22145Y-19649D01*
X22215Y-19578D01*
X22253Y-19486D01*
X22253Y-19387D01*
X22253Y-21513D01*
X22216Y-21421D01*
X22145Y-21351D01*
X22053Y-21313D01*
X21954Y-21312D01*
X19749Y-21312D01*
X19657Y-21350D01*
X19587Y-21421D01*
X19549Y-21513D01*
X19549Y-21612D01*
X19549Y-22518D01*
X19587Y-22609D01*
X19657Y-22680D01*
X19749Y-22718D01*
X19848Y-22718D01*
X22053Y-22718D01*
X22145Y-22680D01*
X22215Y-22610D01*
X22253Y-22518D01*
X22253Y-22418D01*
X22253Y-24269D01*
X21872Y-23887D01*
X21774Y-23822D01*
X21660Y-23800D01*
X17750Y-23800D01*
X17635Y-23822D01*
X17537Y-23887D01*
X17152Y-24272D01*
X17056Y-24272D01*
X16422Y-24272D01*
X16422Y-24052D01*
X16824Y-23650D01*
X18350Y-23650D01*
X18350Y-23649D01*
X18464Y-23627D01*
X18464Y-23627D01*
X18562Y-23562D01*
X18862Y-23262D01*
X18862Y-23262D01*
X18927Y-23164D01*
X18949Y-23050D01*
X18950Y-23050D01*
X18950Y-18374D01*
X19874Y-17450D01*
X21420Y-17450D01*
X21448Y-17517D01*
X21631Y-17700D01*
X21870Y-17799D01*
X22128Y-17800D01*
X22367Y-17701D01*
X22550Y-17518D01*
X22649Y-17279D01*
X22650Y-17021D01*
X22551Y-16782D01*
X22368Y-16599D01*
X22300Y-16570D01*
X22300Y-15700D01*
X22277Y-15585D01*
X22212Y-15487D01*
X22212Y-15487D01*
X21962Y-15237D01*
X21864Y-15172D01*
X21750Y-15150D01*
X19574Y-15150D01*
X19250Y-14825D01*
X19250Y-11950D01*
X19249Y-11949D01*
X19227Y-11835D01*
X19162Y-11737D01*
X19162Y-11737D01*
X18362Y-10937D01*
X18264Y-10872D01*
X18150Y-10850D01*
X13579Y-10850D01*
X13551Y-10782D01*
X13368Y-10599D01*
X13129Y-10500D01*
X12871Y-10499D01*
X12632Y-10598D01*
X12449Y-10781D01*
X12350Y-11020D01*
X12349Y-11278D01*
X12448Y-11517D01*
X12631Y-11700D01*
X12870Y-11799D01*
X13128Y-11800D01*
X13367Y-11701D01*
X13550Y-11518D01*
X13579Y-11450D01*
X18025Y-11450D01*
X18650Y-12074D01*
X18650Y-14950D01*
X18672Y-15064D01*
X18737Y-15162D01*
X19237Y-15662D01*
X19237Y-15662D01*
X19335Y-15727D01*
X19450Y-15750D01*
X21625Y-15750D01*
X21700Y-15824D01*
X21700Y-16570D01*
X21632Y-16598D01*
X21449Y-16781D01*
X21420Y-16850D01*
X19750Y-16850D01*
X19635Y-16872D01*
X19537Y-16937D01*
X18437Y-18037D01*
X18372Y-18135D01*
X18350Y-18250D01*
X18350Y-22925D01*
X18225Y-23050D01*
X17450Y-23050D01*
X17450Y-15712D01*
X17229Y-15179D01*
X16822Y-14771D01*
X16289Y-14550D01*
X15712Y-14549D01*
X15179Y-14770D01*
X14771Y-15177D01*
X14550Y-15710D01*
X14549Y-16287D01*
X14770Y-16820D01*
X15177Y-17228D01*
X15710Y-17449D01*
X16287Y-17450D01*
X16820Y-17229D01*
X17228Y-16822D01*
X17449Y-16289D01*
X17450Y-15712D01*
X17450Y-23050D01*
X16700Y-23050D01*
X16585Y-23072D01*
X16487Y-23137D01*
X15909Y-23715D01*
X15844Y-23813D01*
X15822Y-23927D01*
X15822Y-24272D01*
X15088Y-24272D01*
X14996Y-24310D01*
X14925Y-24381D01*
X14887Y-24472D01*
X14887Y-24572D01*
X14887Y-24813D01*
X14750Y-24675D01*
X14750Y-23424D01*
X16212Y-21962D01*
X16212Y-21962D01*
X16277Y-21864D01*
X16299Y-21750D01*
X16300Y-21750D01*
X16300Y-20729D01*
X16367Y-20701D01*
X16550Y-20518D01*
X16649Y-20279D01*
X16650Y-20021D01*
X16551Y-19782D01*
X16368Y-19599D01*
X16129Y-19500D01*
X15871Y-19499D01*
X15632Y-19598D01*
X15449Y-19781D01*
X15420Y-19850D01*
X13699Y-19850D01*
X13300Y-19450D01*
X13300Y-17729D01*
X13367Y-17701D01*
X13550Y-17518D01*
X13649Y-17279D01*
X13650Y-17021D01*
X13551Y-16782D01*
X13368Y-16599D01*
X13129Y-16500D01*
X12871Y-16499D01*
X12632Y-16598D01*
X12449Y-16781D01*
X12350Y-17020D01*
X12349Y-17278D01*
X12448Y-17517D01*
X12631Y-17700D01*
X12700Y-17729D01*
X12700Y-19575D01*
X12722Y-19689D01*
X12787Y-19787D01*
X13362Y-20362D01*
X13362Y-20362D01*
X13460Y-20427D01*
X13574Y-20449D01*
X13575Y-20450D01*
X15420Y-20450D01*
X15448Y-20517D01*
X15631Y-20700D01*
X15700Y-20729D01*
X15700Y-21625D01*
X14237Y-23087D01*
X14172Y-23185D01*
X14150Y-23300D01*
X14150Y-24515D01*
X13345Y-23710D01*
X13367Y-23701D01*
X13550Y-23518D01*
X13649Y-23279D01*
X13650Y-23021D01*
X13551Y-22782D01*
X13368Y-22599D01*
X13129Y-22500D01*
X12871Y-22499D01*
X12632Y-22598D01*
X12449Y-22781D01*
X12350Y-23020D01*
X12349Y-23278D01*
X12448Y-23517D01*
X12631Y-23700D01*
X12700Y-23729D01*
X12700Y-23790D01*
X12722Y-23904D01*
X12787Y-24002D01*
X14697Y-25912D01*
X14697Y-25912D01*
X14779Y-25966D01*
X14747Y-25987D01*
X12787Y-27947D01*
X12722Y-28045D01*
X12700Y-28160D01*
X12700Y-28570D01*
X12632Y-28598D01*
X12449Y-28781D01*
X12350Y-29020D01*
X12349Y-29278D01*
X12448Y-29517D01*
X12631Y-29700D01*
X12870Y-29799D01*
X13128Y-29800D01*
X13340Y-29712D01*
X13340Y-34385D01*
X13197Y-34528D01*
X13129Y-34500D01*
X12871Y-34499D01*
X12632Y-34598D01*
X12449Y-34781D01*
X12350Y-35020D01*
X12349Y-35278D01*
X12448Y-35517D01*
X12631Y-35700D01*
X12870Y-35799D01*
X13128Y-35800D01*
X13367Y-35701D01*
X13550Y-35518D01*
X13649Y-35279D01*
X13650Y-35021D01*
X13621Y-34952D01*
X13655Y-34919D01*
X13655Y-40070D01*
X13197Y-40528D01*
X13129Y-40500D01*
X12871Y-40499D01*
X12632Y-40598D01*
X12449Y-40781D01*
X12350Y-41020D01*
X12349Y-41278D01*
X12448Y-41517D01*
X12631Y-41700D01*
X12870Y-41799D01*
X13128Y-41800D01*
X13367Y-41701D01*
X13550Y-41518D01*
X13649Y-41279D01*
X13650Y-41021D01*
X13621Y-40952D01*
X13965Y-40609D01*
X13965Y-45760D01*
X13197Y-46528D01*
X13129Y-46500D01*
X12871Y-46499D01*
X12632Y-46598D01*
X12449Y-46781D01*
X12350Y-47020D01*
X12349Y-47278D01*
X12448Y-47517D01*
X12631Y-47700D01*
X12870Y-47799D01*
X13128Y-47800D01*
X13367Y-47701D01*
X13550Y-47518D01*
X13649Y-47279D01*
X13650Y-47021D01*
X13621Y-46952D01*
X14477Y-46097D01*
X14477Y-46097D01*
X14542Y-45999D01*
X14564Y-45885D01*
X14565Y-45885D01*
X14565Y-45289D01*
X15700Y-46424D01*
X15700Y-46570D01*
X15632Y-46598D01*
X15449Y-46781D01*
X15350Y-47020D01*
X15349Y-47278D01*
X15448Y-47517D01*
X15631Y-47700D01*
X15700Y-47729D01*
X15700Y-48425D01*
X12787Y-51337D01*
X12722Y-51435D01*
X12700Y-51550D01*
X12700Y-52570D01*
X12632Y-52598D01*
X12449Y-52781D01*
X12350Y-53020D01*
X12349Y-53278D01*
X12448Y-53517D01*
X12631Y-53700D01*
X12870Y-53799D01*
X13128Y-53800D01*
X13367Y-53701D01*
X13550Y-53518D01*
X13649Y-53279D01*
X13650Y-53021D01*
X13551Y-52782D01*
X13368Y-52599D01*
X13300Y-52570D01*
X13300Y-51674D01*
X16212Y-48762D01*
X16212Y-48762D01*
X16277Y-48664D01*
X16299Y-48550D01*
X16300Y-48550D01*
X16300Y-47729D01*
X16367Y-47701D01*
X16550Y-47518D01*
X16579Y-47450D01*
X17050Y-47450D01*
X17050Y-47449D01*
X17164Y-47427D01*
X17164Y-47427D01*
X17262Y-47362D01*
X17808Y-46815D01*
X22580Y-46815D01*
X22580Y-46840D01*
X22618Y-46932D01*
X22688Y-47003D01*
X22700Y-47007D01*
X22689Y-47012D01*
X22618Y-47082D01*
X22580Y-47174D01*
X22580Y-47273D01*
X22580Y-47825D01*
X22618Y-47917D01*
X22688Y-47987D01*
X22700Y-47992D01*
X22688Y-47996D01*
X22618Y-48067D01*
X22580Y-48159D01*
X22580Y-48396D01*
X22643Y-48459D01*
X23475Y-48459D01*
X23475Y-48451D01*
X23525Y-48451D01*
X23525Y-48459D01*
X24356Y-48459D01*
X24419Y-48396D01*
X24419Y-48159D01*
X24381Y-48067D01*
X24311Y-47996D01*
X24299Y-47992D01*
X24310Y-47987D01*
X24381Y-47917D01*
X24398Y-47875D01*
X28794Y-47875D01*
X29069Y-48149D01*
X28950Y-48149D01*
X28858Y-48187D01*
X28788Y-48258D01*
X28750Y-48350D01*
X28749Y-48449D01*
X28749Y-49649D01*
X28787Y-49741D01*
X28858Y-49811D01*
X28950Y-49849D01*
X29049Y-49850D01*
X30249Y-49850D01*
X30341Y-49812D01*
X30411Y-49741D01*
X30449Y-49649D01*
X30450Y-49550D01*
X30450Y-49375D01*
X30794Y-49375D01*
X30915Y-49424D01*
X31084Y-49425D01*
X31240Y-49360D01*
X31360Y-49241D01*
X31424Y-49084D01*
X31425Y-48915D01*
X31425Y-42915D01*
X31360Y-42759D01*
X31241Y-42639D01*
X31084Y-42575D01*
X30915Y-42574D01*
X30794Y-42625D01*
X30450Y-42625D01*
X30450Y-42350D01*
X30412Y-42258D01*
X30341Y-42188D01*
X30249Y-42150D01*
X30150Y-42149D01*
X28950Y-42149D01*
X28858Y-42187D01*
X28788Y-42258D01*
X28750Y-42350D01*
X28749Y-42449D01*
X28749Y-43649D01*
X28787Y-43741D01*
X28858Y-43811D01*
X28950Y-43849D01*
X29049Y-43850D01*
X30249Y-43850D01*
X30341Y-43812D01*
X30411Y-43741D01*
X30449Y-43649D01*
X30450Y-43550D01*
X30450Y-43375D01*
X30794Y-43375D01*
X30915Y-43424D01*
X31084Y-43425D01*
X31240Y-43360D01*
X31360Y-43241D01*
X31424Y-43084D01*
X31425Y-42915D01*
X31425Y-48915D01*
X31360Y-48759D01*
X31241Y-48639D01*
X31084Y-48575D01*
X30915Y-48574D01*
X30794Y-48625D01*
X30450Y-48625D01*
X30450Y-48350D01*
X30412Y-48258D01*
X30341Y-48188D01*
X30249Y-48150D01*
X30150Y-48149D01*
X29974Y-48149D01*
X29946Y-48006D01*
X29865Y-47884D01*
X29865Y-47884D01*
X29215Y-47234D01*
X29093Y-47153D01*
X28950Y-47125D01*
X27250Y-47125D01*
X27250Y-43550D01*
X27250Y-42449D01*
X27249Y-42350D01*
X27211Y-42258D01*
X27141Y-42187D01*
X27049Y-42149D01*
X26487Y-42150D01*
X26425Y-42212D01*
X26425Y-42975D01*
X27187Y-42975D01*
X27250Y-42912D01*
X27250Y-42449D01*
X27250Y-43550D01*
X27250Y-43087D01*
X27187Y-43025D01*
X26425Y-43025D01*
X26425Y-43787D01*
X26487Y-43850D01*
X27049Y-43850D01*
X27141Y-43812D01*
X27211Y-43741D01*
X27249Y-43649D01*
X27250Y-43550D01*
X27250Y-47125D01*
X26375Y-47125D01*
X26375Y-43787D01*
X26375Y-43025D01*
X26375Y-42975D01*
X26375Y-42212D01*
X26312Y-42150D01*
X25750Y-42149D01*
X25658Y-42187D01*
X25588Y-42258D01*
X25550Y-42350D01*
X25549Y-42449D01*
X25550Y-42912D01*
X25612Y-42975D01*
X26375Y-42975D01*
X26375Y-43025D01*
X25612Y-43025D01*
X25550Y-43087D01*
X25549Y-43550D01*
X25550Y-43649D01*
X25588Y-43741D01*
X25658Y-43812D01*
X25750Y-43850D01*
X26312Y-43850D01*
X26375Y-43787D01*
X26375Y-47125D01*
X24398Y-47125D01*
X24381Y-47082D01*
X24311Y-47012D01*
X24299Y-47007D01*
X24310Y-47003D01*
X24381Y-46933D01*
X24419Y-46841D01*
X24419Y-46741D01*
X24419Y-46190D01*
X24381Y-46098D01*
X24311Y-46028D01*
X24219Y-45990D01*
X24119Y-45990D01*
X23450Y-45990D01*
X23450Y-36712D01*
X23229Y-36179D01*
X22822Y-35771D01*
X22289Y-35550D01*
X21712Y-35549D01*
X21179Y-35770D01*
X20771Y-36177D01*
X20550Y-36710D01*
X20549Y-37287D01*
X20770Y-37820D01*
X21177Y-38228D01*
X21710Y-38449D01*
X22287Y-38450D01*
X22820Y-38229D01*
X23228Y-37822D01*
X23449Y-37289D01*
X23450Y-36712D01*
X23450Y-45990D01*
X22781Y-45990D01*
X22689Y-46028D01*
X22618Y-46098D01*
X22580Y-46190D01*
X22580Y-46215D01*
X22253Y-46215D01*
X22253Y-45895D01*
X22253Y-44989D01*
X22216Y-44897D01*
X22145Y-44827D01*
X22053Y-44789D01*
X21954Y-44789D01*
X20112Y-44789D01*
X20112Y-31827D01*
X20112Y-31572D01*
X20112Y-30827D01*
X20112Y-30572D01*
X20112Y-30472D01*
X20074Y-30381D01*
X20003Y-30310D01*
X19911Y-30272D01*
X18965Y-30272D01*
X18902Y-30335D01*
X18902Y-30675D01*
X20049Y-30675D01*
X20112Y-30612D01*
X20112Y-30572D01*
X20112Y-30827D01*
X20112Y-30787D01*
X20049Y-30725D01*
X18902Y-30725D01*
X18902Y-31064D01*
X18965Y-31127D01*
X19911Y-31127D01*
X20003Y-31089D01*
X20074Y-31018D01*
X20112Y-30927D01*
X20112Y-30827D01*
X20112Y-31572D01*
X20112Y-31472D01*
X20074Y-31381D01*
X20003Y-31310D01*
X19911Y-31272D01*
X18965Y-31272D01*
X18902Y-31335D01*
X18902Y-31675D01*
X20049Y-31675D01*
X20112Y-31612D01*
X20112Y-31572D01*
X20112Y-31827D01*
X20112Y-31787D01*
X20049Y-31725D01*
X18902Y-31725D01*
X18902Y-32064D01*
X18965Y-32127D01*
X19911Y-32127D01*
X20003Y-32089D01*
X20074Y-32018D01*
X20112Y-31927D01*
X20112Y-31827D01*
X20112Y-44789D01*
X19950Y-44789D01*
X19950Y-37550D01*
X19950Y-36350D01*
X19912Y-36258D01*
X19841Y-36188D01*
X19749Y-36150D01*
X19650Y-36149D01*
X18852Y-36149D01*
X18852Y-32064D01*
X18852Y-31725D01*
X18852Y-31675D01*
X18852Y-31335D01*
X18852Y-31064D01*
X18852Y-30725D01*
X18852Y-30675D01*
X18852Y-30335D01*
X18790Y-30272D01*
X17844Y-30272D01*
X17752Y-30310D01*
X17681Y-30381D01*
X17643Y-30472D01*
X17643Y-30572D01*
X17643Y-30612D01*
X17706Y-30675D01*
X18852Y-30675D01*
X18852Y-30725D01*
X17706Y-30725D01*
X17643Y-30787D01*
X17643Y-30827D01*
X17643Y-30927D01*
X17681Y-31018D01*
X17752Y-31089D01*
X17844Y-31127D01*
X18790Y-31127D01*
X18852Y-31064D01*
X18852Y-31335D01*
X18790Y-31272D01*
X17844Y-31272D01*
X17752Y-31310D01*
X17681Y-31381D01*
X17643Y-31472D01*
X17643Y-31572D01*
X17643Y-31612D01*
X17706Y-31675D01*
X18852Y-31675D01*
X18852Y-31725D01*
X17706Y-31725D01*
X17643Y-31787D01*
X17643Y-31827D01*
X17643Y-31927D01*
X17681Y-32018D01*
X17752Y-32089D01*
X17844Y-32127D01*
X18790Y-32127D01*
X18852Y-32064D01*
X18852Y-36149D01*
X18450Y-36149D01*
X18358Y-36187D01*
X18288Y-36258D01*
X18250Y-36350D01*
X18249Y-36449D01*
X18249Y-36625D01*
X17905Y-36625D01*
X17784Y-36575D01*
X17615Y-36574D01*
X17459Y-36639D01*
X17356Y-36742D01*
X17356Y-31827D01*
X17356Y-31572D01*
X17356Y-30827D01*
X17356Y-30572D01*
X17356Y-30472D01*
X17318Y-30381D01*
X17247Y-30310D01*
X17155Y-30272D01*
X16209Y-30272D01*
X16147Y-30335D01*
X16147Y-30675D01*
X17293Y-30675D01*
X17356Y-30612D01*
X17356Y-30572D01*
X17356Y-30827D01*
X17356Y-30787D01*
X17293Y-30725D01*
X16147Y-30725D01*
X16147Y-31064D01*
X16209Y-31127D01*
X17155Y-31127D01*
X17247Y-31089D01*
X17318Y-31018D01*
X17356Y-30927D01*
X17356Y-30827D01*
X17356Y-31572D01*
X17356Y-31472D01*
X17318Y-31381D01*
X17247Y-31310D01*
X17155Y-31272D01*
X16209Y-31272D01*
X16147Y-31335D01*
X16147Y-31675D01*
X17293Y-31675D01*
X17356Y-31612D01*
X17356Y-31572D01*
X17356Y-31827D01*
X17356Y-31787D01*
X17293Y-31725D01*
X16147Y-31725D01*
X16147Y-32064D01*
X16209Y-32127D01*
X17155Y-32127D01*
X17247Y-32089D01*
X17318Y-32018D01*
X17356Y-31927D01*
X17356Y-31827D01*
X17356Y-36742D01*
X17339Y-36758D01*
X17275Y-36915D01*
X17274Y-37084D01*
X17339Y-37240D01*
X17458Y-37360D01*
X17615Y-37424D01*
X17784Y-37425D01*
X17905Y-37375D01*
X18249Y-37375D01*
X18249Y-37649D01*
X18287Y-37741D01*
X18358Y-37811D01*
X18450Y-37849D01*
X18549Y-37850D01*
X19749Y-37850D01*
X19841Y-37812D01*
X19911Y-37741D01*
X19949Y-37649D01*
X19950Y-37550D01*
X19950Y-44789D01*
X19749Y-44789D01*
X19657Y-44827D01*
X19587Y-44897D01*
X19549Y-44989D01*
X19549Y-45088D01*
X19549Y-45994D01*
X19587Y-46086D01*
X19657Y-46156D01*
X19749Y-46194D01*
X19848Y-46194D01*
X22053Y-46194D01*
X22145Y-46156D01*
X22215Y-46086D01*
X22253Y-45994D01*
X22253Y-45895D01*
X22253Y-46215D01*
X17684Y-46215D01*
X17569Y-46238D01*
X17472Y-46303D01*
X16925Y-46850D01*
X16750Y-46850D01*
X16750Y-37550D01*
X16750Y-36449D01*
X16749Y-36350D01*
X16711Y-36258D01*
X16641Y-36187D01*
X16549Y-36149D01*
X16097Y-36149D01*
X16097Y-32064D01*
X16097Y-31725D01*
X16097Y-31675D01*
X16097Y-31335D01*
X16097Y-31064D01*
X16097Y-30725D01*
X16097Y-30675D01*
X16097Y-30335D01*
X16034Y-30272D01*
X15088Y-30272D01*
X14996Y-30310D01*
X14925Y-30381D01*
X14887Y-30472D01*
X14887Y-30572D01*
X14887Y-30612D01*
X14950Y-30675D01*
X16097Y-30675D01*
X16097Y-30725D01*
X14950Y-30725D01*
X14887Y-30787D01*
X14887Y-30827D01*
X14887Y-30927D01*
X14925Y-31018D01*
X14996Y-31089D01*
X15088Y-31127D01*
X16034Y-31127D01*
X16097Y-31064D01*
X16097Y-31335D01*
X16034Y-31272D01*
X15088Y-31272D01*
X14996Y-31310D01*
X14925Y-31381D01*
X14887Y-31472D01*
X14887Y-31572D01*
X14887Y-31612D01*
X14950Y-31675D01*
X16097Y-31675D01*
X16097Y-31725D01*
X14950Y-31725D01*
X14887Y-31787D01*
X14887Y-31827D01*
X14887Y-31927D01*
X14925Y-32018D01*
X14996Y-32089D01*
X15088Y-32127D01*
X16034Y-32127D01*
X16097Y-32064D01*
X16097Y-36149D01*
X15987Y-36150D01*
X15925Y-36212D01*
X15925Y-36975D01*
X16687Y-36975D01*
X16750Y-36912D01*
X16750Y-36449D01*
X16750Y-37550D01*
X16750Y-37087D01*
X16687Y-37025D01*
X15925Y-37025D01*
X15925Y-37787D01*
X15987Y-37850D01*
X16549Y-37850D01*
X16641Y-37812D01*
X16711Y-37741D01*
X16749Y-37649D01*
X16750Y-37550D01*
X16750Y-46850D01*
X16579Y-46850D01*
X16551Y-46782D01*
X16368Y-46599D01*
X16300Y-46570D01*
X16300Y-46300D01*
X16277Y-46185D01*
X16212Y-46087D01*
X16212Y-46087D01*
X15875Y-45750D01*
X15875Y-37787D01*
X15875Y-37025D01*
X15875Y-36975D01*
X15875Y-36212D01*
X15812Y-36150D01*
X15250Y-36149D01*
X15158Y-36187D01*
X15088Y-36258D01*
X15050Y-36350D01*
X15049Y-36449D01*
X15050Y-36912D01*
X15112Y-36975D01*
X15875Y-36975D01*
X15875Y-37025D01*
X15112Y-37025D01*
X15050Y-37087D01*
X15049Y-37550D01*
X15050Y-37649D01*
X15088Y-37741D01*
X15158Y-37812D01*
X15250Y-37850D01*
X15812Y-37850D01*
X15875Y-37787D01*
X15875Y-45750D01*
X14880Y-44755D01*
X14880Y-28544D01*
X14887Y-28536D01*
X14887Y-28572D01*
X14887Y-28926D01*
X14925Y-29018D01*
X14995Y-29088D01*
X15087Y-29127D01*
X15187Y-29127D01*
X15747Y-29127D01*
X15747Y-29200D01*
X15747Y-29272D01*
X15088Y-29272D01*
X14996Y-29310D01*
X14925Y-29381D01*
X14887Y-29472D01*
X14887Y-29572D01*
X14887Y-29926D01*
X14925Y-30018D01*
X14995Y-30088D01*
X15087Y-30127D01*
X15187Y-30127D01*
X17155Y-30127D01*
X17247Y-30089D01*
X17318Y-30018D01*
X17356Y-29927D01*
X17356Y-29827D01*
X17356Y-29575D01*
X17643Y-29575D01*
X17643Y-29926D01*
X17681Y-30018D01*
X17751Y-30088D01*
X17843Y-30127D01*
X17943Y-30127D01*
X19911Y-30127D01*
X20003Y-30089D01*
X20074Y-30018D01*
X20112Y-29927D01*
X20112Y-29827D01*
X20112Y-29575D01*
X21651Y-29575D01*
X21179Y-29770D01*
X20771Y-30177D01*
X20550Y-30710D01*
X20549Y-31287D01*
X20770Y-31820D01*
X21177Y-32228D01*
X21710Y-32449D01*
X22287Y-32450D01*
X22820Y-32229D01*
X23228Y-31822D01*
X23449Y-31289D01*
X23450Y-30712D01*
X23229Y-30179D01*
X22822Y-29771D01*
X22349Y-29575D01*
X22862Y-29575D01*
X22889Y-29640D01*
X23008Y-29760D01*
X23165Y-29824D01*
X23334Y-29825D01*
X23490Y-29760D01*
X23610Y-29641D01*
X23674Y-29484D01*
X23675Y-29315D01*
X23628Y-29202D01*
X31637Y-37212D01*
X31637Y-37212D01*
X31735Y-37277D01*
X31763Y-37282D01*
X31787Y-37341D01*
X31858Y-37411D01*
X31950Y-37449D01*
X32049Y-37450D01*
X32849Y-37450D01*
X32885Y-37435D01*
X32887Y-37441D01*
X32958Y-37511D01*
X33050Y-37549D01*
X33149Y-37550D01*
X33949Y-37550D01*
X34000Y-37529D01*
X34050Y-37549D01*
X34149Y-37550D01*
X34949Y-37550D01*
X35041Y-37512D01*
X35111Y-37441D01*
X35114Y-37435D01*
X35150Y-37449D01*
X35249Y-37450D01*
X36049Y-37450D01*
X36141Y-37412D01*
X36211Y-37341D01*
X36229Y-37300D01*
X39355Y-37300D01*
X42407Y-40352D01*
X42407Y-40352D01*
X42505Y-40417D01*
X42620Y-40440D01*
X47560Y-40440D01*
X47560Y-40439D01*
X47674Y-40417D01*
X47674Y-40417D01*
X47772Y-40352D01*
X47887Y-40236D01*
X47887Y-40427D01*
X47756Y-40453D01*
X47634Y-40534D01*
X46634Y-41534D01*
X46553Y-41656D01*
X46525Y-41800D01*
X46525Y-42794D01*
X46475Y-42915D01*
X46474Y-43084D01*
X46539Y-43240D01*
X46658Y-43360D01*
X46815Y-43424D01*
X46984Y-43425D01*
X47140Y-43360D01*
X47260Y-43241D01*
X47324Y-43084D01*
X47325Y-42915D01*
X47275Y-42794D01*
X47275Y-41955D01*
X47887Y-41342D01*
X47887Y-41526D01*
X47925Y-41618D01*
X47995Y-41688D01*
X48087Y-41727D01*
X48187Y-41727D01*
X50155Y-41727D01*
X50247Y-41689D01*
X50318Y-41618D01*
X50356Y-41527D01*
X50356Y-41427D01*
X50356Y-41175D01*
X50643Y-41175D01*
X50643Y-41526D01*
X50681Y-41618D01*
X50751Y-41688D01*
X50843Y-41727D01*
X50943Y-41727D01*
X52911Y-41727D01*
X53003Y-41689D01*
X53074Y-41618D01*
X53112Y-41527D01*
X53112Y-41427D01*
X53112Y-41073D01*
X53074Y-40981D01*
X53004Y-40911D01*
X52912Y-40872D01*
X52812Y-40872D01*
X52252Y-40872D01*
X52252Y-40800D01*
X52252Y-40727D01*
X52911Y-40727D01*
X53003Y-40689D01*
X53074Y-40618D01*
X53112Y-40527D01*
X53112Y-40427D01*
X53112Y-40073D01*
X53074Y-39981D01*
X53004Y-39911D01*
X52912Y-39872D01*
X52812Y-39872D01*
X50844Y-39872D01*
X50752Y-39910D01*
X50681Y-39981D01*
X50643Y-40072D01*
X50643Y-40172D01*
X50643Y-40425D01*
X50356Y-40425D01*
X50356Y-40098D01*
X50464Y-40077D01*
X50464Y-40077D01*
X50562Y-40012D01*
X50847Y-39727D01*
X50943Y-39727D01*
X52911Y-39727D01*
X53003Y-39689D01*
X53074Y-39618D01*
X53081Y-39600D01*
X53465Y-39600D01*
X53900Y-40034D01*
X53900Y-45825D01*
X53112Y-46613D01*
X53112Y-43427D01*
X53112Y-43172D01*
X53112Y-42427D01*
X53112Y-42172D01*
X53112Y-42072D01*
X53074Y-41981D01*
X53003Y-41910D01*
X52911Y-41872D01*
X51965Y-41872D01*
X51902Y-41935D01*
X51902Y-42275D01*
X53049Y-42275D01*
X53112Y-42212D01*
X53112Y-42172D01*
X53112Y-42427D01*
X53112Y-42387D01*
X53049Y-42325D01*
X51902Y-42325D01*
X51902Y-42664D01*
X51965Y-42727D01*
X52911Y-42727D01*
X53003Y-42689D01*
X53074Y-42618D01*
X53112Y-42527D01*
X53112Y-42427D01*
X53112Y-43172D01*
X53112Y-43072D01*
X53074Y-42981D01*
X53003Y-42910D01*
X52911Y-42872D01*
X51965Y-42872D01*
X51902Y-42935D01*
X51902Y-43275D01*
X53049Y-43275D01*
X53112Y-43212D01*
X53112Y-43172D01*
X53112Y-43427D01*
X53112Y-43387D01*
X53049Y-43325D01*
X51902Y-43325D01*
X51902Y-43664D01*
X51965Y-43727D01*
X52911Y-43727D01*
X53003Y-43689D01*
X53074Y-43618D01*
X53112Y-43527D01*
X53112Y-43427D01*
X53112Y-46613D01*
X53022Y-46703D01*
X52918Y-46599D01*
X52679Y-46500D01*
X52421Y-46499D01*
X52182Y-46598D01*
X51999Y-46781D01*
X51900Y-47020D01*
X51899Y-47278D01*
X51998Y-47517D01*
X52181Y-47700D01*
X52250Y-47729D01*
X52250Y-50150D01*
X52272Y-50264D01*
X52337Y-50362D01*
X52693Y-50718D01*
X52289Y-50550D01*
X51852Y-50549D01*
X51852Y-43664D01*
X51852Y-43325D01*
X51852Y-43275D01*
X51852Y-42935D01*
X51852Y-42664D01*
X51852Y-42325D01*
X51852Y-42275D01*
X51852Y-41935D01*
X51790Y-41872D01*
X50844Y-41872D01*
X50752Y-41910D01*
X50681Y-41981D01*
X50643Y-42072D01*
X50643Y-42172D01*
X50643Y-42212D01*
X50706Y-42275D01*
X51852Y-42275D01*
X51852Y-42325D01*
X50706Y-42325D01*
X50643Y-42387D01*
X50643Y-42427D01*
X50643Y-42527D01*
X50681Y-42618D01*
X50752Y-42689D01*
X50844Y-42727D01*
X51790Y-42727D01*
X51852Y-42664D01*
X51852Y-42935D01*
X51790Y-42872D01*
X50844Y-42872D01*
X50752Y-42910D01*
X50681Y-42981D01*
X50643Y-43072D01*
X50643Y-43172D01*
X50643Y-43212D01*
X50706Y-43275D01*
X51852Y-43275D01*
X51852Y-43325D01*
X50706Y-43325D01*
X50643Y-43387D01*
X50643Y-43427D01*
X50643Y-43527D01*
X50681Y-43618D01*
X50752Y-43689D01*
X50844Y-43727D01*
X51790Y-43727D01*
X51852Y-43664D01*
X51852Y-50549D01*
X51712Y-50549D01*
X51179Y-50770D01*
X50771Y-51177D01*
X50550Y-51710D01*
X50549Y-52287D01*
X50770Y-52820D01*
X51177Y-53228D01*
X51710Y-53449D01*
X52287Y-53450D01*
X52820Y-53229D01*
X53228Y-52822D01*
X53449Y-52289D01*
X53450Y-51712D01*
X53282Y-51306D01*
X54928Y-52952D01*
X54900Y-53020D01*
X54899Y-53278D01*
X54998Y-53517D01*
X55181Y-53700D01*
X55420Y-53799D01*
X55678Y-53800D01*
X55917Y-53701D01*
X56100Y-53518D01*
X56199Y-53279D01*
X56200Y-53021D01*
X56200Y-53625D01*
X55825Y-54000D01*
X50424Y-54000D01*
X50356Y-53932D01*
X50356Y-43427D01*
X50356Y-43172D01*
X50356Y-42427D01*
X50356Y-42172D01*
X50356Y-42072D01*
X50318Y-41981D01*
X50247Y-41910D01*
X50155Y-41872D01*
X49209Y-41872D01*
X49147Y-41935D01*
X49147Y-42275D01*
X50293Y-42275D01*
X50356Y-42212D01*
X50356Y-42172D01*
X50356Y-42427D01*
X50356Y-42387D01*
X50293Y-42325D01*
X49147Y-42325D01*
X49147Y-42664D01*
X49209Y-42727D01*
X50155Y-42727D01*
X50247Y-42689D01*
X50318Y-42618D01*
X50356Y-42527D01*
X50356Y-42427D01*
X50356Y-43172D01*
X50356Y-43072D01*
X50318Y-42981D01*
X50247Y-42910D01*
X50155Y-42872D01*
X49209Y-42872D01*
X49147Y-42935D01*
X49147Y-43275D01*
X50293Y-43275D01*
X50356Y-43212D01*
X50356Y-43172D01*
X50356Y-43427D01*
X50356Y-43387D01*
X50293Y-43325D01*
X49147Y-43325D01*
X49147Y-43664D01*
X49209Y-43727D01*
X50155Y-43727D01*
X50247Y-43689D01*
X50318Y-43618D01*
X50356Y-43527D01*
X50356Y-43427D01*
X50356Y-53932D01*
X50200Y-53775D01*
X50200Y-46950D01*
X50177Y-46835D01*
X50112Y-46737D01*
X50112Y-46737D01*
X49677Y-46303D01*
X49580Y-46238D01*
X49465Y-46215D01*
X49097Y-46215D01*
X49097Y-43664D01*
X49097Y-43325D01*
X49097Y-43275D01*
X49097Y-42935D01*
X49097Y-42664D01*
X49097Y-42325D01*
X49097Y-42275D01*
X49097Y-41935D01*
X49034Y-41872D01*
X48088Y-41872D01*
X47996Y-41910D01*
X47925Y-41981D01*
X47887Y-42072D01*
X47887Y-42172D01*
X47887Y-42212D01*
X47950Y-42275D01*
X49097Y-42275D01*
X49097Y-42325D01*
X47950Y-42325D01*
X47887Y-42387D01*
X47887Y-42427D01*
X47887Y-42527D01*
X47925Y-42618D01*
X47996Y-42689D01*
X48088Y-42727D01*
X49034Y-42727D01*
X49097Y-42664D01*
X49097Y-42935D01*
X49034Y-42872D01*
X48088Y-42872D01*
X47996Y-42910D01*
X47925Y-42981D01*
X47887Y-43072D01*
X47887Y-43172D01*
X47887Y-43212D01*
X47950Y-43275D01*
X49097Y-43275D01*
X49097Y-43325D01*
X47950Y-43325D01*
X47887Y-43387D01*
X47887Y-43427D01*
X47887Y-43527D01*
X47925Y-43618D01*
X47996Y-43689D01*
X48088Y-43727D01*
X49034Y-43727D01*
X49097Y-43664D01*
X49097Y-46215D01*
X48450Y-46215D01*
X48450Y-45895D01*
X48450Y-44989D01*
X48412Y-44897D01*
X48342Y-44827D01*
X48250Y-44789D01*
X48151Y-44789D01*
X45946Y-44789D01*
X45854Y-44827D01*
X45784Y-44897D01*
X45746Y-44989D01*
X45746Y-45088D01*
X45746Y-45994D01*
X45783Y-46086D01*
X45854Y-46156D01*
X45946Y-46194D01*
X46045Y-46194D01*
X48250Y-46194D01*
X48342Y-46156D01*
X48412Y-46086D01*
X48450Y-45994D01*
X48450Y-45895D01*
X48450Y-46215D01*
X45419Y-46215D01*
X45419Y-46190D01*
X45381Y-46098D01*
X45311Y-46028D01*
X45219Y-45990D01*
X45119Y-45990D01*
X43781Y-45990D01*
X43689Y-46028D01*
X43618Y-46098D01*
X43580Y-46190D01*
X43580Y-46289D01*
X43580Y-46840D01*
X43618Y-46932D01*
X43688Y-47003D01*
X43700Y-47007D01*
X43689Y-47012D01*
X43618Y-47082D01*
X43601Y-47125D01*
X43500Y-47125D01*
X43356Y-47153D01*
X43234Y-47234D01*
X42734Y-47734D01*
X42653Y-47856D01*
X42625Y-48000D01*
X42625Y-48794D01*
X42575Y-48915D01*
X42574Y-49084D01*
X42639Y-49240D01*
X42758Y-49360D01*
X42915Y-49424D01*
X43084Y-49425D01*
X43240Y-49360D01*
X43360Y-49241D01*
X43424Y-49084D01*
X43425Y-48915D01*
X43375Y-48794D01*
X43375Y-48155D01*
X43617Y-47913D01*
X43618Y-47917D01*
X43688Y-47987D01*
X43700Y-47992D01*
X43688Y-47996D01*
X43618Y-48067D01*
X43580Y-48159D01*
X43580Y-48396D01*
X43643Y-48459D01*
X44475Y-48459D01*
X44475Y-48451D01*
X44525Y-48451D01*
X44525Y-48459D01*
X45356Y-48459D01*
X45419Y-48396D01*
X45419Y-48159D01*
X45381Y-48067D01*
X45311Y-47996D01*
X45299Y-47992D01*
X45310Y-47987D01*
X45381Y-47917D01*
X45419Y-47825D01*
X45419Y-47726D01*
X45419Y-47174D01*
X45381Y-47082D01*
X45311Y-47012D01*
X45299Y-47007D01*
X45310Y-47003D01*
X45381Y-46933D01*
X45419Y-46841D01*
X45419Y-46815D01*
X49341Y-46815D01*
X49600Y-47074D01*
X49600Y-53900D01*
X49622Y-54014D01*
X49687Y-54112D01*
X50087Y-54512D01*
X50087Y-54512D01*
X50185Y-54577D01*
X50299Y-54599D01*
X50300Y-54600D01*
X55950Y-54600D01*
X55950Y-54599D01*
X56064Y-54577D01*
X56064Y-54577D01*
X56162Y-54512D01*
X56762Y-53912D01*
X56762Y-53912D01*
X56827Y-53814D01*
X56849Y-53700D01*
X56850Y-53700D01*
X56850Y-45901D01*
X57002Y-46002D01*
X57003Y-46003D01*
X57111Y-46048D01*
X57341Y-46094D01*
X57342Y-46094D01*
X57513Y-46128D01*
X57607Y-46191D01*
X57671Y-46287D01*
X57700Y-46428D01*
X57700Y-54965D01*
X57700Y-54965D01*
G37*
G54D11*
X57700Y-54965D02*
X57489Y-56028D01*
X56903Y-56907D01*
X56029Y-57490D01*
X54970Y-57700D01*
X48450Y-57700D01*
X48450Y-49911D01*
X48450Y-49005D01*
X48412Y-48913D01*
X48342Y-48843D01*
X48250Y-48805D01*
X48151Y-48805D01*
X45946Y-48805D01*
X45854Y-48843D01*
X45784Y-48913D01*
X45746Y-49005D01*
X45746Y-49104D01*
X45746Y-50010D01*
X45783Y-50102D01*
X45854Y-50172D01*
X45946Y-50210D01*
X46045Y-50210D01*
X48250Y-50210D01*
X48342Y-50172D01*
X48412Y-50102D01*
X48450Y-50010D01*
X48450Y-49911D01*
X48450Y-57700D01*
X47450Y-57700D01*
X47450Y-54712D01*
X47229Y-54179D01*
X46822Y-53771D01*
X46289Y-53550D01*
X45712Y-53549D01*
X45419Y-53671D01*
X45419Y-48809D01*
X45419Y-48571D01*
X45356Y-48509D01*
X44525Y-48509D01*
X44525Y-48947D01*
X44587Y-49009D01*
X45119Y-49009D01*
X45219Y-49009D01*
X45311Y-48971D01*
X45381Y-48901D01*
X45419Y-48809D01*
X45419Y-53671D01*
X45179Y-53770D01*
X44771Y-54177D01*
X44550Y-54710D01*
X44549Y-55287D01*
X44770Y-55820D01*
X45177Y-56228D01*
X45710Y-56449D01*
X46287Y-56450D01*
X46820Y-56229D01*
X47228Y-55822D01*
X47449Y-55289D01*
X47450Y-54712D01*
X47450Y-57700D01*
X44475Y-57700D01*
X44475Y-48947D01*
X44475Y-48509D01*
X43643Y-48509D01*
X43580Y-48571D01*
X43580Y-48809D01*
X43618Y-48901D01*
X43688Y-48971D01*
X43780Y-49009D01*
X43880Y-49009D01*
X44412Y-49009D01*
X44475Y-48947D01*
X44475Y-57700D01*
X31425Y-57700D01*
X31425Y-54915D01*
X31360Y-54759D01*
X31241Y-54639D01*
X31084Y-54575D01*
X30915Y-54574D01*
X30794Y-54625D01*
X30450Y-54625D01*
X30450Y-54350D01*
X30412Y-54258D01*
X30341Y-54188D01*
X30249Y-54150D01*
X30150Y-54149D01*
X28950Y-54149D01*
X28858Y-54187D01*
X28788Y-54258D01*
X28750Y-54350D01*
X28749Y-54449D01*
X28749Y-55649D01*
X28787Y-55741D01*
X28858Y-55811D01*
X28950Y-55849D01*
X29049Y-55850D01*
X30249Y-55850D01*
X30341Y-55812D01*
X30411Y-55741D01*
X30449Y-55649D01*
X30450Y-55550D01*
X30450Y-55375D01*
X30794Y-55375D01*
X30915Y-55424D01*
X31084Y-55425D01*
X31240Y-55360D01*
X31360Y-55241D01*
X31424Y-55084D01*
X31425Y-54915D01*
X31425Y-57700D01*
X27250Y-57700D01*
X27250Y-55550D01*
X27250Y-54449D01*
X27250Y-49550D01*
X27250Y-48449D01*
X27249Y-48350D01*
X27211Y-48258D01*
X27141Y-48187D01*
X27049Y-48149D01*
X26487Y-48150D01*
X26425Y-48212D01*
X26425Y-48975D01*
X27187Y-48975D01*
X27250Y-48912D01*
X27250Y-48449D01*
X27250Y-49550D01*
X27250Y-49087D01*
X27187Y-49025D01*
X26425Y-49025D01*
X26425Y-49787D01*
X26487Y-49850D01*
X27049Y-49850D01*
X27141Y-49812D01*
X27211Y-49741D01*
X27249Y-49649D01*
X27250Y-49550D01*
X27250Y-54449D01*
X27249Y-54350D01*
X27211Y-54258D01*
X27141Y-54187D01*
X27049Y-54149D01*
X26487Y-54150D01*
X26425Y-54212D01*
X26425Y-54975D01*
X27187Y-54975D01*
X27250Y-54912D01*
X27250Y-54449D01*
X27250Y-55550D01*
X27250Y-55087D01*
X27187Y-55025D01*
X26425Y-55025D01*
X26425Y-55787D01*
X26487Y-55850D01*
X27049Y-55850D01*
X27141Y-55812D01*
X27211Y-55741D01*
X27249Y-55649D01*
X27250Y-55550D01*
X27250Y-57700D01*
X26375Y-57700D01*
X26375Y-55787D01*
X26375Y-55025D01*
X26375Y-54975D01*
X26375Y-54212D01*
X26375Y-49787D01*
X26375Y-49025D01*
X26375Y-48975D01*
X26375Y-48212D01*
X26312Y-48150D01*
X25750Y-48149D01*
X25658Y-48187D01*
X25588Y-48258D01*
X25550Y-48350D01*
X25549Y-48449D01*
X25550Y-48912D01*
X25612Y-48975D01*
X26375Y-48975D01*
X26375Y-49025D01*
X25612Y-49025D01*
X25550Y-49087D01*
X25549Y-49550D01*
X25550Y-49649D01*
X25588Y-49741D01*
X25658Y-49812D01*
X25750Y-49850D01*
X26312Y-49850D01*
X26375Y-49787D01*
X26375Y-54212D01*
X26312Y-54150D01*
X25750Y-54149D01*
X25658Y-54187D01*
X25588Y-54258D01*
X25550Y-54350D01*
X25549Y-54449D01*
X25550Y-54912D01*
X25612Y-54975D01*
X26375Y-54975D01*
X26375Y-55025D01*
X25612Y-55025D01*
X25550Y-55087D01*
X25549Y-55550D01*
X25550Y-55649D01*
X25588Y-55741D01*
X25658Y-55812D01*
X25750Y-55850D01*
X26312Y-55850D01*
X26375Y-55787D01*
X26375Y-57700D01*
X24419Y-57700D01*
X24419Y-48809D01*
X24419Y-48571D01*
X24356Y-48509D01*
X23525Y-48509D01*
X23525Y-48947D01*
X23587Y-49009D01*
X24119Y-49009D01*
X24219Y-49009D01*
X24311Y-48971D01*
X24381Y-48901D01*
X24419Y-48809D01*
X24419Y-57700D01*
X23475Y-57700D01*
X23475Y-48947D01*
X23475Y-48509D01*
X22643Y-48509D01*
X22580Y-48571D01*
X22580Y-48809D01*
X22618Y-48901D01*
X22688Y-48971D01*
X22780Y-49009D01*
X22880Y-49009D01*
X23412Y-49009D01*
X23475Y-48947D01*
X23475Y-57700D01*
X23450Y-57700D01*
X23450Y-54712D01*
X23229Y-54179D01*
X22822Y-53771D01*
X22289Y-53550D01*
X22253Y-53550D01*
X22253Y-49911D01*
X22253Y-49005D01*
X22216Y-48913D01*
X22145Y-48843D01*
X22053Y-48805D01*
X21954Y-48805D01*
X19749Y-48805D01*
X19657Y-48843D01*
X19587Y-48913D01*
X19549Y-49005D01*
X19549Y-49104D01*
X19549Y-50010D01*
X19587Y-50102D01*
X19657Y-50172D01*
X19749Y-50210D01*
X19848Y-50210D01*
X22053Y-50210D01*
X22145Y-50172D01*
X22215Y-50102D01*
X22253Y-50010D01*
X22253Y-49911D01*
X22253Y-53550D01*
X21712Y-53549D01*
X21179Y-53770D01*
X20771Y-54177D01*
X20550Y-54710D01*
X20549Y-55287D01*
X20770Y-55820D01*
X21177Y-56228D01*
X21710Y-56449D01*
X22287Y-56450D01*
X22820Y-56229D01*
X23228Y-55822D01*
X23449Y-55289D01*
X23450Y-54712D01*
X23450Y-57700D01*
X17450Y-57700D01*
X17450Y-51712D01*
X17229Y-51179D01*
X16822Y-50771D01*
X16289Y-50550D01*
X15712Y-50549D01*
X15179Y-50770D01*
X14771Y-51177D01*
X14550Y-51710D01*
X14549Y-52287D01*
X14770Y-52820D01*
X15177Y-53228D01*
X15710Y-53449D01*
X16287Y-53450D01*
X16820Y-53229D01*
X17228Y-52822D01*
X17449Y-52289D01*
X17450Y-51712D01*
X17450Y-57700D01*
X13034Y-57700D01*
X11971Y-57489D01*
X11092Y-56903D01*
X10509Y-56029D01*
X10300Y-54970D01*
X10300Y-34829D01*
X10328Y-34686D01*
X10391Y-34592D01*
X10487Y-34528D01*
X10657Y-34494D01*
X10658Y-34494D01*
X10886Y-34448D01*
X10887Y-34448D01*
X10996Y-34403D01*
X11190Y-34274D01*
X11273Y-34191D01*
X11274Y-34190D01*
X11402Y-33997D01*
X11403Y-33996D01*
X11448Y-33888D01*
X11494Y-33658D01*
X11494Y-33628D01*
X11500Y-33600D01*
X11500Y-28200D01*
X11500Y-22800D01*
X11494Y-22771D01*
X11494Y-22741D01*
X11448Y-22511D01*
X11403Y-22403D01*
X11402Y-22402D01*
X11274Y-22209D01*
X11273Y-22208D01*
X11190Y-22125D01*
X10996Y-21996D01*
X10887Y-21951D01*
X10886Y-21951D01*
X10658Y-21905D01*
X10657Y-21905D01*
X10487Y-21871D01*
X10391Y-21807D01*
X10328Y-21713D01*
X10300Y-21570D01*
X10300Y-13029D01*
X10509Y-11970D01*
X11092Y-11096D01*
X11971Y-10510D01*
X13034Y-10300D01*
X54970Y-10300D01*
X56029Y-10509D01*
X56903Y-11092D01*
X57489Y-11971D01*
X57700Y-13034D01*
X57700Y-33171D01*
X57671Y-33312D01*
X57607Y-33408D01*
X57513Y-33471D01*
X57342Y-33505D01*
X57341Y-33505D01*
X57111Y-33551D01*
X57003Y-33596D01*
X57002Y-33597D01*
X56809Y-33725D01*
X56808Y-33726D01*
X56725Y-33809D01*
X56708Y-33834D01*
X56462Y-33587D01*
X56364Y-33522D01*
X56250Y-33500D01*
X56079Y-33500D01*
X56051Y-33432D01*
X55868Y-33249D01*
X55629Y-33150D01*
X55371Y-33149D01*
X55132Y-33248D01*
X54949Y-33431D01*
X54850Y-33670D01*
X54849Y-33928D01*
X54948Y-34167D01*
X55131Y-34350D01*
X55370Y-34449D01*
X55628Y-34450D01*
X55867Y-34351D01*
X56050Y-34168D01*
X56079Y-34100D01*
X56125Y-34100D01*
X56250Y-34224D01*
X56250Y-53575D01*
X56200Y-53625D01*
X56200Y-53021D01*
X56101Y-52782D01*
X55918Y-52599D01*
X55679Y-52500D01*
X55421Y-52499D01*
X55352Y-52528D01*
X52850Y-50025D01*
X52850Y-47729D01*
X52917Y-47701D01*
X53100Y-47518D01*
X53147Y-47405D01*
X53212Y-47362D01*
X54277Y-46296D01*
X54287Y-46312D01*
X54928Y-46952D01*
X54900Y-47020D01*
X54899Y-47278D01*
X54998Y-47517D01*
X55181Y-47700D01*
X55420Y-47799D01*
X55678Y-47800D01*
X55917Y-47701D01*
X56100Y-47518D01*
X56199Y-47279D01*
X56200Y-47021D01*
X56101Y-46782D01*
X55918Y-46599D01*
X55679Y-46500D01*
X55421Y-46499D01*
X55352Y-46528D01*
X54800Y-45975D01*
X54800Y-40004D01*
X55250Y-40454D01*
X55250Y-40570D01*
X55182Y-40598D01*
X54999Y-40781D01*
X54900Y-41020D01*
X54899Y-41278D01*
X54998Y-41517D01*
X55181Y-41700D01*
X55420Y-41799D01*
X55678Y-41800D01*
X55917Y-41701D01*
X56100Y-41518D01*
X56199Y-41279D01*
X56200Y-41021D01*
X56101Y-40782D01*
X55918Y-40599D01*
X55850Y-40570D01*
X55850Y-40330D01*
X55849Y-40329D01*
X55827Y-40215D01*
X55762Y-40117D01*
X55762Y-40117D01*
X53732Y-38087D01*
X53665Y-38043D01*
X53712Y-38012D01*
X55762Y-35962D01*
X55827Y-35864D01*
X55827Y-35864D01*
X55849Y-35750D01*
X55850Y-35750D01*
X55850Y-35729D01*
X55917Y-35701D01*
X56100Y-35518D01*
X56199Y-35279D01*
X56200Y-35021D01*
X56101Y-34782D01*
X55918Y-34599D01*
X55679Y-34500D01*
X55421Y-34499D01*
X55182Y-34598D01*
X54999Y-34781D01*
X54900Y-35020D01*
X54899Y-35278D01*
X54998Y-35517D01*
X55178Y-35697D01*
X53375Y-37500D01*
X53244Y-37500D01*
X54162Y-36582D01*
X54162Y-36582D01*
X54227Y-36484D01*
X54249Y-36370D01*
X54250Y-36370D01*
X54250Y-32674D01*
X55762Y-31162D01*
X55762Y-31162D01*
X55827Y-31064D01*
X55849Y-30950D01*
X55850Y-30950D01*
X55850Y-29729D01*
X55917Y-29701D01*
X56100Y-29518D01*
X56199Y-29279D01*
X56200Y-29021D01*
X56101Y-28782D01*
X55918Y-28599D01*
X55679Y-28500D01*
X55421Y-28499D01*
X55182Y-28598D01*
X54999Y-28781D01*
X54900Y-29020D01*
X54899Y-29278D01*
X54998Y-29517D01*
X55181Y-29700D01*
X55250Y-29729D01*
X55250Y-30825D01*
X53950Y-32125D01*
X53950Y-26974D01*
X55762Y-25162D01*
X55762Y-25162D01*
X55827Y-25064D01*
X55849Y-24950D01*
X55850Y-24950D01*
X55850Y-23729D01*
X55917Y-23701D01*
X56100Y-23518D01*
X56199Y-23279D01*
X56200Y-23021D01*
X56101Y-22782D01*
X55918Y-22599D01*
X55679Y-22500D01*
X55421Y-22499D01*
X55182Y-22598D01*
X54999Y-22781D01*
X54900Y-23020D01*
X54899Y-23278D01*
X54998Y-23517D01*
X55181Y-23700D01*
X55250Y-23729D01*
X55250Y-24825D01*
X53500Y-26575D01*
X52850Y-25925D01*
X52850Y-23729D01*
X52917Y-23701D01*
X53100Y-23518D01*
X53199Y-23279D01*
X53200Y-23021D01*
X53101Y-22782D01*
X52918Y-22599D01*
X52850Y-22570D01*
X52850Y-22074D01*
X55762Y-19162D01*
X55762Y-19162D01*
X55827Y-19064D01*
X55849Y-18950D01*
X55850Y-18950D01*
X55850Y-17729D01*
X55917Y-17701D01*
X56100Y-17518D01*
X56199Y-17279D01*
X56200Y-17021D01*
X56101Y-16782D01*
X55918Y-16599D01*
X55679Y-16500D01*
X55421Y-16499D01*
X55182Y-16598D01*
X54999Y-16781D01*
X54900Y-17020D01*
X54899Y-17278D01*
X54998Y-17517D01*
X55181Y-17700D01*
X55250Y-17729D01*
X55250Y-18825D01*
X52337Y-21737D01*
X52272Y-21835D01*
X52250Y-21950D01*
X52250Y-22570D01*
X52182Y-22598D01*
X51999Y-22781D01*
X51900Y-23020D01*
X51899Y-23278D01*
X51998Y-23517D01*
X52181Y-23700D01*
X52250Y-23729D01*
X52250Y-26050D01*
X52272Y-26164D01*
X52337Y-26262D01*
X53050Y-26974D01*
X53050Y-35845D01*
X52990Y-35905D01*
X52912Y-35872D01*
X52812Y-35872D01*
X51151Y-35872D01*
X52412Y-34612D01*
X52412Y-34612D01*
X52477Y-34514D01*
X52499Y-34400D01*
X52500Y-34400D01*
X52500Y-34379D01*
X52567Y-34351D01*
X52750Y-34168D01*
X52849Y-33929D01*
X52850Y-33671D01*
X52751Y-33432D01*
X52568Y-33249D01*
X52500Y-33220D01*
X52500Y-32900D01*
X52477Y-32785D01*
X52412Y-32687D01*
X52412Y-32687D01*
X50650Y-30925D01*
X50650Y-20994D01*
X55762Y-15882D01*
X55762Y-15882D01*
X55827Y-15784D01*
X55849Y-15670D01*
X55850Y-15670D01*
X55850Y-11729D01*
X55917Y-11701D01*
X56100Y-11518D01*
X56199Y-11279D01*
X56200Y-11021D01*
X56101Y-10782D01*
X55918Y-10599D01*
X55679Y-10500D01*
X55421Y-10499D01*
X55182Y-10598D01*
X54999Y-10781D01*
X54900Y-11020D01*
X54899Y-11278D01*
X54998Y-11517D01*
X55181Y-11700D01*
X55250Y-11729D01*
X55250Y-15545D01*
X53450Y-17345D01*
X53450Y-15712D01*
X53229Y-15179D01*
X52822Y-14771D01*
X52289Y-14550D01*
X51712Y-14549D01*
X51179Y-14770D01*
X50771Y-15177D01*
X50550Y-15710D01*
X50549Y-16287D01*
X50770Y-16820D01*
X51177Y-17228D01*
X51710Y-17449D01*
X52287Y-17450D01*
X52820Y-17229D01*
X53228Y-16822D01*
X53449Y-16289D01*
X53450Y-15712D01*
X53450Y-17345D01*
X50137Y-20657D01*
X50072Y-20755D01*
X50050Y-20870D01*
X50050Y-31050D01*
X50072Y-31164D01*
X50137Y-31262D01*
X51900Y-33024D01*
X51900Y-33220D01*
X51832Y-33248D01*
X51649Y-33431D01*
X51550Y-33670D01*
X51549Y-33928D01*
X51648Y-34167D01*
X51828Y-34347D01*
X50256Y-35919D01*
X50248Y-35911D01*
X50156Y-35872D01*
X50056Y-35872D01*
X48450Y-35872D01*
X48450Y-22418D01*
X48450Y-21513D01*
X48450Y-19387D01*
X48450Y-18481D01*
X48412Y-18390D01*
X48342Y-18319D01*
X48250Y-18281D01*
X48151Y-18281D01*
X47450Y-18281D01*
X47450Y-12712D01*
X47229Y-12179D01*
X46822Y-11771D01*
X46289Y-11550D01*
X45712Y-11549D01*
X45179Y-11770D01*
X44771Y-12177D01*
X44550Y-12710D01*
X44549Y-13287D01*
X44770Y-13820D01*
X45177Y-14228D01*
X45710Y-14449D01*
X46287Y-14450D01*
X46820Y-14229D01*
X47228Y-13822D01*
X47449Y-13289D01*
X47450Y-12712D01*
X47450Y-18281D01*
X45946Y-18281D01*
X45854Y-18319D01*
X45784Y-18389D01*
X45746Y-18481D01*
X45746Y-18581D01*
X45746Y-19486D01*
X45783Y-19578D01*
X45854Y-19648D01*
X45946Y-19686D01*
X46045Y-19687D01*
X48250Y-19687D01*
X48342Y-19649D01*
X48412Y-19578D01*
X48450Y-19486D01*
X48450Y-19387D01*
X48450Y-21513D01*
X48412Y-21421D01*
X48342Y-21351D01*
X48250Y-21313D01*
X48151Y-21312D01*
X45946Y-21312D01*
X45854Y-21350D01*
X45784Y-21421D01*
X45746Y-21513D01*
X45746Y-21612D01*
X45746Y-22518D01*
X45783Y-22609D01*
X45854Y-22680D01*
X45946Y-22718D01*
X46045Y-22718D01*
X48250Y-22718D01*
X48342Y-22680D01*
X48412Y-22610D01*
X48450Y-22518D01*
X48450Y-22418D01*
X48450Y-35872D01*
X48088Y-35872D01*
X48000Y-35909D01*
X48000Y-35780D01*
X47999Y-35779D01*
X47977Y-35665D01*
X47912Y-35567D01*
X47912Y-35567D01*
X47582Y-35237D01*
X47484Y-35172D01*
X47450Y-35165D01*
X47450Y-30712D01*
X47229Y-30179D01*
X46822Y-29771D01*
X46289Y-29550D01*
X45712Y-29549D01*
X45419Y-29671D01*
X45419Y-21218D01*
X45419Y-20667D01*
X45381Y-20575D01*
X45311Y-20504D01*
X45299Y-20500D01*
X45311Y-20495D01*
X45381Y-20424D01*
X45419Y-20332D01*
X45419Y-19682D01*
X45381Y-19590D01*
X45311Y-19520D01*
X45219Y-19482D01*
X45119Y-19482D01*
X44587Y-19482D01*
X44525Y-19544D01*
X44525Y-19982D01*
X45356Y-19982D01*
X45419Y-19920D01*
X45419Y-19682D01*
X45419Y-20332D01*
X45419Y-20095D01*
X45356Y-20032D01*
X44525Y-20032D01*
X44525Y-20040D01*
X44475Y-20040D01*
X44475Y-20032D01*
X44475Y-19982D01*
X44475Y-19544D01*
X44412Y-19482D01*
X43880Y-19482D01*
X43780Y-19482D01*
X43688Y-19520D01*
X43618Y-19590D01*
X43580Y-19682D01*
X43580Y-19920D01*
X43643Y-19982D01*
X44475Y-19982D01*
X44475Y-20032D01*
X43643Y-20032D01*
X43580Y-20095D01*
X43580Y-20332D01*
X43618Y-20424D01*
X43688Y-20495D01*
X43700Y-20499D01*
X43689Y-20504D01*
X43618Y-20574D01*
X43601Y-20617D01*
X43375Y-20617D01*
X43375Y-19205D01*
X43424Y-19084D01*
X43425Y-18915D01*
X43360Y-18759D01*
X43241Y-18639D01*
X43084Y-18575D01*
X42915Y-18574D01*
X42759Y-18639D01*
X42639Y-18758D01*
X42575Y-18915D01*
X42574Y-19084D01*
X42625Y-19205D01*
X42625Y-20800D01*
X42653Y-20943D01*
X42734Y-21065D01*
X42926Y-21257D01*
X43048Y-21338D01*
X43192Y-21367D01*
X43601Y-21367D01*
X43618Y-21409D01*
X43688Y-21479D01*
X43780Y-21517D01*
X43880Y-21517D01*
X45218Y-21517D01*
X45310Y-21479D01*
X45381Y-21409D01*
X45419Y-21317D01*
X45419Y-21218D01*
X45419Y-29671D01*
X45179Y-29770D01*
X44771Y-30177D01*
X44550Y-30710D01*
X44549Y-31287D01*
X44770Y-31820D01*
X45177Y-32228D01*
X45710Y-32449D01*
X46287Y-32450D01*
X46820Y-32229D01*
X47228Y-31822D01*
X47449Y-31289D01*
X47450Y-30712D01*
X47450Y-35165D01*
X47370Y-35150D01*
X43425Y-35150D01*
X43425Y-30915D01*
X43425Y-24915D01*
X43360Y-24759D01*
X43241Y-24639D01*
X43084Y-24575D01*
X42915Y-24574D01*
X42794Y-24625D01*
X42450Y-24625D01*
X42450Y-24350D01*
X42412Y-24258D01*
X42341Y-24188D01*
X42249Y-24150D01*
X42150Y-24149D01*
X40950Y-24149D01*
X40858Y-24187D01*
X40788Y-24258D01*
X40750Y-24350D01*
X40749Y-24449D01*
X40749Y-25649D01*
X40787Y-25741D01*
X40858Y-25811D01*
X40950Y-25849D01*
X41049Y-25850D01*
X42249Y-25850D01*
X42341Y-25812D01*
X42411Y-25741D01*
X42449Y-25649D01*
X42450Y-25550D01*
X42450Y-25375D01*
X42794Y-25375D01*
X42915Y-25424D01*
X43084Y-25425D01*
X43240Y-25360D01*
X43360Y-25241D01*
X43424Y-25084D01*
X43425Y-24915D01*
X43425Y-30915D01*
X43360Y-30759D01*
X43241Y-30639D01*
X43084Y-30575D01*
X42915Y-30574D01*
X42794Y-30625D01*
X42450Y-30625D01*
X42450Y-30350D01*
X42412Y-30258D01*
X42341Y-30188D01*
X42249Y-30150D01*
X42150Y-30149D01*
X40950Y-30149D01*
X40858Y-30187D01*
X40788Y-30258D01*
X40750Y-30350D01*
X40749Y-30449D01*
X40749Y-31649D01*
X40787Y-31741D01*
X40858Y-31811D01*
X40950Y-31849D01*
X41049Y-31850D01*
X42249Y-31850D01*
X42341Y-31812D01*
X42411Y-31741D01*
X42449Y-31649D01*
X42450Y-31550D01*
X42450Y-31375D01*
X42794Y-31375D01*
X42915Y-31424D01*
X43084Y-31425D01*
X43240Y-31360D01*
X43360Y-31241D01*
X43424Y-31084D01*
X43425Y-30915D01*
X43425Y-35150D01*
X40674Y-35150D01*
X39250Y-33725D01*
X39250Y-31550D01*
X39250Y-30449D01*
X39250Y-25550D01*
X39250Y-24449D01*
X39249Y-24350D01*
X39211Y-24258D01*
X39141Y-24187D01*
X39049Y-24149D01*
X38487Y-24150D01*
X38425Y-24212D01*
X38425Y-24975D01*
X39187Y-24975D01*
X39250Y-24912D01*
X39250Y-24449D01*
X39250Y-25550D01*
X39250Y-25087D01*
X39187Y-25025D01*
X38425Y-25025D01*
X38425Y-25787D01*
X38487Y-25850D01*
X39049Y-25850D01*
X39141Y-25812D01*
X39211Y-25741D01*
X39249Y-25649D01*
X39250Y-25550D01*
X39250Y-30449D01*
X39249Y-30350D01*
X39211Y-30258D01*
X39141Y-30187D01*
X39049Y-30149D01*
X38487Y-30150D01*
X38425Y-30212D01*
X38425Y-30975D01*
X39187Y-30975D01*
X39250Y-30912D01*
X39250Y-30449D01*
X39250Y-31550D01*
X39250Y-31087D01*
X39187Y-31025D01*
X38425Y-31025D01*
X38425Y-31787D01*
X38487Y-31850D01*
X39049Y-31850D01*
X39141Y-31812D01*
X39211Y-31741D01*
X39249Y-31649D01*
X39250Y-31550D01*
X39250Y-33725D01*
X38375Y-32850D01*
X38375Y-31787D01*
X38375Y-31025D01*
X38375Y-30975D01*
X38375Y-30212D01*
X38375Y-25787D01*
X38375Y-25025D01*
X38375Y-24975D01*
X38375Y-24212D01*
X38312Y-24150D01*
X37750Y-24149D01*
X37658Y-24187D01*
X37588Y-24258D01*
X37550Y-24350D01*
X37549Y-24449D01*
X37550Y-24912D01*
X37612Y-24975D01*
X38375Y-24975D01*
X38375Y-25025D01*
X37612Y-25025D01*
X37550Y-25087D01*
X37549Y-25550D01*
X37550Y-25649D01*
X37588Y-25741D01*
X37658Y-25812D01*
X37750Y-25850D01*
X38312Y-25850D01*
X38375Y-25787D01*
X38375Y-30212D01*
X38312Y-30150D01*
X37750Y-30149D01*
X37658Y-30187D01*
X37588Y-30258D01*
X37550Y-30350D01*
X37549Y-30449D01*
X37550Y-30912D01*
X37612Y-30975D01*
X38375Y-30975D01*
X38375Y-31025D01*
X37612Y-31025D01*
X37550Y-31087D01*
X37549Y-31550D01*
X37550Y-31649D01*
X37588Y-31741D01*
X37658Y-31812D01*
X37750Y-31850D01*
X38312Y-31850D01*
X38375Y-31787D01*
X38375Y-32850D01*
X36312Y-30787D01*
X36247Y-30744D01*
X36212Y-30658D01*
X36141Y-30588D01*
X36049Y-30550D01*
X35950Y-30549D01*
X35150Y-30549D01*
X35114Y-30564D01*
X35112Y-30558D01*
X35041Y-30488D01*
X34949Y-30450D01*
X34850Y-30449D01*
X34050Y-30449D01*
X33999Y-30470D01*
X33949Y-30450D01*
X33850Y-30449D01*
X33050Y-30449D01*
X32958Y-30487D01*
X32888Y-30558D01*
X32885Y-30564D01*
X32849Y-30550D01*
X32750Y-30549D01*
X31950Y-30549D01*
X31858Y-30587D01*
X31788Y-30658D01*
X31770Y-30700D01*
X31425Y-30700D01*
X31425Y-18915D01*
X31425Y-12915D01*
X31360Y-12759D01*
X31241Y-12639D01*
X31084Y-12575D01*
X30915Y-12574D01*
X30794Y-12625D01*
X30450Y-12625D01*
X30450Y-12350D01*
X30412Y-12258D01*
X30341Y-12188D01*
X30249Y-12150D01*
X30150Y-12149D01*
X28950Y-12149D01*
X28858Y-12187D01*
X28788Y-12258D01*
X28750Y-12350D01*
X28749Y-12449D01*
X28749Y-13649D01*
X28787Y-13741D01*
X28858Y-13811D01*
X28950Y-13849D01*
X29049Y-13850D01*
X30249Y-13850D01*
X30341Y-13812D01*
X30411Y-13741D01*
X30449Y-13649D01*
X30450Y-13550D01*
X30450Y-13375D01*
X30794Y-13375D01*
X30915Y-13424D01*
X31084Y-13425D01*
X31240Y-13360D01*
X31360Y-13241D01*
X31424Y-13084D01*
X31425Y-12915D01*
X31425Y-18915D01*
X31360Y-18759D01*
X31241Y-18639D01*
X31084Y-18575D01*
X30915Y-18574D01*
X30794Y-18625D01*
X30450Y-18625D01*
X30450Y-18350D01*
X30412Y-18258D01*
X30341Y-18188D01*
X30249Y-18150D01*
X30150Y-18149D01*
X28950Y-18149D01*
X28858Y-18187D01*
X28788Y-18258D01*
X28750Y-18350D01*
X28749Y-18449D01*
X28749Y-19649D01*
X28787Y-19741D01*
X28858Y-19811D01*
X28950Y-19849D01*
X29049Y-19850D01*
X30249Y-19850D01*
X30341Y-19812D01*
X30411Y-19741D01*
X30449Y-19649D01*
X30450Y-19550D01*
X30450Y-19375D01*
X30794Y-19375D01*
X30915Y-19424D01*
X31084Y-19425D01*
X31240Y-19360D01*
X31360Y-19241D01*
X31424Y-19084D01*
X31425Y-18915D01*
X31425Y-30700D01*
X28684Y-30700D01*
X27250Y-29265D01*
X27250Y-19550D01*
X27250Y-18449D01*
X27250Y-13550D01*
X27250Y-12449D01*
X27249Y-12350D01*
X27211Y-12258D01*
X27141Y-12187D01*
X27049Y-12149D01*
X26487Y-12150D01*
X26425Y-12212D01*
X26425Y-12975D01*
X27187Y-12975D01*
X27250Y-12912D01*
X27250Y-12449D01*
X27250Y-13550D01*
X27250Y-13087D01*
X27187Y-13025D01*
X26425Y-13025D01*
X26425Y-13787D01*
X26487Y-13850D01*
X27049Y-13850D01*
X27141Y-13812D01*
X27211Y-13741D01*
X27249Y-13649D01*
X27250Y-13550D01*
X27250Y-18449D01*
X27249Y-18350D01*
X27211Y-18258D01*
X27141Y-18187D01*
X27049Y-18149D01*
X26487Y-18150D01*
X26425Y-18212D01*
X26425Y-18975D01*
X27187Y-18975D01*
X27250Y-18912D01*
X27250Y-18449D01*
X27250Y-19550D01*
X27250Y-19087D01*
X27187Y-19025D01*
X26425Y-19025D01*
X26425Y-19787D01*
X26487Y-19850D01*
X27049Y-19850D01*
X27141Y-19812D01*
X27211Y-19741D01*
X27249Y-19649D01*
X27250Y-19550D01*
X27250Y-29265D01*
X26375Y-28390D01*
X26375Y-19787D01*
X26375Y-19025D01*
X26375Y-18975D01*
X26375Y-18212D01*
X26375Y-13787D01*
X26375Y-13025D01*
X26375Y-12975D01*
X26375Y-12212D01*
X26312Y-12150D01*
X25750Y-12149D01*
X25658Y-12187D01*
X25588Y-12258D01*
X25550Y-12350D01*
X25549Y-12449D01*
X25550Y-12912D01*
X25612Y-12975D01*
X26375Y-12975D01*
X26375Y-13025D01*
X25612Y-13025D01*
X25550Y-13087D01*
X25549Y-13550D01*
X25550Y-13649D01*
X25588Y-13741D01*
X25658Y-13812D01*
X25750Y-13850D01*
X26312Y-13850D01*
X26375Y-13787D01*
X26375Y-18212D01*
X26312Y-18150D01*
X25750Y-18149D01*
X25658Y-18187D01*
X25588Y-18258D01*
X25550Y-18350D01*
X25549Y-18449D01*
X25550Y-18912D01*
X25612Y-18975D01*
X26375Y-18975D01*
X26375Y-19025D01*
X25612Y-19025D01*
X25550Y-19087D01*
X25549Y-19550D01*
X25550Y-19649D01*
X25588Y-19741D01*
X25658Y-19812D01*
X25750Y-19850D01*
X26312Y-19850D01*
X26375Y-19787D01*
X26375Y-28390D01*
X24419Y-26435D01*
X24419Y-21317D01*
X24419Y-20667D01*
X24381Y-20575D01*
X24311Y-20504D01*
X24299Y-20500D01*
X24310Y-20495D01*
X24381Y-20425D01*
X24419Y-20333D01*
X24419Y-20233D01*
X24419Y-19682D01*
X24381Y-19590D01*
X24311Y-19520D01*
X24219Y-19482D01*
X24119Y-19482D01*
X23875Y-19482D01*
X23875Y-19205D01*
X23924Y-19084D01*
X23925Y-18915D01*
X23860Y-18759D01*
X23741Y-18639D01*
X23584Y-18575D01*
X23450Y-18574D01*
X23450Y-12712D01*
X23229Y-12179D01*
X22822Y-11771D01*
X22289Y-11550D01*
X21712Y-11549D01*
X21179Y-11770D01*
X20771Y-12177D01*
X20550Y-12710D01*
X20549Y-13287D01*
X20770Y-13820D01*
X21177Y-14228D01*
X21710Y-14449D01*
X22287Y-14450D01*
X22820Y-14229D01*
X23228Y-13822D01*
X23449Y-13289D01*
X23450Y-12712D01*
X23450Y-18574D01*
X23415Y-18574D01*
X23259Y-18639D01*
X23139Y-18758D01*
X23075Y-18915D01*
X23074Y-19084D01*
X23125Y-19205D01*
X23125Y-19482D01*
X22781Y-19482D01*
X22689Y-19520D01*
X22618Y-19590D01*
X22580Y-19682D01*
X22580Y-19781D01*
X22580Y-20332D01*
X22618Y-20424D01*
X22688Y-20495D01*
X22700Y-20500D01*
X22688Y-20504D01*
X22618Y-20575D01*
X22580Y-20667D01*
X22580Y-20904D01*
X22643Y-20967D01*
X23475Y-20967D01*
X23475Y-20959D01*
X23525Y-20959D01*
X23525Y-20967D01*
X24356Y-20967D01*
X24419Y-20904D01*
X24419Y-20667D01*
X24419Y-21317D01*
X24419Y-21079D01*
X24356Y-21017D01*
X23525Y-21017D01*
X23525Y-21455D01*
X23587Y-21517D01*
X24119Y-21517D01*
X24219Y-21517D01*
X24311Y-21479D01*
X24381Y-21409D01*
X24419Y-21317D01*
X24419Y-26435D01*
X23475Y-25490D01*
X23475Y-21455D01*
X23475Y-21017D01*
X22643Y-21017D01*
X22580Y-21079D01*
X22580Y-21317D01*
X22618Y-21409D01*
X22688Y-21479D01*
X22780Y-21517D01*
X22880Y-21517D01*
X23412Y-21517D01*
X23475Y-21455D01*
X23475Y-25490D01*
X22253Y-24269D01*
X22253Y-22418D01*
X22253Y-21513D01*
X22253Y-19387D01*
X22253Y-18481D01*
X22216Y-18390D01*
X22145Y-18319D01*
X22053Y-18281D01*
X21954Y-18281D01*
X19749Y-18281D01*
X19657Y-18319D01*
X19587Y-18389D01*
X19549Y-18481D01*
X19549Y-18581D01*
X19549Y-19486D01*
X19587Y-19578D01*
X19657Y-19648D01*
X19749Y-19686D01*
X19848Y-19687D01*
X22053Y-19687D01*
X22145Y-19649D01*
X22215Y-19578D01*
X22253Y-19486D01*
X22253Y-19387D01*
X22253Y-21513D01*
X22216Y-21421D01*
X22145Y-21351D01*
X22053Y-21313D01*
X21954Y-21312D01*
X19749Y-21312D01*
X19657Y-21350D01*
X19587Y-21421D01*
X19549Y-21513D01*
X19549Y-21612D01*
X19549Y-22518D01*
X19587Y-22609D01*
X19657Y-22680D01*
X19749Y-22718D01*
X19848Y-22718D01*
X22053Y-22718D01*
X22145Y-22680D01*
X22215Y-22610D01*
X22253Y-22518D01*
X22253Y-22418D01*
X22253Y-24269D01*
X21872Y-23887D01*
X21774Y-23822D01*
X21660Y-23800D01*
X17750Y-23800D01*
X17635Y-23822D01*
X17537Y-23887D01*
X17152Y-24272D01*
X17056Y-24272D01*
X16422Y-24272D01*
X16422Y-24052D01*
X16824Y-23650D01*
X18350Y-23650D01*
X18350Y-23649D01*
X18464Y-23627D01*
X18464Y-23627D01*
X18562Y-23562D01*
X18862Y-23262D01*
X18862Y-23262D01*
X18927Y-23164D01*
X18949Y-23050D01*
X18950Y-23050D01*
X18950Y-18374D01*
X19874Y-17450D01*
X21420Y-17450D01*
X21448Y-17517D01*
X21631Y-17700D01*
X21870Y-17799D01*
X22128Y-17800D01*
X22367Y-17701D01*
X22550Y-17518D01*
X22649Y-17279D01*
X22650Y-17021D01*
X22551Y-16782D01*
X22368Y-16599D01*
X22300Y-16570D01*
X22300Y-15700D01*
X22277Y-15585D01*
X22212Y-15487D01*
X22212Y-15487D01*
X21962Y-15237D01*
X21864Y-15172D01*
X21750Y-15150D01*
X19574Y-15150D01*
X19250Y-14825D01*
X19250Y-11950D01*
X19249Y-11949D01*
X19227Y-11835D01*
X19162Y-11737D01*
X19162Y-11737D01*
X18362Y-10937D01*
X18264Y-10872D01*
X18150Y-10850D01*
X13579Y-10850D01*
X13551Y-10782D01*
X13368Y-10599D01*
X13129Y-10500D01*
X12871Y-10499D01*
X12632Y-10598D01*
X12449Y-10781D01*
X12350Y-11020D01*
X12349Y-11278D01*
X12448Y-11517D01*
X12631Y-11700D01*
X12870Y-11799D01*
X13128Y-11800D01*
X13367Y-11701D01*
X13550Y-11518D01*
X13579Y-11450D01*
X18025Y-11450D01*
X18650Y-12074D01*
X18650Y-14950D01*
X18672Y-15064D01*
X18737Y-15162D01*
X19237Y-15662D01*
X19237Y-15662D01*
X19335Y-15727D01*
X19450Y-15750D01*
X21625Y-15750D01*
X21700Y-15824D01*
X21700Y-16570D01*
X21632Y-16598D01*
X21449Y-16781D01*
X21420Y-16850D01*
X19750Y-16850D01*
X19635Y-16872D01*
X19537Y-16937D01*
X18437Y-18037D01*
X18372Y-18135D01*
X18350Y-18250D01*
X18350Y-22925D01*
X18225Y-23050D01*
X17450Y-23050D01*
X17450Y-15712D01*
X17229Y-15179D01*
X16822Y-14771D01*
X16289Y-14550D01*
X15712Y-14549D01*
X15179Y-14770D01*
X14771Y-15177D01*
X14550Y-15710D01*
X14549Y-16287D01*
X14770Y-16820D01*
X15177Y-17228D01*
X15710Y-17449D01*
X16287Y-17450D01*
X16820Y-17229D01*
X17228Y-16822D01*
X17449Y-16289D01*
X17450Y-15712D01*
X17450Y-23050D01*
X16700Y-23050D01*
X16585Y-23072D01*
X16487Y-23137D01*
X15909Y-23715D01*
X15844Y-23813D01*
X15822Y-23927D01*
X15822Y-24272D01*
X15088Y-24272D01*
X14996Y-24310D01*
X14925Y-24381D01*
X14887Y-24472D01*
X14887Y-24572D01*
X14887Y-24813D01*
X14750Y-24675D01*
X14750Y-23424D01*
X16212Y-21962D01*
X16212Y-21962D01*
X16277Y-21864D01*
X16299Y-21750D01*
X16300Y-21750D01*
X16300Y-20729D01*
X16367Y-20701D01*
X16550Y-20518D01*
X16649Y-20279D01*
X16650Y-20021D01*
X16551Y-19782D01*
X16368Y-19599D01*
X16129Y-19500D01*
X15871Y-19499D01*
X15632Y-19598D01*
X15449Y-19781D01*
X15420Y-19850D01*
X13699Y-19850D01*
X13300Y-19450D01*
X13300Y-17729D01*
X13367Y-17701D01*
X13550Y-17518D01*
X13649Y-17279D01*
X13650Y-17021D01*
X13551Y-16782D01*
X13368Y-16599D01*
X13129Y-16500D01*
X12871Y-16499D01*
X12632Y-16598D01*
X12449Y-16781D01*
X12350Y-17020D01*
X12349Y-17278D01*
X12448Y-17517D01*
X12631Y-17700D01*
X12700Y-17729D01*
X12700Y-19575D01*
X12722Y-19689D01*
X12787Y-19787D01*
X13362Y-20362D01*
X13362Y-20362D01*
X13460Y-20427D01*
X13574Y-20449D01*
X13575Y-20450D01*
X15420Y-20450D01*
X15448Y-20517D01*
X15631Y-20700D01*
X15700Y-20729D01*
X15700Y-21625D01*
X14237Y-23087D01*
X14172Y-23185D01*
X14150Y-23300D01*
X14150Y-24515D01*
X13345Y-23710D01*
X13367Y-23701D01*
X13550Y-23518D01*
X13649Y-23279D01*
X13650Y-23021D01*
X13551Y-22782D01*
X13368Y-22599D01*
X13129Y-22500D01*
X12871Y-22499D01*
X12632Y-22598D01*
X12449Y-22781D01*
X12350Y-23020D01*
X12349Y-23278D01*
X12448Y-23517D01*
X12631Y-23700D01*
X12700Y-23729D01*
X12700Y-23790D01*
X12722Y-23904D01*
X12787Y-24002D01*
X14697Y-25912D01*
X14697Y-25912D01*
X14779Y-25966D01*
X14747Y-25987D01*
X12787Y-27947D01*
X12722Y-28045D01*
X12700Y-28160D01*
X12700Y-28570D01*
X12632Y-28598D01*
X12449Y-28781D01*
X12350Y-29020D01*
X12349Y-29278D01*
X12448Y-29517D01*
X12631Y-29700D01*
X12870Y-29799D01*
X13128Y-29800D01*
X13340Y-29712D01*
X13340Y-34385D01*
X13197Y-34528D01*
X13129Y-34500D01*
X12871Y-34499D01*
X12632Y-34598D01*
X12449Y-34781D01*
X12350Y-35020D01*
X12349Y-35278D01*
X12448Y-35517D01*
X12631Y-35700D01*
X12870Y-35799D01*
X13128Y-35800D01*
X13367Y-35701D01*
X13550Y-35518D01*
X13649Y-35279D01*
X13650Y-35021D01*
X13621Y-34952D01*
X13655Y-34919D01*
X13655Y-40070D01*
X13197Y-40528D01*
X13129Y-40500D01*
X12871Y-40499D01*
X12632Y-40598D01*
X12449Y-40781D01*
X12350Y-41020D01*
X12349Y-41278D01*
X12448Y-41517D01*
X12631Y-41700D01*
X12870Y-41799D01*
X13128Y-41800D01*
X13367Y-41701D01*
X13550Y-41518D01*
X13649Y-41279D01*
X13650Y-41021D01*
X13621Y-40952D01*
X13965Y-40609D01*
X13965Y-45760D01*
X13197Y-46528D01*
X13129Y-46500D01*
X12871Y-46499D01*
X12632Y-46598D01*
X12449Y-46781D01*
X12350Y-47020D01*
X12349Y-47278D01*
X12448Y-47517D01*
X12631Y-47700D01*
X12870Y-47799D01*
X13128Y-47800D01*
X13367Y-47701D01*
X13550Y-47518D01*
X13649Y-47279D01*
X13650Y-47021D01*
X13621Y-46952D01*
X14477Y-46097D01*
X14477Y-46097D01*
X14542Y-45999D01*
X14564Y-45885D01*
X14565Y-45885D01*
X14565Y-45289D01*
X15700Y-46424D01*
X15700Y-46570D01*
X15632Y-46598D01*
X15449Y-46781D01*
X15350Y-47020D01*
X15349Y-47278D01*
X15448Y-47517D01*
X15631Y-47700D01*
X15700Y-47729D01*
X15700Y-48425D01*
X12787Y-51337D01*
X12722Y-51435D01*
X12700Y-51550D01*
X12700Y-52570D01*
X12632Y-52598D01*
X12449Y-52781D01*
X12350Y-53020D01*
X12349Y-53278D01*
X12448Y-53517D01*
X12631Y-53700D01*
X12870Y-53799D01*
X13128Y-53800D01*
X13367Y-53701D01*
X13550Y-53518D01*
X13649Y-53279D01*
X13650Y-53021D01*
X13551Y-52782D01*
X13368Y-52599D01*
X13300Y-52570D01*
X13300Y-51674D01*
X16212Y-48762D01*
X16212Y-48762D01*
X16277Y-48664D01*
X16299Y-48550D01*
X16300Y-48550D01*
X16300Y-47729D01*
X16367Y-47701D01*
X16550Y-47518D01*
X16579Y-47450D01*
X17050Y-47450D01*
X17050Y-47449D01*
X17164Y-47427D01*
X17164Y-47427D01*
X17262Y-47362D01*
X17808Y-46815D01*
X22580Y-46815D01*
X22580Y-46840D01*
X22618Y-46932D01*
X22688Y-47003D01*
X22700Y-47007D01*
X22689Y-47012D01*
X22618Y-47082D01*
X22580Y-47174D01*
X22580Y-47273D01*
X22580Y-47825D01*
X22618Y-47917D01*
X22688Y-47987D01*
X22700Y-47992D01*
X22688Y-47996D01*
X22618Y-48067D01*
X22580Y-48159D01*
X22580Y-48396D01*
X22643Y-48459D01*
X23475Y-48459D01*
X23475Y-48451D01*
X23525Y-48451D01*
X23525Y-48459D01*
X24356Y-48459D01*
X24419Y-48396D01*
X24419Y-48159D01*
X24381Y-48067D01*
X24311Y-47996D01*
X24299Y-47992D01*
X24310Y-47987D01*
X24381Y-47917D01*
X24398Y-47875D01*
X28794Y-47875D01*
X29069Y-48149D01*
X28950Y-48149D01*
X28858Y-48187D01*
X28788Y-48258D01*
X28750Y-48350D01*
X28749Y-48449D01*
X28749Y-49649D01*
X28787Y-49741D01*
X28858Y-49811D01*
X28950Y-49849D01*
X29049Y-49850D01*
X30249Y-49850D01*
X30341Y-49812D01*
X30411Y-49741D01*
X30449Y-49649D01*
X30450Y-49550D01*
X30450Y-49375D01*
X30794Y-49375D01*
X30915Y-49424D01*
X31084Y-49425D01*
X31240Y-49360D01*
X31360Y-49241D01*
X31424Y-49084D01*
X31425Y-48915D01*
X31425Y-42915D01*
X31360Y-42759D01*
X31241Y-42639D01*
X31084Y-42575D01*
X30915Y-42574D01*
X30794Y-42625D01*
X30450Y-42625D01*
X30450Y-42350D01*
X30412Y-42258D01*
X30341Y-42188D01*
X30249Y-42150D01*
X30150Y-42149D01*
X28950Y-42149D01*
X28858Y-42187D01*
X28788Y-42258D01*
X28750Y-42350D01*
X28749Y-42449D01*
X28749Y-43649D01*
X28787Y-43741D01*
X28858Y-43811D01*
X28950Y-43849D01*
X29049Y-43850D01*
X30249Y-43850D01*
X30341Y-43812D01*
X30411Y-43741D01*
X30449Y-43649D01*
X30450Y-43550D01*
X30450Y-43375D01*
X30794Y-43375D01*
X30915Y-43424D01*
X31084Y-43425D01*
X31240Y-43360D01*
X31360Y-43241D01*
X31424Y-43084D01*
X31425Y-42915D01*
X31425Y-48915D01*
X31360Y-48759D01*
X31241Y-48639D01*
X31084Y-48575D01*
X30915Y-48574D01*
X30794Y-48625D01*
X30450Y-48625D01*
X30450Y-48350D01*
X30412Y-48258D01*
X30341Y-48188D01*
X30249Y-48150D01*
X30150Y-48149D01*
X29974Y-48149D01*
X29946Y-48006D01*
X29865Y-47884D01*
X29865Y-47884D01*
X29215Y-47234D01*
X29093Y-47153D01*
X28950Y-47125D01*
X27250Y-47125D01*
X27250Y-43550D01*
X27250Y-42449D01*
X27249Y-42350D01*
X27211Y-42258D01*
X27141Y-42187D01*
X27049Y-42149D01*
X26487Y-42150D01*
X26425Y-42212D01*
X26425Y-42975D01*
X27187Y-42975D01*
X27250Y-42912D01*
X27250Y-42449D01*
X27250Y-43550D01*
X27250Y-43087D01*
X27187Y-43025D01*
X26425Y-43025D01*
X26425Y-43787D01*
X26487Y-43850D01*
X27049Y-43850D01*
X27141Y-43812D01*
X27211Y-43741D01*
X27249Y-43649D01*
X27250Y-43550D01*
X27250Y-47125D01*
X26375Y-47125D01*
X26375Y-43787D01*
X26375Y-43025D01*
X26375Y-42975D01*
X26375Y-42212D01*
X26312Y-42150D01*
X25750Y-42149D01*
X25658Y-42187D01*
X25588Y-42258D01*
X25550Y-42350D01*
X25549Y-42449D01*
X25550Y-42912D01*
X25612Y-42975D01*
X26375Y-42975D01*
X26375Y-43025D01*
X25612Y-43025D01*
X25550Y-43087D01*
X25549Y-43550D01*
X25550Y-43649D01*
X25588Y-43741D01*
X25658Y-43812D01*
X25750Y-43850D01*
X26312Y-43850D01*
X26375Y-43787D01*
X26375Y-47125D01*
X24398Y-47125D01*
X24381Y-47082D01*
X24311Y-47012D01*
X24299Y-47007D01*
X24310Y-47003D01*
X24381Y-46933D01*
X24419Y-46841D01*
X24419Y-46741D01*
X24419Y-46190D01*
X24381Y-46098D01*
X24311Y-46028D01*
X24219Y-45990D01*
X24119Y-45990D01*
X23450Y-45990D01*
X23450Y-36712D01*
X23229Y-36179D01*
X22822Y-35771D01*
X22289Y-35550D01*
X21712Y-35549D01*
X21179Y-35770D01*
X20771Y-36177D01*
X20550Y-36710D01*
X20549Y-37287D01*
X20770Y-37820D01*
X21177Y-38228D01*
X21710Y-38449D01*
X22287Y-38450D01*
X22820Y-38229D01*
X23228Y-37822D01*
X23449Y-37289D01*
X23450Y-36712D01*
X23450Y-45990D01*
X22781Y-45990D01*
X22689Y-46028D01*
X22618Y-46098D01*
X22580Y-46190D01*
X22580Y-46215D01*
X22253Y-46215D01*
X22253Y-45895D01*
X22253Y-44989D01*
X22216Y-44897D01*
X22145Y-44827D01*
X22053Y-44789D01*
X21954Y-44789D01*
X20112Y-44789D01*
X20112Y-31827D01*
X20112Y-31572D01*
X20112Y-30827D01*
X20112Y-30572D01*
X20112Y-30472D01*
X20074Y-30381D01*
X20003Y-30310D01*
X19911Y-30272D01*
X18965Y-30272D01*
X18902Y-30335D01*
X18902Y-30675D01*
X20049Y-30675D01*
X20112Y-30612D01*
X20112Y-30572D01*
X20112Y-30827D01*
X20112Y-30787D01*
X20049Y-30725D01*
X18902Y-30725D01*
X18902Y-31064D01*
X18965Y-31127D01*
X19911Y-31127D01*
X20003Y-31089D01*
X20074Y-31018D01*
X20112Y-30927D01*
X20112Y-30827D01*
X20112Y-31572D01*
X20112Y-31472D01*
X20074Y-31381D01*
X20003Y-31310D01*
X19911Y-31272D01*
X18965Y-31272D01*
X18902Y-31335D01*
X18902Y-31675D01*
X20049Y-31675D01*
X20112Y-31612D01*
X20112Y-31572D01*
X20112Y-31827D01*
X20112Y-31787D01*
X20049Y-31725D01*
X18902Y-31725D01*
X18902Y-32064D01*
X18965Y-32127D01*
X19911Y-32127D01*
X20003Y-32089D01*
X20074Y-32018D01*
X20112Y-31927D01*
X20112Y-31827D01*
X20112Y-44789D01*
X19950Y-44789D01*
X19950Y-37550D01*
X19950Y-36350D01*
X19912Y-36258D01*
X19841Y-36188D01*
X19749Y-36150D01*
X19650Y-36149D01*
X18852Y-36149D01*
X18852Y-32064D01*
X18852Y-31725D01*
X18852Y-31675D01*
X18852Y-31335D01*
X18852Y-31064D01*
X18852Y-30725D01*
X18852Y-30675D01*
X18852Y-30335D01*
X18790Y-30272D01*
X17844Y-30272D01*
X17752Y-30310D01*
X17681Y-30381D01*
X17643Y-30472D01*
X17643Y-30572D01*
X17643Y-30612D01*
X17706Y-30675D01*
X18852Y-30675D01*
X18852Y-30725D01*
X17706Y-30725D01*
X17643Y-30787D01*
X17643Y-30827D01*
X17643Y-30927D01*
X17681Y-31018D01*
X17752Y-31089D01*
X17844Y-31127D01*
X18790Y-31127D01*
X18852Y-31064D01*
X18852Y-31335D01*
X18790Y-31272D01*
X17844Y-31272D01*
X17752Y-31310D01*
X17681Y-31381D01*
X17643Y-31472D01*
X17643Y-31572D01*
X17643Y-31612D01*
X17706Y-31675D01*
X18852Y-31675D01*
X18852Y-31725D01*
X17706Y-31725D01*
X17643Y-31787D01*
X17643Y-31827D01*
X17643Y-31927D01*
X17681Y-32018D01*
X17752Y-32089D01*
X17844Y-32127D01*
X18790Y-32127D01*
X18852Y-32064D01*
X18852Y-36149D01*
X18450Y-36149D01*
X18358Y-36187D01*
X18288Y-36258D01*
X18250Y-36350D01*
X18249Y-36449D01*
X18249Y-36625D01*
X17905Y-36625D01*
X17784Y-36575D01*
X17615Y-36574D01*
X17459Y-36639D01*
X17356Y-36742D01*
X17356Y-31827D01*
X17356Y-31572D01*
X17356Y-30827D01*
X17356Y-30572D01*
X17356Y-30472D01*
X17318Y-30381D01*
X17247Y-30310D01*
X17155Y-30272D01*
X16209Y-30272D01*
X16147Y-30335D01*
X16147Y-30675D01*
X17293Y-30675D01*
X17356Y-30612D01*
X17356Y-30572D01*
X17356Y-30827D01*
X17356Y-30787D01*
X17293Y-30725D01*
X16147Y-30725D01*
X16147Y-31064D01*
X16209Y-31127D01*
X17155Y-31127D01*
X17247Y-31089D01*
X17318Y-31018D01*
X17356Y-30927D01*
X17356Y-30827D01*
X17356Y-31572D01*
X17356Y-31472D01*
X17318Y-31381D01*
X17247Y-31310D01*
X17155Y-31272D01*
X16209Y-31272D01*
X16147Y-31335D01*
X16147Y-31675D01*
X17293Y-31675D01*
X17356Y-31612D01*
X17356Y-31572D01*
X17356Y-31827D01*
X17356Y-31787D01*
X17293Y-31725D01*
X16147Y-31725D01*
X16147Y-32064D01*
X16209Y-32127D01*
X17155Y-32127D01*
X17247Y-32089D01*
X17318Y-32018D01*
X17356Y-31927D01*
X17356Y-31827D01*
X17356Y-36742D01*
X17339Y-36758D01*
X17275Y-36915D01*
X17274Y-37084D01*
X17339Y-37240D01*
X17458Y-37360D01*
X17615Y-37424D01*
X17784Y-37425D01*
X17905Y-37375D01*
X18249Y-37375D01*
X18249Y-37649D01*
X18287Y-37741D01*
X18358Y-37811D01*
X18450Y-37849D01*
X18549Y-37850D01*
X19749Y-37850D01*
X19841Y-37812D01*
X19911Y-37741D01*
X19949Y-37649D01*
X19950Y-37550D01*
X19950Y-44789D01*
X19749Y-44789D01*
X19657Y-44827D01*
X19587Y-44897D01*
X19549Y-44989D01*
X19549Y-45088D01*
X19549Y-45994D01*
X19587Y-46086D01*
X19657Y-46156D01*
X19749Y-46194D01*
X19848Y-46194D01*
X22053Y-46194D01*
X22145Y-46156D01*
X22215Y-46086D01*
X22253Y-45994D01*
X22253Y-45895D01*
X22253Y-46215D01*
X17684Y-46215D01*
X17569Y-46238D01*
X17472Y-46303D01*
X16925Y-46850D01*
X16750Y-46850D01*
X16750Y-37550D01*
X16750Y-36449D01*
X16749Y-36350D01*
X16711Y-36258D01*
X16641Y-36187D01*
X16549Y-36149D01*
X16097Y-36149D01*
X16097Y-32064D01*
X16097Y-31725D01*
X16097Y-31675D01*
X16097Y-31335D01*
X16097Y-31064D01*
X16097Y-30725D01*
X16097Y-30675D01*
X16097Y-30335D01*
X16034Y-30272D01*
X15088Y-30272D01*
X14996Y-30310D01*
X14925Y-30381D01*
X14887Y-30472D01*
X14887Y-30572D01*
X14887Y-30612D01*
X14950Y-30675D01*
X16097Y-30675D01*
X16097Y-30725D01*
X14950Y-30725D01*
X14887Y-30787D01*
X14887Y-30827D01*
X14887Y-30927D01*
X14925Y-31018D01*
X14996Y-31089D01*
X15088Y-31127D01*
X16034Y-31127D01*
X16097Y-31064D01*
X16097Y-31335D01*
X16034Y-31272D01*
X15088Y-31272D01*
X14996Y-31310D01*
X14925Y-31381D01*
X14887Y-31472D01*
X14887Y-31572D01*
X14887Y-31612D01*
X14950Y-31675D01*
X16097Y-31675D01*
X16097Y-31725D01*
X14950Y-31725D01*
X14887Y-31787D01*
X14887Y-31827D01*
X14887Y-31927D01*
X14925Y-32018D01*
X14996Y-32089D01*
X15088Y-32127D01*
X16034Y-32127D01*
X16097Y-32064D01*
X16097Y-36149D01*
X15987Y-36150D01*
X15925Y-36212D01*
X15925Y-36975D01*
X16687Y-36975D01*
X16750Y-36912D01*
X16750Y-36449D01*
X16750Y-37550D01*
X16750Y-37087D01*
X16687Y-37025D01*
X15925Y-37025D01*
X15925Y-37787D01*
X15987Y-37850D01*
X16549Y-37850D01*
X16641Y-37812D01*
X16711Y-37741D01*
X16749Y-37649D01*
X16750Y-37550D01*
X16750Y-46850D01*
X16579Y-46850D01*
X16551Y-46782D01*
X16368Y-46599D01*
X16300Y-46570D01*
X16300Y-46300D01*
X16277Y-46185D01*
X16212Y-46087D01*
X16212Y-46087D01*
X15875Y-45750D01*
X15875Y-37787D01*
X15875Y-37025D01*
X15875Y-36975D01*
X15875Y-36212D01*
X15812Y-36150D01*
X15250Y-36149D01*
X15158Y-36187D01*
X15088Y-36258D01*
X15050Y-36350D01*
X15049Y-36449D01*
X15050Y-36912D01*
X15112Y-36975D01*
X15875Y-36975D01*
X15875Y-37025D01*
X15112Y-37025D01*
X15050Y-37087D01*
X15049Y-37550D01*
X15050Y-37649D01*
X15088Y-37741D01*
X15158Y-37812D01*
X15250Y-37850D01*
X15812Y-37850D01*
X15875Y-37787D01*
X15875Y-45750D01*
X14880Y-44755D01*
X14880Y-28544D01*
X14887Y-28536D01*
X14887Y-28572D01*
X14887Y-28926D01*
X14925Y-29018D01*
X14995Y-29088D01*
X15087Y-29127D01*
X15187Y-29127D01*
X15747Y-29127D01*
X15747Y-29200D01*
X15747Y-29272D01*
X15088Y-29272D01*
X14996Y-29310D01*
X14925Y-29381D01*
X14887Y-29472D01*
X14887Y-29572D01*
X14887Y-29926D01*
X14925Y-30018D01*
X14995Y-30088D01*
X15087Y-30127D01*
X15187Y-30127D01*
X17155Y-30127D01*
X17247Y-30089D01*
X17318Y-30018D01*
X17356Y-29927D01*
X17356Y-29827D01*
X17356Y-29575D01*
X17643Y-29575D01*
X17643Y-29926D01*
X17681Y-30018D01*
X17751Y-30088D01*
X17843Y-30127D01*
X17943Y-30127D01*
X19911Y-30127D01*
X20003Y-30089D01*
X20074Y-30018D01*
X20112Y-29927D01*
X20112Y-29827D01*
X20112Y-29575D01*
X21651Y-29575D01*
X21179Y-29770D01*
X20771Y-30177D01*
X20550Y-30710D01*
X20549Y-31287D01*
X20770Y-31820D01*
X21177Y-32228D01*
X21710Y-32449D01*
X22287Y-32450D01*
X22820Y-32229D01*
X23228Y-31822D01*
X23449Y-31289D01*
X23450Y-30712D01*
X23229Y-30179D01*
X22822Y-29771D01*
X22349Y-29575D01*
X22862Y-29575D01*
X22889Y-29640D01*
X23008Y-29760D01*
X23165Y-29824D01*
X23334Y-29825D01*
X23490Y-29760D01*
X23610Y-29641D01*
X23674Y-29484D01*
X23675Y-29315D01*
X23628Y-29202D01*
X31637Y-37212D01*
X31637Y-37212D01*
X31735Y-37277D01*
X31763Y-37282D01*
X31787Y-37341D01*
X31858Y-37411D01*
X31950Y-37449D01*
X32049Y-37450D01*
X32849Y-37450D01*
X32885Y-37435D01*
X32887Y-37441D01*
X32958Y-37511D01*
X33050Y-37549D01*
X33149Y-37550D01*
X33949Y-37550D01*
X34000Y-37529D01*
X34050Y-37549D01*
X34149Y-37550D01*
X34949Y-37550D01*
X35041Y-37512D01*
X35111Y-37441D01*
X35114Y-37435D01*
X35150Y-37449D01*
X35249Y-37450D01*
X36049Y-37450D01*
X36141Y-37412D01*
X36211Y-37341D01*
X36229Y-37300D01*
X39355Y-37300D01*
X42407Y-40352D01*
X42407Y-40352D01*
X42505Y-40417D01*
X42620Y-40440D01*
X47560Y-40440D01*
X47560Y-40439D01*
X47674Y-40417D01*
X47674Y-40417D01*
X47772Y-40352D01*
X47887Y-40236D01*
X47887Y-40427D01*
X47756Y-40453D01*
X47634Y-40534D01*
X46634Y-41534D01*
X46553Y-41656D01*
X46525Y-41800D01*
X46525Y-42794D01*
X46475Y-42915D01*
X46474Y-43084D01*
X46539Y-43240D01*
X46658Y-43360D01*
X46815Y-43424D01*
X46984Y-43425D01*
X47140Y-43360D01*
X47260Y-43241D01*
X47324Y-43084D01*
X47325Y-42915D01*
X47275Y-42794D01*
X47275Y-41955D01*
X47887Y-41342D01*
X47887Y-41526D01*
X47925Y-41618D01*
X47995Y-41688D01*
X48087Y-41727D01*
X48187Y-41727D01*
X50155Y-41727D01*
X50247Y-41689D01*
X50318Y-41618D01*
X50356Y-41527D01*
X50356Y-41427D01*
X50356Y-41175D01*
X50643Y-41175D01*
X50643Y-41526D01*
X50681Y-41618D01*
X50751Y-41688D01*
X50843Y-41727D01*
X50943Y-41727D01*
X52911Y-41727D01*
X53003Y-41689D01*
X53074Y-41618D01*
X53112Y-41527D01*
X53112Y-41427D01*
X53112Y-41073D01*
X53074Y-40981D01*
X53004Y-40911D01*
X52912Y-40872D01*
X52812Y-40872D01*
X52252Y-40872D01*
X52252Y-40800D01*
X52252Y-40727D01*
X52911Y-40727D01*
X53003Y-40689D01*
X53074Y-40618D01*
X53112Y-40527D01*
X53112Y-40427D01*
X53112Y-40073D01*
X53074Y-39981D01*
X53004Y-39911D01*
X52912Y-39872D01*
X52812Y-39872D01*
X50844Y-39872D01*
X50752Y-39910D01*
X50681Y-39981D01*
X50643Y-40072D01*
X50643Y-40172D01*
X50643Y-40425D01*
X50356Y-40425D01*
X50356Y-40098D01*
X50464Y-40077D01*
X50464Y-40077D01*
X50562Y-40012D01*
X50847Y-39727D01*
X50943Y-39727D01*
X52911Y-39727D01*
X53003Y-39689D01*
X53074Y-39618D01*
X53081Y-39600D01*
X53465Y-39600D01*
X53900Y-40034D01*
X53900Y-45825D01*
X53112Y-46613D01*
X53112Y-43427D01*
X53112Y-43172D01*
X53112Y-42427D01*
X53112Y-42172D01*
X53112Y-42072D01*
X53074Y-41981D01*
X53003Y-41910D01*
X52911Y-41872D01*
X51965Y-41872D01*
X51902Y-41935D01*
X51902Y-42275D01*
X53049Y-42275D01*
X53112Y-42212D01*
X53112Y-42172D01*
X53112Y-42427D01*
X53112Y-42387D01*
X53049Y-42325D01*
X51902Y-42325D01*
X51902Y-42664D01*
X51965Y-42727D01*
X52911Y-42727D01*
X53003Y-42689D01*
X53074Y-42618D01*
X53112Y-42527D01*
X53112Y-42427D01*
X53112Y-43172D01*
X53112Y-43072D01*
X53074Y-42981D01*
X53003Y-42910D01*
X52911Y-42872D01*
X51965Y-42872D01*
X51902Y-42935D01*
X51902Y-43275D01*
X53049Y-43275D01*
X53112Y-43212D01*
X53112Y-43172D01*
X53112Y-43427D01*
X53112Y-43387D01*
X53049Y-43325D01*
X51902Y-43325D01*
X51902Y-43664D01*
X51965Y-43727D01*
X52911Y-43727D01*
X53003Y-43689D01*
X53074Y-43618D01*
X53112Y-43527D01*
X53112Y-43427D01*
X53112Y-46613D01*
X53022Y-46703D01*
X52918Y-46599D01*
X52679Y-46500D01*
X52421Y-46499D01*
X52182Y-46598D01*
X51999Y-46781D01*
X51900Y-47020D01*
X51899Y-47278D01*
X51998Y-47517D01*
X52181Y-47700D01*
X52250Y-47729D01*
X52250Y-50150D01*
X52272Y-50264D01*
X52337Y-50362D01*
X52693Y-50718D01*
X52289Y-50550D01*
X51852Y-50549D01*
X51852Y-43664D01*
X51852Y-43325D01*
X51852Y-43275D01*
X51852Y-42935D01*
X51852Y-42664D01*
X51852Y-42325D01*
X51852Y-42275D01*
X51852Y-41935D01*
X51790Y-41872D01*
X50844Y-41872D01*
X50752Y-41910D01*
X50681Y-41981D01*
X50643Y-42072D01*
X50643Y-42172D01*
X50643Y-42212D01*
X50706Y-42275D01*
X51852Y-42275D01*
X51852Y-42325D01*
X50706Y-42325D01*
X50643Y-42387D01*
X50643Y-42427D01*
X50643Y-42527D01*
X50681Y-42618D01*
X50752Y-42689D01*
X50844Y-42727D01*
X51790Y-42727D01*
X51852Y-42664D01*
X51852Y-42935D01*
X51790Y-42872D01*
X50844Y-42872D01*
X50752Y-42910D01*
X50681Y-42981D01*
X50643Y-43072D01*
X50643Y-43172D01*
X50643Y-43212D01*
X50706Y-43275D01*
X51852Y-43275D01*
X51852Y-43325D01*
X50706Y-43325D01*
X50643Y-43387D01*
X50643Y-43427D01*
X50643Y-43527D01*
X50681Y-43618D01*
X50752Y-43689D01*
X50844Y-43727D01*
X51790Y-43727D01*
X51852Y-43664D01*
X51852Y-50549D01*
X51712Y-50549D01*
X51179Y-50770D01*
X50771Y-51177D01*
X50550Y-51710D01*
X50549Y-52287D01*
X50770Y-52820D01*
X51177Y-53228D01*
X51710Y-53449D01*
X52287Y-53450D01*
X52820Y-53229D01*
X53228Y-52822D01*
X53449Y-52289D01*
X53450Y-51712D01*
X53282Y-51306D01*
X54928Y-52952D01*
X54900Y-53020D01*
X54899Y-53278D01*
X54998Y-53517D01*
X55181Y-53700D01*
X55420Y-53799D01*
X55678Y-53800D01*
X55917Y-53701D01*
X56100Y-53518D01*
X56199Y-53279D01*
X56200Y-53021D01*
X56200Y-53625D01*
X55825Y-54000D01*
X50424Y-54000D01*
X50356Y-53932D01*
X50356Y-43427D01*
X50356Y-43172D01*
X50356Y-42427D01*
X50356Y-42172D01*
X50356Y-42072D01*
X50318Y-41981D01*
X50247Y-41910D01*
X50155Y-41872D01*
X49209Y-41872D01*
X49147Y-41935D01*
X49147Y-42275D01*
X50293Y-42275D01*
X50356Y-42212D01*
X50356Y-42172D01*
X50356Y-42427D01*
X50356Y-42387D01*
X50293Y-42325D01*
X49147Y-42325D01*
X49147Y-42664D01*
X49209Y-42727D01*
X50155Y-42727D01*
X50247Y-42689D01*
X50318Y-42618D01*
X50356Y-42527D01*
X50356Y-42427D01*
X50356Y-43172D01*
X50356Y-43072D01*
X50318Y-42981D01*
X50247Y-42910D01*
X50155Y-42872D01*
X49209Y-42872D01*
X49147Y-42935D01*
X49147Y-43275D01*
X50293Y-43275D01*
X50356Y-43212D01*
X50356Y-43172D01*
X50356Y-43427D01*
X50356Y-43387D01*
X50293Y-43325D01*
X49147Y-43325D01*
X49147Y-43664D01*
X49209Y-43727D01*
X50155Y-43727D01*
X50247Y-43689D01*
X50318Y-43618D01*
X50356Y-43527D01*
X50356Y-43427D01*
X50356Y-53932D01*
X50200Y-53775D01*
X50200Y-46950D01*
X50177Y-46835D01*
X50112Y-46737D01*
X50112Y-46737D01*
X49677Y-46303D01*
X49580Y-46238D01*
X49465Y-46215D01*
X49097Y-46215D01*
X49097Y-43664D01*
X49097Y-43325D01*
X49097Y-43275D01*
X49097Y-42935D01*
X49097Y-42664D01*
X49097Y-42325D01*
X49097Y-42275D01*
X49097Y-41935D01*
X49034Y-41872D01*
X48088Y-41872D01*
X47996Y-41910D01*
X47925Y-41981D01*
X47887Y-42072D01*
X47887Y-42172D01*
X47887Y-42212D01*
X47950Y-42275D01*
X49097Y-42275D01*
X49097Y-42325D01*
X47950Y-42325D01*
X47887Y-42387D01*
X47887Y-42427D01*
X47887Y-42527D01*
X47925Y-42618D01*
X47996Y-42689D01*
X48088Y-42727D01*
X49034Y-42727D01*
X49097Y-42664D01*
X49097Y-42935D01*
X49034Y-42872D01*
X48088Y-42872D01*
X47996Y-42910D01*
X47925Y-42981D01*
X47887Y-43072D01*
X47887Y-43172D01*
X47887Y-43212D01*
X47950Y-43275D01*
X49097Y-43275D01*
X49097Y-43325D01*
X47950Y-43325D01*
X47887Y-43387D01*
X47887Y-43427D01*
X47887Y-43527D01*
X47925Y-43618D01*
X47996Y-43689D01*
X48088Y-43727D01*
X49034Y-43727D01*
X49097Y-43664D01*
X49097Y-46215D01*
X48450Y-46215D01*
X48450Y-45895D01*
X48450Y-44989D01*
X48412Y-44897D01*
X48342Y-44827D01*
X48250Y-44789D01*
X48151Y-44789D01*
X45946Y-44789D01*
X45854Y-44827D01*
X45784Y-44897D01*
X45746Y-44989D01*
X45746Y-45088D01*
X45746Y-45994D01*
X45783Y-46086D01*
X45854Y-46156D01*
X45946Y-46194D01*
X46045Y-46194D01*
X48250Y-46194D01*
X48342Y-46156D01*
X48412Y-46086D01*
X48450Y-45994D01*
X48450Y-45895D01*
X48450Y-46215D01*
X45419Y-46215D01*
X45419Y-46190D01*
X45381Y-46098D01*
X45311Y-46028D01*
X45219Y-45990D01*
X45119Y-45990D01*
X43781Y-45990D01*
X43689Y-46028D01*
X43618Y-46098D01*
X43580Y-46190D01*
X43580Y-46289D01*
X43580Y-46840D01*
X43618Y-46932D01*
X43688Y-47003D01*
X43700Y-47007D01*
X43689Y-47012D01*
X43618Y-47082D01*
X43601Y-47125D01*
X43500Y-47125D01*
X43356Y-47153D01*
X43234Y-47234D01*
X42734Y-47734D01*
X42653Y-47856D01*
X42625Y-48000D01*
X42625Y-48794D01*
X42575Y-48915D01*
X42574Y-49084D01*
X42639Y-49240D01*
X42758Y-49360D01*
X42915Y-49424D01*
X43084Y-49425D01*
X43240Y-49360D01*
X43360Y-49241D01*
X43424Y-49084D01*
X43425Y-48915D01*
X43375Y-48794D01*
X43375Y-48155D01*
X43617Y-47913D01*
X43618Y-47917D01*
X43688Y-47987D01*
X43700Y-47992D01*
X43688Y-47996D01*
X43618Y-48067D01*
X43580Y-48159D01*
X43580Y-48396D01*
X43643Y-48459D01*
X44475Y-48459D01*
X44475Y-48451D01*
X44525Y-48451D01*
X44525Y-48459D01*
X45356Y-48459D01*
X45419Y-48396D01*
X45419Y-48159D01*
X45381Y-48067D01*
X45311Y-47996D01*
X45299Y-47992D01*
X45310Y-47987D01*
X45381Y-47917D01*
X45419Y-47825D01*
X45419Y-47726D01*
X45419Y-47174D01*
X45381Y-47082D01*
X45311Y-47012D01*
X45299Y-47007D01*
X45310Y-47003D01*
X45381Y-46933D01*
X45419Y-46841D01*
X45419Y-46815D01*
X49341Y-46815D01*
X49600Y-47074D01*
X49600Y-53900D01*
X49622Y-54014D01*
X49687Y-54112D01*
X50087Y-54512D01*
X50087Y-54512D01*
X50185Y-54577D01*
X50299Y-54599D01*
X50300Y-54600D01*
X55950Y-54600D01*
X55950Y-54599D01*
X56064Y-54577D01*
X56064Y-54577D01*
X56162Y-54512D01*
X56762Y-53912D01*
X56762Y-53912D01*
X56827Y-53814D01*
X56849Y-53700D01*
X56850Y-53700D01*
X56850Y-45901D01*
X57002Y-46002D01*
X57003Y-46003D01*
X57111Y-46048D01*
X57341Y-46094D01*
X57342Y-46094D01*
X57513Y-46128D01*
X57607Y-46191D01*
X57671Y-46287D01*
X57700Y-46428D01*
X57700Y-54965D01*
M02*
