%FSLAX34Y34*%
G04 Gerber Fmt 3.4, Leading zero omitted, Abs format*
G04 (created by PCBNEW (2014-04-25 BZR 4828)-product) date Friday 25 April 2014 06:21:09 PM IST*
%MOIN*%
G01*
G70*
G90*
G04 APERTURE LIST*
%ADD10C,0.006000*%
%ADD11C,0.010000*%
%ADD12R,0.216850X0.055433*%
%ADD13R,0.140000X0.140000*%
%ADD14R,0.100000X0.060000*%
%ADD15C,0.260000*%
%ADD16R,0.153858X0.075118*%
%ADD17R,0.240472X0.110551*%
G04 APERTURE END LIST*
G54D10*
G54D11*
X58000Y-46400D02*
G75*
G03X57400Y-45800I-600J0D01*
G74*
G01*
X56800Y-45200D02*
G75*
G03X57400Y-45800I600J0D01*
G74*
G01*
X57400Y-33800D02*
G75*
G03X56800Y-34400I0J-600D01*
G74*
G01*
X57400Y-33800D02*
G75*
G03X58000Y-33200I0J600D01*
G74*
G01*
X10000Y-21600D02*
G75*
G03X10600Y-22200I600J0D01*
G74*
G01*
X11200Y-22800D02*
G75*
G03X10600Y-22200I-600J0D01*
G74*
G01*
X10600Y-34200D02*
G75*
G03X10000Y-34800I0J-600D01*
G74*
G01*
X10600Y-34200D02*
G75*
G03X11200Y-33600I0J600D01*
G74*
G01*
X58000Y-33200D02*
X58000Y-13000D01*
X58000Y-46400D02*
X58000Y-55000D01*
X10000Y-34800D02*
X10000Y-55000D01*
X10000Y-21600D02*
X10000Y-13000D01*
X56800Y-39800D02*
X56800Y-45200D01*
X56800Y-39800D02*
X56800Y-34400D01*
X11200Y-28200D02*
X11200Y-33600D01*
X11200Y-28200D02*
X11200Y-22800D01*
X55000Y-58000D02*
X13000Y-58000D01*
X13000Y-10000D02*
X55000Y-10000D01*
X10000Y-55000D02*
G75*
G03X13000Y-58000I3000J0D01*
G74*
G01*
X58000Y-13000D02*
G75*
G03X55000Y-10000I-3000J0D01*
G74*
G01*
X13000Y-10000D02*
G75*
G03X10000Y-13000I0J-3000D01*
G74*
G01*
X55000Y-58000D02*
G75*
G03X58000Y-55000I0J3000D01*
G74*
G01*
G54D12*
X49122Y-36300D03*
X51877Y-36300D03*
X51877Y-37300D03*
X49122Y-37300D03*
X51877Y-38300D03*
X49122Y-38300D03*
X51877Y-39300D03*
X49122Y-39300D03*
X51877Y-40300D03*
X49122Y-40300D03*
X51877Y-41300D03*
X49122Y-41300D03*
X51877Y-42300D03*
X49122Y-42300D03*
X51877Y-43300D03*
X49122Y-43300D03*
G54D13*
X29600Y-55000D03*
X26400Y-55000D03*
X29600Y-49000D03*
X26400Y-49000D03*
X29600Y-43000D03*
X26400Y-43000D03*
X19100Y-37000D03*
X15900Y-37000D03*
X41600Y-31000D03*
X38400Y-31000D03*
X41600Y-25000D03*
X38400Y-25000D03*
X29600Y-19000D03*
X26400Y-19000D03*
X29600Y-13000D03*
X26400Y-13000D03*
G54D10*
G36*
X33000Y-31200D02*
X33000Y-30800D01*
X34000Y-30600D01*
X34000Y-31400D01*
X33000Y-31200D01*
X33000Y-31200D01*
G37*
G36*
X34000Y-31400D02*
X34000Y-30600D01*
X35000Y-30800D01*
X35000Y-31200D01*
X34000Y-31400D01*
X34000Y-31400D01*
G37*
G54D14*
X35600Y-31000D03*
X32400Y-31000D03*
G54D10*
G36*
X33000Y-32200D02*
X33000Y-31800D01*
X34000Y-31600D01*
X34000Y-32400D01*
X33000Y-32200D01*
X33000Y-32200D01*
G37*
G36*
X34000Y-32400D02*
X34000Y-31600D01*
X35000Y-31800D01*
X35000Y-32200D01*
X34000Y-32400D01*
X34000Y-32400D01*
G37*
G54D14*
X35600Y-32000D03*
X32400Y-32000D03*
G54D10*
G36*
X33000Y-33200D02*
X33000Y-32800D01*
X34000Y-32600D01*
X34000Y-33400D01*
X33000Y-33200D01*
X33000Y-33200D01*
G37*
G36*
X34000Y-33400D02*
X34000Y-32600D01*
X35000Y-32800D01*
X35000Y-33200D01*
X34000Y-33400D01*
X34000Y-33400D01*
G37*
G54D14*
X35600Y-33000D03*
X32400Y-33000D03*
G54D10*
G36*
X33000Y-34200D02*
X33000Y-33800D01*
X34000Y-33600D01*
X34000Y-34400D01*
X33000Y-34200D01*
X33000Y-34200D01*
G37*
G36*
X34000Y-34400D02*
X34000Y-33600D01*
X35000Y-33800D01*
X35000Y-34200D01*
X34000Y-34400D01*
X34000Y-34400D01*
G37*
G54D14*
X35600Y-34000D03*
X32400Y-34000D03*
G54D10*
G36*
X33000Y-35200D02*
X33000Y-34800D01*
X34000Y-34600D01*
X34000Y-35400D01*
X33000Y-35200D01*
X33000Y-35200D01*
G37*
G36*
X34000Y-35400D02*
X34000Y-34600D01*
X35000Y-34800D01*
X35000Y-35200D01*
X34000Y-35400D01*
X34000Y-35400D01*
G37*
G54D14*
X35600Y-35000D03*
X32400Y-35000D03*
G54D10*
G36*
X33000Y-36200D02*
X33000Y-35800D01*
X34000Y-35600D01*
X34000Y-36400D01*
X33000Y-36200D01*
X33000Y-36200D01*
G37*
G36*
X34000Y-36400D02*
X34000Y-35600D01*
X35000Y-35800D01*
X35000Y-36200D01*
X34000Y-36400D01*
X34000Y-36400D01*
G37*
G54D14*
X35600Y-36000D03*
X32400Y-36000D03*
G54D10*
G36*
X33000Y-37200D02*
X33000Y-36800D01*
X34000Y-36600D01*
X34000Y-37400D01*
X33000Y-37200D01*
X33000Y-37200D01*
G37*
G36*
X34000Y-37400D02*
X34000Y-36600D01*
X35000Y-36800D01*
X35000Y-37200D01*
X34000Y-37400D01*
X34000Y-37400D01*
G37*
G54D14*
X35600Y-37000D03*
X32400Y-37000D03*
G54D15*
X22000Y-55000D03*
X46000Y-55000D03*
X22000Y-37000D03*
X46000Y-37000D03*
X22000Y-31000D03*
X46000Y-31000D03*
X22000Y-13000D03*
X46000Y-13000D03*
G54D16*
X23500Y-20007D03*
X23500Y-20992D03*
G54D17*
X20901Y-22015D03*
X20901Y-18984D03*
G54D16*
X44500Y-20992D03*
X44500Y-20007D03*
G54D17*
X47098Y-18984D03*
X47098Y-22015D03*
G54D15*
X16000Y-16000D03*
X52000Y-16000D03*
X16000Y-52000D03*
X52000Y-52000D03*
G54D12*
X16122Y-24700D03*
X18877Y-24700D03*
X18877Y-25700D03*
X16122Y-25700D03*
X18877Y-26700D03*
X16122Y-26700D03*
X18877Y-27700D03*
X16122Y-27700D03*
X18877Y-28700D03*
X16122Y-28700D03*
X18877Y-29700D03*
X16122Y-29700D03*
X18877Y-30700D03*
X16122Y-30700D03*
X18877Y-31700D03*
X16122Y-31700D03*
G54D16*
X44500Y-47500D03*
X44500Y-46515D03*
G54D17*
X47098Y-45492D03*
X47098Y-49507D03*
G54D16*
X44500Y-48484D03*
X23500Y-47500D03*
X23500Y-48484D03*
G54D17*
X20901Y-49507D03*
X20901Y-45492D03*
G54D16*
X23500Y-46515D03*
M02*
