G04 (created by PCBNEW (2013-jul-07)-stable) date Friday 25 April 2014 11:21:42 AM IST*
%MOIN*%
G04 Gerber Fmt 3.4, Leading zero omitted, Abs format*
%FSLAX34Y34*%
G01*
G70*
G90*
G04 APERTURE LIST*
%ADD10C,0.006*%
%ADD11C,0.01*%
%ADD12R,0.056X0.042*%
%ADD13C,0.24*%
%ADD14R,0.04X0.06*%
%ADD15C,0.08*%
%ADD16C,0.035*%
%ADD17C,0.025*%
G04 APERTURE END LIST*
G54D10*
G54D11*
X58000Y-46400D02*
G75*
G03X57400Y-45800I-600J0D01*
G74*
G01*
X56800Y-45200D02*
G75*
G03X57400Y-45800I600J0D01*
G74*
G01*
X57400Y-33800D02*
G75*
G03X56800Y-34400I0J-600D01*
G74*
G01*
X57400Y-33800D02*
G75*
G03X58000Y-33200I0J600D01*
G74*
G01*
X10000Y-21600D02*
G75*
G03X10600Y-22200I600J0D01*
G74*
G01*
X11200Y-22800D02*
G75*
G03X10600Y-22200I-600J0D01*
G74*
G01*
X10600Y-34200D02*
G75*
G03X10000Y-34800I0J-600D01*
G74*
G01*
X10600Y-34200D02*
G75*
G03X11200Y-33600I0J600D01*
G74*
G01*
X58000Y-33200D02*
X58000Y-13000D01*
X58000Y-46400D02*
X58000Y-55000D01*
X10000Y-34800D02*
X10000Y-55000D01*
X10000Y-21600D02*
X10000Y-13000D01*
X56800Y-39800D02*
X56800Y-45200D01*
X56800Y-39800D02*
X56800Y-34400D01*
X11200Y-28200D02*
X11200Y-33600D01*
X11200Y-28200D02*
X11200Y-22800D01*
X55000Y-58000D02*
X13000Y-58000D01*
X13000Y-10000D02*
X55000Y-10000D01*
X10000Y-55000D02*
G75*
G03X13000Y-58000I3000J0D01*
G74*
G01*
X58000Y-13000D02*
G75*
G03X55000Y-10000I-3000J0D01*
G74*
G01*
X13000Y-10000D02*
G75*
G03X10000Y-13000I0J-3000D01*
G74*
G01*
X55000Y-58000D02*
G75*
G03X58000Y-55000I0J3000D01*
G74*
G01*
G54D12*
X14600Y-55800D03*
X14600Y-55000D03*
X14600Y-49800D03*
X14600Y-49000D03*
X14600Y-43800D03*
X14600Y-43000D03*
X14600Y-37800D03*
X14600Y-37000D03*
X14600Y-31800D03*
X14600Y-31000D03*
X14600Y-25800D03*
X14600Y-25000D03*
X14600Y-19800D03*
X14600Y-19000D03*
X14600Y-13800D03*
X14600Y-13000D03*
G54D13*
X22000Y-55000D03*
X46000Y-55000D03*
X22000Y-37000D03*
X46000Y-37000D03*
X22000Y-31000D03*
X46000Y-31000D03*
X22000Y-13000D03*
X46000Y-13000D03*
X16000Y-16000D03*
X52000Y-16000D03*
X16000Y-52000D03*
X52000Y-52000D03*
G54D14*
X55625Y-12025D03*
X55000Y-12025D03*
X54375Y-12025D03*
X54375Y-13975D03*
X55000Y-13975D03*
X55625Y-13975D03*
X49625Y-12025D03*
X49000Y-12025D03*
X48375Y-12025D03*
X48375Y-13975D03*
X49000Y-13975D03*
X49625Y-13975D03*
X43625Y-12025D03*
X43000Y-12025D03*
X42375Y-12025D03*
X42375Y-13975D03*
X43000Y-13975D03*
X43625Y-13975D03*
X37625Y-12025D03*
X37000Y-12025D03*
X36375Y-12025D03*
X36375Y-13975D03*
X37000Y-13975D03*
X37625Y-13975D03*
X31625Y-12025D03*
X31000Y-12025D03*
X30375Y-12025D03*
X30375Y-13975D03*
X31000Y-13975D03*
X31625Y-13975D03*
X25625Y-12025D03*
X25000Y-12025D03*
X24375Y-12025D03*
X24375Y-13975D03*
X25000Y-13975D03*
X25625Y-13975D03*
X19625Y-12025D03*
X19000Y-12025D03*
X18375Y-12025D03*
X18375Y-13975D03*
X19000Y-13975D03*
X19625Y-13975D03*
X13625Y-12025D03*
X13000Y-12025D03*
X12375Y-12025D03*
X12375Y-13975D03*
X13000Y-13975D03*
X13625Y-13975D03*
X55625Y-18025D03*
X55000Y-18025D03*
X54375Y-18025D03*
X54375Y-19975D03*
X55000Y-19975D03*
X55625Y-19975D03*
X49625Y-18025D03*
X49000Y-18025D03*
X48375Y-18025D03*
X48375Y-19975D03*
X49000Y-19975D03*
X49625Y-19975D03*
X43625Y-18025D03*
X43000Y-18025D03*
X42375Y-18025D03*
X42375Y-19975D03*
X43000Y-19975D03*
X43625Y-19975D03*
X37625Y-18025D03*
X37000Y-18025D03*
X36375Y-18025D03*
X36375Y-19975D03*
X37000Y-19975D03*
X37625Y-19975D03*
X31625Y-18025D03*
X31000Y-18025D03*
X30375Y-18025D03*
X30375Y-19975D03*
X31000Y-19975D03*
X31625Y-19975D03*
X25625Y-18025D03*
X25000Y-18025D03*
X24375Y-18025D03*
X24375Y-19975D03*
X25000Y-19975D03*
X25625Y-19975D03*
X19625Y-18025D03*
X19000Y-18025D03*
X18375Y-18025D03*
X18375Y-19975D03*
X19000Y-19975D03*
X19625Y-19975D03*
X13625Y-18025D03*
X13000Y-18025D03*
X12375Y-18025D03*
X12375Y-19975D03*
X13000Y-19975D03*
X13625Y-19975D03*
X55625Y-24025D03*
X55000Y-24025D03*
X54375Y-24025D03*
X54375Y-25975D03*
X55000Y-25975D03*
X55625Y-25975D03*
X49625Y-24025D03*
X49000Y-24025D03*
X48375Y-24025D03*
X48375Y-25975D03*
X49000Y-25975D03*
X49625Y-25975D03*
X43625Y-24025D03*
X43000Y-24025D03*
X42375Y-24025D03*
X42375Y-25975D03*
X43000Y-25975D03*
X43625Y-25975D03*
X37625Y-24025D03*
X37000Y-24025D03*
X36375Y-24025D03*
X36375Y-25975D03*
X37000Y-25975D03*
X37625Y-25975D03*
X31625Y-24025D03*
X31000Y-24025D03*
X30375Y-24025D03*
X30375Y-25975D03*
X31000Y-25975D03*
X31625Y-25975D03*
X25625Y-24025D03*
X25000Y-24025D03*
X24375Y-24025D03*
X24375Y-25975D03*
X25000Y-25975D03*
X25625Y-25975D03*
X19625Y-24025D03*
X19000Y-24025D03*
X18375Y-24025D03*
X18375Y-25975D03*
X19000Y-25975D03*
X19625Y-25975D03*
X13625Y-24025D03*
X13000Y-24025D03*
X12375Y-24025D03*
X12375Y-25975D03*
X13000Y-25975D03*
X13625Y-25975D03*
X55625Y-30025D03*
X55000Y-30025D03*
X54375Y-30025D03*
X54375Y-31975D03*
X55000Y-31975D03*
X55625Y-31975D03*
X49625Y-30025D03*
X49000Y-30025D03*
X48375Y-30025D03*
X48375Y-31975D03*
X49000Y-31975D03*
X49625Y-31975D03*
X43625Y-30025D03*
X43000Y-30025D03*
X42375Y-30025D03*
X42375Y-31975D03*
X43000Y-31975D03*
X43625Y-31975D03*
X37625Y-30025D03*
X37000Y-30025D03*
X36375Y-30025D03*
X36375Y-31975D03*
X37000Y-31975D03*
X37625Y-31975D03*
X31625Y-30025D03*
X31000Y-30025D03*
X30375Y-30025D03*
X30375Y-31975D03*
X31000Y-31975D03*
X31625Y-31975D03*
X25625Y-30025D03*
X25000Y-30025D03*
X24375Y-30025D03*
X24375Y-31975D03*
X25000Y-31975D03*
X25625Y-31975D03*
X19625Y-30025D03*
X19000Y-30025D03*
X18375Y-30025D03*
X18375Y-31975D03*
X19000Y-31975D03*
X19625Y-31975D03*
X13625Y-30025D03*
X13000Y-30025D03*
X12375Y-30025D03*
X12375Y-31975D03*
X13000Y-31975D03*
X13625Y-31975D03*
X55625Y-36025D03*
X55000Y-36025D03*
X54375Y-36025D03*
X54375Y-37975D03*
X55000Y-37975D03*
X55625Y-37975D03*
X49625Y-36025D03*
X49000Y-36025D03*
X48375Y-36025D03*
X48375Y-37975D03*
X49000Y-37975D03*
X49625Y-37975D03*
X43625Y-36025D03*
X43000Y-36025D03*
X42375Y-36025D03*
X42375Y-37975D03*
X43000Y-37975D03*
X43625Y-37975D03*
X37625Y-36025D03*
X37000Y-36025D03*
X36375Y-36025D03*
X36375Y-37975D03*
X37000Y-37975D03*
X37625Y-37975D03*
X31625Y-36025D03*
X31000Y-36025D03*
X30375Y-36025D03*
X30375Y-37975D03*
X31000Y-37975D03*
X31625Y-37975D03*
X25625Y-36025D03*
X25000Y-36025D03*
X24375Y-36025D03*
X24375Y-37975D03*
X25000Y-37975D03*
X25625Y-37975D03*
X19625Y-36025D03*
X19000Y-36025D03*
X18375Y-36025D03*
X18375Y-37975D03*
X19000Y-37975D03*
X19625Y-37975D03*
X13625Y-36025D03*
X13000Y-36025D03*
X12375Y-36025D03*
X12375Y-37975D03*
X13000Y-37975D03*
X13625Y-37975D03*
X55625Y-42025D03*
X55000Y-42025D03*
X54375Y-42025D03*
X54375Y-43975D03*
X55000Y-43975D03*
X55625Y-43975D03*
X49625Y-42025D03*
X49000Y-42025D03*
X48375Y-42025D03*
X48375Y-43975D03*
X49000Y-43975D03*
X49625Y-43975D03*
X43625Y-42025D03*
X43000Y-42025D03*
X42375Y-42025D03*
X42375Y-43975D03*
X43000Y-43975D03*
X43625Y-43975D03*
X37625Y-42025D03*
X37000Y-42025D03*
X36375Y-42025D03*
X36375Y-43975D03*
X37000Y-43975D03*
X37625Y-43975D03*
X31625Y-42025D03*
X31000Y-42025D03*
X30375Y-42025D03*
X30375Y-43975D03*
X31000Y-43975D03*
X31625Y-43975D03*
X25625Y-42025D03*
X25000Y-42025D03*
X24375Y-42025D03*
X24375Y-43975D03*
X25000Y-43975D03*
X25625Y-43975D03*
X19625Y-42025D03*
X19000Y-42025D03*
X18375Y-42025D03*
X18375Y-43975D03*
X19000Y-43975D03*
X19625Y-43975D03*
X13625Y-42025D03*
X13000Y-42025D03*
X12375Y-42025D03*
X12375Y-43975D03*
X13000Y-43975D03*
X13625Y-43975D03*
X55625Y-48025D03*
X55000Y-48025D03*
X54375Y-48025D03*
X54375Y-49975D03*
X55000Y-49975D03*
X55625Y-49975D03*
X49625Y-48025D03*
X49000Y-48025D03*
X48375Y-48025D03*
X48375Y-49975D03*
X49000Y-49975D03*
X49625Y-49975D03*
X43625Y-48025D03*
X43000Y-48025D03*
X42375Y-48025D03*
X42375Y-49975D03*
X43000Y-49975D03*
X43625Y-49975D03*
X37625Y-48025D03*
X37000Y-48025D03*
X36375Y-48025D03*
X36375Y-49975D03*
X37000Y-49975D03*
X37625Y-49975D03*
X31625Y-48025D03*
X31000Y-48025D03*
X30375Y-48025D03*
X30375Y-49975D03*
X31000Y-49975D03*
X31625Y-49975D03*
X25625Y-48025D03*
X25000Y-48025D03*
X24375Y-48025D03*
X24375Y-49975D03*
X25000Y-49975D03*
X25625Y-49975D03*
X19625Y-48025D03*
X19000Y-48025D03*
X18375Y-48025D03*
X18375Y-49975D03*
X19000Y-49975D03*
X19625Y-49975D03*
X13625Y-48025D03*
X13000Y-48025D03*
X12375Y-48025D03*
X12375Y-49975D03*
X13000Y-49975D03*
X13625Y-49975D03*
X55625Y-54025D03*
X55000Y-54025D03*
X54375Y-54025D03*
X54375Y-55975D03*
X55000Y-55975D03*
X55625Y-55975D03*
X49625Y-54025D03*
X49000Y-54025D03*
X48375Y-54025D03*
X48375Y-55975D03*
X49000Y-55975D03*
X49625Y-55975D03*
X43625Y-54025D03*
X43000Y-54025D03*
X42375Y-54025D03*
X42375Y-55975D03*
X43000Y-55975D03*
X43625Y-55975D03*
X37625Y-54025D03*
X37000Y-54025D03*
X36375Y-54025D03*
X36375Y-55975D03*
X37000Y-55975D03*
X37625Y-55975D03*
X31625Y-54025D03*
X31000Y-54025D03*
X30375Y-54025D03*
X30375Y-55975D03*
X31000Y-55975D03*
X31625Y-55975D03*
X25625Y-54025D03*
X25000Y-54025D03*
X24375Y-54025D03*
X24375Y-55975D03*
X25000Y-55975D03*
X25625Y-55975D03*
X19625Y-54025D03*
X19000Y-54025D03*
X18375Y-54025D03*
X18375Y-55975D03*
X19000Y-55975D03*
X19625Y-55975D03*
X13625Y-54025D03*
X13000Y-54025D03*
X12375Y-54025D03*
X12375Y-55975D03*
X13000Y-55975D03*
X13625Y-55975D03*
G54D15*
X13000Y-53150D03*
X16000Y-47150D03*
X52550Y-47150D03*
X55550Y-53150D03*
X13000Y-47150D03*
X55550Y-47150D03*
X13000Y-41150D03*
X55550Y-41150D03*
X13000Y-35150D03*
X55550Y-35150D03*
X13000Y-29150D03*
X55550Y-29150D03*
X13000Y-23150D03*
X55550Y-23150D03*
X16000Y-20150D03*
X13000Y-17150D03*
X52550Y-23150D03*
X55550Y-17150D03*
X22000Y-17150D03*
X13000Y-11150D03*
X55550Y-11150D03*
X52200Y-33800D03*
X55500Y-33800D03*
G54D16*
X43000Y-49000D03*
X17700Y-37000D03*
X43000Y-25000D03*
X31000Y-13000D03*
X31000Y-19000D03*
X31000Y-55000D03*
X43000Y-19000D03*
X23500Y-19000D03*
X23250Y-29400D03*
X46900Y-43000D03*
X43000Y-31000D03*
X31000Y-43000D03*
X31000Y-49000D03*
X44500Y-51700D03*
X26400Y-57150D03*
X15900Y-39700D03*
X38400Y-27700D03*
X26400Y-15700D03*
X26400Y-21700D03*
X49600Y-21700D03*
X23500Y-21700D03*
X17500Y-33700D03*
X53450Y-45700D03*
X26400Y-45700D03*
X26400Y-51700D03*
G54D11*
X19000Y-53675D02*
X18775Y-53450D01*
X17850Y-53450D02*
X17275Y-54025D01*
X17275Y-54025D02*
X13625Y-54025D01*
X18775Y-53450D02*
X17850Y-53450D01*
X19000Y-54025D02*
X19000Y-53675D01*
X25000Y-53675D02*
X25000Y-54025D01*
X20300Y-53000D02*
X24325Y-53000D01*
X24325Y-53000D02*
X25000Y-53675D01*
X19625Y-53675D02*
X20300Y-53000D01*
X19625Y-54025D02*
X19625Y-53675D01*
X31000Y-53675D02*
X30775Y-53450D01*
X26525Y-54025D02*
X25625Y-54025D01*
X27100Y-53450D02*
X26525Y-54025D01*
X30775Y-53450D02*
X27100Y-53450D01*
X31000Y-54025D02*
X31000Y-53675D01*
X32050Y-53250D02*
X31625Y-53675D01*
X36575Y-53250D02*
X32050Y-53250D01*
X31625Y-53675D02*
X31625Y-54025D01*
X37000Y-54025D02*
X37000Y-53675D01*
X37000Y-53675D02*
X36575Y-53250D01*
X42775Y-53450D02*
X41174Y-53450D01*
X40599Y-54025D02*
X37625Y-54025D01*
X43000Y-53675D02*
X42775Y-53450D01*
X43000Y-54025D02*
X43000Y-53675D01*
X41174Y-53450D02*
X40599Y-54025D01*
X43625Y-54025D02*
X43625Y-53675D01*
X49000Y-53675D02*
X49000Y-54025D01*
X44300Y-53000D02*
X48325Y-53000D01*
X48325Y-53000D02*
X49000Y-53675D01*
X43625Y-53675D02*
X44300Y-53000D01*
X55000Y-53675D02*
X54775Y-53450D01*
X54775Y-53450D02*
X53850Y-53450D01*
X55000Y-54025D02*
X55000Y-53675D01*
X53275Y-54025D02*
X49625Y-54025D01*
X53850Y-53450D02*
X53275Y-54025D01*
X13000Y-53150D02*
X13000Y-54025D01*
X55625Y-54025D02*
X55625Y-53225D01*
X55625Y-53225D02*
X55550Y-53150D01*
X17850Y-47450D02*
X17275Y-48025D01*
X17275Y-48025D02*
X13625Y-48025D01*
X18775Y-47450D02*
X17850Y-47450D01*
X19000Y-47675D02*
X18775Y-47450D01*
X19000Y-48025D02*
X19000Y-47675D01*
X25000Y-47675D02*
X24775Y-47450D01*
X24775Y-47450D02*
X23850Y-47450D01*
X23850Y-47450D02*
X23275Y-48025D01*
X23275Y-48025D02*
X19625Y-48025D01*
X25000Y-48025D02*
X25000Y-47675D01*
X31000Y-48025D02*
X31000Y-47675D01*
X29275Y-48025D02*
X25625Y-48025D01*
X29850Y-47450D02*
X29275Y-48025D01*
X31000Y-47675D02*
X30775Y-47450D01*
X30775Y-47450D02*
X29850Y-47450D01*
X37000Y-48025D02*
X37000Y-47675D01*
X37000Y-47675D02*
X36775Y-47450D01*
X36775Y-47450D02*
X35850Y-47450D01*
X35275Y-48025D02*
X31625Y-48025D01*
X35850Y-47450D02*
X35275Y-48025D01*
X41275Y-48025D02*
X37625Y-48025D01*
X43000Y-47675D02*
X42775Y-47450D01*
X41850Y-47450D02*
X41275Y-48025D01*
X43000Y-48025D02*
X43000Y-47675D01*
X42775Y-47450D02*
X41850Y-47450D01*
X47275Y-48025D02*
X43625Y-48025D01*
X49000Y-47675D02*
X48775Y-47450D01*
X48775Y-47450D02*
X47850Y-47450D01*
X49000Y-48025D02*
X49000Y-47675D01*
X47850Y-47450D02*
X47275Y-48025D01*
X53450Y-48025D02*
X49625Y-48025D01*
X54025Y-47450D02*
X53450Y-48025D01*
X55000Y-47675D02*
X54775Y-47450D01*
X54775Y-47450D02*
X54025Y-47450D01*
X55000Y-48025D02*
X55000Y-47675D01*
X13000Y-47150D02*
X13000Y-48025D01*
X55625Y-48025D02*
X55625Y-47225D01*
X55625Y-47225D02*
X55550Y-47150D01*
X19000Y-42025D02*
X19000Y-41675D01*
X19000Y-41675D02*
X18775Y-41450D01*
X17275Y-42025D02*
X13625Y-42025D01*
X18775Y-41450D02*
X17850Y-41450D01*
X17850Y-41450D02*
X17275Y-42025D01*
X23850Y-41450D02*
X23275Y-42025D01*
X25000Y-42025D02*
X25000Y-41675D01*
X23275Y-42025D02*
X19625Y-42025D01*
X25000Y-41675D02*
X24775Y-41450D01*
X24775Y-41450D02*
X23850Y-41450D01*
X31000Y-42025D02*
X31000Y-41675D01*
X30775Y-41450D02*
X29850Y-41450D01*
X29850Y-41450D02*
X29275Y-42025D01*
X31000Y-41675D02*
X30775Y-41450D01*
X29275Y-42025D02*
X25625Y-42025D01*
X36775Y-41450D02*
X35850Y-41450D01*
X37000Y-41675D02*
X36775Y-41450D01*
X35275Y-42025D02*
X31625Y-42025D01*
X37000Y-42025D02*
X37000Y-41675D01*
X35850Y-41450D02*
X35275Y-42025D01*
X43000Y-41675D02*
X42775Y-41450D01*
X42775Y-41450D02*
X41850Y-41450D01*
X41275Y-42025D02*
X37625Y-42025D01*
X43000Y-42025D02*
X43000Y-41675D01*
X41850Y-41450D02*
X41275Y-42025D01*
X49000Y-42025D02*
X49000Y-41675D01*
X48775Y-41450D02*
X47850Y-41450D01*
X47275Y-42025D02*
X43625Y-42025D01*
X47850Y-41450D02*
X47275Y-42025D01*
X49000Y-41675D02*
X48775Y-41450D01*
X54775Y-41450D02*
X53850Y-41450D01*
X55000Y-41675D02*
X54775Y-41450D01*
X55000Y-42025D02*
X55000Y-41675D01*
X53850Y-41450D02*
X53275Y-42025D01*
X53275Y-42025D02*
X49625Y-42025D01*
X13000Y-41150D02*
X13000Y-42025D01*
X55625Y-42025D02*
X55625Y-41225D01*
X55625Y-41225D02*
X55550Y-41150D01*
X13000Y-35150D02*
X13000Y-36025D01*
X55625Y-36025D02*
X55625Y-35225D01*
X55625Y-35225D02*
X55550Y-35150D01*
X17275Y-36025D02*
X13625Y-36025D01*
X18775Y-35450D02*
X17850Y-35450D01*
X19000Y-35675D02*
X18775Y-35450D01*
X17850Y-35450D02*
X17275Y-36025D01*
X19000Y-36025D02*
X19000Y-35675D01*
X20300Y-35000D02*
X24325Y-35000D01*
X24325Y-35000D02*
X25000Y-35675D01*
X25000Y-35675D02*
X25000Y-36025D01*
X19625Y-35675D02*
X20300Y-35000D01*
X19625Y-36025D02*
X19625Y-35675D01*
X30775Y-35450D02*
X29850Y-35450D01*
X31000Y-35675D02*
X30775Y-35450D01*
X29850Y-35450D02*
X29275Y-36025D01*
X31000Y-36025D02*
X31000Y-35675D01*
X29275Y-36025D02*
X25625Y-36025D01*
X37000Y-35675D02*
X36775Y-35450D01*
X35850Y-35450D02*
X35275Y-36025D01*
X35275Y-36025D02*
X31625Y-36025D01*
X36775Y-35450D02*
X35850Y-35450D01*
X37000Y-36025D02*
X37000Y-35675D01*
X42775Y-35450D02*
X41850Y-35450D01*
X41275Y-36025D02*
X37625Y-36025D01*
X41850Y-35450D02*
X41275Y-36025D01*
X43000Y-36025D02*
X43000Y-35675D01*
X43000Y-35675D02*
X42775Y-35450D01*
X43625Y-36025D02*
X43625Y-35675D01*
X49000Y-35675D02*
X49000Y-36025D01*
X48445Y-35120D02*
X49000Y-35675D01*
X43625Y-35675D02*
X44180Y-35120D01*
X44180Y-35120D02*
X48445Y-35120D01*
X54775Y-35450D02*
X53850Y-35450D01*
X55000Y-35675D02*
X54775Y-35450D01*
X53850Y-35450D02*
X53275Y-36025D01*
X55000Y-36025D02*
X55000Y-35675D01*
X53275Y-36025D02*
X49625Y-36025D01*
X13000Y-29150D02*
X13000Y-30025D01*
X55625Y-30025D02*
X55625Y-29225D01*
X55625Y-29225D02*
X55550Y-29150D01*
X55625Y-30025D02*
X55575Y-29175D01*
X55575Y-29175D02*
X55550Y-29150D01*
X19000Y-30025D02*
X19000Y-29675D01*
X17850Y-29450D02*
X17275Y-30025D01*
X18775Y-29450D02*
X17850Y-29450D01*
X17275Y-30025D02*
X13625Y-30025D01*
X19000Y-29675D02*
X18775Y-29450D01*
X23925Y-28600D02*
X25000Y-29675D01*
X25000Y-29675D02*
X25000Y-30025D01*
X20700Y-28600D02*
X23925Y-28600D01*
X19625Y-30025D02*
X19625Y-29675D01*
X19625Y-29675D02*
X20700Y-28600D01*
X31000Y-30025D02*
X31000Y-29675D01*
X29850Y-29450D02*
X29275Y-30025D01*
X31000Y-29675D02*
X30775Y-29450D01*
X29275Y-30025D02*
X25625Y-30025D01*
X30775Y-29450D02*
X29850Y-29450D01*
X37000Y-29675D02*
X36775Y-29450D01*
X35850Y-29450D02*
X35275Y-30025D01*
X35275Y-30025D02*
X31625Y-30025D01*
X36775Y-29450D02*
X35850Y-29450D01*
X37000Y-30025D02*
X37000Y-29675D01*
X42775Y-29450D02*
X41850Y-29450D01*
X41850Y-29450D02*
X41275Y-30025D01*
X41275Y-30025D02*
X37625Y-30025D01*
X43000Y-30025D02*
X43000Y-29675D01*
X43000Y-29675D02*
X42775Y-29450D01*
X49000Y-29675D02*
X49000Y-30025D01*
X48325Y-29000D02*
X49000Y-29675D01*
X43625Y-30025D02*
X43625Y-29675D01*
X44300Y-29000D02*
X48325Y-29000D01*
X43625Y-29675D02*
X44300Y-29000D01*
X53275Y-30025D02*
X49625Y-30025D01*
X53850Y-29450D02*
X53275Y-30025D01*
X54775Y-29450D02*
X53850Y-29450D01*
X55000Y-29675D02*
X54775Y-29450D01*
X55000Y-30025D02*
X55000Y-29675D01*
X13000Y-23150D02*
X13000Y-24025D01*
X55625Y-24025D02*
X55625Y-23225D01*
X55625Y-23225D02*
X55550Y-23150D01*
X17850Y-23450D02*
X17275Y-24025D01*
X19000Y-23675D02*
X18775Y-23450D01*
X18775Y-23450D02*
X17850Y-23450D01*
X17275Y-24025D02*
X13625Y-24025D01*
X19000Y-24025D02*
X19000Y-23675D01*
X25000Y-24025D02*
X25000Y-23675D01*
X23850Y-23450D02*
X23275Y-24025D01*
X25000Y-23675D02*
X24775Y-23450D01*
X23275Y-24025D02*
X19625Y-24025D01*
X24775Y-23450D02*
X23850Y-23450D01*
X29850Y-23450D02*
X29275Y-24025D01*
X30775Y-23450D02*
X29850Y-23450D01*
X29275Y-24025D02*
X25625Y-24025D01*
X31000Y-24025D02*
X31000Y-23675D01*
X31000Y-23675D02*
X30775Y-23450D01*
X37000Y-24025D02*
X37000Y-23675D01*
X37000Y-23675D02*
X36775Y-23450D01*
X35275Y-24025D02*
X31625Y-24025D01*
X36775Y-23450D02*
X35850Y-23450D01*
X35850Y-23450D02*
X35275Y-24025D01*
X41275Y-24025D02*
X37625Y-24025D01*
X43000Y-23675D02*
X42775Y-23450D01*
X42775Y-23450D02*
X41850Y-23450D01*
X41850Y-23450D02*
X41275Y-24025D01*
X43000Y-24025D02*
X43000Y-23675D01*
X47850Y-23450D02*
X47275Y-24025D01*
X49000Y-24025D02*
X49000Y-23675D01*
X48775Y-23450D02*
X47850Y-23450D01*
X47275Y-24025D02*
X43625Y-24025D01*
X49000Y-23675D02*
X48775Y-23450D01*
X53275Y-24025D02*
X49625Y-24025D01*
X55000Y-23675D02*
X54775Y-23450D01*
X55000Y-24025D02*
X55000Y-23675D01*
X54775Y-23450D02*
X53850Y-23450D01*
X53850Y-23450D02*
X53275Y-24025D01*
X13000Y-17150D02*
X13000Y-18025D01*
X55625Y-17225D02*
X55550Y-17150D01*
X55625Y-18025D02*
X55625Y-17225D01*
X17850Y-17450D02*
X17275Y-18025D01*
X18775Y-17450D02*
X17850Y-17450D01*
X17275Y-18025D02*
X13625Y-18025D01*
X19000Y-17675D02*
X18775Y-17450D01*
X19000Y-18025D02*
X19000Y-17675D01*
X25000Y-18025D02*
X25000Y-17675D01*
X24775Y-17450D02*
X23850Y-17450D01*
X25000Y-17675D02*
X24775Y-17450D01*
X23275Y-18025D02*
X19625Y-18025D01*
X23850Y-17450D02*
X23275Y-18025D01*
X31000Y-17675D02*
X30775Y-17450D01*
X29275Y-18025D02*
X25625Y-18025D01*
X30775Y-17450D02*
X29850Y-17450D01*
X29850Y-17450D02*
X29275Y-18025D01*
X31000Y-18025D02*
X31000Y-17675D01*
X35275Y-18025D02*
X31625Y-18025D01*
X37000Y-18025D02*
X37000Y-17675D01*
X35850Y-17450D02*
X35275Y-18025D01*
X37000Y-17675D02*
X36775Y-17450D01*
X36775Y-17450D02*
X35850Y-17450D01*
X41850Y-17450D02*
X41275Y-18025D01*
X42775Y-17450D02*
X41850Y-17450D01*
X43000Y-18025D02*
X43000Y-17675D01*
X43000Y-17675D02*
X42775Y-17450D01*
X41275Y-18025D02*
X37625Y-18025D01*
X47850Y-17450D02*
X47275Y-18025D01*
X49000Y-18025D02*
X49000Y-17675D01*
X47275Y-18025D02*
X43625Y-18025D01*
X49000Y-17675D02*
X48775Y-17450D01*
X48775Y-17450D02*
X47850Y-17450D01*
X55000Y-17675D02*
X54750Y-17425D01*
X53850Y-17425D02*
X53250Y-18025D01*
X55000Y-18025D02*
X55000Y-17675D01*
X54750Y-17425D02*
X53850Y-17425D01*
X53250Y-18025D02*
X49625Y-18025D01*
X13000Y-11150D02*
X13000Y-12025D01*
X55625Y-11225D02*
X55550Y-11150D01*
X55625Y-12025D02*
X55625Y-11225D01*
X55500Y-33800D02*
X52200Y-33800D01*
X17350Y-12025D02*
X13625Y-12025D01*
X19000Y-11675D02*
X18775Y-11450D01*
X17925Y-11450D02*
X17350Y-12025D01*
X19000Y-12025D02*
X19000Y-11675D01*
X18775Y-11450D02*
X17925Y-11450D01*
X24325Y-11000D02*
X25000Y-11675D01*
X20300Y-11000D02*
X24325Y-11000D01*
X25000Y-11675D02*
X25000Y-12025D01*
X19625Y-11675D02*
X20300Y-11000D01*
X19625Y-12025D02*
X19625Y-11675D01*
X31000Y-12025D02*
X31000Y-11225D01*
X30525Y-10750D02*
X26075Y-10750D01*
X25625Y-11200D02*
X25625Y-12025D01*
X31000Y-11225D02*
X30525Y-10750D01*
X26075Y-10750D02*
X25625Y-11200D01*
X37000Y-11675D02*
X36775Y-11450D01*
X35375Y-12025D02*
X31625Y-12025D01*
X37000Y-12025D02*
X37000Y-11675D01*
X36775Y-11450D02*
X35950Y-11450D01*
X35950Y-11450D02*
X35375Y-12025D01*
X43000Y-11675D02*
X42775Y-11450D01*
X41075Y-11450D02*
X40500Y-12025D01*
X43000Y-12025D02*
X43000Y-11675D01*
X42775Y-11450D02*
X41075Y-11450D01*
X40500Y-12025D02*
X37625Y-12025D01*
X44300Y-11000D02*
X48325Y-11000D01*
X43625Y-12025D02*
X43625Y-11675D01*
X43625Y-11675D02*
X44300Y-11000D01*
X49000Y-11675D02*
X49000Y-12025D01*
X48325Y-11000D02*
X49000Y-11675D01*
X55000Y-12025D02*
X55000Y-11675D01*
X49850Y-11450D02*
X49625Y-11675D01*
X49625Y-11675D02*
X49625Y-12025D01*
X54775Y-11450D02*
X49850Y-11450D01*
X55000Y-11675D02*
X54775Y-11450D01*
G54D17*
X12375Y-55000D02*
X13000Y-55000D01*
X23875Y-12025D02*
X23250Y-11400D01*
X13000Y-31000D02*
X13000Y-31975D01*
X55000Y-37975D02*
X55000Y-37000D01*
X19775Y-55000D02*
X20325Y-54450D01*
X18375Y-18025D02*
X18375Y-19000D01*
X19000Y-19000D02*
X19000Y-19975D01*
X13000Y-37975D02*
X13000Y-37000D01*
X48375Y-12025D02*
X48375Y-13000D01*
X37000Y-37975D02*
X37000Y-37000D01*
X36375Y-54025D02*
X36375Y-55000D01*
X14600Y-13000D02*
X18375Y-13000D01*
X19000Y-49000D02*
X18375Y-49000D01*
X47850Y-36025D02*
X47225Y-35400D01*
X12375Y-19000D02*
X13000Y-19000D01*
X42375Y-43000D02*
X43000Y-43000D01*
X12375Y-37000D02*
X13000Y-37000D01*
X18375Y-19000D02*
X19000Y-19000D01*
X20325Y-54125D02*
X20325Y-54450D01*
X43000Y-25000D02*
X43000Y-25975D01*
X49900Y-54575D02*
X49475Y-55000D01*
X18375Y-48025D02*
X18375Y-49000D01*
X54375Y-25000D02*
X49000Y-25000D01*
X18375Y-13000D02*
X19000Y-13000D01*
X24620Y-13000D02*
X25000Y-13000D01*
X47225Y-29400D02*
X44875Y-29400D01*
X30375Y-12025D02*
X30375Y-13000D01*
X54375Y-36025D02*
X54375Y-37000D01*
X36375Y-25000D02*
X37000Y-25000D01*
X30375Y-19000D02*
X31000Y-19000D01*
X18375Y-42025D02*
X18375Y-43000D01*
X54375Y-43000D02*
X55000Y-43000D01*
X47850Y-54025D02*
X47225Y-53400D01*
X30375Y-25000D02*
X31000Y-25000D01*
X37000Y-25000D02*
X37000Y-25975D01*
X24375Y-12025D02*
X23875Y-12025D01*
X21050Y-35400D02*
X20325Y-36125D01*
X36375Y-36025D02*
X36375Y-37000D01*
X43000Y-49000D02*
X48375Y-49000D01*
X37000Y-49975D02*
X37000Y-49000D01*
X54375Y-30025D02*
X54375Y-31000D01*
X53725Y-55000D02*
X54375Y-55000D01*
X25000Y-13975D02*
X25000Y-13000D01*
X25000Y-25975D02*
X25000Y-25000D01*
X30375Y-55000D02*
X31000Y-55000D01*
X14600Y-55000D02*
X13000Y-55000D01*
X13000Y-25975D02*
X13000Y-25000D01*
X13000Y-19000D02*
X13000Y-19975D01*
X46900Y-43000D02*
X48375Y-43000D01*
X43000Y-43000D02*
X46900Y-43000D01*
X49000Y-49975D02*
X49000Y-49000D01*
X37000Y-31000D02*
X37000Y-31975D01*
X42375Y-36025D02*
X42375Y-37000D01*
X12375Y-36025D02*
X12375Y-37000D01*
X19000Y-49000D02*
X24375Y-49000D01*
X55000Y-49975D02*
X55000Y-49000D01*
X24375Y-37000D02*
X25000Y-37000D01*
X42375Y-18025D02*
X42375Y-19000D01*
X30375Y-43000D02*
X31000Y-43000D01*
X31000Y-31000D02*
X31000Y-31975D01*
X31000Y-49975D02*
X31000Y-49000D01*
X49000Y-19975D02*
X49000Y-19000D01*
X36375Y-43000D02*
X37000Y-43000D01*
X42375Y-42025D02*
X42375Y-43000D01*
X19000Y-31000D02*
X19000Y-31975D01*
X54375Y-37000D02*
X55000Y-37000D01*
X24375Y-24025D02*
X24375Y-25000D01*
X44325Y-53950D02*
X44325Y-54325D01*
X44875Y-53400D02*
X44325Y-53950D01*
X18375Y-12025D02*
X18375Y-13000D01*
X49000Y-31975D02*
X49000Y-31000D01*
X49000Y-37975D02*
X49000Y-37000D01*
X36375Y-12025D02*
X36375Y-13000D01*
X44875Y-29400D02*
X44325Y-29950D01*
X19000Y-13000D02*
X19775Y-13000D01*
X54375Y-48025D02*
X54375Y-49000D01*
X54375Y-55000D02*
X55000Y-55000D01*
X53300Y-54575D02*
X53725Y-55000D01*
X30375Y-30025D02*
X30375Y-31000D01*
X24375Y-19000D02*
X25000Y-19000D01*
X12375Y-12025D02*
X12375Y-13000D01*
X48375Y-42025D02*
X48375Y-43000D01*
X24375Y-43000D02*
X19000Y-43000D01*
X25000Y-43975D02*
X25000Y-43000D01*
X31000Y-55975D02*
X31000Y-55000D01*
X54375Y-24025D02*
X54375Y-25000D01*
X30375Y-54025D02*
X30375Y-55000D01*
X55000Y-43975D02*
X55000Y-43000D01*
X23250Y-53400D02*
X21050Y-53400D01*
X23875Y-30025D02*
X23250Y-29400D01*
X24375Y-30025D02*
X23875Y-30025D01*
X18375Y-30025D02*
X18375Y-31000D01*
X19000Y-55000D02*
X19775Y-55000D01*
X36375Y-18025D02*
X36375Y-19000D01*
X43000Y-13000D02*
X43000Y-13975D01*
X48375Y-13000D02*
X49000Y-13000D01*
X54375Y-31000D02*
X55000Y-31000D01*
X43000Y-55000D02*
X43650Y-55000D01*
X49000Y-55975D02*
X49000Y-55000D01*
X49475Y-55000D02*
X49000Y-55000D01*
X44875Y-11400D02*
X47075Y-11400D01*
X55000Y-19000D02*
X55000Y-19975D01*
X30375Y-48025D02*
X30375Y-49000D01*
X14600Y-31000D02*
X18375Y-31000D01*
X36375Y-24025D02*
X36375Y-25000D01*
X42375Y-48025D02*
X42375Y-49000D01*
X12375Y-25000D02*
X13000Y-25000D01*
X30375Y-24025D02*
X30375Y-25000D01*
X42375Y-19000D02*
X37000Y-19000D01*
X23250Y-11400D02*
X21050Y-11400D01*
X47075Y-11400D02*
X47700Y-12025D01*
X37000Y-13000D02*
X37000Y-13975D01*
X19775Y-37000D02*
X20325Y-36450D01*
X43000Y-31000D02*
X43650Y-31000D01*
X30375Y-55000D02*
X25000Y-55000D01*
X12375Y-49000D02*
X12375Y-48025D01*
X55000Y-25000D02*
X55000Y-25975D01*
X25000Y-25000D02*
X30375Y-25000D01*
X48375Y-30025D02*
X48375Y-31000D01*
X30375Y-18025D02*
X30375Y-19000D01*
X43000Y-19000D02*
X43000Y-19975D01*
X49000Y-25975D02*
X49000Y-25000D01*
X53300Y-54575D02*
X49900Y-54575D01*
X23875Y-54025D02*
X23250Y-53400D01*
X18375Y-43000D02*
X19000Y-43000D01*
X36375Y-43000D02*
X31000Y-43000D01*
X12375Y-54025D02*
X12375Y-55000D01*
X42375Y-54025D02*
X42375Y-55000D01*
X24375Y-54025D02*
X24375Y-55000D01*
X19775Y-13000D02*
X20325Y-12450D01*
X30375Y-13000D02*
X31000Y-13000D01*
X21050Y-53400D02*
X20325Y-54125D01*
X24375Y-36025D02*
X23875Y-36025D01*
X13000Y-55975D02*
X13000Y-55000D01*
X37000Y-43975D02*
X37000Y-43000D01*
X55000Y-49000D02*
X54375Y-49000D01*
X42375Y-54025D02*
X41650Y-54025D01*
X18375Y-31000D02*
X19000Y-31000D01*
X54375Y-19000D02*
X55000Y-19000D01*
X44875Y-11400D02*
X44325Y-11950D01*
X25000Y-13000D02*
X30375Y-13000D01*
X48375Y-49000D02*
X48375Y-48025D01*
X14600Y-25000D02*
X13000Y-25000D01*
X48375Y-18025D02*
X48375Y-19000D01*
X42375Y-12025D02*
X42375Y-13000D01*
X43650Y-55000D02*
X44325Y-54325D01*
X12375Y-13000D02*
X13000Y-13000D01*
X14600Y-43000D02*
X13000Y-43000D01*
X31000Y-43975D02*
X31000Y-43000D01*
X42375Y-30025D02*
X42375Y-31000D01*
X31000Y-49000D02*
X30375Y-49000D01*
X42375Y-25000D02*
X43000Y-25000D01*
X49000Y-25000D02*
X48375Y-25000D01*
X14600Y-49000D02*
X13000Y-49000D01*
X31000Y-19000D02*
X31000Y-19975D01*
X36375Y-19000D02*
X37000Y-19000D01*
X38027Y-54600D02*
X37627Y-55000D01*
X42375Y-55000D02*
X43000Y-55000D01*
X54375Y-42025D02*
X54375Y-43000D01*
X20325Y-36125D02*
X20325Y-36450D01*
X43000Y-43000D02*
X43000Y-43975D01*
X44325Y-29950D02*
X44325Y-30325D01*
X12375Y-43000D02*
X13000Y-43000D01*
X18375Y-25000D02*
X19000Y-25000D01*
X36375Y-13000D02*
X37000Y-13000D01*
X12375Y-42025D02*
X12375Y-43000D01*
X42375Y-37000D02*
X43000Y-37000D01*
X42375Y-24025D02*
X42375Y-25000D01*
X36375Y-25000D02*
X31000Y-25000D01*
X18375Y-54025D02*
X18375Y-55000D01*
X25000Y-19975D02*
X25000Y-19000D01*
X12375Y-31000D02*
X13000Y-31000D01*
X12375Y-30025D02*
X12375Y-31000D01*
X42375Y-25000D02*
X37000Y-25000D01*
X43000Y-49000D02*
X42375Y-49000D01*
X31000Y-49000D02*
X36375Y-49000D01*
X24375Y-54025D02*
X23875Y-54025D01*
X48375Y-36025D02*
X47850Y-36025D01*
X13000Y-49975D02*
X13000Y-49000D01*
X18375Y-25000D02*
X14600Y-25000D01*
X24375Y-43000D02*
X25000Y-43000D01*
X24375Y-36025D02*
X24375Y-37000D01*
X48375Y-19000D02*
X49000Y-19000D01*
X49000Y-13975D02*
X49000Y-13000D01*
X13000Y-13000D02*
X13000Y-13975D01*
X19000Y-25000D02*
X24375Y-25000D01*
X43000Y-25000D02*
X48375Y-25000D01*
X19000Y-25000D02*
X19000Y-25975D01*
X49000Y-31000D02*
X54375Y-31000D01*
X14600Y-13000D02*
X13000Y-13000D01*
X24375Y-12755D02*
X24620Y-13000D01*
X55000Y-13000D02*
X55000Y-13975D01*
X54375Y-49000D02*
X49000Y-49000D01*
X20325Y-12125D02*
X20325Y-12450D01*
X18375Y-24025D02*
X18375Y-25000D01*
X36375Y-42025D02*
X36375Y-43000D01*
X48375Y-37000D02*
X49000Y-37000D01*
X24375Y-55000D02*
X25000Y-55000D01*
X41650Y-54025D02*
X41400Y-54275D01*
X43000Y-37000D02*
X43000Y-37975D01*
X23875Y-36025D02*
X23250Y-35400D01*
X19000Y-31000D02*
X19775Y-31000D01*
X23250Y-29400D02*
X21050Y-29400D01*
X19775Y-31000D02*
X20325Y-30450D01*
X20325Y-30125D02*
X20325Y-30450D01*
X21050Y-29400D02*
X20325Y-30125D01*
X13000Y-49000D02*
X12375Y-49000D01*
X21050Y-11400D02*
X20325Y-12125D01*
X41050Y-12025D02*
X40325Y-12750D01*
X36375Y-31000D02*
X37000Y-31000D01*
X37000Y-55975D02*
X37000Y-55000D01*
X24375Y-25000D02*
X25000Y-25000D01*
X37000Y-49000D02*
X36375Y-49000D01*
X30375Y-42025D02*
X30375Y-43000D01*
X12375Y-24025D02*
X12375Y-25000D01*
X31000Y-37975D02*
X31000Y-37000D01*
X25000Y-31975D02*
X25000Y-31000D01*
X19000Y-43000D02*
X19000Y-43975D01*
X18375Y-55000D02*
X14600Y-55000D01*
X47225Y-53400D02*
X44875Y-53400D01*
X42375Y-13000D02*
X43000Y-13000D01*
X48375Y-36025D02*
X48375Y-37000D01*
X14600Y-31000D02*
X13000Y-31000D01*
X54375Y-54025D02*
X54375Y-55000D01*
X14600Y-37000D02*
X13000Y-37000D01*
X43650Y-13000D02*
X44325Y-12325D01*
X25000Y-37975D02*
X25000Y-37000D01*
X48375Y-25000D02*
X48375Y-24025D01*
X42375Y-37000D02*
X37000Y-37000D01*
X41400Y-54600D02*
X38027Y-54600D01*
X48375Y-55000D02*
X49000Y-55000D01*
X23250Y-35400D02*
X21050Y-35400D01*
X42375Y-19000D02*
X43000Y-19000D01*
X41400Y-54275D02*
X41400Y-54600D01*
X37000Y-49000D02*
X42375Y-49000D01*
X19000Y-55000D02*
X19000Y-55975D01*
X19000Y-49000D02*
X19000Y-49975D01*
X44325Y-11950D02*
X44325Y-12325D01*
X47850Y-30025D02*
X47225Y-29400D01*
X30375Y-43000D02*
X25000Y-43000D01*
X31000Y-19000D02*
X36375Y-19000D01*
X54375Y-43000D02*
X49000Y-43000D01*
X36375Y-55000D02*
X31000Y-55000D01*
X43000Y-49000D02*
X43000Y-49975D01*
X48375Y-30025D02*
X47850Y-30025D01*
X49000Y-49000D02*
X48375Y-49000D01*
X47225Y-35400D02*
X44875Y-35400D01*
X43650Y-37000D02*
X44325Y-36325D01*
X30375Y-37000D02*
X31000Y-37000D01*
X54375Y-25000D02*
X55000Y-25000D01*
X55000Y-55975D02*
X55000Y-55000D01*
X14600Y-43000D02*
X18375Y-43000D01*
X24375Y-49000D02*
X24375Y-48025D01*
X48375Y-54025D02*
X47850Y-54025D01*
X48375Y-54025D02*
X48375Y-55000D01*
X48375Y-31000D02*
X49000Y-31000D01*
X54375Y-18025D02*
X54375Y-19000D01*
X24375Y-31000D02*
X25000Y-31000D01*
X19000Y-37000D02*
X19000Y-37975D01*
X44875Y-35400D02*
X44325Y-35950D01*
X31000Y-13000D02*
X36375Y-13000D01*
X30375Y-36025D02*
X30375Y-37000D01*
X24375Y-30025D02*
X24375Y-31000D01*
X54375Y-12025D02*
X54375Y-13000D01*
X18375Y-37000D02*
X19000Y-37000D01*
X18375Y-55000D02*
X19000Y-55000D01*
X42375Y-31000D02*
X43000Y-31000D01*
X54375Y-13000D02*
X55000Y-13000D01*
X19000Y-37000D02*
X19775Y-37000D01*
X14600Y-19000D02*
X13000Y-19000D01*
X18375Y-49000D02*
X14600Y-49000D01*
X14600Y-37000D02*
X17700Y-37000D01*
X17700Y-37000D02*
X18375Y-37000D01*
X36375Y-37000D02*
X37000Y-37000D01*
X18375Y-36025D02*
X18375Y-37000D01*
X43000Y-31000D02*
X43000Y-31975D01*
X13000Y-43975D02*
X13000Y-43000D01*
X37250Y-12750D02*
X37000Y-13000D01*
X49000Y-37000D02*
X54375Y-37000D01*
X43650Y-31000D02*
X44325Y-30325D01*
X24375Y-18025D02*
X24375Y-19000D01*
X42375Y-31000D02*
X37000Y-31000D01*
X48375Y-43000D02*
X49000Y-43000D01*
X30375Y-31000D02*
X31000Y-31000D01*
X36375Y-30025D02*
X36375Y-31000D01*
X43000Y-13000D02*
X43650Y-13000D01*
X37000Y-43000D02*
X42375Y-43000D01*
X12375Y-18025D02*
X12375Y-19000D01*
X31000Y-25000D02*
X31000Y-25975D01*
X23500Y-19000D02*
X19000Y-19000D01*
X24375Y-19000D02*
X23500Y-19000D01*
X37000Y-19000D02*
X37000Y-19975D01*
X48375Y-19000D02*
X43000Y-19000D01*
X37627Y-55000D02*
X37000Y-55000D01*
X42375Y-12025D02*
X41050Y-12025D01*
X25000Y-55975D02*
X25000Y-55000D01*
X36375Y-48025D02*
X36375Y-49000D01*
X30375Y-37000D02*
X25000Y-37000D01*
X49000Y-43975D02*
X49000Y-43000D01*
X43000Y-55000D02*
X43000Y-55975D01*
X18375Y-19000D02*
X14600Y-19000D01*
X24375Y-12025D02*
X24375Y-12755D01*
X19000Y-13000D02*
X19000Y-13975D01*
X40325Y-12750D02*
X37250Y-12750D01*
X24375Y-42025D02*
X24375Y-43000D01*
X43000Y-37000D02*
X43650Y-37000D01*
X48375Y-12025D02*
X47700Y-12025D01*
X30375Y-31000D02*
X25000Y-31000D01*
X49000Y-19000D02*
X54375Y-19000D01*
X36375Y-55000D02*
X37000Y-55000D01*
X31000Y-37000D02*
X36375Y-37000D01*
X31000Y-31000D02*
X36375Y-31000D01*
X55000Y-31975D02*
X55000Y-31000D01*
X25000Y-19000D02*
X30375Y-19000D01*
X44325Y-35950D02*
X44325Y-36325D01*
X56800Y-55000D02*
X55000Y-55000D01*
X57100Y-54700D02*
X56800Y-55000D01*
X57100Y-49000D02*
X57100Y-54700D01*
X56280Y-37000D02*
X56280Y-43000D01*
X57100Y-19000D02*
X57100Y-25000D01*
X57100Y-13450D02*
X57100Y-19000D01*
X56650Y-13000D02*
X57100Y-13450D01*
X55000Y-13000D02*
X56650Y-13000D01*
X55000Y-49000D02*
X57100Y-49000D01*
X55000Y-43000D02*
X56280Y-43000D01*
X55000Y-37000D02*
X56280Y-37000D01*
X57100Y-25000D02*
X57100Y-31000D01*
X56280Y-31000D02*
X57100Y-31000D01*
X55000Y-31000D02*
X56280Y-31000D01*
X55000Y-25000D02*
X57100Y-25000D01*
X55000Y-19000D02*
X57100Y-19000D01*
X31000Y-13975D02*
X31000Y-13000D01*
X49000Y-13000D02*
X54375Y-13000D01*
X25000Y-49000D02*
X24375Y-49000D01*
X30375Y-49000D02*
X25000Y-49000D01*
X25000Y-49975D02*
X25000Y-49000D01*
X56280Y-37000D02*
X56280Y-31000D01*
X57100Y-46700D02*
X56280Y-45880D01*
X56280Y-45880D02*
X56280Y-43000D01*
X57100Y-49000D02*
X57100Y-46700D01*
X13650Y-57150D02*
X12400Y-57150D01*
X12400Y-57150D02*
X10700Y-55450D01*
X49600Y-57150D02*
X55050Y-57150D01*
X55050Y-57150D02*
X55625Y-56575D01*
X43600Y-57150D02*
X49600Y-57150D01*
X49600Y-57150D02*
X49625Y-57150D01*
X37625Y-57150D02*
X43600Y-57150D01*
X43600Y-57150D02*
X43625Y-57150D01*
X31600Y-57150D02*
X37625Y-57150D01*
X26400Y-57150D02*
X31600Y-57150D01*
X31600Y-57150D02*
X31625Y-57150D01*
X25600Y-57150D02*
X26400Y-57150D01*
X19625Y-57150D02*
X25600Y-57150D01*
X25600Y-57150D02*
X25625Y-57150D01*
X13625Y-57150D02*
X13650Y-57150D01*
X13650Y-57150D02*
X19625Y-57150D01*
X49625Y-33700D02*
X50350Y-33700D01*
X55250Y-32750D02*
X55625Y-32375D01*
X51300Y-32750D02*
X55250Y-32750D01*
X50350Y-33700D02*
X51300Y-32750D01*
X53450Y-45700D02*
X54850Y-45700D01*
X54850Y-45700D02*
X55625Y-44925D01*
X31625Y-37975D02*
X31625Y-39700D01*
X49625Y-31975D02*
X49625Y-33700D01*
X19625Y-49975D02*
X19625Y-51700D01*
X43625Y-39700D02*
X49625Y-39700D01*
X14600Y-19800D02*
X14200Y-19800D01*
X14200Y-25800D02*
X14025Y-25975D01*
X14000Y-55975D02*
X13625Y-55975D01*
X14200Y-19800D02*
X14025Y-19975D01*
X31625Y-49975D02*
X31625Y-51700D01*
X43625Y-33700D02*
X49625Y-33700D01*
X37625Y-21700D02*
X43625Y-21700D01*
X55625Y-55975D02*
X55625Y-56575D01*
X14600Y-25800D02*
X14200Y-25800D01*
X14200Y-13800D02*
X14025Y-13975D01*
X14600Y-13800D02*
X14200Y-13800D01*
X14025Y-13975D02*
X13625Y-13975D01*
X14600Y-37800D02*
X14200Y-37800D01*
X43625Y-43975D02*
X43625Y-45700D01*
X37625Y-39700D02*
X43625Y-39700D01*
X49625Y-13975D02*
X49625Y-15700D01*
X31625Y-43975D02*
X31625Y-45700D01*
X14025Y-19975D02*
X13625Y-19975D01*
X14600Y-55800D02*
X14175Y-55800D01*
X25625Y-19975D02*
X25625Y-21700D01*
X14200Y-31800D02*
X14025Y-31975D01*
X49625Y-25975D02*
X49625Y-27700D01*
X43625Y-21700D02*
X49625Y-21700D01*
X49625Y-45700D02*
X53450Y-45700D01*
X37625Y-45700D02*
X43625Y-45700D01*
X14025Y-25975D02*
X13625Y-25975D01*
X55625Y-19975D02*
X55625Y-21700D01*
X25625Y-13975D02*
X25625Y-15700D01*
X49625Y-43975D02*
X49625Y-45700D01*
X49625Y-21700D02*
X55625Y-21700D01*
X19625Y-33700D02*
X25625Y-33700D01*
X25625Y-31975D02*
X25625Y-33700D01*
X19625Y-25975D02*
X19625Y-27700D01*
X14175Y-55800D02*
X14000Y-55975D01*
X19625Y-19975D02*
X19625Y-21700D01*
X37625Y-43975D02*
X37625Y-45700D01*
X14025Y-49975D02*
X13625Y-49975D01*
X25625Y-39700D02*
X31625Y-39700D01*
X43625Y-31975D02*
X43625Y-33700D01*
X19625Y-13975D02*
X19625Y-15700D01*
X49625Y-55975D02*
X49625Y-57150D01*
X55625Y-25975D02*
X55625Y-27700D01*
X43625Y-13975D02*
X43625Y-15700D01*
X25625Y-25975D02*
X25625Y-27700D01*
X43625Y-37975D02*
X43625Y-39700D01*
X49625Y-27700D02*
X55625Y-27700D01*
X37625Y-27700D02*
X38400Y-27700D01*
X38400Y-27700D02*
X43625Y-27700D01*
X31625Y-13975D02*
X31625Y-15700D01*
X31625Y-45700D02*
X37625Y-45700D01*
X49625Y-49975D02*
X49625Y-51700D01*
X14600Y-49800D02*
X14200Y-49800D01*
X14200Y-37800D02*
X14025Y-37975D01*
X43625Y-25975D02*
X43625Y-27700D01*
X14025Y-37975D02*
X13625Y-37975D01*
X43625Y-55975D02*
X43625Y-57150D01*
X49625Y-39700D02*
X55625Y-39700D01*
X31625Y-39700D02*
X37625Y-39700D01*
X31625Y-21700D02*
X37625Y-21700D01*
X49625Y-15700D02*
X43625Y-15700D01*
X31625Y-51700D02*
X37625Y-51700D01*
X37625Y-19975D02*
X37625Y-21700D01*
X55625Y-37975D02*
X55625Y-39700D01*
X31625Y-31975D02*
X31625Y-33700D01*
X25625Y-33700D02*
X31625Y-33700D01*
X26400Y-51700D02*
X31625Y-51700D01*
X25625Y-51700D02*
X26400Y-51700D01*
X14025Y-43975D02*
X13625Y-43975D01*
X26400Y-15700D02*
X25625Y-15700D01*
X19625Y-31975D02*
X19625Y-33700D01*
X14025Y-31975D02*
X13625Y-31975D01*
X31625Y-19975D02*
X31625Y-21700D01*
X43625Y-19975D02*
X43625Y-21700D01*
X49625Y-19975D02*
X49625Y-21700D01*
X43625Y-27700D02*
X49625Y-27700D01*
X37625Y-37975D02*
X37625Y-39700D01*
X31625Y-33700D02*
X37625Y-33700D01*
X19625Y-39700D02*
X25625Y-39700D01*
X19625Y-51700D02*
X25625Y-51700D01*
X26400Y-45700D02*
X31625Y-45700D01*
X25625Y-45700D02*
X26400Y-45700D01*
X54250Y-15700D02*
X55625Y-15700D01*
X55625Y-13975D02*
X55625Y-15700D01*
X25625Y-43975D02*
X25625Y-45700D01*
X19625Y-55975D02*
X19625Y-57150D01*
X19625Y-45700D02*
X25625Y-45700D01*
X31625Y-15700D02*
X26400Y-15700D01*
X25625Y-27700D02*
X31625Y-27700D01*
X37625Y-55975D02*
X37625Y-57150D01*
X43625Y-49975D02*
X43625Y-51700D01*
X18200Y-51700D02*
X19625Y-51700D01*
X37625Y-25975D02*
X37625Y-27700D01*
X19625Y-33700D02*
X17500Y-33700D01*
X25625Y-55975D02*
X25625Y-57150D01*
X19625Y-37975D02*
X19625Y-39700D01*
X54150Y-51700D02*
X55625Y-51700D01*
X55625Y-49975D02*
X55625Y-51700D01*
X55625Y-43975D02*
X55625Y-44925D01*
X31625Y-27700D02*
X37625Y-27700D01*
X31625Y-25975D02*
X31625Y-27700D01*
X37625Y-31975D02*
X37625Y-33700D01*
X23500Y-21700D02*
X25625Y-21700D01*
X19625Y-21700D02*
X23500Y-21700D01*
X26400Y-21700D02*
X31625Y-21700D01*
X25625Y-21700D02*
X26400Y-21700D01*
X37625Y-51700D02*
X43625Y-51700D01*
X25625Y-49975D02*
X25625Y-51700D01*
X37625Y-13975D02*
X37625Y-15700D01*
X25625Y-37975D02*
X25625Y-39700D01*
X37625Y-33700D02*
X43625Y-33700D01*
X31625Y-15700D02*
X37625Y-15700D01*
X14200Y-43800D02*
X14025Y-43975D01*
X43625Y-15700D02*
X37625Y-15700D01*
X14600Y-31800D02*
X14200Y-31800D01*
X43625Y-51700D02*
X44500Y-51700D01*
X44500Y-51700D02*
X49625Y-51700D01*
X49625Y-37975D02*
X49625Y-39700D01*
X19625Y-27700D02*
X25625Y-27700D01*
X14200Y-49800D02*
X14025Y-49975D01*
X43625Y-45700D02*
X49625Y-45700D01*
X19625Y-43975D02*
X19625Y-45700D01*
X31625Y-55975D02*
X31625Y-57150D01*
X14600Y-43800D02*
X14200Y-43800D01*
X37625Y-49975D02*
X37625Y-51700D01*
X25625Y-15700D02*
X19625Y-15700D01*
X16450Y-13800D02*
X18350Y-15700D01*
X18350Y-15700D02*
X19625Y-15700D01*
X14600Y-13800D02*
X16450Y-13800D01*
X52525Y-13975D02*
X54250Y-15700D01*
X49625Y-13975D02*
X52525Y-13975D01*
X52425Y-49975D02*
X54150Y-51700D01*
X49625Y-49975D02*
X52425Y-49975D01*
X16300Y-49800D02*
X18200Y-51700D01*
X14600Y-49800D02*
X16300Y-49800D01*
X49600Y-21700D02*
X49625Y-21700D01*
X10700Y-51100D02*
X10700Y-55450D01*
X10700Y-45700D02*
X10700Y-51100D01*
X11780Y-33700D02*
X11780Y-39700D01*
X13625Y-50625D02*
X13150Y-51100D01*
X13150Y-51100D02*
X10700Y-51100D01*
X13625Y-49975D02*
X13625Y-50625D01*
X14600Y-45700D02*
X10700Y-45700D01*
X19625Y-45700D02*
X14600Y-45700D01*
X13625Y-39700D02*
X11780Y-39700D01*
X13625Y-39700D02*
X15900Y-39700D01*
X15900Y-39700D02*
X19625Y-39700D01*
X13625Y-33700D02*
X11780Y-33700D01*
X17500Y-33700D02*
X13625Y-33700D01*
X11780Y-27687D02*
X11780Y-21700D01*
X13625Y-27687D02*
X11780Y-27687D01*
X13912Y-27687D02*
X13925Y-27700D01*
X13925Y-27700D02*
X19625Y-27700D01*
X13912Y-27687D02*
X13625Y-27687D01*
X13625Y-21700D02*
X11780Y-21700D01*
X19625Y-21700D02*
X13625Y-21700D01*
X55625Y-32375D02*
X55625Y-31975D01*
X14600Y-43800D02*
X14600Y-45700D01*
X13625Y-55975D02*
X13625Y-57150D01*
X13625Y-37975D02*
X13625Y-39700D01*
X13625Y-31975D02*
X13625Y-33700D01*
X13625Y-25975D02*
X13625Y-27687D01*
X13625Y-19975D02*
X13625Y-21700D01*
X11780Y-16240D02*
X12140Y-15880D01*
X12140Y-15880D02*
X13340Y-15880D01*
X13340Y-15880D02*
X13625Y-15595D01*
X13625Y-15595D02*
X13625Y-13975D01*
X11780Y-21700D02*
X11780Y-16240D01*
X11780Y-43760D02*
X10700Y-44840D01*
X10700Y-44840D02*
X10700Y-45700D01*
X11780Y-39700D02*
X11780Y-43760D01*
X11780Y-33700D02*
X11780Y-27687D01*
M02*
