G04 (created by PCBNEW (2013-jul-07)-stable) date Friday 25 April 2014 11:21:57 AM IST*
%MOIN*%
G04 Gerber Fmt 3.4, Leading zero omitted, Abs format*
%FSLAX34Y34*%
G01*
G70*
G90*
G04 APERTURE LIST*
%ADD10C,0.005*%
%ADD11C,0.01*%
%ADD12C,0.00787402*%
%ADD13C,0.011811*%
G04 APERTURE END LIST*
G54D10*
G54D11*
X58000Y-46400D02*
G75*
G03X57400Y-45800I-600J0D01*
G74*
G01*
X56800Y-45200D02*
G75*
G03X57400Y-45800I600J0D01*
G74*
G01*
X57400Y-33800D02*
G75*
G03X56800Y-34400I0J-600D01*
G74*
G01*
X57400Y-33800D02*
G75*
G03X58000Y-33200I0J600D01*
G74*
G01*
X10000Y-21600D02*
G75*
G03X10600Y-22200I600J0D01*
G74*
G01*
X11200Y-22800D02*
G75*
G03X10600Y-22200I-600J0D01*
G74*
G01*
X10600Y-34200D02*
G75*
G03X10000Y-34800I0J-600D01*
G74*
G01*
X10600Y-34200D02*
G75*
G03X11200Y-33600I0J600D01*
G74*
G01*
X58000Y-33200D02*
X58000Y-13000D01*
X58000Y-46400D02*
X58000Y-55000D01*
X10000Y-34800D02*
X10000Y-55000D01*
X10000Y-21600D02*
X10000Y-13000D01*
X56800Y-39800D02*
X56800Y-45200D01*
X56800Y-39800D02*
X56800Y-34400D01*
X11200Y-28200D02*
X11200Y-33600D01*
X11200Y-28200D02*
X11200Y-22800D01*
X55000Y-58000D02*
X13000Y-58000D01*
X13000Y-10000D02*
X55000Y-10000D01*
X10000Y-55000D02*
G75*
G03X13000Y-58000I3000J0D01*
G74*
G01*
X58000Y-13000D02*
G75*
G03X55000Y-10000I-3000J0D01*
G74*
G01*
X13000Y-10000D02*
G75*
G03X10000Y-13000I0J-3000D01*
G74*
G01*
X55000Y-58000D02*
G75*
G03X58000Y-55000I0J3000D01*
G74*
G01*
G54D12*
X15775Y-39575D02*
X16025Y-39825D01*
X16025Y-39575D02*
X15775Y-39825D01*
X17375Y-33575D02*
X17625Y-33825D01*
X17625Y-33575D02*
X17375Y-33825D01*
X17575Y-36875D02*
X17825Y-37125D01*
X17825Y-36875D02*
X17575Y-37125D01*
X23125Y-29275D02*
X23375Y-29525D01*
X23375Y-29275D02*
X23125Y-29525D01*
X23375Y-18875D02*
X23625Y-19125D01*
X23625Y-18875D02*
X23375Y-19125D01*
X23375Y-21575D02*
X23625Y-21825D01*
X23625Y-21575D02*
X23375Y-21825D01*
X26275Y-15575D02*
X26525Y-15825D01*
X26525Y-15575D02*
X26275Y-15825D01*
X26275Y-21575D02*
X26525Y-21825D01*
X26525Y-21575D02*
X26275Y-21825D01*
X26275Y-45575D02*
X26525Y-45825D01*
X26525Y-45575D02*
X26275Y-45825D01*
X26275Y-51575D02*
X26525Y-51825D01*
X26525Y-51575D02*
X26275Y-51825D01*
X26275Y-57025D02*
X26525Y-57275D01*
X26525Y-57025D02*
X26275Y-57275D01*
X30875Y-12875D02*
X31125Y-13125D01*
X31125Y-12875D02*
X30875Y-13125D01*
X30875Y-18875D02*
X31125Y-19125D01*
X31125Y-18875D02*
X30875Y-19125D01*
X30875Y-42875D02*
X31125Y-43125D01*
X31125Y-42875D02*
X30875Y-43125D01*
X30875Y-48875D02*
X31125Y-49125D01*
X31125Y-48875D02*
X30875Y-49125D01*
X30875Y-54875D02*
X31125Y-55125D01*
X31125Y-54875D02*
X30875Y-55125D01*
X38275Y-27575D02*
X38525Y-27825D01*
X38525Y-27575D02*
X38275Y-27825D01*
X42875Y-18875D02*
X43125Y-19125D01*
X43125Y-18875D02*
X42875Y-19125D01*
X42875Y-24875D02*
X43125Y-25125D01*
X43125Y-24875D02*
X42875Y-25125D01*
X42875Y-30875D02*
X43125Y-31125D01*
X43125Y-30875D02*
X42875Y-31125D01*
X42875Y-48875D02*
X43125Y-49125D01*
X43125Y-48875D02*
X42875Y-49125D01*
X44375Y-51575D02*
X44625Y-51825D01*
X44625Y-51575D02*
X44375Y-51825D01*
X46775Y-42875D02*
X47025Y-43125D01*
X47025Y-42875D02*
X46775Y-43125D01*
X49475Y-21575D02*
X49725Y-21825D01*
X49725Y-21575D02*
X49475Y-21825D01*
X53325Y-45575D02*
X53575Y-45825D01*
X53575Y-45575D02*
X53325Y-45825D01*
X13200Y-11150D02*
G75*
G03X13200Y-11150I-200J0D01*
G74*
G01*
X13200Y-17150D02*
G75*
G03X13200Y-17150I-200J0D01*
G74*
G01*
X13200Y-23150D02*
G75*
G03X13200Y-23150I-200J0D01*
G74*
G01*
X13200Y-29150D02*
G75*
G03X13200Y-29150I-200J0D01*
G74*
G01*
X13200Y-35150D02*
G75*
G03X13200Y-35150I-200J0D01*
G74*
G01*
X13200Y-41150D02*
G75*
G03X13200Y-41150I-200J0D01*
G74*
G01*
X13200Y-47150D02*
G75*
G03X13200Y-47150I-200J0D01*
G74*
G01*
X13200Y-53150D02*
G75*
G03X13200Y-53150I-200J0D01*
G74*
G01*
X16200Y-20150D02*
G75*
G03X16200Y-20150I-200J0D01*
G74*
G01*
X16200Y-47150D02*
G75*
G03X16200Y-47150I-200J0D01*
G74*
G01*
X22200Y-17150D02*
G75*
G03X22200Y-17150I-200J0D01*
G74*
G01*
X52400Y-33800D02*
G75*
G03X52400Y-33800I-200J0D01*
G74*
G01*
X52750Y-23150D02*
G75*
G03X52750Y-23150I-200J0D01*
G74*
G01*
X52750Y-47150D02*
G75*
G03X52750Y-47150I-200J0D01*
G74*
G01*
X55700Y-33800D02*
G75*
G03X55700Y-33800I-200J0D01*
G74*
G01*
X55750Y-11150D02*
G75*
G03X55750Y-11150I-200J0D01*
G74*
G01*
X55750Y-17150D02*
G75*
G03X55750Y-17150I-200J0D01*
G74*
G01*
X55750Y-23150D02*
G75*
G03X55750Y-23150I-200J0D01*
G74*
G01*
X55750Y-29150D02*
G75*
G03X55750Y-29150I-200J0D01*
G74*
G01*
X55750Y-35150D02*
G75*
G03X55750Y-35150I-200J0D01*
G74*
G01*
X55750Y-41150D02*
G75*
G03X55750Y-41150I-200J0D01*
G74*
G01*
X55750Y-47150D02*
G75*
G03X55750Y-47150I-200J0D01*
G74*
G01*
X55750Y-53150D02*
G75*
G03X55750Y-53150I-200J0D01*
G74*
G01*
X16000Y-15400D02*
X16000Y-16600D01*
X15400Y-16000D02*
X16600Y-16000D01*
X16000Y-51400D02*
X16000Y-52600D01*
X15400Y-52000D02*
X16600Y-52000D01*
X22000Y-12400D02*
X22000Y-13600D01*
X21400Y-13000D02*
X22600Y-13000D01*
X22000Y-30400D02*
X22000Y-31600D01*
X21400Y-31000D02*
X22600Y-31000D01*
X22000Y-36400D02*
X22000Y-37600D01*
X21400Y-37000D02*
X22600Y-37000D01*
X22000Y-54400D02*
X22000Y-55600D01*
X21400Y-55000D02*
X22600Y-55000D01*
X46000Y-12400D02*
X46000Y-13600D01*
X45400Y-13000D02*
X46600Y-13000D01*
X46000Y-30400D02*
X46000Y-31600D01*
X45400Y-31000D02*
X46600Y-31000D01*
X46000Y-36400D02*
X46000Y-37600D01*
X45400Y-37000D02*
X46600Y-37000D01*
X46000Y-54400D02*
X46000Y-55600D01*
X45400Y-55000D02*
X46600Y-55000D01*
X52000Y-15400D02*
X52000Y-16600D01*
X51400Y-16000D02*
X52600Y-16000D01*
X52000Y-51400D02*
X52000Y-52600D01*
X51400Y-52000D02*
X52600Y-52000D01*
G54D13*
X11018Y-59827D02*
X11018Y-58646D01*
X11299Y-58646D01*
X11468Y-58702D01*
X11581Y-58814D01*
X11637Y-58927D01*
X11693Y-59152D01*
X11693Y-59321D01*
X11637Y-59546D01*
X11581Y-59658D01*
X11468Y-59771D01*
X11299Y-59827D01*
X11018Y-59827D01*
X12199Y-59827D02*
X12199Y-59039D01*
X12199Y-59264D02*
X12255Y-59152D01*
X12312Y-59096D01*
X12424Y-59039D01*
X12537Y-59039D01*
X12930Y-59827D02*
X12930Y-59039D01*
X12930Y-58646D02*
X12874Y-58702D01*
X12930Y-58758D01*
X12987Y-58702D01*
X12930Y-58646D01*
X12930Y-58758D01*
X13662Y-59827D02*
X13549Y-59771D01*
X13493Y-59658D01*
X13493Y-58646D01*
X14280Y-59827D02*
X14168Y-59771D01*
X14111Y-59658D01*
X14111Y-58646D01*
X15630Y-59827D02*
X15630Y-58646D01*
X16024Y-59489D01*
X16417Y-58646D01*
X16417Y-59827D01*
X17486Y-59827D02*
X17486Y-59208D01*
X17430Y-59096D01*
X17317Y-59039D01*
X17092Y-59039D01*
X16980Y-59096D01*
X17486Y-59771D02*
X17374Y-59827D01*
X17092Y-59827D01*
X16980Y-59771D01*
X16924Y-59658D01*
X16924Y-59546D01*
X16980Y-59433D01*
X17092Y-59377D01*
X17374Y-59377D01*
X17486Y-59321D01*
X18048Y-59039D02*
X18048Y-60220D01*
X18048Y-59096D02*
X18161Y-59039D01*
X18386Y-59039D01*
X18498Y-59096D01*
X18555Y-59152D01*
X18611Y-59264D01*
X18611Y-59602D01*
X18555Y-59714D01*
X18498Y-59771D01*
X18386Y-59827D01*
X18161Y-59827D01*
X18048Y-59771D01*
X19117Y-59714D02*
X19173Y-59771D01*
X19117Y-59827D01*
X19061Y-59771D01*
X19117Y-59714D01*
X19117Y-59827D01*
X19117Y-59096D02*
X19173Y-59152D01*
X19117Y-59208D01*
X19061Y-59152D01*
X19117Y-59096D01*
X19117Y-59208D01*
X9699Y-61704D02*
X9949Y-61954D01*
X9949Y-61704D02*
X9699Y-61954D01*
X11243Y-61126D02*
X11356Y-61126D01*
X11468Y-61182D01*
X11524Y-61238D01*
X11581Y-61351D01*
X11637Y-61576D01*
X11637Y-61857D01*
X11581Y-62082D01*
X11524Y-62195D01*
X11468Y-62251D01*
X11356Y-62307D01*
X11243Y-62307D01*
X11131Y-62251D01*
X11074Y-62195D01*
X11018Y-62082D01*
X10962Y-61857D01*
X10962Y-61576D01*
X11018Y-61351D01*
X11074Y-61238D01*
X11131Y-61182D01*
X11243Y-61126D01*
X12143Y-62195D02*
X12199Y-62251D01*
X12143Y-62307D01*
X12087Y-62251D01*
X12143Y-62195D01*
X12143Y-62307D01*
X13212Y-61126D02*
X12987Y-61126D01*
X12874Y-61182D01*
X12818Y-61238D01*
X12705Y-61407D01*
X12649Y-61632D01*
X12649Y-62082D01*
X12705Y-62195D01*
X12762Y-62251D01*
X12874Y-62307D01*
X13099Y-62307D01*
X13212Y-62251D01*
X13268Y-62195D01*
X13324Y-62082D01*
X13324Y-61801D01*
X13268Y-61688D01*
X13212Y-61632D01*
X13099Y-61576D01*
X12874Y-61576D01*
X12762Y-61632D01*
X12705Y-61688D01*
X12649Y-61801D01*
X14336Y-61520D02*
X14336Y-62307D01*
X14055Y-61070D02*
X13774Y-61913D01*
X14505Y-61913D01*
X14955Y-62307D02*
X14955Y-61520D01*
X14955Y-61632D02*
X15011Y-61576D01*
X15124Y-61520D01*
X15293Y-61520D01*
X15405Y-61576D01*
X15461Y-61688D01*
X15461Y-62307D01*
X15461Y-61688D02*
X15518Y-61576D01*
X15630Y-61520D01*
X15799Y-61520D01*
X15911Y-61576D01*
X15967Y-61688D01*
X15967Y-62307D01*
X16530Y-62307D02*
X16530Y-61520D01*
X16530Y-61632D02*
X16586Y-61576D01*
X16699Y-61520D01*
X16867Y-61520D01*
X16980Y-61576D01*
X17036Y-61688D01*
X17036Y-62307D01*
X17036Y-61688D02*
X17092Y-61576D01*
X17205Y-61520D01*
X17374Y-61520D01*
X17486Y-61576D01*
X17542Y-61688D01*
X17542Y-62307D01*
X19848Y-61070D02*
X18836Y-62588D01*
X21367Y-61126D02*
X21479Y-61126D01*
X21592Y-61182D01*
X21648Y-61238D01*
X21704Y-61351D01*
X21761Y-61576D01*
X21761Y-61857D01*
X21704Y-62082D01*
X21648Y-62195D01*
X21592Y-62251D01*
X21479Y-62307D01*
X21367Y-62307D01*
X21254Y-62251D01*
X21198Y-62195D01*
X21142Y-62082D01*
X21086Y-61857D01*
X21086Y-61576D01*
X21142Y-61351D01*
X21198Y-61238D01*
X21254Y-61182D01*
X21367Y-61126D01*
X22267Y-62195D02*
X22323Y-62251D01*
X22267Y-62307D01*
X22210Y-62251D01*
X22267Y-62195D01*
X22267Y-62307D01*
X23054Y-61126D02*
X23167Y-61126D01*
X23279Y-61182D01*
X23335Y-61238D01*
X23392Y-61351D01*
X23448Y-61576D01*
X23448Y-61857D01*
X23392Y-62082D01*
X23335Y-62195D01*
X23279Y-62251D01*
X23167Y-62307D01*
X23054Y-62307D01*
X22942Y-62251D01*
X22885Y-62195D01*
X22829Y-62082D01*
X22773Y-61857D01*
X22773Y-61576D01*
X22829Y-61351D01*
X22885Y-61238D01*
X22942Y-61182D01*
X23054Y-61126D01*
X23898Y-61238D02*
X23954Y-61182D01*
X24066Y-61126D01*
X24348Y-61126D01*
X24460Y-61182D01*
X24516Y-61238D01*
X24573Y-61351D01*
X24573Y-61463D01*
X24516Y-61632D01*
X23842Y-62307D01*
X24573Y-62307D01*
X25641Y-61126D02*
X25079Y-61126D01*
X25023Y-61688D01*
X25079Y-61632D01*
X25191Y-61576D01*
X25473Y-61576D01*
X25585Y-61632D01*
X25641Y-61688D01*
X25698Y-61801D01*
X25698Y-62082D01*
X25641Y-62195D01*
X25585Y-62251D01*
X25473Y-62307D01*
X25191Y-62307D01*
X25079Y-62251D01*
X25023Y-62195D01*
X26147Y-61126D02*
X26147Y-61351D01*
X26597Y-61126D02*
X26597Y-61351D01*
X28341Y-62757D02*
X28285Y-62701D01*
X28172Y-62532D01*
X28116Y-62420D01*
X28060Y-62251D01*
X28003Y-61970D01*
X28003Y-61745D01*
X28060Y-61463D01*
X28116Y-61295D01*
X28172Y-61182D01*
X28285Y-61014D01*
X28341Y-60957D01*
X28735Y-61238D02*
X28791Y-61182D01*
X28903Y-61126D01*
X29185Y-61126D01*
X29297Y-61182D01*
X29353Y-61238D01*
X29410Y-61351D01*
X29410Y-61463D01*
X29353Y-61632D01*
X28678Y-62307D01*
X29410Y-62307D01*
X30478Y-61126D02*
X29916Y-61126D01*
X29860Y-61688D01*
X29916Y-61632D01*
X30028Y-61576D01*
X30309Y-61576D01*
X30422Y-61632D01*
X30478Y-61688D01*
X30534Y-61801D01*
X30534Y-62082D01*
X30478Y-62195D01*
X30422Y-62251D01*
X30309Y-62307D01*
X30028Y-62307D01*
X29916Y-62251D01*
X29860Y-62195D01*
X31941Y-62307D02*
X31941Y-61126D01*
X32447Y-62307D02*
X32447Y-61688D01*
X32390Y-61576D01*
X32278Y-61520D01*
X32109Y-61520D01*
X31997Y-61576D01*
X31941Y-61632D01*
X33178Y-62307D02*
X33065Y-62251D01*
X33009Y-62195D01*
X32953Y-62082D01*
X32953Y-61745D01*
X33009Y-61632D01*
X33065Y-61576D01*
X33178Y-61520D01*
X33347Y-61520D01*
X33459Y-61576D01*
X33515Y-61632D01*
X33572Y-61745D01*
X33572Y-62082D01*
X33515Y-62195D01*
X33459Y-62251D01*
X33347Y-62307D01*
X33178Y-62307D01*
X34246Y-62307D02*
X34134Y-62251D01*
X34078Y-62138D01*
X34078Y-61126D01*
X35146Y-62251D02*
X35034Y-62307D01*
X34809Y-62307D01*
X34696Y-62251D01*
X34640Y-62138D01*
X34640Y-61688D01*
X34696Y-61576D01*
X34809Y-61520D01*
X35034Y-61520D01*
X35146Y-61576D01*
X35203Y-61688D01*
X35203Y-61801D01*
X34640Y-61913D01*
X35653Y-62251D02*
X35765Y-62307D01*
X35990Y-62307D01*
X36102Y-62251D01*
X36159Y-62138D01*
X36159Y-62082D01*
X36102Y-61970D01*
X35990Y-61913D01*
X35821Y-61913D01*
X35709Y-61857D01*
X35653Y-61745D01*
X35653Y-61688D01*
X35709Y-61576D01*
X35821Y-61520D01*
X35990Y-61520D01*
X36102Y-61576D01*
X36552Y-62757D02*
X36609Y-62701D01*
X36721Y-62532D01*
X36777Y-62420D01*
X36834Y-62251D01*
X36890Y-61970D01*
X36890Y-61745D01*
X36834Y-61463D01*
X36777Y-61295D01*
X36721Y-61182D01*
X36609Y-61014D01*
X36552Y-60957D01*
G54D12*
X9949Y-63388D02*
G75*
G03X9949Y-63388I-200J0D01*
G74*
G01*
G54D13*
X11637Y-63866D02*
X10962Y-63866D01*
X11299Y-63866D02*
X11299Y-62685D01*
X11187Y-62854D01*
X11074Y-62966D01*
X10962Y-63023D01*
X12143Y-63754D02*
X12199Y-63810D01*
X12143Y-63866D01*
X12087Y-63810D01*
X12143Y-63754D01*
X12143Y-63866D01*
X12930Y-62685D02*
X13043Y-62685D01*
X13155Y-62741D01*
X13212Y-62798D01*
X13268Y-62910D01*
X13324Y-63135D01*
X13324Y-63416D01*
X13268Y-63641D01*
X13212Y-63754D01*
X13155Y-63810D01*
X13043Y-63866D01*
X12930Y-63866D01*
X12818Y-63810D01*
X12762Y-63754D01*
X12705Y-63641D01*
X12649Y-63416D01*
X12649Y-63135D01*
X12705Y-62910D01*
X12762Y-62798D01*
X12818Y-62741D01*
X12930Y-62685D01*
X13774Y-62798D02*
X13830Y-62741D01*
X13943Y-62685D01*
X14224Y-62685D01*
X14336Y-62741D01*
X14393Y-62798D01*
X14449Y-62910D01*
X14449Y-63023D01*
X14393Y-63191D01*
X13718Y-63866D01*
X14449Y-63866D01*
X14955Y-63866D02*
X14955Y-63079D01*
X14955Y-63191D02*
X15011Y-63135D01*
X15124Y-63079D01*
X15293Y-63079D01*
X15405Y-63135D01*
X15461Y-63247D01*
X15461Y-63866D01*
X15461Y-63247D02*
X15518Y-63135D01*
X15630Y-63079D01*
X15799Y-63079D01*
X15911Y-63135D01*
X15967Y-63247D01*
X15967Y-63866D01*
X16530Y-63866D02*
X16530Y-63079D01*
X16530Y-63191D02*
X16586Y-63135D01*
X16699Y-63079D01*
X16867Y-63079D01*
X16980Y-63135D01*
X17036Y-63247D01*
X17036Y-63866D01*
X17036Y-63247D02*
X17092Y-63135D01*
X17205Y-63079D01*
X17374Y-63079D01*
X17486Y-63135D01*
X17542Y-63247D01*
X17542Y-63866D01*
X19848Y-62629D02*
X18836Y-64147D01*
X21367Y-62685D02*
X21479Y-62685D01*
X21592Y-62741D01*
X21648Y-62798D01*
X21704Y-62910D01*
X21761Y-63135D01*
X21761Y-63416D01*
X21704Y-63641D01*
X21648Y-63754D01*
X21592Y-63810D01*
X21479Y-63866D01*
X21367Y-63866D01*
X21254Y-63810D01*
X21198Y-63754D01*
X21142Y-63641D01*
X21086Y-63416D01*
X21086Y-63135D01*
X21142Y-62910D01*
X21198Y-62798D01*
X21254Y-62741D01*
X21367Y-62685D01*
X22267Y-63754D02*
X22323Y-63810D01*
X22267Y-63866D01*
X22210Y-63810D01*
X22267Y-63754D01*
X22267Y-63866D01*
X23054Y-62685D02*
X23167Y-62685D01*
X23279Y-62741D01*
X23335Y-62798D01*
X23392Y-62910D01*
X23448Y-63135D01*
X23448Y-63416D01*
X23392Y-63641D01*
X23335Y-63754D01*
X23279Y-63810D01*
X23167Y-63866D01*
X23054Y-63866D01*
X22942Y-63810D01*
X22885Y-63754D01*
X22829Y-63641D01*
X22773Y-63416D01*
X22773Y-63135D01*
X22829Y-62910D01*
X22885Y-62798D01*
X22942Y-62741D01*
X23054Y-62685D01*
X24460Y-63079D02*
X24460Y-63866D01*
X24179Y-62629D02*
X23898Y-63472D01*
X24629Y-63472D01*
X25304Y-62685D02*
X25416Y-62685D01*
X25529Y-62741D01*
X25585Y-62798D01*
X25641Y-62910D01*
X25698Y-63135D01*
X25698Y-63416D01*
X25641Y-63641D01*
X25585Y-63754D01*
X25529Y-63810D01*
X25416Y-63866D01*
X25304Y-63866D01*
X25191Y-63810D01*
X25135Y-63754D01*
X25079Y-63641D01*
X25023Y-63416D01*
X25023Y-63135D01*
X25079Y-62910D01*
X25135Y-62798D01*
X25191Y-62741D01*
X25304Y-62685D01*
X26147Y-62685D02*
X26147Y-62910D01*
X26597Y-62685D02*
X26597Y-62910D01*
X28341Y-64316D02*
X28285Y-64260D01*
X28172Y-64091D01*
X28116Y-63979D01*
X28060Y-63810D01*
X28003Y-63529D01*
X28003Y-63304D01*
X28060Y-63023D01*
X28116Y-62854D01*
X28172Y-62741D01*
X28285Y-62573D01*
X28341Y-62516D01*
X28735Y-62798D02*
X28791Y-62741D01*
X28903Y-62685D01*
X29185Y-62685D01*
X29297Y-62741D01*
X29353Y-62798D01*
X29410Y-62910D01*
X29410Y-63023D01*
X29353Y-63191D01*
X28678Y-63866D01*
X29410Y-63866D01*
X29803Y-62685D02*
X30534Y-62685D01*
X30141Y-63135D01*
X30309Y-63135D01*
X30422Y-63191D01*
X30478Y-63247D01*
X30534Y-63360D01*
X30534Y-63641D01*
X30478Y-63754D01*
X30422Y-63810D01*
X30309Y-63866D01*
X29972Y-63866D01*
X29860Y-63810D01*
X29803Y-63754D01*
X31941Y-63866D02*
X31941Y-62685D01*
X32447Y-63866D02*
X32447Y-63247D01*
X32390Y-63135D01*
X32278Y-63079D01*
X32109Y-63079D01*
X31997Y-63135D01*
X31941Y-63191D01*
X33178Y-63866D02*
X33065Y-63810D01*
X33009Y-63754D01*
X32953Y-63641D01*
X32953Y-63304D01*
X33009Y-63191D01*
X33065Y-63135D01*
X33178Y-63079D01*
X33347Y-63079D01*
X33459Y-63135D01*
X33515Y-63191D01*
X33572Y-63304D01*
X33572Y-63641D01*
X33515Y-63754D01*
X33459Y-63810D01*
X33347Y-63866D01*
X33178Y-63866D01*
X34246Y-63866D02*
X34134Y-63810D01*
X34078Y-63697D01*
X34078Y-62685D01*
X35146Y-63810D02*
X35034Y-63866D01*
X34809Y-63866D01*
X34696Y-63810D01*
X34640Y-63697D01*
X34640Y-63247D01*
X34696Y-63135D01*
X34809Y-63079D01*
X35034Y-63079D01*
X35146Y-63135D01*
X35203Y-63247D01*
X35203Y-63360D01*
X34640Y-63472D01*
X35653Y-63810D02*
X35765Y-63866D01*
X35990Y-63866D01*
X36102Y-63810D01*
X36159Y-63697D01*
X36159Y-63641D01*
X36102Y-63529D01*
X35990Y-63472D01*
X35821Y-63472D01*
X35709Y-63416D01*
X35653Y-63304D01*
X35653Y-63247D01*
X35709Y-63135D01*
X35821Y-63079D01*
X35990Y-63079D01*
X36102Y-63135D01*
X36552Y-64316D02*
X36609Y-64260D01*
X36721Y-64091D01*
X36777Y-63979D01*
X36834Y-63810D01*
X36890Y-63529D01*
X36890Y-63304D01*
X36834Y-63023D01*
X36777Y-62854D01*
X36721Y-62741D01*
X36609Y-62573D01*
X36552Y-62516D01*
X9349Y-64347D02*
X9349Y-65547D01*
X8749Y-64947D02*
X9949Y-64947D01*
X10906Y-64244D02*
X11637Y-64244D01*
X11243Y-64694D01*
X11412Y-64694D01*
X11524Y-64750D01*
X11581Y-64807D01*
X11637Y-64919D01*
X11637Y-65200D01*
X11581Y-65313D01*
X11524Y-65369D01*
X11412Y-65425D01*
X11074Y-65425D01*
X10962Y-65369D01*
X10906Y-65313D01*
X12143Y-65313D02*
X12199Y-65369D01*
X12143Y-65425D01*
X12087Y-65369D01*
X12143Y-65313D01*
X12143Y-65425D01*
X12930Y-64244D02*
X13043Y-64244D01*
X13155Y-64300D01*
X13212Y-64357D01*
X13268Y-64469D01*
X13324Y-64694D01*
X13324Y-64975D01*
X13268Y-65200D01*
X13212Y-65313D01*
X13155Y-65369D01*
X13043Y-65425D01*
X12930Y-65425D01*
X12818Y-65369D01*
X12762Y-65313D01*
X12705Y-65200D01*
X12649Y-64975D01*
X12649Y-64694D01*
X12705Y-64469D01*
X12762Y-64357D01*
X12818Y-64300D01*
X12930Y-64244D01*
X14393Y-64244D02*
X13830Y-64244D01*
X13774Y-64807D01*
X13830Y-64750D01*
X13943Y-64694D01*
X14224Y-64694D01*
X14336Y-64750D01*
X14393Y-64807D01*
X14449Y-64919D01*
X14449Y-65200D01*
X14393Y-65313D01*
X14336Y-65369D01*
X14224Y-65425D01*
X13943Y-65425D01*
X13830Y-65369D01*
X13774Y-65313D01*
X14955Y-65425D02*
X14955Y-64638D01*
X14955Y-64750D02*
X15011Y-64694D01*
X15124Y-64638D01*
X15293Y-64638D01*
X15405Y-64694D01*
X15461Y-64807D01*
X15461Y-65425D01*
X15461Y-64807D02*
X15518Y-64694D01*
X15630Y-64638D01*
X15799Y-64638D01*
X15911Y-64694D01*
X15967Y-64807D01*
X15967Y-65425D01*
X16530Y-65425D02*
X16530Y-64638D01*
X16530Y-64750D02*
X16586Y-64694D01*
X16699Y-64638D01*
X16867Y-64638D01*
X16980Y-64694D01*
X17036Y-64807D01*
X17036Y-65425D01*
X17036Y-64807D02*
X17092Y-64694D01*
X17205Y-64638D01*
X17374Y-64638D01*
X17486Y-64694D01*
X17542Y-64807D01*
X17542Y-65425D01*
X19848Y-64188D02*
X18836Y-65706D01*
X21367Y-64244D02*
X21479Y-64244D01*
X21592Y-64300D01*
X21648Y-64357D01*
X21704Y-64469D01*
X21761Y-64694D01*
X21761Y-64975D01*
X21704Y-65200D01*
X21648Y-65313D01*
X21592Y-65369D01*
X21479Y-65425D01*
X21367Y-65425D01*
X21254Y-65369D01*
X21198Y-65313D01*
X21142Y-65200D01*
X21086Y-64975D01*
X21086Y-64694D01*
X21142Y-64469D01*
X21198Y-64357D01*
X21254Y-64300D01*
X21367Y-64244D01*
X22267Y-65313D02*
X22323Y-65369D01*
X22267Y-65425D01*
X22210Y-65369D01*
X22267Y-65313D01*
X22267Y-65425D01*
X23448Y-65425D02*
X22773Y-65425D01*
X23110Y-65425D02*
X23110Y-64244D01*
X22998Y-64413D01*
X22885Y-64525D01*
X22773Y-64582D01*
X23898Y-64357D02*
X23954Y-64300D01*
X24066Y-64244D01*
X24348Y-64244D01*
X24460Y-64300D01*
X24516Y-64357D01*
X24573Y-64469D01*
X24573Y-64582D01*
X24516Y-64750D01*
X23842Y-65425D01*
X24573Y-65425D01*
X25304Y-64244D02*
X25416Y-64244D01*
X25529Y-64300D01*
X25585Y-64357D01*
X25641Y-64469D01*
X25698Y-64694D01*
X25698Y-64975D01*
X25641Y-65200D01*
X25585Y-65313D01*
X25529Y-65369D01*
X25416Y-65425D01*
X25304Y-65425D01*
X25191Y-65369D01*
X25135Y-65313D01*
X25079Y-65200D01*
X25023Y-64975D01*
X25023Y-64694D01*
X25079Y-64469D01*
X25135Y-64357D01*
X25191Y-64300D01*
X25304Y-64244D01*
X26147Y-64244D02*
X26147Y-64469D01*
X26597Y-64244D02*
X26597Y-64469D01*
X28341Y-65875D02*
X28285Y-65819D01*
X28172Y-65650D01*
X28116Y-65538D01*
X28060Y-65369D01*
X28003Y-65088D01*
X28003Y-64863D01*
X28060Y-64582D01*
X28116Y-64413D01*
X28172Y-64300D01*
X28285Y-64132D01*
X28341Y-64075D01*
X29410Y-65425D02*
X28735Y-65425D01*
X29072Y-65425D02*
X29072Y-64244D01*
X28960Y-64413D01*
X28847Y-64525D01*
X28735Y-64582D01*
X29860Y-64357D02*
X29916Y-64300D01*
X30028Y-64244D01*
X30309Y-64244D01*
X30422Y-64300D01*
X30478Y-64357D01*
X30534Y-64469D01*
X30534Y-64582D01*
X30478Y-64750D01*
X29803Y-65425D01*
X30534Y-65425D01*
X31941Y-65425D02*
X31941Y-64244D01*
X32447Y-65425D02*
X32447Y-64807D01*
X32390Y-64694D01*
X32278Y-64638D01*
X32109Y-64638D01*
X31997Y-64694D01*
X31941Y-64750D01*
X33178Y-65425D02*
X33065Y-65369D01*
X33009Y-65313D01*
X32953Y-65200D01*
X32953Y-64863D01*
X33009Y-64750D01*
X33065Y-64694D01*
X33178Y-64638D01*
X33347Y-64638D01*
X33459Y-64694D01*
X33515Y-64750D01*
X33572Y-64863D01*
X33572Y-65200D01*
X33515Y-65313D01*
X33459Y-65369D01*
X33347Y-65425D01*
X33178Y-65425D01*
X34246Y-65425D02*
X34134Y-65369D01*
X34078Y-65256D01*
X34078Y-64244D01*
X35146Y-65369D02*
X35034Y-65425D01*
X34809Y-65425D01*
X34696Y-65369D01*
X34640Y-65256D01*
X34640Y-64807D01*
X34696Y-64694D01*
X34809Y-64638D01*
X35034Y-64638D01*
X35146Y-64694D01*
X35203Y-64807D01*
X35203Y-64919D01*
X34640Y-65032D01*
X35653Y-65369D02*
X35765Y-65425D01*
X35990Y-65425D01*
X36102Y-65369D01*
X36159Y-65256D01*
X36159Y-65200D01*
X36102Y-65088D01*
X35990Y-65032D01*
X35821Y-65032D01*
X35709Y-64975D01*
X35653Y-64863D01*
X35653Y-64807D01*
X35709Y-64694D01*
X35821Y-64638D01*
X35990Y-64638D01*
X36102Y-64694D01*
X36552Y-65875D02*
X36609Y-65819D01*
X36721Y-65650D01*
X36777Y-65538D01*
X36834Y-65369D01*
X36890Y-65088D01*
X36890Y-64863D01*
X36834Y-64582D01*
X36777Y-64413D01*
X36721Y-64300D01*
X36609Y-64132D01*
X36552Y-64075D01*
M02*
