G04 #@! TF.FileFunction,Copper,L2,Bot,Signal*
%FSLAX46Y46*%
G04 Gerber Fmt 4.6, Leading zero omitted, Abs format (unit mm)*
G04 Created by KiCad (PCBNEW 0.201503311001+5559~22~ubuntu14.10.1-product) date Sunday 05 April 2015 05:24:30 PM IST*
%MOMM*%
G01*
G04 APERTURE LIST*
%ADD10C,0.152400*%
%ADD11C,0.254000*%
%ADD12R,5.000000X0.900000*%
%ADD13R,2.200000X1.016000*%
%ADD14R,3.000000X0.500000*%
%ADD15R,3.048000X3.048000*%
%ADD16R,3.400000X1.400000*%
%ADD17R,5.600000X2.300000*%
%ADD18R,1.422400X1.066800*%
%ADD19C,2.032000*%
%ADD20C,0.889000*%
%ADD21C,0.635000*%
G04 APERTURE END LIST*
D10*
D11*
X147320000Y-33020000D02*
X139700000Y-25400000D01*
X147320000Y-139700000D02*
X139700000Y-147320000D01*
X25400000Y-139700000D02*
X33020000Y-147320000D01*
X33020000Y-25400000D02*
X25400000Y-33020000D01*
X147320000Y-117856000D02*
G75*
G03X145796000Y-116332000I-1524000J0D01*
G01*
X144272000Y-114808000D02*
G75*
G03X145796000Y-116332000I1524000J0D01*
G01*
X145796000Y-85852000D02*
G75*
G03X144272000Y-87376000I0J-1524000D01*
G01*
X145796000Y-85852000D02*
G75*
G03X147320000Y-84328000I0J1524000D01*
G01*
X25400000Y-54864000D02*
G75*
G03X26924000Y-56388000I1524000J0D01*
G01*
X28448000Y-57912000D02*
G75*
G03X26924000Y-56388000I-1524000J0D01*
G01*
X26924000Y-86868000D02*
G75*
G03X25400000Y-88392000I0J-1524000D01*
G01*
X26924000Y-86868000D02*
G75*
G03X28448000Y-85344000I0J1524000D01*
G01*
X147320000Y-84328000D02*
X147320000Y-33020000D01*
X147320000Y-117856000D02*
X147320000Y-139700000D01*
X25400000Y-88392000D02*
X25400000Y-139700000D01*
X25400000Y-54864000D02*
X25400000Y-33020000D01*
X144272000Y-101092000D02*
X144272000Y-114808000D01*
X144272000Y-101092000D02*
X144272000Y-87376000D01*
X28448000Y-71628000D02*
X28448000Y-85344000D01*
X28448000Y-71628000D02*
X28448000Y-57912000D01*
X139700000Y-147320000D02*
X33020000Y-147320000D01*
X33020000Y-25400000D02*
X139700000Y-25400000D01*
D12*
X124770000Y-92202000D03*
X131770000Y-92202000D03*
X131770000Y-94742000D03*
X124770000Y-94742000D03*
X131770000Y-97282000D03*
X124770000Y-97282000D03*
X131770000Y-99822000D03*
X124770000Y-99822000D03*
X131770000Y-102362000D03*
X124770000Y-102362000D03*
X131770000Y-104902000D03*
X124770000Y-104902000D03*
X131770000Y-107442000D03*
X124770000Y-107442000D03*
X131770000Y-109982000D03*
X124770000Y-109982000D03*
X40950000Y-62738000D03*
X47950000Y-62738000D03*
X47950000Y-65278000D03*
X40950000Y-65278000D03*
X47950000Y-67818000D03*
X40950000Y-67818000D03*
X47950000Y-70358000D03*
X40950000Y-70358000D03*
X47950000Y-72898000D03*
X40950000Y-72898000D03*
X47950000Y-75438000D03*
X40950000Y-75438000D03*
X47950000Y-77978000D03*
X40950000Y-77978000D03*
X47950000Y-80518000D03*
X40950000Y-80518000D03*
D13*
X90424000Y-78740000D03*
X82296000Y-78740000D03*
D14*
X84860000Y-78740000D03*
X87860000Y-78740000D03*
D13*
X90424000Y-81280000D03*
X82296000Y-81280000D03*
D14*
X84860000Y-81280000D03*
X87860000Y-81280000D03*
D13*
X90424000Y-83820000D03*
X82296000Y-83820000D03*
D14*
X84860000Y-83820000D03*
X87860000Y-83820000D03*
D13*
X90424000Y-86360000D03*
X82296000Y-86360000D03*
D14*
X84860000Y-86360000D03*
X87860000Y-86360000D03*
D13*
X90424000Y-88900000D03*
X82296000Y-88900000D03*
D14*
X84860000Y-88900000D03*
X87860000Y-88900000D03*
D13*
X90424000Y-91440000D03*
X82296000Y-91440000D03*
D14*
X84860000Y-91440000D03*
X87860000Y-91440000D03*
D13*
X90424000Y-93980000D03*
X82296000Y-93980000D03*
D14*
X84860000Y-93980000D03*
X87860000Y-93980000D03*
D15*
X75184000Y-139700000D03*
X67056000Y-139700000D03*
X75184000Y-124460000D03*
X67056000Y-124460000D03*
X75184000Y-109220000D03*
X67056000Y-109220000D03*
X75184000Y-93980000D03*
X67056000Y-93980000D03*
X75171300Y-78740000D03*
X67043300Y-78740000D03*
X75184000Y-63500000D03*
X67056000Y-63500000D03*
X75184000Y-48260000D03*
X67056000Y-48260000D03*
X75184000Y-33020000D03*
X67056000Y-33020000D03*
D16*
X59690000Y-52070000D03*
X59690000Y-54570000D03*
D17*
X53090000Y-57170000D03*
X53090000Y-46970000D03*
D16*
X59690000Y-49570000D03*
X113030000Y-52070000D03*
X113030000Y-49570000D03*
D17*
X119630000Y-46970000D03*
X119630000Y-57170000D03*
D16*
X113030000Y-54570000D03*
X59690000Y-120650000D03*
X59690000Y-123150000D03*
D17*
X53090000Y-125750000D03*
X53090000Y-115550000D03*
D16*
X59690000Y-118150000D03*
X113030000Y-120650000D03*
X113030000Y-118150000D03*
D17*
X119630000Y-115550000D03*
X119630000Y-125750000D03*
D16*
X113030000Y-123150000D03*
D18*
X101600000Y-32004000D03*
X101600000Y-34036000D03*
X101600000Y-47244000D03*
X101600000Y-49276000D03*
X101600000Y-62484000D03*
X101600000Y-64516000D03*
X101600000Y-77724000D03*
X101600000Y-79756000D03*
X101600000Y-92964000D03*
X101600000Y-94996000D03*
X101600000Y-108204000D03*
X101600000Y-110236000D03*
X101600000Y-123444000D03*
X101600000Y-125476000D03*
X101600000Y-138684000D03*
X101600000Y-140716000D03*
D19*
X36512500Y-116903500D03*
X123507500Y-132016500D03*
X31432500Y-119443500D03*
X132397500Y-123126500D03*
X31432500Y-104203500D03*
X141287500Y-114236500D03*
X31432500Y-88963500D03*
X141287500Y-98996500D03*
X31432500Y-73723500D03*
X141300200Y-83769200D03*
X31432500Y-58483500D03*
X141287500Y-68516500D03*
X36512500Y-55943500D03*
X141287500Y-53276500D03*
X41592500Y-55943500D03*
X141287500Y-38036500D03*
D20*
X52565300Y-72072500D03*
X75184000Y-144729200D03*
X75184000Y-129489200D03*
X75184000Y-114198400D03*
X75184000Y-98958400D03*
X75184000Y-68478400D03*
X75184000Y-53289200D03*
X75184000Y-38049200D03*
X109931200Y-53289200D03*
X75171300Y-81813400D03*
X101600000Y-38049200D03*
X101600000Y-53289200D03*
X101600000Y-68529200D03*
X101600000Y-83769200D03*
X101600000Y-99009200D03*
X101600000Y-114249200D03*
X101600000Y-129489200D03*
X101600000Y-144729200D03*
X129476500Y-114236500D03*
X113030000Y-43230800D03*
X55943500Y-73723500D03*
X129362200Y-119443500D03*
X67056000Y-134670800D03*
X67056000Y-119430800D03*
X67056000Y-104190800D03*
X67056000Y-88950800D03*
X67056000Y-58470800D03*
X67056000Y-43230800D03*
X67056000Y-27990800D03*
X67043300Y-73723500D03*
X101600000Y-27990800D03*
X101600000Y-43230800D03*
X101600000Y-58470800D03*
X101650800Y-73660000D03*
X101600000Y-88950800D03*
X101600000Y-104190800D03*
X101600000Y-119430800D03*
X101600000Y-134670800D03*
D11*
X36512500Y-116903500D02*
X36512500Y-121737500D01*
X29500000Y-121750000D02*
X29500000Y-56500000D01*
X30250000Y-122500000D02*
X29500000Y-121750000D01*
X35750000Y-122500000D02*
X30250000Y-122500000D01*
X36512500Y-121737500D02*
X35750000Y-122500000D01*
X59690000Y-54570000D02*
X44570000Y-54570000D01*
X44570000Y-54570000D02*
X43000000Y-53000000D01*
X43000000Y-53000000D02*
X33000000Y-53000000D01*
X33000000Y-53000000D02*
X29500000Y-56500000D01*
X44069000Y-71628000D02*
X37592000Y-71628000D01*
X47950000Y-70358000D02*
X45339000Y-70358000D01*
X45339000Y-70358000D02*
X44069000Y-71628000D01*
X59690000Y-118150000D02*
X45277400Y-118150000D01*
X44030900Y-116903500D02*
X45277400Y-118150000D01*
X36512500Y-116903500D02*
X44030900Y-116903500D01*
X36512500Y-72707500D02*
X37592000Y-71628000D01*
X36512500Y-116903500D02*
X36512500Y-72707500D01*
X73850500Y-87058500D02*
X64643000Y-87058500D01*
X87860000Y-93980000D02*
X84860000Y-93980000D01*
X137871200Y-101574600D02*
X137871200Y-114985800D01*
X137871200Y-114985800D02*
X123507500Y-129349500D01*
X87630000Y-93980000D02*
X90424000Y-93980000D01*
X121666000Y-101092000D02*
X119735600Y-103022400D01*
X121666000Y-101092000D02*
X127889000Y-101092000D01*
X129159000Y-99822000D02*
X131770000Y-99822000D01*
X127889000Y-101092000D02*
X129159000Y-99822000D01*
X90424000Y-93980000D02*
X92151200Y-93980000D01*
X97294700Y-103022400D02*
X92544900Y-98272600D01*
X92544900Y-98272600D02*
X92544900Y-94373700D01*
X92544900Y-94373700D02*
X92151200Y-93980000D01*
X119735600Y-103022400D02*
X97294700Y-103022400D01*
X131770000Y-99822000D02*
X136118600Y-99822000D01*
X136118600Y-99822000D02*
X137871200Y-101574600D01*
X123507500Y-132016500D02*
X123507500Y-129349500D01*
X85090000Y-93980000D02*
X82296000Y-93980000D01*
X80772000Y-93980000D02*
X73850500Y-87058500D01*
X82296000Y-93980000D02*
X80772000Y-93980000D01*
X60109100Y-73190100D02*
X56007000Y-69088000D01*
X64643000Y-87058500D02*
X60109100Y-82524600D01*
X60109100Y-82524600D02*
X60109100Y-73190100D01*
X43942000Y-70358000D02*
X40950000Y-70358000D01*
X37719000Y-70358000D02*
X35572700Y-72504300D01*
X40950000Y-70358000D02*
X37719000Y-70358000D01*
X35572700Y-72504300D02*
X35572700Y-112788700D01*
X31432500Y-116928900D02*
X35572700Y-112788700D01*
X31432500Y-119443500D02*
X31432500Y-116928900D01*
X45212000Y-69088000D02*
X56007000Y-69088000D01*
X43942000Y-70358000D02*
X45212000Y-69088000D01*
X74142600Y-86436200D02*
X64858900Y-86436200D01*
X84860000Y-91440000D02*
X87860000Y-91440000D01*
X138760200Y-101269800D02*
X138760200Y-116763800D01*
X138760200Y-116763800D02*
X132397500Y-123126500D01*
X90424000Y-91440000D02*
X87630000Y-91440000D01*
X124770000Y-99822000D02*
X121793000Y-99822000D01*
X92087700Y-91440000D02*
X90424000Y-91440000D01*
X121793000Y-99822000D02*
X119176800Y-102438200D01*
X124770000Y-99822000D02*
X126873000Y-99822000D01*
X97599500Y-102438200D02*
X93345000Y-98183700D01*
X93345000Y-98183700D02*
X93345000Y-92697300D01*
X93345000Y-92697300D02*
X92087700Y-91440000D01*
X119176800Y-102438200D02*
X97599500Y-102438200D01*
X136042400Y-98552000D02*
X138760200Y-101269800D01*
X127762000Y-99822000D02*
X124770000Y-99822000D01*
X127762000Y-99822000D02*
X129032000Y-98552000D01*
X129032000Y-98552000D02*
X136042400Y-98552000D01*
X85090000Y-91440000D02*
X82296000Y-91440000D01*
X82296000Y-91440000D02*
X82296000Y-91135200D01*
X79146400Y-91440000D02*
X74142600Y-86436200D01*
X82296000Y-91440000D02*
X79146400Y-91440000D01*
X64858900Y-86436200D02*
X60807600Y-82384900D01*
X60807600Y-82384900D02*
X60807600Y-72745600D01*
X60807600Y-72745600D02*
X55880000Y-67818000D01*
X47950000Y-67818000D02*
X55880000Y-67818000D01*
X47950000Y-67818000D02*
X45085000Y-67818000D01*
X37795200Y-69088000D02*
X34645600Y-72237600D01*
X43815000Y-69088000D02*
X37795200Y-69088000D01*
X45085000Y-67818000D02*
X43815000Y-69088000D01*
X34645600Y-100990400D02*
X31432500Y-104203500D01*
X34645600Y-72237600D02*
X34645600Y-100990400D01*
X61569600Y-82232500D02*
X61569600Y-72390000D01*
X87860000Y-88900000D02*
X84860000Y-88900000D01*
X87630000Y-88900000D02*
X90424000Y-88900000D01*
X127762000Y-98552000D02*
X121920000Y-98552000D01*
X92481400Y-88900000D02*
X90424000Y-88900000D01*
X121920000Y-98552000D02*
X118605300Y-101866700D01*
X131770000Y-97282000D02*
X129032000Y-97282000D01*
X129032000Y-97282000D02*
X127762000Y-98552000D01*
X131770000Y-97282000D02*
X135940800Y-97282000D01*
X141287500Y-102628700D02*
X135940800Y-97282000D01*
X141287500Y-114236500D02*
X141287500Y-102628700D01*
X97904300Y-101866700D02*
X94030800Y-97993200D01*
X94030800Y-97993200D02*
X94030800Y-90449400D01*
X94030800Y-90449400D02*
X92481400Y-88900000D01*
X118605300Y-101866700D02*
X97904300Y-101866700D01*
X82296000Y-88900000D02*
X85090000Y-88900000D01*
X77584300Y-88900000D02*
X74447400Y-85763100D01*
X74447400Y-85763100D02*
X65100200Y-85763100D01*
X65100200Y-85763100D02*
X61569600Y-82232500D01*
X82296000Y-88900000D02*
X77584300Y-88900000D01*
X61569600Y-72390000D02*
X55727600Y-66548000D01*
X55727600Y-66548000D02*
X45212000Y-66548000D01*
X45212000Y-66548000D02*
X43942000Y-67818000D01*
X43942000Y-67818000D02*
X40950000Y-67818000D01*
X40950000Y-67818000D02*
X37896800Y-67818000D01*
X37896800Y-67818000D02*
X33743900Y-71970900D01*
X33743900Y-86652100D02*
X31432500Y-88963500D01*
X33743900Y-71970900D02*
X33743900Y-86652100D01*
X74764900Y-85140800D02*
X65316100Y-85140800D01*
X84860000Y-86360000D02*
X87860000Y-86360000D01*
X90424000Y-86360000D02*
X87630000Y-86360000D01*
X92494100Y-86360000D02*
X90424000Y-86360000D01*
X122047000Y-97282000D02*
X118033800Y-101295200D01*
X124770000Y-97282000D02*
X122047000Y-97282000D01*
X127762000Y-97282000D02*
X124770000Y-97282000D01*
X127762000Y-97282000D02*
X129032000Y-96012000D01*
X129032000Y-96012000D02*
X138303000Y-96012000D01*
X98183700Y-101295200D02*
X94716600Y-97828100D01*
X94716600Y-97828100D02*
X94716600Y-88582500D01*
X94716600Y-88582500D02*
X92494100Y-86360000D01*
X118033800Y-101295200D02*
X98183700Y-101295200D01*
X138303000Y-96012000D02*
X141287500Y-98996500D01*
X85090000Y-86360000D02*
X82296000Y-86360000D01*
X75984100Y-86360000D02*
X74764900Y-85140800D01*
X82296000Y-86360000D02*
X75984100Y-86360000D01*
X65316100Y-85140800D02*
X62318900Y-82143600D01*
X62318900Y-82143600D02*
X62318900Y-72021700D01*
X62318900Y-72021700D02*
X55575200Y-65278000D01*
X47950000Y-65278000D02*
X55575200Y-65278000D01*
X45085000Y-65278000D02*
X43815000Y-66548000D01*
X47950000Y-65278000D02*
X45085000Y-65278000D01*
X37109400Y-66548000D02*
X31432500Y-72224900D01*
X31432500Y-72224900D02*
X31432500Y-73723500D01*
X43815000Y-66548000D02*
X37109400Y-66548000D01*
X87860000Y-83820000D02*
X84860000Y-83820000D01*
X131770000Y-94742000D02*
X138508000Y-94742000D01*
X141300200Y-91949800D02*
X141300200Y-83769200D01*
X138508000Y-94742000D02*
X141300200Y-91949800D01*
X87630000Y-83820000D02*
X90424000Y-83820000D01*
X95427800Y-87007700D02*
X92240100Y-83820000D01*
X95427800Y-97650300D02*
X95427800Y-87007700D01*
X98513900Y-100736400D02*
X95427800Y-97650300D01*
X127762000Y-96012000D02*
X122047000Y-96012000D01*
X122047000Y-96012000D02*
X117322600Y-100736400D01*
X98513900Y-100736400D02*
X117322600Y-100736400D01*
X129032000Y-94742000D02*
X127762000Y-96012000D01*
X129032000Y-94742000D02*
X131770000Y-94742000D01*
X90424000Y-83820000D02*
X92240100Y-83820000D01*
X82296000Y-83820000D02*
X85090000Y-83820000D01*
X78092300Y-83820000D02*
X77419200Y-84493100D01*
X77419200Y-84493100D02*
X65532002Y-84493100D01*
X82296000Y-83820000D02*
X78092300Y-83820000D01*
X62941200Y-81902298D02*
X62941200Y-71450200D01*
X65532002Y-84493100D02*
X62941200Y-81902298D01*
X62941200Y-71450200D02*
X55499000Y-64008000D01*
X45085000Y-64008000D02*
X43815000Y-65278000D01*
X55499000Y-64008000D02*
X45085000Y-64008000D01*
X43815000Y-65278000D02*
X40950000Y-65278000D01*
X35991800Y-65278000D02*
X31432500Y-60718700D01*
X31432500Y-60718700D02*
X31432500Y-58483500D01*
X40950000Y-65278000D02*
X35991800Y-65278000D01*
X77038200Y-83832700D02*
X65735200Y-83832700D01*
X84860000Y-81280000D02*
X87860000Y-81280000D01*
X129032000Y-93472000D02*
X135028000Y-93472000D01*
X136000000Y-75848700D02*
X141287500Y-70561200D01*
X136000000Y-92500000D02*
X136000000Y-75848700D01*
X135028000Y-93472000D02*
X136000000Y-92500000D01*
X90424000Y-81280000D02*
X87630000Y-81280000D01*
X92329000Y-81280000D02*
X90424000Y-81280000D01*
X124770000Y-94742000D02*
X122174000Y-94742000D01*
X116776500Y-100139500D02*
X122174000Y-94742000D01*
X127762000Y-94742000D02*
X124770000Y-94742000D01*
X127762000Y-94742000D02*
X129032000Y-93472000D01*
X98818700Y-100139500D02*
X96062800Y-97383600D01*
X96062800Y-97383600D02*
X96062800Y-85013800D01*
X96062800Y-85013800D02*
X92329000Y-81280000D01*
X116776500Y-100139500D02*
X98818700Y-100139500D01*
X141287500Y-70561200D02*
X141287500Y-68516500D01*
X85090000Y-81280000D02*
X82296000Y-81280000D01*
X79590900Y-81280000D02*
X77038200Y-83832700D01*
X82296000Y-81280000D02*
X79590900Y-81280000D01*
X65735200Y-83832700D02*
X63614300Y-81711800D01*
X63614300Y-81711800D02*
X63614300Y-70929500D01*
X63614300Y-70929500D02*
X55422800Y-62738000D01*
X47950000Y-62738000D02*
X55422800Y-62738000D01*
X43815000Y-64008000D02*
X37719000Y-64008000D01*
X45085000Y-62738000D02*
X43815000Y-64008000D01*
X47950000Y-62738000D02*
X45085000Y-62738000D01*
X36512500Y-62801500D02*
X37719000Y-64008000D01*
X36512500Y-55943500D02*
X36512500Y-62801500D01*
X76771500Y-83172300D02*
X65913000Y-83172300D01*
X87860000Y-78740000D02*
X84860000Y-78740000D01*
X131770000Y-92202000D02*
X131770000Y-65930900D01*
X131770000Y-65930900D02*
X141287500Y-56413400D01*
X87630000Y-78740000D02*
X90424000Y-78740000D01*
X131770000Y-92202000D02*
X129032000Y-92202000D01*
X91694000Y-78740000D02*
X90424000Y-78740000D01*
X99961700Y-87007700D02*
X91694000Y-78740000D01*
X121920000Y-93472000D02*
X121158000Y-92710000D01*
X127762000Y-93472000D02*
X121920000Y-93472000D01*
X129032000Y-92202000D02*
X127762000Y-93472000D01*
X121158000Y-88366600D02*
X119913400Y-87122000D01*
X119913400Y-87122000D02*
X100063300Y-87122000D01*
X100063300Y-87122000D02*
X99961700Y-87020400D01*
X99961700Y-87020400D02*
X99961700Y-87007700D01*
X121158000Y-92710000D02*
X121158000Y-88366600D01*
X141287500Y-56413400D02*
X141287500Y-53276500D01*
X82296000Y-78740000D02*
X85090000Y-78740000D01*
X81203800Y-78740000D02*
X76771500Y-83172300D01*
X82296000Y-78740000D02*
X81203800Y-78740000D01*
X65913000Y-83172300D02*
X64236600Y-81495900D01*
X64236600Y-70434200D02*
X55016400Y-61214000D01*
X64236600Y-81495900D02*
X64236600Y-70434200D01*
X45085000Y-61214000D02*
X55016400Y-61214000D01*
X43561000Y-62738000D02*
X45085000Y-61214000D01*
X40950000Y-62738000D02*
X43561000Y-62738000D01*
X41592500Y-59575700D02*
X41592500Y-55943500D01*
X40950000Y-60218200D02*
X41592500Y-59575700D01*
X40950000Y-62738000D02*
X40950000Y-60218200D01*
X113030000Y-118150000D02*
X109850000Y-118150000D01*
X109850000Y-118150000D02*
X109000000Y-119000000D01*
X135000000Y-125750000D02*
X143751300Y-116998700D01*
X130000000Y-125750000D02*
X135000000Y-125750000D01*
X126000000Y-129750000D02*
X130000000Y-125750000D01*
X126000000Y-133250000D02*
X126000000Y-129750000D01*
X124750000Y-134500000D02*
X126000000Y-133250000D01*
X111000000Y-134500000D02*
X124750000Y-134500000D01*
X109000000Y-132500000D02*
X111000000Y-134500000D01*
X109000000Y-119000000D02*
X109000000Y-132500000D01*
X141287500Y-38036500D02*
X141287500Y-51000000D01*
X124770000Y-54570000D02*
X124770000Y-51980000D01*
X124770000Y-51980000D02*
X125750000Y-51000000D01*
X125750000Y-51000000D02*
X141287500Y-51000000D01*
X142750000Y-51000000D02*
X143751300Y-52001300D01*
X141287500Y-51000000D02*
X142750000Y-51000000D01*
X124770000Y-92202000D02*
X124770000Y-54570000D01*
X143751300Y-116998700D02*
X143751300Y-52001300D01*
X113030000Y-54570000D02*
X124770000Y-54570000D01*
D21*
X131750000Y-103632000D02*
X135882000Y-103632000D01*
X135263500Y-114236500D02*
X129476500Y-114236500D01*
X136750000Y-112750000D02*
X135263500Y-114236500D01*
X136750000Y-104500000D02*
X136750000Y-112750000D01*
X135882000Y-103632000D02*
X136750000Y-104500000D01*
X51485800Y-74168000D02*
X52565300Y-73088500D01*
X52565300Y-73088500D02*
X52565300Y-72072500D01*
X47950000Y-74168000D02*
X51485800Y-74168000D01*
X109931200Y-53289200D02*
X109931200Y-53068800D01*
X110930000Y-52070000D02*
X113030000Y-52070000D01*
X109931200Y-53068800D02*
X110930000Y-52070000D01*
X75184000Y-53289200D02*
X65289200Y-53289200D01*
X64070000Y-52070000D02*
X59690000Y-52070000D01*
X65289200Y-53289200D02*
X64070000Y-52070000D01*
X59690000Y-120650000D02*
X62268100Y-120650000D01*
X75184000Y-119456200D02*
X75184000Y-124460000D01*
X73304400Y-117576600D02*
X75184000Y-119456200D01*
X65341500Y-117576600D02*
X73304400Y-117576600D01*
X62268100Y-120650000D02*
X65341500Y-117576600D01*
X124770000Y-103632000D02*
X131750000Y-103632000D01*
X131750000Y-103632000D02*
X131770000Y-103632000D01*
X131770000Y-102362000D02*
X131770000Y-103632000D01*
X131770000Y-103632000D02*
X131770000Y-104902000D01*
X124770000Y-102362000D02*
X124770000Y-103632000D01*
X124770000Y-103632000D02*
X124770000Y-104902000D01*
X40950000Y-74168000D02*
X47950000Y-74168000D01*
X47950000Y-72898000D02*
X47950000Y-74168000D01*
X47950000Y-74168000D02*
X47950000Y-75438000D01*
X40950000Y-72898000D02*
X40950000Y-74168000D01*
X40950000Y-74168000D02*
X40950000Y-75438000D01*
X75184000Y-139700000D02*
X75184000Y-144729200D01*
X75184000Y-124460000D02*
X75184000Y-129489200D01*
X75184000Y-109220000D02*
X75184000Y-114198400D01*
X75184000Y-93980000D02*
X75184000Y-98958400D01*
X75184000Y-63500000D02*
X75184000Y-68478400D01*
X75184000Y-48260000D02*
X75184000Y-53289200D01*
X75184000Y-33020000D02*
X75184000Y-38049200D01*
X75171300Y-78740000D02*
X75171300Y-81813400D01*
X101600000Y-34036000D02*
X101600000Y-38049200D01*
X101600000Y-49276000D02*
X101600000Y-53289200D01*
X101600000Y-64516000D02*
X101600000Y-68529200D01*
X101600000Y-79756000D02*
X101600000Y-83769200D01*
X101600000Y-94996000D02*
X101600000Y-99009200D01*
X101600000Y-110236000D02*
X101600000Y-114249200D01*
X101600000Y-125476000D02*
X101600000Y-129489200D01*
X101600000Y-140716000D02*
X101600000Y-144729200D01*
X129476500Y-117254020D02*
X129476500Y-114236500D01*
X113030000Y-120650000D02*
X126080520Y-120650000D01*
X126080520Y-120650000D02*
X129476500Y-117254020D01*
X124770000Y-108712000D02*
X117462000Y-108712000D01*
X112940800Y-104190800D02*
X101600000Y-104190800D01*
X117462000Y-108712000D02*
X112940800Y-104190800D01*
X44500000Y-79248000D02*
X44500000Y-88000000D01*
X45450800Y-88950800D02*
X67056000Y-88950800D01*
X44500000Y-88000000D02*
X45450800Y-88950800D01*
X67056000Y-104190800D02*
X67056000Y-93980000D01*
X101600000Y-58470800D02*
X99250000Y-58470800D01*
X101600000Y-43230800D02*
X99250000Y-43230800D01*
X101650800Y-73660000D02*
X100160000Y-73660000D01*
X99250000Y-72750000D02*
X99250000Y-58470800D01*
X100160000Y-73660000D02*
X99250000Y-72750000D01*
X99250000Y-58470800D02*
X99250000Y-43230800D01*
X100259200Y-27990800D02*
X101600000Y-27990800D01*
X99250000Y-43230800D02*
X99250000Y-29000000D01*
X99250000Y-29000000D02*
X100259200Y-27990800D01*
X101600000Y-119430800D02*
X99250000Y-119430800D01*
X101600000Y-134670800D02*
X99920800Y-134670800D01*
X99920800Y-134670800D02*
X99250000Y-134000000D01*
X99250000Y-134000000D02*
X99250000Y-119430800D01*
X100059200Y-104190800D02*
X101600000Y-104190800D01*
X99250000Y-105000000D02*
X100059200Y-104190800D01*
X99250000Y-119430800D02*
X99250000Y-105000000D01*
X113030000Y-49570000D02*
X113030000Y-43230800D01*
X59690000Y-49570000D02*
X62430000Y-49570000D01*
X63740000Y-48260000D02*
X67056000Y-48260000D01*
X62430000Y-49570000D02*
X63740000Y-48260000D01*
X47950000Y-79248000D02*
X50939700Y-79248000D01*
X54673500Y-73723500D02*
X55943500Y-73723500D01*
X51689000Y-76708000D02*
X54673500Y-73723500D01*
X51689000Y-78498700D02*
X51689000Y-76708000D01*
X50939700Y-79248000D02*
X51689000Y-78498700D01*
X59690000Y-123150000D02*
X61977900Y-123150000D01*
X65697100Y-119430800D02*
X67056000Y-119430800D01*
X61977900Y-123150000D02*
X65697100Y-119430800D01*
X113030000Y-123150000D02*
X127675000Y-123150000D01*
X129362200Y-121462800D02*
X129362200Y-119443500D01*
X127675000Y-123150000D02*
X129362200Y-121462800D01*
X124770000Y-108712000D02*
X131770000Y-108712000D01*
X131770000Y-107442000D02*
X131770000Y-108712000D01*
X131770000Y-108712000D02*
X131770000Y-109982000D01*
X124770000Y-107442000D02*
X124770000Y-108712000D01*
X124770000Y-108712000D02*
X124770000Y-109982000D01*
X40950000Y-79248000D02*
X44500000Y-79248000D01*
X44500000Y-79248000D02*
X47950000Y-79248000D01*
X47950000Y-77978000D02*
X47950000Y-79248000D01*
X47950000Y-79248000D02*
X47950000Y-80518000D01*
X40950000Y-77978000D02*
X40950000Y-79248000D01*
X40950000Y-79248000D02*
X40950000Y-80518000D01*
X59690000Y-123150000D02*
X59690000Y-123698000D01*
X67056000Y-139700000D02*
X67056000Y-134670800D01*
X67056000Y-124460000D02*
X67056000Y-119430800D01*
X67056000Y-109220000D02*
X67056000Y-104190800D01*
X67056000Y-93980000D02*
X67056000Y-88950800D01*
X67056000Y-63500000D02*
X67056000Y-58470800D01*
X67056000Y-48260000D02*
X67056000Y-43230800D01*
X67056000Y-33020000D02*
X67056000Y-27990800D01*
X67043300Y-78740000D02*
X67043300Y-73723500D01*
X101600000Y-32004000D02*
X101600000Y-27990800D01*
X101600000Y-47244000D02*
X101600000Y-43230800D01*
X101600000Y-62484000D02*
X101600000Y-58470800D01*
X101600000Y-73710800D02*
X101650800Y-73660000D01*
X101600000Y-77724000D02*
X101600000Y-73710800D01*
X101600000Y-92964000D02*
X101600000Y-88950800D01*
X101600000Y-108204000D02*
X101600000Y-104190800D01*
X101600000Y-123444000D02*
X101600000Y-119430800D01*
X101600000Y-138684000D02*
X101600000Y-134670800D01*
M02*
