G04 #@! TF.FileFunction,Legend,Top*
%FSLAX46Y46*%
G04 Gerber Fmt 4.6, Leading zero omitted, Abs format (unit mm)*
G04 Created by KiCad (PCBNEW 0.201504161001+5603~22~ubuntu14.10.1-product) date Fri Apr 17 18:25:39 2015*
%MOMM*%
G01*
G04 APERTURE LIST*
%ADD10C,0.152400*%
%ADD11C,0.203200*%
%ADD12C,0.254000*%
%ADD13C,0.381000*%
%ADD14C,0.304800*%
%ADD15C,0.002540*%
%ADD16C,0.127000*%
%ADD17C,3.556000*%
%ADD18R,1.524000X2.032000*%
%ADD19C,6.604000*%
%ADD20C,2.540000*%
%ADD21C,1.397000*%
G04 APERTURE END LIST*
D10*
D11*
X116332000Y-39509095D02*
X116283619Y-39605857D01*
X116283619Y-39751000D01*
X116332000Y-39896142D01*
X116428762Y-39992904D01*
X116525524Y-40041285D01*
X116719048Y-40089666D01*
X116864190Y-40089666D01*
X117057714Y-40041285D01*
X117154476Y-39992904D01*
X117251238Y-39896142D01*
X117299619Y-39751000D01*
X117299619Y-39654238D01*
X117251238Y-39509095D01*
X117202857Y-39460714D01*
X116864190Y-39460714D01*
X116864190Y-39654238D01*
X117299619Y-39025285D02*
X116283619Y-39025285D01*
X117299619Y-38444714D01*
X116283619Y-38444714D01*
X117299619Y-37960904D02*
X116283619Y-37960904D01*
X116283619Y-37718999D01*
X116332000Y-37573857D01*
X116428762Y-37477095D01*
X116525524Y-37428714D01*
X116719048Y-37380333D01*
X116864190Y-37380333D01*
X117057714Y-37428714D01*
X117154476Y-37477095D01*
X117251238Y-37573857D01*
X117299619Y-37718999D01*
X117299619Y-37960904D01*
X55952571Y-40041285D02*
X55952571Y-39267190D01*
X56339619Y-39654238D02*
X55565524Y-39654238D01*
X55323619Y-38299571D02*
X55323619Y-38783380D01*
X55807429Y-38831761D01*
X55759048Y-38783380D01*
X55710667Y-38686618D01*
X55710667Y-38444714D01*
X55759048Y-38347952D01*
X55807429Y-38299571D01*
X55904190Y-38251190D01*
X56146095Y-38251190D01*
X56242857Y-38299571D01*
X56291238Y-38347952D01*
X56339619Y-38444714D01*
X56339619Y-38686618D01*
X56291238Y-38783380D01*
X56242857Y-38831761D01*
X55323619Y-37960904D02*
X56339619Y-37622237D01*
X55323619Y-37283571D01*
X117299619Y-135224761D02*
X116283619Y-135224761D01*
X116283619Y-134982856D01*
X116332000Y-134837714D01*
X116428762Y-134740952D01*
X116525524Y-134692571D01*
X116719048Y-134644190D01*
X116864190Y-134644190D01*
X117057714Y-134692571D01*
X117154476Y-134740952D01*
X117251238Y-134837714D01*
X117299619Y-134982856D01*
X117299619Y-135224761D01*
X117299619Y-133773333D02*
X116767429Y-133773333D01*
X116670667Y-133821714D01*
X116622286Y-133918476D01*
X116622286Y-134111999D01*
X116670667Y-134208761D01*
X117251238Y-133773333D02*
X117299619Y-133870095D01*
X117299619Y-134111999D01*
X117251238Y-134208761D01*
X117154476Y-134257142D01*
X117057714Y-134257142D01*
X116960952Y-134208761D01*
X116912571Y-134111999D01*
X116912571Y-133870095D01*
X116864190Y-133773333D01*
X116622286Y-133434666D02*
X116622286Y-133047618D01*
X116283619Y-133289523D02*
X117154476Y-133289523D01*
X117251238Y-133241142D01*
X117299619Y-133144380D01*
X117299619Y-133047618D01*
X117299619Y-132273524D02*
X116767429Y-132273524D01*
X116670667Y-132321905D01*
X116622286Y-132418667D01*
X116622286Y-132612190D01*
X116670667Y-132708952D01*
X117251238Y-132273524D02*
X117299619Y-132370286D01*
X117299619Y-132612190D01*
X117251238Y-132708952D01*
X117154476Y-132757333D01*
X117057714Y-132757333D01*
X116960952Y-132708952D01*
X116912571Y-132612190D01*
X116912571Y-132370286D01*
X116864190Y-132273524D01*
X117396381Y-132031619D02*
X117396381Y-131257524D01*
X116283619Y-130822095D02*
X116283619Y-130628572D01*
X116332000Y-130531810D01*
X116428762Y-130435048D01*
X116622286Y-130386667D01*
X116960952Y-130386667D01*
X117154476Y-130435048D01*
X117251238Y-130531810D01*
X117299619Y-130628572D01*
X117299619Y-130822095D01*
X117251238Y-130918857D01*
X117154476Y-131015619D01*
X116960952Y-131064000D01*
X116622286Y-131064000D01*
X116428762Y-131015619D01*
X116332000Y-130918857D01*
X116283619Y-130822095D01*
X116622286Y-129515810D02*
X117299619Y-129515810D01*
X116622286Y-129951238D02*
X117154476Y-129951238D01*
X117251238Y-129902857D01*
X117299619Y-129806095D01*
X117299619Y-129660953D01*
X117251238Y-129564191D01*
X117202857Y-129515810D01*
X116622286Y-129177143D02*
X116622286Y-128790095D01*
X116283619Y-129032000D02*
X117154476Y-129032000D01*
X117251238Y-128983619D01*
X117299619Y-128886857D01*
X117299619Y-128790095D01*
X56339619Y-135279190D02*
X55323619Y-135279190D01*
X55323619Y-135037285D01*
X55372000Y-134892143D01*
X55468762Y-134795381D01*
X55565524Y-134747000D01*
X55759048Y-134698619D01*
X55904190Y-134698619D01*
X56097714Y-134747000D01*
X56194476Y-134795381D01*
X56291238Y-134892143D01*
X56339619Y-135037285D01*
X56339619Y-135279190D01*
X56339619Y-133827762D02*
X55807429Y-133827762D01*
X55710667Y-133876143D01*
X55662286Y-133972905D01*
X55662286Y-134166428D01*
X55710667Y-134263190D01*
X56291238Y-133827762D02*
X56339619Y-133924524D01*
X56339619Y-134166428D01*
X56291238Y-134263190D01*
X56194476Y-134311571D01*
X56097714Y-134311571D01*
X56000952Y-134263190D01*
X55952571Y-134166428D01*
X55952571Y-133924524D01*
X55904190Y-133827762D01*
X55662286Y-133489095D02*
X55662286Y-133102047D01*
X55323619Y-133343952D02*
X56194476Y-133343952D01*
X56291238Y-133295571D01*
X56339619Y-133198809D01*
X56339619Y-133102047D01*
X56339619Y-132327953D02*
X55807429Y-132327953D01*
X55710667Y-132376334D01*
X55662286Y-132473096D01*
X55662286Y-132666619D01*
X55710667Y-132763381D01*
X56291238Y-132327953D02*
X56339619Y-132424715D01*
X56339619Y-132666619D01*
X56291238Y-132763381D01*
X56194476Y-132811762D01*
X56097714Y-132811762D01*
X56000952Y-132763381D01*
X55952571Y-132666619D01*
X55952571Y-132424715D01*
X55904190Y-132327953D01*
X56436381Y-132086048D02*
X56436381Y-131311953D01*
X56339619Y-131070048D02*
X55323619Y-131070048D01*
X55662286Y-130586238D02*
X56339619Y-130586238D01*
X55759048Y-130586238D02*
X55710667Y-130537857D01*
X55662286Y-130441095D01*
X55662286Y-130295953D01*
X55710667Y-130199191D01*
X55807429Y-130150810D01*
X56339619Y-130150810D01*
D12*
X147320000Y-33020000D02*
X139700000Y-25400000D01*
X147320000Y-139700000D02*
X139700000Y-147320000D01*
X25400000Y-139700000D02*
X33020000Y-147320000D01*
X33020000Y-25400000D02*
X25400000Y-33020000D01*
D13*
X139458095Y-117033524D02*
X139361333Y-117227048D01*
X139264571Y-117323809D01*
X139071048Y-117420571D01*
X138974286Y-117420571D01*
X138780762Y-117323809D01*
X138684000Y-117227048D01*
X138587238Y-117033524D01*
X138587238Y-116646476D01*
X138684000Y-116452952D01*
X138780762Y-116356190D01*
X138974286Y-116259429D01*
X139071048Y-116259429D01*
X139264571Y-116356190D01*
X139361333Y-116452952D01*
X139458095Y-116646476D01*
X139458095Y-117033524D01*
X139554857Y-117227048D01*
X139651619Y-117323809D01*
X139845143Y-117420571D01*
X140232190Y-117420571D01*
X140425714Y-117323809D01*
X140522476Y-117227048D01*
X140619238Y-117033524D01*
X140619238Y-116646476D01*
X140522476Y-116452952D01*
X140425714Y-116356190D01*
X140232190Y-116259429D01*
X139845143Y-116259429D01*
X139651619Y-116356190D01*
X139554857Y-116452952D01*
X139458095Y-116646476D01*
X123347238Y-117517333D02*
X123347238Y-116162667D01*
X125379238Y-117033524D01*
X108107238Y-116452952D02*
X108107238Y-116840000D01*
X108204000Y-117033524D01*
X108300762Y-117130286D01*
X108591048Y-117323809D01*
X108978095Y-117420571D01*
X109752190Y-117420571D01*
X109945714Y-117323809D01*
X110042476Y-117227048D01*
X110139238Y-117033524D01*
X110139238Y-116646476D01*
X110042476Y-116452952D01*
X109945714Y-116356190D01*
X109752190Y-116259429D01*
X109268381Y-116259429D01*
X109074857Y-116356190D01*
X108978095Y-116452952D01*
X108881333Y-116646476D01*
X108881333Y-117033524D01*
X108978095Y-117227048D01*
X109074857Y-117323809D01*
X109268381Y-117420571D01*
X92867238Y-116356190D02*
X92867238Y-117323809D01*
X93834857Y-117420571D01*
X93738095Y-117323809D01*
X93641333Y-117130286D01*
X93641333Y-116646476D01*
X93738095Y-116452952D01*
X93834857Y-116356190D01*
X94028381Y-116259429D01*
X94512190Y-116259429D01*
X94705714Y-116356190D01*
X94802476Y-116452952D01*
X94899238Y-116646476D01*
X94899238Y-117130286D01*
X94802476Y-117323809D01*
X94705714Y-117420571D01*
X78304571Y-116452952D02*
X79659238Y-116452952D01*
X77530476Y-116936762D02*
X78981905Y-117420571D01*
X78981905Y-116162667D01*
X62387238Y-117517333D02*
X62387238Y-116259429D01*
X63161333Y-116936762D01*
X63161333Y-116646476D01*
X63258095Y-116452952D01*
X63354857Y-116356190D01*
X63548381Y-116259429D01*
X64032190Y-116259429D01*
X64225714Y-116356190D01*
X64322476Y-116452952D01*
X64419238Y-116646476D01*
X64419238Y-117227048D01*
X64322476Y-117420571D01*
X64225714Y-117517333D01*
X47340762Y-117420571D02*
X47244000Y-117323809D01*
X47147238Y-117130286D01*
X47147238Y-116646476D01*
X47244000Y-116452952D01*
X47340762Y-116356190D01*
X47534286Y-116259429D01*
X47727810Y-116259429D01*
X48018095Y-116356190D01*
X49179238Y-117517333D01*
X49179238Y-116259429D01*
X33939238Y-116259429D02*
X33939238Y-117420571D01*
X33939238Y-116840000D02*
X31907238Y-116840000D01*
X32197524Y-117033524D01*
X32391048Y-117227048D01*
X32487810Y-117420571D01*
D12*
X147320000Y-117856000D02*
G75*
G03X145796000Y-116332000I-1524000J0D01*
G01*
X144272000Y-114808000D02*
G75*
G03X145796000Y-116332000I1524000J0D01*
G01*
X145796000Y-85852000D02*
G75*
G03X144272000Y-87376000I0J-1524000D01*
G01*
X145796000Y-85852000D02*
G75*
G03X147320000Y-84328000I0J1524000D01*
G01*
X25400000Y-54864000D02*
G75*
G03X26924000Y-56388000I1524000J0D01*
G01*
X28448000Y-57912000D02*
G75*
G03X26924000Y-56388000I-1524000J0D01*
G01*
X26924000Y-86868000D02*
G75*
G03X25400000Y-88392000I0J-1524000D01*
G01*
X26924000Y-86868000D02*
G75*
G03X28448000Y-85344000I0J1524000D01*
G01*
X147320000Y-84328000D02*
X147320000Y-33020000D01*
X147320000Y-117856000D02*
X147320000Y-139700000D01*
X25400000Y-88392000D02*
X25400000Y-139700000D01*
X25400000Y-54864000D02*
X25400000Y-33020000D01*
X144272000Y-101092000D02*
X144272000Y-114808000D01*
X144272000Y-101092000D02*
X144272000Y-87376000D01*
X28448000Y-71628000D02*
X28448000Y-85344000D01*
X28448000Y-71628000D02*
X28448000Y-57912000D01*
X139700000Y-147320000D02*
X33020000Y-147320000D01*
X33020000Y-25400000D02*
X139700000Y-25400000D01*
D13*
X102519238Y-33600571D02*
X100487238Y-33600571D01*
X101454857Y-33600571D02*
X101454857Y-32439429D01*
X102519238Y-32439429D02*
X100487238Y-32439429D01*
X100584000Y-47727810D02*
X100487238Y-47921333D01*
X100487238Y-48211619D01*
X100584000Y-48501905D01*
X100777524Y-48695429D01*
X100971048Y-48792190D01*
X101358095Y-48888952D01*
X101648381Y-48888952D01*
X102035429Y-48792190D01*
X102228952Y-48695429D01*
X102422476Y-48501905D01*
X102519238Y-48211619D01*
X102519238Y-48018095D01*
X102422476Y-47727810D01*
X102325714Y-47631048D01*
X101648381Y-47631048D01*
X101648381Y-48018095D01*
X101454857Y-63209714D02*
X101454857Y-63887047D01*
X102519238Y-63887047D02*
X100487238Y-63887047D01*
X100487238Y-62919428D01*
X101454857Y-79175428D02*
X101454857Y-78498095D01*
X102519238Y-78207809D02*
X102519238Y-79175428D01*
X100487238Y-79175428D01*
X100487238Y-78207809D01*
X102519238Y-94512190D02*
X100487238Y-94512190D01*
X100487238Y-94028381D01*
X100584000Y-93738095D01*
X100777524Y-93544571D01*
X100971048Y-93447810D01*
X101358095Y-93351048D01*
X101648381Y-93351048D01*
X102035429Y-93447810D01*
X102228952Y-93544571D01*
X102422476Y-93738095D01*
X102519238Y-94028381D01*
X102519238Y-94512190D01*
X102325714Y-108591048D02*
X102422476Y-108687810D01*
X102519238Y-108978095D01*
X102519238Y-109171619D01*
X102422476Y-109461905D01*
X102228952Y-109655429D01*
X102035429Y-109752190D01*
X101648381Y-109848952D01*
X101358095Y-109848952D01*
X100971048Y-109752190D01*
X100777524Y-109655429D01*
X100584000Y-109461905D01*
X100487238Y-109171619D01*
X100487238Y-108978095D01*
X100584000Y-108687810D01*
X100680762Y-108591048D01*
X101454857Y-124314857D02*
X101551619Y-124024571D01*
X101648381Y-123927810D01*
X101841905Y-123831048D01*
X102132190Y-123831048D01*
X102325714Y-123927810D01*
X102422476Y-124024571D01*
X102519238Y-124218095D01*
X102519238Y-124992190D01*
X100487238Y-124992190D01*
X100487238Y-124314857D01*
X100584000Y-124121333D01*
X100680762Y-124024571D01*
X100874286Y-123927810D01*
X101067810Y-123927810D01*
X101261333Y-124024571D01*
X101358095Y-124121333D01*
X101454857Y-124314857D01*
X101454857Y-124992190D01*
X101938667Y-140183809D02*
X101938667Y-139216190D01*
X102519238Y-140377333D02*
X100487238Y-139700000D01*
X102519238Y-139022667D01*
D14*
X73224571Y-76079046D02*
X74579238Y-75691999D01*
X73611619Y-75304951D01*
X74579238Y-74917903D01*
X73224571Y-74530856D01*
X73224571Y-73950284D02*
X74579238Y-73563237D01*
X73611619Y-73176189D01*
X74579238Y-72789141D01*
X73224571Y-72402094D01*
X73224571Y-71821522D02*
X74579238Y-71434475D01*
X73611619Y-71047427D01*
X74579238Y-70660379D01*
X73224571Y-70273332D01*
X74385714Y-69499236D02*
X74482476Y-69402475D01*
X74579238Y-69499236D01*
X74482476Y-69595998D01*
X74385714Y-69499236D01*
X74579238Y-69499236D01*
X73224571Y-68725141D02*
X74579238Y-68338094D01*
X73611619Y-67951046D01*
X74579238Y-67563998D01*
X73224571Y-67176951D01*
X73224571Y-66596379D02*
X74579238Y-66112570D01*
X73224571Y-65628760D02*
X74579238Y-66112570D01*
X75063048Y-66306094D01*
X75159810Y-66402855D01*
X75256571Y-66596379D01*
X74579238Y-64564380D02*
X74482476Y-64757904D01*
X74385714Y-64854665D01*
X74192190Y-64951427D01*
X73611619Y-64951427D01*
X73418095Y-64854665D01*
X73321333Y-64757904D01*
X73224571Y-64564380D01*
X73224571Y-64274094D01*
X73321333Y-64080570D01*
X73418095Y-63983808D01*
X73611619Y-63887046D01*
X74192190Y-63887046D01*
X74385714Y-63983808D01*
X74482476Y-64080570D01*
X74579238Y-64274094D01*
X74579238Y-64564380D01*
X74579238Y-62725904D02*
X74482476Y-62919428D01*
X74288952Y-63016189D01*
X72547238Y-63016189D01*
X73224571Y-61080951D02*
X74579238Y-61080951D01*
X73224571Y-61951808D02*
X74288952Y-61951808D01*
X74482476Y-61855047D01*
X74579238Y-61661523D01*
X74579238Y-61371237D01*
X74482476Y-61177713D01*
X74385714Y-61080951D01*
X74579238Y-60113332D02*
X73224571Y-60113332D01*
X73418095Y-60113332D02*
X73321333Y-60016571D01*
X73224571Y-59823047D01*
X73224571Y-59532761D01*
X73321333Y-59339237D01*
X73514857Y-59242475D01*
X74579238Y-59242475D01*
X73514857Y-59242475D02*
X73321333Y-59145713D01*
X73224571Y-58952190D01*
X73224571Y-58661904D01*
X73321333Y-58468380D01*
X73514857Y-58371618D01*
X74579238Y-58371618D01*
X74385714Y-57403999D02*
X74482476Y-57307238D01*
X74579238Y-57403999D01*
X74482476Y-57500761D01*
X74385714Y-57403999D01*
X74579238Y-57403999D01*
X74482476Y-55565523D02*
X74579238Y-55759047D01*
X74579238Y-56146095D01*
X74482476Y-56339619D01*
X74385714Y-56436380D01*
X74192190Y-56533142D01*
X73611619Y-56533142D01*
X73418095Y-56436380D01*
X73321333Y-56339619D01*
X73224571Y-56146095D01*
X73224571Y-55759047D01*
X73321333Y-55565523D01*
X74579238Y-54404381D02*
X74482476Y-54597905D01*
X74385714Y-54694666D01*
X74192190Y-54791428D01*
X73611619Y-54791428D01*
X73418095Y-54694666D01*
X73321333Y-54597905D01*
X73224571Y-54404381D01*
X73224571Y-54114095D01*
X73321333Y-53920571D01*
X73418095Y-53823809D01*
X73611619Y-53727047D01*
X74192190Y-53727047D01*
X74385714Y-53823809D01*
X74482476Y-53920571D01*
X74579238Y-54114095D01*
X74579238Y-54404381D01*
X74579238Y-52856190D02*
X73224571Y-52856190D01*
X73418095Y-52856190D02*
X73321333Y-52759429D01*
X73224571Y-52565905D01*
X73224571Y-52275619D01*
X73321333Y-52082095D01*
X73514857Y-51985333D01*
X74579238Y-51985333D01*
X73514857Y-51985333D02*
X73321333Y-51888571D01*
X73224571Y-51695048D01*
X73224571Y-51404762D01*
X73321333Y-51211238D01*
X73514857Y-51114476D01*
X74579238Y-51114476D01*
X72547238Y-99156761D02*
X72547238Y-97995618D01*
X74579238Y-98576190D02*
X72547238Y-98576190D01*
X74579238Y-97318285D02*
X73224571Y-97318285D01*
X72547238Y-97318285D02*
X72644000Y-97415047D01*
X72740762Y-97318285D01*
X72644000Y-97221524D01*
X72547238Y-97318285D01*
X72740762Y-97318285D01*
X73224571Y-96350666D02*
X74579238Y-96350666D01*
X73418095Y-96350666D02*
X73321333Y-96253905D01*
X73224571Y-96060381D01*
X73224571Y-95770095D01*
X73321333Y-95576571D01*
X73514857Y-95479809D01*
X74579238Y-95479809D01*
X73224571Y-94705714D02*
X74579238Y-94221905D01*
X73224571Y-93738095D02*
X74579238Y-94221905D01*
X75063048Y-94415429D01*
X75159810Y-94512190D01*
X75256571Y-94705714D01*
X72547238Y-93254286D02*
X72547238Y-92093143D01*
X74579238Y-92673715D02*
X72547238Y-92673715D01*
X74579238Y-91415810D02*
X73224571Y-91415810D01*
X72547238Y-91415810D02*
X72644000Y-91512572D01*
X72740762Y-91415810D01*
X72644000Y-91319049D01*
X72547238Y-91415810D01*
X72740762Y-91415810D01*
X74579238Y-90448191D02*
X72547238Y-90448191D01*
X73998667Y-89770858D01*
X72547238Y-89093525D01*
X74579238Y-89093525D01*
D15*
G36*
X89359740Y-88384380D02*
X89339420Y-88348820D01*
X89291160Y-88270080D01*
X89217500Y-88158320D01*
X89131140Y-88026240D01*
X89039700Y-87894160D01*
X88968580Y-87784940D01*
X88917780Y-87708740D01*
X88900000Y-87678260D01*
X88907620Y-87660480D01*
X88938100Y-87596980D01*
X88983820Y-87508080D01*
X89011760Y-87454740D01*
X89047320Y-87370920D01*
X89054940Y-87327740D01*
X89044780Y-87322660D01*
X88981280Y-87292180D01*
X88872060Y-87243920D01*
X88727280Y-87180420D01*
X88557100Y-87106760D01*
X88374220Y-87030560D01*
X88188800Y-86951820D01*
X88011000Y-86878160D01*
X87850980Y-86814660D01*
X87718900Y-86761320D01*
X87630000Y-86725760D01*
X87591900Y-86713060D01*
X87581740Y-86718140D01*
X87541100Y-86758780D01*
X87487760Y-86832440D01*
X87358220Y-86989920D01*
X87165180Y-87147400D01*
X86944200Y-87241380D01*
X86697820Y-87274400D01*
X86469220Y-87246460D01*
X86250780Y-87157560D01*
X86055200Y-87005160D01*
X85907880Y-86819740D01*
X85816440Y-86603840D01*
X85785960Y-86360000D01*
X85811360Y-86128860D01*
X85900260Y-85905340D01*
X86050120Y-85707220D01*
X86146640Y-85623400D01*
X86344760Y-85509100D01*
X86558120Y-85445600D01*
X86614000Y-85437980D01*
X86847680Y-85448140D01*
X87071200Y-85516720D01*
X87271860Y-85641180D01*
X87436960Y-85811360D01*
X87452200Y-85834220D01*
X87513160Y-85912960D01*
X87553800Y-85966300D01*
X87586820Y-86009480D01*
X88305640Y-85709760D01*
X88419940Y-85661500D01*
X88618060Y-85580220D01*
X88785700Y-85509100D01*
X88920320Y-85450680D01*
X89011760Y-85410040D01*
X89047320Y-85392260D01*
X89049860Y-85392260D01*
X89054940Y-85364320D01*
X89034620Y-85310980D01*
X88986360Y-85209380D01*
X88950800Y-85143340D01*
X88915240Y-85067140D01*
X88900000Y-85031580D01*
X88917780Y-85003640D01*
X88963500Y-84929980D01*
X89034620Y-84823300D01*
X89123520Y-84693760D01*
X89207340Y-84571840D01*
X89281000Y-84460080D01*
X89334340Y-84378800D01*
X89354660Y-84338160D01*
X89354660Y-84333080D01*
X89334340Y-84297520D01*
X89281000Y-84231480D01*
X89189560Y-84134960D01*
X89052400Y-83995260D01*
X89029540Y-83974940D01*
X88915240Y-83860640D01*
X88818720Y-83769200D01*
X88747600Y-83705700D01*
X88717120Y-83682840D01*
X88717120Y-83682840D01*
X88679020Y-83703160D01*
X88595200Y-83756500D01*
X88480900Y-83830160D01*
X88348820Y-83921600D01*
X88003380Y-84160360D01*
X87675720Y-84028280D01*
X87576660Y-83987640D01*
X87454740Y-83936840D01*
X87368380Y-83898740D01*
X87330280Y-83880960D01*
X87317580Y-83845400D01*
X87297260Y-83756500D01*
X87269320Y-83626960D01*
X87241380Y-83472020D01*
X87213440Y-83324700D01*
X87188040Y-83192620D01*
X87170260Y-83096100D01*
X87162640Y-83052920D01*
X87155020Y-83042760D01*
X87134700Y-83032600D01*
X87088980Y-83027520D01*
X87007700Y-83024980D01*
X86880700Y-83022440D01*
X86697820Y-83022440D01*
X86677500Y-83022440D01*
X86502240Y-83024980D01*
X86362540Y-83027520D01*
X86271100Y-83032600D01*
X86235540Y-83037680D01*
X86235540Y-83037680D01*
X86225380Y-83080860D01*
X86205060Y-83174840D01*
X86179660Y-83306920D01*
X86149180Y-83464400D01*
X86146640Y-83474560D01*
X86116160Y-83632040D01*
X86088220Y-83766660D01*
X86067900Y-83858100D01*
X86055200Y-83896200D01*
X86045040Y-83906360D01*
X85981540Y-83936840D01*
X85885020Y-83982560D01*
X85765640Y-84035900D01*
X85641180Y-84086700D01*
X85529420Y-84129880D01*
X85445600Y-84160360D01*
X85407500Y-84170520D01*
X85407500Y-84170520D01*
X85369400Y-84145120D01*
X85288120Y-84091780D01*
X85173820Y-84015580D01*
X85039200Y-83921600D01*
X85029040Y-83916520D01*
X84896960Y-83825080D01*
X84782660Y-83751420D01*
X84701380Y-83703160D01*
X84665820Y-83682840D01*
X84663280Y-83685380D01*
X84625180Y-83713320D01*
X84548980Y-83781900D01*
X84447380Y-83878420D01*
X84328000Y-83995260D01*
X84292440Y-84033360D01*
X84165440Y-84162900D01*
X84081620Y-84254340D01*
X84038440Y-84310220D01*
X84028280Y-84335620D01*
X84028280Y-84338160D01*
X84053680Y-84378800D01*
X84109560Y-84462620D01*
X84185760Y-84576920D01*
X84277200Y-84711540D01*
X84284820Y-84721700D01*
X84376260Y-84853780D01*
X84449920Y-84965540D01*
X84503260Y-85044280D01*
X84523580Y-85079840D01*
X84523580Y-85084920D01*
X84508340Y-85140800D01*
X84475320Y-85234780D01*
X84429600Y-85351620D01*
X84378800Y-85476080D01*
X84333080Y-85587840D01*
X84294980Y-85671660D01*
X84272120Y-85709760D01*
X84269580Y-85712300D01*
X84221320Y-85725000D01*
X84122260Y-85747860D01*
X83985100Y-85778340D01*
X83820000Y-85808820D01*
X83794600Y-85813900D01*
X83634580Y-85844380D01*
X83505040Y-85869780D01*
X83413600Y-85887560D01*
X83375500Y-85897720D01*
X83370420Y-85920580D01*
X83365340Y-85996780D01*
X83362800Y-86116160D01*
X83360260Y-86258400D01*
X83360260Y-86410800D01*
X83365340Y-86558120D01*
X83367880Y-86682580D01*
X83375500Y-86774020D01*
X83383120Y-86812120D01*
X83385660Y-86812120D01*
X83433920Y-86827360D01*
X83532980Y-86847680D01*
X83672680Y-86875620D01*
X83835240Y-86908640D01*
X83865720Y-86913720D01*
X84023200Y-86944200D01*
X84152740Y-86969600D01*
X84244180Y-86989920D01*
X84279740Y-87000080D01*
X84287360Y-87012780D01*
X84315300Y-87078820D01*
X84358480Y-87185500D01*
X84411820Y-87317580D01*
X84536280Y-87622380D01*
X84279740Y-87998300D01*
X84256880Y-88031320D01*
X84162900Y-88165940D01*
X84089240Y-88277700D01*
X84040980Y-88353900D01*
X84023200Y-88386920D01*
X84023200Y-88389460D01*
X84056220Y-88427560D01*
X84124800Y-88501220D01*
X84223860Y-88602820D01*
X84343240Y-88719660D01*
X84429600Y-88808560D01*
X84533740Y-88910160D01*
X84604860Y-88976200D01*
X84650580Y-89011760D01*
X84678520Y-89024460D01*
X84696300Y-89021920D01*
X84734400Y-88996520D01*
X84818220Y-88943180D01*
X84929980Y-88864440D01*
X85064600Y-88773000D01*
X85173820Y-88699340D01*
X85300820Y-88618060D01*
X85389720Y-88564720D01*
X85432900Y-88546940D01*
X85453220Y-88552020D01*
X85524340Y-88577420D01*
X85636100Y-88620600D01*
X85768180Y-88679020D01*
X86065360Y-88808560D01*
X86103460Y-89001600D01*
X86123780Y-89120980D01*
X86156800Y-89286080D01*
X86187280Y-89443560D01*
X86235540Y-89689940D01*
X87139780Y-89697560D01*
X87155020Y-89659460D01*
X87165180Y-89623900D01*
X87185500Y-89532460D01*
X87210900Y-89402920D01*
X87238840Y-89247980D01*
X87264240Y-89118440D01*
X87289640Y-88986360D01*
X87307420Y-88889840D01*
X87317580Y-88849200D01*
X87330280Y-88839040D01*
X87393780Y-88806020D01*
X87495380Y-88757760D01*
X87617300Y-88706960D01*
X87744300Y-88653620D01*
X87861140Y-88607900D01*
X87950040Y-88574880D01*
X87998300Y-88562180D01*
X88031320Y-88579960D01*
X88110060Y-88630760D01*
X88219280Y-88701880D01*
X88351360Y-88793320D01*
X88480900Y-88882220D01*
X88595200Y-88958420D01*
X88673940Y-89009220D01*
X88712040Y-89032080D01*
X88737440Y-89021920D01*
X88800940Y-88968580D01*
X88902540Y-88869520D01*
X89047320Y-88722200D01*
X89070180Y-88699340D01*
X89184480Y-88582500D01*
X89275920Y-88483440D01*
X89336880Y-88414860D01*
X89359740Y-88384380D01*
X89359740Y-88384380D01*
G37*
X89359740Y-88384380D02*
X89339420Y-88348820D01*
X89291160Y-88270080D01*
X89217500Y-88158320D01*
X89131140Y-88026240D01*
X89039700Y-87894160D01*
X88968580Y-87784940D01*
X88917780Y-87708740D01*
X88900000Y-87678260D01*
X88907620Y-87660480D01*
X88938100Y-87596980D01*
X88983820Y-87508080D01*
X89011760Y-87454740D01*
X89047320Y-87370920D01*
X89054940Y-87327740D01*
X89044780Y-87322660D01*
X88981280Y-87292180D01*
X88872060Y-87243920D01*
X88727280Y-87180420D01*
X88557100Y-87106760D01*
X88374220Y-87030560D01*
X88188800Y-86951820D01*
X88011000Y-86878160D01*
X87850980Y-86814660D01*
X87718900Y-86761320D01*
X87630000Y-86725760D01*
X87591900Y-86713060D01*
X87581740Y-86718140D01*
X87541100Y-86758780D01*
X87487760Y-86832440D01*
X87358220Y-86989920D01*
X87165180Y-87147400D01*
X86944200Y-87241380D01*
X86697820Y-87274400D01*
X86469220Y-87246460D01*
X86250780Y-87157560D01*
X86055200Y-87005160D01*
X85907880Y-86819740D01*
X85816440Y-86603840D01*
X85785960Y-86360000D01*
X85811360Y-86128860D01*
X85900260Y-85905340D01*
X86050120Y-85707220D01*
X86146640Y-85623400D01*
X86344760Y-85509100D01*
X86558120Y-85445600D01*
X86614000Y-85437980D01*
X86847680Y-85448140D01*
X87071200Y-85516720D01*
X87271860Y-85641180D01*
X87436960Y-85811360D01*
X87452200Y-85834220D01*
X87513160Y-85912960D01*
X87553800Y-85966300D01*
X87586820Y-86009480D01*
X88305640Y-85709760D01*
X88419940Y-85661500D01*
X88618060Y-85580220D01*
X88785700Y-85509100D01*
X88920320Y-85450680D01*
X89011760Y-85410040D01*
X89047320Y-85392260D01*
X89049860Y-85392260D01*
X89054940Y-85364320D01*
X89034620Y-85310980D01*
X88986360Y-85209380D01*
X88950800Y-85143340D01*
X88915240Y-85067140D01*
X88900000Y-85031580D01*
X88917780Y-85003640D01*
X88963500Y-84929980D01*
X89034620Y-84823300D01*
X89123520Y-84693760D01*
X89207340Y-84571840D01*
X89281000Y-84460080D01*
X89334340Y-84378800D01*
X89354660Y-84338160D01*
X89354660Y-84333080D01*
X89334340Y-84297520D01*
X89281000Y-84231480D01*
X89189560Y-84134960D01*
X89052400Y-83995260D01*
X89029540Y-83974940D01*
X88915240Y-83860640D01*
X88818720Y-83769200D01*
X88747600Y-83705700D01*
X88717120Y-83682840D01*
X88717120Y-83682840D01*
X88679020Y-83703160D01*
X88595200Y-83756500D01*
X88480900Y-83830160D01*
X88348820Y-83921600D01*
X88003380Y-84160360D01*
X87675720Y-84028280D01*
X87576660Y-83987640D01*
X87454740Y-83936840D01*
X87368380Y-83898740D01*
X87330280Y-83880960D01*
X87317580Y-83845400D01*
X87297260Y-83756500D01*
X87269320Y-83626960D01*
X87241380Y-83472020D01*
X87213440Y-83324700D01*
X87188040Y-83192620D01*
X87170260Y-83096100D01*
X87162640Y-83052920D01*
X87155020Y-83042760D01*
X87134700Y-83032600D01*
X87088980Y-83027520D01*
X87007700Y-83024980D01*
X86880700Y-83022440D01*
X86697820Y-83022440D01*
X86677500Y-83022440D01*
X86502240Y-83024980D01*
X86362540Y-83027520D01*
X86271100Y-83032600D01*
X86235540Y-83037680D01*
X86235540Y-83037680D01*
X86225380Y-83080860D01*
X86205060Y-83174840D01*
X86179660Y-83306920D01*
X86149180Y-83464400D01*
X86146640Y-83474560D01*
X86116160Y-83632040D01*
X86088220Y-83766660D01*
X86067900Y-83858100D01*
X86055200Y-83896200D01*
X86045040Y-83906360D01*
X85981540Y-83936840D01*
X85885020Y-83982560D01*
X85765640Y-84035900D01*
X85641180Y-84086700D01*
X85529420Y-84129880D01*
X85445600Y-84160360D01*
X85407500Y-84170520D01*
X85407500Y-84170520D01*
X85369400Y-84145120D01*
X85288120Y-84091780D01*
X85173820Y-84015580D01*
X85039200Y-83921600D01*
X85029040Y-83916520D01*
X84896960Y-83825080D01*
X84782660Y-83751420D01*
X84701380Y-83703160D01*
X84665820Y-83682840D01*
X84663280Y-83685380D01*
X84625180Y-83713320D01*
X84548980Y-83781900D01*
X84447380Y-83878420D01*
X84328000Y-83995260D01*
X84292440Y-84033360D01*
X84165440Y-84162900D01*
X84081620Y-84254340D01*
X84038440Y-84310220D01*
X84028280Y-84335620D01*
X84028280Y-84338160D01*
X84053680Y-84378800D01*
X84109560Y-84462620D01*
X84185760Y-84576920D01*
X84277200Y-84711540D01*
X84284820Y-84721700D01*
X84376260Y-84853780D01*
X84449920Y-84965540D01*
X84503260Y-85044280D01*
X84523580Y-85079840D01*
X84523580Y-85084920D01*
X84508340Y-85140800D01*
X84475320Y-85234780D01*
X84429600Y-85351620D01*
X84378800Y-85476080D01*
X84333080Y-85587840D01*
X84294980Y-85671660D01*
X84272120Y-85709760D01*
X84269580Y-85712300D01*
X84221320Y-85725000D01*
X84122260Y-85747860D01*
X83985100Y-85778340D01*
X83820000Y-85808820D01*
X83794600Y-85813900D01*
X83634580Y-85844380D01*
X83505040Y-85869780D01*
X83413600Y-85887560D01*
X83375500Y-85897720D01*
X83370420Y-85920580D01*
X83365340Y-85996780D01*
X83362800Y-86116160D01*
X83360260Y-86258400D01*
X83360260Y-86410800D01*
X83365340Y-86558120D01*
X83367880Y-86682580D01*
X83375500Y-86774020D01*
X83383120Y-86812120D01*
X83385660Y-86812120D01*
X83433920Y-86827360D01*
X83532980Y-86847680D01*
X83672680Y-86875620D01*
X83835240Y-86908640D01*
X83865720Y-86913720D01*
X84023200Y-86944200D01*
X84152740Y-86969600D01*
X84244180Y-86989920D01*
X84279740Y-87000080D01*
X84287360Y-87012780D01*
X84315300Y-87078820D01*
X84358480Y-87185500D01*
X84411820Y-87317580D01*
X84536280Y-87622380D01*
X84279740Y-87998300D01*
X84256880Y-88031320D01*
X84162900Y-88165940D01*
X84089240Y-88277700D01*
X84040980Y-88353900D01*
X84023200Y-88386920D01*
X84023200Y-88389460D01*
X84056220Y-88427560D01*
X84124800Y-88501220D01*
X84223860Y-88602820D01*
X84343240Y-88719660D01*
X84429600Y-88808560D01*
X84533740Y-88910160D01*
X84604860Y-88976200D01*
X84650580Y-89011760D01*
X84678520Y-89024460D01*
X84696300Y-89021920D01*
X84734400Y-88996520D01*
X84818220Y-88943180D01*
X84929980Y-88864440D01*
X85064600Y-88773000D01*
X85173820Y-88699340D01*
X85300820Y-88618060D01*
X85389720Y-88564720D01*
X85432900Y-88546940D01*
X85453220Y-88552020D01*
X85524340Y-88577420D01*
X85636100Y-88620600D01*
X85768180Y-88679020D01*
X86065360Y-88808560D01*
X86103460Y-89001600D01*
X86123780Y-89120980D01*
X86156800Y-89286080D01*
X86187280Y-89443560D01*
X86235540Y-89689940D01*
X87139780Y-89697560D01*
X87155020Y-89659460D01*
X87165180Y-89623900D01*
X87185500Y-89532460D01*
X87210900Y-89402920D01*
X87238840Y-89247980D01*
X87264240Y-89118440D01*
X87289640Y-88986360D01*
X87307420Y-88889840D01*
X87317580Y-88849200D01*
X87330280Y-88839040D01*
X87393780Y-88806020D01*
X87495380Y-88757760D01*
X87617300Y-88706960D01*
X87744300Y-88653620D01*
X87861140Y-88607900D01*
X87950040Y-88574880D01*
X87998300Y-88562180D01*
X88031320Y-88579960D01*
X88110060Y-88630760D01*
X88219280Y-88701880D01*
X88351360Y-88793320D01*
X88480900Y-88882220D01*
X88595200Y-88958420D01*
X88673940Y-89009220D01*
X88712040Y-89032080D01*
X88737440Y-89021920D01*
X88800940Y-88968580D01*
X88902540Y-88869520D01*
X89047320Y-88722200D01*
X89070180Y-88699340D01*
X89184480Y-88582500D01*
X89275920Y-88483440D01*
X89336880Y-88414860D01*
X89359740Y-88384380D01*
D16*
X126809500Y-30162500D02*
X126809500Y-30035500D01*
X126936500Y-30226000D02*
X126936500Y-29972000D01*
X127063500Y-30353000D02*
X127063500Y-29845000D01*
X126746000Y-30099000D02*
X127190500Y-29654500D01*
X127190500Y-29654500D02*
X127190500Y-30543500D01*
X127190500Y-30543500D02*
X126746000Y-30099000D01*
X127000000Y-30988000D02*
X126746000Y-30734000D01*
X126492000Y-36449000D02*
X122428000Y-36449000D01*
X126492000Y-29591000D02*
X122428000Y-29591000D01*
X121920000Y-30480000D02*
X122174000Y-30480000D01*
X127000000Y-35560000D02*
X126746000Y-35560000D01*
X121920000Y-35560000D02*
X122174000Y-35560000D01*
X127000000Y-30988000D02*
X127000000Y-33020000D01*
X127000000Y-33020000D02*
X127000000Y-35560000D01*
X121920000Y-35560000D02*
X121920000Y-33020000D01*
X121920000Y-33020000D02*
X121920000Y-30480000D01*
X111569500Y-30162500D02*
X111569500Y-30035500D01*
X111696500Y-30226000D02*
X111696500Y-29972000D01*
X111823500Y-30353000D02*
X111823500Y-29845000D01*
X111506000Y-30099000D02*
X111950500Y-29654500D01*
X111950500Y-29654500D02*
X111950500Y-30543500D01*
X111950500Y-30543500D02*
X111506000Y-30099000D01*
X111760000Y-30988000D02*
X111506000Y-30734000D01*
X111252000Y-36449000D02*
X107188000Y-36449000D01*
X111252000Y-29591000D02*
X107188000Y-29591000D01*
X106680000Y-30480000D02*
X106934000Y-30480000D01*
X111760000Y-35560000D02*
X111506000Y-35560000D01*
X106680000Y-35560000D02*
X106934000Y-35560000D01*
X111760000Y-30988000D02*
X111760000Y-33020000D01*
X111760000Y-33020000D02*
X111760000Y-35560000D01*
X106680000Y-35560000D02*
X106680000Y-33020000D01*
X106680000Y-33020000D02*
X106680000Y-30480000D01*
X96329500Y-30162500D02*
X96329500Y-30035500D01*
X96456500Y-30226000D02*
X96456500Y-29972000D01*
X96583500Y-30353000D02*
X96583500Y-29845000D01*
X96266000Y-30099000D02*
X96710500Y-29654500D01*
X96710500Y-29654500D02*
X96710500Y-30543500D01*
X96710500Y-30543500D02*
X96266000Y-30099000D01*
X96520000Y-30988000D02*
X96266000Y-30734000D01*
X96012000Y-36449000D02*
X91948000Y-36449000D01*
X96012000Y-29591000D02*
X91948000Y-29591000D01*
X91440000Y-30480000D02*
X91694000Y-30480000D01*
X96520000Y-35560000D02*
X96266000Y-35560000D01*
X91440000Y-35560000D02*
X91694000Y-35560000D01*
X96520000Y-30988000D02*
X96520000Y-33020000D01*
X96520000Y-33020000D02*
X96520000Y-35560000D01*
X91440000Y-35560000D02*
X91440000Y-33020000D01*
X91440000Y-33020000D02*
X91440000Y-30480000D01*
X81089500Y-30162500D02*
X81089500Y-30035500D01*
X81216500Y-30226000D02*
X81216500Y-29972000D01*
X81343500Y-30353000D02*
X81343500Y-29845000D01*
X81026000Y-30099000D02*
X81470500Y-29654500D01*
X81470500Y-29654500D02*
X81470500Y-30543500D01*
X81470500Y-30543500D02*
X81026000Y-30099000D01*
X81280000Y-30988000D02*
X81026000Y-30734000D01*
X80772000Y-36449000D02*
X76708000Y-36449000D01*
X80772000Y-29591000D02*
X76708000Y-29591000D01*
X76200000Y-30480000D02*
X76454000Y-30480000D01*
X81280000Y-35560000D02*
X81026000Y-35560000D01*
X76200000Y-35560000D02*
X76454000Y-35560000D01*
X81280000Y-30988000D02*
X81280000Y-33020000D01*
X81280000Y-33020000D02*
X81280000Y-35560000D01*
X76200000Y-35560000D02*
X76200000Y-33020000D01*
X76200000Y-33020000D02*
X76200000Y-30480000D01*
X65849500Y-30162500D02*
X65849500Y-30035500D01*
X65976500Y-30226000D02*
X65976500Y-29972000D01*
X66103500Y-30353000D02*
X66103500Y-29845000D01*
X65786000Y-30099000D02*
X66230500Y-29654500D01*
X66230500Y-29654500D02*
X66230500Y-30543500D01*
X66230500Y-30543500D02*
X65786000Y-30099000D01*
X66040000Y-30988000D02*
X65786000Y-30734000D01*
X65532000Y-36449000D02*
X61468000Y-36449000D01*
X65532000Y-29591000D02*
X61468000Y-29591000D01*
X60960000Y-30480000D02*
X61214000Y-30480000D01*
X66040000Y-35560000D02*
X65786000Y-35560000D01*
X60960000Y-35560000D02*
X61214000Y-35560000D01*
X66040000Y-30988000D02*
X66040000Y-33020000D01*
X66040000Y-33020000D02*
X66040000Y-35560000D01*
X60960000Y-35560000D02*
X60960000Y-33020000D01*
X60960000Y-33020000D02*
X60960000Y-30480000D01*
X50609500Y-30162500D02*
X50609500Y-30035500D01*
X50736500Y-30226000D02*
X50736500Y-29972000D01*
X50863500Y-30353000D02*
X50863500Y-29845000D01*
X50546000Y-30099000D02*
X50990500Y-29654500D01*
X50990500Y-29654500D02*
X50990500Y-30543500D01*
X50990500Y-30543500D02*
X50546000Y-30099000D01*
X50800000Y-30988000D02*
X50546000Y-30734000D01*
X50292000Y-36449000D02*
X46228000Y-36449000D01*
X50292000Y-29591000D02*
X46228000Y-29591000D01*
X45720000Y-30480000D02*
X45974000Y-30480000D01*
X50800000Y-35560000D02*
X50546000Y-35560000D01*
X45720000Y-35560000D02*
X45974000Y-35560000D01*
X50800000Y-30988000D02*
X50800000Y-33020000D01*
X50800000Y-33020000D02*
X50800000Y-35560000D01*
X45720000Y-35560000D02*
X45720000Y-33020000D01*
X45720000Y-33020000D02*
X45720000Y-30480000D01*
X35369500Y-30162500D02*
X35369500Y-30035500D01*
X35496500Y-30226000D02*
X35496500Y-29972000D01*
X35623500Y-30353000D02*
X35623500Y-29845000D01*
X35306000Y-30099000D02*
X35750500Y-29654500D01*
X35750500Y-29654500D02*
X35750500Y-30543500D01*
X35750500Y-30543500D02*
X35306000Y-30099000D01*
X35560000Y-30988000D02*
X35306000Y-30734000D01*
X35052000Y-36449000D02*
X30988000Y-36449000D01*
X35052000Y-29591000D02*
X30988000Y-29591000D01*
X30480000Y-30480000D02*
X30734000Y-30480000D01*
X35560000Y-35560000D02*
X35306000Y-35560000D01*
X30480000Y-35560000D02*
X30734000Y-35560000D01*
X35560000Y-30988000D02*
X35560000Y-33020000D01*
X35560000Y-33020000D02*
X35560000Y-35560000D01*
X30480000Y-35560000D02*
X30480000Y-33020000D01*
X30480000Y-33020000D02*
X30480000Y-30480000D01*
X142049500Y-45402500D02*
X142049500Y-45275500D01*
X142176500Y-45466000D02*
X142176500Y-45212000D01*
X142303500Y-45593000D02*
X142303500Y-45085000D01*
X141986000Y-45339000D02*
X142430500Y-44894500D01*
X142430500Y-44894500D02*
X142430500Y-45783500D01*
X142430500Y-45783500D02*
X141986000Y-45339000D01*
X142240000Y-46228000D02*
X141986000Y-45974000D01*
X141732000Y-51689000D02*
X137668000Y-51689000D01*
X141732000Y-44831000D02*
X137668000Y-44831000D01*
X137160000Y-45720000D02*
X137414000Y-45720000D01*
X142240000Y-50800000D02*
X141986000Y-50800000D01*
X137160000Y-50800000D02*
X137414000Y-50800000D01*
X142240000Y-46228000D02*
X142240000Y-48260000D01*
X142240000Y-48260000D02*
X142240000Y-50800000D01*
X137160000Y-50800000D02*
X137160000Y-48260000D01*
X137160000Y-48260000D02*
X137160000Y-45720000D01*
X126809500Y-45402500D02*
X126809500Y-45275500D01*
X126936500Y-45466000D02*
X126936500Y-45212000D01*
X127063500Y-45593000D02*
X127063500Y-45085000D01*
X126746000Y-45339000D02*
X127190500Y-44894500D01*
X127190500Y-44894500D02*
X127190500Y-45783500D01*
X127190500Y-45783500D02*
X126746000Y-45339000D01*
X127000000Y-46228000D02*
X126746000Y-45974000D01*
X126492000Y-51689000D02*
X122428000Y-51689000D01*
X126492000Y-44831000D02*
X122428000Y-44831000D01*
X121920000Y-45720000D02*
X122174000Y-45720000D01*
X127000000Y-50800000D02*
X126746000Y-50800000D01*
X121920000Y-50800000D02*
X122174000Y-50800000D01*
X127000000Y-46228000D02*
X127000000Y-48260000D01*
X127000000Y-48260000D02*
X127000000Y-50800000D01*
X121920000Y-50800000D02*
X121920000Y-48260000D01*
X121920000Y-48260000D02*
X121920000Y-45720000D01*
X111569500Y-45402500D02*
X111569500Y-45275500D01*
X111696500Y-45466000D02*
X111696500Y-45212000D01*
X111823500Y-45593000D02*
X111823500Y-45085000D01*
X111506000Y-45339000D02*
X111950500Y-44894500D01*
X111950500Y-44894500D02*
X111950500Y-45783500D01*
X111950500Y-45783500D02*
X111506000Y-45339000D01*
X111760000Y-46228000D02*
X111506000Y-45974000D01*
X111252000Y-51689000D02*
X107188000Y-51689000D01*
X111252000Y-44831000D02*
X107188000Y-44831000D01*
X106680000Y-45720000D02*
X106934000Y-45720000D01*
X111760000Y-50800000D02*
X111506000Y-50800000D01*
X106680000Y-50800000D02*
X106934000Y-50800000D01*
X111760000Y-46228000D02*
X111760000Y-48260000D01*
X111760000Y-48260000D02*
X111760000Y-50800000D01*
X106680000Y-50800000D02*
X106680000Y-48260000D01*
X106680000Y-48260000D02*
X106680000Y-45720000D01*
X96329500Y-45402500D02*
X96329500Y-45275500D01*
X96456500Y-45466000D02*
X96456500Y-45212000D01*
X96583500Y-45593000D02*
X96583500Y-45085000D01*
X96266000Y-45339000D02*
X96710500Y-44894500D01*
X96710500Y-44894500D02*
X96710500Y-45783500D01*
X96710500Y-45783500D02*
X96266000Y-45339000D01*
X96520000Y-46228000D02*
X96266000Y-45974000D01*
X96012000Y-51689000D02*
X91948000Y-51689000D01*
X96012000Y-44831000D02*
X91948000Y-44831000D01*
X91440000Y-45720000D02*
X91694000Y-45720000D01*
X96520000Y-50800000D02*
X96266000Y-50800000D01*
X91440000Y-50800000D02*
X91694000Y-50800000D01*
X96520000Y-46228000D02*
X96520000Y-48260000D01*
X96520000Y-48260000D02*
X96520000Y-50800000D01*
X91440000Y-50800000D02*
X91440000Y-48260000D01*
X91440000Y-48260000D02*
X91440000Y-45720000D01*
X81089500Y-45402500D02*
X81089500Y-45275500D01*
X81216500Y-45466000D02*
X81216500Y-45212000D01*
X81343500Y-45593000D02*
X81343500Y-45085000D01*
X81026000Y-45339000D02*
X81470500Y-44894500D01*
X81470500Y-44894500D02*
X81470500Y-45783500D01*
X81470500Y-45783500D02*
X81026000Y-45339000D01*
X81280000Y-46228000D02*
X81026000Y-45974000D01*
X80772000Y-51689000D02*
X76708000Y-51689000D01*
X80772000Y-44831000D02*
X76708000Y-44831000D01*
X76200000Y-45720000D02*
X76454000Y-45720000D01*
X81280000Y-50800000D02*
X81026000Y-50800000D01*
X76200000Y-50800000D02*
X76454000Y-50800000D01*
X81280000Y-46228000D02*
X81280000Y-48260000D01*
X81280000Y-48260000D02*
X81280000Y-50800000D01*
X76200000Y-50800000D02*
X76200000Y-48260000D01*
X76200000Y-48260000D02*
X76200000Y-45720000D01*
X65849500Y-45402500D02*
X65849500Y-45275500D01*
X65976500Y-45466000D02*
X65976500Y-45212000D01*
X66103500Y-45593000D02*
X66103500Y-45085000D01*
X65786000Y-45339000D02*
X66230500Y-44894500D01*
X66230500Y-44894500D02*
X66230500Y-45783500D01*
X66230500Y-45783500D02*
X65786000Y-45339000D01*
X66040000Y-46228000D02*
X65786000Y-45974000D01*
X65532000Y-51689000D02*
X61468000Y-51689000D01*
X65532000Y-44831000D02*
X61468000Y-44831000D01*
X60960000Y-45720000D02*
X61214000Y-45720000D01*
X66040000Y-50800000D02*
X65786000Y-50800000D01*
X60960000Y-50800000D02*
X61214000Y-50800000D01*
X66040000Y-46228000D02*
X66040000Y-48260000D01*
X66040000Y-48260000D02*
X66040000Y-50800000D01*
X60960000Y-50800000D02*
X60960000Y-48260000D01*
X60960000Y-48260000D02*
X60960000Y-45720000D01*
X50609500Y-45402500D02*
X50609500Y-45275500D01*
X50736500Y-45466000D02*
X50736500Y-45212000D01*
X50863500Y-45593000D02*
X50863500Y-45085000D01*
X50546000Y-45339000D02*
X50990500Y-44894500D01*
X50990500Y-44894500D02*
X50990500Y-45783500D01*
X50990500Y-45783500D02*
X50546000Y-45339000D01*
X50800000Y-46228000D02*
X50546000Y-45974000D01*
X50292000Y-51689000D02*
X46228000Y-51689000D01*
X50292000Y-44831000D02*
X46228000Y-44831000D01*
X45720000Y-45720000D02*
X45974000Y-45720000D01*
X50800000Y-50800000D02*
X50546000Y-50800000D01*
X45720000Y-50800000D02*
X45974000Y-50800000D01*
X50800000Y-46228000D02*
X50800000Y-48260000D01*
X50800000Y-48260000D02*
X50800000Y-50800000D01*
X45720000Y-50800000D02*
X45720000Y-48260000D01*
X45720000Y-48260000D02*
X45720000Y-45720000D01*
X35369500Y-45402500D02*
X35369500Y-45275500D01*
X35496500Y-45466000D02*
X35496500Y-45212000D01*
X35623500Y-45593000D02*
X35623500Y-45085000D01*
X35306000Y-45339000D02*
X35750500Y-44894500D01*
X35750500Y-44894500D02*
X35750500Y-45783500D01*
X35750500Y-45783500D02*
X35306000Y-45339000D01*
X35560000Y-46228000D02*
X35306000Y-45974000D01*
X35052000Y-51689000D02*
X30988000Y-51689000D01*
X35052000Y-44831000D02*
X30988000Y-44831000D01*
X30480000Y-45720000D02*
X30734000Y-45720000D01*
X35560000Y-50800000D02*
X35306000Y-50800000D01*
X30480000Y-50800000D02*
X30734000Y-50800000D01*
X35560000Y-46228000D02*
X35560000Y-48260000D01*
X35560000Y-48260000D02*
X35560000Y-50800000D01*
X30480000Y-50800000D02*
X30480000Y-48260000D01*
X30480000Y-48260000D02*
X30480000Y-45720000D01*
X142049500Y-60642500D02*
X142049500Y-60515500D01*
X142176500Y-60706000D02*
X142176500Y-60452000D01*
X142303500Y-60833000D02*
X142303500Y-60325000D01*
X141986000Y-60579000D02*
X142430500Y-60134500D01*
X142430500Y-60134500D02*
X142430500Y-61023500D01*
X142430500Y-61023500D02*
X141986000Y-60579000D01*
X142240000Y-61468000D02*
X141986000Y-61214000D01*
X141732000Y-66929000D02*
X137668000Y-66929000D01*
X141732000Y-60071000D02*
X137668000Y-60071000D01*
X137160000Y-60960000D02*
X137414000Y-60960000D01*
X142240000Y-66040000D02*
X141986000Y-66040000D01*
X137160000Y-66040000D02*
X137414000Y-66040000D01*
X142240000Y-61468000D02*
X142240000Y-63500000D01*
X142240000Y-63500000D02*
X142240000Y-66040000D01*
X137160000Y-66040000D02*
X137160000Y-63500000D01*
X137160000Y-63500000D02*
X137160000Y-60960000D01*
X126809500Y-60642500D02*
X126809500Y-60515500D01*
X126936500Y-60706000D02*
X126936500Y-60452000D01*
X127063500Y-60833000D02*
X127063500Y-60325000D01*
X126746000Y-60579000D02*
X127190500Y-60134500D01*
X127190500Y-60134500D02*
X127190500Y-61023500D01*
X127190500Y-61023500D02*
X126746000Y-60579000D01*
X127000000Y-61468000D02*
X126746000Y-61214000D01*
X126492000Y-66929000D02*
X122428000Y-66929000D01*
X126492000Y-60071000D02*
X122428000Y-60071000D01*
X121920000Y-60960000D02*
X122174000Y-60960000D01*
X127000000Y-66040000D02*
X126746000Y-66040000D01*
X121920000Y-66040000D02*
X122174000Y-66040000D01*
X127000000Y-61468000D02*
X127000000Y-63500000D01*
X127000000Y-63500000D02*
X127000000Y-66040000D01*
X121920000Y-66040000D02*
X121920000Y-63500000D01*
X121920000Y-63500000D02*
X121920000Y-60960000D01*
X111569500Y-60642500D02*
X111569500Y-60515500D01*
X111696500Y-60706000D02*
X111696500Y-60452000D01*
X111823500Y-60833000D02*
X111823500Y-60325000D01*
X111506000Y-60579000D02*
X111950500Y-60134500D01*
X111950500Y-60134500D02*
X111950500Y-61023500D01*
X111950500Y-61023500D02*
X111506000Y-60579000D01*
X111760000Y-61468000D02*
X111506000Y-61214000D01*
X111252000Y-66929000D02*
X107188000Y-66929000D01*
X111252000Y-60071000D02*
X107188000Y-60071000D01*
X106680000Y-60960000D02*
X106934000Y-60960000D01*
X111760000Y-66040000D02*
X111506000Y-66040000D01*
X106680000Y-66040000D02*
X106934000Y-66040000D01*
X111760000Y-61468000D02*
X111760000Y-63500000D01*
X111760000Y-63500000D02*
X111760000Y-66040000D01*
X106680000Y-66040000D02*
X106680000Y-63500000D01*
X106680000Y-63500000D02*
X106680000Y-60960000D01*
X96329500Y-60642500D02*
X96329500Y-60515500D01*
X96456500Y-60706000D02*
X96456500Y-60452000D01*
X96583500Y-60833000D02*
X96583500Y-60325000D01*
X96266000Y-60579000D02*
X96710500Y-60134500D01*
X96710500Y-60134500D02*
X96710500Y-61023500D01*
X96710500Y-61023500D02*
X96266000Y-60579000D01*
X96520000Y-61468000D02*
X96266000Y-61214000D01*
X96012000Y-66929000D02*
X91948000Y-66929000D01*
X96012000Y-60071000D02*
X91948000Y-60071000D01*
X91440000Y-60960000D02*
X91694000Y-60960000D01*
X96520000Y-66040000D02*
X96266000Y-66040000D01*
X91440000Y-66040000D02*
X91694000Y-66040000D01*
X96520000Y-61468000D02*
X96520000Y-63500000D01*
X96520000Y-63500000D02*
X96520000Y-66040000D01*
X91440000Y-66040000D02*
X91440000Y-63500000D01*
X91440000Y-63500000D02*
X91440000Y-60960000D01*
X81089500Y-60642500D02*
X81089500Y-60515500D01*
X81216500Y-60706000D02*
X81216500Y-60452000D01*
X81343500Y-60833000D02*
X81343500Y-60325000D01*
X81026000Y-60579000D02*
X81470500Y-60134500D01*
X81470500Y-60134500D02*
X81470500Y-61023500D01*
X81470500Y-61023500D02*
X81026000Y-60579000D01*
X81280000Y-61468000D02*
X81026000Y-61214000D01*
X80772000Y-66929000D02*
X76708000Y-66929000D01*
X80772000Y-60071000D02*
X76708000Y-60071000D01*
X76200000Y-60960000D02*
X76454000Y-60960000D01*
X81280000Y-66040000D02*
X81026000Y-66040000D01*
X76200000Y-66040000D02*
X76454000Y-66040000D01*
X81280000Y-61468000D02*
X81280000Y-63500000D01*
X81280000Y-63500000D02*
X81280000Y-66040000D01*
X76200000Y-66040000D02*
X76200000Y-63500000D01*
X76200000Y-63500000D02*
X76200000Y-60960000D01*
X65849500Y-60642500D02*
X65849500Y-60515500D01*
X65976500Y-60706000D02*
X65976500Y-60452000D01*
X66103500Y-60833000D02*
X66103500Y-60325000D01*
X65786000Y-60579000D02*
X66230500Y-60134500D01*
X66230500Y-60134500D02*
X66230500Y-61023500D01*
X66230500Y-61023500D02*
X65786000Y-60579000D01*
X66040000Y-61468000D02*
X65786000Y-61214000D01*
X65532000Y-66929000D02*
X61468000Y-66929000D01*
X65532000Y-60071000D02*
X61468000Y-60071000D01*
X60960000Y-60960000D02*
X61214000Y-60960000D01*
X66040000Y-66040000D02*
X65786000Y-66040000D01*
X60960000Y-66040000D02*
X61214000Y-66040000D01*
X66040000Y-61468000D02*
X66040000Y-63500000D01*
X66040000Y-63500000D02*
X66040000Y-66040000D01*
X60960000Y-66040000D02*
X60960000Y-63500000D01*
X60960000Y-63500000D02*
X60960000Y-60960000D01*
X50609500Y-60642500D02*
X50609500Y-60515500D01*
X50736500Y-60706000D02*
X50736500Y-60452000D01*
X50863500Y-60833000D02*
X50863500Y-60325000D01*
X50546000Y-60579000D02*
X50990500Y-60134500D01*
X50990500Y-60134500D02*
X50990500Y-61023500D01*
X50990500Y-61023500D02*
X50546000Y-60579000D01*
X50800000Y-61468000D02*
X50546000Y-61214000D01*
X50292000Y-66929000D02*
X46228000Y-66929000D01*
X50292000Y-60071000D02*
X46228000Y-60071000D01*
X45720000Y-60960000D02*
X45974000Y-60960000D01*
X50800000Y-66040000D02*
X50546000Y-66040000D01*
X45720000Y-66040000D02*
X45974000Y-66040000D01*
X50800000Y-61468000D02*
X50800000Y-63500000D01*
X50800000Y-63500000D02*
X50800000Y-66040000D01*
X45720000Y-66040000D02*
X45720000Y-63500000D01*
X45720000Y-63500000D02*
X45720000Y-60960000D01*
X35369500Y-60642500D02*
X35369500Y-60515500D01*
X35496500Y-60706000D02*
X35496500Y-60452000D01*
X35623500Y-60833000D02*
X35623500Y-60325000D01*
X35306000Y-60579000D02*
X35750500Y-60134500D01*
X35750500Y-60134500D02*
X35750500Y-61023500D01*
X35750500Y-61023500D02*
X35306000Y-60579000D01*
X35560000Y-61468000D02*
X35306000Y-61214000D01*
X35052000Y-66929000D02*
X30988000Y-66929000D01*
X35052000Y-60071000D02*
X30988000Y-60071000D01*
X30480000Y-60960000D02*
X30734000Y-60960000D01*
X35560000Y-66040000D02*
X35306000Y-66040000D01*
X30480000Y-66040000D02*
X30734000Y-66040000D01*
X35560000Y-61468000D02*
X35560000Y-63500000D01*
X35560000Y-63500000D02*
X35560000Y-66040000D01*
X30480000Y-66040000D02*
X30480000Y-63500000D01*
X30480000Y-63500000D02*
X30480000Y-60960000D01*
X142049500Y-75882500D02*
X142049500Y-75755500D01*
X142176500Y-75946000D02*
X142176500Y-75692000D01*
X142303500Y-76073000D02*
X142303500Y-75565000D01*
X141986000Y-75819000D02*
X142430500Y-75374500D01*
X142430500Y-75374500D02*
X142430500Y-76263500D01*
X142430500Y-76263500D02*
X141986000Y-75819000D01*
X142240000Y-76708000D02*
X141986000Y-76454000D01*
X141732000Y-82169000D02*
X137668000Y-82169000D01*
X141732000Y-75311000D02*
X137668000Y-75311000D01*
X137160000Y-76200000D02*
X137414000Y-76200000D01*
X142240000Y-81280000D02*
X141986000Y-81280000D01*
X137160000Y-81280000D02*
X137414000Y-81280000D01*
X142240000Y-76708000D02*
X142240000Y-78740000D01*
X142240000Y-78740000D02*
X142240000Y-81280000D01*
X137160000Y-81280000D02*
X137160000Y-78740000D01*
X137160000Y-78740000D02*
X137160000Y-76200000D01*
X126809500Y-75882500D02*
X126809500Y-75755500D01*
X126936500Y-75946000D02*
X126936500Y-75692000D01*
X127063500Y-76073000D02*
X127063500Y-75565000D01*
X126746000Y-75819000D02*
X127190500Y-75374500D01*
X127190500Y-75374500D02*
X127190500Y-76263500D01*
X127190500Y-76263500D02*
X126746000Y-75819000D01*
X127000000Y-76708000D02*
X126746000Y-76454000D01*
X126492000Y-82169000D02*
X122428000Y-82169000D01*
X126492000Y-75311000D02*
X122428000Y-75311000D01*
X121920000Y-76200000D02*
X122174000Y-76200000D01*
X127000000Y-81280000D02*
X126746000Y-81280000D01*
X121920000Y-81280000D02*
X122174000Y-81280000D01*
X127000000Y-76708000D02*
X127000000Y-78740000D01*
X127000000Y-78740000D02*
X127000000Y-81280000D01*
X121920000Y-81280000D02*
X121920000Y-78740000D01*
X121920000Y-78740000D02*
X121920000Y-76200000D01*
X111569500Y-75882500D02*
X111569500Y-75755500D01*
X111696500Y-75946000D02*
X111696500Y-75692000D01*
X111823500Y-76073000D02*
X111823500Y-75565000D01*
X111506000Y-75819000D02*
X111950500Y-75374500D01*
X111950500Y-75374500D02*
X111950500Y-76263500D01*
X111950500Y-76263500D02*
X111506000Y-75819000D01*
X111760000Y-76708000D02*
X111506000Y-76454000D01*
X111252000Y-82169000D02*
X107188000Y-82169000D01*
X111252000Y-75311000D02*
X107188000Y-75311000D01*
X106680000Y-76200000D02*
X106934000Y-76200000D01*
X111760000Y-81280000D02*
X111506000Y-81280000D01*
X106680000Y-81280000D02*
X106934000Y-81280000D01*
X111760000Y-76708000D02*
X111760000Y-78740000D01*
X111760000Y-78740000D02*
X111760000Y-81280000D01*
X106680000Y-81280000D02*
X106680000Y-78740000D01*
X106680000Y-78740000D02*
X106680000Y-76200000D01*
X96329500Y-75882500D02*
X96329500Y-75755500D01*
X96456500Y-75946000D02*
X96456500Y-75692000D01*
X96583500Y-76073000D02*
X96583500Y-75565000D01*
X96266000Y-75819000D02*
X96710500Y-75374500D01*
X96710500Y-75374500D02*
X96710500Y-76263500D01*
X96710500Y-76263500D02*
X96266000Y-75819000D01*
X96520000Y-76708000D02*
X96266000Y-76454000D01*
X96012000Y-82169000D02*
X91948000Y-82169000D01*
X96012000Y-75311000D02*
X91948000Y-75311000D01*
X91440000Y-76200000D02*
X91694000Y-76200000D01*
X96520000Y-81280000D02*
X96266000Y-81280000D01*
X91440000Y-81280000D02*
X91694000Y-81280000D01*
X96520000Y-76708000D02*
X96520000Y-78740000D01*
X96520000Y-78740000D02*
X96520000Y-81280000D01*
X91440000Y-81280000D02*
X91440000Y-78740000D01*
X91440000Y-78740000D02*
X91440000Y-76200000D01*
X81089500Y-75882500D02*
X81089500Y-75755500D01*
X81216500Y-75946000D02*
X81216500Y-75692000D01*
X81343500Y-76073000D02*
X81343500Y-75565000D01*
X81026000Y-75819000D02*
X81470500Y-75374500D01*
X81470500Y-75374500D02*
X81470500Y-76263500D01*
X81470500Y-76263500D02*
X81026000Y-75819000D01*
X81280000Y-76708000D02*
X81026000Y-76454000D01*
X80772000Y-82169000D02*
X76708000Y-82169000D01*
X80772000Y-75311000D02*
X76708000Y-75311000D01*
X76200000Y-76200000D02*
X76454000Y-76200000D01*
X81280000Y-81280000D02*
X81026000Y-81280000D01*
X76200000Y-81280000D02*
X76454000Y-81280000D01*
X81280000Y-76708000D02*
X81280000Y-78740000D01*
X81280000Y-78740000D02*
X81280000Y-81280000D01*
X76200000Y-81280000D02*
X76200000Y-78740000D01*
X76200000Y-78740000D02*
X76200000Y-76200000D01*
X65849500Y-75882500D02*
X65849500Y-75755500D01*
X65976500Y-75946000D02*
X65976500Y-75692000D01*
X66103500Y-76073000D02*
X66103500Y-75565000D01*
X65786000Y-75819000D02*
X66230500Y-75374500D01*
X66230500Y-75374500D02*
X66230500Y-76263500D01*
X66230500Y-76263500D02*
X65786000Y-75819000D01*
X66040000Y-76708000D02*
X65786000Y-76454000D01*
X65532000Y-82169000D02*
X61468000Y-82169000D01*
X65532000Y-75311000D02*
X61468000Y-75311000D01*
X60960000Y-76200000D02*
X61214000Y-76200000D01*
X66040000Y-81280000D02*
X65786000Y-81280000D01*
X60960000Y-81280000D02*
X61214000Y-81280000D01*
X66040000Y-76708000D02*
X66040000Y-78740000D01*
X66040000Y-78740000D02*
X66040000Y-81280000D01*
X60960000Y-81280000D02*
X60960000Y-78740000D01*
X60960000Y-78740000D02*
X60960000Y-76200000D01*
X50609500Y-75882500D02*
X50609500Y-75755500D01*
X50736500Y-75946000D02*
X50736500Y-75692000D01*
X50863500Y-76073000D02*
X50863500Y-75565000D01*
X50546000Y-75819000D02*
X50990500Y-75374500D01*
X50990500Y-75374500D02*
X50990500Y-76263500D01*
X50990500Y-76263500D02*
X50546000Y-75819000D01*
X50800000Y-76708000D02*
X50546000Y-76454000D01*
X50292000Y-82169000D02*
X46228000Y-82169000D01*
X50292000Y-75311000D02*
X46228000Y-75311000D01*
X45720000Y-76200000D02*
X45974000Y-76200000D01*
X50800000Y-81280000D02*
X50546000Y-81280000D01*
X45720000Y-81280000D02*
X45974000Y-81280000D01*
X50800000Y-76708000D02*
X50800000Y-78740000D01*
X50800000Y-78740000D02*
X50800000Y-81280000D01*
X45720000Y-81280000D02*
X45720000Y-78740000D01*
X45720000Y-78740000D02*
X45720000Y-76200000D01*
X35369500Y-75882500D02*
X35369500Y-75755500D01*
X35496500Y-75946000D02*
X35496500Y-75692000D01*
X35623500Y-76073000D02*
X35623500Y-75565000D01*
X35306000Y-75819000D02*
X35750500Y-75374500D01*
X35750500Y-75374500D02*
X35750500Y-76263500D01*
X35750500Y-76263500D02*
X35306000Y-75819000D01*
X35560000Y-76708000D02*
X35306000Y-76454000D01*
X35052000Y-82169000D02*
X30988000Y-82169000D01*
X35052000Y-75311000D02*
X30988000Y-75311000D01*
X30480000Y-76200000D02*
X30734000Y-76200000D01*
X35560000Y-81280000D02*
X35306000Y-81280000D01*
X30480000Y-81280000D02*
X30734000Y-81280000D01*
X35560000Y-76708000D02*
X35560000Y-78740000D01*
X35560000Y-78740000D02*
X35560000Y-81280000D01*
X30480000Y-81280000D02*
X30480000Y-78740000D01*
X30480000Y-78740000D02*
X30480000Y-76200000D01*
X142049500Y-91122500D02*
X142049500Y-90995500D01*
X142176500Y-91186000D02*
X142176500Y-90932000D01*
X142303500Y-91313000D02*
X142303500Y-90805000D01*
X141986000Y-91059000D02*
X142430500Y-90614500D01*
X142430500Y-90614500D02*
X142430500Y-91503500D01*
X142430500Y-91503500D02*
X141986000Y-91059000D01*
X142240000Y-91948000D02*
X141986000Y-91694000D01*
X141732000Y-97409000D02*
X137668000Y-97409000D01*
X141732000Y-90551000D02*
X137668000Y-90551000D01*
X137160000Y-91440000D02*
X137414000Y-91440000D01*
X142240000Y-96520000D02*
X141986000Y-96520000D01*
X137160000Y-96520000D02*
X137414000Y-96520000D01*
X142240000Y-91948000D02*
X142240000Y-93980000D01*
X142240000Y-93980000D02*
X142240000Y-96520000D01*
X137160000Y-96520000D02*
X137160000Y-93980000D01*
X137160000Y-93980000D02*
X137160000Y-91440000D01*
X126809500Y-91122500D02*
X126809500Y-90995500D01*
X126936500Y-91186000D02*
X126936500Y-90932000D01*
X127063500Y-91313000D02*
X127063500Y-90805000D01*
X126746000Y-91059000D02*
X127190500Y-90614500D01*
X127190500Y-90614500D02*
X127190500Y-91503500D01*
X127190500Y-91503500D02*
X126746000Y-91059000D01*
X127000000Y-91948000D02*
X126746000Y-91694000D01*
X126492000Y-97409000D02*
X122428000Y-97409000D01*
X126492000Y-90551000D02*
X122428000Y-90551000D01*
X121920000Y-91440000D02*
X122174000Y-91440000D01*
X127000000Y-96520000D02*
X126746000Y-96520000D01*
X121920000Y-96520000D02*
X122174000Y-96520000D01*
X127000000Y-91948000D02*
X127000000Y-93980000D01*
X127000000Y-93980000D02*
X127000000Y-96520000D01*
X121920000Y-96520000D02*
X121920000Y-93980000D01*
X121920000Y-93980000D02*
X121920000Y-91440000D01*
X111569500Y-91122500D02*
X111569500Y-90995500D01*
X111696500Y-91186000D02*
X111696500Y-90932000D01*
X111823500Y-91313000D02*
X111823500Y-90805000D01*
X111506000Y-91059000D02*
X111950500Y-90614500D01*
X111950500Y-90614500D02*
X111950500Y-91503500D01*
X111950500Y-91503500D02*
X111506000Y-91059000D01*
X111760000Y-91948000D02*
X111506000Y-91694000D01*
X111252000Y-97409000D02*
X107188000Y-97409000D01*
X111252000Y-90551000D02*
X107188000Y-90551000D01*
X106680000Y-91440000D02*
X106934000Y-91440000D01*
X111760000Y-96520000D02*
X111506000Y-96520000D01*
X106680000Y-96520000D02*
X106934000Y-96520000D01*
X111760000Y-91948000D02*
X111760000Y-93980000D01*
X111760000Y-93980000D02*
X111760000Y-96520000D01*
X106680000Y-96520000D02*
X106680000Y-93980000D01*
X106680000Y-93980000D02*
X106680000Y-91440000D01*
X96329500Y-91122500D02*
X96329500Y-90995500D01*
X96456500Y-91186000D02*
X96456500Y-90932000D01*
X96583500Y-91313000D02*
X96583500Y-90805000D01*
X96266000Y-91059000D02*
X96710500Y-90614500D01*
X96710500Y-90614500D02*
X96710500Y-91503500D01*
X96710500Y-91503500D02*
X96266000Y-91059000D01*
X96520000Y-91948000D02*
X96266000Y-91694000D01*
X96012000Y-97409000D02*
X91948000Y-97409000D01*
X96012000Y-90551000D02*
X91948000Y-90551000D01*
X91440000Y-91440000D02*
X91694000Y-91440000D01*
X96520000Y-96520000D02*
X96266000Y-96520000D01*
X91440000Y-96520000D02*
X91694000Y-96520000D01*
X96520000Y-91948000D02*
X96520000Y-93980000D01*
X96520000Y-93980000D02*
X96520000Y-96520000D01*
X91440000Y-96520000D02*
X91440000Y-93980000D01*
X91440000Y-93980000D02*
X91440000Y-91440000D01*
X81089500Y-91122500D02*
X81089500Y-90995500D01*
X81216500Y-91186000D02*
X81216500Y-90932000D01*
X81343500Y-91313000D02*
X81343500Y-90805000D01*
X81026000Y-91059000D02*
X81470500Y-90614500D01*
X81470500Y-90614500D02*
X81470500Y-91503500D01*
X81470500Y-91503500D02*
X81026000Y-91059000D01*
X81280000Y-91948000D02*
X81026000Y-91694000D01*
X80772000Y-97409000D02*
X76708000Y-97409000D01*
X80772000Y-90551000D02*
X76708000Y-90551000D01*
X76200000Y-91440000D02*
X76454000Y-91440000D01*
X81280000Y-96520000D02*
X81026000Y-96520000D01*
X76200000Y-96520000D02*
X76454000Y-96520000D01*
X81280000Y-91948000D02*
X81280000Y-93980000D01*
X81280000Y-93980000D02*
X81280000Y-96520000D01*
X76200000Y-96520000D02*
X76200000Y-93980000D01*
X76200000Y-93980000D02*
X76200000Y-91440000D01*
X65849500Y-91122500D02*
X65849500Y-90995500D01*
X65976500Y-91186000D02*
X65976500Y-90932000D01*
X66103500Y-91313000D02*
X66103500Y-90805000D01*
X65786000Y-91059000D02*
X66230500Y-90614500D01*
X66230500Y-90614500D02*
X66230500Y-91503500D01*
X66230500Y-91503500D02*
X65786000Y-91059000D01*
X66040000Y-91948000D02*
X65786000Y-91694000D01*
X65532000Y-97409000D02*
X61468000Y-97409000D01*
X65532000Y-90551000D02*
X61468000Y-90551000D01*
X60960000Y-91440000D02*
X61214000Y-91440000D01*
X66040000Y-96520000D02*
X65786000Y-96520000D01*
X60960000Y-96520000D02*
X61214000Y-96520000D01*
X66040000Y-91948000D02*
X66040000Y-93980000D01*
X66040000Y-93980000D02*
X66040000Y-96520000D01*
X60960000Y-96520000D02*
X60960000Y-93980000D01*
X60960000Y-93980000D02*
X60960000Y-91440000D01*
X50609500Y-91122500D02*
X50609500Y-90995500D01*
X50736500Y-91186000D02*
X50736500Y-90932000D01*
X50863500Y-91313000D02*
X50863500Y-90805000D01*
X50546000Y-91059000D02*
X50990500Y-90614500D01*
X50990500Y-90614500D02*
X50990500Y-91503500D01*
X50990500Y-91503500D02*
X50546000Y-91059000D01*
X50800000Y-91948000D02*
X50546000Y-91694000D01*
X50292000Y-97409000D02*
X46228000Y-97409000D01*
X50292000Y-90551000D02*
X46228000Y-90551000D01*
X45720000Y-91440000D02*
X45974000Y-91440000D01*
X50800000Y-96520000D02*
X50546000Y-96520000D01*
X45720000Y-96520000D02*
X45974000Y-96520000D01*
X50800000Y-91948000D02*
X50800000Y-93980000D01*
X50800000Y-93980000D02*
X50800000Y-96520000D01*
X45720000Y-96520000D02*
X45720000Y-93980000D01*
X45720000Y-93980000D02*
X45720000Y-91440000D01*
X35369500Y-91122500D02*
X35369500Y-90995500D01*
X35496500Y-91186000D02*
X35496500Y-90932000D01*
X35623500Y-91313000D02*
X35623500Y-90805000D01*
X35306000Y-91059000D02*
X35750500Y-90614500D01*
X35750500Y-90614500D02*
X35750500Y-91503500D01*
X35750500Y-91503500D02*
X35306000Y-91059000D01*
X35560000Y-91948000D02*
X35306000Y-91694000D01*
X35052000Y-97409000D02*
X30988000Y-97409000D01*
X35052000Y-90551000D02*
X30988000Y-90551000D01*
X30480000Y-91440000D02*
X30734000Y-91440000D01*
X35560000Y-96520000D02*
X35306000Y-96520000D01*
X30480000Y-96520000D02*
X30734000Y-96520000D01*
X35560000Y-91948000D02*
X35560000Y-93980000D01*
X35560000Y-93980000D02*
X35560000Y-96520000D01*
X30480000Y-96520000D02*
X30480000Y-93980000D01*
X30480000Y-93980000D02*
X30480000Y-91440000D01*
X142049500Y-106362500D02*
X142049500Y-106235500D01*
X142176500Y-106426000D02*
X142176500Y-106172000D01*
X142303500Y-106553000D02*
X142303500Y-106045000D01*
X141986000Y-106299000D02*
X142430500Y-105854500D01*
X142430500Y-105854500D02*
X142430500Y-106743500D01*
X142430500Y-106743500D02*
X141986000Y-106299000D01*
X142240000Y-107188000D02*
X141986000Y-106934000D01*
X141732000Y-112649000D02*
X137668000Y-112649000D01*
X141732000Y-105791000D02*
X137668000Y-105791000D01*
X137160000Y-106680000D02*
X137414000Y-106680000D01*
X142240000Y-111760000D02*
X141986000Y-111760000D01*
X137160000Y-111760000D02*
X137414000Y-111760000D01*
X142240000Y-107188000D02*
X142240000Y-109220000D01*
X142240000Y-109220000D02*
X142240000Y-111760000D01*
X137160000Y-111760000D02*
X137160000Y-109220000D01*
X137160000Y-109220000D02*
X137160000Y-106680000D01*
X126809500Y-106362500D02*
X126809500Y-106235500D01*
X126936500Y-106426000D02*
X126936500Y-106172000D01*
X127063500Y-106553000D02*
X127063500Y-106045000D01*
X126746000Y-106299000D02*
X127190500Y-105854500D01*
X127190500Y-105854500D02*
X127190500Y-106743500D01*
X127190500Y-106743500D02*
X126746000Y-106299000D01*
X127000000Y-107188000D02*
X126746000Y-106934000D01*
X126492000Y-112649000D02*
X122428000Y-112649000D01*
X126492000Y-105791000D02*
X122428000Y-105791000D01*
X121920000Y-106680000D02*
X122174000Y-106680000D01*
X127000000Y-111760000D02*
X126746000Y-111760000D01*
X121920000Y-111760000D02*
X122174000Y-111760000D01*
X127000000Y-107188000D02*
X127000000Y-109220000D01*
X127000000Y-109220000D02*
X127000000Y-111760000D01*
X121920000Y-111760000D02*
X121920000Y-109220000D01*
X121920000Y-109220000D02*
X121920000Y-106680000D01*
X111569500Y-106362500D02*
X111569500Y-106235500D01*
X111696500Y-106426000D02*
X111696500Y-106172000D01*
X111823500Y-106553000D02*
X111823500Y-106045000D01*
X111506000Y-106299000D02*
X111950500Y-105854500D01*
X111950500Y-105854500D02*
X111950500Y-106743500D01*
X111950500Y-106743500D02*
X111506000Y-106299000D01*
X111760000Y-107188000D02*
X111506000Y-106934000D01*
X111252000Y-112649000D02*
X107188000Y-112649000D01*
X111252000Y-105791000D02*
X107188000Y-105791000D01*
X106680000Y-106680000D02*
X106934000Y-106680000D01*
X111760000Y-111760000D02*
X111506000Y-111760000D01*
X106680000Y-111760000D02*
X106934000Y-111760000D01*
X111760000Y-107188000D02*
X111760000Y-109220000D01*
X111760000Y-109220000D02*
X111760000Y-111760000D01*
X106680000Y-111760000D02*
X106680000Y-109220000D01*
X106680000Y-109220000D02*
X106680000Y-106680000D01*
X96329500Y-106362500D02*
X96329500Y-106235500D01*
X96456500Y-106426000D02*
X96456500Y-106172000D01*
X96583500Y-106553000D02*
X96583500Y-106045000D01*
X96266000Y-106299000D02*
X96710500Y-105854500D01*
X96710500Y-105854500D02*
X96710500Y-106743500D01*
X96710500Y-106743500D02*
X96266000Y-106299000D01*
X96520000Y-107188000D02*
X96266000Y-106934000D01*
X96012000Y-112649000D02*
X91948000Y-112649000D01*
X96012000Y-105791000D02*
X91948000Y-105791000D01*
X91440000Y-106680000D02*
X91694000Y-106680000D01*
X96520000Y-111760000D02*
X96266000Y-111760000D01*
X91440000Y-111760000D02*
X91694000Y-111760000D01*
X96520000Y-107188000D02*
X96520000Y-109220000D01*
X96520000Y-109220000D02*
X96520000Y-111760000D01*
X91440000Y-111760000D02*
X91440000Y-109220000D01*
X91440000Y-109220000D02*
X91440000Y-106680000D01*
X81089500Y-106362500D02*
X81089500Y-106235500D01*
X81216500Y-106426000D02*
X81216500Y-106172000D01*
X81343500Y-106553000D02*
X81343500Y-106045000D01*
X81026000Y-106299000D02*
X81470500Y-105854500D01*
X81470500Y-105854500D02*
X81470500Y-106743500D01*
X81470500Y-106743500D02*
X81026000Y-106299000D01*
X81280000Y-107188000D02*
X81026000Y-106934000D01*
X80772000Y-112649000D02*
X76708000Y-112649000D01*
X80772000Y-105791000D02*
X76708000Y-105791000D01*
X76200000Y-106680000D02*
X76454000Y-106680000D01*
X81280000Y-111760000D02*
X81026000Y-111760000D01*
X76200000Y-111760000D02*
X76454000Y-111760000D01*
X81280000Y-107188000D02*
X81280000Y-109220000D01*
X81280000Y-109220000D02*
X81280000Y-111760000D01*
X76200000Y-111760000D02*
X76200000Y-109220000D01*
X76200000Y-109220000D02*
X76200000Y-106680000D01*
X65849500Y-106362500D02*
X65849500Y-106235500D01*
X65976500Y-106426000D02*
X65976500Y-106172000D01*
X66103500Y-106553000D02*
X66103500Y-106045000D01*
X65786000Y-106299000D02*
X66230500Y-105854500D01*
X66230500Y-105854500D02*
X66230500Y-106743500D01*
X66230500Y-106743500D02*
X65786000Y-106299000D01*
X66040000Y-107188000D02*
X65786000Y-106934000D01*
X65532000Y-112649000D02*
X61468000Y-112649000D01*
X65532000Y-105791000D02*
X61468000Y-105791000D01*
X60960000Y-106680000D02*
X61214000Y-106680000D01*
X66040000Y-111760000D02*
X65786000Y-111760000D01*
X60960000Y-111760000D02*
X61214000Y-111760000D01*
X66040000Y-107188000D02*
X66040000Y-109220000D01*
X66040000Y-109220000D02*
X66040000Y-111760000D01*
X60960000Y-111760000D02*
X60960000Y-109220000D01*
X60960000Y-109220000D02*
X60960000Y-106680000D01*
X50609500Y-106362500D02*
X50609500Y-106235500D01*
X50736500Y-106426000D02*
X50736500Y-106172000D01*
X50863500Y-106553000D02*
X50863500Y-106045000D01*
X50546000Y-106299000D02*
X50990500Y-105854500D01*
X50990500Y-105854500D02*
X50990500Y-106743500D01*
X50990500Y-106743500D02*
X50546000Y-106299000D01*
X50800000Y-107188000D02*
X50546000Y-106934000D01*
X50292000Y-112649000D02*
X46228000Y-112649000D01*
X50292000Y-105791000D02*
X46228000Y-105791000D01*
X45720000Y-106680000D02*
X45974000Y-106680000D01*
X50800000Y-111760000D02*
X50546000Y-111760000D01*
X45720000Y-111760000D02*
X45974000Y-111760000D01*
X50800000Y-107188000D02*
X50800000Y-109220000D01*
X50800000Y-109220000D02*
X50800000Y-111760000D01*
X45720000Y-111760000D02*
X45720000Y-109220000D01*
X45720000Y-109220000D02*
X45720000Y-106680000D01*
X35369500Y-106362500D02*
X35369500Y-106235500D01*
X35496500Y-106426000D02*
X35496500Y-106172000D01*
X35623500Y-106553000D02*
X35623500Y-106045000D01*
X35306000Y-106299000D02*
X35750500Y-105854500D01*
X35750500Y-105854500D02*
X35750500Y-106743500D01*
X35750500Y-106743500D02*
X35306000Y-106299000D01*
X35560000Y-107188000D02*
X35306000Y-106934000D01*
X35052000Y-112649000D02*
X30988000Y-112649000D01*
X35052000Y-105791000D02*
X30988000Y-105791000D01*
X30480000Y-106680000D02*
X30734000Y-106680000D01*
X35560000Y-111760000D02*
X35306000Y-111760000D01*
X30480000Y-111760000D02*
X30734000Y-111760000D01*
X35560000Y-107188000D02*
X35560000Y-109220000D01*
X35560000Y-109220000D02*
X35560000Y-111760000D01*
X30480000Y-111760000D02*
X30480000Y-109220000D01*
X30480000Y-109220000D02*
X30480000Y-106680000D01*
X142049500Y-121602500D02*
X142049500Y-121475500D01*
X142176500Y-121666000D02*
X142176500Y-121412000D01*
X142303500Y-121793000D02*
X142303500Y-121285000D01*
X141986000Y-121539000D02*
X142430500Y-121094500D01*
X142430500Y-121094500D02*
X142430500Y-121983500D01*
X142430500Y-121983500D02*
X141986000Y-121539000D01*
X142240000Y-122428000D02*
X141986000Y-122174000D01*
X141732000Y-127889000D02*
X137668000Y-127889000D01*
X141732000Y-121031000D02*
X137668000Y-121031000D01*
X137160000Y-121920000D02*
X137414000Y-121920000D01*
X142240000Y-127000000D02*
X141986000Y-127000000D01*
X137160000Y-127000000D02*
X137414000Y-127000000D01*
X142240000Y-122428000D02*
X142240000Y-124460000D01*
X142240000Y-124460000D02*
X142240000Y-127000000D01*
X137160000Y-127000000D02*
X137160000Y-124460000D01*
X137160000Y-124460000D02*
X137160000Y-121920000D01*
X126809500Y-121602500D02*
X126809500Y-121475500D01*
X126936500Y-121666000D02*
X126936500Y-121412000D01*
X127063500Y-121793000D02*
X127063500Y-121285000D01*
X126746000Y-121539000D02*
X127190500Y-121094500D01*
X127190500Y-121094500D02*
X127190500Y-121983500D01*
X127190500Y-121983500D02*
X126746000Y-121539000D01*
X127000000Y-122428000D02*
X126746000Y-122174000D01*
X126492000Y-127889000D02*
X122428000Y-127889000D01*
X126492000Y-121031000D02*
X122428000Y-121031000D01*
X121920000Y-121920000D02*
X122174000Y-121920000D01*
X127000000Y-127000000D02*
X126746000Y-127000000D01*
X121920000Y-127000000D02*
X122174000Y-127000000D01*
X127000000Y-122428000D02*
X127000000Y-124460000D01*
X127000000Y-124460000D02*
X127000000Y-127000000D01*
X121920000Y-127000000D02*
X121920000Y-124460000D01*
X121920000Y-124460000D02*
X121920000Y-121920000D01*
X111569500Y-121602500D02*
X111569500Y-121475500D01*
X111696500Y-121666000D02*
X111696500Y-121412000D01*
X111823500Y-121793000D02*
X111823500Y-121285000D01*
X111506000Y-121539000D02*
X111950500Y-121094500D01*
X111950500Y-121094500D02*
X111950500Y-121983500D01*
X111950500Y-121983500D02*
X111506000Y-121539000D01*
X111760000Y-122428000D02*
X111506000Y-122174000D01*
X111252000Y-127889000D02*
X107188000Y-127889000D01*
X111252000Y-121031000D02*
X107188000Y-121031000D01*
X106680000Y-121920000D02*
X106934000Y-121920000D01*
X111760000Y-127000000D02*
X111506000Y-127000000D01*
X106680000Y-127000000D02*
X106934000Y-127000000D01*
X111760000Y-122428000D02*
X111760000Y-124460000D01*
X111760000Y-124460000D02*
X111760000Y-127000000D01*
X106680000Y-127000000D02*
X106680000Y-124460000D01*
X106680000Y-124460000D02*
X106680000Y-121920000D01*
X96329500Y-121602500D02*
X96329500Y-121475500D01*
X96456500Y-121666000D02*
X96456500Y-121412000D01*
X96583500Y-121793000D02*
X96583500Y-121285000D01*
X96266000Y-121539000D02*
X96710500Y-121094500D01*
X96710500Y-121094500D02*
X96710500Y-121983500D01*
X96710500Y-121983500D02*
X96266000Y-121539000D01*
X96520000Y-122428000D02*
X96266000Y-122174000D01*
X96012000Y-127889000D02*
X91948000Y-127889000D01*
X96012000Y-121031000D02*
X91948000Y-121031000D01*
X91440000Y-121920000D02*
X91694000Y-121920000D01*
X96520000Y-127000000D02*
X96266000Y-127000000D01*
X91440000Y-127000000D02*
X91694000Y-127000000D01*
X96520000Y-122428000D02*
X96520000Y-124460000D01*
X96520000Y-124460000D02*
X96520000Y-127000000D01*
X91440000Y-127000000D02*
X91440000Y-124460000D01*
X91440000Y-124460000D02*
X91440000Y-121920000D01*
X81089500Y-121602500D02*
X81089500Y-121475500D01*
X81216500Y-121666000D02*
X81216500Y-121412000D01*
X81343500Y-121793000D02*
X81343500Y-121285000D01*
X81026000Y-121539000D02*
X81470500Y-121094500D01*
X81470500Y-121094500D02*
X81470500Y-121983500D01*
X81470500Y-121983500D02*
X81026000Y-121539000D01*
X81280000Y-122428000D02*
X81026000Y-122174000D01*
X80772000Y-127889000D02*
X76708000Y-127889000D01*
X80772000Y-121031000D02*
X76708000Y-121031000D01*
X76200000Y-121920000D02*
X76454000Y-121920000D01*
X81280000Y-127000000D02*
X81026000Y-127000000D01*
X76200000Y-127000000D02*
X76454000Y-127000000D01*
X81280000Y-122428000D02*
X81280000Y-124460000D01*
X81280000Y-124460000D02*
X81280000Y-127000000D01*
X76200000Y-127000000D02*
X76200000Y-124460000D01*
X76200000Y-124460000D02*
X76200000Y-121920000D01*
X65849500Y-121602500D02*
X65849500Y-121475500D01*
X65976500Y-121666000D02*
X65976500Y-121412000D01*
X66103500Y-121793000D02*
X66103500Y-121285000D01*
X65786000Y-121539000D02*
X66230500Y-121094500D01*
X66230500Y-121094500D02*
X66230500Y-121983500D01*
X66230500Y-121983500D02*
X65786000Y-121539000D01*
X66040000Y-122428000D02*
X65786000Y-122174000D01*
X65532000Y-127889000D02*
X61468000Y-127889000D01*
X65532000Y-121031000D02*
X61468000Y-121031000D01*
X60960000Y-121920000D02*
X61214000Y-121920000D01*
X66040000Y-127000000D02*
X65786000Y-127000000D01*
X60960000Y-127000000D02*
X61214000Y-127000000D01*
X66040000Y-122428000D02*
X66040000Y-124460000D01*
X66040000Y-124460000D02*
X66040000Y-127000000D01*
X60960000Y-127000000D02*
X60960000Y-124460000D01*
X60960000Y-124460000D02*
X60960000Y-121920000D01*
X50609500Y-121602500D02*
X50609500Y-121475500D01*
X50736500Y-121666000D02*
X50736500Y-121412000D01*
X50863500Y-121793000D02*
X50863500Y-121285000D01*
X50546000Y-121539000D02*
X50990500Y-121094500D01*
X50990500Y-121094500D02*
X50990500Y-121983500D01*
X50990500Y-121983500D02*
X50546000Y-121539000D01*
X50800000Y-122428000D02*
X50546000Y-122174000D01*
X50292000Y-127889000D02*
X46228000Y-127889000D01*
X50292000Y-121031000D02*
X46228000Y-121031000D01*
X45720000Y-121920000D02*
X45974000Y-121920000D01*
X50800000Y-127000000D02*
X50546000Y-127000000D01*
X45720000Y-127000000D02*
X45974000Y-127000000D01*
X50800000Y-122428000D02*
X50800000Y-124460000D01*
X50800000Y-124460000D02*
X50800000Y-127000000D01*
X45720000Y-127000000D02*
X45720000Y-124460000D01*
X45720000Y-124460000D02*
X45720000Y-121920000D01*
X35369500Y-121602500D02*
X35369500Y-121475500D01*
X35496500Y-121666000D02*
X35496500Y-121412000D01*
X35623500Y-121793000D02*
X35623500Y-121285000D01*
X35306000Y-121539000D02*
X35750500Y-121094500D01*
X35750500Y-121094500D02*
X35750500Y-121983500D01*
X35750500Y-121983500D02*
X35306000Y-121539000D01*
X35560000Y-122428000D02*
X35306000Y-122174000D01*
X35052000Y-127889000D02*
X30988000Y-127889000D01*
X35052000Y-121031000D02*
X30988000Y-121031000D01*
X30480000Y-121920000D02*
X30734000Y-121920000D01*
X35560000Y-127000000D02*
X35306000Y-127000000D01*
X30480000Y-127000000D02*
X30734000Y-127000000D01*
X35560000Y-122428000D02*
X35560000Y-124460000D01*
X35560000Y-124460000D02*
X35560000Y-127000000D01*
X30480000Y-127000000D02*
X30480000Y-124460000D01*
X30480000Y-124460000D02*
X30480000Y-121920000D01*
X142049500Y-136842500D02*
X142049500Y-136715500D01*
X142176500Y-136906000D02*
X142176500Y-136652000D01*
X142303500Y-137033000D02*
X142303500Y-136525000D01*
X141986000Y-136779000D02*
X142430500Y-136334500D01*
X142430500Y-136334500D02*
X142430500Y-137223500D01*
X142430500Y-137223500D02*
X141986000Y-136779000D01*
X142240000Y-137668000D02*
X141986000Y-137414000D01*
X141732000Y-143129000D02*
X137668000Y-143129000D01*
X141732000Y-136271000D02*
X137668000Y-136271000D01*
X137160000Y-137160000D02*
X137414000Y-137160000D01*
X142240000Y-142240000D02*
X141986000Y-142240000D01*
X137160000Y-142240000D02*
X137414000Y-142240000D01*
X142240000Y-137668000D02*
X142240000Y-139700000D01*
X142240000Y-139700000D02*
X142240000Y-142240000D01*
X137160000Y-142240000D02*
X137160000Y-139700000D01*
X137160000Y-139700000D02*
X137160000Y-137160000D01*
X126809500Y-136842500D02*
X126809500Y-136715500D01*
X126936500Y-136906000D02*
X126936500Y-136652000D01*
X127063500Y-137033000D02*
X127063500Y-136525000D01*
X126746000Y-136779000D02*
X127190500Y-136334500D01*
X127190500Y-136334500D02*
X127190500Y-137223500D01*
X127190500Y-137223500D02*
X126746000Y-136779000D01*
X127000000Y-137668000D02*
X126746000Y-137414000D01*
X126492000Y-143129000D02*
X122428000Y-143129000D01*
X126492000Y-136271000D02*
X122428000Y-136271000D01*
X121920000Y-137160000D02*
X122174000Y-137160000D01*
X127000000Y-142240000D02*
X126746000Y-142240000D01*
X121920000Y-142240000D02*
X122174000Y-142240000D01*
X127000000Y-137668000D02*
X127000000Y-139700000D01*
X127000000Y-139700000D02*
X127000000Y-142240000D01*
X121920000Y-142240000D02*
X121920000Y-139700000D01*
X121920000Y-139700000D02*
X121920000Y-137160000D01*
X111569500Y-136842500D02*
X111569500Y-136715500D01*
X111696500Y-136906000D02*
X111696500Y-136652000D01*
X111823500Y-137033000D02*
X111823500Y-136525000D01*
X111506000Y-136779000D02*
X111950500Y-136334500D01*
X111950500Y-136334500D02*
X111950500Y-137223500D01*
X111950500Y-137223500D02*
X111506000Y-136779000D01*
X111760000Y-137668000D02*
X111506000Y-137414000D01*
X111252000Y-143129000D02*
X107188000Y-143129000D01*
X111252000Y-136271000D02*
X107188000Y-136271000D01*
X106680000Y-137160000D02*
X106934000Y-137160000D01*
X111760000Y-142240000D02*
X111506000Y-142240000D01*
X106680000Y-142240000D02*
X106934000Y-142240000D01*
X111760000Y-137668000D02*
X111760000Y-139700000D01*
X111760000Y-139700000D02*
X111760000Y-142240000D01*
X106680000Y-142240000D02*
X106680000Y-139700000D01*
X106680000Y-139700000D02*
X106680000Y-137160000D01*
X96329500Y-136842500D02*
X96329500Y-136715500D01*
X96456500Y-136906000D02*
X96456500Y-136652000D01*
X96583500Y-137033000D02*
X96583500Y-136525000D01*
X96266000Y-136779000D02*
X96710500Y-136334500D01*
X96710500Y-136334500D02*
X96710500Y-137223500D01*
X96710500Y-137223500D02*
X96266000Y-136779000D01*
X96520000Y-137668000D02*
X96266000Y-137414000D01*
X96012000Y-143129000D02*
X91948000Y-143129000D01*
X96012000Y-136271000D02*
X91948000Y-136271000D01*
X91440000Y-137160000D02*
X91694000Y-137160000D01*
X96520000Y-142240000D02*
X96266000Y-142240000D01*
X91440000Y-142240000D02*
X91694000Y-142240000D01*
X96520000Y-137668000D02*
X96520000Y-139700000D01*
X96520000Y-139700000D02*
X96520000Y-142240000D01*
X91440000Y-142240000D02*
X91440000Y-139700000D01*
X91440000Y-139700000D02*
X91440000Y-137160000D01*
X81089500Y-136842500D02*
X81089500Y-136715500D01*
X81216500Y-136906000D02*
X81216500Y-136652000D01*
X81343500Y-137033000D02*
X81343500Y-136525000D01*
X81026000Y-136779000D02*
X81470500Y-136334500D01*
X81470500Y-136334500D02*
X81470500Y-137223500D01*
X81470500Y-137223500D02*
X81026000Y-136779000D01*
X81280000Y-137668000D02*
X81026000Y-137414000D01*
X80772000Y-143129000D02*
X76708000Y-143129000D01*
X80772000Y-136271000D02*
X76708000Y-136271000D01*
X76200000Y-137160000D02*
X76454000Y-137160000D01*
X81280000Y-142240000D02*
X81026000Y-142240000D01*
X76200000Y-142240000D02*
X76454000Y-142240000D01*
X81280000Y-137668000D02*
X81280000Y-139700000D01*
X81280000Y-139700000D02*
X81280000Y-142240000D01*
X76200000Y-142240000D02*
X76200000Y-139700000D01*
X76200000Y-139700000D02*
X76200000Y-137160000D01*
X65849500Y-136842500D02*
X65849500Y-136715500D01*
X65976500Y-136906000D02*
X65976500Y-136652000D01*
X66103500Y-137033000D02*
X66103500Y-136525000D01*
X65786000Y-136779000D02*
X66230500Y-136334500D01*
X66230500Y-136334500D02*
X66230500Y-137223500D01*
X66230500Y-137223500D02*
X65786000Y-136779000D01*
X66040000Y-137668000D02*
X65786000Y-137414000D01*
X65532000Y-143129000D02*
X61468000Y-143129000D01*
X65532000Y-136271000D02*
X61468000Y-136271000D01*
X60960000Y-137160000D02*
X61214000Y-137160000D01*
X66040000Y-142240000D02*
X65786000Y-142240000D01*
X60960000Y-142240000D02*
X61214000Y-142240000D01*
X66040000Y-137668000D02*
X66040000Y-139700000D01*
X66040000Y-139700000D02*
X66040000Y-142240000D01*
X60960000Y-142240000D02*
X60960000Y-139700000D01*
X60960000Y-139700000D02*
X60960000Y-137160000D01*
X50609500Y-136842500D02*
X50609500Y-136715500D01*
X50736500Y-136906000D02*
X50736500Y-136652000D01*
X50863500Y-137033000D02*
X50863500Y-136525000D01*
X50546000Y-136779000D02*
X50990500Y-136334500D01*
X50990500Y-136334500D02*
X50990500Y-137223500D01*
X50990500Y-137223500D02*
X50546000Y-136779000D01*
X50800000Y-137668000D02*
X50546000Y-137414000D01*
X50292000Y-143129000D02*
X46228000Y-143129000D01*
X50292000Y-136271000D02*
X46228000Y-136271000D01*
X45720000Y-137160000D02*
X45974000Y-137160000D01*
X50800000Y-142240000D02*
X50546000Y-142240000D01*
X45720000Y-142240000D02*
X45974000Y-142240000D01*
X50800000Y-137668000D02*
X50800000Y-139700000D01*
X50800000Y-139700000D02*
X50800000Y-142240000D01*
X45720000Y-142240000D02*
X45720000Y-139700000D01*
X45720000Y-139700000D02*
X45720000Y-137160000D01*
X142049500Y-30162500D02*
X142049500Y-30035500D01*
X142176500Y-30226000D02*
X142176500Y-29972000D01*
X142303500Y-30353000D02*
X142303500Y-29845000D01*
X141986000Y-30099000D02*
X142430500Y-29654500D01*
X142430500Y-29654500D02*
X142430500Y-30543500D01*
X142430500Y-30543500D02*
X141986000Y-30099000D01*
X142240000Y-30988000D02*
X141986000Y-30734000D01*
X141732000Y-36449000D02*
X137668000Y-36449000D01*
X141732000Y-29591000D02*
X137668000Y-29591000D01*
X137160000Y-30480000D02*
X137414000Y-30480000D01*
X142240000Y-35560000D02*
X141986000Y-35560000D01*
X137160000Y-35560000D02*
X137414000Y-35560000D01*
X142240000Y-30988000D02*
X142240000Y-33020000D01*
X142240000Y-33020000D02*
X142240000Y-35560000D01*
X137160000Y-35560000D02*
X137160000Y-33020000D01*
X137160000Y-33020000D02*
X137160000Y-30480000D01*
X35369500Y-136842500D02*
X35369500Y-136715500D01*
X35496500Y-136906000D02*
X35496500Y-136652000D01*
X35623500Y-137033000D02*
X35623500Y-136525000D01*
X35306000Y-136779000D02*
X35750500Y-136334500D01*
X35750500Y-136334500D02*
X35750500Y-137223500D01*
X35750500Y-137223500D02*
X35306000Y-136779000D01*
X35560000Y-137668000D02*
X35306000Y-137414000D01*
X35052000Y-143129000D02*
X30988000Y-143129000D01*
X35052000Y-136271000D02*
X30988000Y-136271000D01*
X30480000Y-137160000D02*
X30734000Y-137160000D01*
X35560000Y-142240000D02*
X35306000Y-142240000D01*
X30480000Y-142240000D02*
X30734000Y-142240000D01*
X35560000Y-137668000D02*
X35560000Y-139700000D01*
X35560000Y-139700000D02*
X35560000Y-142240000D01*
X30480000Y-142240000D02*
X30480000Y-139700000D01*
X30480000Y-139700000D02*
X30480000Y-137160000D01*
X90133714Y-89335429D02*
X90133714Y-89219315D01*
X90170000Y-89161257D01*
X90242571Y-89103200D01*
X90387714Y-89074172D01*
X90641714Y-89074172D01*
X90786857Y-89103200D01*
X90859429Y-89161257D01*
X90895714Y-89219315D01*
X90895714Y-89335429D01*
X90859429Y-89393486D01*
X90786857Y-89451543D01*
X90641714Y-89480572D01*
X90387714Y-89480572D01*
X90242571Y-89451543D01*
X90170000Y-89393486D01*
X90133714Y-89335429D01*
X90387714Y-88812914D02*
X91149714Y-88812914D01*
X90424000Y-88812914D02*
X90387714Y-88754857D01*
X90387714Y-88638743D01*
X90424000Y-88580686D01*
X90460286Y-88551657D01*
X90532857Y-88522628D01*
X90750571Y-88522628D01*
X90823143Y-88551657D01*
X90859429Y-88580686D01*
X90895714Y-88638743D01*
X90895714Y-88754857D01*
X90859429Y-88812914D01*
X90859429Y-88029143D02*
X90895714Y-88087200D01*
X90895714Y-88203314D01*
X90859429Y-88261371D01*
X90786857Y-88290400D01*
X90496571Y-88290400D01*
X90424000Y-88261371D01*
X90387714Y-88203314D01*
X90387714Y-88087200D01*
X90424000Y-88029143D01*
X90496571Y-88000114D01*
X90569143Y-88000114D01*
X90641714Y-88290400D01*
X90387714Y-87738857D02*
X90895714Y-87738857D01*
X90460286Y-87738857D02*
X90424000Y-87709829D01*
X90387714Y-87651771D01*
X90387714Y-87564686D01*
X90424000Y-87506629D01*
X90496571Y-87477600D01*
X90895714Y-87477600D01*
X90895714Y-87187314D02*
X90133714Y-87187314D01*
X90496571Y-87187314D02*
X90496571Y-86838971D01*
X90895714Y-86838971D02*
X90133714Y-86838971D01*
X90895714Y-86287428D02*
X90496571Y-86287428D01*
X90424000Y-86316457D01*
X90387714Y-86374514D01*
X90387714Y-86490628D01*
X90424000Y-86548685D01*
X90859429Y-86287428D02*
X90895714Y-86345485D01*
X90895714Y-86490628D01*
X90859429Y-86548685D01*
X90786857Y-86577714D01*
X90714286Y-86577714D01*
X90641714Y-86548685D01*
X90605429Y-86490628D01*
X90605429Y-86345485D01*
X90569143Y-86287428D01*
X90895714Y-85997142D02*
X90387714Y-85997142D01*
X90532857Y-85997142D02*
X90460286Y-85968114D01*
X90424000Y-85939085D01*
X90387714Y-85881028D01*
X90387714Y-85822971D01*
X90895714Y-85358514D02*
X90133714Y-85358514D01*
X90859429Y-85358514D02*
X90895714Y-85416571D01*
X90895714Y-85532685D01*
X90859429Y-85590743D01*
X90823143Y-85619771D01*
X90750571Y-85648800D01*
X90532857Y-85648800D01*
X90460286Y-85619771D01*
X90424000Y-85590743D01*
X90387714Y-85532685D01*
X90387714Y-85416571D01*
X90424000Y-85358514D01*
X90387714Y-85126285D02*
X90895714Y-85010171D01*
X90532857Y-84894057D01*
X90895714Y-84777942D01*
X90387714Y-84661828D01*
X90895714Y-84168342D02*
X90496571Y-84168342D01*
X90424000Y-84197371D01*
X90387714Y-84255428D01*
X90387714Y-84371542D01*
X90424000Y-84429599D01*
X90859429Y-84168342D02*
X90895714Y-84226399D01*
X90895714Y-84371542D01*
X90859429Y-84429599D01*
X90786857Y-84458628D01*
X90714286Y-84458628D01*
X90641714Y-84429599D01*
X90605429Y-84371542D01*
X90605429Y-84226399D01*
X90569143Y-84168342D01*
X90895714Y-83878056D02*
X90387714Y-83878056D01*
X90532857Y-83878056D02*
X90460286Y-83849028D01*
X90424000Y-83819999D01*
X90387714Y-83761942D01*
X90387714Y-83703885D01*
X90859429Y-83268457D02*
X90895714Y-83326514D01*
X90895714Y-83442628D01*
X90859429Y-83500685D01*
X90786857Y-83529714D01*
X90496571Y-83529714D01*
X90424000Y-83500685D01*
X90387714Y-83442628D01*
X90387714Y-83326514D01*
X90424000Y-83268457D01*
X90496571Y-83239428D01*
X90569143Y-83239428D01*
X90641714Y-83529714D01*
X139213167Y-29464000D02*
X139932833Y-29464000D01*
X140017500Y-29421667D01*
X140059833Y-29379334D01*
X140102167Y-29294667D01*
X140102167Y-29125334D01*
X140059833Y-29040667D01*
X140017500Y-28998334D01*
X139932833Y-28956000D01*
X139213167Y-28956000D01*
X139594167Y-28405667D02*
X139551833Y-28490334D01*
X139509500Y-28532667D01*
X139424833Y-28575001D01*
X139382500Y-28575001D01*
X139297833Y-28532667D01*
X139255500Y-28490334D01*
X139213167Y-28405667D01*
X139213167Y-28236334D01*
X139255500Y-28151667D01*
X139297833Y-28109334D01*
X139382500Y-28067001D01*
X139424833Y-28067001D01*
X139509500Y-28109334D01*
X139551833Y-28151667D01*
X139594167Y-28236334D01*
X139594167Y-28405667D01*
X139636500Y-28490334D01*
X139678833Y-28532667D01*
X139763500Y-28575001D01*
X139932833Y-28575001D01*
X140017500Y-28532667D01*
X140059833Y-28490334D01*
X140102167Y-28405667D01*
X140102167Y-28236334D01*
X140059833Y-28151667D01*
X140017500Y-28109334D01*
X139932833Y-28067001D01*
X139763500Y-28067001D01*
X139678833Y-28109334D01*
X139636500Y-28151667D01*
X139594167Y-28236334D01*
X139213167Y-27516667D02*
X139213167Y-27432000D01*
X139255500Y-27347334D01*
X139297833Y-27305000D01*
X139382500Y-27262667D01*
X139551833Y-27220334D01*
X139763500Y-27220334D01*
X139932833Y-27262667D01*
X140017500Y-27305000D01*
X140059833Y-27347334D01*
X140102167Y-27432000D01*
X140102167Y-27516667D01*
X140059833Y-27601334D01*
X140017500Y-27643667D01*
X139932833Y-27686000D01*
X139763500Y-27728334D01*
X139551833Y-27728334D01*
X139382500Y-27686000D01*
X139297833Y-27643667D01*
X139255500Y-27601334D01*
X139213167Y-27516667D01*
X139594167Y-26712333D02*
X139551833Y-26797000D01*
X139509500Y-26839333D01*
X139424833Y-26881667D01*
X139382500Y-26881667D01*
X139297833Y-26839333D01*
X139255500Y-26797000D01*
X139213167Y-26712333D01*
X139213167Y-26543000D01*
X139255500Y-26458333D01*
X139297833Y-26416000D01*
X139382500Y-26373667D01*
X139424833Y-26373667D01*
X139509500Y-26416000D01*
X139551833Y-26458333D01*
X139594167Y-26543000D01*
X139594167Y-26712333D01*
X139636500Y-26797000D01*
X139678833Y-26839333D01*
X139763500Y-26881667D01*
X139932833Y-26881667D01*
X140017500Y-26839333D01*
X140059833Y-26797000D01*
X140102167Y-26712333D01*
X140102167Y-26543000D01*
X140059833Y-26458333D01*
X140017500Y-26416000D01*
X139932833Y-26373667D01*
X139763500Y-26373667D01*
X139678833Y-26416000D01*
X139636500Y-26458333D01*
X139594167Y-26543000D01*
D10*
X143448314Y-29881286D02*
X143448314Y-30316714D01*
X143448314Y-30099000D02*
X142686314Y-30099000D01*
X142795171Y-30171571D01*
X142867743Y-30244143D01*
X142904029Y-30316714D01*
D16*
X34438167Y-135890000D02*
X35157833Y-135890000D01*
X35242500Y-135847667D01*
X35284833Y-135805334D01*
X35327167Y-135720667D01*
X35327167Y-135551334D01*
X35284833Y-135466667D01*
X35242500Y-135424334D01*
X35157833Y-135382000D01*
X34438167Y-135382000D01*
X35327167Y-134493001D02*
X35327167Y-135001001D01*
X35327167Y-134747001D02*
X34438167Y-134747001D01*
X34565167Y-134831667D01*
X34649833Y-134916334D01*
X34692167Y-135001001D01*
X34438167Y-133942667D02*
X34438167Y-133858000D01*
X34480500Y-133773334D01*
X34522833Y-133731000D01*
X34607500Y-133688667D01*
X34776833Y-133646334D01*
X34988500Y-133646334D01*
X35157833Y-133688667D01*
X35242500Y-133731000D01*
X35284833Y-133773334D01*
X35327167Y-133858000D01*
X35327167Y-133942667D01*
X35284833Y-134027334D01*
X35242500Y-134069667D01*
X35157833Y-134112000D01*
X34988500Y-134154334D01*
X34776833Y-134154334D01*
X34607500Y-134112000D01*
X34522833Y-134069667D01*
X34480500Y-134027334D01*
X34438167Y-133942667D01*
X35327167Y-132799667D02*
X35327167Y-133307667D01*
X35327167Y-133053667D02*
X34438167Y-133053667D01*
X34565167Y-133138333D01*
X34649833Y-133223000D01*
X34692167Y-133307667D01*
D10*
X36768314Y-136561286D02*
X36768314Y-136996714D01*
X36768314Y-136779000D02*
X36006314Y-136779000D01*
X36115171Y-136851571D01*
X36187743Y-136924143D01*
X36224029Y-136996714D01*
%LPC*%
D17*
X132080000Y-132080000D03*
X40640000Y-132080000D03*
X116840000Y-78740000D03*
X55880000Y-78740000D03*
X116840000Y-93980000D03*
X55880000Y-93980000D03*
X132080000Y-40640000D03*
X40640000Y-40640000D03*
D18*
X126047500Y-30543500D03*
X122872500Y-30543500D03*
X122872500Y-35496500D03*
X126047500Y-35496500D03*
X110807500Y-30543500D03*
X107632500Y-30543500D03*
X107632500Y-35496500D03*
X110807500Y-35496500D03*
X95567500Y-30543500D03*
X92392500Y-30543500D03*
X92392500Y-35496500D03*
X95567500Y-35496500D03*
X80327500Y-30543500D03*
X77152500Y-30543500D03*
X77152500Y-35496500D03*
X80327500Y-35496500D03*
X65087500Y-30543500D03*
X61912500Y-30543500D03*
X61912500Y-35496500D03*
X65087500Y-35496500D03*
X49847500Y-30543500D03*
X46672500Y-30543500D03*
X46672500Y-35496500D03*
X49847500Y-35496500D03*
X34607500Y-30543500D03*
X31432500Y-30543500D03*
X31432500Y-35496500D03*
X34607500Y-35496500D03*
X141287500Y-45783500D03*
X138112500Y-45783500D03*
X138112500Y-50736500D03*
X141287500Y-50736500D03*
X126047500Y-45783500D03*
X122872500Y-45783500D03*
X122872500Y-50736500D03*
X126047500Y-50736500D03*
X110807500Y-45783500D03*
X107632500Y-45783500D03*
X107632500Y-50736500D03*
X110807500Y-50736500D03*
X95567500Y-45783500D03*
X92392500Y-45783500D03*
X92392500Y-50736500D03*
X95567500Y-50736500D03*
X80327500Y-45783500D03*
X77152500Y-45783500D03*
X77152500Y-50736500D03*
X80327500Y-50736500D03*
X65087500Y-45783500D03*
X61912500Y-45783500D03*
X61912500Y-50736500D03*
X65087500Y-50736500D03*
X49847500Y-45783500D03*
X46672500Y-45783500D03*
X46672500Y-50736500D03*
X49847500Y-50736500D03*
X34607500Y-45783500D03*
X31432500Y-45783500D03*
X31432500Y-50736500D03*
X34607500Y-50736500D03*
X141287500Y-61023500D03*
X138112500Y-61023500D03*
X138112500Y-65976500D03*
X141287500Y-65976500D03*
X126047500Y-61023500D03*
X122872500Y-61023500D03*
X122872500Y-65976500D03*
X126047500Y-65976500D03*
X110807500Y-61023500D03*
X107632500Y-61023500D03*
X107632500Y-65976500D03*
X110807500Y-65976500D03*
X95567500Y-61023500D03*
X92392500Y-61023500D03*
X92392500Y-65976500D03*
X95567500Y-65976500D03*
X80327500Y-61023500D03*
X77152500Y-61023500D03*
X77152500Y-65976500D03*
X80327500Y-65976500D03*
X65087500Y-61023500D03*
X61912500Y-61023500D03*
X61912500Y-65976500D03*
X65087500Y-65976500D03*
X49847500Y-61023500D03*
X46672500Y-61023500D03*
X46672500Y-65976500D03*
X49847500Y-65976500D03*
X34607500Y-61023500D03*
X31432500Y-61023500D03*
X31432500Y-65976500D03*
X34607500Y-65976500D03*
X141287500Y-76263500D03*
X138112500Y-76263500D03*
X138112500Y-81216500D03*
X141287500Y-81216500D03*
X126047500Y-76263500D03*
X122872500Y-76263500D03*
X122872500Y-81216500D03*
X126047500Y-81216500D03*
X110807500Y-76263500D03*
X107632500Y-76263500D03*
X107632500Y-81216500D03*
X110807500Y-81216500D03*
X95567500Y-76263500D03*
X92392500Y-76263500D03*
X92392500Y-81216500D03*
X95567500Y-81216500D03*
X80327500Y-76263500D03*
X77152500Y-76263500D03*
X77152500Y-81216500D03*
X80327500Y-81216500D03*
X65087500Y-76263500D03*
X61912500Y-76263500D03*
X61912500Y-81216500D03*
X65087500Y-81216500D03*
X49847500Y-76263500D03*
X46672500Y-76263500D03*
X46672500Y-81216500D03*
X49847500Y-81216500D03*
X34607500Y-76263500D03*
X31432500Y-76263500D03*
X31432500Y-81216500D03*
X34607500Y-81216500D03*
X141287500Y-91503500D03*
X138112500Y-91503500D03*
X138112500Y-96456500D03*
X141287500Y-96456500D03*
X126047500Y-91503500D03*
X122872500Y-91503500D03*
X122872500Y-96456500D03*
X126047500Y-96456500D03*
X110807500Y-91503500D03*
X107632500Y-91503500D03*
X107632500Y-96456500D03*
X110807500Y-96456500D03*
X95567500Y-91503500D03*
X92392500Y-91503500D03*
X92392500Y-96456500D03*
X95567500Y-96456500D03*
X80327500Y-91503500D03*
X77152500Y-91503500D03*
X77152500Y-96456500D03*
X80327500Y-96456500D03*
X65087500Y-91503500D03*
X61912500Y-91503500D03*
X61912500Y-96456500D03*
X65087500Y-96456500D03*
X49847500Y-91503500D03*
X46672500Y-91503500D03*
X46672500Y-96456500D03*
X49847500Y-96456500D03*
X34607500Y-91503500D03*
X31432500Y-91503500D03*
X31432500Y-96456500D03*
X34607500Y-96456500D03*
X141287500Y-106743500D03*
X138112500Y-106743500D03*
X138112500Y-111696500D03*
X141287500Y-111696500D03*
X126047500Y-106743500D03*
X122872500Y-106743500D03*
X122872500Y-111696500D03*
X126047500Y-111696500D03*
X110807500Y-106743500D03*
X107632500Y-106743500D03*
X107632500Y-111696500D03*
X110807500Y-111696500D03*
X95567500Y-106743500D03*
X92392500Y-106743500D03*
X92392500Y-111696500D03*
X95567500Y-111696500D03*
X80327500Y-106743500D03*
X77152500Y-106743500D03*
X77152500Y-111696500D03*
X80327500Y-111696500D03*
X65087500Y-106743500D03*
X61912500Y-106743500D03*
X61912500Y-111696500D03*
X65087500Y-111696500D03*
X49847500Y-106743500D03*
X46672500Y-106743500D03*
X46672500Y-111696500D03*
X49847500Y-111696500D03*
X34607500Y-106743500D03*
X31432500Y-106743500D03*
X31432500Y-111696500D03*
X34607500Y-111696500D03*
X141287500Y-121983500D03*
X138112500Y-121983500D03*
X138112500Y-126936500D03*
X141287500Y-126936500D03*
X126047500Y-121983500D03*
X122872500Y-121983500D03*
X122872500Y-126936500D03*
X126047500Y-126936500D03*
X110807500Y-121983500D03*
X107632500Y-121983500D03*
X107632500Y-126936500D03*
X110807500Y-126936500D03*
X95567500Y-121983500D03*
X92392500Y-121983500D03*
X92392500Y-126936500D03*
X95567500Y-126936500D03*
X80327500Y-121983500D03*
X77152500Y-121983500D03*
X77152500Y-126936500D03*
X80327500Y-126936500D03*
X65087500Y-121983500D03*
X61912500Y-121983500D03*
X61912500Y-126936500D03*
X65087500Y-126936500D03*
X49847500Y-121983500D03*
X46672500Y-121983500D03*
X46672500Y-126936500D03*
X49847500Y-126936500D03*
X34607500Y-121983500D03*
X31432500Y-121983500D03*
X31432500Y-126936500D03*
X34607500Y-126936500D03*
X141287500Y-137223500D03*
X138112500Y-137223500D03*
X138112500Y-142176500D03*
X141287500Y-142176500D03*
X126047500Y-137223500D03*
X122872500Y-137223500D03*
X122872500Y-142176500D03*
X126047500Y-142176500D03*
X110807500Y-137223500D03*
X107632500Y-137223500D03*
X107632500Y-142176500D03*
X110807500Y-142176500D03*
X95567500Y-137223500D03*
X92392500Y-137223500D03*
X92392500Y-142176500D03*
X95567500Y-142176500D03*
X80327500Y-137223500D03*
X77152500Y-137223500D03*
X77152500Y-142176500D03*
X80327500Y-142176500D03*
X65087500Y-137223500D03*
X61912500Y-137223500D03*
X61912500Y-142176500D03*
X65087500Y-142176500D03*
X49847500Y-137223500D03*
X46672500Y-137223500D03*
X46672500Y-142176500D03*
X49847500Y-142176500D03*
X141287500Y-30543500D03*
X138112500Y-30543500D03*
X138112500Y-35496500D03*
X141287500Y-35496500D03*
X34607500Y-137223500D03*
X31432500Y-137223500D03*
X31432500Y-142176500D03*
X34607500Y-142176500D03*
D19*
X116840000Y-139700000D03*
X55880000Y-139700000D03*
X55880000Y-33020000D03*
X116840000Y-33020000D03*
D17*
X116840000Y-139700000D03*
X55880000Y-139700000D03*
D20*
X36512500Y-116903500D03*
X31432500Y-119443500D03*
X123507500Y-132016500D03*
X31432500Y-104203500D03*
X132397500Y-123126500D03*
X31432500Y-88963500D03*
X141287500Y-114236500D03*
X31432500Y-73723500D03*
X141287500Y-98996500D03*
X31432500Y-58483500D03*
X141300200Y-83769200D03*
X36512500Y-55943500D03*
X141287500Y-68516500D03*
X41592500Y-55943500D03*
X141287500Y-53276500D03*
X111760000Y-139700000D03*
X141287500Y-38036500D03*
D21*
X129476500Y-114236500D03*
X101600000Y-144729200D03*
X101600000Y-129489200D03*
X101600000Y-114249200D03*
X101600000Y-99009200D03*
X101600000Y-83769200D03*
X101600000Y-68529200D03*
X101600000Y-53289200D03*
X101600000Y-38049200D03*
X75171300Y-81813400D03*
X109931200Y-53289200D03*
X75184000Y-38049200D03*
X75184000Y-53289200D03*
X75184000Y-68478400D03*
X75184000Y-98958400D03*
X75184000Y-114198400D03*
X75184000Y-129489200D03*
X75184000Y-144729200D03*
X52565300Y-72072500D03*
X101600000Y-134670800D03*
X101600000Y-119430800D03*
X101600000Y-104190800D03*
X101600000Y-88950800D03*
X101650800Y-73660000D03*
X101600000Y-58470800D03*
X101600000Y-43230800D03*
X101600000Y-27990800D03*
X67043300Y-73723500D03*
X67056000Y-27990800D03*
X67056000Y-43230800D03*
X67056000Y-58470800D03*
X67056000Y-88950800D03*
X67056000Y-104190800D03*
X67056000Y-119430800D03*
X67056000Y-134670800D03*
X129362200Y-119443500D03*
X55943500Y-73723500D03*
X113030000Y-43230800D03*
M02*
