G04 #@! TF.FileFunction,Soldermask,Bot*
%FSLAX46Y46*%
G04 Gerber Fmt 4.6, Leading zero omitted, Abs format (unit mm)*
G04 Created by KiCad (PCBNEW 0.201504141001+5596~22~ubuntu14.10.1-product) date Friday 17 April 2015 10:18:20 PM IST*
%MOMM*%
G01*
G04 APERTURE LIST*
%ADD10C,0.152400*%
%ADD11C,0.254000*%
%ADD12R,5.508000X1.408000*%
%ADD13R,2.708000X1.524000*%
%ADD14R,3.508000X1.008000*%
%ADD15R,3.556000X3.556000*%
%ADD16R,3.908000X1.908000*%
%ADD17R,6.108000X2.808000*%
%ADD18R,1.930400X1.574800*%
%ADD19C,3.556000*%
%ADD20C,6.604000*%
%ADD21C,2.540000*%
%ADD22C,1.397000*%
G04 APERTURE END LIST*
D10*
D11*
X147320000Y-33020000D02*
X139700000Y-25400000D01*
X147320000Y-139700000D02*
X139700000Y-147320000D01*
X25400000Y-139700000D02*
X33020000Y-147320000D01*
X33020000Y-25400000D02*
X25400000Y-33020000D01*
X147320000Y-117856000D02*
G75*
G03X145796000Y-116332000I-1524000J0D01*
G01*
X144272000Y-114808000D02*
G75*
G03X145796000Y-116332000I1524000J0D01*
G01*
X145796000Y-85852000D02*
G75*
G03X144272000Y-87376000I0J-1524000D01*
G01*
X145796000Y-85852000D02*
G75*
G03X147320000Y-84328000I0J1524000D01*
G01*
X25400000Y-54864000D02*
G75*
G03X26924000Y-56388000I1524000J0D01*
G01*
X28448000Y-57912000D02*
G75*
G03X26924000Y-56388000I-1524000J0D01*
G01*
X26924000Y-86868000D02*
G75*
G03X25400000Y-88392000I0J-1524000D01*
G01*
X26924000Y-86868000D02*
G75*
G03X28448000Y-85344000I0J1524000D01*
G01*
X147320000Y-84328000D02*
X147320000Y-33020000D01*
X147320000Y-117856000D02*
X147320000Y-139700000D01*
X25400000Y-88392000D02*
X25400000Y-139700000D01*
X25400000Y-54864000D02*
X25400000Y-33020000D01*
X144272000Y-101092000D02*
X144272000Y-114808000D01*
X144272000Y-101092000D02*
X144272000Y-87376000D01*
X28448000Y-71628000D02*
X28448000Y-85344000D01*
X28448000Y-71628000D02*
X28448000Y-57912000D01*
X139700000Y-147320000D02*
X33020000Y-147320000D01*
X33020000Y-25400000D02*
X139700000Y-25400000D01*
D12*
X124770000Y-92202000D03*
X131770000Y-92202000D03*
X131770000Y-94742000D03*
X124770000Y-94742000D03*
X131770000Y-97282000D03*
X124770000Y-97282000D03*
X131770000Y-99822000D03*
X124770000Y-99822000D03*
X131770000Y-102362000D03*
X124770000Y-102362000D03*
X131770000Y-104902000D03*
X124770000Y-104902000D03*
X131770000Y-107442000D03*
X124770000Y-107442000D03*
X131770000Y-109982000D03*
X124770000Y-109982000D03*
X40950000Y-62738000D03*
X47950000Y-62738000D03*
X47950000Y-65278000D03*
X40950000Y-65278000D03*
X47950000Y-67818000D03*
X40950000Y-67818000D03*
X47950000Y-70358000D03*
X40950000Y-70358000D03*
X47950000Y-72898000D03*
X40950000Y-72898000D03*
X47950000Y-75438000D03*
X40950000Y-75438000D03*
X47950000Y-77978000D03*
X40950000Y-77978000D03*
X47950000Y-80518000D03*
X40950000Y-80518000D03*
D13*
X90424000Y-78740000D03*
X82296000Y-78740000D03*
D14*
X84860000Y-78740000D03*
X87860000Y-78740000D03*
D13*
X90424000Y-81280000D03*
X82296000Y-81280000D03*
D14*
X84860000Y-81280000D03*
X87860000Y-81280000D03*
D13*
X90424000Y-83820000D03*
X82296000Y-83820000D03*
D14*
X84860000Y-83820000D03*
X87860000Y-83820000D03*
D13*
X90424000Y-86360000D03*
X82296000Y-86360000D03*
D14*
X84860000Y-86360000D03*
X87860000Y-86360000D03*
D13*
X90424000Y-88900000D03*
X82296000Y-88900000D03*
D14*
X84860000Y-88900000D03*
X87860000Y-88900000D03*
D13*
X90424000Y-91440000D03*
X82296000Y-91440000D03*
D14*
X84860000Y-91440000D03*
X87860000Y-91440000D03*
D13*
X90424000Y-93980000D03*
X82296000Y-93980000D03*
D14*
X84860000Y-93980000D03*
X87860000Y-93980000D03*
D15*
X75184000Y-139700000D03*
X67056000Y-139700000D03*
X75184000Y-124460000D03*
X67056000Y-124460000D03*
X75184000Y-109220000D03*
X67056000Y-109220000D03*
X75184000Y-93980000D03*
X67056000Y-93980000D03*
X75171300Y-78740000D03*
X67043300Y-78740000D03*
X75184000Y-63500000D03*
X67056000Y-63500000D03*
X75184000Y-48260000D03*
X67056000Y-48260000D03*
X75184000Y-33020000D03*
X67056000Y-33020000D03*
D16*
X59690000Y-52070000D03*
X59690000Y-54570000D03*
D17*
X53090000Y-57170000D03*
X53090000Y-46970000D03*
D16*
X59690000Y-49570000D03*
X113030000Y-52070000D03*
X113030000Y-49570000D03*
D17*
X119630000Y-46970000D03*
X119630000Y-57170000D03*
D16*
X113030000Y-54570000D03*
X59690000Y-120650000D03*
X59690000Y-123150000D03*
D17*
X53090000Y-125750000D03*
X53090000Y-115550000D03*
D16*
X59690000Y-118150000D03*
X113030000Y-120650000D03*
X113030000Y-118150000D03*
D17*
X119630000Y-115550000D03*
X119630000Y-125750000D03*
D16*
X113030000Y-123150000D03*
D18*
X101600000Y-32004000D03*
X101600000Y-34036000D03*
X101600000Y-47244000D03*
X101600000Y-49276000D03*
X101600000Y-62484000D03*
X101600000Y-64516000D03*
X101600000Y-77724000D03*
X101600000Y-79756000D03*
X101600000Y-92964000D03*
X101600000Y-94996000D03*
X101600000Y-108204000D03*
X101600000Y-110236000D03*
X101600000Y-123444000D03*
X101600000Y-125476000D03*
X101600000Y-138684000D03*
X101600000Y-140716000D03*
D19*
X132080000Y-132080000D03*
X40640000Y-132080000D03*
X116840000Y-78740000D03*
X55880000Y-78740000D03*
X116840000Y-93980000D03*
X55880000Y-93980000D03*
X132080000Y-40640000D03*
X40640000Y-40640000D03*
D20*
X55880000Y-139700000D03*
X116840000Y-139700000D03*
X55880000Y-33020000D03*
X116840000Y-33020000D03*
D19*
X116840000Y-139700000D03*
X55880000Y-139700000D03*
D21*
X36512500Y-116903500D03*
X123507500Y-132016500D03*
X31432500Y-119443500D03*
X132397500Y-123126500D03*
X31432500Y-104203500D03*
X141287500Y-114236500D03*
X31432500Y-88963500D03*
X141287500Y-98996500D03*
X31432500Y-73723500D03*
X141300200Y-83769200D03*
X31432500Y-58483500D03*
X141287500Y-68516500D03*
X36512500Y-55943500D03*
X141287500Y-53276500D03*
X41592500Y-55943500D03*
X141287500Y-38036500D03*
X111760000Y-139700000D03*
D22*
X52565300Y-72072500D03*
X75184000Y-144729200D03*
X75184000Y-129489200D03*
X75184000Y-114198400D03*
X75184000Y-98958400D03*
X75184000Y-68478400D03*
X75184000Y-53289200D03*
X75184000Y-38049200D03*
X109931200Y-53289200D03*
X75171300Y-81813400D03*
X101600000Y-38049200D03*
X101600000Y-53289200D03*
X101600000Y-68529200D03*
X101600000Y-83769200D03*
X101600000Y-99009200D03*
X101600000Y-114249200D03*
X101600000Y-129489200D03*
X101600000Y-144729200D03*
X129476500Y-114236500D03*
X113030000Y-43230800D03*
X55943500Y-73723500D03*
X129362200Y-119443500D03*
X67056000Y-134670800D03*
X67056000Y-119430800D03*
X67056000Y-104190800D03*
X67056000Y-88950800D03*
X67056000Y-58470800D03*
X67056000Y-43230800D03*
X67056000Y-27990800D03*
X67043300Y-73723500D03*
X101600000Y-27990800D03*
X101600000Y-43230800D03*
X101600000Y-58470800D03*
X101650800Y-73660000D03*
X101600000Y-88950800D03*
X101600000Y-104190800D03*
X101600000Y-119430800D03*
X101600000Y-134670800D03*
M02*
