G04 #@! TF.FileFunction,Drawing*
%FSLAX46Y46*%
G04 Gerber Fmt 4.6, Leading zero omitted, Abs format (unit mm)*
G04 Created by KiCad (PCBNEW 0.201503311001+5559~22~ubuntu14.10.1-product) date Sunday 05 April 2015 05:24:30 PM IST*
%MOMM*%
G01*
G04 APERTURE LIST*
%ADD10C,0.152400*%
%ADD11C,0.254000*%
%ADD12C,0.203200*%
G04 APERTURE END LIST*
D10*
D11*
X147320000Y-33020000D02*
X139700000Y-25400000D01*
X147320000Y-139700000D02*
X139700000Y-147320000D01*
X25400000Y-139700000D02*
X33020000Y-147320000D01*
X33020000Y-25400000D02*
X25400000Y-33020000D01*
D12*
X19230219Y-64709524D02*
X19230219Y-65290095D01*
X19230219Y-64999809D02*
X18214219Y-64999809D01*
X18359362Y-65096571D01*
X18456124Y-65193333D01*
X18504505Y-65290095D01*
X19133457Y-64274095D02*
X19181838Y-64225714D01*
X19230219Y-64274095D01*
X19181838Y-64322476D01*
X19133457Y-64274095D01*
X19230219Y-64274095D01*
X18649648Y-63645142D02*
X18601267Y-63741904D01*
X18552886Y-63790285D01*
X18456124Y-63838666D01*
X18407743Y-63838666D01*
X18310981Y-63790285D01*
X18262600Y-63741904D01*
X18214219Y-63645142D01*
X18214219Y-63451619D01*
X18262600Y-63354857D01*
X18310981Y-63306476D01*
X18407743Y-63258095D01*
X18456124Y-63258095D01*
X18552886Y-63306476D01*
X18601267Y-63354857D01*
X18649648Y-63451619D01*
X18649648Y-63645142D01*
X18698029Y-63741904D01*
X18746410Y-63790285D01*
X18843171Y-63838666D01*
X19036695Y-63838666D01*
X19133457Y-63790285D01*
X19181838Y-63741904D01*
X19230219Y-63645142D01*
X19230219Y-63451619D01*
X19181838Y-63354857D01*
X19133457Y-63306476D01*
X19036695Y-63258095D01*
X18843171Y-63258095D01*
X18746410Y-63306476D01*
X18698029Y-63354857D01*
X18649648Y-63451619D01*
X18214219Y-62096952D02*
X18407743Y-62096952D01*
X18214219Y-61709905D02*
X18407743Y-61709905D01*
X19685000Y-86360000D02*
X19685000Y-40640000D01*
X27686000Y-86360000D02*
X17856200Y-86360000D01*
X27686000Y-40640000D02*
X17856200Y-40640000D01*
X19685000Y-40640000D02*
X20271421Y-41766504D01*
X19685000Y-40640000D02*
X19098579Y-41766504D01*
X19685000Y-86360000D02*
X20271421Y-85233496D01*
X19685000Y-86360000D02*
X19098579Y-85233496D01*
D11*
X147320000Y-117856000D02*
G75*
G03X145796000Y-116332000I-1524000J0D01*
G01*
X144272000Y-114808000D02*
G75*
G03X145796000Y-116332000I1524000J0D01*
G01*
X145796000Y-85852000D02*
G75*
G03X144272000Y-87376000I0J-1524000D01*
G01*
X145796000Y-85852000D02*
G75*
G03X147320000Y-84328000I0J1524000D01*
G01*
X25400000Y-54864000D02*
G75*
G03X26924000Y-56388000I1524000J0D01*
G01*
X28448000Y-57912000D02*
G75*
G03X26924000Y-56388000I-1524000J0D01*
G01*
X26924000Y-86868000D02*
G75*
G03X25400000Y-88392000I0J-1524000D01*
G01*
X26924000Y-86868000D02*
G75*
G03X28448000Y-85344000I0J1524000D01*
G01*
X33909000Y-48260000D02*
G75*
G03X33909000Y-48260000I-889000J0D01*
G01*
X31496000Y-48260000D02*
X34544000Y-48260000D01*
X33020000Y-46736000D02*
X33020000Y-49784000D01*
X33020000Y-31496000D02*
X33020000Y-34544000D01*
X31496000Y-33020000D02*
X34544000Y-33020000D01*
X33909000Y-33020000D02*
G75*
G03X33909000Y-33020000I-889000J0D01*
G01*
X48260000Y-31496000D02*
X48260000Y-34544000D01*
X46736000Y-33020000D02*
X49784000Y-33020000D01*
X49149000Y-33020000D02*
G75*
G03X49149000Y-33020000I-889000J0D01*
G01*
X147320000Y-84328000D02*
X147320000Y-33020000D01*
X147320000Y-117856000D02*
X147320000Y-139700000D01*
X25400000Y-88392000D02*
X25400000Y-139700000D01*
X25400000Y-54864000D02*
X25400000Y-33020000D01*
X144272000Y-101092000D02*
X144272000Y-114808000D01*
X144272000Y-101092000D02*
X144272000Y-87376000D01*
X28448000Y-71628000D02*
X28448000Y-85344000D01*
X28448000Y-71628000D02*
X28448000Y-57912000D01*
X139700000Y-147320000D02*
X33020000Y-147320000D01*
X33020000Y-25400000D02*
X139700000Y-25400000D01*
D12*
X21866981Y-130386667D02*
X21866981Y-129806096D01*
X21866981Y-130096382D02*
X22882981Y-130096382D01*
X22737838Y-129999620D01*
X22641076Y-129902858D01*
X22592695Y-129806096D01*
X21963743Y-130822096D02*
X21915362Y-130870477D01*
X21866981Y-130822096D01*
X21915362Y-130773715D01*
X21963743Y-130822096D01*
X21866981Y-130822096D01*
X22786219Y-131257525D02*
X22834600Y-131305906D01*
X22882981Y-131402668D01*
X22882981Y-131644572D01*
X22834600Y-131741334D01*
X22786219Y-131789715D01*
X22689457Y-131838096D01*
X22592695Y-131838096D01*
X22447552Y-131789715D01*
X21866981Y-131209144D01*
X21866981Y-131838096D01*
X22882981Y-132467049D02*
X22882981Y-132563810D01*
X22834600Y-132660572D01*
X22786219Y-132708953D01*
X22689457Y-132757334D01*
X22495933Y-132805715D01*
X22254029Y-132805715D01*
X22060505Y-132757334D01*
X21963743Y-132708953D01*
X21915362Y-132660572D01*
X21866981Y-132563810D01*
X21866981Y-132467049D01*
X21915362Y-132370287D01*
X21963743Y-132321906D01*
X22060505Y-132273525D01*
X22254029Y-132225144D01*
X22495933Y-132225144D01*
X22689457Y-132273525D01*
X22786219Y-132321906D01*
X22834600Y-132370287D01*
X22882981Y-132467049D01*
X22882981Y-133966858D02*
X22689457Y-133966858D01*
X22882981Y-134353905D02*
X22689457Y-134353905D01*
X23241000Y-116840000D02*
X23241000Y-147320000D01*
X27686000Y-116840000D02*
X21412200Y-116840000D01*
X27686000Y-147320000D02*
X21412200Y-147320000D01*
X23241000Y-147320000D02*
X22654579Y-146193496D01*
X23241000Y-147320000D02*
X23827421Y-146193496D01*
X23241000Y-116840000D02*
X22654579Y-117966504D01*
X23241000Y-116840000D02*
X23827421Y-117966504D01*
X21866981Y-99906667D02*
X21866981Y-99326096D01*
X21866981Y-99616382D02*
X22882981Y-99616382D01*
X22737838Y-99519620D01*
X22641076Y-99422858D01*
X22592695Y-99326096D01*
X21963743Y-100342096D02*
X21915362Y-100390477D01*
X21866981Y-100342096D01*
X21915362Y-100293715D01*
X21963743Y-100342096D01*
X21866981Y-100342096D01*
X22786219Y-100777525D02*
X22834600Y-100825906D01*
X22882981Y-100922668D01*
X22882981Y-101164572D01*
X22834600Y-101261334D01*
X22786219Y-101309715D01*
X22689457Y-101358096D01*
X22592695Y-101358096D01*
X22447552Y-101309715D01*
X21866981Y-100729144D01*
X21866981Y-101358096D01*
X22882981Y-101987049D02*
X22882981Y-102083810D01*
X22834600Y-102180572D01*
X22786219Y-102228953D01*
X22689457Y-102277334D01*
X22495933Y-102325715D01*
X22254029Y-102325715D01*
X22060505Y-102277334D01*
X21963743Y-102228953D01*
X21915362Y-102180572D01*
X21866981Y-102083810D01*
X21866981Y-101987049D01*
X21915362Y-101890287D01*
X21963743Y-101841906D01*
X22060505Y-101793525D01*
X22254029Y-101745144D01*
X22495933Y-101745144D01*
X22689457Y-101793525D01*
X22786219Y-101841906D01*
X22834600Y-101890287D01*
X22882981Y-101987049D01*
X22882981Y-103486858D02*
X22689457Y-103486858D01*
X22882981Y-103873905D02*
X22689457Y-103873905D01*
X23241000Y-86360000D02*
X23241000Y-116840000D01*
X27686000Y-86360000D02*
X21412200Y-86360000D01*
X27686000Y-116840000D02*
X21412200Y-116840000D01*
X23241000Y-116840000D02*
X22654579Y-115713496D01*
X23241000Y-116840000D02*
X23827421Y-115713496D01*
X23241000Y-86360000D02*
X22654579Y-87486504D01*
X23241000Y-86360000D02*
X23827421Y-87486504D01*
X137668001Y-150091019D02*
X137764762Y-150091019D01*
X137861524Y-150139400D01*
X137909905Y-150187781D01*
X137958286Y-150284543D01*
X138006667Y-150478067D01*
X138006667Y-150719971D01*
X137958286Y-150913495D01*
X137909905Y-151010257D01*
X137861524Y-151058638D01*
X137764762Y-151107019D01*
X137668001Y-151107019D01*
X137571239Y-151058638D01*
X137522858Y-151010257D01*
X137474477Y-150913495D01*
X137426096Y-150719971D01*
X137426096Y-150478067D01*
X137474477Y-150284543D01*
X137522858Y-150187781D01*
X137571239Y-150139400D01*
X137668001Y-150091019D01*
X138442096Y-151010257D02*
X138490477Y-151058638D01*
X138442096Y-151107019D01*
X138393715Y-151058638D01*
X138442096Y-151010257D01*
X138442096Y-151107019D01*
X139361334Y-150091019D02*
X139167811Y-150091019D01*
X139071049Y-150139400D01*
X139022668Y-150187781D01*
X138925906Y-150332924D01*
X138877525Y-150526448D01*
X138877525Y-150913495D01*
X138925906Y-151010257D01*
X138974287Y-151058638D01*
X139071049Y-151107019D01*
X139264572Y-151107019D01*
X139361334Y-151058638D01*
X139409715Y-151010257D01*
X139458096Y-150913495D01*
X139458096Y-150671590D01*
X139409715Y-150574829D01*
X139361334Y-150526448D01*
X139264572Y-150478067D01*
X139071049Y-150478067D01*
X138974287Y-150526448D01*
X138925906Y-150574829D01*
X138877525Y-150671590D01*
X140087049Y-150091019D02*
X140183810Y-150091019D01*
X140280572Y-150139400D01*
X140328953Y-150187781D01*
X140377334Y-150284543D01*
X140425715Y-150478067D01*
X140425715Y-150719971D01*
X140377334Y-150913495D01*
X140328953Y-151010257D01*
X140280572Y-151058638D01*
X140183810Y-151107019D01*
X140087049Y-151107019D01*
X139990287Y-151058638D01*
X139941906Y-151010257D01*
X139893525Y-150913495D01*
X139845144Y-150719971D01*
X139845144Y-150478067D01*
X139893525Y-150284543D01*
X139941906Y-150187781D01*
X139990287Y-150139400D01*
X140087049Y-150091019D01*
X141586858Y-150091019D02*
X141586858Y-150284543D01*
X141973905Y-150091019D02*
X141973905Y-150284543D01*
X132080000Y-149733000D02*
X147320000Y-149733000D01*
X132080000Y-143764000D02*
X132080000Y-151561800D01*
X147320000Y-143764000D02*
X147320000Y-151561800D01*
X147320000Y-149733000D02*
X146193496Y-150319421D01*
X147320000Y-149733000D02*
X146193496Y-149146579D01*
X132080000Y-149733000D02*
X133206504Y-150319421D01*
X132080000Y-149733000D02*
X133206504Y-149146579D01*
X115146667Y-151107019D02*
X114566096Y-151107019D01*
X114856382Y-151107019D02*
X114856382Y-150091019D01*
X114759620Y-150236162D01*
X114662858Y-150332924D01*
X114566096Y-150381305D01*
X115582096Y-151010257D02*
X115630477Y-151058638D01*
X115582096Y-151107019D01*
X115533715Y-151058638D01*
X115582096Y-151010257D01*
X115582096Y-151107019D01*
X116017525Y-150187781D02*
X116065906Y-150139400D01*
X116162668Y-150091019D01*
X116404572Y-150091019D01*
X116501334Y-150139400D01*
X116549715Y-150187781D01*
X116598096Y-150284543D01*
X116598096Y-150381305D01*
X116549715Y-150526448D01*
X115969144Y-151107019D01*
X116598096Y-151107019D01*
X117227049Y-150091019D02*
X117323810Y-150091019D01*
X117420572Y-150139400D01*
X117468953Y-150187781D01*
X117517334Y-150284543D01*
X117565715Y-150478067D01*
X117565715Y-150719971D01*
X117517334Y-150913495D01*
X117468953Y-151010257D01*
X117420572Y-151058638D01*
X117323810Y-151107019D01*
X117227049Y-151107019D01*
X117130287Y-151058638D01*
X117081906Y-151010257D01*
X117033525Y-150913495D01*
X116985144Y-150719971D01*
X116985144Y-150478067D01*
X117033525Y-150284543D01*
X117081906Y-150187781D01*
X117130287Y-150139400D01*
X117227049Y-150091019D01*
X118726858Y-150091019D02*
X118726858Y-150284543D01*
X119113905Y-150091019D02*
X119113905Y-150284543D01*
X101600000Y-149733000D02*
X132080000Y-149733000D01*
X101600000Y-143764000D02*
X101600000Y-151561800D01*
X132080000Y-143764000D02*
X132080000Y-151561800D01*
X132080000Y-149733000D02*
X130953496Y-150319421D01*
X132080000Y-149733000D02*
X130953496Y-149146579D01*
X101600000Y-149733000D02*
X102726504Y-150319421D01*
X101600000Y-149733000D02*
X102726504Y-149146579D01*
X91948001Y-150091019D02*
X92044762Y-150091019D01*
X92141524Y-150139400D01*
X92189905Y-150187781D01*
X92238286Y-150284543D01*
X92286667Y-150478067D01*
X92286667Y-150719971D01*
X92238286Y-150913495D01*
X92189905Y-151010257D01*
X92141524Y-151058638D01*
X92044762Y-151107019D01*
X91948001Y-151107019D01*
X91851239Y-151058638D01*
X91802858Y-151010257D01*
X91754477Y-150913495D01*
X91706096Y-150719971D01*
X91706096Y-150478067D01*
X91754477Y-150284543D01*
X91802858Y-150187781D01*
X91851239Y-150139400D01*
X91948001Y-150091019D01*
X92722096Y-151010257D02*
X92770477Y-151058638D01*
X92722096Y-151107019D01*
X92673715Y-151058638D01*
X92722096Y-151010257D01*
X92722096Y-151107019D01*
X93641334Y-150091019D02*
X93447811Y-150091019D01*
X93351049Y-150139400D01*
X93302668Y-150187781D01*
X93205906Y-150332924D01*
X93157525Y-150526448D01*
X93157525Y-150913495D01*
X93205906Y-151010257D01*
X93254287Y-151058638D01*
X93351049Y-151107019D01*
X93544572Y-151107019D01*
X93641334Y-151058638D01*
X93689715Y-151010257D01*
X93738096Y-150913495D01*
X93738096Y-150671590D01*
X93689715Y-150574829D01*
X93641334Y-150526448D01*
X93544572Y-150478067D01*
X93351049Y-150478067D01*
X93254287Y-150526448D01*
X93205906Y-150574829D01*
X93157525Y-150671590D01*
X94367049Y-150091019D02*
X94463810Y-150091019D01*
X94560572Y-150139400D01*
X94608953Y-150187781D01*
X94657334Y-150284543D01*
X94705715Y-150478067D01*
X94705715Y-150719971D01*
X94657334Y-150913495D01*
X94608953Y-151010257D01*
X94560572Y-151058638D01*
X94463810Y-151107019D01*
X94367049Y-151107019D01*
X94270287Y-151058638D01*
X94221906Y-151010257D01*
X94173525Y-150913495D01*
X94125144Y-150719971D01*
X94125144Y-150478067D01*
X94173525Y-150284543D01*
X94221906Y-150187781D01*
X94270287Y-150139400D01*
X94367049Y-150091019D01*
X95866858Y-150091019D02*
X95866858Y-150284543D01*
X96253905Y-150091019D02*
X96253905Y-150284543D01*
X86360000Y-149733000D02*
X101600000Y-149733000D01*
X86360000Y-143764000D02*
X86360000Y-151561800D01*
X101600000Y-143764000D02*
X101600000Y-151561800D01*
X101600000Y-149733000D02*
X100473496Y-150319421D01*
X101600000Y-149733000D02*
X100473496Y-149146579D01*
X86360000Y-149733000D02*
X87486504Y-150319421D01*
X86360000Y-149733000D02*
X87486504Y-149146579D01*
X76708001Y-150091019D02*
X76804762Y-150091019D01*
X76901524Y-150139400D01*
X76949905Y-150187781D01*
X76998286Y-150284543D01*
X77046667Y-150478067D01*
X77046667Y-150719971D01*
X76998286Y-150913495D01*
X76949905Y-151010257D01*
X76901524Y-151058638D01*
X76804762Y-151107019D01*
X76708001Y-151107019D01*
X76611239Y-151058638D01*
X76562858Y-151010257D01*
X76514477Y-150913495D01*
X76466096Y-150719971D01*
X76466096Y-150478067D01*
X76514477Y-150284543D01*
X76562858Y-150187781D01*
X76611239Y-150139400D01*
X76708001Y-150091019D01*
X77482096Y-151010257D02*
X77530477Y-151058638D01*
X77482096Y-151107019D01*
X77433715Y-151058638D01*
X77482096Y-151010257D01*
X77482096Y-151107019D01*
X78401334Y-150091019D02*
X78207811Y-150091019D01*
X78111049Y-150139400D01*
X78062668Y-150187781D01*
X77965906Y-150332924D01*
X77917525Y-150526448D01*
X77917525Y-150913495D01*
X77965906Y-151010257D01*
X78014287Y-151058638D01*
X78111049Y-151107019D01*
X78304572Y-151107019D01*
X78401334Y-151058638D01*
X78449715Y-151010257D01*
X78498096Y-150913495D01*
X78498096Y-150671590D01*
X78449715Y-150574829D01*
X78401334Y-150526448D01*
X78304572Y-150478067D01*
X78111049Y-150478067D01*
X78014287Y-150526448D01*
X77965906Y-150574829D01*
X77917525Y-150671590D01*
X79127049Y-150091019D02*
X79223810Y-150091019D01*
X79320572Y-150139400D01*
X79368953Y-150187781D01*
X79417334Y-150284543D01*
X79465715Y-150478067D01*
X79465715Y-150719971D01*
X79417334Y-150913495D01*
X79368953Y-151010257D01*
X79320572Y-151058638D01*
X79223810Y-151107019D01*
X79127049Y-151107019D01*
X79030287Y-151058638D01*
X78981906Y-151010257D01*
X78933525Y-150913495D01*
X78885144Y-150719971D01*
X78885144Y-150478067D01*
X78933525Y-150284543D01*
X78981906Y-150187781D01*
X79030287Y-150139400D01*
X79127049Y-150091019D01*
X80626858Y-150091019D02*
X80626858Y-150284543D01*
X81013905Y-150091019D02*
X81013905Y-150284543D01*
X71120000Y-149733000D02*
X86360000Y-149733000D01*
X71120000Y-143764000D02*
X71120000Y-151561800D01*
X86360000Y-143764000D02*
X86360000Y-151561800D01*
X86360000Y-149733000D02*
X85233496Y-150319421D01*
X86360000Y-149733000D02*
X85233496Y-149146579D01*
X71120000Y-149733000D02*
X72246504Y-150319421D01*
X71120000Y-149733000D02*
X72246504Y-149146579D01*
X46566667Y-151107019D02*
X45986096Y-151107019D01*
X46276382Y-151107019D02*
X46276382Y-150091019D01*
X46179620Y-150236162D01*
X46082858Y-150332924D01*
X45986096Y-150381305D01*
X47002096Y-151010257D02*
X47050477Y-151058638D01*
X47002096Y-151107019D01*
X46953715Y-151058638D01*
X47002096Y-151010257D01*
X47002096Y-151107019D01*
X47631049Y-150526448D02*
X47534287Y-150478067D01*
X47485906Y-150429686D01*
X47437525Y-150332924D01*
X47437525Y-150284543D01*
X47485906Y-150187781D01*
X47534287Y-150139400D01*
X47631049Y-150091019D01*
X47824572Y-150091019D01*
X47921334Y-150139400D01*
X47969715Y-150187781D01*
X48018096Y-150284543D01*
X48018096Y-150332924D01*
X47969715Y-150429686D01*
X47921334Y-150478067D01*
X47824572Y-150526448D01*
X47631049Y-150526448D01*
X47534287Y-150574829D01*
X47485906Y-150623210D01*
X47437525Y-150719971D01*
X47437525Y-150913495D01*
X47485906Y-151010257D01*
X47534287Y-151058638D01*
X47631049Y-151107019D01*
X47824572Y-151107019D01*
X47921334Y-151058638D01*
X47969715Y-151010257D01*
X48018096Y-150913495D01*
X48018096Y-150719971D01*
X47969715Y-150623210D01*
X47921334Y-150574829D01*
X47824572Y-150526448D01*
X48647049Y-150091019D02*
X48743810Y-150091019D01*
X48840572Y-150139400D01*
X48888953Y-150187781D01*
X48937334Y-150284543D01*
X48985715Y-150478067D01*
X48985715Y-150719971D01*
X48937334Y-150913495D01*
X48888953Y-151010257D01*
X48840572Y-151058638D01*
X48743810Y-151107019D01*
X48647049Y-151107019D01*
X48550287Y-151058638D01*
X48501906Y-151010257D01*
X48453525Y-150913495D01*
X48405144Y-150719971D01*
X48405144Y-150478067D01*
X48453525Y-150284543D01*
X48501906Y-150187781D01*
X48550287Y-150139400D01*
X48647049Y-150091019D01*
X50146858Y-150091019D02*
X50146858Y-150284543D01*
X50533905Y-150091019D02*
X50533905Y-150284543D01*
X25400000Y-149733000D02*
X71120000Y-149733000D01*
X25400000Y-143764000D02*
X25400000Y-151561800D01*
X71120000Y-143764000D02*
X71120000Y-151561800D01*
X71120000Y-149733000D02*
X69993496Y-150319421D01*
X71120000Y-149733000D02*
X69993496Y-149146579D01*
X25400000Y-149733000D02*
X26526504Y-150319421D01*
X25400000Y-149733000D02*
X26526504Y-149146579D01*
X22755981Y-27178001D02*
X22755981Y-27274762D01*
X22707600Y-27371524D01*
X22659219Y-27419905D01*
X22562457Y-27468286D01*
X22368933Y-27516667D01*
X22127029Y-27516667D01*
X21933505Y-27468286D01*
X21836743Y-27419905D01*
X21788362Y-27371524D01*
X21739981Y-27274762D01*
X21739981Y-27178001D01*
X21788362Y-27081239D01*
X21836743Y-27032858D01*
X21933505Y-26984477D01*
X22127029Y-26936096D01*
X22368933Y-26936096D01*
X22562457Y-26984477D01*
X22659219Y-27032858D01*
X22707600Y-27081239D01*
X22755981Y-27178001D01*
X21836743Y-27952096D02*
X21788362Y-28000477D01*
X21739981Y-27952096D01*
X21788362Y-27903715D01*
X21836743Y-27952096D01*
X21739981Y-27952096D01*
X22755981Y-28339144D02*
X22755981Y-28968096D01*
X22368933Y-28629430D01*
X22368933Y-28774572D01*
X22320552Y-28871334D01*
X22272171Y-28919715D01*
X22175410Y-28968096D01*
X21933505Y-28968096D01*
X21836743Y-28919715D01*
X21788362Y-28871334D01*
X21739981Y-28774572D01*
X21739981Y-28484287D01*
X21788362Y-28387525D01*
X21836743Y-28339144D01*
X22755981Y-29597049D02*
X22755981Y-29693810D01*
X22707600Y-29790572D01*
X22659219Y-29838953D01*
X22562457Y-29887334D01*
X22368933Y-29935715D01*
X22127029Y-29935715D01*
X21933505Y-29887334D01*
X21836743Y-29838953D01*
X21788362Y-29790572D01*
X21739981Y-29693810D01*
X21739981Y-29597049D01*
X21788362Y-29500287D01*
X21836743Y-29451906D01*
X21933505Y-29403525D01*
X22127029Y-29355144D01*
X22368933Y-29355144D01*
X22562457Y-29403525D01*
X22659219Y-29451906D01*
X22707600Y-29500287D01*
X22755981Y-29597049D01*
X22755981Y-31096858D02*
X22562457Y-31096858D01*
X22755981Y-31483905D02*
X22562457Y-31483905D01*
X23114000Y-25400000D02*
X23114000Y-33020000D01*
X33020000Y-25400000D02*
X21285200Y-25400000D01*
X33020000Y-33020000D02*
X21285200Y-33020000D01*
X23114000Y-33020000D02*
X22527579Y-31893496D01*
X23114000Y-33020000D02*
X23700421Y-31893496D01*
X23114000Y-25400000D02*
X22527579Y-26526504D01*
X23114000Y-25400000D02*
X23700421Y-26526504D01*
X27178001Y-22278219D02*
X27274762Y-22278219D01*
X27371524Y-22326600D01*
X27419905Y-22374981D01*
X27468286Y-22471743D01*
X27516667Y-22665267D01*
X27516667Y-22907171D01*
X27468286Y-23100695D01*
X27419905Y-23197457D01*
X27371524Y-23245838D01*
X27274762Y-23294219D01*
X27178001Y-23294219D01*
X27081239Y-23245838D01*
X27032858Y-23197457D01*
X26984477Y-23100695D01*
X26936096Y-22907171D01*
X26936096Y-22665267D01*
X26984477Y-22471743D01*
X27032858Y-22374981D01*
X27081239Y-22326600D01*
X27178001Y-22278219D01*
X27952096Y-23197457D02*
X28000477Y-23245838D01*
X27952096Y-23294219D01*
X27903715Y-23245838D01*
X27952096Y-23197457D01*
X27952096Y-23294219D01*
X28339144Y-22278219D02*
X28968096Y-22278219D01*
X28629430Y-22665267D01*
X28774572Y-22665267D01*
X28871334Y-22713648D01*
X28919715Y-22762029D01*
X28968096Y-22858790D01*
X28968096Y-23100695D01*
X28919715Y-23197457D01*
X28871334Y-23245838D01*
X28774572Y-23294219D01*
X28484287Y-23294219D01*
X28387525Y-23245838D01*
X28339144Y-23197457D01*
X29597049Y-22278219D02*
X29693810Y-22278219D01*
X29790572Y-22326600D01*
X29838953Y-22374981D01*
X29887334Y-22471743D01*
X29935715Y-22665267D01*
X29935715Y-22907171D01*
X29887334Y-23100695D01*
X29838953Y-23197457D01*
X29790572Y-23245838D01*
X29693810Y-23294219D01*
X29597049Y-23294219D01*
X29500287Y-23245838D01*
X29451906Y-23197457D01*
X29403525Y-23100695D01*
X29355144Y-22907171D01*
X29355144Y-22665267D01*
X29403525Y-22471743D01*
X29451906Y-22374981D01*
X29500287Y-22326600D01*
X29597049Y-22278219D01*
X31096858Y-22278219D02*
X31096858Y-22471743D01*
X31483905Y-22278219D02*
X31483905Y-22471743D01*
X33020000Y-23749000D02*
X25400000Y-23749000D01*
X33020000Y-33020000D02*
X33020000Y-21920200D01*
X25400000Y-33020000D02*
X25400000Y-21920200D01*
X25400000Y-23749000D02*
X26526504Y-23162579D01*
X25400000Y-23749000D02*
X26526504Y-24335421D01*
X33020000Y-23749000D02*
X31893496Y-23162579D01*
X33020000Y-23749000D02*
X31893496Y-24335421D01*
X22501981Y-35483801D02*
X22501981Y-35580562D01*
X22453600Y-35677324D01*
X22405219Y-35725705D01*
X22308457Y-35774086D01*
X22114933Y-35822467D01*
X21873029Y-35822467D01*
X21679505Y-35774086D01*
X21582743Y-35725705D01*
X21534362Y-35677324D01*
X21485981Y-35580562D01*
X21485981Y-35483801D01*
X21534362Y-35387039D01*
X21582743Y-35338658D01*
X21679505Y-35290277D01*
X21873029Y-35241896D01*
X22114933Y-35241896D01*
X22308457Y-35290277D01*
X22405219Y-35338658D01*
X22453600Y-35387039D01*
X22501981Y-35483801D01*
X21582743Y-36257896D02*
X21534362Y-36306277D01*
X21485981Y-36257896D01*
X21534362Y-36209515D01*
X21582743Y-36257896D01*
X21485981Y-36257896D01*
X22501981Y-37177134D02*
X22501981Y-36983611D01*
X22453600Y-36886849D01*
X22405219Y-36838468D01*
X22260076Y-36741706D01*
X22066552Y-36693325D01*
X21679505Y-36693325D01*
X21582743Y-36741706D01*
X21534362Y-36790087D01*
X21485981Y-36886849D01*
X21485981Y-37080372D01*
X21534362Y-37177134D01*
X21582743Y-37225515D01*
X21679505Y-37273896D01*
X21921410Y-37273896D01*
X22018171Y-37225515D01*
X22066552Y-37177134D01*
X22114933Y-37080372D01*
X22114933Y-36886849D01*
X22066552Y-36790087D01*
X22018171Y-36741706D01*
X21921410Y-36693325D01*
X22501981Y-37902849D02*
X22501981Y-37999610D01*
X22453600Y-38096372D01*
X22405219Y-38144753D01*
X22308457Y-38193134D01*
X22114933Y-38241515D01*
X21873029Y-38241515D01*
X21679505Y-38193134D01*
X21582743Y-38144753D01*
X21534362Y-38096372D01*
X21485981Y-37999610D01*
X21485981Y-37902849D01*
X21534362Y-37806087D01*
X21582743Y-37757706D01*
X21679505Y-37709325D01*
X21873029Y-37660944D01*
X22114933Y-37660944D01*
X22308457Y-37709325D01*
X22405219Y-37757706D01*
X22453600Y-37806087D01*
X22501981Y-37902849D01*
X22501981Y-39402658D02*
X22308457Y-39402658D01*
X22501981Y-39789705D02*
X22308457Y-39789705D01*
X23114000Y-33020000D02*
X23114000Y-48260000D01*
X33020000Y-33020000D02*
X21285200Y-33020000D01*
X33020000Y-48260000D02*
X21285200Y-48260000D01*
X23114000Y-48260000D02*
X22527579Y-47133496D01*
X23114000Y-48260000D02*
X23700421Y-47133496D01*
X23114000Y-33020000D02*
X22527579Y-34146504D01*
X23114000Y-33020000D02*
X23700421Y-34146504D01*
X38995048Y-22278219D02*
X39091809Y-22278219D01*
X39188571Y-22326600D01*
X39236952Y-22374981D01*
X39285333Y-22471743D01*
X39333714Y-22665267D01*
X39333714Y-22907171D01*
X39285333Y-23100695D01*
X39236952Y-23197457D01*
X39188571Y-23245838D01*
X39091809Y-23294219D01*
X38995048Y-23294219D01*
X38898286Y-23245838D01*
X38849905Y-23197457D01*
X38801524Y-23100695D01*
X38753143Y-22907171D01*
X38753143Y-22665267D01*
X38801524Y-22471743D01*
X38849905Y-22374981D01*
X38898286Y-22326600D01*
X38995048Y-22278219D01*
X39769143Y-23197457D02*
X39817524Y-23245838D01*
X39769143Y-23294219D01*
X39720762Y-23245838D01*
X39769143Y-23197457D01*
X39769143Y-23294219D01*
X40688381Y-22278219D02*
X40494858Y-22278219D01*
X40398096Y-22326600D01*
X40349715Y-22374981D01*
X40252953Y-22520124D01*
X40204572Y-22713648D01*
X40204572Y-23100695D01*
X40252953Y-23197457D01*
X40301334Y-23245838D01*
X40398096Y-23294219D01*
X40591619Y-23294219D01*
X40688381Y-23245838D01*
X40736762Y-23197457D01*
X40785143Y-23100695D01*
X40785143Y-22858790D01*
X40736762Y-22762029D01*
X40688381Y-22713648D01*
X40591619Y-22665267D01*
X40398096Y-22665267D01*
X40301334Y-22713648D01*
X40252953Y-22762029D01*
X40204572Y-22858790D01*
X41414096Y-22278219D02*
X41510857Y-22278219D01*
X41607619Y-22326600D01*
X41656000Y-22374981D01*
X41704381Y-22471743D01*
X41752762Y-22665267D01*
X41752762Y-22907171D01*
X41704381Y-23100695D01*
X41656000Y-23197457D01*
X41607619Y-23245838D01*
X41510857Y-23294219D01*
X41414096Y-23294219D01*
X41317334Y-23245838D01*
X41268953Y-23197457D01*
X41220572Y-23100695D01*
X41172191Y-22907171D01*
X41172191Y-22665267D01*
X41220572Y-22471743D01*
X41268953Y-22374981D01*
X41317334Y-22326600D01*
X41414096Y-22278219D01*
X42139810Y-22278219D02*
X42139810Y-22471743D01*
X42526857Y-22278219D02*
X42526857Y-22471743D01*
X33020000Y-23749000D02*
X48260000Y-23749000D01*
X33020000Y-33020000D02*
X33020000Y-21920200D01*
X48260000Y-33020000D02*
X48260000Y-21920200D01*
X48260000Y-23749000D02*
X47133496Y-24335421D01*
X48260000Y-23749000D02*
X47133496Y-23162579D01*
X33020000Y-23749000D02*
X34146504Y-24335421D01*
X33020000Y-23749000D02*
X34146504Y-23162579D01*
D11*
X30480000Y-50800000D02*
X30480000Y-45720000D01*
X35560000Y-50800000D02*
X30480000Y-50800000D01*
X35560000Y-46228000D02*
X35560000Y-50800000D01*
X35052000Y-45720000D02*
X35560000Y-46228000D01*
X34925000Y-45720000D02*
X35052000Y-45720000D01*
X30480000Y-45720000D02*
X34925000Y-45720000D01*
X45720000Y-35560000D02*
X45720000Y-30480000D01*
X50800000Y-35560000D02*
X45720000Y-35560000D01*
X50800000Y-30988000D02*
X50800000Y-35560000D01*
X50292000Y-30480000D02*
X50800000Y-30988000D01*
X45720000Y-30480000D02*
X50292000Y-30480000D01*
X30480000Y-35560000D02*
X30480000Y-30480000D01*
X35560000Y-35560000D02*
X30480000Y-35560000D01*
X35560000Y-30988000D02*
X35560000Y-35560000D01*
X35052000Y-30480000D02*
X35560000Y-30988000D01*
X30480000Y-30480000D02*
X35052000Y-30480000D01*
D12*
X84086096Y-46720881D02*
X84134477Y-46672500D01*
X84231239Y-46624119D01*
X84473143Y-46624119D01*
X84569905Y-46672500D01*
X84618286Y-46720881D01*
X84666667Y-46817643D01*
X84666667Y-46914405D01*
X84618286Y-47059548D01*
X84037715Y-47640119D01*
X84666667Y-47640119D01*
X85102096Y-47543357D02*
X85150477Y-47591738D01*
X85102096Y-47640119D01*
X85053715Y-47591738D01*
X85102096Y-47543357D01*
X85102096Y-47640119D01*
X86021334Y-46962786D02*
X86021334Y-47640119D01*
X85779430Y-46575738D02*
X85537525Y-47301452D01*
X86166477Y-47301452D01*
X86747049Y-46624119D02*
X86843810Y-46624119D01*
X86940572Y-46672500D01*
X86988953Y-46720881D01*
X87037334Y-46817643D01*
X87085715Y-47011167D01*
X87085715Y-47253071D01*
X87037334Y-47446595D01*
X86988953Y-47543357D01*
X86940572Y-47591738D01*
X86843810Y-47640119D01*
X86747049Y-47640119D01*
X86650287Y-47591738D01*
X86601906Y-47543357D01*
X86553525Y-47446595D01*
X86505144Y-47253071D01*
X86505144Y-47011167D01*
X86553525Y-46817643D01*
X86601906Y-46720881D01*
X86650287Y-46672500D01*
X86747049Y-46624119D01*
X88246858Y-46624119D02*
X88246858Y-46817643D01*
X88633905Y-46624119D02*
X88633905Y-46817643D01*
X55880000Y-46164500D02*
X116840000Y-46164500D01*
X55880000Y-33020000D02*
X55880000Y-48196500D01*
X116840000Y-33020000D02*
X116840000Y-48196500D01*
X116840000Y-46164500D02*
X115714780Y-46748700D01*
X116840000Y-46164500D02*
X115714780Y-45580300D01*
X55880000Y-46164500D02*
X57005220Y-46748700D01*
X55880000Y-46164500D02*
X57005220Y-45580300D01*
X38946667Y-47637579D02*
X38366096Y-47637579D01*
X38656382Y-47637579D02*
X38656382Y-46621579D01*
X38559620Y-46766722D01*
X38462858Y-46863484D01*
X38366096Y-46911865D01*
X39382096Y-47540817D02*
X39430477Y-47589198D01*
X39382096Y-47637579D01*
X39333715Y-47589198D01*
X39382096Y-47540817D01*
X39382096Y-47637579D01*
X39817525Y-46718341D02*
X39865906Y-46669960D01*
X39962668Y-46621579D01*
X40204572Y-46621579D01*
X40301334Y-46669960D01*
X40349715Y-46718341D01*
X40398096Y-46815103D01*
X40398096Y-46911865D01*
X40349715Y-47057008D01*
X39769144Y-47637579D01*
X40398096Y-47637579D01*
X41027049Y-46621579D02*
X41123810Y-46621579D01*
X41220572Y-46669960D01*
X41268953Y-46718341D01*
X41317334Y-46815103D01*
X41365715Y-47008627D01*
X41365715Y-47250531D01*
X41317334Y-47444055D01*
X41268953Y-47540817D01*
X41220572Y-47589198D01*
X41123810Y-47637579D01*
X41027049Y-47637579D01*
X40930287Y-47589198D01*
X40881906Y-47540817D01*
X40833525Y-47444055D01*
X40785144Y-47250531D01*
X40785144Y-47008627D01*
X40833525Y-46815103D01*
X40881906Y-46718341D01*
X40930287Y-46669960D01*
X41027049Y-46621579D01*
X42526858Y-46621579D02*
X42526858Y-46815103D01*
X42913905Y-46621579D02*
X42913905Y-46815103D01*
X25400000Y-46161960D02*
X55880000Y-46161960D01*
X25400000Y-33020000D02*
X25400000Y-48193960D01*
X55880000Y-33020000D02*
X55880000Y-48193960D01*
X55880000Y-46161960D02*
X54754780Y-46746160D01*
X55880000Y-46161960D02*
X54754780Y-45577760D01*
X25400000Y-46161960D02*
X26525220Y-46746160D01*
X25400000Y-46161960D02*
X26525220Y-45577760D01*
M02*
