M48
INCH,TZ
T1C0.025
T2C0.040
T3C0.120
%
G90
G05
T1
X020695Y-028375
X022025Y-029025
X026395Y-029025
X026400Y-011020
X026400Y-017020
X026400Y-023020
X026400Y-035020
X026400Y-041020
X026400Y-047020
X026400Y-053020
X029595Y-032210
X029600Y-014980
X029600Y-020980
X029600Y-026960
X029600Y-038960
X029600Y-044960
X029600Y-050980
X029600Y-056980
X040000Y-011020
X040000Y-014980
X040000Y-017020
X040000Y-020980
X040000Y-023020
X040000Y-026980
X040000Y-032980
X040000Y-035020
X040000Y-038980
X040000Y-041020
X040000Y-044980
X040000Y-047020
X040000Y-050980
X040000Y-053020
X040000Y-056980
X040020Y-029000
X043280Y-020980
X044500Y-017020
X050930Y-047025
X050975Y-044975
T2
X012375Y-023025
X012375Y-029025
X012375Y-035025
X012375Y-041025
X012375Y-047025
X014375Y-022025
X014375Y-046025
X016375Y-022025
X048625Y-051975
X052125Y-048475
X055625Y-014975
X055625Y-020975
X055625Y-026975
X055625Y-038975
X055625Y-044975
X055630Y-032980
T3
X016000Y-016000
X016000Y-052000
X022000Y-013000
X022000Y-031000
X022000Y-037000
X022000Y-055000
X046000Y-013000
X046000Y-031000
X046000Y-037000
X046000Y-055000
X052000Y-016000
X052000Y-052000
T0
M30
